<svg width="335" height="162" viewBox="0 0 335 162" fill="none" xmlns="http://www.w3.org/2000/svg">
<mask id="mask0_274_313" style="mask-type:alpha" maskUnits="userSpaceOnUse" x="0" y="0" width="335" height="163">
<path d="M0 60.0004C0 31.7162 0 17.574 8.7868 8.78722C17.5736 0.000427246 31.7157 0.000427246 60 0.000427246H275C303.284 0.000427246 317.426 0.000427246 326.213 8.78722C335 17.574 335 31.7162 335 60.0004V102C335 130.285 335 144.427 326.213 153.214C317.426 162 303.284 162 275 162H60C31.7157 162 17.5736 162 8.7868 153.214C0 144.427 0 130.285 0 102V60.0004Z" fill="#F89745"/>
</mask>
<g mask="url(#mask0_274_313)">
<path d="M0 60.0004C0 31.7162 0 17.574 8.7868 8.78722C17.5736 0.000427246 31.7157 0.000427246 60 0.000427246H275C303.284 0.000427246 317.426 0.000427246 326.213 8.78722C335 17.574 335 31.7162 335 60.0004V102C335 130.285 335 144.427 326.213 153.214C317.426 162 303.284 162 275 162H60C31.7157 162 17.5736 162 8.7868 153.214C0 144.427 0 130.285 0 102V60.0004Z" fill="#ACD1F6"/>
<path d="M288.363 129.583C286.464 128.122 284.694 126.501 283.07 124.738C281.128 122.687 279.337 120.496 277.713 118.184C275.793 115.336 273.957 112.821 270.974 107.592C272.391 106.592 273.693 105.44 274.859 104.156C275.928 102.959 276.933 101.813 277.873 100.7C278.65 99.7908 279.467 98.8484 280.325 97.8708C280.91 97.1148 281.647 96.4892 282.488 96.034C283.789 95.438 285.256 95.3092 286.642 95.6692C287.656 95.9612 288.65 96.3204 289.618 96.7444C290.642 97.1796 291.826 97.7364 293.176 98.3956V93.3972L270.315 80.1236L266.04 77.634V82.626C268.173 84.2444 270.207 85.9884 272.133 87.8484C273.579 89.282 274.296 90.4916 274.296 91.4644C274.242 93.3908 273.716 95.2732 272.766 96.9492C271.583 99.0916 270.03 101.008 268.178 102.607C264.969 97.0132 262.409 92.5164 260.498 89.1156C258.586 85.7156 255.845 80.7212 252.274 74.1332C256.19 74.0908 259.107 73.4164 261.022 72.1111C261.246 71.9575 261.451 71.7975 261.662 71.6311C263.535 70.0098 264.474 67.4839 264.478 64.0535C264.478 60.1026 262.908 56.0151 259.768 51.7911C258.994 50.7549 258.168 49.7595 257.291 48.8087C254.43 45.7471 251.122 43.1361 247.48 41.0647C242.07 37.9159 237.421 36.7298 233.534 37.5063C232.77 37.6518 232.031 37.9061 231.339 38.2615C228.941 39.5415 227.74 42.0055 227.736 45.6535C227.8 48.716 228.382 51.7454 229.458 54.6135C230.504 57.4383 231.72 60.1975 233.099 62.8759C233.833 64.3436 234.652 65.9116 235.557 67.5799C233.094 67.2544 230.606 67.1687 228.126 67.3239C226.41 67.4129 224.732 67.8598 223.198 68.6359L222.622 68.9751C221.16 69.844 219.985 71.1237 219.243 72.6551C218.544 74.1268 218.196 76.1748 218.2 78.7988C218.2 84.0516 220.135 89.4356 224.005 94.9524C227.912 100.508 232.994 105.136 238.891 108.508C242.242 110.553 245.924 111.998 249.771 112.776C253.203 113.372 256.729 113.072 260.011 111.906C260.864 113.519 261.916 115.388 263.166 117.512C264.416 119.637 265.421 121.361 266.181 122.684L294.738 139.272V134.082C292.626 132.76 290.501 131.26 288.363 129.583ZM244.555 46.0951C245.835 45.4978 247.542 45.8135 249.675 47.0423C251.32 47.9982 252.751 49.2811 253.88 50.8119C254.309 51.3851 254.7 51.9859 255.051 52.6103C256.41 55.0256 257.11 57.756 257.08 60.5271C257.169 62.7084 256.564 64.8616 255.352 66.6775C254.2 68.2903 252.395 69.2396 249.938 69.5255C247.446 64.6828 245.603 60.7255 244.408 57.6535C244.261 57.2695 244.12 56.9047 243.992 56.5463C243.186 54.5314 242.719 52.3969 242.61 50.2295C242.61 48.062 243.258 46.6839 244.555 46.0951ZM252.76 107.349C250.956 106.852 249.232 106.1 247.64 105.116C243.368 102.625 239.766 99.1332 237.144 94.9396C234.392 90.622 233.016 86.306 233.016 81.9924C232.985 79.898 233.372 77.818 234.155 75.874C234.485 75.0268 234.986 74.2564 235.627 73.6108C236.268 72.9658 237.035 72.4595 237.88 72.1239C240.99 77.854 244.35 83.9364 247.96 90.37L257.458 107.304C255.917 107.685 254.308 107.701 252.76 107.349Z" fill="#87BCF2" stroke="black" stroke-width="0.2" stroke-miterlimit="10"/>
<path d="M257.425 107.304C255.895 107.68 254.297 107.696 252.76 107.349C250.956 106.852 249.231 106.1 247.64 105.116C243.368 102.625 239.765 99.1332 237.144 94.9396C234.392 90.622 233.016 86.306 233.016 81.9924C232.985 79.898 233.372 77.818 234.155 75.874C234.485 75.0268 234.986 74.2564 235.627 73.6108C236.268 72.9658 237.035 72.4595 237.88 72.1239C240.99 77.854 244.35 83.9364 247.96 90.37L257.425 107.304Z" fill="#3679D0" stroke="black" stroke-width="0.2" stroke-miterlimit="10"/>
<path d="M257.08 60.5271C257.169 62.7083 256.564 64.8616 255.352 66.6775C254.2 68.2903 252.395 69.2396 249.937 69.5255C247.446 64.6828 245.602 60.7255 244.408 57.6535C244.261 57.2695 244.12 56.9047 243.992 56.5463C243.186 54.5314 242.718 52.3969 242.609 50.2295C242.609 48.062 243.249 46.6839 244.529 46.0951C245.809 45.5063 247.516 45.822 249.649 47.0423C251.303 47.9953 252.743 49.2784 253.88 50.8119C254.309 51.3851 254.7 51.9859 255.051 52.6103C256.41 55.0256 257.109 57.7559 257.08 60.5271Z" fill="#3679D0" stroke="black" stroke-width="0.2" stroke-miterlimit="10"/>
<path d="M283.383 7.97026L284.132 7.53506C283.873 7.66242 283.622 7.80786 283.383 7.97026Z" fill="black" stroke="black" stroke-width="0.2" stroke-linecap="round" stroke-linejoin="round"/>
<path d="M345.886 62.7159V67.7143L325.31 79.6884L315.134 85.6148L293.176 98.3956V93.3972L313.016 81.8452L327.755 73.2692V73.2628L341.029 65.5447L345.886 62.7159Z" fill="black" stroke="black" stroke-width="0.2" stroke-linecap="round" stroke-linejoin="round"/>
<path d="M347.435 103.452V108.642L294.725 139.324V134.133L342.974 106.05L347.435 103.452Z" fill="black" stroke="black" stroke-width="0.2" stroke-linecap="round" stroke-linejoin="round"/>
<path d="M289.618 96.7444L270.974 107.624C272.391 106.624 273.693 105.472 274.859 104.188C275.928 102.991 276.933 101.845 277.873 100.732C278.65 99.8228 279.467 98.8804 280.325 97.9028C280.91 97.1468 281.646 96.5212 282.488 96.066C283.789 95.47 285.256 95.3412 286.642 95.7012C287.655 95.9828 288.65 96.3316 289.618 96.7444Z" fill="#3679D0" stroke="black" stroke-width="0.2" stroke-miterlimit="10"/>
<path d="M347.434 103.452L342.954 106.05L294.705 134.133C292.598 132.776 290.477 131.26 288.343 129.583C286.445 128.122 284.674 126.501 283.05 124.738C281.108 122.687 279.318 120.496 277.694 118.184C275.774 115.336 273.937 112.821 270.955 107.592L289.598 96.7124C290.622 97.1476 291.806 97.7044 293.156 98.3636L315.114 85.5636L325.29 79.6372C327.364 83.0868 328.849 85.1604 330.41 87.4516C332.039 89.7788 333.841 91.9804 335.799 94.0372C337.421 95.8036 339.191 97.4268 341.092 98.8884C343.217 100.578 345.331 102.1 347.434 103.452Z" fill="#B9DCFC" stroke="black" stroke-width="0.2" stroke-miterlimit="10"/>
<path d="M261.022 72.1111L260.823 72.2263" stroke="black" stroke-width="0.2" stroke-linecap="round" stroke-linejoin="round"/>
<path d="M345.886 62.7158L341.028 65.5446L327.754 73.2628V73.2692L313.015 81.8452L293.175 93.3972L270.315 80.1236L266.02 77.634L280.555 69.1734L289.604 63.9062L299.703 58.031L309.713 52.2006L318.73 46.9526L345.886 62.7158Z" fill="#B9DCFC" stroke="black" stroke-width="0.2" stroke-miterlimit="10"/>
<path d="M317.175 33.3719C317.175 36.8108 316.237 39.3367 314.36 40.9495C314.009 41.2502 313.63 41.5159 313.227 41.7431L313.138 41.7943L306.245 45.8007L296.165 51.6695L286.565 57.2503L275.998 63.3943L261.022 72.1111C261.246 71.9575 261.451 71.7975 261.662 71.6311C263.535 70.0098 264.474 67.4839 264.478 64.0535C264.478 60.1026 262.908 56.0151 259.768 51.7911C258.994 50.755 258.167 49.7595 257.291 48.8087C254.43 45.7471 251.122 43.1361 247.48 41.0647C242.07 37.9159 237.421 36.7298 233.534 37.5063C232.77 37.6518 232.031 37.9061 231.339 38.2615L283.384 7.97027L284.133 7.53507C284.798 7.20731 285.503 6.97051 286.232 6.83107C290.123 6.05459 294.771 7.23859 300.178 10.3831C304.964 13.0835 309.146 16.7362 312.466 21.1159C315.606 25.3356 317.175 29.421 317.175 33.3719Z" fill="#B9DCFC" stroke="black" stroke-width="0.2" stroke-miterlimit="10"/>
<path d="M284.318 7.42619L284.132 7.53499" stroke="black" stroke-width="0.2" stroke-linecap="round" stroke-linejoin="round"/>
<path d="M235.518 67.6119C233.056 67.2864 230.567 67.2007 228.088 67.3559C226.372 67.4449 224.693 67.8919 223.16 68.6679L233.061 62.9079C233.795 64.3756 234.614 65.9436 235.518 67.6119Z" fill="#B9DCFC" stroke="black" stroke-width="0.2" stroke-miterlimit="10"/>
<path d="M347.262 103.452V108.648L318.712 92.0596C317.931 90.7372 316.926 89.0116 315.698 86.882C314.469 84.7532 313.417 82.8868 312.542 81.282C309.261 82.4492 305.733 82.7468 302.302 82.146C298.456 81.3668 294.774 79.9252 291.422 77.8836C285.527 74.5108 280.445 69.8832 276.536 64.3286C272.666 58.8032 270.731 53.4188 270.731 48.175C270.731 45.551 271.079 43.5008 271.774 42.0246C272.518 40.4964 273.693 39.2194 275.154 38.351L275.73 38.0118C277.263 37.2342 278.941 36.7852 280.658 36.6934C283.137 36.5404 285.626 36.6282 288.088 36.9558C287.188 35.2876 286.369 33.7196 285.63 32.2518C284.251 29.5713 283.035 26.81 281.989 23.983C280.916 21.1142 280.334 18.0852 280.267 15.023C280.267 11.8806 281.15 9.62779 282.91 8.24539M345.746 62.8182V67.7462C344.414 67.102 343.241 66.56 342.226 66.1206H342.187C341.221 65.6936 340.226 65.3344 339.211 65.0454C337.826 64.6786 336.357 64.8076 335.058 65.4102C334.218 65.8643 333.481 66.4875 332.894 67.2406C332.041 68.222 331.224 69.167 330.443 70.0758C329.5 71.1852 328.495 72.3372 327.429 73.5316C326.263 74.8156 324.96 75.9684 323.544 76.9684C324.184 78.0628 324.741 79.0356 325.272 79.9188M306.155 45.8134C305.746 45.0518 305.278 44.3158 304.875 43.5094C308.075 43.471 310.597 43.0102 312.453 42.1462M318.853 47.1574L318.597 47.0038V52.0022C320.73 53.6224 322.766 55.3663 324.696 57.2246C326.138 58.6582 326.857 59.8636 326.853 60.8406C326.798 62.7664 326.274 64.6495 325.323 66.3254C324.14 68.466 322.586 70.3796 320.734 71.9766C317.53 66.3916 314.97 61.8966 313.054 58.4918C312.27 57.1094 311.352 55.4624 310.302 53.551L309.662 52.4054M297.099 15.4198C298.379 14.8246 300.088 15.1446 302.219 16.3606C303.86 17.3191 305.289 18.6017 306.418 20.1302C306.846 20.7044 307.237 21.3052 307.589 21.9286C308.962 24.3423 309.674 27.075 309.656 29.8518C309.744 32.033 309.139 34.186 307.928 36.0022C306.776 37.6108 304.971 38.56 302.514 38.8502C300.018 34.0075 298.172 30.048 296.978 26.9718C296.83 26.5942 296.69 26.2294 296.562 25.8646C295.755 23.8519 295.289 21.7196 295.179 19.5542C295.162 17.3868 295.802 16.0086 297.099 15.4198ZM305.304 76.674C303.5 76.1756 301.776 75.4236 300.184 74.4404C295.912 71.95 292.31 68.4576 289.688 64.2646C286.936 59.9382 285.56 55.6224 285.56 51.3174C285.528 49.2197 285.918 47.1369 286.706 45.1926C287.032 44.3461 287.531 43.5764 288.17 42.9321C288.809 42.2877 289.574 41.7827 290.418 41.4486C293.528 47.1702 296.888 53.2524 300.498 59.695L309.995 76.6292C308.455 77.0028 306.85 77.018 305.304 76.674Z" stroke="black" stroke-width="0.2" stroke-linecap="round" stroke-linejoin="round" stroke-dasharray="0.8 1.6"/>
<path d="M309.714 52.2006L299.704 58.0246L289.605 63.9062L280.555 69.1734L266.04 77.634V82.626C268.173 84.2444 270.207 85.9884 272.133 87.8484C273.579 89.282 274.296 90.4916 274.296 91.4644C274.241 93.39 273.716 95.2732 272.766 96.9492C271.583 99.0916 270.03 101.008 268.177 102.607C264.969 97.0132 262.409 92.5164 260.497 89.1156C258.586 85.7156 255.845 80.7212 252.273 74.1332C256.19 74.0908 259.106 73.4164 261.022 72.111L276.005 63.3942L286.571 57.2502L296.171 51.6694L306.251 45.8006C307.522 48.1686 308.677 50.3019 309.714 52.2006Z" fill="#3679D0" stroke="black" stroke-width="0.2" stroke-miterlimit="10"/>
<path d="M266.168 122.735L318.712 92.0596" stroke="black" stroke-width="0.2" stroke-linecap="round" stroke-linejoin="round" stroke-dasharray="0.8 1.6"/>
<path d="M266.02 82.626L318.564 51.9511" stroke="black" stroke-width="0.2" stroke-linecap="round" stroke-linejoin="round" stroke-dasharray="0.8 1.6"/>
<path d="M233.061 62.9079L275.096 38.3511" stroke="black" stroke-width="0.2" stroke-linecap="round" stroke-linejoin="round" stroke-dasharray="0.8 1.6"/>
<mask id="path-21-inside-1_274_313" fill="white">
<path d="M-9.6 95.8004V65.0004H84.2V95.8004H54.8V163H19.8V95.8004H-9.6Z"/>
</mask>
<path d="M-9.6 95.8004H-9.85V96.0504H-9.6V95.8004ZM-9.6 65.0004V64.7504H-9.85V65.0004H-9.6ZM84.2 65.0004H84.45V64.7504H84.2V65.0004ZM84.2 95.8004V96.0504H84.45V95.8004H84.2ZM54.8 95.8004V95.5504H54.55V95.8004H54.8ZM54.8 163V163.25H55.05V163H54.8ZM19.8 163H19.55V163.25H19.8V163ZM19.8 95.8004H20.05V95.5504H19.8V95.8004ZM-9.35 95.8004V93.2338H-9.85V95.8004H-9.35ZM-9.35 88.1004V82.9671H-9.85V88.1004H-9.35ZM-9.35 77.8338V72.7004H-9.85V77.8338H-9.35ZM-9.35 67.5671V65.0004H-9.85V67.5671H-9.35ZM-9.6 65.2504H-6.99444V64.7504H-9.6V65.2504ZM-1.78333 65.2504H3.42778V64.7504H-1.78333V65.2504ZM8.63889 65.2504H13.85V64.7504H8.63889V65.2504ZM19.0611 65.2504H24.2722V64.7504H19.0611V65.2504ZM29.4833 65.2504H34.6945V64.7504H29.4833V65.2504ZM39.9056 65.2504H45.1167V64.7504H39.9056V65.2504ZM50.3278 65.2504H55.5389V64.7504H50.3278V65.2504ZM60.75 65.2504H65.9611V64.7504H60.75V65.2504ZM71.1722 65.2504H76.3834V64.7504H71.1722V65.2504ZM81.5945 65.2504H84.2V64.7504H81.5945V65.2504ZM83.95 65.0004V67.5671H84.45V65.0004H83.95ZM83.95 72.7004V77.8338H84.45V72.7004H83.95ZM83.95 82.9671V88.1004H84.45V82.9671H83.95ZM83.95 93.2338V95.8004H84.45V93.2338H83.95ZM84.2 95.5504H81.75V96.0504H84.2V95.5504ZM76.85 95.5504H71.95V96.0504H76.85V95.5504ZM67.05 95.5504H62.15V96.0504H67.05V95.5504ZM57.25 95.5504H54.8V96.0504H57.25V95.5504ZM54.55 95.8004V98.2004H55.05V95.8004H54.55ZM54.55 103V107.8H55.05V103H54.55ZM54.55 112.6V117.4H55.05V112.6H54.55ZM54.55 122.2V127H55.05V122.2H54.55ZM54.55 131.8V136.6H55.05V131.8H54.55ZM54.55 141.4V146.2H55.05V141.4H54.55ZM54.55 151V155.8H55.05V151H54.55ZM54.55 160.6V163H55.05V160.6H54.55ZM54.8 162.75H52.6125V163.25H54.8V162.75ZM48.2375 162.75H43.8625V163.25H48.2375V162.75ZM39.4875 162.75H35.1125V163.25H39.4875V162.75ZM30.7375 162.75H26.3625V163.25H30.7375V162.75ZM21.9875 162.75H19.8V163.25H21.9875V162.75ZM20.05 163V160.6H19.55V163H20.05ZM20.05 155.8V151H19.55V155.8H20.05ZM20.05 146.2V141.4H19.55V146.2H20.05ZM20.05 136.6V131.8H19.55V136.6H20.05ZM20.05 127V122.2H19.55V127H20.05ZM20.05 117.4V112.6H19.55V117.4H20.05ZM20.05 107.8V103H19.55V107.8H20.05ZM20.05 98.2004V95.8004H19.55V98.2004H20.05ZM19.8 95.5504H17.35V96.0504H19.8V95.5504ZM12.45 95.5504H7.55V96.0504H12.45V95.5504ZM2.65 95.5504H-2.25V96.0504H2.65V95.5504ZM-7.15 95.5504H-9.6V96.0504H-7.15V95.5504ZM-9.6 95.8004H-10.1V96.3004H-9.6V95.8004ZM-9.6 65.0004V64.5004H-10.1V65.0004H-9.6ZM84.2 65.0004H84.7V64.5004H84.2V65.0004ZM84.2 95.8004V96.3004H84.7V95.8004H84.2ZM54.8 95.8004V95.3004H54.3V95.8004H54.8ZM54.8 163V163.5H55.3V163H54.8ZM19.8 163H19.3V163.5H19.8V163ZM19.8 95.8004H20.3V95.3004H19.8V95.8004ZM-9.1 95.8004V93.2338H-10.1V95.8004H-9.1ZM-9.1 88.1004V82.9671H-10.1V88.1004H-9.1ZM-9.1 77.8338V72.7004H-10.1V77.8338H-9.1ZM-9.1 67.5671V65.0004H-10.1V67.5671H-9.1ZM-9.6 65.5004H-6.99444V64.5004H-9.6V65.5004ZM-1.78333 65.5004H3.42778V64.5004H-1.78333V65.5004ZM8.63889 65.5004H13.85V64.5004H8.63889V65.5004ZM19.0611 65.5004H24.2722V64.5004H19.0611V65.5004ZM29.4833 65.5004H34.6945V64.5004H29.4833V65.5004ZM39.9056 65.5004H45.1167V64.5004H39.9056V65.5004ZM50.3278 65.5004H55.5389V64.5004H50.3278V65.5004ZM60.75 65.5004H65.9611V64.5004H60.75V65.5004ZM71.1722 65.5004H76.3834V64.5004H71.1722V65.5004ZM81.5945 65.5004H84.2V64.5004H81.5945V65.5004ZM83.7 65.0004V67.5671H84.7V65.0004H83.7ZM83.7 72.7004V77.8338H84.7V72.7004H83.7ZM83.7 82.9671V88.1004H84.7V82.9671H83.7ZM83.7 93.2338V95.8004H84.7V93.2338H83.7ZM84.2 95.3004H81.75V96.3004H84.2V95.3004ZM76.85 95.3004H71.95V96.3004H76.85V95.3004ZM67.05 95.3004H62.15V96.3004H67.05V95.3004ZM57.25 95.3004H54.8V96.3004H57.25V95.3004ZM54.3 95.8004V98.2004H55.3V95.8004H54.3ZM54.3 103V107.8H55.3V103H54.3ZM54.3 112.6V117.4H55.3V112.6H54.3ZM54.3 122.2V127H55.3V122.2H54.3ZM54.3 131.8V136.6H55.3V131.8H54.3ZM54.3 141.4V146.2H55.3V141.4H54.3ZM54.3 151V155.8H55.3V151H54.3ZM54.3 160.6V163H55.3V160.6H54.3ZM54.8 162.5H52.6125V163.5H54.8V162.5ZM48.2375 162.5H43.8625V163.5H48.2375V162.5ZM39.4875 162.5H35.1125V163.5H39.4875V162.5ZM30.7375 162.5H26.3625V163.5H30.7375V162.5ZM21.9875 162.5H19.8V163.5H21.9875V162.5ZM20.3 163V160.6H19.3V163H20.3ZM20.3 155.8V151H19.3V155.8H20.3ZM20.3 146.2V141.4H19.3V146.2H20.3ZM20.3 136.6V131.8H19.3V136.6H20.3ZM20.3 127V122.2H19.3V127H20.3ZM20.3 117.4V112.6H19.3V117.4H20.3ZM20.3 107.8V103H19.3V107.8H20.3ZM20.3 98.2004V95.8004H19.3V98.2004H20.3ZM19.8 95.3004H17.35V96.3004H19.8V95.3004ZM12.45 95.3004H7.55V96.3004H12.45V95.3004ZM2.65 95.3004H-2.25V96.3004H2.65V95.3004ZM-7.15 95.3004H-9.6V96.3004H-7.15V95.3004Z" fill="url(#paint0_linear_274_313)" fill-opacity="0.6" mask="url(#path-21-inside-1_274_313)"/>
<path d="M29.48 53.0004L35.24 30.6004H44.36L50.28 53.0004H46.44L44.904 47.2404H34.6L33.16 53.0004H29.48ZM35.56 43.7204H44.008L41.48 34.1204H37.96L35.56 43.7204ZM52.67 53.0004V36.6804H56.03V43.2404H64.03V36.6804H67.39V53.0004H64.03V46.2804H56.03V53.0004H52.67ZM71.2325 53.0004V36.6804H82.7525V39.7204H74.5925V53.0004H71.2325ZM82.5975 53.0004L87.0775 36.6804H94.2775L98.7575 53.0004H95.2375L91.7175 39.7204H89.6375L86.1175 53.0004H82.5975ZM100.826 53.0004V36.6804H104.186V47.5604L104.154 47.8804H104.474L111.866 36.6804H115.546V53.0004H112.186V42.1204L112.218 41.8004H111.898L104.506 53.0004H100.826ZM119.389 53.0004V36.6804H122.749V47.5604L122.717 47.8804H123.037L130.429 36.6804H134.109V53.0004H130.749V42.1204L130.781 41.8004H130.461L123.069 53.0004H119.389ZM121.789 30.2804H124.509C124.509 31.4538 125.255 32.0404 126.749 32.0404C128.242 32.0404 128.989 31.4538 128.989 30.2804H131.709C131.709 31.5391 131.282 32.5524 130.429 33.3204C129.597 34.0671 128.37 34.4404 126.749 34.4404C125.127 34.4404 123.89 34.0671 123.037 33.3204C122.205 32.5524 121.789 31.5391 121.789 30.2804ZM139.327 50.9204C137.77 49.3204 136.991 47.2938 136.991 44.8404C136.991 42.3871 137.77 40.3604 139.327 38.7604C140.885 37.1604 142.826 36.3604 145.151 36.3604C147.754 36.3604 149.877 37.3524 151.519 39.3364C152.223 40.2538 152.714 41.2351 152.991 42.2804H149.471C149.322 41.7471 149.045 41.2671 148.639 40.8404C147.807 39.8804 146.645 39.4004 145.151 39.4004C143.829 39.4004 142.719 39.9018 141.823 40.9044C140.949 41.9071 140.511 43.2191 140.511 44.8404C140.511 46.4618 140.949 47.7738 141.823 48.7764C142.719 49.7791 143.829 50.2804 145.151 50.2804C146.687 50.2804 147.893 49.8004 148.767 48.8404C149.151 48.4138 149.439 47.9338 149.631 47.4004H152.991C152.714 48.4884 152.223 49.4804 151.519 50.3764C149.898 52.3391 147.775 53.3204 145.151 53.3204C142.826 53.3204 140.885 52.5204 139.327 50.9204ZM155.701 53.0004V36.6804H159.061V43.0804H161.461L166.421 36.6804H170.261L164.341 44.2004L170.741 53.0004H166.581L161.621 46.1204H159.061V53.0004H155.701ZM172.67 53.0004V36.6804H176.03V47.5604L175.998 47.8804H176.318L183.71 36.6804H187.39V53.0004H184.03V42.1204L184.062 41.8004H183.742L176.35 53.0004H172.67ZM191.233 53.0004V36.6804H194.593V47.5604L194.561 47.8804H194.881L202.273 36.6804H205.953V53.0004H202.593V42.1204L202.625 41.8004H202.305L194.913 53.0004H191.233ZM193.633 30.2804H196.353C196.353 31.4538 197.099 32.0404 198.593 32.0404C200.086 32.0404 200.833 31.4538 200.833 30.2804H203.553C203.553 31.5391 203.126 32.5524 202.273 33.3204C201.441 34.0671 200.214 34.4404 198.593 34.4404C196.971 34.4404 195.734 34.0671 194.881 33.3204C194.049 32.5524 193.633 31.5391 193.633 30.2804ZM218.124 53.0004L221.324 47.0804C220.769 46.8244 220.257 46.4831 219.788 46.0564C218.785 45.0964 218.284 43.8378 218.284 42.2804C218.284 40.6378 218.86 39.2938 220.012 38.2484C221.164 37.2031 222.721 36.6804 224.684 36.6804H232.044V53.0004H228.684V48.0404H224.524L221.964 53.0004H218.124ZM221.804 42.2804C221.804 43.1338 222.06 43.8058 222.572 44.2964C223.084 44.7658 223.841 45.0004 224.844 45.0004H228.684V39.7204H224.844C223.905 39.7204 223.158 39.9658 222.604 40.4564C222.07 40.9258 221.804 41.5338 221.804 42.2804ZM234.609 47.7204H237.969C238.054 48.1471 238.257 48.5738 238.577 49.0004C239.259 49.8538 240.337 50.2804 241.809 50.2804C242.961 50.2804 243.803 50.0884 244.337 49.7044C244.891 49.3204 245.169 48.8191 245.169 48.2004C245.169 47.5818 244.891 47.0804 244.337 46.6964C243.803 46.3124 242.961 46.1204 241.809 46.1204H240.049V43.2404H241.809C243.835 43.2404 244.849 42.6004 244.849 41.3204C244.849 40.7871 244.582 40.3391 244.049 39.9764C243.515 39.5924 242.715 39.4004 241.649 39.4004C240.518 39.4004 239.622 39.7524 238.961 40.4564C238.726 40.7338 238.555 41.0751 238.449 41.4804H235.089C235.323 40.4991 235.707 39.6458 236.241 38.9204C237.478 37.2138 239.334 36.3604 241.809 36.3604C243.857 36.3604 245.435 36.7871 246.545 37.6404C247.654 38.4938 248.209 39.5604 248.209 40.8404C248.209 42.0564 247.729 42.9951 246.769 43.6564C246.385 43.9551 245.905 44.1898 245.329 44.3604V44.4884C245.905 44.6164 246.438 44.8404 246.929 45.1604C247.995 45.8858 248.529 46.9524 248.529 48.3604C248.529 49.7898 247.942 50.9738 246.769 51.9124C245.617 52.8511 243.963 53.3204 241.809 53.3204C238.95 53.3204 236.913 52.3924 235.697 50.5364C235.121 49.6618 234.758 48.7231 234.609 47.7204ZM266.296 53.0004V36.6804H269.656V53.0004H266.296ZM251.576 53.0004V36.6804H254.936V42.1204H258.296C260.174 42.1204 261.678 42.6324 262.808 43.6564C263.96 44.6804 264.536 45.9818 264.536 47.5604C264.536 49.1391 263.96 50.4404 262.808 51.4644C261.678 52.4884 260.174 53.0004 258.296 53.0004H251.576ZM254.936 49.9604H258.296C259.171 49.9604 259.843 49.7471 260.312 49.3204C260.782 48.8938 261.016 48.3071 261.016 47.5604C261.016 46.8138 260.782 46.2271 260.312 45.8004C259.843 45.3738 259.171 45.1604 258.296 45.1604H254.936V49.9604ZM273.483 53.0004V36.6804H276.843V43.0804H279.243L284.203 36.6804H288.043L282.123 44.2004L288.523 53.0004H284.363L279.403 46.1204H276.843V53.0004H273.483Z" fill="black"/>
</g>
<defs>
<linearGradient id="paint0_linear_274_313" x1="-11" y1="121.321" x2="86.0043" y2="121.011" gradientUnits="userSpaceOnUse">
<stop/>
<stop offset="0.915" stop-opacity="0"/>
</linearGradient>
</defs>
</svg>
