<svg width="335" height="162" viewBox="0 0 335 162" fill="none" xmlns="http://www.w3.org/2000/svg">
<mask id="mask0_274_421" style="mask-type:alpha" maskUnits="userSpaceOnUse" x="0" y="0" width="335" height="163">
<path d="M0 60.0004C0 31.7162 0 17.574 8.7868 8.78722C17.5736 0.000427246 31.7157 0.000427246 60 0.000427246H275C303.284 0.000427246 317.426 0.000427246 326.213 8.78722C335 17.574 335 31.7162 335 60.0004V102C335 130.285 335 144.427 326.213 153.214C317.426 162 303.284 162 275 162H60C31.7157 162 17.5736 162 8.7868 153.214C0 144.427 0 130.285 0 102V60.0004Z" fill="#F89745"/>
</mask>
<g mask="url(#mask0_274_421)">
<path d="M0 60.0004C0 31.7162 0 17.574 8.7868 8.78722C17.5736 0.000427246 31.7157 0.000427246 60 0.000427246H275C303.284 0.000427246 317.426 0.000427246 326.213 8.78722C335 17.574 335 31.7162 335 60.0004V102C335 130.285 335 144.427 326.213 153.214C317.426 162 303.284 162 275 162H60C31.7157 162 17.5736 162 8.7868 153.214C0 144.427 0 130.285 0 102V60.0004Z" fill="#F28494"/>
<mask id="path-3-inside-1_274_421" fill="white">
<path d="M8.6 150.96C-1.66667 141.067 -6.8 128.747 -6.8 114C-6.8 99.2538 -1.66667 86.9338 8.6 77.0404C18.8667 67.1471 32.4 62.2004 49.2 62.2004C66 62.2004 79.5333 67.1471 89.8 77.0404C100.067 86.9338 105.2 99.2538 105.2 114C105.2 128.747 100.067 141.067 89.8 150.96C79.5333 160.854 66 165.8 49.2 165.8C32.4 165.8 18.8667 160.854 8.6 150.96ZM35.06 97.6204C31.42 101.634 29.6 107.094 29.6 114C29.6 120.907 31.42 126.367 35.06 130.38C38.7933 134.394 43.5067 136.4 49.2 136.4C54.8933 136.4 59.56 134.394 63.2 130.38C66.9333 126.367 68.8 120.907 68.8 114C68.8 107.094 66.9333 101.634 63.2 97.6204C59.56 93.6071 54.8933 91.6004 49.2 91.6004C43.5067 91.6004 38.7933 93.6071 35.06 97.6204ZM108.749 136.4L139.549 130.1C140.109 131.314 140.856 132.387 141.789 133.32C143.843 135.374 146.363 136.4 149.349 136.4C156.349 136.4 159.849 132.9 159.849 125.9V65.0004H194.849V125.2C194.849 137.707 190.929 147.6 183.089 154.88C175.249 162.16 164.236 165.8 150.049 165.8C135.676 165.8 124.523 160.9 116.589 151.1C113.043 146.62 110.429 141.72 108.749 136.4Z"/>
</mask>
<path d="M8.6 150.96L8.77347 150.78L8.6 150.96ZM8.6 77.0404L8.77347 77.2204L8.6 77.0404ZM89.8 77.0404L89.6265 77.2204L89.8 77.0404ZM89.8 150.96L89.6265 150.78L89.8 150.96ZM35.06 97.6204L34.8769 97.4501L34.8748 97.4525L35.06 97.6204ZM35.06 130.38L34.8748 130.548L34.877 130.551L35.06 130.38ZM63.2 130.38L63.0169 130.21L63.0148 130.212L63.2 130.38ZM63.2 97.6204L63.0148 97.7884L63.017 97.7907L63.2 97.6204ZM8.77347 150.78C8.15271 150.182 7.55086 149.575 6.96791 148.959L6.60478 149.303C7.19308 149.925 7.80033 150.537 8.42653 151.14L8.77347 150.78ZM3.62928 145.071C2.57198 143.707 1.59719 142.305 0.70483 140.864L0.279755 141.128C1.1815 142.584 2.16633 144 3.23418 145.377L3.62928 145.071ZM-1.7517 136.37C-2.48644 134.831 -3.13681 133.253 -3.70279 131.634L-4.17476 131.799C-3.60281 133.435 -2.94552 135.03 -2.20289 136.585L-1.7517 136.37ZM-5.13426 126.716C-5.52047 125.073 -5.8277 123.393 -6.05591 121.675L-6.55155 121.74C-6.32123 123.474 -6.01107 125.171 -5.62099 126.83L-5.13426 126.716ZM-6.49698 116.566C-6.53233 115.719 -6.55 114.864 -6.55 114H-7.05C-7.05 114.871 -7.03219 115.733 -6.99655 116.587L-6.49698 116.566ZM-6.55 114C-6.55 113.137 -6.53233 112.282 -6.49698 111.435L-6.99655 111.414C-7.03219 112.268 -7.05 113.13 -7.05 114H-6.55ZM-6.05591 106.326C-5.8277 104.608 -5.52046 102.928 -5.13426 101.285L-5.621 101.171C-6.01107 102.83 -6.32123 104.526 -6.55155 106.26L-6.05591 106.326ZM-3.70279 96.3664C-3.13681 94.7479 -2.48644 93.1694 -1.7517 91.6309L-2.20289 91.4154C-2.94552 92.9705 -3.60281 94.5658 -4.17476 96.2014L-3.70279 96.3664ZM0.70483 87.1364C1.59719 85.6956 2.57198 84.2935 3.62928 82.9302L3.23418 82.6237C2.16633 84.0007 1.1815 85.4171 0.279755 86.8731L0.70483 87.1364ZM6.96791 79.0416C7.55086 78.4257 8.15271 77.8186 8.77347 77.2204L8.42653 76.8604C7.80033 77.4638 7.19308 78.0763 6.60478 78.6978L6.96791 79.0416ZM8.77347 77.2204C9.43878 76.5793 10.1178 75.9591 10.8106 75.3598L10.4835 74.9817C9.78388 75.5869 9.09822 76.2131 8.42653 76.8604L8.77347 77.2204ZM15.1732 71.9867C16.6865 70.9452 18.2562 69.9891 19.8824 69.1182L19.6464 68.6774C18.0039 69.557 16.4184 70.5228 14.8897 71.5748L15.1732 71.9867ZM24.8785 66.7825C26.5635 66.1019 28.3018 65.5015 30.0934 64.9812L29.9539 64.5011C28.1465 65.0259 26.3923 65.6318 24.6912 66.3189L24.8785 66.7825ZM35.4605 63.693C37.2343 63.3517 39.0549 63.0807 40.9224 62.88L40.8689 62.3828C38.9882 62.585 37.1539 62.858 35.366 63.202L35.4605 63.693ZM46.4348 62.4962C47.3464 62.4657 48.2681 62.4504 49.2 62.4504V61.9504C48.2626 61.9504 47.3353 61.9658 46.4181 61.9965L46.4348 62.4962ZM49.2 62.4504C50.1319 62.4504 51.0536 62.4657 51.9652 62.4962L51.9819 61.9965C51.0647 61.9658 50.1374 61.9504 49.2 61.9504V62.4504ZM57.4776 62.88C59.3451 63.0807 61.1657 63.3517 62.9395 63.693L63.034 63.202C61.2461 62.858 59.4118 62.585 57.5311 62.3828L57.4776 62.88ZM68.3066 64.9812C70.0982 65.5015 71.8365 66.1019 73.5215 66.7825L73.7088 66.3189C72.0077 65.6318 70.2535 65.0259 68.4461 64.5011L68.3066 64.9812ZM78.5176 69.1182C80.1438 69.9891 81.7135 70.9452 83.2268 71.9867L83.5103 71.5748C81.9816 70.5228 80.3961 69.557 78.7537 68.6774L78.5176 69.1182ZM87.5894 75.3598C88.2822 75.9591 88.9612 76.5793 89.6265 77.2204L89.9735 76.8604C89.3018 76.2131 88.6161 75.5869 87.9165 74.9817L87.5894 75.3598ZM89.6265 77.2204C90.2473 77.8186 90.8492 78.4257 91.4321 79.0416L91.7952 78.6978C91.2069 78.0763 90.5997 77.4638 89.9735 76.8604L89.6265 77.2204ZM94.7707 82.9302C95.828 84.2935 96.8028 85.6956 97.6952 87.1364L98.1202 86.8731C97.2185 85.4171 96.2337 84.0007 95.1658 82.6237L94.7707 82.9302ZM100.152 91.6309C100.886 93.1694 101.537 94.7479 102.103 96.3664L102.575 96.2014C102.003 94.5658 101.346 92.9705 100.603 91.4154L100.152 91.6309ZM103.534 101.285C103.92 102.928 104.228 104.608 104.456 106.326L104.952 106.26C104.721 104.526 104.411 102.83 104.021 101.171L103.534 101.285ZM104.897 111.435C104.932 112.282 104.95 113.137 104.95 114H105.45C105.45 113.13 105.432 112.268 105.397 111.414L104.897 111.435ZM104.95 114C104.95 114.864 104.932 115.719 104.897 116.566L105.397 116.587C105.432 115.733 105.45 114.871 105.45 114H104.95ZM104.456 121.675C104.228 123.393 103.92 125.073 103.534 126.716L104.021 126.83C104.411 125.171 104.721 123.474 104.952 121.74L104.456 121.675ZM102.103 131.634C101.537 133.253 100.886 134.831 100.152 136.37L100.603 136.585C101.346 135.03 102.003 133.435 102.575 131.799L102.103 131.634ZM97.6952 140.864C96.8028 142.305 95.828 143.707 94.7707 145.071L95.1658 145.377C96.2337 144 97.2185 142.584 98.1203 141.128L97.6952 140.864ZM91.4321 148.959C90.8491 149.575 90.2473 150.182 89.6265 150.78L89.9735 151.14C90.5997 150.537 91.2069 149.925 91.7952 149.303L91.4321 148.959ZM89.6265 150.78C88.9612 151.422 88.2822 152.042 87.5894 152.641L87.9165 153.019C88.6161 152.414 89.3018 151.788 89.9735 151.14L89.6265 150.78ZM83.2268 156.014C81.7135 157.056 80.1438 158.012 78.5176 158.883L78.7537 159.323C80.3961 158.444 81.9816 157.478 83.5103 156.426L83.2268 156.014ZM73.5215 161.218C71.8365 161.899 70.0982 162.499 68.3066 163.02L68.4461 163.5C70.2535 162.975 72.0077 162.369 73.7088 161.682L73.5215 161.218ZM62.9395 164.308C61.1657 164.649 59.3451 164.92 57.4776 165.121L57.5311 165.618C59.4118 165.416 61.2461 165.143 63.034 164.799L62.9395 164.308ZM51.9652 165.505C51.0536 165.535 50.1319 165.55 49.2 165.55V166.05C50.1374 166.05 51.0647 166.035 51.9819 166.004L51.9652 165.505ZM49.2 165.55C48.2681 165.55 47.3464 165.535 46.4348 165.505L46.4181 166.004C47.3353 166.035 48.2626 166.05 49.2 166.05V165.55ZM40.9224 165.121C39.0549 164.92 37.2343 164.649 35.4605 164.308L35.366 164.799C37.1539 165.143 38.9882 165.416 40.8689 165.618L40.9224 165.121ZM30.0934 163.02C28.3018 162.499 26.5635 161.899 24.8785 161.218L24.6912 161.682C26.3923 162.369 28.1465 162.975 29.9539 163.5L30.0934 163.02ZM19.8824 158.883C18.2562 158.012 16.6865 157.056 15.1732 156.014L14.8897 156.426C16.4184 157.478 18.0039 158.444 19.6463 159.323L19.8824 158.883ZM10.8106 152.641C10.1178 152.042 9.43878 151.422 8.77347 150.78L8.42653 151.14C9.09822 151.788 9.78388 152.414 10.4835 153.019L10.8106 152.641ZM34.8748 97.4525C34.3727 98.006 33.9048 98.5868 33.4711 99.1947L33.8781 99.4851C34.3005 98.8931 34.7562 98.3275 35.2452 97.7884L34.8748 97.4525ZM31.307 103.101C30.7512 104.429 30.3142 105.85 29.9955 107.363L30.4847 107.466C30.7975 105.982 31.2255 104.591 31.7683 103.294L31.307 103.101ZM29.4155 111.776C29.3718 112.501 29.35 113.242 29.35 114H29.85C29.85 113.252 29.8715 112.52 29.9146 111.806L29.4155 111.776ZM29.35 114C29.35 114.759 29.3718 115.5 29.4155 116.225L29.9146 116.195C29.8715 115.481 29.85 114.749 29.85 114H29.35ZM29.9955 120.638C30.3142 122.151 30.7512 123.571 31.307 124.9L31.7683 124.707C31.2255 123.41 30.7975 122.019 30.4847 120.535L29.9955 120.638ZM33.4711 128.806C33.9048 129.414 34.3727 129.995 34.8748 130.548L35.2452 130.212C34.7562 129.673 34.3005 129.108 33.8781 128.516L33.4711 128.806ZM34.877 130.551C35.3393 131.048 35.8168 131.515 36.3095 131.951L36.6412 131.577C36.1609 131.151 35.6949 130.696 35.243 130.21L34.877 130.551ZM39.5708 134.278C40.7366 134.93 41.9681 135.448 43.2646 135.832L43.4064 135.352C42.145 134.979 40.948 134.476 39.815 133.842L39.5708 134.278ZM47.2003 136.565C47.8534 136.622 48.52 136.65 49.2 136.65V136.15C48.5339 136.15 47.8818 136.123 47.2436 136.067L47.2003 136.565ZM49.2 136.65C49.8756 136.65 50.5373 136.622 51.1851 136.566L51.142 136.068C50.5091 136.123 49.8618 136.15 49.2 136.15V136.65ZM55.0923 135.839C56.3822 135.457 57.6037 134.94 58.7565 134.288L58.5104 133.853C57.3911 134.486 56.2045 134.988 54.9504 135.359L55.0923 135.839ZM61.9784 131.955C62.4634 131.517 62.9323 131.048 63.3852 130.548L63.0148 130.212C62.5726 130.7 62.1154 131.157 61.6431 131.584L61.9784 131.955ZM63.383 130.551C63.8945 130.001 64.3715 129.424 64.8139 128.821L64.4106 128.525C63.9798 129.113 63.5152 129.674 63.017 130.21L63.383 130.551ZM67.0319 124.927C67.6045 123.597 68.0548 122.174 68.3834 120.66L67.8947 120.554C67.5725 122.039 67.1316 123.431 66.5726 124.729L67.0319 124.927ZM68.9824 116.233C69.0275 115.506 69.05 114.762 69.05 114H68.55C68.55 114.752 68.5278 115.486 68.4833 116.202L68.9824 116.233ZM69.05 114C69.05 113.239 69.0275 112.495 68.9824 111.768L68.4833 111.799C68.5278 112.515 68.55 113.249 68.55 114H69.05ZM68.3834 107.341C68.0548 105.826 67.6045 104.404 67.0319 103.074L66.5726 103.272C67.1316 104.57 67.5725 105.962 67.8947 107.447L68.3834 107.341ZM64.8139 99.1803C64.3715 98.5767 63.8945 98 63.383 97.4501L63.017 97.7907C63.5152 98.3264 63.9798 98.8881 64.4106 99.4759L64.8139 99.1803ZM63.3852 97.4525C62.9323 96.9531 62.4634 96.4841 61.9784 96.0456L61.6431 96.4165C62.1154 96.8436 62.5726 97.3008 63.0148 97.7884L63.3852 97.4525ZM58.7565 93.7126C57.6037 93.0608 56.3822 92.544 55.0923 92.162L54.9504 92.6414C56.2045 93.0128 57.3911 93.515 58.5104 94.1478L58.7565 93.7126ZM51.1851 91.4344C50.5373 91.3784 49.8756 91.3504 49.2 91.3504V91.8504C49.8618 91.8504 50.5091 91.8778 51.142 91.9325L51.1851 91.4344ZM49.2 91.3504C48.52 91.3504 47.8534 91.3788 47.2003 91.4355L47.2436 91.9336C47.8818 91.8782 48.5339 91.8504 49.2 91.8504V91.3504ZM43.2646 92.1692C41.9681 92.5525 40.7366 93.0704 39.5708 93.7229L39.815 94.1592C40.948 93.5251 42.145 93.0216 43.4064 92.6487L43.2646 92.1692ZM36.3095 96.0495C35.8168 96.4862 35.3393 96.9531 34.877 97.4501L35.243 97.7907C35.6948 97.305 36.1609 96.8494 36.6412 96.4236L36.3095 96.0495ZM8.6 150.96L8.94695 150.6L8.6 150.96ZM8.6 77.0404L8.94695 77.4005L8.6 77.0404ZM89.8 77.0404L89.4531 77.4005L89.8 77.0404ZM89.8 150.96L89.4531 150.6L89.8 150.96ZM35.06 97.6204L34.6939 97.2798L34.6896 97.2845L35.06 97.6204ZM35.06 130.38L34.6896 130.716L34.6939 130.721L35.06 130.38ZM63.2 130.38L62.8339 130.04L62.8296 130.045L63.2 130.38ZM63.2 97.6204L62.8296 97.9564L62.8339 97.961L63.2 97.6204ZM8.94695 150.6C8.32889 150.005 7.72974 149.4 7.14948 148.787L6.42322 149.475C7.01419 150.099 7.62414 150.714 8.25305 151.32L8.94695 150.6ZM3.82684 144.917C2.77481 143.561 1.80503 142.166 0.917369 140.733L0.0672159 141.259C0.973656 142.723 1.9635 144.147 3.03662 145.53L3.82684 144.917ZM-1.52611 136.262C-2.25691 134.732 -2.90381 133.162 -3.4668 131.552L-4.41075 131.882C-3.83581 133.526 -3.17506 135.13 -2.42849 136.693L-1.52611 136.262ZM-4.8909 126.659C-5.27517 125.024 -5.58093 123.352 -5.80808 121.642L-6.79938 121.773C-6.568 123.515 -6.25637 125.22 -5.86436 126.887L-4.8909 126.659ZM-6.2472 116.555C-6.2824 115.712 -6.3 114.861 -6.3 114H-7.3C-7.3 114.874 -7.28212 115.74 -7.24633 116.597L-6.2472 116.555ZM-6.3 114C-6.3 113.14 -6.2824 112.289 -6.2472 111.445L-7.24633 111.404C-7.28212 112.261 -7.3 113.127 -7.3 114H-6.3ZM-5.80808 106.359C-5.58093 104.649 -5.27517 102.977 -4.8909 101.342L-5.86436 101.113C-6.25636 102.781 -6.568 104.486 -6.79938 106.227L-5.80808 106.359ZM-3.4668 96.4489C-2.90381 94.839 -2.25691 93.2689 -1.52611 91.7386L-2.42849 91.3077C-3.17506 92.871 -3.83581 94.4747 -4.41075 96.1188L-3.4668 96.4489ZM0.917369 87.268C1.80503 85.8348 2.77481 84.4399 3.82684 83.0834L3.03662 82.4705C1.9635 83.8543 0.973656 85.2779 0.0672159 86.7415L0.917369 87.268ZM7.14948 79.2134C7.72975 78.6004 8.32889 77.996 8.94695 77.4005L8.25305 76.6804C7.62414 77.2864 7.01419 77.9016 6.42322 78.526L7.14948 79.2134ZM8.94695 77.4005C9.60905 76.7624 10.2848 76.1453 10.9742 75.5489L10.3199 74.7926C9.61691 75.4008 8.92795 76.03 8.25305 76.6804L8.94695 77.4005ZM15.3149 72.1926C16.8206 71.1564 18.3824 70.2051 20.0004 69.3386L19.5283 68.4571C17.8778 69.341 16.2843 70.3115 14.748 71.3688L15.3149 72.1926ZM24.9721 67.0143C26.6491 66.337 28.3794 65.7393 30.1631 65.2213L29.8842 64.261C28.0689 64.7881 26.3067 65.3968 24.5976 66.0871L24.9721 67.0143ZM35.5077 63.9385C37.2745 63.5986 39.0882 63.3285 40.9491 63.1285L40.8422 62.1343C38.9549 62.3371 37.1137 62.6111 35.3188 62.9565L35.5077 63.9385ZM46.4432 62.7461C47.3519 62.7156 48.2708 62.7004 49.2 62.7004V61.7004C48.2599 61.7004 47.3298 61.7158 46.4097 61.7466L46.4432 62.7461ZM49.2 62.7004C50.1292 62.7004 51.0481 62.7156 51.9568 62.7461L51.9903 61.7466C51.0702 61.7158 50.1401 61.7004 49.2 61.7004V62.7004ZM57.4509 63.1285C59.3118 63.3285 61.1255 63.5986 62.8923 63.9385L63.0812 62.9565C61.2863 62.6111 59.4451 62.3371 57.5578 62.1343L57.4509 63.1285ZM68.2369 65.2213C70.0206 65.7393 71.7509 66.337 73.4279 67.0143L73.8024 66.0871C72.0933 65.3968 70.3311 64.7881 68.5158 64.261L68.2369 65.2213ZM78.3996 69.3386C80.0176 70.2051 81.5794 71.1564 83.0851 72.1926L83.652 71.3688C82.1157 70.3115 80.5222 69.341 78.8717 68.4571L78.3996 69.3386ZM87.4258 75.5489C88.1152 76.1453 88.7909 76.7624 89.4531 77.4005L90.1469 76.6804C89.4721 76.03 88.7831 75.4008 88.0801 74.7926L87.4258 75.5489ZM89.4531 77.4005C90.0711 77.996 90.6703 78.6004 91.2505 79.2134L91.9768 78.526C91.3858 77.9016 90.7759 77.2864 90.1469 76.6804L89.4531 77.4005ZM94.5732 83.0834C95.6252 84.4399 96.595 85.8348 97.4826 87.268L98.3328 86.7415C97.4263 85.2779 96.4365 83.8543 95.3634 82.4705L94.5732 83.0834ZM99.9261 91.7386C100.657 93.2689 101.304 94.839 101.867 96.4489L102.811 96.1188C102.236 94.4747 101.575 92.871 100.828 91.3077L99.9261 91.7386ZM103.291 101.342C103.675 102.977 103.981 104.649 104.208 106.359L105.199 106.227C104.968 104.486 104.656 102.781 104.264 101.113L103.291 101.342ZM104.647 111.445C104.682 112.289 104.7 113.14 104.7 114H105.7C105.7 113.127 105.682 112.261 105.646 111.404L104.647 111.445ZM104.7 114C104.7 114.861 104.682 115.712 104.647 116.555L105.646 116.597C105.682 115.74 105.7 114.874 105.7 114H104.7ZM104.208 121.642C103.981 123.352 103.675 125.024 103.291 126.659L104.264 126.887C104.656 125.22 104.968 123.515 105.199 121.773L104.208 121.642ZM101.867 131.552C101.304 133.162 100.657 134.732 99.9261 136.262L100.828 136.693C101.575 135.13 102.236 133.526 102.811 131.882L101.867 131.552ZM97.4826 140.733C96.595 142.166 95.6252 143.561 94.5732 144.917L95.3634 145.53C96.4365 144.147 97.4264 142.723 98.3328 141.259L97.4826 140.733ZM91.2505 148.787C90.6703 149.4 90.0711 150.005 89.4531 150.6L90.1469 151.32C90.7759 150.714 91.3858 150.099 91.9768 149.475L91.2505 148.787ZM89.4531 150.6C88.7909 151.238 88.1152 151.856 87.4258 152.452L88.0801 153.208C88.7831 152.6 89.4721 151.971 90.1469 151.32L89.4531 150.6ZM83.0851 155.808C81.5794 156.844 80.0176 157.796 78.3996 158.662L78.8717 159.544C80.5222 158.66 82.1157 157.689 83.652 156.632L83.0851 155.808ZM73.4279 160.987C71.7509 161.664 70.0206 162.262 68.2369 162.78L68.5158 163.74C70.3311 163.213 72.0933 162.604 73.8024 161.914L73.4279 160.987ZM62.8923 164.062C61.1255 164.402 59.3118 164.672 57.4509 164.872L57.5578 165.867C59.4451 165.664 61.2863 165.39 63.0812 165.044L62.8923 164.062ZM51.9568 165.255C51.0481 165.285 50.1292 165.3 49.2 165.3V166.3C50.1401 166.3 51.0702 166.285 51.9903 166.254L51.9568 165.255ZM49.2 165.3C48.2708 165.3 47.3519 165.285 46.4432 165.255L46.4097 166.254C47.3298 166.285 48.2599 166.3 49.2 166.3V165.3ZM40.9491 164.872C39.0882 164.672 37.2745 164.402 35.5077 164.062L35.3188 165.044C37.1137 165.39 38.9549 165.664 40.8422 165.867L40.9491 164.872ZM30.1631 162.78C28.3794 162.262 26.6491 161.664 24.9721 160.987L24.5976 161.914C26.3067 162.604 28.0689 163.213 29.8842 163.74L30.1631 162.78ZM20.0004 158.662C18.3824 157.796 16.8206 156.844 15.3149 155.808L14.748 156.632C16.2843 157.689 17.8778 158.66 19.5283 159.544L20.0004 158.662ZM10.9742 152.452C10.2848 151.856 9.60906 151.238 8.94695 150.6L8.25305 151.32C8.92795 151.971 9.61691 152.6 10.3199 153.208L10.9742 152.452ZM34.6896 97.2845C34.181 97.8453 33.707 98.4337 33.2676 99.0495L34.0816 99.6303C34.4984 99.0462 34.9479 98.4883 35.4304 97.9563L34.6896 97.2845ZM31.0764 103.004C30.5141 104.348 30.0726 105.785 29.7509 107.312L30.7294 107.518C31.0391 106.048 31.4626 104.672 31.9989 103.39L31.0764 103.004ZM29.1659 111.761C29.1219 112.491 29.1 113.237 29.1 114H30.1C30.1 113.256 30.1214 112.53 30.1641 111.821L29.1659 111.761ZM29.1 114C29.1 114.764 29.1219 115.51 29.1659 116.24L30.1641 116.18C30.1214 115.471 30.1 114.744 30.1 114H29.1ZM29.7509 120.689C30.0726 122.216 30.5141 123.652 31.0764 124.996L31.9989 124.611C31.4626 123.329 31.0391 121.953 30.7294 120.483L29.7509 120.689ZM33.2676 128.951C33.707 129.567 34.181 130.156 34.6896 130.716L35.4304 130.045C34.9479 129.513 34.4984 128.955 34.0816 128.371L33.2676 128.951ZM34.6939 130.721C35.1616 131.224 35.6448 131.696 36.1437 132.138L36.807 131.39C36.3329 130.97 35.8726 130.52 35.4261 130.04L34.6939 130.721ZM39.4487 134.496C40.631 135.158 41.8796 135.683 43.1938 136.071L43.4773 135.112C42.2335 134.745 41.0537 134.248 39.9371 133.623L39.4487 134.496ZM47.1786 136.814C47.8392 136.872 48.5131 136.9 49.2 136.9V135.9C48.5408 135.9 47.8959 135.873 47.2652 135.818L47.1786 136.814ZM49.2 136.9C49.8825 136.9 50.5514 136.872 51.2066 136.816L51.1205 135.819C50.495 135.873 49.8549 135.9 49.2 135.9V136.9ZM55.1633 136.079C56.471 135.691 57.71 135.167 58.8796 134.506L58.3874 133.635C57.2848 134.259 56.1157 134.754 54.8794 135.12L55.1633 136.079ZM62.1461 132.141C62.6373 131.696 63.1121 131.222 63.5704 130.716L62.8296 130.045C62.3928 130.526 61.9414 130.978 61.4754 131.399L62.1461 132.141ZM63.5661 130.721C64.0842 130.164 64.5674 129.58 65.0155 128.968L64.209 128.377C63.7839 128.957 63.3256 129.511 62.8339 130.04L63.5661 130.721ZM67.2615 125.025C67.8409 123.68 68.2959 122.242 68.6277 120.713L67.6504 120.501C67.3313 121.972 66.8952 123.348 66.343 124.63L67.2615 125.025ZM69.2319 116.248C69.2773 115.516 69.3 114.767 69.3 114H68.3C68.3 114.747 68.2779 115.475 68.2338 116.186L69.2319 116.248ZM69.3 114C69.3 113.234 69.2773 112.485 69.2319 111.753L68.2338 111.815C68.2779 112.525 68.3 113.254 68.3 114H69.3ZM68.6277 107.288C68.2959 105.759 67.8409 104.321 67.2615 102.975L66.343 103.371C66.8952 104.653 67.3313 106.029 67.6504 107.5L68.6277 107.288ZM65.0155 99.0325C64.5674 98.4211 64.0842 97.8368 63.5661 97.2799L62.8339 97.961C63.3256 98.4895 63.7839 99.0437 64.209 99.6237L65.0155 99.0325ZM63.5704 97.2845C63.1121 96.7792 62.6374 96.3044 62.1461 95.8602L61.4754 96.6019C61.9414 97.0233 62.3928 97.4747 62.8296 97.9563L63.5704 97.2845ZM58.8796 93.495C57.71 92.8337 56.471 92.3095 55.1633 91.9223L54.8794 92.8811C56.1157 93.2472 57.2848 93.7421 58.3874 94.3655L58.8796 93.495ZM51.2066 91.1853C50.5514 91.1287 49.8825 91.1004 49.2 91.1004V92.1004C49.8549 92.1004 50.495 92.1275 51.1205 92.1816L51.2066 91.1853ZM49.2 91.1004C48.5131 91.1004 47.8392 91.129 47.1786 91.1864L47.2652 92.1827C47.8959 92.1279 48.5408 92.1004 49.2 92.1004V91.1004ZM43.1938 91.9294C41.8796 92.3179 40.631 92.8431 39.4487 93.5048L39.9371 94.3774C41.0537 93.7524 42.2335 93.2561 43.4773 92.8884L43.1938 91.9294ZM36.1437 95.8624C35.6448 96.3046 35.1616 96.7771 34.6939 97.2799L35.4261 97.961C35.8726 97.481 36.3329 97.031 36.807 96.6107L36.1437 95.8624ZM108.749 136.4L108.699 136.155L108.427 136.211L108.511 136.476L108.749 136.4ZM139.549 130.1L139.776 129.996L139.693 129.816L139.499 129.855L139.549 130.1ZM141.789 133.32L141.612 133.497L141.789 133.32ZM159.849 65.0004V64.7504H159.599V65.0004H159.849ZM194.849 65.0004H195.099V64.7504H194.849V65.0004ZM183.089 154.88L183.259 155.064L183.089 154.88ZM116.589 151.1L116.393 151.256L116.395 151.258L116.589 151.1ZM108.511 136.476C108.723 137.147 108.949 137.811 109.191 138.468L109.66 138.296C109.421 137.646 109.197 136.989 108.988 136.325L108.511 136.476ZM110.823 142.349C111.426 143.613 112.087 144.851 112.808 146.062L113.238 145.806C112.525 144.608 111.87 143.384 111.275 142.134L110.823 142.349ZM115.122 149.578C115.532 150.143 115.955 150.703 116.393 151.256L116.785 150.945C116.352 150.398 115.933 149.844 115.527 149.285L115.122 149.578ZM116.395 151.258C116.899 151.88 117.415 152.483 117.945 153.066L118.315 152.73C117.792 152.154 117.281 151.558 116.784 150.943L116.395 151.258ZM121.352 156.393C122.561 157.437 123.826 158.397 125.147 159.272L125.423 158.855C124.12 157.992 122.872 157.045 121.679 156.015L121.352 156.393ZM129.278 161.644C130.688 162.339 132.153 162.952 133.671 163.482L133.836 163.01C132.336 162.486 130.891 161.881 129.499 161.195L129.278 161.644ZM138.246 164.795C139.761 165.142 141.323 165.416 142.931 165.619L142.994 165.123C141.401 164.922 139.856 164.65 138.357 164.308L138.246 164.795ZM147.671 166.005C148.454 166.035 149.247 166.05 150.049 166.05V165.55C149.253 165.55 148.467 165.535 147.691 165.505L147.671 166.005ZM150.049 166.05C150.804 166.05 151.549 166.04 152.286 166.02L152.272 165.52C151.54 165.54 150.799 165.55 150.049 165.55V166.05ZM156.748 165.76C158.269 165.623 159.748 165.437 161.185 165.203L161.105 164.71C159.68 164.942 158.213 165.126 156.703 165.262L156.748 165.76ZM165.57 164.306C167.05 163.937 168.48 163.51 169.86 163.024L169.694 162.552C168.33 163.033 166.915 163.456 165.449 163.821L165.57 164.306ZM174.001 161.316C175.369 160.664 176.678 159.944 177.929 159.156L177.662 158.733C176.429 159.51 175.136 160.221 173.786 160.865L174.001 161.316ZM181.569 156.538C182.148 156.064 182.711 155.573 183.259 155.064L182.919 154.697C182.379 155.199 181.823 155.684 181.252 156.151L181.569 156.538ZM183.259 155.064C183.939 154.433 184.589 153.782 185.211 153.112L184.844 152.772C184.231 153.433 183.59 154.075 182.919 154.697L183.259 155.064ZM188.634 148.786C189.655 147.263 190.555 145.659 191.334 143.975L190.881 143.765C190.112 145.425 189.225 147.006 188.219 148.507L188.634 148.786ZM193.271 138.812C193.779 137.089 194.181 135.296 194.477 133.434L193.983 133.356C193.69 135.198 193.293 136.969 192.791 138.67L193.271 138.812ZM195.034 127.955C195.078 127.051 195.099 126.133 195.099 125.2H194.599C194.599 126.125 194.578 127.035 194.535 127.931L195.034 127.955ZM195.099 125.2V122.692H194.599V125.2H195.099ZM195.099 117.675V112.659H194.599V117.675H195.099ZM195.099 107.642V102.625H194.599V107.642H195.099ZM195.099 97.6088V92.5921H194.599V97.6088H195.099ZM195.099 87.5754V82.5588H194.599V87.5754H195.099ZM195.099 77.5421V72.5254H194.599V77.5421H195.099ZM195.099 67.5088V65.0004H194.599V67.5088H195.099ZM194.849 64.7504H192.662V65.2504H194.849V64.7504ZM188.287 64.7504H183.912V65.2504H188.287V64.7504ZM179.537 64.7504H175.162V65.2504H179.537V64.7504ZM170.787 64.7504H166.412V65.2504H170.787V64.7504ZM162.037 64.7504H159.849V65.2504H162.037V64.7504ZM159.599 65.0004V67.5379H160.099V65.0004H159.599ZM159.599 72.6129V77.6879H160.099V72.6129H159.599ZM159.599 82.7629V87.8379H160.099V82.7629H159.599ZM159.599 92.9129V97.9879H160.099V92.9129H159.599ZM159.599 103.063V108.138H160.099V103.063H159.599ZM159.599 113.213V118.288H160.099V113.213H159.599ZM159.599 123.363V125.9H160.099V123.363H159.599ZM159.599 125.9C159.599 126.641 159.56 127.34 159.481 127.999L159.977 128.058C160.059 127.378 160.099 126.659 160.099 125.9H159.599ZM158.282 131.957C157.594 133.188 156.637 134.145 155.406 134.833L155.65 135.27C156.961 134.537 157.985 133.512 158.718 132.201L158.282 131.957ZM151.447 136.032C150.789 136.111 150.09 136.15 149.349 136.15V136.65C150.107 136.65 150.827 136.61 151.507 136.528L151.447 136.032ZM149.349 136.15C148.64 136.15 147.959 136.091 147.306 135.974L147.218 136.466C147.902 136.589 148.612 136.65 149.349 136.65V136.15ZM143.541 134.451C142.989 134.077 142.464 133.642 141.966 133.144L141.612 133.497C142.132 134.017 142.682 134.473 143.261 134.865L143.541 134.451ZM141.966 133.144C141.738 132.915 141.521 132.678 141.315 132.433L140.932 132.754C141.147 133.011 141.374 133.259 141.612 133.497L141.966 133.144ZM140.217 130.853C140.059 130.576 139.912 130.29 139.776 129.996L139.322 130.205C139.464 130.512 139.618 130.811 139.783 131.101L140.217 130.853ZM139.499 129.855L136.932 130.38L137.033 130.87L139.599 130.345L139.499 129.855ZM131.799 131.43L126.666 132.48L126.766 132.97L131.899 131.92L131.799 131.43ZM121.532 133.53L116.399 134.58L116.499 135.07L121.633 134.02L121.532 133.53ZM111.266 135.631L108.699 136.155L108.799 136.645L111.366 136.12L111.266 135.631ZM108.749 136.4L108.649 135.911L108.105 136.022L108.272 136.551L108.749 136.4ZM139.549 130.1L140.003 129.891L139.837 129.531L139.449 129.611L139.549 130.1ZM141.789 133.32L141.436 133.674L141.789 133.32ZM159.849 65.0004V64.5004H159.349V65.0004H159.849ZM194.849 65.0004H195.349V64.5004H194.849V65.0004ZM183.089 154.88L183.429 155.247L183.089 154.88ZM116.589 151.1L116.197 151.411L116.201 151.415L116.589 151.1ZM108.272 136.551C108.485 137.225 108.713 137.893 108.956 138.555L109.895 138.21C109.657 137.563 109.434 136.91 109.226 136.25L108.272 136.551ZM110.597 142.457C111.203 143.728 111.869 144.972 112.593 146.19L113.453 145.678C112.743 144.487 112.093 143.27 111.5 142.026L110.597 142.457ZM114.92 149.724C115.332 150.293 115.757 150.855 116.197 151.411L116.981 150.79C116.55 150.246 116.133 149.695 115.73 149.138L114.92 149.724ZM116.201 151.415C116.707 152.041 117.227 152.647 117.76 153.234L118.5 152.561C117.98 151.989 117.473 151.397 116.978 150.786L116.201 151.415ZM121.189 156.582C122.406 157.633 123.68 158.599 125.009 159.48L125.561 158.647C124.267 157.789 123.028 156.849 121.842 155.826L121.189 156.582ZM129.167 161.868C130.587 162.568 132.061 163.184 133.588 163.718L133.918 162.774C132.428 162.253 130.992 161.652 129.609 160.971L129.167 161.868ZM138.19 165.039C139.714 165.387 141.284 165.663 142.9 165.867L143.025 164.875C141.44 164.675 139.903 164.405 138.413 164.064L138.19 165.039ZM147.661 166.255C148.448 166.285 149.243 166.3 150.049 166.3V165.3C149.256 165.3 148.473 165.285 147.7 165.255L147.661 166.255ZM150.049 166.3C150.806 166.3 151.554 166.29 152.293 166.27L152.265 165.27C151.535 165.29 150.797 165.3 150.049 165.3V166.3ZM156.77 166.009C158.297 165.871 159.782 165.685 161.225 165.45L161.065 164.463C159.646 164.694 158.185 164.878 156.681 165.013L156.77 166.009ZM165.63 164.549C167.118 164.178 168.556 163.748 169.943 163.26L169.611 162.316C168.254 162.794 166.847 163.215 165.389 163.578L165.63 164.549ZM174.109 161.542C175.485 160.885 176.803 160.16 178.062 159.367L177.529 158.521C176.304 159.293 175.02 159.999 173.678 160.64L174.109 161.542ZM181.727 156.731C182.31 156.254 182.877 155.759 183.429 155.247L182.749 154.514C182.212 155.012 181.661 155.493 181.094 155.957L181.727 156.731ZM183.429 155.247C184.114 154.612 184.768 153.956 185.394 153.281L184.661 152.602C184.052 153.258 183.415 153.896 182.749 154.514L183.429 155.247ZM188.842 148.925C189.87 147.391 190.777 145.776 191.561 144.08L190.654 143.66C189.891 145.309 189.01 146.878 188.011 148.368L188.842 148.925ZM193.511 138.883C194.022 137.149 194.426 135.346 194.724 133.473L193.737 133.316C193.445 135.148 193.05 136.909 192.551 138.6L193.511 138.883ZM195.284 127.967C195.327 127.059 195.349 126.137 195.349 125.2H194.349C194.349 126.121 194.328 127.027 194.285 127.919L195.284 127.967ZM195.349 125.2V122.692H194.349V125.2H195.349ZM195.349 117.675V112.659H194.349V117.675H195.349ZM195.349 107.642V102.625H194.349V107.642H195.349ZM195.349 97.6088V92.5921H194.349V97.6088H195.349ZM195.349 87.5754V82.5588H194.349V87.5754H195.349ZM195.349 77.5421V72.5254H194.349V77.5421H195.349ZM195.349 67.5088V65.0004H194.349V67.5088H195.349ZM194.849 64.5004H192.662V65.5004H194.849V64.5004ZM188.287 64.5004H183.912V65.5004H188.287V64.5004ZM179.537 64.5004H175.162V65.5004H179.537V64.5004ZM170.787 64.5004H166.412V65.5004H170.787V64.5004ZM162.037 64.5004H159.849V65.5004H162.037V64.5004ZM159.349 65.0004V67.5379H160.349V65.0004H159.349ZM159.349 72.6129V77.6879H160.349V72.6129H159.349ZM159.349 82.7629V87.8379H160.349V82.7629H159.349ZM159.349 92.9129V97.9879H160.349V92.9129H159.349ZM159.349 103.063V108.138H160.349V103.063H159.349ZM159.349 113.213V118.288H160.349V113.213H159.349ZM159.349 123.363V125.9H160.349V123.363H159.349ZM159.349 125.9C159.349 126.632 159.31 127.321 159.232 127.969L160.225 128.088C160.308 127.397 160.349 126.668 160.349 125.9H159.349ZM158.064 131.835C157.398 133.025 156.474 133.95 155.284 134.615L155.771 135.488C157.124 134.732 158.181 133.675 158.937 132.323L158.064 131.835ZM151.418 135.784C150.77 135.861 150.081 135.9 149.349 135.9V136.9C150.116 136.9 150.846 136.859 151.537 136.777L151.418 135.784ZM149.349 135.9C148.654 135.9 147.988 135.843 147.351 135.728L147.173 136.712C147.873 136.838 148.598 136.9 149.349 136.9V135.9ZM143.681 134.243C143.143 133.879 142.63 133.454 142.143 132.967L141.436 133.674C141.966 134.204 142.528 134.67 143.121 135.072L143.681 134.243ZM142.143 132.967C141.92 132.744 141.708 132.512 141.507 132.273L140.74 132.915C140.96 133.177 141.192 133.43 141.436 133.674L142.143 132.967ZM140.434 130.729C140.28 130.458 140.136 130.179 140.003 129.891L139.095 130.31C139.24 130.623 139.397 130.928 139.566 131.225L140.434 130.729ZM139.449 129.611L136.882 130.136L137.083 131.115L139.649 130.59L139.449 129.611ZM131.749 131.186L126.616 132.236L126.816 133.215L131.949 132.165L131.749 131.186ZM121.482 133.286L116.349 134.336L116.549 135.315L121.683 134.265L121.482 133.286ZM111.216 135.386L108.649 135.911L108.849 136.89L111.416 136.365L111.216 135.386Z" fill="url(#paint0_linear_274_421)" fill-opacity="0.6" mask="url(#path-3-inside-1_274_421)"/>
<path d="M349.917 55.2099L346.11 53.006C346.443 51.7853 346.617 50.5267 346.626 49.2614C346.626 46.7015 345.712 44.6573 344.342 43.669C344.091 43.4897 343.819 43.3414 343.532 43.227L334.324 38.8501C338.044 36.2472 344.447 38.9667 347.019 40.3172H347.056C351.034 42.5702 352.151 48.1441 349.917 55.2099Z" fill="#C93C4F" stroke="black" stroke-width="0.2" stroke-linecap="round" stroke-linejoin="round"/>
<path d="M343.514 43.227C343.033 43.038 342.52 42.9421 342.004 42.9446C340.518 43.0003 339.075 43.4517 337.823 44.2521C332.974 47.0514 329.057 53.8348 329.075 59.4026C329.075 59.5744 329.075 59.7402 329.075 59.8998C329.075 60.0594 329.075 60.219 329.075 60.3787C329.091 60.6316 329.119 60.8837 329.162 61.1337C329.162 61.238 329.192 61.3424 329.21 61.4468C329.229 61.5512 329.21 61.5388 329.21 61.5819C329.21 61.6248 329.254 61.7905 329.278 61.8888C329.302 61.987 329.358 62.1712 329.394 62.3062C329.398 62.3348 329.398 62.3636 329.394 62.3921C329.683 63.4202 330.338 64.3069 331.236 64.8845L321.942 59.3043C325.3 48.7273 319.486 39.0833 324.214 36.4068C324.754 36.0937 334.785 39.4762 335.331 39.2184L343.514 43.227Z" fill="#C93C4F" stroke="black" stroke-width="0.2" stroke-linecap="round" stroke-linejoin="round"/>
<path d="M339.1 36.0324L331.291 31.7966L286.829 7.64675C283.417 5.76507 279.402 5.29987 275.65 6.35147C268.283 8.48771 259.72 14.78 256.036 27.8371C255.791 28.7211 255.625 29.6235 255.423 30.5197L254.974 32.9077L254.557 34.8967C252.249 47.3584 250.702 61.2626 243.47 81.7724C243.47 81.8276 243.427 81.8884 243.403 81.95L243.305 82.2268L279.677 103.098L285.257 106.296L298.37 113.828L298.498 113.878C298.782 114 299.054 114.151 299.309 114.326C300.678 115.314 301.586 117.359 301.592 119.912C301.585 121.177 301.414 122.436 301.082 123.657C299.855 128.236 296.644 132.865 292.85 135.063C290.494 136.425 288.148 136.505 286.546 135.676C286.605 135.723 286.666 135.766 286.73 135.805L280.15 131.975C280.358 133.983 281.117 135.895 282.341 137.5C283.058 138.434 283.948 139.221 284.962 139.82C299.695 146.684 308.234 119.562 309.879 114.528L310.579 112.288L311.194 110.446C315.294 98.3468 319.014 81.9812 321.015 67.8127C324.226 46.2779 335.263 33.8654 346.964 40.3111L339.1 36.0324Z" fill="#EC4E65" stroke="black" stroke-width="0.2" stroke-linecap="round" stroke-linejoin="round"/>
<path d="M345.828 52.9815L331.371 44.9949" stroke="black" stroke-width="0.2" stroke-linecap="round" stroke-linejoin="round" stroke-dasharray="0.8 1.6"/>
<path d="M346.609 49.2736C346.599 50.5388 346.426 51.7976 346.093 53.0183C344.865 57.5978 341.654 62.2264 337.861 64.418C335.406 65.8544 332.907 65.8605 331.305 64.8845C331.187 64.8055 331.074 64.7193 330.967 64.6267C330.247 64.0545 329.722 63.2741 329.463 62.3921C329.466 62.3636 329.466 62.3348 329.463 62.3062C329.426 62.1712 329.383 62.03 329.346 61.8888C329.31 61.7476 329.303 61.6862 329.279 61.5818C329.254 61.4775 329.279 61.4959 329.279 61.4468C329.279 61.3976 329.242 61.238 329.23 61.1337C329.193 60.8881 329.162 60.6426 329.144 60.3786C329.144 60.219 329.144 60.0594 329.144 59.8998C329.144 59.7402 329.144 59.5744 329.144 59.4026C329.144 53.8348 333.042 47.0514 337.891 44.2521C339.143 43.4509 340.586 42.9994 342.072 42.9446C342.589 42.9421 343.101 43.038 343.582 43.2269C343.863 43.3525 344.134 43.5004 344.393 43.6689C345.694 44.6696 346.596 46.7138 346.609 49.2736Z" fill="#F3A4A9" stroke="black" stroke-width="0.2" stroke-linecap="round" stroke-linejoin="round"/>
<path d="M345.062 52.0607C345.062 55.5413 342.606 59.7771 339.598 61.5266C338.082 62.4044 336.7 62.4843 335.706 61.9133L335.589 61.8397C335.308 61.6566 335.062 61.4236 334.865 61.1521C334.323 60.3357 334.054 59.3685 334.098 58.3897C334.098 54.9152 336.553 50.6733 339.567 48.9299C340.428 48.3735 341.45 48.1188 342.47 48.2055C342.821 48.2525 343.158 48.3672 343.465 48.5431C344.447 49.1202 345.055 50.3296 345.062 52.0607Z" fill="#F3A4A9" stroke="black" stroke-width="0.2" stroke-linecap="round" stroke-linejoin="round"/>
<path d="M343.465 48.5431C343.158 48.3672 342.82 48.2525 342.47 48.2056C341.449 48.1188 340.427 48.3735 339.566 48.9299C336.534 50.6733 334.09 54.9152 334.097 58.3897C334.054 59.3685 334.322 60.3358 334.864 61.1521C335.062 61.4236 335.307 61.6567 335.589 61.8397L334.109 60.9373L333.563 60.5996C332.765 59.9858 332.286 58.8317 332.286 57.297C332.286 53.8224 334.742 49.5867 337.75 47.8371C339.198 47.0023 340.518 46.8857 341.5 47.3707L341.814 47.5487L343.465 48.5431Z" fill="#C93C4F" stroke="black" stroke-width="0.2" stroke-linecap="round" stroke-linejoin="round"/>
<path d="M285.19 116.505L285.067 116.634L284.981 116.726C283.978 117.782 283.106 118.955 282.384 120.22C280.403 123.801 279.624 127.924 280.162 131.981C280.299 133.574 280.805 135.112 281.64 136.476C282.476 137.839 283.618 138.988 284.974 139.832L217.976 101.158C213.44 98.3468 212.697 90.1636 217.362 83.1532C217.571 82.8404 217.792 82.5396 218.025 82.2084L218.382 81.7356L218.756 81.2628L219.087 80.87L219.56 80.3172C219.701 80.158 219.843 80.0044 219.99 79.8508C220.137 79.6972 220.285 79.5316 220.438 79.378L224.219 81.5508L236.129 88.3956L239.701 90.4524L285.183 116.499L285.19 116.505Z" fill="#EC4E65" stroke="black" stroke-width="0.2" stroke-linecap="round" stroke-linejoin="round"/>
<path d="M285.19 116.505L285.073 116.634L284.987 116.726C283.985 117.782 283.113 118.955 282.39 120.219L217.362 83.1596C217.571 82.8468 217.792 82.546 218.026 82.214L218.382 81.7412L218.756 81.2684L219.088 80.8756L219.56 80.3236C219.701 80.1636 219.843 80.01 219.99 79.8572C220.137 79.7036 220.285 79.538 220.438 79.3844L224.22 81.5572L236.129 88.402L239.701 90.4524L285.19 116.505Z" fill="black"/>
<path d="M298.37 113.841C297.924 113.684 297.455 113.604 296.982 113.601C296.242 113.608 295.506 113.738 294.81 113.988C294.111 114.23 293.438 114.54 292.802 114.916C287.958 117.715 284.042 124.498 284.054 130.066C284.054 130.237 284.054 130.397 284.054 130.563C284.054 130.728 284.054 130.882 284.054 131.036C284.054 131.293 284.103 131.545 284.14 131.784L284.195 132.104V132.232C284.22 132.343 284.245 132.448 284.269 132.546C284.3 132.687 284.342 132.828 284.386 132.963C284.388 132.99 284.388 133.016 284.386 133.043C284.479 133.328 284.594 133.604 284.73 133.872C285.005 134.422 285.399 134.904 285.883 135.284C285.994 135.369 286.105 135.456 286.227 135.536L286.473 135.676L286.663 135.805L280.082 131.975C279.585 127.678 279.413 121.686 284.379 116.567L239.702 90.4524L236.129 88.3956L224.962 81.9868C227.191 79.0156 232.403 76.0388 235.251 77.5548L235.392 77.6348L243.305 82.2204L298.37 113.841Z" fill="#C93C4F" stroke="black" stroke-width="0.2" stroke-linecap="round" stroke-linejoin="round"/>
<path d="M299.321 114.344C299.066 114.169 298.794 114.019 298.51 113.896L298.382 113.847C297.935 113.691 297.466 113.61 296.994 113.608C296.253 113.613 295.518 113.744 294.821 113.995C294.122 114.236 293.45 114.546 292.814 114.921C287.97 117.72 284.054 124.504 284.066 130.072C284.066 130.244 284.066 130.404 284.066 130.569C284.066 130.735 284.066 130.888 284.066 131.042C284.066 131.3 284.114 131.552 284.151 131.791L284.207 132.11V132.239C284.231 132.349 284.256 132.454 284.281 132.552C284.311 132.693 284.354 132.834 284.397 132.969C284.4 132.996 284.4 133.023 284.397 133.049C284.491 133.334 284.606 133.611 284.741 133.878C285.016 134.428 285.41 134.91 285.895 135.29C286.006 135.376 286.116 135.462 286.238 135.541L286.484 135.683C288.093 136.517 290.438 136.444 292.789 135.068C296.589 132.877 299.811 128.243 301.027 123.669C301.358 122.446 301.529 121.185 301.537 119.918C301.598 117.377 300.69 115.332 299.321 114.344ZM294.606 132.196C293.096 133.074 291.714 133.153 290.72 132.583L290.598 132.509L289.124 131.6L288.578 131.269C287.779 130.655 287.301 129.495 287.294 127.966C287.294 124.492 289.75 120.25 292.758 118.5C294.207 117.665 295.526 117.555 296.509 118.04L296.822 118.218L298.461 119.194C299.443 119.765 300.057 120.98 300.063 122.705C300.075 126.198 297.626 130.44 294.606 132.196Z" fill="#F3A4A9" stroke="black" stroke-width="0.2" stroke-linecap="round" stroke-linejoin="round"/>
<path d="M300.064 122.718C300.064 126.198 297.608 130.44 294.594 132.19C293.084 133.068 291.702 133.148 290.708 132.576L290.586 132.503L289.112 131.594L288.566 131.263C287.768 130.649 287.289 129.488 287.283 127.96C287.283 124.486 289.738 120.244 292.746 118.494C294.195 117.66 295.515 117.549 296.497 118.034L296.81 118.212L298.45 119.188C299.444 119.777 300.058 120.992 300.064 122.718Z" fill="#F3A4A9" stroke="black" stroke-width="0.2" stroke-linecap="round" stroke-linejoin="round"/>
<path d="M300.064 122.718C300.064 126.198 297.608 130.44 294.594 132.19C293.084 133.068 291.703 133.148 290.708 132.576L290.586 132.503C290.307 132.316 290.064 132.081 289.867 131.809C289.325 130.996 289.056 130.03 289.1 129.053C289.1 125.578 291.555 121.336 294.563 119.587C295.426 119.03 296.45 118.777 297.474 118.868C297.822 118.913 298.158 119.028 298.462 119.206C299.444 119.777 300.058 120.992 300.064 122.718Z" fill="#F3A4A9" stroke="black" stroke-width="0.2" stroke-linecap="round" stroke-linejoin="round"/>
<path d="M298.462 119.206C298.158 119.028 297.822 118.913 297.473 118.868C296.45 118.777 295.426 119.03 294.563 119.587C291.537 121.336 289.088 125.578 289.1 129.053C289.055 130.03 289.325 130.996 289.867 131.809C290.064 132.081 290.307 132.316 290.586 132.503L289.112 131.594L288.566 131.263C287.768 130.649 287.289 129.488 287.283 127.96C287.283 124.486 289.738 120.244 292.746 118.494C294.195 117.66 295.515 117.549 296.497 118.034L296.81 118.212L298.462 119.206Z" fill="#C93C4F" stroke="black" stroke-width="0.2" stroke-linecap="round" stroke-linejoin="round"/>
<path d="M297.676 126.149C297.676 126.645 297.55 127.134 297.31 127.568C297.07 128.003 296.724 128.369 296.304 128.634C295.884 128.898 295.404 129.052 294.908 129.08C294.413 129.108 293.918 129.01 293.47 128.795C293.275 128.697 293.098 128.568 292.942 128.414C292.738 128.104 292.637 127.736 292.654 127.364C292.692 126.642 292.9 125.94 293.262 125.313C293.623 124.687 294.129 124.155 294.735 123.761C295.07 123.565 295.454 123.472 295.84 123.491C296 123.513 296.153 123.57 296.288 123.657C296.713 123.92 297.063 124.287 297.306 124.723C297.549 125.159 297.676 125.65 297.676 126.149Z" fill="#C93C4F" stroke="black" stroke-width="0.2" stroke-linecap="round" stroke-linejoin="round"/>
<path d="M235.453 77.7268C235.545 77.7756 235.638 77.8372 235.73 77.8988C237.099 78.8868 238.001 80.9308 238.013 83.4852C238.004 84.75 237.83 86.0084 237.498 87.2292C236.27 91.8092 233.059 96.438 229.265 98.6356C226.81 100.072 224.312 100.078 222.709 99.0956C222.593 99.0156 222.476 98.93 222.372 98.8444C221.653 98.2636 221.129 97.4772 220.868 96.5908C220.87 96.5644 220.87 96.538 220.868 96.5116C220.831 96.3764 220.788 96.2348 220.751 96.094C220.714 95.9524 220.708 95.8916 220.684 95.7804C220.686 95.738 220.686 95.6948 220.684 95.6516C220.684 95.5476 220.647 95.4428 220.634 95.3324C220.598 95.0932 220.567 94.8412 220.548 94.5836C220.548 94.43 220.548 94.2708 220.548 94.1108C220.548 93.9516 220.548 93.786 220.548 93.614C220.548 89.8692 222.304 85.566 224.944 82.306C224.981 82.2636 225.011 82.214 225.048 82.1772" stroke="black" stroke-width="0.2" stroke-linecap="round" stroke-linejoin="round" stroke-dasharray="0.8 1.6"/>
<path d="M234.606 85.5412C234.606 89.022 232.151 93.2636 229.143 95.0076C227.627 95.8852 226.251 95.9708 225.257 95.394L225.134 95.3204C224.851 95.1388 224.606 94.906 224.41 94.6332C223.87 93.8156 223.604 92.8484 223.649 91.8708C223.649 88.3956 226.104 84.1604 229.112 82.4108C229.964 81.8548 230.977 81.5972 231.991 81.6804C232.341 81.7268 232.679 81.842 232.986 82.018C233.992 82.5884 234.606 83.8044 234.606 85.5412Z" stroke="black" stroke-width="0.2" stroke-linecap="round" stroke-linejoin="round" stroke-dasharray="0.8 1.6"/>
<path d="M280.162 131.981L222.727 99.0956" stroke="black" stroke-width="0.2" stroke-linecap="round" stroke-linejoin="round" stroke-dasharray="0.8 1.6"/>
<path d="M262.28 30.5075L278.462 39.9673L277.799 42.5272C273.256 39.8629 272.139 40.2558 273.17 44.9152C274.029 49.0036 275.202 53.6321 276.552 58.5677C279.953 55.793 283.139 53.1595 285.183 51.2688C287.639 48.8808 285.515 47.0883 282.667 45.3141L283.354 42.8587L296.381 50.5505L295.766 53.049C292.698 51.1521 290.377 51.416 286.97 54.0987L277.394 61.5328L283.569 83.018C284.698 86.8308 285.724 90.3476 288.173 91.6124L287.467 93.6508L271.071 84.0436L271.764 81.9748C276.338 84.7492 277.43 83.982 276.761 79.4764C275.975 75.0868 274.68 69.863 273.195 64.332C269.732 66.8053 266.41 69.4696 263.244 72.3124C260.696 74.8356 262.225 76.2844 265.589 78.3404L264.889 80.4156L251.813 72.7298L252.501 70.6426C257.215 73.8164 264.895 66.898 272.323 61.1092L266.798 41.3301C265.761 37.4136 264.158 34.4117 261.605 32.9568L262.28 30.5075Z" fill="#F3A4A9" stroke="black" stroke-width="0.2" stroke-linecap="round" stroke-linejoin="round"/>
<path d="M299.468 52.3307L298.774 54.7862C302.666 58.1687 303.839 58.4695 302.82 62.8464L296.448 91.8764C295.761 95.1116 293.993 94.8172 290.039 92.7236L289.358 94.7492L305.11 104.025L305.834 101.95C303.63 100.385 302.151 99.1204 301.678 97.6532C301.334 96.5116 301.734 95.302 302.292 92.9076L308.234 65.2835C308.848 61.9624 310.604 61.9685 314.545 64.1232L315.226 61.6371L299.468 52.3307Z" fill="#F3A4A9" stroke="black" stroke-width="0.2" stroke-linecap="round" stroke-linejoin="round"/>
<path d="M284.483 19.0219L284.735 18.7518L285.097 18.365L285.447 17.9967C286.614 16.8026 287.935 15.7703 289.376 14.9273C289.898 14.6251 290.44 14.3564 290.997 14.1231C292.419 13.5239 293.946 13.2089 295.49 13.1962C296.137 13.1946 296.782 13.2563 297.418 13.3803L289.615 9.14459C289.346 9.14459 289.069 9.10779 288.793 9.10779C287.25 9.11987 285.726 9.43483 284.306 10.0347C283.747 10.2671 283.204 10.5336 282.679 10.8327C281.238 11.6756 279.916 12.7079 278.75 13.9021L277.786 14.9457" fill="#F3A4A9"/>
<path d="M284.483 19.0219L284.735 18.7518L285.097 18.365L285.447 17.9967C286.614 16.8026 287.935 15.7703 289.376 14.9273C289.898 14.6251 290.44 14.3564 290.997 14.1231C292.419 13.5239 293.946 13.2089 295.49 13.1962C296.137 13.1946 296.782 13.2563 297.418 13.3803L289.615 9.14459C289.346 9.14459 289.069 9.10779 288.793 9.10779C287.25 9.11987 285.726 9.43483 284.306 10.0347C283.747 10.2671 283.204 10.5336 282.679 10.8327C281.238 11.6756 279.916 12.7079 278.75 13.9021L277.786 14.9457" stroke="black" stroke-width="0.2" stroke-linecap="round" stroke-linejoin="round"/>
<path d="M286.166 20.1698C286.401 20.4991 286.523 20.8951 286.516 21.2993C286.49 21.892 286.299 22.4658 285.966 22.9559C285.631 23.4462 285.167 23.8335 284.625 24.074C284.166 24.2812 283.762 24.5911 283.443 24.9796C283.123 25.3682 282.898 25.825 282.783 26.3147C282.652 26.9685 282.312 27.5618 281.813 28.0048C281.315 28.4479 280.686 28.7166 280.021 28.7702C279.76 28.7736 279.503 28.7191 279.266 28.6106C279.029 28.5015 278.771 28.4469 278.511 28.451C277.851 28.4746 277.222 28.7387 276.743 29.1938C276.261 29.6518 275.627 29.9143 274.963 29.9304C274.533 29.9427 274.115 29.7887 273.796 29.5007L272.421 28.273C272.69 28.4333 272.998 28.5182 273.311 28.5185C273.97 28.4963 274.597 28.2318 275.073 27.7757C275.553 27.318 276.184 27.0517 276.847 27.0268C277.105 27.0269 277.36 27.0813 277.596 27.1864C277.832 27.2991 278.09 27.3558 278.351 27.3522C279.017 27.2998 279.647 27.0317 280.147 26.5886C280.647 26.1454 280.988 25.5514 281.12 24.8967C281.228 24.3951 281.46 23.9287 281.795 23.5399C282.112 23.1471 282.518 22.8355 282.98 22.6315C283.522 22.3908 283.986 22.0036 284.32 21.5134C284.654 21.0231 284.845 20.4494 284.87 19.8567C284.878 19.4524 284.755 19.0564 284.521 18.7272C284.284 18.3942 284.162 17.9937 284.17 17.5854C284.18 17.0714 284.326 16.5691 284.594 16.1305C284.927 15.5981 285.068 14.9677 284.994 14.3441C284.94 13.9581 284.758 13.6012 284.478 13.3312L285.963 14.6449L286.209 14.8598C286.498 15.2543 286.654 15.7306 286.654 16.2195C286.654 16.7085 286.498 17.1847 286.209 17.5792C285.94 18.0153 285.794 18.5158 285.785 19.028C285.787 19.4395 285.92 19.8395 286.166 20.1698Z" fill="#F3A4A9" stroke="black" stroke-width="0.2" stroke-linecap="round" stroke-linejoin="round"/>
<path d="M271.672 27.1004H271.519C271.096 27.1108 270.685 26.9593 270.371 26.6768L270.266 26.5725L268.793 25.2834C269.092 25.5239 269.465 25.6521 269.849 25.6455H269.996C270.401 25.6329 270.796 25.771 271.104 26.0331C271.413 26.2951 271.613 26.6623 271.666 27.0636C271.665 27.0762 271.667 27.0888 271.672 27.1004Z" fill="#F3A4A9" stroke="black" stroke-width="0.2" stroke-linecap="round" stroke-linejoin="round"/>
<path d="M283.17 12.8954C282.777 12.8996 282.396 12.7615 282.097 12.5065C281.798 12.2515 281.602 11.8967 281.544 11.508C281.494 11.2135 281.374 10.9355 281.194 10.6977L282.489 11.8211L282.765 12.0605C282.976 12.2955 283.116 12.5847 283.17 12.8954Z" fill="#F3A4A9" stroke="black" stroke-width="0.2" stroke-linecap="round" stroke-linejoin="round"/>
<path d="M282.758 12.0298L282.482 11.7904C282.583 11.8599 282.675 11.9402 282.758 12.0298Z" fill="#F3A4A9" stroke="black" stroke-width="0.2" stroke-linecap="round" stroke-linejoin="round"/>
<path d="M284.521 18.7211C284.756 19.0503 284.878 19.4463 284.871 19.8506C284.846 20.4432 284.654 21.017 284.321 21.5072C283.986 21.9975 283.522 22.3847 282.98 22.6253C282.518 22.8311 282.112 23.1448 281.795 23.5399C281.473 23.9242 281.249 24.3815 281.145 24.872C281.013 25.5268 280.672 26.1208 280.172 26.5639C279.672 27.0071 279.042 27.2752 278.376 27.3275C278.115 27.3312 277.857 27.2745 277.621 27.1618C277.385 27.0567 277.13 27.0023 276.872 27.0022C276.209 27.0271 275.578 27.2935 275.098 27.7511C274.622 28.2072 273.995 28.4717 273.336 28.4939C273.276 28.1058 273.077 27.7525 272.777 27.4987C272.477 27.2451 272.096 27.108 271.703 27.1127C271.7 27.1006 271.7 27.088 271.703 27.0759C271.65 26.6746 271.45 26.3073 271.141 26.0453C270.833 25.7833 270.438 25.6452 270.033 25.6578H269.886C269.806 25.034 269.947 24.4017 270.285 23.8715C270.549 23.4335 270.693 22.9339 270.703 22.4227C270.71 22.0174 270.59 21.62 270.359 21.2871C270.124 20.9578 270.001 20.5618 270.009 20.1575C270.033 19.5938 270.207 19.0467 270.512 18.5721C270.818 18.0975 271.243 17.7125 271.746 17.4564L271.9 17.3767C272.359 17.1711 272.764 16.8617 273.084 16.4729C273.404 16.0841 273.629 15.6265 273.741 15.136C273.754 15.063 273.772 14.9911 273.797 14.9211C273.966 14.3177 274.317 13.7807 274.801 13.3823C275.285 12.9839 275.879 12.7433 276.504 12.6927C276.764 12.6905 277.022 12.745 277.259 12.8523C277.495 12.9615 277.753 13.0161 278.014 13.012C278.674 12.9884 279.303 12.7242 279.782 12.2692C280.255 11.8089 280.884 11.5419 281.544 11.5203H281.58C281.638 11.909 281.835 12.2637 282.134 12.5187C282.433 12.7738 282.814 12.9119 283.207 12.9076C283.21 12.9177 283.21 12.9283 283.207 12.9383C283.266 13.3406 283.474 13.7064 283.788 13.9641C284.102 14.2219 284.502 14.353 284.908 14.3318H285C285.074 14.9554 284.934 15.5858 284.601 16.1182C284.328 16.5597 284.18 17.0666 284.171 17.5854C284.163 17.9916 284.286 18.3897 284.521 18.7211Z" fill="#F3A4A9" stroke="black" stroke-width="0.2" stroke-linecap="round" stroke-linejoin="round"/>
<path d="M286.215 14.8659L285.97 14.6511C286.061 14.7108 286.144 14.7831 286.215 14.8659Z" fill="#F3A4A9" stroke="black" stroke-width="0.2" stroke-linecap="round" stroke-linejoin="round"/>
<path d="M284.521 18.7211C284.755 19.0503 284.878 19.4463 284.87 19.8506C284.845 20.4432 284.654 21.017 284.32 21.5072C283.986 21.9975 283.522 22.3847 282.98 22.6253C282.517 22.8311 282.111 23.1448 281.795 23.5399C281.472 23.9242 281.249 24.3815 281.144 24.8721C281.013 25.5268 280.671 26.1208 280.172 26.5639C279.672 27.0071 279.041 27.2752 278.376 27.3275C278.115 27.3312 277.856 27.2745 277.621 27.1619C277.385 27.0567 277.13 27.0023 276.872 27.0022C276.209 27.0271 275.578 27.2935 275.098 27.7511C274.622 28.2072 273.994 28.4717 273.336 28.4939C273.022 28.4935 272.715 28.4087 272.446 28.2484C272.247 28.1237 272.078 27.9577 271.95 27.7617C271.822 27.5657 271.738 27.3443 271.703 27.1127C271.7 27.1006 271.7 27.088 271.703 27.0759C271.65 26.6746 271.45 26.3073 271.141 26.0453C270.832 25.7833 270.438 25.6452 270.033 25.6579H269.886C269.502 25.6643 269.129 25.5362 268.83 25.2956C268.13 24.7186 267.977 23.5461 268.64 22.4288C268.909 21.9907 269.055 21.4881 269.063 20.9739C269.073 20.5684 268.952 20.1703 268.719 19.8383C268.483 19.5122 268.36 19.1175 268.37 18.7149C268.394 18.1212 268.585 17.5463 268.92 17.0559C269.256 16.5653 269.722 16.1787 270.266 15.9402C270.726 15.7339 271.132 15.4237 271.452 15.0338C271.771 14.6439 271.996 14.185 272.108 13.6934C272.245 13.0413 272.588 12.4505 273.087 12.0083C273.585 11.5662 274.213 11.2961 274.877 11.2379C275.137 11.2371 275.395 11.2938 275.632 11.4036C275.867 11.5087 276.122 11.5631 276.381 11.5632C277.043 11.5406 277.674 11.2764 278.155 10.8205C278.612 10.3568 279.224 10.0772 279.874 10.0347C280.189 10.0292 280.499 10.1122 280.77 10.2741C280.925 10.3671 281.063 10.4878 281.175 10.6302C281.356 10.8679 281.476 11.146 281.525 11.4405C281.583 11.8292 281.779 12.1839 282.078 12.4389C282.377 12.6939 282.759 12.8321 283.152 12.8279H283.305C283.69 12.818 284.068 12.9416 284.374 13.1778L284.466 13.2637C284.746 13.5337 284.928 13.8906 284.981 14.2766C285.056 14.9001 284.915 15.5305 284.582 16.063C284.306 16.5224 284.164 17.0495 284.17 17.5854C284.162 17.9916 284.286 18.3897 284.521 18.7211Z" fill="#F3A4A9" stroke="black" stroke-width="0.2" stroke-linecap="round" stroke-linejoin="round"/>
<path d="M279.658 21.7676C281.447 19.5784 281.53 16.6852 279.842 15.3056C278.154 13.926 275.335 14.5824 273.545 16.7717C271.756 18.9611 271.674 21.8542 273.362 23.2338C275.05 24.6134 277.869 23.957 279.658 21.7676Z" fill="#F3A4A9" stroke="black" stroke-width="0.2" stroke-linecap="round" stroke-linejoin="round"/>
<path d="M281.187 10.667L281.168 10.6548L280.763 10.2987" fill="#F3A4A9"/>
<path d="M281.187 10.667L281.168 10.6548L280.763 10.2987" stroke="black" stroke-width="0.2" stroke-linecap="round" stroke-linejoin="round"/>
<path d="M284.483 13.3312L284.391 13.2453" stroke="black" stroke-width="0.2" stroke-linecap="round" stroke-linejoin="round"/>
<path d="M268.793 25.2836L268.787 25.2772" stroke="black" stroke-width="0.2" stroke-linecap="round" stroke-linejoin="round"/>
<path d="M31.56 53.0004V30.6004H34.44V49.0004L34.408 49.3204H34.472L45.8 30.6004H49.64V53.0004H46.76V34.6004L46.792 34.2804H46.728L35.4 53.0004H31.56ZM55.7715 50.9524C54.2355 49.3738 53.4675 47.3898 53.4675 45.0004C53.4675 42.6111 54.2355 40.6271 55.7715 39.0484C57.3075 37.4698 59.2062 36.6804 61.4675 36.6804C64.0915 36.6804 66.1715 37.6191 67.7075 39.4964C68.3688 40.3284 68.8488 41.2564 69.1475 42.2804H66.5875C66.3528 41.7044 66.0008 41.1711 65.5315 40.6804C64.5075 39.6138 63.1528 39.0804 61.4675 39.0804C59.9102 39.0804 58.6088 39.6351 57.5635 40.7444C56.5395 41.8538 56.0275 43.2724 56.0275 45.0004C56.0275 46.7284 56.5608 48.1471 57.6275 49.2564C58.6942 50.3658 59.9742 50.9204 61.4675 50.9204C63.2168 50.9204 64.6142 50.3338 65.6595 49.1604C66.1288 48.6698 66.4915 48.0831 66.7475 47.4004H69.3075C69.0302 48.4884 68.5395 49.4804 67.8355 50.3764C66.2142 52.3391 64.0915 53.3204 61.4675 53.3204C59.2062 53.3204 57.3075 52.5311 55.7715 50.9524ZM70.4413 39.4004V37.0004H84.2013V39.4004H78.6013V53.0004H76.0413V39.4004H70.4413ZM88.023 50.9524C86.4443 49.3738 85.655 47.3898 85.655 45.0004C85.655 42.6111 86.4443 40.6271 88.023 39.0484C89.6017 37.4698 91.5857 36.6804 93.975 36.6804C96.3643 36.6804 98.3483 37.4698 99.927 39.0484C101.506 40.6271 102.295 42.6111 102.295 45.0004C102.295 47.3898 101.506 49.3738 99.927 50.9524C98.3483 52.5311 96.3643 53.3204 93.975 53.3204C91.5857 53.3204 89.6017 52.5311 88.023 50.9524ZM89.847 40.7444C88.759 41.8538 88.215 43.2724 88.215 45.0004C88.215 46.7284 88.759 48.1471 89.847 49.2564C90.935 50.3658 92.311 50.9204 93.975 50.9204C95.639 50.9204 97.015 50.3658 98.103 49.2564C99.191 48.1471 99.735 46.7284 99.735 45.0004C99.735 43.2724 99.191 41.8538 98.103 40.7444C97.015 39.6351 95.639 39.0804 93.975 39.0804C92.311 39.0804 90.935 39.6351 89.847 40.7444ZM105.803 59.0804V37.0004H108.363V39.5604H108.395L108.715 39.0804C109.077 38.5258 109.728 37.9924 110.667 37.4804C111.605 36.9471 112.757 36.6804 114.123 36.6804C116.256 36.6804 118.069 37.4804 119.562 39.0804C121.056 40.6591 121.803 42.6324 121.803 45.0004C121.803 47.3684 121.056 49.3524 119.562 50.9524C118.069 52.5311 116.256 53.3204 114.123 53.3204C112.757 53.3204 111.595 53.0644 110.635 52.5524C109.696 52.0191 109.056 51.4644 108.715 50.8884L108.395 50.4404H108.363V59.0804H105.803ZM109.899 40.7444C108.875 41.8538 108.363 43.2724 108.363 45.0004C108.363 46.7284 108.875 48.1471 109.899 49.2564C110.944 50.3658 112.245 50.9204 113.803 50.9204C115.36 50.9204 116.651 50.3658 117.675 49.2564C118.72 48.1471 119.243 46.7284 119.243 45.0004C119.243 43.2724 118.72 41.8538 117.675 40.7444C116.651 39.6351 115.36 39.0804 113.803 39.0804C112.245 39.0804 110.944 39.6351 109.899 40.7444ZM125.334 53.0004V37.0004H127.894V49.0004L127.862 49.3204H127.926L136.534 37.0004H139.414V53.0004H136.854V41.0004L136.886 40.6804H136.822L128.214 53.0004H125.334ZM143.256 53.0004L146.456 47.2404C145.923 47.0058 145.39 46.6644 144.856 46.2164C143.79 45.2351 143.256 43.9764 143.256 42.4404C143.256 40.8831 143.822 39.5924 144.952 38.5684C146.083 37.5231 147.587 37.0004 149.464 37.0004H156.696V53.0004H154.136V47.8804H149.016L146.2 53.0004H143.256ZM146.744 40.2324C146.126 40.7871 145.816 41.5231 145.816 42.4404C145.816 43.3578 146.126 44.0938 146.744 44.6484C147.384 45.2031 148.302 45.4804 149.496 45.4804H154.136V39.4004H149.496C148.302 39.4004 147.384 39.6778 146.744 40.2324Z" fill="black"/>
</g>
<defs>
<linearGradient id="paint0_linear_274_421" x1="-11" y1="121.321" x2="203.001" y2="119.809" gradientUnits="userSpaceOnUse">
<stop/>
<stop offset="0.915" stop-opacity="0"/>
</linearGradient>
</defs>
</svg>
