<svg width="335" height="162" viewBox="0 0 335 162" fill="none" xmlns="http://www.w3.org/2000/svg">
<mask id="mask0_274_347" style="mask-type:alpha" maskUnits="userSpaceOnUse" x="0" y="0" width="335" height="163">
<path d="M0 60.0004C0 31.7162 0 17.574 8.7868 8.78722C17.5736 0.000427246 31.7157 0.000427246 60 0.000427246H275C303.284 0.000427246 317.426 0.000427246 326.213 8.78722C335 17.574 335 31.7162 335 60.0004V102C335 130.285 335 144.427 326.213 153.214C317.426 162 303.284 162 275 162H60C31.7157 162 17.5736 162 8.7868 153.214C0 144.427 0 130.285 0 102V60.0004Z" fill="#F89745"/>
</mask>
<g mask="url(#mask0_274_347)">
<path d="M0 60.0004C0 31.7162 0 17.574 8.7868 8.78722C17.5736 0.000427246 31.7157 0.000427246 60 0.000427246H275C303.284 0.000427246 317.426 0.000427246 326.213 8.78722C335 17.574 335 31.7162 335 60.0004V102C335 130.285 335 144.427 326.213 153.214C317.426 162 303.284 162 275 162H60C31.7157 162 17.5736 162 8.7868 153.214C0 144.427 0 130.285 0 102V60.0004Z" fill="#A09DE4"/>
<mask id="path-3-inside-1_274_347" fill="white">
<path d="M-2.6 163V65.0004H77.9V93.0004H32.4V102.1H68.1V125.9H32.4V135H77.9V163H-2.6ZM92.5563 163V65.0004H127.556V97.2004H134.556L152.756 65.0004H191.956L163.956 110.5L194.756 163H155.556L135.956 128.7H127.556V163H92.5563Z"/>
</mask>
<path d="M-2.6 163H-2.85V163.25H-2.6V163ZM-2.6 65.0004V64.7504H-2.85V65.0004H-2.6ZM77.9 65.0004H78.15V64.7504H77.9V65.0004ZM77.9 93.0004V93.2504H78.15V93.0004H77.9ZM32.4 93.0004V92.7504H32.15V93.0004H32.4ZM32.4 102.1H32.15V102.35H32.4V102.1ZM68.1 102.1H68.35V101.85H68.1V102.1ZM68.1 125.9V126.15H68.35V125.9H68.1ZM32.4 125.9V125.65H32.15V125.9H32.4ZM32.4 135H32.15V135.25H32.4V135ZM77.9 135H78.15V134.75H77.9V135ZM77.9 163V163.25H78.15V163H77.9ZM-2.35 163V160.55H-2.85V163H-2.35ZM-2.35 155.65V150.75H-2.85V155.65H-2.35ZM-2.35 145.85V140.95H-2.85V145.85H-2.35ZM-2.35 136.05V131.15H-2.85V136.05H-2.35ZM-2.35 126.25V121.35H-2.85V126.25H-2.35ZM-2.35 116.45V111.55H-2.85V116.45H-2.35ZM-2.35 106.65V101.75H-2.85V106.65H-2.35ZM-2.35 96.8504V91.9504H-2.85V96.8504H-2.35ZM-2.35 87.0504V82.1504H-2.85V87.0504H-2.35ZM-2.35 77.2504V72.3504H-2.85V77.2504H-2.35ZM-2.35 67.4504V65.0004H-2.85V67.4504H-2.35ZM-2.6 65.2504H-0.0843744V64.7504H-2.6V65.2504ZM4.94688 65.2504H9.97813V64.7504H4.94688V65.2504ZM15.0094 65.2504H20.0406V64.7504H15.0094V65.2504ZM25.0719 65.2504H30.1031V64.7504H25.0719V65.2504ZM35.1344 65.2504H40.1656V64.7504H35.1344V65.2504ZM45.1969 65.2504H50.2281V64.7504H45.1969V65.2504ZM55.2594 65.2504H60.2906V64.7504H55.2594V65.2504ZM65.3219 65.2504H70.3531V64.7504H65.3219V65.2504ZM75.3844 65.2504H77.9V64.7504H75.3844V65.2504ZM77.65 65.0004V67.3338H78.15V65.0004H77.65ZM77.65 72.0004V76.6671H78.15V72.0004H77.65ZM77.65 81.3338V86.0004H78.15V81.3338H77.65ZM77.65 90.6671V93.0004H78.15V90.6671H77.65ZM77.9 92.7504H75.625V93.2504H77.9V92.7504ZM71.075 92.7504H66.525V93.2504H71.075V92.7504ZM61.975 92.7504H57.425V93.2504H61.975V92.7504ZM52.875 92.7504H48.325V93.2504H52.875V92.7504ZM43.775 92.7504H39.225V93.2504H43.775V92.7504ZM34.675 92.7504H32.4V93.2504H34.675V92.7504ZM32.15 93.0004V95.2754H32.65V93.0004H32.15ZM32.15 99.8254V102.1H32.65V99.8254H32.15ZM32.4 102.35H34.6312V101.85H32.4V102.35ZM39.0938 102.35H43.5563V101.85H39.0938V102.35ZM48.0187 102.35H52.4812V101.85H48.0187V102.35ZM56.9437 102.35H61.4062V101.85H56.9437V102.35ZM65.8688 102.35H68.1V101.85H65.8688V102.35ZM67.85 102.1V105.075H68.35V102.1H67.85ZM67.85 111.025V116.975H68.35V111.025H67.85ZM67.85 122.925V125.9H68.35V122.925H67.85ZM68.1 125.65H65.8688V126.15H68.1V125.65ZM61.4062 125.65H56.9437V126.15H61.4062V125.65ZM52.4813 125.65H48.0188V126.15H52.4813V125.65ZM43.5563 125.65H39.0938V126.15H43.5563V125.65ZM34.6312 125.65H32.4V126.15H34.6312V125.65ZM32.15 125.9V128.175H32.65V125.9H32.15ZM32.15 132.725V135H32.65V132.725H32.15ZM32.4 135.25H34.675V134.75H32.4V135.25ZM39.225 135.25H43.775V134.75H39.225V135.25ZM48.325 135.25H52.875V134.75H48.325V135.25ZM57.425 135.25H61.975V134.75H57.425V135.25ZM66.525 135.25H71.075V134.75H66.525V135.25ZM75.625 135.25H77.9V134.75H75.625V135.25ZM77.65 135V137.334H78.15V135H77.65ZM77.65 142V146.667H78.15V142H77.65ZM77.65 151.334V156H78.15V151.334H77.65ZM77.65 160.667V163H78.15V160.667H77.65ZM77.9 162.75H75.3844V163.25H77.9V162.75ZM70.3531 162.75H65.3219V163.25H70.3531V162.75ZM60.2906 162.75H55.2594V163.25H60.2906V162.75ZM50.2281 162.75H45.1969V163.25H50.2281V162.75ZM40.1656 162.75H35.1344V163.25H40.1656V162.75ZM30.1031 162.75H25.0719V163.25H30.1031V162.75ZM20.0406 162.75H15.0094V163.25H20.0406V162.75ZM9.97813 162.75H4.94688V163.25H9.97813V162.75ZM-0.0843744 162.75H-2.6V163.25H-0.0843744V162.75ZM-2.6 163H-3.1V163.5H-2.6V163ZM-2.6 65.0004V64.5004H-3.1V65.0004H-2.6ZM77.9 65.0004H78.4V64.5004H77.9V65.0004ZM77.9 93.0004V93.5004H78.4V93.0004H77.9ZM32.4 93.0004V92.5004H31.9V93.0004H32.4ZM32.4 102.1H31.9V102.6H32.4V102.1ZM68.1 102.1H68.6V101.6H68.1V102.1ZM68.1 125.9V126.4H68.6V125.9H68.1ZM32.4 125.9V125.4H31.9V125.9H32.4ZM32.4 135H31.9V135.5H32.4V135ZM77.9 135H78.4V134.5H77.9V135ZM77.9 163V163.5H78.4V163H77.9ZM-2.1 163V160.55H-3.1V163H-2.1ZM-2.1 155.65V150.75H-3.1V155.65H-2.1ZM-2.1 145.85V140.95H-3.1V145.85H-2.1ZM-2.1 136.05V131.15H-3.1V136.05H-2.1ZM-2.1 126.25V121.35H-3.1V126.25H-2.1ZM-2.1 116.45V111.55H-3.1V116.45H-2.1ZM-2.1 106.65V101.75H-3.1V106.65H-2.1ZM-2.1 96.8504V91.9504H-3.1V96.8504H-2.1ZM-2.1 87.0504V82.1504H-3.1V87.0504H-2.1ZM-2.1 77.2504V72.3504H-3.1V77.2504H-2.1ZM-2.1 67.4504V65.0004H-3.1V67.4504H-2.1ZM-2.6 65.5004H-0.0843744V64.5004H-2.6V65.5004ZM4.94688 65.5004H9.97813V64.5004H4.94688V65.5004ZM15.0094 65.5004H20.0406V64.5004H15.0094V65.5004ZM25.0719 65.5004H30.1031V64.5004H25.0719V65.5004ZM35.1344 65.5004H40.1656V64.5004H35.1344V65.5004ZM45.1969 65.5004H50.2281V64.5004H45.1969V65.5004ZM55.2594 65.5004H60.2906V64.5004H55.2594V65.5004ZM65.3219 65.5004H70.3531V64.5004H65.3219V65.5004ZM75.3844 65.5004H77.9V64.5004H75.3844V65.5004ZM77.4 65.0004V67.3338H78.4V65.0004H77.4ZM77.4 72.0004V76.6671H78.4V72.0004H77.4ZM77.4 81.3338V86.0004H78.4V81.3338H77.4ZM77.4 90.6671V93.0004H78.4V90.6671H77.4ZM77.9 92.5004H75.625V93.5004H77.9V92.5004ZM71.075 92.5004H66.525V93.5004H71.075V92.5004ZM61.975 92.5004H57.425V93.5004H61.975V92.5004ZM52.875 92.5004H48.325V93.5004H52.875V92.5004ZM43.775 92.5004H39.225V93.5004H43.775V92.5004ZM34.675 92.5004H32.4V93.5004H34.675V92.5004ZM31.9 93.0004V95.2754H32.9V93.0004H31.9ZM31.9 99.8254V102.1H32.9V99.8254H31.9ZM32.4 102.6H34.6312V101.6H32.4V102.6ZM39.0938 102.6H43.5563V101.6H39.0938V102.6ZM48.0187 102.6H52.4812V101.6H48.0187V102.6ZM56.9437 102.6H61.4062V101.6H56.9437V102.6ZM65.8688 102.6H68.1V101.6H65.8688V102.6ZM67.6 102.1V105.075H68.6V102.1H67.6ZM67.6 111.025V116.975H68.6V111.025H67.6ZM67.6 122.925V125.9H68.6V122.925H67.6ZM68.1 125.4H65.8688V126.4H68.1V125.4ZM61.4062 125.4H56.9437V126.4H61.4062V125.4ZM52.4813 125.4H48.0188V126.4H52.4813V125.4ZM43.5563 125.4H39.0938V126.4H43.5563V125.4ZM34.6312 125.4H32.4V126.4H34.6312V125.4ZM31.9 125.9V128.175H32.9V125.9H31.9ZM31.9 132.725V135H32.9V132.725H31.9ZM32.4 135.5H34.675V134.5H32.4V135.5ZM39.225 135.5H43.775V134.5H39.225V135.5ZM48.325 135.5H52.875V134.5H48.325V135.5ZM57.425 135.5H61.975V134.5H57.425V135.5ZM66.525 135.5H71.075V134.5H66.525V135.5ZM75.625 135.5H77.9V134.5H75.625V135.5ZM77.4 135V137.334H78.4V135H77.4ZM77.4 142V146.667H78.4V142H77.4ZM77.4 151.334V156H78.4V151.334H77.4ZM77.4 160.667V163H78.4V160.667H77.4ZM77.9 162.5H75.3844V163.5H77.9V162.5ZM70.3531 162.5H65.3219V163.5H70.3531V162.5ZM60.2906 162.5H55.2594V163.5H60.2906V162.5ZM50.2281 162.5H45.1969V163.5H50.2281V162.5ZM40.1656 162.5H35.1344V163.5H40.1656V162.5ZM30.1031 162.5H25.0719V163.5H30.1031V162.5ZM20.0406 162.5H15.0094V163.5H20.0406V162.5ZM9.97813 162.5H4.94688V163.5H9.97813V162.5ZM-0.0843744 162.5H-2.6V163.5H-0.0843744V162.5ZM92.5563 163H92.3063V163.25H92.5563V163ZM92.5563 65.0004V64.7504H92.3063V65.0004H92.5563ZM127.556 65.0004H127.806V64.7504H127.556V65.0004ZM127.556 97.2004H127.306V97.4504H127.556V97.2004ZM134.556 97.2004V97.4504H134.702L134.774 97.3234L134.556 97.2004ZM152.756 65.0004V64.7504H152.61L152.539 64.8774L152.756 65.0004ZM191.956 65.0004L192.169 65.1314L192.404 64.7504H191.956V65.0004ZM163.956 110.5L163.743 110.369L163.665 110.497L163.741 110.627L163.956 110.5ZM194.756 163V163.25H195.193L194.972 162.874L194.756 163ZM155.556 163L155.339 163.124L155.411 163.25H155.556V163ZM135.956 128.7L136.173 128.576L136.101 128.45H135.956V128.7ZM127.556 128.7V128.45H127.306V128.7H127.556ZM127.556 163V163.25H127.806V163H127.556ZM92.8063 163V160.55H92.3063V163H92.8063ZM92.8063 155.65V150.75H92.3063V155.65H92.8063ZM92.8063 145.85V140.95H92.3063V145.85H92.8063ZM92.8063 136.05V131.15H92.3063V136.05H92.8063ZM92.8063 126.25V121.35H92.3063V126.25H92.8063ZM92.8063 116.45V111.55H92.3063V116.45H92.8063ZM92.8063 106.65V101.75H92.3063V106.65H92.8063ZM92.8063 96.8504V91.9504H92.3063V96.8504H92.8063ZM92.8063 87.0504V82.1504H92.3063V87.0504H92.8063ZM92.8063 77.2504V72.3504H92.3063V77.2504H92.8063ZM92.8063 67.4504V65.0004H92.3063V67.4504H92.8063ZM92.5563 65.2504H94.7438V64.7504H92.5563V65.2504ZM99.1188 65.2504H103.494V64.7504H99.1188V65.2504ZM107.869 65.2504H112.244V64.7504H107.869V65.2504ZM116.619 65.2504H120.994V64.7504H116.619V65.2504ZM125.369 65.2504H127.556V64.7504H125.369V65.2504ZM127.306 65.0004V67.6838H127.806V65.0004H127.306ZM127.306 73.0504V78.4171H127.806V73.0504H127.306ZM127.306 83.7838V89.1504H127.806V83.7838H127.306ZM127.306 94.5171V97.2004H127.806V94.5171H127.306ZM127.556 97.4504H129.306V96.9504H127.556V97.4504ZM132.806 97.4504H134.556V96.9504H132.806V97.4504ZM134.774 97.3234L135.911 95.3109L135.476 95.0649L134.339 97.0774L134.774 97.3234ZM138.186 91.2859L140.461 87.2609L140.026 87.0149L137.751 91.0399L138.186 91.2859ZM142.736 83.2359L145.011 79.2109L144.576 78.9649L142.301 82.9899L142.736 83.2359ZM147.286 75.1859L149.561 71.1609L149.126 70.9149L146.851 74.9399L147.286 75.1859ZM151.836 67.1359L152.974 65.1234L152.539 64.8774L151.401 66.8899L151.836 67.1359ZM152.756 65.2504H155.206V64.7504H152.756V65.2504ZM160.106 65.2504H165.006V64.7504H160.106V65.2504ZM169.906 65.2504H174.806V64.7504H169.906V65.2504ZM179.706 65.2504H184.606V64.7504H179.706V65.2504ZM189.506 65.2504H191.956V64.7504H189.506V65.2504ZM191.743 64.8694L190.343 67.1444L190.769 67.4064L192.169 65.1314L191.743 64.8694ZM187.543 71.6944L184.743 76.2444L185.169 76.5064L187.969 71.9564L187.543 71.6944ZM181.943 80.7944L179.143 85.3444L179.569 85.6064L182.369 81.0564L181.943 80.7944ZM176.343 89.8944L173.543 94.4444L173.969 94.7064L176.769 90.1564L176.343 89.8944ZM170.743 98.9944L167.943 103.544L168.369 103.806L171.169 99.2564L170.743 98.9944ZM165.143 108.094L163.743 110.369L164.169 110.631L165.569 108.356L165.143 108.094ZM163.741 110.627L165.024 112.814L165.455 112.561L164.172 110.374L163.741 110.627ZM167.591 117.189L170.157 121.564L170.589 121.311L168.022 116.936L167.591 117.189ZM172.724 125.939L175.291 130.314L175.722 130.061L173.155 125.686L172.724 125.939ZM177.857 134.689L180.424 139.064L180.855 138.811L178.289 134.436L177.857 134.689ZM182.991 143.439L185.557 147.814L185.989 147.561L183.422 143.186L182.991 143.439ZM188.124 152.189L190.691 156.564L191.122 156.311L188.555 151.936L188.124 152.189ZM193.257 160.939L194.541 163.127L194.972 162.874L193.689 160.686L193.257 160.939ZM194.756 162.75H192.306V163.25H194.756V162.75ZM187.406 162.75H182.506V163.25H187.406V162.75ZM177.606 162.75H172.706V163.25H177.606V162.75ZM167.806 162.75H162.906V163.25H167.806V162.75ZM158.006 162.75H155.556V163.25H158.006V162.75ZM155.773 162.876L154.548 160.733L154.114 160.981L155.339 163.124L155.773 162.876ZM152.098 156.445L149.648 152.158L149.214 152.406L151.664 156.693L152.098 156.445ZM147.198 147.87L144.748 143.583L144.314 143.831L146.764 148.118L147.198 147.87ZM142.298 139.295L139.848 135.008L139.414 135.256L141.864 139.543L142.298 139.295ZM137.398 130.72L136.173 128.576L135.739 128.824L136.964 130.968L137.398 130.72ZM135.956 128.45H133.856V128.95H135.956V128.45ZM129.656 128.45H127.556V128.95H129.656V128.45ZM127.306 128.7V131.559H127.806V128.7H127.306ZM127.306 137.275V142.992H127.806V137.275H127.306ZM127.306 148.709V154.425H127.806V148.709H127.306ZM127.306 160.142V163H127.806V160.142H127.306ZM127.556 162.75H125.369V163.25H127.556V162.75ZM120.994 162.75H116.619V163.25H120.994V162.75ZM112.244 162.75H107.869V163.25H112.244V162.75ZM103.494 162.75H99.1188V163.25H103.494V162.75ZM94.7438 162.75H92.5563V163.25H94.7438V162.75ZM92.5563 163H92.0563V163.5H92.5563V163ZM92.5563 65.0004V64.5004H92.0563V65.0004H92.5563ZM127.556 65.0004H128.056V64.5004H127.556V65.0004ZM127.556 97.2004H127.056V97.7004H127.556V97.2004ZM134.556 97.2004V97.7004H134.848L134.992 97.4464L134.556 97.2004ZM152.756 65.0004V64.5004H152.465L152.321 64.7544L152.756 65.0004ZM191.956 65.0004L192.382 65.2625L192.851 64.5004H191.956V65.0004ZM163.956 110.5L163.53 110.238L163.373 110.494L163.525 110.753L163.956 110.5ZM194.756 163V163.5H195.629L195.188 162.747L194.756 163ZM155.556 163L155.122 163.248L155.266 163.5H155.556V163ZM135.956 128.7L136.39 128.452L136.246 128.2H135.956V128.7ZM127.556 128.7V128.2H127.056V128.7H127.556ZM127.556 163V163.5H128.056V163H127.556ZM93.0563 163V160.55H92.0563V163H93.0563ZM93.0563 155.65V150.75H92.0563V155.65H93.0563ZM93.0563 145.85V140.95H92.0563V145.85H93.0563ZM93.0563 136.05V131.15H92.0563V136.05H93.0563ZM93.0563 126.25V121.35H92.0563V126.25H93.0563ZM93.0563 116.45V111.55H92.0563V116.45H93.0563ZM93.0563 106.65V101.75H92.0563V106.65H93.0563ZM93.0563 96.8504V91.9504H92.0563V96.8504H93.0563ZM93.0563 87.0504V82.1504H92.0563V87.0504H93.0563ZM93.0563 77.2504V72.3504H92.0563V77.2504H93.0563ZM93.0563 67.4504V65.0004H92.0563V67.4504H93.0563ZM92.5563 65.5004H94.7438V64.5004H92.5563V65.5004ZM99.1188 65.5004H103.494V64.5004H99.1188V65.5004ZM107.869 65.5004H112.244V64.5004H107.869V65.5004ZM116.619 65.5004H120.994V64.5004H116.619V65.5004ZM125.369 65.5004H127.556V64.5004H125.369V65.5004ZM127.056 65.0004V67.6838H128.056V65.0004H127.056ZM127.056 73.0504V78.4171H128.056V73.0504H127.056ZM127.056 83.7838V89.1504H128.056V83.7838H127.056ZM127.056 94.5171V97.2004H128.056V94.5171H127.056ZM127.556 97.7004H129.306V96.7004H127.556V97.7004ZM132.806 97.7004H134.556V96.7004H132.806V97.7004ZM134.992 97.4464L136.129 95.434L135.258 94.9419L134.121 96.9544L134.992 97.4464ZM138.404 91.409L140.679 87.3839L139.808 86.8919L137.533 90.9169L138.404 91.409ZM142.954 83.359L145.229 79.334L144.358 78.8419L142.083 82.8669L142.954 83.359ZM147.504 75.309L149.779 71.284L148.908 70.7919L146.633 74.8169L147.504 75.309ZM152.054 67.259L153.192 65.2464L152.321 64.7544L151.183 66.7669L152.054 67.259ZM152.756 65.5004H155.206V64.5004H152.756V65.5004ZM160.106 65.5004H165.006V64.5004H160.106V65.5004ZM169.906 65.5004H174.806V64.5004H169.906V65.5004ZM179.706 65.5004H184.606V64.5004H179.706V65.5004ZM189.506 65.5004H191.956V64.5004H189.506V65.5004ZM191.53 64.7384L190.13 67.0134L190.982 67.5375L192.382 65.2625L191.53 64.7384ZM187.33 71.5634L184.53 76.1134L185.382 76.6375L188.182 72.0875L187.33 71.5634ZM181.73 80.6634L178.93 85.2134L179.782 85.7375L182.582 81.1875L181.73 80.6634ZM176.13 89.7634L173.33 94.3134L174.182 94.8375L176.982 90.2875L176.13 89.7634ZM170.53 98.8634L167.73 103.413L168.582 103.937L171.382 99.3875L170.53 98.8634ZM164.93 107.963L163.53 110.238L164.382 110.762L165.782 108.487L164.93 107.963ZM163.525 110.753L164.808 112.941L165.671 112.435L164.388 110.247L163.525 110.753ZM167.375 117.316L169.942 121.691L170.804 121.185L168.238 116.81L167.375 117.316ZM172.508 126.066L175.075 130.441L175.938 129.935L173.371 125.56L172.508 126.066ZM177.642 134.816L180.208 139.191L181.071 138.685L178.504 134.31L177.642 134.816ZM182.775 143.566L185.342 147.941L186.204 147.435L183.638 143.06L182.775 143.566ZM187.908 152.316L190.475 156.691L191.338 156.185L188.771 151.81L187.908 152.316ZM193.042 161.066L194.325 163.253L195.188 162.747L193.904 160.56L193.042 161.066ZM194.756 162.5H192.306V163.5H194.756V162.5ZM187.406 162.5H182.506V163.5H187.406V162.5ZM177.606 162.5H172.706V163.5H177.606V162.5ZM167.806 162.5H162.906V163.5H167.806V162.5ZM158.006 162.5H155.556V163.5H158.006V162.5ZM155.99 162.752L154.765 160.609L153.897 161.105L155.122 163.248L155.99 162.752ZM152.315 156.321L149.865 152.034L148.997 152.53L151.447 156.817L152.315 156.321ZM147.415 147.746L144.965 143.459L144.097 143.955L146.547 148.242L147.415 147.746ZM142.515 139.171L140.065 134.884L139.197 135.38L141.647 139.667L142.515 139.171ZM137.615 130.596L136.39 128.452L135.522 128.948L136.747 131.092L137.615 130.596ZM135.956 128.2H133.856V129.2H135.956V128.2ZM129.656 128.2H127.556V129.2H129.656V128.2ZM127.056 128.7V131.559H128.056V128.7H127.056ZM127.056 137.275V142.992H128.056V137.275H127.056ZM127.056 148.709V154.425H128.056V148.709H127.056ZM127.056 160.142V163H128.056V160.142H127.056ZM127.556 162.5H125.369V163.5H127.556V162.5ZM120.994 162.5H116.619V163.5H120.994V162.5ZM112.244 162.5H107.869V163.5H112.244V162.5ZM103.494 162.5H99.1188V163.5H103.494V162.5ZM94.7438 162.5H92.5563V163.5H94.7438V162.5Z" fill="url(#paint0_linear_274_347)" fill-opacity="0.6" mask="url(#path-3-inside-1_274_347)"/>
<path d="M232.508 28.9954L232.317 29.0348" stroke="black" stroke-width="0.2" stroke-linecap="round" stroke-linejoin="round"/>
<path d="M234.718 28.6535H234.534" stroke="black" stroke-width="0.2" stroke-linecap="round" stroke-linejoin="round"/>
<path d="M233.441 28.8113L233.251 28.8442" stroke="black" stroke-width="0.2" stroke-linecap="round" stroke-linejoin="round"/>
<path d="M232.318 29.0348L231.943 29.1335" stroke="black" stroke-width="0.2" stroke-linecap="round" stroke-linejoin="round"/>
<path d="M252.379 135.579L258.395 139.076C258.623 139.216 258.884 139.291 259.151 139.291C259.418 139.291 259.68 139.216 259.908 139.076L265.516 135.841C265.64 135.736 265.739 135.605 265.809 135.458C265.879 135.312 265.917 135.152 265.92 134.989C265.924 134.827 265.894 134.665 265.831 134.515C265.768 134.365 265.674 134.23 265.556 134.119L258.441 128.497L252.583 133.672C252.037 134.014 251.669 135.105 252.379 135.579Z" fill="black"/>
<path d="M213.348 104.34L207.345 107.963C207.241 108.019 207.154 108.103 207.093 108.204C207.032 108.307 207 108.423 207 108.541C207 108.66 207.032 108.776 207.093 108.878C207.154 108.98 207.241 109.064 207.345 109.12L212.54 112.158C212.698 112.248 212.878 112.291 213.06 112.281C213.242 112.272 213.417 112.211 213.565 112.105L217.004 109.6L213.348 104.34Z" fill="black"/>
<path d="M286.017 53.238L285.951 53.2775C284.581 52.7187 283.174 52.7353 281.698 52.6231C279.502 52.4654 276.977 53.2829 274.498 54.2231L253.108 41.5014L228.852 27.3385C228.852 27.3385 231.995 26.5832 234.047 26.5429C234.352 26.5369 234.829 26.5429 234.829 26.5429C237.539 26.5563 240.191 27.331 242.483 28.7784L260.472 38.6543L265.417 41.4816L266.475 42.0865L269.763 43.9736L270.42 44.3681L273.09 45.887L276.851 48.0371L282.907 51.4955L286.017 53.238Z" fill="#9C94F7" stroke="black" stroke-width="0.2" stroke-linecap="round" stroke-linejoin="round"/>
<path d="M286.517 53.5273C286.326 53.4353 286.142 53.3563 285.951 53.2775L286.018 53.238L286.517 53.5273Z" fill="#9C94F7" stroke="black" stroke-width="0.2" stroke-linecap="round" stroke-linejoin="round"/>
<path d="M313.626 46.8337C313.508 46.9784 313.304 47.2217 313.251 47.3006C313.31 47.2019 313.377 47.1099 313.442 47.0179L313.488 46.9521L313.554 46.86C313.578 46.8288 313.6 46.7958 313.62 46.7614C313.646 46.7336 313.667 46.7026 313.686 46.6694L313.745 46.5773L313.79 46.5116L313.613 46.7614C313.621 46.7848 313.626 46.8092 313.626 46.8337Z" fill="#9C94F7" stroke="black" stroke-width="0.2" stroke-linecap="round" stroke-linejoin="round"/>
<path d="M313.883 46.4064L313.804 46.5182" stroke="black" stroke-width="0.2" stroke-linecap="round" stroke-linejoin="round"/>
<path d="M314.067 46.1433L313.89 46.3867L314.028 46.196L314.067 46.1433Z" fill="#9C94F7" stroke="black" stroke-width="0.2" stroke-linecap="round" stroke-linejoin="round"/>
<path d="M314.159 46.0184L314.074 46.1302C314.098 46.0897 314.126 46.0522 314.159 46.0184Z" fill="#9C94F7" stroke="black" stroke-width="0.2" stroke-linecap="round" stroke-linejoin="round"/>
<path d="M306.321 95.4828C306.324 95.466 306.324 95.4476 306.321 95.4308C306.32 95.4196 306.32 95.4084 306.321 95.398C306.321 95.358 306.321 95.3188 306.321 95.286C306.321 95.286 306.321 95.2396 306.321 95.2068V95.0228C306.324 94.97 306.324 94.918 306.321 94.8652C306.321 94.782 306.321 94.7028 306.321 94.6284C306.317 94.5668 306.317 94.5052 306.321 94.4444C306.324 94.398 306.324 94.3524 306.321 94.306V94.1356V93.9644C306.157 92.6492 306.018 91.334 305.9 90.0196C305.9 90.0196 305.9 89.9668 305.9 89.9468C305.959 90.3412 306.018 90.7428 306.071 91.1372C306.123 91.5316 306.182 91.926 306.229 92.314C306.274 92.702 306.321 93.1492 306.374 93.7012C306.406 94.01 306.433 94.3588 306.459 94.6156V94.7204C306.459 94.7204 306.459 94.7732 306.459 94.8124C306.459 94.9772 306.498 95.2596 306.505 95.47V95.582V95.7132C306.505 95.7132 306.505 95.7596 306.505 95.786L306.321 95.4828Z" fill="#9C94F7" stroke="black" stroke-width="0.2" stroke-linecap="round" stroke-linejoin="round"/>
<path d="M306.367 95.8316C306.372 95.8468 306.372 95.8628 306.367 95.878V95.8316Z" fill="#9C94F7" stroke="black" stroke-width="0.2" stroke-linecap="round" stroke-linejoin="round"/>
<path d="M314.342 45.7488L314.297 45.808L314.25 45.8672L314.172 45.979L314.086 46.0907L313.909 46.334L313.83 46.4459L313.652 46.6957C313.658 46.4865 313.727 46.2839 313.85 46.1148C313.974 45.9457 314.146 45.8181 314.342 45.7488Z" fill="black"/>
<path d="M286.517 53.5273C286.326 53.4353 286.142 53.3563 285.951 53.2775L286.018 53.238L286.517 53.5273Z" fill="black"/>
<path d="M313.626 46.8337C313.508 46.9784 313.304 47.2217 313.251 47.3006C313.31 47.2019 313.377 47.1099 313.442 47.0179L313.488 46.9521C313.536 46.8911 313.58 46.8275 313.62 46.7614C313.626 46.7851 313.627 46.8095 313.626 46.8337Z" fill="black"/>
<path d="M306.321 95.4828C306.324 95.466 306.324 95.4476 306.321 95.4308C306.32 95.4196 306.32 95.4084 306.321 95.398C306.321 95.358 306.321 95.3188 306.321 95.286C306.321 95.286 306.321 95.2396 306.321 95.2068V95.0228C306.324 94.97 306.324 94.918 306.321 94.8652C306.321 94.782 306.321 94.7028 306.321 94.6284C306.317 94.5668 306.317 94.5052 306.321 94.4444C306.324 94.398 306.324 94.3524 306.321 94.306V94.1356V93.9644C306.157 92.6492 306.018 91.334 305.9 90.0196C305.9 90.0196 305.9 89.9668 305.9 89.9468C305.959 90.3412 306.018 90.7428 306.071 91.1372C306.123 91.5316 306.182 91.926 306.229 92.314C306.274 92.702 306.321 93.1492 306.374 93.7012C306.406 94.01 306.433 94.3588 306.459 94.6156V94.7204C306.459 94.7204 306.459 94.7732 306.459 94.8124C306.459 94.9772 306.498 95.2596 306.505 95.47V95.582V95.7132C306.505 95.7132 306.505 95.7596 306.505 95.786L306.321 95.4828Z" fill="black"/>
<path d="M306.367 95.8316C306.372 95.8468 306.372 95.8628 306.367 95.878V95.8316Z" fill="black"/>
<path d="M269.152 128.156V132.403L259.453 138.084L208.312 108.508L213.118 105.438V107.562L258.914 134.02L269.152 128.156Z" fill="black"/>
<path d="M358.212 81.0244L313.764 106.74C312.522 110.468 307.846 112.414 304.131 112.152L269.152 132.403V128.155L352.419 80.1172V78.0396L353.123 78.4204L358.212 81.0244Z" fill="black"/>
<path d="M286.517 53.5273C286.326 53.4353 286.142 53.3563 285.951 53.2775L286.018 53.238L286.517 53.5273Z" fill="#9C94F7"/>
<path d="M306.321 95.4828C306.324 95.466 306.324 95.4476 306.321 95.4308C306.32 95.4196 306.32 95.4084 306.321 95.398C306.321 95.358 306.321 95.3188 306.321 95.286C306.321 95.286 306.321 95.2396 306.321 95.2068V95.0228C306.324 94.97 306.324 94.918 306.321 94.8652C306.321 94.782 306.321 94.7028 306.321 94.6284C306.317 94.5668 306.317 94.5052 306.321 94.4444C306.324 94.398 306.324 94.3524 306.321 94.306V94.1356V93.9644C306.157 92.6492 306.018 91.334 305.9 90.0196C305.9 90.0196 305.9 89.9668 305.9 89.9468C305.959 90.3412 306.018 90.7428 306.071 91.1372C306.123 91.5316 306.182 91.926 306.229 92.314C306.274 92.702 306.321 93.1492 306.374 93.7012C306.406 94.01 306.433 94.3588 306.459 94.6156V94.7204C306.459 94.7204 306.459 94.7732 306.459 94.8124C306.459 94.9772 306.498 95.2596 306.505 95.47V95.582V95.7132C306.505 95.7132 306.505 95.7596 306.505 95.786L306.321 95.4828Z" fill="#9C94F7"/>
<path d="M306.367 95.8316C306.372 95.8468 306.372 95.8628 306.367 95.878V95.8316Z" fill="#9C94F7"/>
<path d="M258.915 101.256V134.02L213.119 107.562V74.798L230.431 85.0284L230.628 85.1404L232.154 86.0148L258.915 101.256Z" fill="#7772D8" stroke="black" stroke-width="0.2" stroke-linecap="round" stroke-linejoin="round"/>
<path d="M352.419 48.1553C352.419 59.2673 305.618 79.9388 306.498 95.4228C306.498 95.05 306.242 94.0388 306.202 93.6684C306.235 91.0388 306.801 78.118 308.898 72.6938C311.693 65.4611 316.381 59.0832 322.601 53.3628L323.107 52.9026L323.298 52.7316L324.231 51.9098L324.527 51.6533C329.424 47.5497 334.709 43.9338 340.308 40.8569L352.419 48.1553Z" fill="#9C94F7" stroke="black" stroke-width="0.2" stroke-linecap="round" stroke-linejoin="round"/>
<path d="M306.091 93.7476C305.926 92.9844 305.749 92.2484 305.546 91.538C305.781 92.2604 305.963 92.9988 306.091 93.7476Z" fill="#9C94F7" stroke="black" stroke-width="0.2" stroke-linecap="round" stroke-linejoin="round"/>
<path d="M352.54 48.1487V80.1172L351.389 80.7748L269.272 128.155L259.034 134.02V101.256C260.498 100.38 261.943 99.5228 263.367 98.6852C265.406 97.502 267.398 96.3644 269.338 95.2988C282.041 88.3028 292.462 84.1212 299.011 85.39L302.089 87.1132L302.404 87.2908C305.467 89.1068 306.239 93.326 306.566 95.7788C306.566 95.2348 306.52 94.6924 306.52 94.1484C306.349 60.0169 349.358 63.0941 352.54 48.1487Z" fill="#CAD1FB" stroke="black" stroke-width="0.2" stroke-linecap="round" stroke-linejoin="round"/>
<path d="M330.17 32.6972C329.433 33.0852 328.722 33.4796 328.026 33.8873C322.714 36.8815 318.061 40.9157 314.343 45.7488L314.297 45.808L314.251 45.8672L314.172 45.979C314.144 46.0114 314.12 46.0467 314.1 46.0842L314.06 46.1368L313.922 46.3275L313.85 46.4261L313.804 46.4919L313.745 46.5839C313.726 46.6172 313.704 46.648 313.678 46.676C313.659 46.7104 313.638 46.7432 313.613 46.7746L313.547 46.8667L313.502 46.9324C313.435 47.0244 313.37 47.1165 313.31 47.2152C307.965 55.0527 305.664 64.35 305.243 74.7124C305.072 79.7588 305.986 89.1996 306.498 94.2228C305.794 89.6204 303.534 81.0532 302.098 76.6228C298.501 66.63 295.414 59.0727 286.188 53.7311L283.144 51.9887L276.911 48.037L273.15 45.8869L270.48 44.3681L269.823 43.9736L266.535 42.0865L265.476 41.4816L260.473 38.6543C262.991 25.2936 269.901 14.2539 284.347 6.60043L296.636 13.5767L330.17 32.6972Z" fill="#CAD1FB" stroke="black" stroke-width="0.2" stroke-linecap="round" stroke-linejoin="round"/>
<path d="M306.498 95.4228C306.334 94.6604 305.749 92.2484 305.545 91.538V91.4924C305.493 91.2948 305.434 91.1044 305.374 90.9132C305.315 90.7228 305.256 90.5252 305.19 90.3348C305.052 89.9012 304.901 89.4804 304.743 89.0724C304.486 88.4148 304.21 87.7572 303.914 87.0996C303.678 86.594 303.422 86.1068 303.158 85.634C302.895 85.1604 302.619 84.7068 302.33 84.266C302.139 83.97 301.942 83.6876 301.738 83.4044C301.242 82.7148 300.704 82.0556 300.127 81.4324L299.778 81.0708C299.667 80.9524 299.549 80.834 299.43 80.722C298.849 80.1572 298.231 79.63 297.582 79.1436C297.109 78.7892 296.622 78.454 296.123 78.1508C295.75 77.9188 295.369 77.6996 294.978 77.494L294.59 77.3028L270.776 63.7188L269.283 62.8705L266.653 61.3714L261.347 58.3468L260.393 57.8011L258.5 56.7622L258.454 56.565C258.435 56.5088 258.42 56.4518 258.408 56.394C258.408 52.4327 256.043 47.8671 254.653 44.2234C254.515 43.9078 254.377 43.5659 254.232 43.2766C254.213 43.2271 254.191 43.1789 254.167 43.1319L254.108 43.0004C254.108 43.0004 254.068 42.915 254.048 42.8624L253.976 42.7177C253.976 42.6651 253.923 42.6059 253.897 42.5467C253.873 42.4879 253.844 42.4308 253.812 42.3758C253.812 42.3166 253.759 42.2575 253.733 42.1983C253.706 42.1391 253.437 41.7248 253.417 41.6723H253.45C253.812 41.8696 256.613 43.5001 260.065 45.5188L272.899 53.0407L273.294 53.2774L273.419 53.3497L273.649 53.4812L274.556 54.0138C277.035 53.0472 279.757 52.2583 281.947 52.4226C283.424 52.5285 284.876 52.8681 286.247 53.4286C287.711 54.0563 289.079 54.6012 290.35 55.5787C296.093 60.1737 299.73 69.1984 302.139 75.8892C304.159 82.122 305.685 88.9124 306.498 95.4228Z" fill="#7772D8" stroke="black" stroke-width="0.2" stroke-linecap="round" stroke-linejoin="round"/>
<path d="M249.768 51.3573L249.755 51.3508" stroke="black" stroke-width="0.2" stroke-linecap="round" stroke-linejoin="round"/>
<path d="M249.742 51.3442L249.735 51.3378H249.729" stroke="black" stroke-width="0.2" stroke-linecap="round" stroke-linejoin="round"/>
<path d="M284.801 75.3828C286.446 75.3044 288.094 75.4164 289.713 75.718C288.094 75.4196 286.446 75.3076 284.801 75.3828Z" fill="#9C94F7" stroke="black" stroke-width="0.2" stroke-linecap="round" stroke-linejoin="round"/>
<path d="M301.968 87.1132C295.656 83.8652 283.919 91.9724 273.695 97.3636C272.15 98.1724 270.644 98.922 269.204 99.5596C269.146 99.5932 269.084 99.6196 269.02 99.6388C268.409 99.9084 267.804 100.158 267.212 100.382L267.048 100.448C263.852 101.644 261.031 102.111 258.894 101.263L232.133 86.0148L230.601 85.1404L230.411 85.0292L213.131 74.798C214.537 75.4396 216.126 75.554 217.609 75.1204C218.219 74.9804 218.821 74.8052 219.411 74.594C219.818 74.4556 220.219 74.298 220.62 74.1204L257.56 95.9436L256.711 91.926L263.365 92.7676L226.367 70.912C227.215 70.3465 227.984 69.7876 228.662 69.2747C229.557 68.6438 230.387 67.9258 231.141 67.1313L235.329 69.5509L240.26 72.3651L245.198 75.1796L246.579 75.962L248.098 76.83L263.628 85.6796C263.773 85.5348 263.924 85.3908 264.069 85.2588C264.214 85.1276 264.431 84.9236 264.608 84.766C264.786 84.6076 264.963 84.4372 265.147 84.286C265.331 84.1348 265.502 83.97 265.686 83.8188C265.871 83.6676 266.048 83.51 266.226 83.3652C266.587 83.0628 266.949 82.7732 267.317 82.4908C267.501 82.346 267.679 82.2084 267.863 82.0764C268.047 81.9452 268.231 81.8004 268.415 81.6692L268.954 81.274L269.507 80.8996L270.105 80.4988L270.605 80.1828L271.118 79.8676C271.512 79.6308 271.9 79.4068 272.301 79.21C272.472 79.1108 272.65 79.0188 272.827 78.9268L273.254 78.6972L273.728 78.454C274.116 78.2692 274.497 78.0852 274.885 77.9148L275.444 77.6716C275.819 77.5004 276.194 77.3492 276.575 77.2108L277.14 77.0004L277.706 76.8036C278.087 76.678 278.462 76.5532 278.837 76.4484L279.396 76.2972C279.77 76.1916 280.145 76.0932 280.52 76.014C280.884 75.9356 281.245 75.8628 281.605 75.7972L282.137 75.7116L281.605 75.8036L298.838 85.45L301.968 87.1132Z" fill="#9C94F7" stroke="black" stroke-width="0.2" stroke-linecap="round" stroke-linejoin="round"/>
<path d="M301.718 83.4044C301.223 82.7148 300.685 82.0556 300.108 81.4324" stroke="black" stroke-width="0.2" stroke-linecap="round" stroke-linejoin="round"/>
<path d="M303.138 85.634C303.402 86.1068 303.658 86.5932 303.894 87.0996" stroke="black" stroke-width="0.2" stroke-linecap="round" stroke-linejoin="round"/>
<path d="M303.902 87.1004C304.195 87.7268 304.471 88.3844 304.73 89.0724C304.474 88.3756 304.198 87.7316 303.902 87.1004Z" fill="#9C94F7" stroke="black" stroke-width="0.2" stroke-linecap="round" stroke-linejoin="round"/>
<path d="M306.498 95.4228C305.939 91.1956 304.31 88.4876 302.284 87.2844L301.969 87.1068L298.891 85.3836L281.658 75.738L282.19 75.646C282.545 75.5868 282.894 75.5412 283.242 75.5012L284.288 75.4092L284.814 75.3764C286.458 75.3004 288.106 75.4132 289.726 75.7116L289.942 75.758C290.232 75.8108 290.514 75.8764 290.798 75.9484C292.101 76.2668 293.366 76.7252 294.571 77.3164L294.959 77.5068C295.345 77.7132 295.726 77.9324 296.103 78.1644C296.603 78.4668 297.09 78.822 297.563 79.1572C298.212 79.6428 298.83 80.17 299.41 80.7356C299.529 80.8468 299.647 80.9652 299.759 81.0836L300.108 81.4452C300.685 82.0692 301.223 82.7276 301.718 83.418C301.922 83.7004 302.12 83.9836 302.31 84.2796C302.6 84.7196 302.876 85.1804 303.139 85.6468C303.402 86.114 303.658 86.6068 303.895 87.1132C304.191 87.7708 304.467 88.3884 304.723 89.086C304.882 89.4932 305.033 89.914 305.17 90.3484C305.236 90.5388 305.295 90.7292 305.354 90.9268C305.782 92.3524 306.298 93.954 306.498 95.4228Z" fill="#9C94F7" stroke="black" stroke-width="0.2" stroke-linecap="round" stroke-linejoin="round"/>
<path d="M302.324 87.31L302.284 87.2908" stroke="black" stroke-width="0.2" stroke-linecap="round" stroke-linejoin="round"/>
<path d="M249.768 51.3575C250.294 51.6207 250.806 51.9127 251.3 52.2319" stroke="black" stroke-width="0.2" stroke-linecap="round" stroke-linejoin="round"/>
<path d="M347.436 37.0959C344.957 38.3123 342.557 39.5616 340.256 40.8569C334.655 43.9306 329.37 47.5467 324.475 51.6533C324.377 51.7454 324.278 51.8243 324.179 51.9098C323.864 52.186 323.522 52.4555 323.246 52.7316L323.055 52.9026L322.549 53.3629C316.362 59.0832 311.66 65.4743 308.866 72.707C306.769 78.1316 306.564 92.3604 306.498 95.0228C306.446 94.4644 306.058 92.5964 306.026 92.294C305.927 91.5188 305.822 90.7292 305.697 89.9204C305.184 84.8972 305.013 79.8444 305.184 74.798C305.605 64.4354 307.906 55.1382 313.251 47.3006C313.25 47.2875 313.25 47.2742 313.251 47.2611L313.6 46.8337V46.7614C313.618 46.7282 313.64 46.6973 313.666 46.6694L313.771 46.5115L313.857 46.3998L314.034 46.1499C314.054 46.1123 314.078 46.0771 314.106 46.0447L314.186 45.933L314.231 45.8738C314.248 45.853 314.263 45.831 314.278 45.808C318.011 40.9568 322.688 36.9109 328.026 33.9135L328.236 33.7887C328.427 33.6769 328.618 33.5651 328.815 33.4599L329.518 33.0654C329.722 32.9536 298.615 14.7931 296.709 13.6621L296.617 13.603C298.444 12.6167 300.338 11.6304 302.278 10.7231L304.526 11.9591L347.436 37.0959Z" fill="#9C94F7" stroke="black" stroke-width="0.2" stroke-linecap="round" stroke-linejoin="round"/>
<path d="M263.549 40.4033C266.39 26.6809 273.34 16.2922 284.879 9.63155" stroke="black" stroke-width="0.2" stroke-linecap="round" stroke-linejoin="round"/>
<path d="M266.496 42.0865C269.409 28.6666 276.359 18.5014 287.694 11.9328" stroke="black" stroke-width="0.2" stroke-linecap="round" stroke-linejoin="round"/>
<path d="M269.802 43.9736C272.702 30.5076 279.626 20.303 291.02 13.7279" stroke="black" stroke-width="0.2" stroke-linecap="round" stroke-linejoin="round"/>
<path d="M273.156 45.8869C276.076 32.4868 283.019 22.3281 294.342 15.7662" stroke="black" stroke-width="0.2" stroke-linecap="round" stroke-linejoin="round"/>
<path d="M276.911 48.0371C279.784 34.4594 286.721 24.1759 298.175 17.5612" stroke="black" stroke-width="0.2" stroke-linecap="round" stroke-linejoin="round"/>
<path d="M296.946 63.8634C299.51 49.1614 306.571 38.1019 318.643 31.1191" stroke="black" stroke-width="0.2" stroke-linecap="round" stroke-linejoin="round"/>
<path d="M299.698 70.2231C301.671 53.5157 309.07 40.4887 322.233 32.9076" stroke="black" stroke-width="0.2" stroke-linecap="round" stroke-linejoin="round"/>
<path d="M259.572 56.4138C259.4 52.5486 259.481 48.6763 259.815 44.8218C259.982 42.9544 260.22 41.1243 260.532 39.3315" stroke="black" stroke-width="0.2" stroke-linecap="round" stroke-linejoin="round" stroke-dasharray="0.8 1.6"/>
<path d="M245.909 30.8561C248.878 33.6528 251.326 36.9544 253.141 40.6071" stroke="black" stroke-width="0.2" stroke-linecap="round" stroke-linejoin="round" stroke-dasharray="0.8 1.6"/>
<path d="M339.078 39.9364L328.196 33.7427" stroke="black" stroke-width="0.2" stroke-linecap="round" stroke-linejoin="round" stroke-dasharray="0.8 1.6"/>
<path d="M314.705 47.7411L322.943 52.4687" stroke="black" stroke-width="0.2" stroke-linecap="round" stroke-linejoin="round" stroke-dasharray="0.8 1.6"/>
<path d="M294.571 77.3092C293.366 76.7188 292.101 76.2604 290.797 75.942C290.514 75.8692 290.232 75.8036 289.942 75.7508L289.726 75.7052C288.106 75.4068 286.458 75.294 284.814 75.37L284.288 75.4028L283.242 75.4948C282.894 75.534 282.545 75.5804 282.19 75.6396L281.658 75.7316L280.573 75.942C280.198 76.0276 279.823 76.126 279.448 76.2244L278.89 76.3756L277.759 76.7308L277.193 76.9284L276.628 77.1388C276.253 77.2828 275.872 77.4348 275.49 77.5988L274.938 77.842C274.557 78.0132 274.169 78.1972 273.787 78.3876L273.301 78.6244L272.88 78.8548C272.702 78.9404 272.525 79.0388 272.347 79.1372C271.953 79.3612 271.565 79.5844 271.17 79.8276C270.999 79.9196 270.828 80.0316 270.664 80.1372L270.158 80.4524L269.559 80.8532L269.007 81.2284L268.461 81.6228C268.271 81.754 268.093 81.8924 267.909 82.0308C267.725 82.1684 267.541 82.3004 267.363 82.4444C266.995 82.7276 266.634 83.0164 266.272 83.3124L265.733 83.7732C265.555 83.9172 265.371 84.0756 265.194 84.2396C265.016 84.4044 264.832 84.5484 264.654 84.7196L264.122 85.206L263.668 85.634L248.118 76.8028L246.599 75.942L245.218 75.146L240.287 72.3387L235.349 69.5311L231.141 67.1311L229.694 66.3093L218.214 59.5566C228.734 49.4835 241.043 46.9455 249.729 51.3377H249.768L258.428 56.3545L294.571 77.3092Z" fill="#9C94F7" stroke="black" stroke-width="0.2" stroke-linecap="round" stroke-linejoin="round"/>
<path d="M231.542 66.7499C240.458 57.834 249.709 58.2022 255.542 60.7007L280.843 75.1204" stroke="black" stroke-width="0.2" stroke-linecap="round" stroke-linejoin="round" stroke-dasharray="0.8 1.6"/>
<path d="M273.879 125.578L279.547 122.336" stroke="black" stroke-width="0.2" stroke-linecap="round" stroke-linejoin="round" stroke-dasharray="2.1 3.5"/>
<path d="M220.608 74.1204C220.206 74.298 219.805 74.4556 219.398 74.594C218.808 74.8052 218.207 74.9804 217.596 75.1204V72.3387L220.608 74.1204Z" fill="#7772D8" stroke="black" stroke-width="0.2" stroke-linecap="round" stroke-linejoin="round"/>
<path d="M256.699 91.926L257.547 95.9436L217.596 72.3387L224.02 69.5311L263.353 92.7676L256.699 91.926Z" fill="#CAD1FB" stroke="black" stroke-width="0.2" stroke-linecap="round" stroke-linejoin="round"/>
<path d="M29.64 53.0004L35.4 30.6004H43.72L49.48 53.0004H46.6L41.48 33.3204H37.64L32.52 53.0004H29.64ZM52.365 53.0004V37.0004H54.925V49.0004L54.893 49.3204H54.957L63.565 37.0004H66.445V53.0004H63.885V41.0004L63.917 40.6804H63.853L55.245 53.0004H52.365ZM68.8475 39.4004V37.0004H82.6075V39.4004H77.0075V53.0004H74.4475V39.4004H68.8475ZM86.3973 50.9524C84.8399 49.3738 84.0613 47.3898 84.0613 45.0004C84.0613 42.6111 84.8399 40.6271 86.3973 39.0484C87.9546 37.4698 89.8959 36.6804 92.2213 36.6804C94.5466 36.6804 96.4879 37.4591 98.0453 39.0164C99.6026 40.5738 100.381 42.5151 100.381 44.8404V45.8004H86.6213C86.7919 47.2938 87.3999 48.5204 88.4453 49.4804C89.4906 50.4404 90.7493 50.9204 92.2213 50.9204C93.7999 50.9204 95.1546 50.4404 96.2853 49.4804C96.7973 49.0538 97.2026 48.5738 97.5013 48.0404H100.061C99.6773 49.0431 99.1333 49.9284 98.4293 50.6964C96.7653 52.4458 94.6959 53.3204 92.2213 53.3204C89.8959 53.3204 87.9546 52.5311 86.3973 50.9524ZM86.6853 43.5604H97.6613C97.4693 42.3018 96.8826 41.2458 95.9013 40.3924C94.9199 39.5178 93.6933 39.0804 92.2213 39.0804C90.7493 39.0804 89.5119 39.5178 88.5093 40.3924C87.5066 41.2458 86.8986 42.3018 86.6853 43.5604ZM103.896 59.0804V37.0004H106.456V39.5604H106.488L106.808 39.0804C107.171 38.5258 107.822 37.9924 108.76 37.4804C109.699 36.9471 110.851 36.6804 112.216 36.6804C114.35 36.6804 116.163 37.4804 117.656 39.0804C119.15 40.6591 119.896 42.6324 119.896 45.0004C119.896 47.3684 119.15 49.3524 117.656 50.9524C116.163 52.5311 114.35 53.3204 112.216 53.3204C110.851 53.3204 109.688 53.0644 108.728 52.5524C107.79 52.0191 107.15 51.4644 106.808 50.8884L106.488 50.4404H106.456V59.0804H103.896ZM107.992 40.7444C106.968 41.8538 106.456 43.2724 106.456 45.0004C106.456 46.7284 106.968 48.1471 107.992 49.2564C109.038 50.3658 110.339 50.9204 111.896 50.9204C113.454 50.9204 114.744 50.3658 115.768 49.2564C116.814 48.1471 117.336 46.7284 117.336 45.0004C117.336 43.2724 116.814 41.8538 115.768 40.7444C114.744 39.6351 113.454 39.0804 111.896 39.0804C110.339 39.0804 109.038 39.6351 107.992 40.7444ZM124.708 50.9524C123.214 49.3524 122.468 47.3684 122.468 45.0004C122.468 42.6324 123.214 40.6591 124.708 39.0804C126.201 37.4804 128.014 36.6804 130.148 36.6804C131.492 36.6804 132.622 36.9364 133.54 37.4484C134.478 37.9604 135.161 38.5151 135.588 39.1124L135.876 39.5924H135.908V37.0004H138.468V53.0004H135.908V50.4404H135.876L135.588 50.8884C135.204 51.4644 134.542 52.0191 133.604 52.5524C132.665 53.0644 131.513 53.3204 130.148 53.3204C128.014 53.3204 126.201 52.5311 124.708 50.9524ZM126.564 40.7444C125.54 41.8538 125.028 43.2724 125.028 45.0004C125.028 46.7284 125.54 48.1471 126.564 49.2564C127.609 50.3658 128.91 50.9204 130.468 50.9204C132.025 50.9204 133.316 50.3658 134.34 49.2564C135.385 48.1471 135.908 46.7284 135.908 45.0004C135.908 43.2724 135.385 41.8538 134.34 40.7444C133.316 39.6351 132.025 39.0804 130.468 39.0804C128.91 39.0804 127.609 39.6351 126.564 40.7444ZM140.879 39.4004V37.0004H154.639V39.4004H149.039V53.0004H146.479V39.4004H140.879ZM155.453 37.0004H158.173L161.693 50.6004H164.093L168.253 37.0004H170.972L164.253 59.0804H161.533L163.453 53.0004H159.773L155.453 37.0004ZM173.209 59.0804V37.0004H175.769V39.5604H175.801L176.121 39.0804C176.483 38.5258 177.134 37.9924 178.073 37.4804C179.011 36.9471 180.163 36.6804 181.529 36.6804C183.662 36.6804 185.475 37.4804 186.969 39.0804C188.462 40.6591 189.209 42.6324 189.209 45.0004C189.209 47.3684 188.462 49.3524 186.969 50.9524C185.475 52.5311 183.662 53.3204 181.529 53.3204C180.163 53.3204 179.001 53.0644 178.041 52.5524C177.102 52.0191 176.462 51.4644 176.121 50.8884L175.801 50.4404H175.769V59.0804H173.209ZM177.305 40.7444C176.281 41.8538 175.769 43.2724 175.769 45.0004C175.769 46.7284 176.281 48.1471 177.305 49.2564C178.35 50.3658 179.651 50.9204 181.209 50.9204C182.766 50.9204 184.057 50.3658 185.081 49.2564C186.126 48.1471 186.649 46.7284 186.649 45.0004C186.649 43.2724 186.126 41.8538 185.081 40.7444C184.057 39.6351 182.766 39.0804 181.209 39.0804C179.651 39.0804 178.35 39.6351 177.305 40.7444ZM194.02 50.9524C192.527 49.3524 191.78 47.3684 191.78 45.0004C191.78 42.6324 192.527 40.6591 194.02 39.0804C195.513 37.4804 197.327 36.6804 199.46 36.6804C200.804 36.6804 201.935 36.9364 202.852 37.4484C203.791 37.9604 204.473 38.5151 204.9 39.1124L205.188 39.5924H205.22V37.0004H207.78V53.0004H205.22V50.4404H205.188L204.9 50.8884C204.516 51.4644 203.855 52.0191 202.916 52.5524C201.977 53.0644 200.825 53.3204 199.46 53.3204C197.327 53.3204 195.513 52.5311 194.02 50.9524ZM195.876 40.7444C194.852 41.8538 194.34 43.2724 194.34 45.0004C194.34 46.7284 194.852 48.1471 195.876 49.2564C196.921 50.3658 198.223 50.9204 199.78 50.9204C201.337 50.9204 202.628 50.3658 203.652 49.2564C204.697 48.1471 205.22 46.7284 205.22 45.0004C205.22 43.2724 204.697 41.8538 203.652 40.7444C202.628 39.6351 201.337 39.0804 199.78 39.0804C198.223 39.0804 196.921 39.6351 195.876 40.7444Z" fill="black"/>
</g>
<defs>
<linearGradient id="paint0_linear_274_347" x1="-11" y1="121.321" x2="195.002" y2="119.92" gradientUnits="userSpaceOnUse">
<stop/>
<stop offset="0.915" stop-opacity="0"/>
</linearGradient>
</defs>
</svg>
