<svg width="335" height="162" viewBox="0 0 335 162" fill="none" xmlns="http://www.w3.org/2000/svg">
<mask id="mask0_274_572" style="mask-type:alpha" maskUnits="userSpaceOnUse" x="0" y="0" width="335" height="163">
<path d="M0 60.0004C0 31.7162 0 17.574 8.7868 8.78722C17.5736 0.000427246 31.7157 0.000427246 60 0.000427246H275C303.284 0.000427246 317.426 0.000427246 326.213 8.78722C335 17.574 335 31.7162 335 60.0004V102C335 130.285 335 144.427 326.213 153.214C317.426 162 303.284 162 275 162H60C31.7157 162 17.5736 162 8.7868 153.214C0 144.427 0 130.285 0 102V60.0004Z" fill="#F89745"/>
</mask>
<g mask="url(#mask0_274_572)">
<path d="M0 60.0004C0 31.7162 0 17.574 8.7868 8.78722C17.5736 0.000427246 31.7157 0.000427246 60 0.000427246H275C303.284 0.000427246 317.426 0.000427246 326.213 8.78722C335 17.574 335 31.7162 335 60.0004V102C335 130.285 335 144.427 326.213 153.214C317.426 162 303.284 162 275 162H60C31.7157 162 17.5736 162 8.7868 153.214C0 144.427 0 130.285 0 102V60.0004Z" fill="#B0BADE"/>
<mask id="path-3-inside-1_274_572" fill="white">
<path d="M-2.6 163V65.0004H77.9V93.0004H32.4V102.1H68.1V125.9H32.4V135H77.9V163H-2.6ZM87.6563 149.7C87.6563 145.5 89.1496 141.907 92.1363 138.92C95.2163 135.84 98.8563 134.3 103.056 134.3C107.163 134.3 110.756 135.84 113.836 138.92C116.916 142 118.456 145.594 118.456 149.7C118.456 153.9 116.916 157.54 113.836 160.62C110.85 163.607 107.256 165.1 103.056 165.1C98.7629 165.1 95.1229 163.607 92.1363 160.62C89.1496 157.634 87.6563 153.994 87.6563 149.7Z"/>
</mask>
<path d="M-2.6 163H-2.85V163.25H-2.6V163ZM-2.6 65.0004V64.7504H-2.85V65.0004H-2.6ZM77.9 65.0004H78.15V64.7504H77.9V65.0004ZM77.9 93.0004V93.2504H78.15V93.0004H77.9ZM32.4 93.0004V92.7504H32.15V93.0004H32.4ZM32.4 102.1H32.15V102.35H32.4V102.1ZM68.1 102.1H68.35V101.85H68.1V102.1ZM68.1 125.9V126.15H68.35V125.9H68.1ZM32.4 125.9V125.65H32.15V125.9H32.4ZM32.4 135H32.15V135.25H32.4V135ZM77.9 135H78.15V134.75H77.9V135ZM77.9 163V163.25H78.15V163H77.9ZM-2.35 163V160.55H-2.85V163H-2.35ZM-2.35 155.65V150.75H-2.85V155.65H-2.35ZM-2.35 145.85V140.95H-2.85V145.85H-2.35ZM-2.35 136.05V131.15H-2.85V136.05H-2.35ZM-2.35 126.25V121.35H-2.85V126.25H-2.35ZM-2.35 116.45V111.55H-2.85V116.45H-2.35ZM-2.35 106.65V101.75H-2.85V106.65H-2.35ZM-2.35 96.8504V91.9504H-2.85V96.8504H-2.35ZM-2.35 87.0504V82.1504H-2.85V87.0504H-2.35ZM-2.35 77.2504V72.3504H-2.85V77.2504H-2.35ZM-2.35 67.4504V65.0004H-2.85V67.4504H-2.35ZM-2.6 65.2504H-0.0843744V64.7504H-2.6V65.2504ZM4.94688 65.2504H9.97813V64.7504H4.94688V65.2504ZM15.0094 65.2504H20.0406V64.7504H15.0094V65.2504ZM25.0719 65.2504H30.1031V64.7504H25.0719V65.2504ZM35.1344 65.2504H40.1656V64.7504H35.1344V65.2504ZM45.1969 65.2504H50.2281V64.7504H45.1969V65.2504ZM55.2594 65.2504H60.2906V64.7504H55.2594V65.2504ZM65.3219 65.2504H70.3531V64.7504H65.3219V65.2504ZM75.3844 65.2504H77.9V64.7504H75.3844V65.2504ZM77.65 65.0004V67.3338H78.15V65.0004H77.65ZM77.65 72.0004V76.6671H78.15V72.0004H77.65ZM77.65 81.3338V86.0004H78.15V81.3338H77.65ZM77.65 90.6671V93.0004H78.15V90.6671H77.65ZM77.9 92.7504H75.625V93.2504H77.9V92.7504ZM71.075 92.7504H66.525V93.2504H71.075V92.7504ZM61.975 92.7504H57.425V93.2504H61.975V92.7504ZM52.875 92.7504H48.325V93.2504H52.875V92.7504ZM43.775 92.7504H39.225V93.2504H43.775V92.7504ZM34.675 92.7504H32.4V93.2504H34.675V92.7504ZM32.15 93.0004V95.2754H32.65V93.0004H32.15ZM32.15 99.8254V102.1H32.65V99.8254H32.15ZM32.4 102.35H34.6312V101.85H32.4V102.35ZM39.0938 102.35H43.5563V101.85H39.0938V102.35ZM48.0187 102.35H52.4812V101.85H48.0187V102.35ZM56.9437 102.35H61.4062V101.85H56.9437V102.35ZM65.8688 102.35H68.1V101.85H65.8688V102.35ZM67.85 102.1V105.075H68.35V102.1H67.85ZM67.85 111.025V116.975H68.35V111.025H67.85ZM67.85 122.925V125.9H68.35V122.925H67.85ZM68.1 125.65H65.8688V126.15H68.1V125.65ZM61.4062 125.65H56.9437V126.15H61.4062V125.65ZM52.4813 125.65H48.0188V126.15H52.4813V125.65ZM43.5563 125.65H39.0938V126.15H43.5563V125.65ZM34.6312 125.65H32.4V126.15H34.6312V125.65ZM32.15 125.9V128.175H32.65V125.9H32.15ZM32.15 132.725V135H32.65V132.725H32.15ZM32.4 135.25H34.675V134.75H32.4V135.25ZM39.225 135.25H43.775V134.75H39.225V135.25ZM48.325 135.25H52.875V134.75H48.325V135.25ZM57.425 135.25H61.975V134.75H57.425V135.25ZM66.525 135.25H71.075V134.75H66.525V135.25ZM75.625 135.25H77.9V134.75H75.625V135.25ZM77.65 135V137.334H78.15V135H77.65ZM77.65 142V146.667H78.15V142H77.65ZM77.65 151.334V156H78.15V151.334H77.65ZM77.65 160.667V163H78.15V160.667H77.65ZM77.9 162.75H75.3844V163.25H77.9V162.75ZM70.3531 162.75H65.3219V163.25H70.3531V162.75ZM60.2906 162.75H55.2594V163.25H60.2906V162.75ZM50.2281 162.75H45.1969V163.25H50.2281V162.75ZM40.1656 162.75H35.1344V163.25H40.1656V162.75ZM30.1031 162.75H25.0719V163.25H30.1031V162.75ZM20.0406 162.75H15.0094V163.25H20.0406V162.75ZM9.97813 162.75H4.94688V163.25H9.97813V162.75ZM-0.0843744 162.75H-2.6V163.25H-0.0843744V162.75ZM-2.6 163H-3.1V163.5H-2.6V163ZM-2.6 65.0004V64.5004H-3.1V65.0004H-2.6ZM77.9 65.0004H78.4V64.5004H77.9V65.0004ZM77.9 93.0004V93.5004H78.4V93.0004H77.9ZM32.4 93.0004V92.5004H31.9V93.0004H32.4ZM32.4 102.1H31.9V102.6H32.4V102.1ZM68.1 102.1H68.6V101.6H68.1V102.1ZM68.1 125.9V126.4H68.6V125.9H68.1ZM32.4 125.9V125.4H31.9V125.9H32.4ZM32.4 135H31.9V135.5H32.4V135ZM77.9 135H78.4V134.5H77.9V135ZM77.9 163V163.5H78.4V163H77.9ZM-2.1 163V160.55H-3.1V163H-2.1ZM-2.1 155.65V150.75H-3.1V155.65H-2.1ZM-2.1 145.85V140.95H-3.1V145.85H-2.1ZM-2.1 136.05V131.15H-3.1V136.05H-2.1ZM-2.1 126.25V121.35H-3.1V126.25H-2.1ZM-2.1 116.45V111.55H-3.1V116.45H-2.1ZM-2.1 106.65V101.75H-3.1V106.65H-2.1ZM-2.1 96.8504V91.9504H-3.1V96.8504H-2.1ZM-2.1 87.0504V82.1504H-3.1V87.0504H-2.1ZM-2.1 77.2504V72.3504H-3.1V77.2504H-2.1ZM-2.1 67.4504V65.0004H-3.1V67.4504H-2.1ZM-2.6 65.5004H-0.0843744V64.5004H-2.6V65.5004ZM4.94688 65.5004H9.97813V64.5004H4.94688V65.5004ZM15.0094 65.5004H20.0406V64.5004H15.0094V65.5004ZM25.0719 65.5004H30.1031V64.5004H25.0719V65.5004ZM35.1344 65.5004H40.1656V64.5004H35.1344V65.5004ZM45.1969 65.5004H50.2281V64.5004H45.1969V65.5004ZM55.2594 65.5004H60.2906V64.5004H55.2594V65.5004ZM65.3219 65.5004H70.3531V64.5004H65.3219V65.5004ZM75.3844 65.5004H77.9V64.5004H75.3844V65.5004ZM77.4 65.0004V67.3338H78.4V65.0004H77.4ZM77.4 72.0004V76.6671H78.4V72.0004H77.4ZM77.4 81.3338V86.0004H78.4V81.3338H77.4ZM77.4 90.6671V93.0004H78.4V90.6671H77.4ZM77.9 92.5004H75.625V93.5004H77.9V92.5004ZM71.075 92.5004H66.525V93.5004H71.075V92.5004ZM61.975 92.5004H57.425V93.5004H61.975V92.5004ZM52.875 92.5004H48.325V93.5004H52.875V92.5004ZM43.775 92.5004H39.225V93.5004H43.775V92.5004ZM34.675 92.5004H32.4V93.5004H34.675V92.5004ZM31.9 93.0004V95.2754H32.9V93.0004H31.9ZM31.9 99.8254V102.1H32.9V99.8254H31.9ZM32.4 102.6H34.6312V101.6H32.4V102.6ZM39.0938 102.6H43.5563V101.6H39.0938V102.6ZM48.0187 102.6H52.4812V101.6H48.0187V102.6ZM56.9437 102.6H61.4062V101.6H56.9437V102.6ZM65.8688 102.6H68.1V101.6H65.8688V102.6ZM67.6 102.1V105.075H68.6V102.1H67.6ZM67.6 111.025V116.975H68.6V111.025H67.6ZM67.6 122.925V125.9H68.6V122.925H67.6ZM68.1 125.4H65.8688V126.4H68.1V125.4ZM61.4062 125.4H56.9437V126.4H61.4062V125.4ZM52.4813 125.4H48.0188V126.4H52.4813V125.4ZM43.5563 125.4H39.0938V126.4H43.5563V125.4ZM34.6312 125.4H32.4V126.4H34.6312V125.4ZM31.9 125.9V128.175H32.9V125.9H31.9ZM31.9 132.725V135H32.9V132.725H31.9ZM32.4 135.5H34.675V134.5H32.4V135.5ZM39.225 135.5H43.775V134.5H39.225V135.5ZM48.325 135.5H52.875V134.5H48.325V135.5ZM57.425 135.5H61.975V134.5H57.425V135.5ZM66.525 135.5H71.075V134.5H66.525V135.5ZM75.625 135.5H77.9V134.5H75.625V135.5ZM77.4 135V137.334H78.4V135H77.4ZM77.4 142V146.667H78.4V142H77.4ZM77.4 151.334V156H78.4V151.334H77.4ZM77.4 160.667V163H78.4V160.667H77.4ZM77.9 162.5H75.3844V163.5H77.9V162.5ZM70.3531 162.5H65.3219V163.5H70.3531V162.5ZM60.2906 162.5H55.2594V163.5H60.2906V162.5ZM50.2281 162.5H45.1969V163.5H50.2281V162.5ZM40.1656 162.5H35.1344V163.5H40.1656V162.5ZM30.1031 162.5H25.0719V163.5H30.1031V162.5ZM20.0406 162.5H15.0094V163.5H20.0406V162.5ZM9.97813 162.5H4.94688V163.5H9.97813V162.5ZM-0.0843744 162.5H-2.6V163.5H-0.0843744V162.5ZM92.1363 138.92L92.313 139.097L92.1363 138.92ZM113.836 160.62L114.013 160.797L113.836 160.62ZM92.1363 160.62L92.313 160.444L92.1363 160.62ZM87.9062 149.7C87.9062 148.684 87.995 147.705 88.1719 146.763L87.6805 146.671C87.4975 147.645 87.4062 148.655 87.4062 149.7H87.9062ZM90.4203 141.36C90.9627 140.571 91.5934 139.817 92.313 139.097L91.9595 138.744C91.2195 139.484 90.5689 140.261 90.0083 141.077L90.4203 141.36ZM92.313 139.097C93.0465 138.364 93.8111 137.72 94.6067 137.165L94.3207 136.755C93.4994 137.328 92.7124 137.991 91.9595 138.744L92.313 139.097ZM100.075 134.831C101.034 134.644 102.027 134.55 103.056 134.55V134.05C101.997 134.05 100.971 134.147 99.9795 134.341L100.075 134.831ZM103.056 134.55C104.071 134.55 105.053 134.646 106.002 134.836L106.1 134.346C105.117 134.149 104.103 134.05 103.056 134.05V134.55ZM111.395 137.18C112.177 137.731 112.932 138.37 113.659 139.097L114.013 138.744C113.267 137.998 112.49 137.34 111.683 136.771L111.395 137.18ZM113.659 139.097C114.387 139.824 115.026 140.579 115.577 141.362L115.986 141.074C115.417 140.266 114.759 139.49 114.013 138.744L113.659 139.097ZM117.92 146.755C118.111 147.704 118.206 148.686 118.206 149.7H118.706C118.706 148.654 118.608 147.639 118.41 146.656L117.92 146.755ZM118.206 149.7C118.206 150.729 118.112 151.723 117.925 152.681L118.416 152.777C118.61 151.786 118.706 150.76 118.706 149.7H118.206ZM115.592 158.15C115.037 158.946 114.393 159.71 113.659 160.444L114.013 160.797C114.766 160.044 115.429 159.257 116.002 158.436L115.592 158.15ZM113.659 160.444C112.94 161.163 112.185 161.794 111.397 162.336L111.68 162.748C112.495 162.188 113.273 161.537 114.013 160.797L113.659 160.444ZM105.994 164.585C105.052 164.762 104.073 164.85 103.056 164.85V165.35C104.102 165.35 105.112 165.259 106.086 165.076L105.994 164.585ZM103.056 164.85C102.026 164.85 101.035 164.763 100.084 164.589L99.9938 165.081C100.977 165.261 101.998 165.35 103.056 165.35V164.85ZM94.6053 162.351C93.8031 161.805 93.039 161.17 92.313 160.444L91.9595 160.797C92.7064 161.544 93.4946 162.2 94.3241 162.764L94.6053 162.351ZM92.313 160.444C91.5871 159.718 90.9516 158.954 90.4061 158.151L89.9926 158.433C90.5568 159.262 91.2126 160.05 91.9595 160.797L92.313 160.444ZM88.1673 152.673C87.9934 151.722 87.9062 150.731 87.9062 149.7H87.4062C87.4062 150.759 87.4958 151.78 87.6755 152.763L88.1673 152.673ZM92.1363 138.92L92.4898 139.274L92.1363 138.92ZM113.836 160.62L114.19 160.974L113.836 160.62ZM92.1363 160.62L92.4898 160.267L92.1363 160.62ZM88.1562 149.7C88.1562 148.699 88.2437 147.735 88.4176 146.809L87.4348 146.625C87.2488 147.615 87.1562 148.64 87.1562 149.7H88.1562ZM90.6264 141.502C91.1595 140.726 91.7803 139.983 92.4898 139.274L91.7827 138.567C91.0326 139.317 90.3721 140.106 89.8023 140.935L90.6264 141.502ZM92.4898 139.274C93.2136 138.55 93.967 137.916 94.7498 137.37L94.1777 136.55C93.3436 137.131 92.5453 137.804 91.7827 138.567L92.4898 139.274ZM100.123 135.077C101.065 134.893 102.043 134.8 103.056 134.8V133.8C101.982 133.8 100.94 133.898 99.9316 134.095L100.123 135.077ZM103.056 134.8C104.055 134.8 105.02 134.894 105.953 135.082L106.149 134.101C105.15 133.9 104.118 133.8 103.056 133.8V134.8ZM111.251 137.384C112.021 137.927 112.765 138.556 113.483 139.274L114.19 138.567C113.435 137.812 112.647 137.144 111.827 136.566L111.251 137.384ZM113.483 139.274C114.2 139.992 114.83 140.736 115.373 141.506L116.19 140.93C115.612 140.11 114.945 139.322 114.19 138.567L113.483 139.274ZM117.675 146.804C117.862 147.736 117.956 148.701 117.956 149.7H118.956C118.956 148.638 118.856 147.607 118.656 146.607L117.675 146.804ZM117.956 149.7C117.956 150.714 117.864 151.692 117.68 152.633L118.661 152.825C118.858 151.817 118.956 150.775 118.956 149.7H117.956ZM115.387 158.007C114.841 158.79 114.206 159.543 113.483 160.267L114.19 160.974C114.952 160.211 115.625 159.413 116.207 158.579L115.387 158.007ZM113.483 160.267C112.773 160.976 112.031 161.597 111.255 162.13L111.821 162.954C112.65 162.385 113.44 161.724 114.19 160.974L113.483 160.267ZM105.947 164.339C105.022 164.513 104.058 164.6 103.056 164.6V165.6C104.117 165.6 105.142 165.508 106.132 165.322L105.947 164.339ZM103.056 164.6C102.04 164.6 101.064 164.514 100.129 164.343L99.9488 165.327C100.947 165.51 101.983 165.6 103.056 165.6V164.6ZM94.7459 162.144C93.9573 161.608 93.2053 160.982 92.4898 160.267L91.7827 160.974C92.5401 161.731 93.3403 162.397 94.1835 162.971L94.7459 162.144ZM92.4898 160.267C91.7743 159.551 91.149 158.799 90.6128 158.011L89.7859 158.573C90.3593 159.416 91.0253 160.217 91.7827 160.974L92.4898 160.267ZM88.4133 152.628C88.2422 151.692 88.1562 150.717 88.1562 149.7H87.1562C87.1562 150.773 87.247 151.809 87.4296 152.808L88.4133 152.628Z" fill="url(#paint0_linear_274_572)" fill-opacity="0.6" mask="url(#path-3-inside-1_274_572)"/>
<path d="M285.269 139.568L263.385 127.146L250.486 100.004L248.898 96.6604L233.502 109.943L216.6 100.28L240.447 79.4508L218.407 33.8702L240.146 46.1798L251.013 70.0962L263.084 59.5309L272.771 65.0646L279.992 69.1928L271.861 76.3644L259.464 87.2996L262.319 93.0844L285.269 139.568Z" fill="#717FAA" stroke="black" stroke-width="0.2" stroke-linecap="round" stroke-linejoin="round"/>
<path d="M327.982 41.1168L307.459 59.2298L275.048 78.1836L259.463 87.2996L271.861 76.3644L279.992 69.1928L327.982 41.1168Z" fill="#8E9BCF" stroke="black" stroke-width="0.2" stroke-linecap="round" stroke-linejoin="round"/>
<path d="M327.982 41.1168L279.992 69.1929L272.771 65.0646L263.084 59.531L285.921 46.1736L297.747 39.2534L311.079 31.4548L327.982 41.1168Z" fill="#B1C0E9" stroke="black" stroke-width="0.2" stroke-linecap="round" stroke-linejoin="round"/>
<path d="M288.136 18.1037L275.833 25.3L240.146 46.1799L218.407 33.8703L266.403 5.80042L288.136 18.1037Z" fill="#B1C0E9" stroke="black" stroke-width="0.2" stroke-linecap="round" stroke-linejoin="round"/>
<path d="M250.486 100.004L233.502 109.943L248.899 96.6604L250.486 100.004Z" fill="#8E9BCF" stroke="black" stroke-width="0.2" stroke-linecap="round" stroke-linejoin="round"/>
<path d="M285.922 46.1735L277.64 29.0331L276.736 27.1634L275.839 25.3L275.827 25.2875L266.409 5.80042L266.529 5.86945L267.614 6.47802" stroke="black" stroke-width="0.2" stroke-linecap="round" stroke-linejoin="round" stroke-dasharray="0.8 1.6"/>
<path d="M271.861 76.358L264.596 72.2107L272.771 65.0646" stroke="black" stroke-width="0.2" stroke-linecap="round" stroke-linejoin="round" stroke-dasharray="0.8 1.6"/>
<path d="M325.29 39.5797L327.97 41.1168L327.919 41.1669L319.845 48.288L318.715 49.2918L309.857 57.1029L307.447 59.2298L308.922 62.21L313.539 71.5896L320.441 85.5301L326.219 97.2381L328.102 101.002L329.902 104.648L329.939 104.723L333.283 111.504L325.686 107.188L325.598 107.138L323.088 105.714L321.507 104.816L311.394 99.0821L304.611 84.7965L302.616 80.6052L301.618 78.5541L298.482 71.9346L296.888 68.5906L281.492 81.8724L275.048 78.1773" stroke="black" stroke-width="0.2" stroke-linecap="round" stroke-linejoin="round" stroke-dasharray="2.06 3.42"/>
<path d="M298.049 39.9185L299.002 42.0203L311.004 31.5239" stroke="black" stroke-width="0.2" stroke-linecap="round" stroke-linejoin="round" stroke-dasharray="0.8 1.6"/>
<path d="M297.747 39.2534L285.921 46.1736L263.084 59.5309L251.013 70.0964L241.828 49.8752L240.962 47.9805L240.146 46.1799L275.839 25.3L282.815 21.2219L288.136 18.11L288.142 18.1163L289.008 20.011V20.0173L289.867 21.912L297.747 39.2534Z" fill="#8E9BCF" stroke="black" stroke-width="0.2" stroke-linecap="round" stroke-linejoin="round"/>
<path d="M333.264 111.498L285.268 139.568L262.318 93.0845L259.463 87.2997L275.048 78.1837L298.682 64.3556L307.459 59.2297L308.927 62.2099L313.558 71.5895L320.446 85.5301V85.5365L326.225 97.2437L328.082 100.996L329.882 104.641L329.92 104.716L333.264 111.498Z" fill="#8E9BCF" stroke="black" stroke-width="0.2" stroke-linecap="round" stroke-linejoin="round"/>
<path d="M320.598 85.442L320.033 85.7684" stroke="black" stroke-width="0.2" stroke-linecap="round" stroke-linejoin="round"/>
<path d="M320.026 85.7748L319.926 85.8316" stroke="black" stroke-width="0.2" stroke-linecap="round" stroke-linejoin="round"/>
<path d="M218.702 99.1764L219.241 98.8628" stroke="black" stroke-width="0.2" stroke-linecap="round" stroke-linejoin="round"/>
<path d="M221.374 97.6076L261.929 73.7476" stroke="black" stroke-width="0.2" stroke-linecap="round" stroke-linejoin="round" stroke-dasharray="1.58 3.16"/>
<path d="M262.996 73.1204L263.542 72.8068" stroke="black" stroke-width="0.2" stroke-linecap="round" stroke-linejoin="round"/>
<path d="M263.987 126.844L264.533 126.531" stroke="black" stroke-width="0.2" stroke-linecap="round" stroke-linejoin="round"/>
<path d="M266.98 125.1L273.091 121.536" stroke="black" stroke-width="0.2" stroke-linecap="round" stroke-linejoin="round" stroke-dasharray="1.81 3.61"/>
<path d="M274.314 120.821L274.86 120.508" stroke="black" stroke-width="0.2" stroke-linecap="round" stroke-linejoin="round"/>
<path d="M333.196 111.586L320.968 118.701L285.156 139.549L284.302 137.648L283.443 135.754L331.382 107.677L332.336 109.685V109.692L333.196 111.586Z" fill="black"/>
<path d="M290.03 22.05L277.802 29.1711L241.99 50.0132L241.131 48.1185L240.271 46.2175L288.21 18.1413L289.17 20.1553L290.03 22.05Z" fill="black"/>
<path d="M316.676 88.918L308.012 91.3028L324.832 101.391V111.429L293.701 92.8084V84.4516L303.143 81.7596L312.36 79.1308C314.919 78.2524 315.34 76.1132 314.593 73.71C314.475 73.3324 314.337 72.9621 314.179 72.5997C313.826 71.8087 313.406 71.0489 312.924 70.3285C311.142 67.6369 308.489 65.1838 306.28 64.2991C304.322 63.5212 302.717 63.9667 302.359 66.5703L298.676 64.3744L293.72 61.4131C293.72 61.3315 293.72 61.25 293.72 61.1684C293.753 58.2615 294.422 56.1199 295.727 54.7439C296.014 54.4369 296.334 54.1633 296.681 53.9283C296.89 53.7847 297.11 53.6588 297.34 53.5518C297.79 53.3283 298.266 53.1638 298.758 53.0624C299.377 52.94 300.009 52.8874 300.64 52.9056C300.859 52.9056 301.091 52.9056 301.324 52.9495C302.852 53.1218 304.347 53.5192 305.759 54.1291C307.106 54.6991 308.41 55.3659 309.662 56.1242L310.44 56.6072L310.91 56.9084C311.747 57.4479 312.538 58.0294 313.282 58.6526C313.665 58.96 314.047 59.2799 314.418 59.6125L314.813 59.9639L315.59 60.6979L315.967 61.0743C316.482 61.5888 316.971 62.1158 317.448 62.6679C318.922 64.3525 320.223 66.1811 321.331 68.1263C321.334 68.1407 321.334 68.1558 321.331 68.1703L321.457 68.3835L321.79 69.0109C321.839 69.0863 321.878 69.1678 321.921 69.2494C321.921 69.2995 321.978 69.3497 322.002 69.4062C322.191 69.7763 322.379 70.1528 322.549 70.5355C322.649 70.7426 322.75 70.9622 322.837 71.1629C323.094 71.7903 323.333 72.355 323.54 72.9447L323.653 73.29L323.747 73.5724C323.747 73.6412 323.791 73.71 323.81 73.7788C323.979 74.3188 324.123 74.8524 324.249 75.3852V75.454C324.286 75.63 324.324 75.7996 324.355 75.9684L324.468 76.546C324.538 76.9348 324.594 77.318 324.644 77.7004L324.701 78.278C324.701 78.4348 324.732 78.5972 324.745 78.7548C324.757 78.9116 324.745 79.0492 324.745 79.194C324.748 79.242 324.748 79.29 324.745 79.338C324.745 79.4636 324.745 79.5892 324.745 79.7084C324.745 79.8276 324.745 80.0284 324.745 80.1852C324.75 81.0036 324.695 81.8212 324.582 82.6316C324.574 82.6972 324.564 82.762 324.55 82.826C324.55 82.958 324.506 83.09 324.474 83.2156L324.418 83.4788C324.418 83.5476 324.418 83.6108 324.368 83.6796C324.342 83.786 324.311 83.8908 324.274 83.9932C324.274 84.094 324.211 84.194 324.18 84.2884L324.092 84.514C324.01 84.7052 323.918 84.8916 323.816 85.0724C323.753 85.1852 323.684 85.2916 323.615 85.3988L323.553 85.4868C323.501 85.5652 323.445 85.6412 323.383 85.7124L323.289 85.838L323.05 86.1012C322.956 86.202 322.856 86.302 322.75 86.3964L322.749 86.3956C322.574 86.5396 322.574 86.5396 322.398 86.6844L322.147 86.8604C321.946 86.9884 321.736 87.1036 321.52 87.2052L321.256 87.3308L321.074 87.406C319.64 87.9988 318.171 88.5036 316.676 88.918Z" fill="#717FAA" stroke="black" stroke-width="0.2" stroke-linecap="round" stroke-linejoin="round"/>
<path d="M312.378 79.1372L293.726 84.4508L314.198 72.5995C315.422 75.4476 315.327 78.1332 312.378 79.1372Z" fill="#8E9BCF" stroke="black" stroke-width="0.2" stroke-linecap="round" stroke-linejoin="round"/>
<path d="M306.293 64.2991L302.372 66.5703C302.73 63.9666 304.336 63.5212 306.293 64.2991Z" fill="#717FAA" stroke="black" stroke-width="0.2" stroke-linecap="round" stroke-linejoin="round"/>
<path d="M349.226 87.2492L340.649 92.2124L324.832 101.391L308.024 91.3524L316.682 88.9748C318.201 88.5764 319.695 88.0884 321.156 87.5132C321.313 87.45 321.457 87.3812 321.601 87.3124C321.818 87.2084 322.027 87.0908 322.229 86.9604L327.066 84.1628L335.649 79.1996L349.226 87.2492Z" fill="#B1C0E9" stroke="black" stroke-width="0.2" stroke-linecap="round" stroke-linejoin="round"/>
<path d="M327.216 67.7499L321.958 69.2493L321.344 68.12L321.594 77.65L324.688 82.6692L327.085 84.0996" stroke="black" stroke-width="0.2" stroke-linecap="round" stroke-linejoin="round" stroke-dasharray="0.8 1.6"/>
<path d="M332.481 77.23L332.412 77.1924L332.45 77.1796" stroke="black" stroke-width="0.2" stroke-linecap="round" stroke-linejoin="round" stroke-dasharray="2.18 3.63"/>
<path d="M349.226 87.2492V97.3444L332.073 107.276L327.512 109.917L324.851 111.455V101.36L328.195 99.4276L340.65 92.2124H340.656L349.226 87.2492Z" fill="#8E9BCF" stroke="black" stroke-width="0.2" stroke-linecap="round" stroke-linejoin="round"/>
<path d="M324.286 75.4044C324.161 74.8708 324.016 74.3316 323.847 73.798C324.016 74.3372 324.161 74.8708 324.286 75.4044Z" fill="#8E9BCF" stroke="black" stroke-width="0.2" stroke-linecap="round" stroke-linejoin="round"/>
<path d="M324.525 76.5652C324.594 76.954 324.65 77.3364 324.701 77.7196C324.65 77.3364 324.594 76.9228 324.525 76.5652Z" fill="#8E9BCF" stroke="black" stroke-width="0.2" stroke-linecap="round" stroke-linejoin="round"/>
<path d="M324.701 77.7196L324.758 78.2964C324.758 78.4532 324.789 78.6164 324.801 78.7732C324.776 78.422 324.745 78.0708 324.701 77.7196Z" fill="#8E9BCF" stroke="black" stroke-width="0.2" stroke-linecap="round" stroke-linejoin="round"/>
<path d="M322.586 70.5418C322.419 70.157 322.237 69.7805 322.041 69.4124C322.041 69.356 321.984 69.3058 321.959 69.2556C321.915 69.174 321.878 69.0925 321.827 69.0172L321.494 68.3898C321.463 68.3396 321.432 68.2894 321.407 68.2392L321.37 68.1765C321.373 68.162 321.373 68.147 321.37 68.1326C320.261 66.1874 318.96 64.3587 317.486 62.6742C317.009 62.1221 316.519 61.595 316.005 61.0806L315.629 60.7042L314.794 59.9826L314.399 59.625C314.029 59.2987 313.646 58.9976 313.263 58.6714C312.498 58.0523 311.707 57.471 310.892 56.9272C310.735 56.8268 310.584 56.7202 310.427 56.626L309.65 56.143C308.398 55.3847 307.094 54.7179 305.747 54.1478C304.334 53.5381 302.84 53.1406 301.311 52.9683C301.079 52.9683 300.847 52.9306 300.627 52.9244C299.996 52.9062 299.365 52.9588 298.746 53.0812C298.254 53.1826 297.777 53.347 297.327 53.5706L321.106 39.7803H321.137C321.986 39.2398 322.957 38.9186 323.961 38.8455C324.538 38.7891 325.12 38.7891 325.698 38.8455C328.082 39.0589 330.862 40.117 334.037 42.0202C336.966 43.775 339.596 45.9862 341.829 48.5702C344.067 51.1117 345.896 53.9862 347.25 57.0903C347.614 57.9373 347.927 58.7843 348.197 59.5999L323.785 73.5844L323.69 73.302L323.578 72.9572C323.37 72.3675 323.132 71.7714 322.875 71.1754C322.787 70.9684 322.686 70.7488 322.586 70.5418Z" fill="#B1C0E9" stroke="black" stroke-width="0.2" stroke-linecap="round" stroke-linejoin="round"/>
<path d="M349.226 66.2567C349.23 67.1463 349.154 68.0344 349 68.9106C348.884 69.6394 348.646 70.3435 348.298 70.9935C347.83 71.8139 347.152 72.4941 346.334 72.9635L344.025 74.2996L335.668 79.1308L327.085 84.094L322.248 86.8916L322.498 86.7164L322.674 86.5716C322.735 86.5276 322.794 86.4788 322.85 86.4276C322.957 86.3332 323.057 86.2332 323.151 86.1324L323.39 85.8692L323.484 85.7436C323.545 85.6724 323.602 85.5964 323.653 85.518L323.716 85.43C323.785 85.3236 323.854 85.2164 323.917 85.1036C324.018 84.9228 324.11 84.7364 324.193 84.5452L324.281 84.3196C324.318 84.2236 324.35 84.1252 324.374 84.0244C324.412 83.918 324.443 83.8116 324.469 83.7108C324.494 83.6108 324.469 83.5788 324.519 83.51L324.575 83.2468C324.606 83.1212 324.626 82.9892 324.65 82.858C324.665 82.7932 324.675 82.7284 324.682 82.6628C324.796 81.8524 324.85 81.0348 324.845 80.2164" fill="#8E9BCF"/>
<path d="M349.226 66.2567C349.23 67.1463 349.154 68.0344 349 68.9106C348.884 69.6394 348.646 70.3435 348.298 70.9935C347.83 71.8139 347.152 72.4941 346.334 72.9635L344.025 74.2996L335.668 79.1308L327.085 84.094L322.248 86.8916L322.498 86.7164L322.674 86.5716C322.735 86.5276 322.794 86.4788 322.85 86.4276C322.957 86.3332 323.057 86.2332 323.151 86.1324L323.39 85.8692L323.484 85.7436C323.545 85.6724 323.602 85.5964 323.653 85.518L323.716 85.43C323.785 85.3236 323.854 85.2164 323.917 85.1036C324.018 84.9228 324.11 84.7364 324.193 84.5452L324.281 84.3196C324.318 84.2236 324.35 84.1252 324.374 84.0244C324.412 83.918 324.443 83.8116 324.469 83.7108C324.494 83.6108 324.469 83.5788 324.519 83.51L324.575 83.2468C324.606 83.1212 324.626 82.9892 324.65 82.858C324.665 82.7932 324.675 82.7284 324.682 82.6628C324.796 81.8524 324.85 81.0348 324.845 80.2164" stroke="black" stroke-width="0.2" stroke-linecap="round" stroke-linejoin="round"/>
<path d="M294.843 92.0868L320.598 77.5748" stroke="black" stroke-width="0.2" stroke-linecap="round" stroke-linejoin="round" stroke-dasharray="0.8 1.6"/>
<path d="M307.442 63.471L314.136 59.669" stroke="black" stroke-width="0.2" stroke-linecap="round" stroke-linejoin="round" stroke-dasharray="0.8 1.6"/>
<path d="M314.55 72.3424L321.344 68.12" stroke="black" stroke-width="0.2" stroke-linecap="round" stroke-linejoin="round" stroke-dasharray="0.8 1.6"/>
<path d="M349.2 65.1587C349.165 64.3683 349.083 63.5806 348.955 62.7998C348.836 62.0448 348.674 61.2971 348.473 60.5599C348.385 60.2463 348.297 59.9325 348.196 59.6063L323.784 73.5908C323.784 73.6604 323.828 73.7292 323.847 73.798C324.017 74.338 324.161 74.8708 324.286 75.4044V75.4732C324.324 75.6492 324.362 75.818 324.393 75.9876C324.424 76.1572 324.474 76.37 324.506 76.5652C324.574 76.954 324.631 77.3364 324.682 77.7196C324.732 78.102 324.757 78.422 324.782 78.7732C324.782 78.918 324.782 79.062 324.782 79.2124C324.785 79.2604 324.785 79.3084 324.782 79.3564C324.782 79.482 324.782 79.6076 324.782 79.7268C324.782 79.846 324.782 80.0468 324.782 80.2036C324.787 81.0244 324.733 81.8444 324.618 82.6572C324.612 82.722 324.602 82.7868 324.587 82.8516C324.587 82.9828 324.543 83.1148 324.518 83.2404C324.494 83.366 324.474 83.4164 324.455 83.5036C324.437 83.5916 324.455 83.6356 324.406 83.7044C324.355 83.774 324.349 83.9116 324.311 84.018C324.286 84.1188 324.255 84.2172 324.217 84.3132C324.217 84.3884 324.161 84.4636 324.13 84.5388C324.05 84.7316 323.958 84.918 323.854 85.0972C323.79 85.2108 323.722 85.3172 323.653 85.4236L323.59 85.5116C323.538 85.5908 323.482 85.666 323.42 85.7372L323.326 85.8628L323.088 86.1268C322.994 86.2268 322.894 86.3212 322.786 86.4212L326.934 84.0372L343.955 74.294L346.264 72.9573C347.082 72.4879 347.761 71.8076 348.228 70.9873C348.577 70.3372 348.814 69.6331 348.93 68.9043C349.085 68.0282 349.16 67.14 349.156 66.2504V66.0811C349.226 65.7799 349.219 65.4662 349.2 65.1587Z" fill="#8E9BCF" stroke="black" stroke-width="0.2" stroke-linecap="round" stroke-linejoin="round"/>
<path d="M31.24 51.0004V28.6004H37.32L43.4 42.5204H44.2L50.28 28.6004H56.2V51.0004H52.52V35.3204L52.84 32.2804H52.52L46.6 45.8804H40.84L34.92 32.2804H34.6L34.92 35.3204V51.0004H31.24ZM61.5735 48.9844C60.1228 47.4058 59.3975 45.3578 59.3975 42.8404C59.3975 40.3231 60.1228 38.2858 61.5735 36.7284C63.0455 35.1498 64.8802 34.3604 67.0775 34.3604C68.4642 34.3604 69.7335 34.7658 70.8855 35.5764C71.3762 35.9178 71.8135 36.3124 72.1975 36.7604H72.3575V34.6804H75.7175V51.0004H72.3575V48.7604H72.1975C71.8775 49.2084 71.4402 49.6351 70.8855 50.0404C69.7335 50.8938 68.4642 51.3204 67.0775 51.3204C64.8802 51.3204 63.0455 50.5418 61.5735 48.9844ZM64.1975 38.8084C63.3442 39.7471 62.9175 41.0911 62.9175 42.8404C62.9175 44.5898 63.3442 45.9338 64.1975 46.8724C65.0508 47.8111 66.2242 48.2804 67.7175 48.2804C69.1255 48.2804 70.2455 47.8111 71.0775 46.8724C71.9308 45.9124 72.3575 44.5684 72.3575 42.8404C72.3575 41.1124 71.9308 39.7791 71.0775 38.8404C70.2455 37.8804 69.1255 37.4004 67.7175 37.4004C66.2242 37.4004 65.0508 37.8698 64.1975 38.8084ZM77.785 37.7204V34.6804H92.025V37.7204H86.585V51.0004H83.225V37.7204H77.785ZM95.5475 48.8884C93.9475 47.2458 93.1475 45.2298 93.1475 42.8404C93.1475 40.4511 93.9475 38.4458 95.5475 36.8244C97.1688 35.1818 99.1422 34.3604 101.468 34.3604C103.793 34.3604 105.756 35.1818 107.356 36.8244C108.977 38.4458 109.788 40.4511 109.788 42.8404V43.9604H96.5075C96.7635 45.3044 97.3502 46.3604 98.2675 47.1284C99.1848 47.8964 100.252 48.2804 101.468 48.2804C102.961 48.2804 104.156 47.9071 105.052 47.1604C105.457 46.8618 105.809 46.4884 106.108 46.0404H109.628C109.18 47.0858 108.614 47.9711 107.932 48.6964C106.182 50.4458 104.028 51.3204 101.468 51.3204C99.1422 51.3204 97.1688 50.5098 95.5475 48.8884ZM96.6675 41.2404H106.268C106.076 40.1738 105.564 39.2671 104.732 38.5204C103.921 37.7738 102.833 37.4004 101.468 37.4004C100.316 37.4004 99.2915 37.7524 98.3955 38.4564C97.4995 39.1391 96.9235 40.0671 96.6675 41.2404ZM112.67 51.0004V34.6804H117.47L121.79 44.4404H122.43L126.75 34.6804H131.55V51.0004H128.19V39.4804L128.222 39.1604H128.062L124.03 48.1204H120.19L116.158 39.1604H115.998L116.03 39.4804V51.0004H112.67ZM136.605 48.9844C135.154 47.4058 134.429 45.3578 134.429 42.8404C134.429 40.3231 135.154 38.2858 136.605 36.7284C138.077 35.1498 139.911 34.3604 142.109 34.3604C143.495 34.3604 144.765 34.7658 145.917 35.5764C146.407 35.9178 146.845 36.3124 147.229 36.7604H147.389V34.6804H150.749V51.0004H147.389V48.7604H147.229C146.909 49.2084 146.471 49.6351 145.917 50.0404C144.765 50.8938 143.495 51.3204 142.109 51.3204C139.911 51.3204 138.077 50.5418 136.605 48.9844ZM139.229 38.8084C138.375 39.7471 137.949 41.0911 137.949 42.8404C137.949 44.5898 138.375 45.9338 139.229 46.8724C140.082 47.8111 141.255 48.2804 142.749 48.2804C144.157 48.2804 145.277 47.8111 146.109 46.8724C146.962 45.9124 147.389 44.5684 147.389 42.8404C147.389 41.1124 146.962 39.7791 146.109 38.8404C145.277 37.8804 144.157 37.4004 142.749 37.4004C141.255 37.4004 140.082 37.8698 139.229 38.8084ZM152.816 37.7204V34.6804H167.056V37.7204H161.616V51.0004H158.256V37.7204H152.816ZM169.139 51.0004V34.6804H172.499V45.5604L172.467 45.8804H172.787L180.179 34.6804H183.859V51.0004H180.499V40.1204L180.531 39.8004H180.211L172.819 51.0004H169.139ZM187.701 51.0004V34.6804H191.061V41.0804H193.461L198.421 34.6804H202.261L196.341 42.2004L202.741 51.0004H198.581L193.621 44.1204H191.061V51.0004H187.701ZM205.261 48.9844C203.81 47.4058 203.085 45.3578 203.085 42.8404C203.085 40.3231 203.81 38.2858 205.261 36.7284C206.733 35.1498 208.568 34.3604 210.765 34.3604C212.152 34.3604 213.421 34.7658 214.573 35.5764C215.064 35.9178 215.501 36.3124 215.885 36.7604H216.045V34.6804H219.405V51.0004H216.045V48.7604H215.885C215.565 49.2084 215.128 49.6351 214.573 50.0404C213.421 50.8938 212.152 51.3204 210.765 51.3204C208.568 51.3204 206.733 50.5418 205.261 48.9844ZM207.885 38.8084C207.032 39.7471 206.605 41.0911 206.605 42.8404C206.605 44.5898 207.032 45.9338 207.885 46.8724C208.738 47.8111 209.912 48.2804 211.405 48.2804C212.813 48.2804 213.933 47.8111 214.765 46.8724C215.618 45.9124 216.045 44.5684 216.045 42.8404C216.045 41.1124 215.618 39.7791 214.765 38.8404C213.933 37.8804 212.813 37.4004 211.405 37.4004C209.912 37.4004 208.738 37.8698 207.885 38.8084ZM30.32 76.0004C30.32 72.1444 30.936 69.3844 32.168 67.7204C33.4 66.0404 35.184 65.2004 37.52 65.2004H40.52V66.2804H37.52C35.776 66.2804 34.384 66.8804 33.344 68.0804C32.304 69.2804 31.688 71.0804 31.496 73.4804H31.52C31.792 73.0484 32.128 72.6724 32.528 72.3524C33.456 71.5844 34.6 71.2004 35.96 71.2004C37.512 71.2004 38.84 71.7444 39.944 72.8324C41.048 73.9204 41.6 75.2164 41.6 76.7204C41.6 78.2244 41.048 79.5204 39.944 80.6084C38.84 81.6964 37.512 82.2404 35.96 82.2404C34.376 82.2404 33.04 81.6564 31.952 80.4884C30.864 79.3204 30.32 77.8244 30.32 76.0004ZM32.792 73.5524C31.944 74.4004 31.52 75.4564 31.52 76.7204C31.52 77.9844 31.944 79.0404 32.792 79.8884C33.64 80.7364 34.696 81.1604 35.96 81.1604C37.224 81.1604 38.28 80.7364 39.128 79.8884C39.976 79.0404 40.4 77.9844 40.4 76.7204C40.4 75.4564 39.976 74.4004 39.128 73.5524C38.28 72.7044 37.224 72.2804 35.96 72.2804C34.696 72.2804 33.64 72.7044 32.792 73.5524ZM45.4503 80.4884C44.3303 79.3044 43.7703 77.8484 43.7703 76.1204C43.7703 74.3924 44.3303 72.9444 45.4503 71.7764C46.5863 70.5924 47.9463 70.0004 49.5303 70.0004C50.6663 70.0004 51.6183 70.2644 52.3863 70.7924C53.1703 71.3044 53.7303 71.9204 54.0663 72.6404H54.0903V70.2404H55.2903V82.0004H54.0903V79.6004H54.0663C53.7303 80.3204 53.1703 80.9444 52.3863 81.4724C51.6183 81.9844 50.6663 82.2404 49.5303 82.2404C47.9463 82.2404 46.5863 81.6564 45.4503 80.4884ZM46.2903 72.4964C45.4103 73.4404 44.9703 74.6484 44.9703 76.1204C44.9703 77.5924 45.4103 78.8004 46.2903 79.7444C47.1703 80.6884 48.2503 81.1604 49.5303 81.1604C50.8103 81.1604 51.8903 80.6884 52.7703 79.7444C53.6503 78.8004 54.0903 77.5924 54.0903 76.1204C54.0903 74.6484 53.6503 73.4404 52.7703 72.4964C51.8903 71.5524 50.8103 71.0804 49.5303 71.0804C48.2503 71.0804 47.1703 71.5524 46.2903 72.4964ZM65.3759 75.7364V75.7604C65.3919 75.7764 65.5359 75.8324 65.8079 75.9284C66.2879 76.1524 66.7359 76.5044 67.1519 76.9844C67.5679 77.4484 67.7759 78.0404 67.7759 78.7604C67.7759 79.7204 67.3519 80.5444 66.5039 81.2324C65.6719 81.9044 64.5359 82.2404 63.0959 82.2404C61.1279 82.2404 59.6959 81.6404 58.7999 80.4404C58.3999 79.9124 58.1119 79.3124 57.9359 78.6404H59.1359C59.2799 79.1364 59.5199 79.5604 59.8559 79.9124C60.5919 80.7444 61.6719 81.1604 63.0959 81.1604C64.2479 81.1604 65.1119 80.9364 65.6879 80.4884C66.2799 80.0404 66.5759 79.4644 66.5759 78.7604C66.5759 78.0564 66.2799 77.4804 65.6879 77.0324C65.1119 76.5844 64.2479 76.3604 63.0959 76.3604H61.5359V75.2804H63.0959C64.1359 75.2804 64.9119 75.0884 65.4239 74.7044C65.9519 74.3044 66.2159 73.7764 66.2159 73.1204C66.2159 72.5284 65.9519 72.0404 65.4239 71.6564C64.8959 71.2724 64.1199 71.0804 63.0959 71.0804C61.9119 71.0804 60.9439 71.4244 60.1919 72.1124C59.9039 72.3684 59.6719 72.7044 59.4959 73.1204H58.2959C58.4559 72.5604 58.7519 72.0404 59.1839 71.5604C60.1279 70.5204 61.4319 70.0004 63.0959 70.0004C64.4559 70.0004 65.5119 70.3044 66.2639 70.9124C67.0319 71.5044 67.4159 72.2404 67.4159 73.1204C67.4159 73.9204 67.0719 74.6004 66.3839 75.1604C66.0959 75.4004 65.7599 75.5924 65.3759 75.7364ZM71.8644 80.4884C70.7444 79.3044 70.1844 77.8484 70.1844 76.1204C70.1844 74.3924 70.7444 72.9444 71.8644 71.7764C73.0004 70.5924 74.3604 70.0004 75.9444 70.0004C77.0804 70.0004 78.0324 70.2644 78.8004 70.7924C79.5844 71.3044 80.1444 71.9204 80.4804 72.6404H80.5044V70.2404H81.7044V82.0004H80.5044V79.6004H80.4804C80.1444 80.3204 79.5844 80.9444 78.8004 81.4724C78.0324 81.9844 77.0804 82.2404 75.9444 82.2404C74.3604 82.2404 73.0004 81.6564 71.8644 80.4884ZM72.7044 72.4964C71.8244 73.4404 71.3844 74.6484 71.3844 76.1204C71.3844 77.5924 71.8244 78.8004 72.7044 79.7444C73.5844 80.6884 74.6644 81.1604 75.9444 81.1604C77.2244 81.1604 78.3044 80.6884 79.1844 79.7444C80.0644 78.8004 80.5044 77.5924 80.5044 76.1204C80.5044 74.6484 80.0644 73.4404 79.1844 72.4964C78.3044 71.5524 77.2244 71.0804 75.9444 71.0804C74.6644 71.0804 73.5844 71.5524 72.7044 72.4964Z" fill="black"/>
</g>
<defs>
<linearGradient id="paint0_linear_274_572" x1="-11" y1="121.321" x2="122.005" y2="120.737" gradientUnits="userSpaceOnUse">
<stop/>
<stop offset="0.915" stop-opacity="0"/>
</linearGradient>
</defs>
</svg>
