<svg width="335" height="162" viewBox="0 0 335 162" fill="none" xmlns="http://www.w3.org/2000/svg">
<mask id="mask0_378_11" style="mask-type:alpha" maskUnits="userSpaceOnUse" x="0" y="0" width="335" height="162">
<path d="M0 60C0 31.7157 0 17.5736 8.7868 8.7868C17.5736 0 31.7157 0 60 0H275C303.284 0 317.426 0 326.213 8.7868C335 17.5736 335 31.7157 335 60V102C335 130.284 335 144.426 326.213 153.213C317.426 162 303.284 162 275 162H60C31.7157 162 17.5736 162 8.7868 153.213C0 144.426 0 130.284 0 102V60Z" fill="#F89745"/>
</mask>
<g mask="url(#mask0_378_11)">
<path d="M0 60C0 31.7157 0 17.5736 8.7868 8.7868C17.5736 0 31.7157 0 60 0H275C303.284 0 317.426 0 326.213 8.7868C335 17.5736 335 31.7157 335 60V102C335 130.284 335 144.426 326.213 153.213C317.426 162 303.284 162 275 162H60C31.7157 162 17.5736 162 8.7868 153.213C0 144.426 0 130.284 0 102V60Z" fill="#B0BADE"/>
<mask id="path-3-inside-1_378_11" fill="white">
<path d="M-2.6 163V65H52C64.4133 65 74.26 68.4067 81.54 75.22C88.9133 81.94 92.6 90.6667 92.6 101.4C92.6 110.36 89.8 117.64 84.2 123.24C81.7733 125.853 78.9733 127.907 75.8 129.4L94 163H59L45 136.4H32.4V163H-2.6ZM32.4 109.8H47.8C50.6 109.8 52.7933 109.053 54.38 107.56C56.06 105.973 56.9 103.92 56.9 101.4C56.9 98.88 56.06 96.8733 54.38 95.38C52.7933 93.7933 50.6 93 47.8 93H32.4V109.8ZM101.038 130.1H136.038C136.598 132.247 137.485 134.02 138.698 135.42C141.405 138.873 145.418 140.6 150.738 140.6C157.738 140.6 161.238 138.733 161.238 135C161.238 133.88 160.818 132.9 159.978 132.06C159.138 131.127 157.738 130.287 155.778 129.54C153.818 128.793 151.998 128.187 150.318 127.72C148.638 127.16 146.212 126.507 143.038 125.76C139.492 124.92 136.552 124.173 134.218 123.52C131.885 122.773 128.992 121.793 125.538 120.58C122.085 119.273 119.238 117.873 116.998 116.38C114.758 114.793 112.518 112.927 110.278 110.78C108.132 108.54 106.498 105.927 105.378 102.94C104.352 99.9533 103.838 96.64 103.838 93C103.838 84.7867 107.805 77.6 115.738 71.44C123.765 65.28 134.732 62.2 148.638 62.2C165.625 62.2 178.412 67.7067 186.998 78.72C190.638 83.48 193.252 88.94 194.838 95.1H159.838C159.558 93.6067 158.952 92.3467 158.018 91.32C156.058 88.7067 153.165 87.4 149.338 87.4C143.272 87.4 140.238 89.0333 140.238 92.3C140.238 93.7933 141.405 95.0067 143.738 95.94C146.072 96.78 149.898 97.76 155.218 98.88C158.392 99.6267 160.632 100.187 161.938 100.56C163.245 100.84 165.532 101.4 168.798 102.24C172.065 103.08 174.492 103.92 176.078 104.76C177.758 105.507 179.905 106.533 182.518 107.84C185.225 109.147 187.278 110.547 188.678 112.04C190.172 113.533 191.665 115.26 193.158 117.22C194.745 119.18 195.865 121.42 196.518 123.94C197.265 126.46 197.638 129.213 197.638 132.2C197.638 141.533 193.485 149.467 185.178 156C176.872 162.533 165.392 165.8 150.738 165.8C131.978 165.8 118.165 159.873 109.298 148.02C105.378 143.073 102.625 137.1 101.038 130.1Z"/>
</mask>
<path d="M-2.6 163H-2.85V163.25H-2.6V163ZM-2.6 65V64.75H-2.85V65H-2.6ZM81.54 75.22L81.3692 75.4025L81.3716 75.4048L81.54 75.22ZM84.2 123.24L84.0231 123.063L84.0168 123.07L84.2 123.24ZM75.8 129.4L75.6936 129.174L75.4542 129.286L75.5802 129.519L75.8 129.4ZM94 163V163.25H94.4197L94.2198 162.881L94 163ZM59 163L58.7788 163.116L58.8491 163.25H59V163ZM45 136.4L45.2212 136.284L45.1509 136.15H45V136.4ZM32.4 136.4V136.15H32.15V136.4H32.4ZM32.4 163V163.25H32.65V163H32.4ZM32.4 109.8H32.15V110.05H32.4V109.8ZM54.38 107.56L54.5513 107.742L54.5517 107.742L54.38 107.56ZM54.38 95.38L54.2032 95.5568L54.2084 95.562L54.2139 95.5669L54.38 95.38ZM32.4 93V92.75H32.15V93H32.4ZM-2.35 163V160.55H-2.85V163H-2.35ZM-2.35 155.65V150.75H-2.85V155.65H-2.35ZM-2.35 145.85V140.95H-2.85V145.85H-2.35ZM-2.35 136.05V131.15H-2.85V136.05H-2.35ZM-2.35 126.25V121.35H-2.85V126.25H-2.35ZM-2.35 116.45V111.55H-2.85V116.45H-2.35ZM-2.35 106.65V101.75H-2.85V106.65H-2.35ZM-2.35 96.85V91.95H-2.85V96.85H-2.35ZM-2.35 87.05V82.15H-2.85V87.05H-2.35ZM-2.35 77.25V72.35H-2.85V77.25H-2.35ZM-2.35 67.45V65H-2.85V67.45H-2.35ZM-2.6 65.25H0.13V64.75H-2.6V65.25ZM5.59 65.25H11.05V64.75H5.59V65.25ZM16.51 65.25H21.97V64.75H16.51V65.25ZM27.43 65.25H32.89V64.75H27.43V65.25ZM38.35 65.25H43.81V64.75H38.35V65.25ZM49.27 65.25H52V64.75H49.27V65.25ZM52 65.25C52.9005 65.25 53.7873 65.268 54.6603 65.304L54.6809 64.8044C53.8008 64.7681 52.9071 64.75 52 64.75V65.25ZM59.9538 65.7649C61.7588 66.0106 63.4968 66.3442 65.1677 66.7655L65.29 66.2807C63.6 65.8546 61.8437 65.5175 60.0213 65.2694L59.9538 65.7649ZM70.2172 68.3855C71.888 69.0468 73.4795 69.8126 74.9917 70.6828L75.2411 70.2494C73.7073 69.3668 72.0939 68.5906 70.4012 67.9206L70.2172 68.3855ZM79.3665 73.6669C80.0545 74.2183 80.722 74.7968 81.3692 75.4025L81.7108 75.0375C81.0544 74.4231 80.3772 73.8362 79.6792 73.2768L79.3665 73.6669ZM81.3716 75.4048C81.9761 75.9557 82.5555 76.5201 83.1099 77.0979L83.4707 76.7518C82.9084 76.1657 82.321 75.5935 81.7084 75.0352L81.3716 75.4048ZM86.2061 80.8246C87.1498 82.1472 87.9847 83.5288 88.7108 84.9696L89.1573 84.7445C88.4196 83.2809 87.5715 81.8774 86.6131 80.5341L86.2061 80.8246ZM90.5561 89.4481C91.0503 90.9591 91.4424 92.5263 91.7325 94.1498L92.2247 94.0619C91.9307 92.4164 91.533 90.8266 91.0314 89.2927L90.5561 89.4481ZM92.2848 98.9704C92.3283 99.7683 92.35 100.578 92.35 101.4H92.85C92.85 100.569 92.828 99.7504 92.7841 98.9432L92.2848 98.9704ZM92.35 101.4C92.35 102.417 92.3137 103.413 92.2411 104.386L92.7397 104.423C92.8133 103.437 92.85 102.429 92.85 101.4H92.35ZM91.2929 110.27C90.787 112.24 90.0996 114.099 89.2311 115.849L89.679 116.072C90.5636 114.289 91.263 112.396 91.7772 110.394L91.2929 110.27ZM86.0176 120.851C85.3984 121.615 84.7336 122.353 84.0232 123.063L84.3768 123.417C85.0993 122.694 85.7758 121.944 86.4062 121.165L86.0176 120.851ZM84.0168 123.07C83.4219 123.71 82.8046 124.317 82.1648 124.889L82.4982 125.262C83.1497 124.679 83.778 124.062 84.3832 123.41L84.0168 123.07ZM77.9863 127.958C77.2453 128.398 76.4811 128.803 75.6936 129.174L75.9064 129.626C76.7084 129.249 77.4868 128.836 78.2416 128.388L77.9863 127.958ZM75.5802 129.519L76.7177 131.619L77.1573 131.381L76.0198 129.281L75.5802 129.519ZM78.9927 135.819L81.2677 140.019L81.7073 139.781L79.4323 135.581L78.9927 135.819ZM83.5427 144.219L85.8177 148.419L86.2573 148.181L83.9823 143.981L83.5427 144.219ZM88.0927 152.619L90.3677 156.819L90.8073 156.581L88.5323 152.381L88.0927 152.619ZM92.6427 161.019L93.7802 163.119L94.2198 162.881L93.0823 160.781L92.6427 161.019ZM94 162.75H91.8125V163.25H94V162.75ZM87.4375 162.75H83.0625V163.25H87.4375V162.75ZM78.6875 162.75H74.3125V163.25H78.6875V162.75ZM69.9375 162.75H65.5625V163.25H69.9375V162.75ZM61.1875 162.75H59V163.25H61.1875V162.75ZM59.2212 162.884L58.0546 160.667L57.6121 160.9L58.7788 163.116L59.2212 162.884ZM55.7212 156.234L53.3879 151.8L52.9454 152.033L55.2788 156.466L55.7212 156.234ZM51.0546 147.367L48.7212 142.934L48.2788 143.166L50.6121 147.6L51.0546 147.367ZM46.3879 138.5L45.2212 136.284L44.7788 136.516L45.9454 138.733L46.3879 138.5ZM45 136.15H41.85V136.65H45V136.15ZM35.55 136.15H32.4V136.65H35.55V136.15ZM32.15 136.4V138.617H32.65V136.4H32.15ZM32.15 143.05V147.483H32.65V143.05H32.15ZM32.15 151.917V156.35H32.65V151.917H32.15ZM32.15 160.783V163H32.65V160.783H32.15ZM32.4 162.75H30.2125V163.25H32.4V162.75ZM25.8375 162.75H21.4625V163.25H25.8375V162.75ZM17.0875 162.75H12.7125V163.25H17.0875V162.75ZM8.3375 162.75H3.9625V163.25H8.3375V162.75ZM-0.4125 162.75H-2.6V163.25H-0.4125V162.75ZM32.65 109.8V107.7H32.15V109.8H32.65ZM32.65 103.5V99.3H32.15V103.5H32.65ZM32.65 95.1V93H32.15V95.1H32.65ZM32.4 93.25H34.325V92.75H32.4V93.25ZM38.175 93.25H42.025V92.75H38.175V93.25ZM45.875 93.25H47.8V92.75H45.875V93.25ZM47.8 93.25C48.4173 93.25 49.0029 93.2892 49.5571 93.3672L49.6268 92.8721C49.0474 92.7906 48.4384 92.75 47.8 92.75V93.25ZM52.8402 94.4867C53.3368 94.788 53.7911 95.1446 54.2032 95.5568L54.5568 95.2032C54.1164 94.7628 53.6305 94.3814 53.0995 94.0592L52.8402 94.4867ZM54.2139 95.5669C54.6307 95.9374 54.9932 96.3396 55.3019 96.7734L55.7093 96.4836C55.3778 96.0177 54.9899 95.5876 54.5461 95.1931L54.2139 95.5669ZM56.5169 99.7651C56.6054 100.281 56.65 100.826 56.65 101.4H57.15C57.15 100.8 57.1034 100.227 57.0097 99.6805L56.5169 99.7651ZM56.65 101.4C56.65 101.982 56.6042 102.536 56.5133 103.064L57.006 103.149C57.1022 102.591 57.15 102.008 57.15 101.4H56.65ZM55.2898 106.122C54.9823 106.569 54.622 106.988 54.2083 107.378L54.5517 107.742C54.9898 107.328 55.3734 106.882 55.7018 106.405L55.2898 106.122ZM54.2087 107.378C53.7914 107.771 53.3307 108.11 52.826 108.396L53.0726 108.831C53.6116 108.525 54.1047 108.162 54.5513 107.742L54.2087 107.378ZM49.5441 109.442C48.9936 109.514 48.4123 109.55 47.8 109.55V110.05C48.432 110.05 49.0351 110.013 49.6091 109.937L49.5441 109.442ZM47.8 109.55H45.875V110.05H47.8V109.55ZM42.025 109.55H38.175V110.05H42.025V109.55ZM34.325 109.55H32.4V110.05H34.325V109.55ZM-2.6 163H-3.1V163.5H-2.6V163ZM-2.6 65V64.5H-3.1V65H-2.6ZM81.54 75.22L81.1983 75.5851L81.2032 75.5895L81.54 75.22ZM84.2 123.24L83.8464 122.886L83.8399 122.893L83.8336 122.9L84.2 123.24ZM75.8 129.4L75.5871 128.948L75.1083 129.173L75.3604 129.638L75.8 129.4ZM94 163V163.5H94.8395L94.4397 162.762L94 163ZM59 163L58.5575 163.233L58.6981 163.5H59V163ZM45 136.4L45.4425 136.167L45.3019 135.9H45V136.4ZM32.4 136.4V135.9H31.9V136.4H32.4ZM32.4 163V163.5H32.9V163H32.4ZM32.4 109.8H31.9V110.3H32.4V109.8ZM54.38 107.56L54.7227 107.924L54.7233 107.924L54.38 107.56ZM54.38 95.38L54.0264 95.7336L54.0368 95.7439L54.0478 95.7537L54.38 95.38ZM32.4 93V92.5H31.9V93H32.4ZM-2.1 163V160.55H-3.1V163H-2.1ZM-2.1 155.65V150.75H-3.1V155.65H-2.1ZM-2.1 145.85V140.95H-3.1V145.85H-2.1ZM-2.1 136.05V131.15H-3.1V136.05H-2.1ZM-2.1 126.25V121.35H-3.1V126.25H-2.1ZM-2.1 116.45V111.55H-3.1V116.45H-2.1ZM-2.1 106.65V101.75H-3.1V106.65H-2.1ZM-2.1 96.85V91.95H-3.1V96.85H-2.1ZM-2.1 87.05V82.15H-3.1V87.05H-2.1ZM-2.1 77.25V72.35H-3.1V77.25H-2.1ZM-2.1 67.45V65H-3.1V67.45H-2.1ZM-2.6 65.5H0.13V64.5H-2.6V65.5ZM5.59 65.5H11.05V64.5H5.59V65.5ZM16.51 65.5H21.97V64.5H16.51V65.5ZM27.43 65.5H32.89V64.5H27.43V65.5ZM38.35 65.5H43.81V64.5H38.35V65.5ZM49.27 65.5H52V64.5H49.27V65.5ZM52 65.5C52.8972 65.5 53.7805 65.5179 54.65 65.5537L54.6912 64.5546C53.8075 64.5182 52.9105 64.5 52 64.5V65.5ZM59.9201 66.0126C61.7164 66.2571 63.4452 66.589 65.1066 67.0079L65.3511 66.0383C63.6516 65.6098 61.8861 65.271 60.055 65.0217L59.9201 66.0126ZM70.1252 68.618C71.7851 69.2749 73.3656 70.0355 74.867 70.8994L75.3658 70.0327C73.8212 69.1439 72.1969 68.3624 70.4932 67.6881L70.1252 68.618ZM79.2102 73.862C79.8931 74.4094 80.5558 74.9837 81.1983 75.5851L81.8817 74.8549C81.2206 74.2362 80.5385 73.6451 79.8356 73.0817L79.2102 73.862ZM81.2032 75.5895C81.8037 76.1368 82.3791 76.6973 82.9295 77.271L83.6511 76.5787C83.0849 75.9885 82.4934 75.4124 81.8768 74.8504L81.2032 75.5895ZM86.0026 80.9698C86.9389 82.2821 87.7672 83.6528 88.4876 85.0821L89.3806 84.632C88.6371 83.1569 87.7824 81.7425 86.8166 80.3889L86.0026 80.9698ZM90.3185 89.5258C90.8089 91.0254 91.1983 92.5813 91.4864 94.1938L92.4708 94.0179C92.1749 92.3614 91.7743 90.7603 91.269 89.215L90.3185 89.5258ZM92.0352 98.984C92.0784 99.7772 92.1 100.583 92.1 101.4H93.1C93.1 100.565 93.0779 99.7414 93.0337 98.9296L92.0352 98.984ZM92.1 101.4C92.1 102.411 92.0639 103.4 91.9918 104.367L92.989 104.442C93.0631 103.449 93.1 102.435 93.1 101.4H92.1ZM91.0508 110.207C90.549 112.161 89.8676 114.004 89.0071 115.738L89.9029 116.183C90.7956 114.384 91.5009 112.475 92.0194 110.456L91.0508 110.207ZM85.8233 120.693C85.2097 121.451 84.5508 122.182 83.8464 122.886L84.5536 123.594C85.2821 122.865 85.9644 122.108 86.6004 121.323L85.8233 120.693ZM83.8336 122.9C83.2439 123.535 82.6321 124.136 81.9981 124.703L82.6649 125.448C83.3223 124.86 83.9561 124.237 84.5664 123.58L83.8336 122.9ZM77.8586 127.743C77.1246 128.179 76.3675 128.58 75.5871 128.948L76.0129 129.852C76.822 129.472 77.6075 129.055 78.3693 128.603L77.8586 127.743ZM75.3604 129.638L76.4979 131.738L77.3771 131.262L76.2396 129.162L75.3604 129.638ZM78.7729 135.938L81.0479 140.138L81.9271 139.662L79.6521 135.462L78.7729 135.938ZM83.3229 144.338L85.5979 148.538L86.4772 148.062L84.2022 143.862L83.3229 144.338ZM87.8729 152.738L90.1479 156.938L91.0272 156.462L88.7522 152.262L87.8729 152.738ZM92.4229 161.138L93.5604 163.238L94.4397 162.762L93.3022 160.662L92.4229 161.138ZM94 162.5H91.8125V163.5H94V162.5ZM87.4375 162.5H83.0625V163.5H87.4375V162.5ZM78.6875 162.5H74.3125V163.5H78.6875V162.5ZM69.9375 162.5H65.5625V163.5H69.9375V162.5ZM61.1875 162.5H59V163.5H61.1875V162.5ZM59.4425 162.767L58.2758 160.55L57.3909 161.016L58.5575 163.233L59.4425 162.767ZM55.9425 156.117L53.6091 151.684L52.7242 152.15L55.0575 156.583L55.9425 156.117ZM51.2758 147.25L48.9425 142.817L48.0575 143.283L50.3909 147.716L51.2758 147.25ZM46.6091 138.384L45.4425 136.167L44.5575 136.633L45.7242 138.85L46.6091 138.384ZM45 135.9H41.85V136.9H45V135.9ZM35.55 135.9H32.4V136.9H35.55V135.9ZM31.9 136.4V138.617H32.9V136.4H31.9ZM31.9 143.05V147.483H32.9V143.05H31.9ZM31.9 151.917V156.35H32.9V151.917H31.9ZM31.9 160.783V163H32.9V160.783H31.9ZM32.4 162.5H30.2125V163.5H32.4V162.5ZM25.8375 162.5H21.4625V163.5H25.8375V162.5ZM17.0875 162.5H12.7125V163.5H17.0875V162.5ZM8.3375 162.5H3.9625V163.5H8.3375V162.5ZM-0.4125 162.5H-2.6V163.5H-0.4125V162.5ZM32.9 109.8V107.7H31.9V109.8H32.9ZM32.9 103.5V99.3H31.9V103.5H32.9ZM32.9 95.1V93H31.9V95.1H32.9ZM32.4 93.5H34.325V92.5H32.4V93.5ZM38.175 93.5H42.025V92.5H38.175V93.5ZM45.875 93.5H47.8V92.5H45.875V93.5ZM47.8 93.5C48.4067 93.5 48.9806 93.5385 49.5222 93.6148L49.6616 92.6245C49.0696 92.5412 48.4489 92.5 47.8 92.5V93.5ZM52.7105 94.7005C53.19 94.9914 53.6284 95.3355 54.0264 95.7336L54.7336 95.0264C54.279 94.5719 53.7774 94.1781 53.2292 93.8455L52.7105 94.7005ZM54.0478 95.7537C54.4512 96.1122 54.8009 96.5005 55.0982 96.9184L55.913 96.3386C55.5701 95.8568 55.1694 95.4127 54.7122 95.0063L54.0478 95.7537ZM56.2705 99.8073C56.3564 100.308 56.4 100.839 56.4 101.4H57.4C57.4 100.787 57.3524 100.2 57.2561 99.6382L56.2705 99.8073ZM56.4 101.4C56.4 101.969 56.3553 102.509 56.2669 103.021L57.2524 103.191C57.3511 102.618 57.4 102.021 57.4 101.4H56.4ZM55.0838 105.98C54.7867 106.412 54.4381 106.817 54.0367 107.196L54.7233 107.924C55.1738 107.498 55.569 107.039 55.9078 106.547L55.0838 105.98ZM54.0373 107.196C53.6348 107.575 53.1902 107.902 52.7027 108.179L53.1959 109.049C53.7521 108.733 54.2613 108.358 54.7227 107.924L54.0373 107.196ZM49.5116 109.194C48.9728 109.264 48.4025 109.3 47.8 109.3V110.3C48.4418 110.3 49.0558 110.262 49.6416 110.185L49.5116 109.194ZM47.8 109.3H45.875V110.3H47.8V109.3ZM42.025 109.3H38.175V110.3H42.025V109.3ZM34.325 109.3H32.4V110.3H34.325V109.3ZM101.038 130.1V129.85H100.725L100.794 130.155L101.038 130.1ZM136.038 130.1L136.28 130.037L136.231 129.85H136.038V130.1ZM138.698 135.42L138.895 135.266L138.887 135.256L138.698 135.42ZM159.978 132.06L159.792 132.227L159.802 132.237L159.978 132.06ZM155.778 129.54L155.867 129.306L155.778 129.54ZM150.318 127.72L150.239 127.957L150.251 127.961L150.318 127.72ZM143.038 125.76L142.981 126.003L142.981 126.003L143.038 125.76ZM134.218 123.52L134.142 123.758L134.151 123.761L134.218 123.52ZM125.538 120.58L125.45 120.814L125.455 120.816L125.538 120.58ZM116.998 116.38L116.854 116.584L116.86 116.588L116.998 116.38ZM110.278 110.78L110.098 110.953L110.105 110.96L110.278 110.78ZM105.378 102.94L105.142 103.021L105.144 103.028L105.378 102.94ZM115.738 71.44L115.586 71.2417L115.585 71.2425L115.738 71.44ZM186.998 78.72L187.197 78.5681L187.195 78.5663L186.998 78.72ZM194.838 95.1V95.35H195.161L195.08 95.0376L194.838 95.1ZM159.838 95.1L159.593 95.1461L159.631 95.35H159.838V95.1ZM158.018 91.32L157.818 91.47L157.825 91.4794L157.833 91.4882L158.018 91.32ZM143.738 95.94L143.645 96.1723L143.654 96.1752L143.738 95.94ZM155.218 98.88L155.276 98.6366L155.27 98.6354L155.218 98.88ZM161.938 100.56L161.87 100.8L161.878 100.803L161.886 100.804L161.938 100.56ZM168.798 102.24L168.736 102.482L168.736 102.482L168.798 102.24ZM176.078 104.76L175.961 104.981L175.969 104.985L175.977 104.988L176.078 104.76ZM182.518 107.84L182.406 108.064L182.41 108.065L182.518 107.84ZM188.678 112.04L188.496 112.211L188.502 112.217L188.678 112.04ZM193.158 117.22L192.959 117.372L192.964 117.377L193.158 117.22ZM196.518 123.94L196.276 124.003L196.279 124.011L196.518 123.94ZM185.178 156L185.333 156.197L185.333 156.197L185.178 156ZM109.298 148.02L109.499 147.87L109.494 147.865L109.298 148.02ZM100.794 130.155C100.981 130.977 101.183 131.785 101.402 132.579L101.884 132.447C101.667 131.66 101.467 130.86 101.282 130.045L100.794 130.155ZM102.963 137.327C103.576 138.911 104.263 140.429 105.024 141.883L105.467 141.651C104.715 140.215 104.036 138.713 103.429 137.147L102.963 137.327ZM107.612 146.165C108.088 146.853 108.585 147.523 109.102 148.175L109.494 147.865C108.984 147.221 108.493 146.559 108.023 145.88L107.612 146.165ZM109.098 148.17C109.572 148.803 110.059 149.419 110.561 150.019L110.945 149.698C110.449 149.105 109.967 148.496 109.498 147.87L109.098 148.17ZM113.784 153.457C114.925 154.542 116.124 155.557 117.381 156.502L117.682 156.102C116.439 155.169 115.255 154.166 114.129 153.094L113.784 153.457ZM121.305 159.112C122.646 159.898 124.042 160.618 125.493 161.27L125.698 160.814C124.263 160.169 122.883 159.458 121.558 158.681L121.305 159.112ZM129.88 162.982C131.341 163.472 132.85 163.903 134.408 164.275L134.524 163.789C132.98 163.42 131.485 162.993 130.039 162.508L129.88 162.982ZM139.025 165.185C140.54 165.423 142.096 165.612 143.693 165.752L143.737 165.254C142.151 165.115 140.606 164.927 139.103 164.691L139.025 165.185ZM148.385 166.018C149.161 166.039 149.945 166.05 150.738 166.05V165.55C149.95 165.55 149.17 165.539 148.399 165.518L148.385 166.018ZM150.738 166.05C151.51 166.05 152.272 166.041 153.026 166.023L153.014 165.523C152.264 165.541 151.506 165.55 150.738 165.55V166.05ZM157.593 165.795C159.15 165.675 160.666 165.512 162.141 165.307L162.072 164.811C160.608 165.015 159.102 165.177 157.554 165.296L157.593 165.795ZM166.651 164.519C168.179 164.195 169.659 163.819 171.089 163.391L170.945 162.912C169.529 163.336 168.063 163.709 166.547 164.03L166.651 164.519ZM175.413 161.879C176.857 161.296 178.243 160.651 179.569 159.944L179.334 159.503C178.024 160.201 176.654 160.838 175.226 161.416L175.413 161.879ZM183.487 157.559C184.118 157.122 184.734 156.668 185.333 156.197L185.024 155.803C184.433 156.268 183.826 156.717 183.202 157.148L183.487 157.559ZM185.333 156.197C185.956 155.707 186.555 155.209 187.132 154.703L186.802 154.327C186.232 154.827 185.64 155.319 185.024 155.803L185.333 156.197ZM190.455 151.416C191.52 150.22 192.471 148.983 193.308 147.708L192.889 147.434C192.067 148.688 191.131 149.905 190.081 151.084L190.455 151.416ZM195.549 143.597C196.181 142.163 196.685 140.685 197.061 139.165L196.576 139.044C196.207 140.537 195.712 141.987 195.091 143.395L195.549 143.597ZM197.8 134.541C197.859 133.77 197.888 132.99 197.888 132.2H197.388C197.388 132.978 197.359 133.745 197.301 134.503L197.8 134.541ZM197.888 132.2C197.888 131.485 197.867 130.783 197.825 130.095L197.325 130.125C197.367 130.804 197.388 131.495 197.388 132.2H197.888ZM197.273 125.916C197.127 125.218 196.955 124.536 196.758 123.869L196.279 124.011C196.472 124.664 196.64 125.333 196.783 126.018L197.273 125.916ZM196.76 123.877C196.598 123.251 196.407 122.641 196.187 122.048L195.718 122.221C195.932 122.798 196.118 123.392 196.276 124.003L196.76 123.877ZM194.478 118.617C194.133 118.081 193.758 117.563 193.353 117.063L192.964 117.377C193.358 117.864 193.722 118.367 194.057 118.888L194.478 118.617ZM193.357 117.068C193.003 116.604 192.65 116.153 192.296 115.714L191.907 116.029C192.257 116.463 192.608 116.911 192.959 117.372L193.357 117.068ZM190.049 113.106C189.651 112.675 189.253 112.261 188.855 111.863L188.502 112.217C188.895 112.61 189.288 113.019 189.681 113.445L190.049 113.106ZM188.861 111.869C188.448 111.429 187.981 110.998 187.46 110.576L187.145 110.964C187.65 111.373 188.1 111.789 188.496 112.211L188.861 111.869ZM184.304 108.482C183.775 108.189 183.216 107.899 182.627 107.615L182.41 108.065C182.991 108.346 183.542 108.631 184.061 108.919L184.304 108.482ZM182.63 107.616C182.076 107.339 181.542 107.074 181.03 106.822L180.809 107.271C181.32 107.523 181.853 107.787 182.406 108.064L182.63 107.616ZM177.807 105.274C177.224 105.002 176.681 104.754 176.18 104.532L175.977 104.988C176.475 105.21 177.015 105.456 177.596 105.727L177.807 105.274ZM176.195 104.539C175.684 104.268 175.09 103.999 174.414 103.731L174.23 104.196C174.893 104.459 175.47 104.721 175.961 104.981L176.195 104.539ZM170.73 102.505C170.141 102.336 169.517 102.167 168.861 101.998L168.736 102.482C169.389 102.65 170.008 102.818 170.592 102.985L170.73 102.505ZM168.861 101.998C168.256 101.843 167.686 101.697 167.149 101.561L167.026 102.045C167.562 102.181 168.132 102.327 168.736 102.482L168.861 101.998ZM163.717 100.711C163.024 100.545 162.448 100.414 161.991 100.316L161.886 100.804C162.338 100.901 162.91 101.032 163.601 101.197L163.717 100.711ZM162.007 100.32C161.556 100.191 160.997 100.04 160.328 99.8683L160.204 100.352C160.869 100.524 161.425 100.673 161.87 100.8L162.007 100.32ZM156.962 99.0368C156.432 98.91 155.87 98.7766 155.276 98.6366L155.161 99.1233C155.755 99.2631 156.316 99.3964 156.845 99.5231L156.962 99.0368ZM155.27 98.6354C154.25 98.4207 153.285 98.2111 152.376 98.0068L152.266 98.4947C153.178 98.6995 154.145 98.9095 155.167 99.1246L155.27 98.6354ZM146.633 96.5849C145.529 96.2752 144.593 95.9818 143.823 95.7048L143.654 96.1752C144.438 96.4576 145.386 96.7546 146.498 97.0664L146.633 96.5849ZM143.831 95.7079C143.391 95.5318 142.995 95.3465 142.644 95.1523L142.402 95.59C142.774 95.7957 143.189 95.9896 143.645 96.1721L143.831 95.7079ZM140.784 93.4696C140.586 93.1025 140.488 92.7138 140.488 92.3H139.988C139.988 92.797 140.107 93.267 140.344 93.7065L140.784 93.4696ZM140.488 92.3C140.488 91.2968 140.788 90.4716 141.379 89.8072L141.005 89.475C140.324 90.2408 139.988 91.1883 139.988 92.3H140.488ZM146.479 87.7964C147.339 87.699 148.292 87.65 149.338 87.65V87.15C148.276 87.15 147.304 87.1997 146.422 87.2996L146.479 87.7964ZM149.338 87.65C150.195 87.65 151.002 87.7165 151.76 87.8488L151.846 87.3563C151.057 87.2185 150.221 87.15 149.338 87.15V87.65ZM156.145 89.7428C156.763 90.2316 157.321 90.807 157.818 91.47L158.218 91.17C157.696 90.4742 157.109 89.8674 156.455 89.3506L156.145 89.7428ZM157.833 91.4882C158.064 91.7425 158.275 92.0115 158.464 92.2952L158.88 92.0175C158.677 91.713 158.451 91.4244 158.203 91.1518L157.833 91.4882ZM159.343 94.1446C159.444 94.4648 159.527 94.7986 159.593 95.1461L160.084 95.0539C160.015 94.6877 159.927 94.3344 159.82 93.9941L159.343 94.1446ZM159.838 95.35H162.026V94.85H159.838V95.35ZM166.401 95.35H170.776V94.85H166.401V95.35ZM175.151 95.35H179.526V94.85H175.151V95.35ZM183.901 95.35H188.276V94.85H183.901V95.35ZM192.651 95.35H194.838V94.85H192.651V95.35ZM195.08 95.0376C194.888 94.2906 194.68 93.5537 194.458 92.827L193.98 92.9734C194.2 93.6928 194.406 94.4225 194.596 95.1624L195.08 95.0376ZM192.907 88.5037C192.315 87.0761 191.658 85.6928 190.936 84.3539L190.496 84.5913C191.21 85.9151 191.86 87.283 192.445 88.6951L192.907 88.5037ZM188.544 80.4301C188.112 79.798 187.663 79.1774 187.197 78.5681L186.8 78.8719C187.26 79.4741 187.704 80.0876 188.132 80.7124L188.544 80.4301ZM187.195 78.5663C186.633 77.8445 186.052 77.1461 185.453 76.4712L185.079 76.803C185.671 77.4699 186.245 78.1601 186.801 78.8737L187.195 78.5663ZM181.576 72.6442C180.199 71.4563 178.745 70.3673 177.217 69.3772L176.945 69.7969C178.454 70.7746 179.889 71.8499 181.25 73.0229L181.576 72.6442ZM172.457 66.7283C170.841 65.9631 169.155 65.29 167.4 64.7088L167.242 65.1835C168.979 65.7585 170.646 66.4241 172.243 67.1802L172.457 66.7283ZM162.146 63.2878C160.415 62.9171 158.626 62.6235 156.78 62.4069L156.721 62.9035C158.553 63.1183 160.327 63.4094 162.041 63.7767L162.146 63.2878ZM151.358 61.9982C150.464 61.9661 149.557 61.95 148.638 61.95V62.45C149.551 62.45 150.452 62.466 151.34 62.4979L151.358 61.9982ZM148.638 61.95C147.654 61.95 146.685 61.9654 145.73 61.9962L145.746 62.4959C146.695 62.4653 147.659 62.45 148.638 62.45V61.95ZM139.928 62.3913C137.938 62.6033 136.02 62.8916 134.174 63.2564L134.271 63.7469C136.101 63.3851 138.005 63.099 139.981 62.8885L139.928 62.3913ZM128.526 64.6808C126.62 65.2752 124.805 65.9669 123.083 66.756L123.291 67.2106C124.993 66.4308 126.788 65.7466 128.675 65.1581L128.526 64.6808ZM117.97 69.5579C117.149 70.0911 116.354 70.6523 115.586 71.2417L115.89 71.6383C116.648 71.0571 117.432 70.5034 118.242 69.9772L117.97 69.5579ZM115.585 71.2425C115.011 71.6885 114.457 72.1399 113.924 72.5968L114.249 72.9765C114.776 72.525 115.323 72.0786 115.892 71.6375L115.585 71.2425ZM110.826 75.5584C109.819 76.6405 108.917 77.7506 108.12 78.8889L108.529 79.1758C109.313 78.0576 110.2 76.9653 111.192 75.899L110.826 75.5584ZM105.943 82.5922C105.314 83.901 104.811 85.2429 104.434 86.6178L104.916 86.7501C105.285 85.4047 105.777 84.091 106.393 82.8087L105.943 82.5922ZM103.68 90.8506C103.619 91.5594 103.588 92.2758 103.588 93H104.088C104.088 92.2899 104.118 91.5878 104.178 90.8936L103.68 90.8506ZM103.588 93C103.588 93.8653 103.617 94.7125 103.675 95.5418L104.174 95.5071C104.117 94.6898 104.088 93.8542 104.088 93H103.588ZM104.431 100.573C104.632 101.412 104.869 102.228 105.142 103.021L105.615 102.859C105.347 102.081 105.115 101.28 104.918 100.457L104.431 100.573ZM105.144 103.028C105.423 103.77 105.732 104.49 106.074 105.187L106.523 104.967C106.189 104.285 105.885 103.58 105.612 102.852L105.144 103.028ZM108.559 109.174C109.04 109.791 109.552 110.384 110.098 110.953L110.459 110.607C109.925 110.05 109.424 109.47 108.954 108.867L108.559 109.174ZM110.105 110.96C110.642 111.475 111.179 111.973 111.715 112.455L112.049 112.083C111.517 111.605 110.984 111.11 110.451 110.599L110.105 110.96ZM115.087 115.275C115.676 115.73 116.265 116.167 116.854 116.584L117.143 116.176C116.56 115.763 115.976 115.331 115.393 114.879L115.087 115.275ZM116.86 116.588C117.496 117.012 118.181 117.429 118.913 117.837L119.156 117.401C118.435 116.998 117.762 116.588 117.137 116.172L116.86 116.588ZM123.227 119.925C123.938 120.226 124.679 120.522 125.45 120.814L125.627 120.346C124.862 120.057 124.127 119.763 123.422 119.464L123.227 119.925ZM125.455 120.816C126.203 121.079 126.925 121.33 127.62 121.571L127.783 121.099C127.089 120.858 126.368 120.607 125.621 120.344L125.455 120.816ZM131.962 123.047C132.736 123.304 133.463 123.541 134.142 123.758L134.294 123.282C133.617 123.065 132.892 122.828 132.119 122.572L131.962 123.047ZM134.151 123.761C134.833 123.952 135.566 124.15 136.35 124.357L136.477 123.873C135.695 123.667 134.965 123.469 134.286 123.279L134.151 123.761ZM140.767 125.472C141.476 125.645 142.214 125.822 142.981 126.003L143.096 125.517C142.331 125.335 141.594 125.159 140.885 124.986L140.767 125.472ZM142.981 126.003C143.622 126.154 144.232 126.301 144.812 126.444L144.932 125.959C144.35 125.815 143.738 125.668 143.096 125.517L142.981 126.003ZM148.447 127.406C149.119 127.599 149.716 127.783 150.239 127.957L150.397 127.483C149.866 127.306 149.262 127.12 148.586 126.925L148.447 127.406ZM150.251 127.961C150.699 128.085 151.157 128.22 151.625 128.364L151.773 127.886C151.3 127.741 150.838 127.605 150.385 127.479L150.251 127.961ZM154.344 129.275C154.785 129.434 155.233 129.6 155.689 129.774L155.867 129.306C155.408 129.132 154.957 128.964 154.513 128.805L154.344 129.275ZM155.689 129.774C156.089 129.926 156.465 130.082 156.816 130.241L157.023 129.786C156.661 129.622 156.276 129.462 155.867 129.306L155.689 129.774ZM158.911 131.438C159.257 131.695 159.551 131.959 159.792 132.227L160.164 131.893C159.897 131.596 159.578 131.31 159.209 131.036L158.911 131.438ZM159.802 132.237C159.993 132.428 160.16 132.626 160.304 132.831L160.713 132.543C160.552 132.313 160.365 132.093 160.155 131.883L159.802 132.237ZM160.914 134.232C160.963 134.479 160.988 134.735 160.988 135H161.488C161.488 134.703 161.46 134.414 161.404 134.134L160.914 134.232ZM160.988 135C160.988 136.16 160.636 137.115 159.941 137.884L160.312 138.22C161.099 137.349 161.488 136.27 161.488 135H160.988ZM154.033 140.183C153.042 140.294 151.943 140.35 150.738 140.35V140.85C151.958 140.85 153.076 140.794 154.089 140.68L154.033 140.183ZM150.738 140.35C149.556 140.35 148.44 140.264 147.392 140.092L147.311 140.585C148.389 140.762 149.531 140.85 150.738 140.85V140.35ZM141.267 137.595C140.388 136.938 139.597 136.161 138.895 135.266L138.502 135.574C139.23 136.503 140.052 137.311 140.967 137.996L141.267 137.595ZM138.887 135.256C138.572 134.892 138.278 134.502 138.008 134.085L137.588 134.358C137.871 134.793 138.178 135.202 138.509 135.584L138.887 135.256ZM136.716 131.448C136.553 130.998 136.408 130.528 136.28 130.037L135.796 130.163C135.928 130.668 136.078 131.153 136.245 131.618L136.716 131.448ZM136.038 129.85H133.851V130.35H136.038V129.85ZM129.476 129.85H125.101V130.35H129.476V129.85ZM120.726 129.85H116.351V130.35H120.726V129.85ZM111.976 129.85H107.601V130.35H111.976V129.85ZM103.226 129.85H101.038V130.35H103.226V129.85ZM101.038 130.1V129.6H100.412L100.551 130.211L101.038 130.1ZM136.038 130.1L136.522 129.974L136.425 129.6H136.038V130.1ZM138.698 135.42L139.092 135.112L139.084 135.102L139.076 135.093L138.698 135.42ZM159.978 132.06L159.607 132.394L159.615 132.404L159.625 132.414L159.978 132.06ZM155.778 129.54L155.956 129.073L155.778 129.54ZM150.318 127.72L150.16 128.194L150.172 128.198L150.184 128.202L150.318 127.72ZM143.038 125.76L142.923 126.247L142.924 126.247L143.038 125.76ZM134.218 123.52L134.066 123.996L134.075 123.999L134.083 124.001L134.218 123.52ZM125.538 120.58L125.361 121.048L125.373 121.052L125.538 120.58ZM116.998 116.38L116.709 116.788L116.715 116.792L116.721 116.796L116.998 116.38ZM110.278 110.78L109.917 111.126L109.925 111.134L109.932 111.141L110.278 110.78ZM105.378 102.94L104.905 103.103L104.91 103.116L105.378 102.94ZM115.738 71.44L115.434 71.0433L115.432 71.0451L115.738 71.44ZM186.998 78.72L187.395 78.4163L187.393 78.4126L186.998 78.72ZM194.838 95.1V95.6H195.483L195.322 94.9753L194.838 95.1ZM159.838 95.1L159.347 95.1921L159.423 95.6H159.838V95.1ZM158.018 91.32L157.618 91.62L157.632 91.6389L157.648 91.6563L158.018 91.32ZM143.738 95.94L143.553 96.4042L143.561 96.4075L143.569 96.4104L143.738 95.94ZM155.218 98.88L155.333 98.3932L155.321 98.3907L155.218 98.88ZM161.938 100.56L161.801 101.041L161.817 101.045L161.834 101.049L161.938 100.56ZM168.798 102.24L168.674 102.724L168.674 102.724L168.798 102.24ZM176.078 104.76L175.844 105.202L175.86 105.21L175.875 105.217L176.078 104.76ZM182.518 107.84L182.295 108.287L182.301 108.29L182.518 107.84ZM188.678 112.04L188.314 112.382L188.319 112.388L188.325 112.394L188.678 112.04ZM193.158 117.22L192.761 117.523L192.765 117.529L192.77 117.535L193.158 117.22ZM196.518 123.94L196.034 124.065L196.036 124.074L196.039 124.082L196.518 123.94ZM185.178 156L185.487 156.393L185.487 156.393L185.178 156ZM109.298 148.02L109.699 147.72L109.69 147.709L109.298 148.02ZM100.551 130.211C100.738 131.036 100.941 131.848 101.161 132.646L102.125 132.381C101.909 131.598 101.71 130.801 101.526 129.989L100.551 130.211ZM102.73 137.417C103.346 139.009 104.037 140.537 104.803 141.999L105.689 141.535C104.941 140.107 104.265 138.615 103.663 137.057L102.73 137.417ZM107.406 146.307C107.886 146.999 108.386 147.674 108.906 148.331L109.69 147.709C109.183 147.07 108.696 146.412 108.228 145.737L107.406 146.307ZM108.898 148.319C109.374 148.956 109.865 149.576 110.369 150.179L111.136 149.537C110.643 148.948 110.164 148.343 109.699 147.721L108.898 148.319ZM113.612 153.638C114.759 154.73 115.966 155.751 117.231 156.702L117.832 155.902C116.597 154.975 115.42 153.978 114.301 152.913L113.612 153.638ZM121.179 159.328C122.527 160.119 123.931 160.842 125.39 161.498L125.8 160.586C124.373 159.944 123.001 159.237 121.685 158.465L121.179 159.328ZM129.801 163.219C131.269 163.711 132.785 164.144 134.35 164.518L134.582 163.546C133.045 163.178 131.558 162.753 130.119 162.271L129.801 163.219ZM138.986 165.432C140.507 165.671 142.069 165.861 143.671 166.001L143.758 165.005C142.178 164.867 140.639 164.68 139.142 164.444L138.986 165.432ZM148.378 166.268C149.156 166.289 149.943 166.3 150.738 166.3V165.3C149.952 165.3 149.174 165.29 148.405 165.269L148.378 166.268ZM150.738 166.3C151.512 166.3 152.276 166.291 153.032 166.273L153.008 165.273C152.26 165.291 151.504 165.3 150.738 165.3V166.3ZM157.612 166.044C159.174 165.924 160.695 165.76 162.176 165.554L162.038 164.564C160.579 164.767 159.077 164.928 157.535 165.047L157.612 166.044ZM166.702 164.764C168.238 164.438 169.724 164.061 171.16 163.631L170.874 162.673C169.464 163.094 168.005 163.465 166.495 163.786L166.702 164.764ZM175.507 162.111C176.959 161.524 178.352 160.875 179.686 160.165L179.216 159.282C177.914 159.976 176.553 160.61 175.132 161.184L175.507 162.111ZM183.629 157.765C184.265 157.325 184.884 156.867 185.487 156.393L184.869 155.607C184.282 156.069 183.679 156.514 183.06 156.943L183.629 157.765ZM185.487 156.393C186.113 155.901 186.717 155.4 187.297 154.891L186.637 154.139C186.071 154.636 185.482 155.125 184.869 155.607L185.487 156.393ZM190.642 151.583C191.714 150.377 192.673 149.131 193.517 147.845L192.68 147.297C191.865 148.54 190.936 149.747 189.895 150.918L190.642 151.583ZM195.777 143.698C196.416 142.251 196.925 140.759 197.304 139.225L196.333 138.984C195.968 140.463 195.477 141.9 194.862 143.295L195.777 143.698ZM198.049 134.56C198.109 133.783 198.138 132.996 198.138 132.2H197.138C197.138 132.971 197.109 133.732 197.052 134.484L198.049 134.56ZM198.138 132.2C198.138 131.48 198.117 130.773 198.074 130.079L197.076 130.141C197.117 130.814 197.138 131.5 197.138 132.2H198.138ZM197.517 125.865C197.37 125.16 197.197 124.471 196.998 123.798L196.039 124.082C196.23 124.728 196.397 125.391 196.539 126.069L197.517 125.865ZM197.002 123.815C196.838 123.18 196.644 122.562 196.422 121.961L195.484 122.308C195.694 122.877 195.878 123.463 196.034 124.065L197.002 123.815ZM194.688 118.482C194.338 117.938 193.957 117.413 193.547 116.905L192.77 117.535C193.158 118.014 193.517 118.51 193.847 119.023L194.688 118.482ZM193.556 116.917C193.201 116.451 192.846 115.998 192.49 115.557L191.712 116.186C192.061 116.618 192.411 117.064 192.761 117.523L193.556 116.917ZM190.232 112.936C189.832 112.504 189.432 112.087 189.032 111.686L188.325 112.394C188.715 112.784 189.106 113.191 189.498 113.615L190.232 112.936ZM189.043 111.698C188.622 111.248 188.146 110.81 187.617 110.381L186.988 111.159C187.485 111.561 187.927 111.969 188.314 112.382L189.043 111.698ZM184.426 108.264C183.892 107.967 183.329 107.676 182.736 107.39L182.301 108.29C182.878 108.569 183.425 108.852 183.94 109.138L184.426 108.264ZM182.742 107.393C182.187 107.115 181.653 106.85 181.14 106.598L180.699 107.495C181.21 107.747 181.742 108.011 182.295 108.287L182.742 107.393ZM177.913 105.048C177.328 104.775 176.784 104.527 176.281 104.303L175.875 105.217C176.372 105.438 176.91 105.683 177.49 105.954L177.913 105.048ZM176.312 104.318C175.791 104.042 175.188 103.769 174.506 103.499L174.137 104.428C174.794 104.689 175.362 104.947 175.844 105.202L176.312 104.318ZM170.799 102.264C170.207 102.095 169.582 101.925 168.923 101.756L168.674 102.724C169.325 102.892 169.941 103.059 170.524 103.226L170.799 102.264ZM168.923 101.756C168.318 101.6 167.748 101.455 167.21 101.318L166.964 102.288C167.501 102.424 168.07 102.569 168.674 102.724L168.923 101.756ZM163.775 100.468C163.081 100.302 162.503 100.17 162.043 100.071L161.834 101.049C162.283 101.145 162.853 101.276 163.543 101.441L163.775 100.468ZM162.076 100.079C161.622 99.9497 161.06 99.7986 160.391 99.6262L160.141 100.595C160.806 100.766 161.359 100.914 161.801 101.041L162.076 100.079ZM157.02 98.7937C156.49 98.6668 155.928 98.5333 155.333 98.3933L155.104 99.3667C155.698 99.5064 156.259 99.6396 156.787 99.7662L157.02 98.7937ZM155.321 98.3907C154.302 98.1762 153.339 97.9669 152.43 97.7629L152.211 98.7386C153.124 98.9437 154.093 99.154 155.115 99.3693L155.321 98.3907ZM146.701 96.3442C145.6 96.0356 144.67 95.7439 143.908 95.4696L143.569 96.4104C144.361 96.6954 145.315 96.9942 146.431 97.3071L146.701 96.3442ZM143.924 95.4758C143.492 95.3029 143.106 95.1219 142.764 94.9334L142.281 95.8089C142.664 96.0203 143.088 96.2185 143.553 96.4042L143.924 95.4758ZM141.004 93.3512C140.826 93.0202 140.738 92.6722 140.738 92.3H139.738C139.738 92.8386 139.868 93.3493 140.123 93.825L141.004 93.3512ZM140.738 92.3C140.738 91.3511 141.02 90.587 141.566 89.9733L140.818 89.3089C140.092 90.1254 139.738 91.134 139.738 92.3H140.738ZM146.507 88.0448C147.356 87.9486 148.299 87.9 149.338 87.9V86.9C148.269 86.9 147.287 86.95 146.394 87.0511L146.507 88.0448ZM149.338 87.9C150.182 87.9 150.975 87.9655 151.717 88.0951L151.889 87.11C151.084 86.9695 150.234 86.9 149.338 86.9V87.9ZM155.99 89.9389C156.591 90.4137 157.133 90.9734 157.618 91.62L158.418 91.02C157.884 90.3078 157.282 89.6853 156.611 89.1545L155.99 89.9389ZM157.648 91.6563C157.871 91.9015 158.074 92.1607 158.256 92.4341L159.088 91.8787C158.878 91.5637 158.644 91.2654 158.388 90.9837L157.648 91.6563ZM159.105 94.2199C159.203 94.53 159.283 94.8541 159.347 95.1921L160.33 95.0079C160.259 94.6322 160.169 94.2691 160.058 93.9189L159.105 94.2199ZM159.838 95.6H162.026V94.6H159.838V95.6ZM166.401 95.6H170.776V94.6H166.401V95.6ZM175.151 95.6H179.526V94.6H175.151V95.6ZM183.901 95.6H188.276V94.6H183.901V95.6ZM192.651 95.6H194.838V94.6H192.651V95.6ZM195.322 94.9753C195.129 94.2246 194.921 93.4841 194.697 92.7538L193.741 93.0466C193.96 93.7623 194.164 94.4884 194.354 95.2247L195.322 94.9753ZM193.138 88.4079C192.543 86.9726 191.882 85.5817 191.156 84.2351L190.276 84.71C190.986 86.0262 191.632 87.3864 192.214 88.7909L193.138 88.4079ZM188.751 80.2889C188.316 79.6532 187.864 79.029 187.395 78.4163L186.601 79.0237C187.059 79.6225 187.5 80.2324 187.925 80.8536L188.751 80.2889ZM187.393 78.4126C186.827 77.6867 186.243 76.9842 185.64 76.3053L184.892 76.9689C185.48 77.6318 186.051 78.318 186.604 79.0274L187.393 78.4126ZM181.739 72.4549C180.353 71.2595 178.891 70.1637 177.353 69.1674L176.809 70.0067C178.309 70.9782 179.735 72.0467 181.086 73.2122L181.739 72.4549ZM172.564 66.5023C170.938 65.7327 169.243 65.0558 167.478 64.4715L167.164 65.4208C168.891 65.9927 170.548 66.6546 172.136 67.4062L172.564 66.5023ZM162.198 63.0433C160.46 62.6709 158.663 62.376 156.809 62.1586L156.692 63.1518C158.517 63.3658 160.282 63.6556 161.989 64.0211L162.198 63.0433ZM151.367 61.7483C150.47 61.7161 149.56 61.7 148.638 61.7V62.7C149.548 62.7 150.446 62.7159 151.331 62.7477L151.367 61.7483ZM148.638 61.7C147.652 61.7 146.679 61.7154 145.722 61.7463L145.754 62.7458C146.7 62.7153 147.662 62.7 148.638 62.7V61.7ZM139.902 62.1427C137.905 62.3554 135.979 62.6448 134.125 63.0111L134.319 63.9921C136.142 63.6319 138.038 63.3468 140.008 63.1371L139.902 62.1427ZM128.452 64.4421C126.536 65.0395 124.712 65.735 122.979 66.5287L123.395 67.4378C125.087 66.6627 126.872 65.9822 128.75 65.3968L128.452 64.4421ZM117.834 69.3482C117.007 69.8849 116.207 70.45 115.434 71.0433L116.043 71.8366C116.795 71.2594 117.573 70.7095 118.378 70.1869L117.834 69.3482ZM115.432 71.0451C114.854 71.4934 114.297 71.9473 113.761 72.4069L114.412 73.1663C114.935 72.7175 115.48 72.2737 116.045 71.8349L115.432 71.0451ZM110.643 75.3881C109.629 76.4781 108.719 77.5972 107.915 78.7455L108.734 79.3193C109.51 78.2111 110.391 77.1277 111.375 76.0693L110.643 75.3881ZM105.717 82.4839C105.082 83.806 104.574 85.162 104.193 86.5517L105.157 86.8162C105.522 85.4856 106.009 84.186 106.619 82.917L105.717 82.4839ZM103.431 90.8292C103.369 91.5452 103.338 92.2688 103.338 93H104.338C104.338 92.2969 104.368 91.602 104.427 90.9151L103.431 90.8292ZM103.338 93C103.338 93.8708 103.367 94.7239 103.425 95.5592L104.423 95.4898C104.367 94.6785 104.338 93.8486 104.338 93H103.338ZM104.188 100.631C104.391 101.477 104.63 102.301 104.905 103.103L105.851 102.777C105.586 102.007 105.356 101.214 105.161 100.398L104.188 100.631ZM104.91 103.116C105.191 103.865 105.504 104.592 105.849 105.297L106.747 104.857C106.417 104.182 106.117 103.485 105.846 102.764L104.91 103.116ZM108.362 109.327C108.847 109.951 109.366 110.551 109.917 111.126L110.639 110.434C110.111 109.883 109.616 109.31 109.151 108.713L108.362 109.327ZM109.932 111.141C110.471 111.657 111.009 112.157 111.548 112.641L112.217 111.897C111.686 111.421 111.155 110.928 110.624 110.419L109.932 111.141ZM114.934 115.472C115.525 115.93 116.117 116.369 116.709 116.788L117.287 115.972C116.707 115.561 116.127 115.131 115.546 114.682L114.934 115.472ZM116.721 116.796C117.364 117.224 118.054 117.644 118.791 118.056L119.278 117.182C118.562 116.783 117.894 116.376 117.276 115.964L116.721 116.796ZM123.13 120.155C123.844 120.457 124.588 120.755 125.361 121.048L125.715 120.112C124.953 119.824 124.221 119.531 123.52 119.234L123.13 120.155ZM125.373 121.052C126.121 121.315 126.842 121.566 127.538 121.807L127.865 120.862C127.171 120.622 126.451 120.371 125.704 120.108L125.373 121.052ZM131.883 123.284C132.658 123.541 133.385 123.778 134.066 123.996L134.371 123.044C133.694 122.827 132.97 122.591 132.198 122.335L131.883 123.284ZM134.083 124.001C134.767 124.193 135.501 124.392 136.286 124.599L136.541 123.632C135.76 123.426 135.031 123.228 134.353 123.039L134.083 124.001ZM140.708 125.715C141.418 125.888 142.156 126.065 142.923 126.247L143.154 125.273C142.389 125.092 141.652 124.916 140.944 124.743L140.708 125.715ZM142.924 126.247C143.564 126.397 144.173 126.544 144.752 126.687L144.992 125.716C144.409 125.572 143.796 125.425 143.153 125.273L142.924 126.247ZM148.378 127.646C149.047 127.838 149.641 128.021 150.16 128.194L150.476 127.246C149.941 127.067 149.334 126.88 148.655 126.685L148.378 127.646ZM150.184 128.202C150.63 128.325 151.086 128.459 151.552 128.603L151.847 127.648C151.372 127.501 150.907 127.365 150.452 127.238L150.184 128.202ZM154.259 129.51C154.699 129.668 155.146 129.834 155.6 130.007L155.956 129.073C155.496 128.897 155.043 128.73 154.598 128.569L154.259 129.51ZM155.6 130.007C155.996 130.158 156.366 130.312 156.712 130.469L157.126 129.558C156.759 129.392 156.369 129.23 155.956 129.073L155.6 130.007ZM158.762 131.638C159.097 131.888 159.378 132.14 159.607 132.394L160.35 131.726C160.07 131.414 159.738 131.118 159.358 130.836L158.762 131.638ZM159.625 132.414C159.807 132.596 159.965 132.783 160.1 132.975L160.918 132.399C160.747 132.157 160.552 131.926 160.332 131.706L159.625 132.414ZM160.669 134.282C160.715 134.511 160.738 134.75 160.738 135H161.738C161.738 134.687 161.709 134.382 161.649 134.085L160.669 134.282ZM160.738 135C160.738 136.104 160.405 136.998 159.755 137.716L160.497 138.387C161.33 137.466 161.738 136.326 161.738 135H160.738ZM154.006 139.935C153.025 140.045 151.936 140.1 150.738 140.1V141.1C151.966 141.1 153.092 141.043 154.117 140.929L154.006 139.935ZM150.738 140.1C149.568 140.1 148.466 140.015 147.433 139.845L147.271 140.832C148.363 141.011 149.519 141.1 150.738 141.1V140.1ZM141.417 137.395C140.556 136.751 139.781 135.99 139.092 135.112L138.305 135.728C139.046 136.674 139.884 137.497 140.818 138.196L141.417 137.395ZM139.076 135.093C138.768 134.737 138.482 134.356 138.217 133.949L137.379 134.494C137.668 134.939 137.982 135.357 138.32 135.747L139.076 135.093ZM136.951 131.364C136.791 130.921 136.648 130.458 136.522 129.974L135.554 130.226C135.688 130.738 135.84 131.23 136.01 131.703L136.951 131.364ZM136.038 129.6H133.851V130.6H136.038V129.6ZM129.476 129.6H125.101V130.6H129.476V129.6ZM120.726 129.6H116.351V130.6H120.726V129.6ZM111.976 129.6H107.601V130.6H111.976V129.6ZM103.226 129.6H101.038V130.6H103.226V129.6Z" fill="url(#paint0_linear_378_11)" fill-opacity="0.6" mask="url(#path-3-inside-1_378_11)"/>
<path d="M285.269 139.568L263.385 127.146L250.486 100.004L248.898 96.66L233.502 109.942L216.6 100.28L240.447 79.4504L218.407 33.8698L240.146 46.1794L251.013 70.0958L263.084 59.5305L272.771 65.0642L279.992 69.1924L271.861 76.364L259.464 87.2992L262.319 93.084L285.269 139.568Z" fill="#717FAA" stroke="black" stroke-width="0.2" stroke-linecap="round" stroke-linejoin="round"/>
<path d="M327.982 41.1163L307.459 59.2294L275.048 78.1832L259.463 87.2992L271.861 76.364L279.992 69.1924L327.982 41.1163Z" fill="#8E9BCF" stroke="black" stroke-width="0.2" stroke-linecap="round" stroke-linejoin="round"/>
<path d="M327.982 41.1163L279.992 69.1925L272.771 65.0642L263.084 59.5306L285.921 46.1732L297.747 39.253L311.079 31.4544L327.982 41.1163Z" fill="#B1C0E9" stroke="black" stroke-width="0.2" stroke-linecap="round" stroke-linejoin="round"/>
<path d="M288.136 18.1033L275.833 25.2996L240.146 46.1794L218.407 33.8698L266.403 5.79999L288.136 18.1033Z" fill="#B1C0E9" stroke="black" stroke-width="0.2" stroke-linecap="round" stroke-linejoin="round"/>
<path d="M250.486 100.004L233.502 109.942L248.899 96.66L250.486 100.004Z" fill="#8E9BCF" stroke="black" stroke-width="0.2" stroke-linecap="round" stroke-linejoin="round"/>
<path d="M285.922 46.1731L277.64 29.0326L276.736 27.1629L275.839 25.2996L275.827 25.287L266.409 5.79999L266.529 5.86903L267.614 6.47759" stroke="black" stroke-width="0.2" stroke-linecap="round" stroke-linejoin="round" stroke-dasharray="0.8 1.6"/>
<path d="M271.861 76.3576L264.596 72.2102L272.771 65.0642" stroke="black" stroke-width="0.2" stroke-linecap="round" stroke-linejoin="round" stroke-dasharray="0.8 1.6"/>
<path d="M325.29 39.5792L327.97 41.1163L327.919 41.1665L319.845 48.2875L318.715 49.2914L309.857 57.1025L307.447 59.2294L308.922 62.2095L313.539 71.5891L320.441 85.5296L326.219 97.2376L328.102 101.002L329.902 104.647L329.939 104.722L333.283 111.504L325.686 107.188L325.598 107.138L323.088 105.714L321.507 104.816L311.394 99.0816L304.611 84.796L302.616 80.6048L301.618 78.5536L298.482 71.9342L296.888 68.5902L281.492 81.872L275.048 78.1768" stroke="black" stroke-width="0.2" stroke-linecap="round" stroke-linejoin="round" stroke-dasharray="2.06 3.42"/>
<path d="M298.049 39.9181L299.002 42.0198L311.004 31.5234" stroke="black" stroke-width="0.2" stroke-linecap="round" stroke-linejoin="round" stroke-dasharray="0.8 1.6"/>
<path d="M297.747 39.2529L285.921 46.1731L263.084 59.5305L251.013 70.0959L241.828 49.8748L240.962 47.9801L240.146 46.1794L275.839 25.2996L282.815 21.2214L288.136 18.1096L288.142 18.1158L289.008 20.0105V20.0169L289.867 21.9116L297.747 39.2529Z" fill="#8E9BCF" stroke="black" stroke-width="0.2" stroke-linecap="round" stroke-linejoin="round"/>
<path d="M333.264 111.498L285.268 139.568L262.318 93.084L259.463 87.2992L275.048 78.1832L298.682 64.3551L307.459 59.2293L308.927 62.2094L313.558 71.589L320.446 85.5296V85.536L326.225 97.2432L328.082 100.995L329.882 104.641L329.92 104.716L333.264 111.498Z" fill="#8E9BCF" stroke="black" stroke-width="0.2" stroke-linecap="round" stroke-linejoin="round"/>
<path d="M320.598 85.4416L320.033 85.768" stroke="black" stroke-width="0.2" stroke-linecap="round" stroke-linejoin="round"/>
<path d="M320.026 85.7744L319.926 85.8312" stroke="black" stroke-width="0.2" stroke-linecap="round" stroke-linejoin="round"/>
<path d="M218.702 99.176L219.241 98.8624" stroke="black" stroke-width="0.2" stroke-linecap="round" stroke-linejoin="round"/>
<path d="M221.374 97.6072L261.929 73.7472" stroke="black" stroke-width="0.2" stroke-linecap="round" stroke-linejoin="round" stroke-dasharray="1.58 3.16"/>
<path d="M262.996 73.12L263.542 72.8063" stroke="black" stroke-width="0.2" stroke-linecap="round" stroke-linejoin="round"/>
<path d="M263.987 126.844L264.533 126.53" stroke="black" stroke-width="0.2" stroke-linecap="round" stroke-linejoin="round"/>
<path d="M266.98 125.1L273.091 121.536" stroke="black" stroke-width="0.2" stroke-linecap="round" stroke-linejoin="round" stroke-dasharray="1.81 3.61"/>
<path d="M274.314 120.821L274.86 120.507" stroke="black" stroke-width="0.2" stroke-linecap="round" stroke-linejoin="round"/>
<path d="M333.196 111.586L320.968 118.701L285.156 139.549L284.302 137.648L283.443 135.754L331.382 107.677L332.336 109.685V109.691L333.196 111.586Z" fill="black"/>
<path d="M290.03 22.0496L277.802 29.1706L241.99 50.0128L241.131 48.1181L240.271 46.217L288.21 18.1409L289.17 20.1549L290.03 22.0496Z" fill="black"/>
<path d="M316.676 88.9176L308.012 91.3024L324.832 101.39V111.429L293.701 92.808V84.4512L303.143 81.7592L312.36 79.1304C314.919 78.252 315.34 76.1128 314.593 73.7096C314.475 73.332 314.337 72.9617 314.179 72.5993C313.826 71.8082 313.406 71.0485 312.924 70.3281C311.142 67.6365 308.489 65.1834 306.28 64.2987C304.322 63.5208 302.717 63.9662 302.359 66.5699L298.676 64.374L293.72 61.4127C293.72 61.3311 293.72 61.2496 293.72 61.168C293.753 58.261 294.422 56.1195 295.727 54.7434C296.014 54.4365 296.334 54.1629 296.681 53.9278C296.89 53.7843 297.11 53.6584 297.34 53.5514C297.79 53.3278 298.266 53.1634 298.758 53.062C299.377 52.9396 300.009 52.887 300.64 52.9052C300.859 52.9052 301.091 52.9052 301.324 52.9491C302.852 53.1214 304.347 53.5188 305.759 54.1286C307.106 54.6987 308.41 55.3655 309.662 56.1238L310.44 56.6068L310.91 56.908C311.747 57.4475 312.538 58.029 313.282 58.6522C313.665 58.9596 314.047 59.2795 314.418 59.6121L314.813 59.9634L315.59 60.6974L315.967 61.0739C316.482 61.5884 316.971 62.1154 317.448 62.6675C318.922 64.3521 320.223 66.1807 321.331 68.1259C321.334 68.1403 321.334 68.1554 321.331 68.1698L321.457 68.3831L321.79 69.0105C321.839 69.0858 321.878 69.1674 321.921 69.249C321.921 69.2991 321.978 69.3493 322.002 69.4058C322.191 69.7759 322.379 70.1524 322.549 70.5351C322.649 70.7422 322.75 70.9618 322.837 71.1625C323.094 71.7899 323.333 72.3546 323.54 72.9443L323.653 73.2896L323.747 73.572C323.747 73.6408 323.791 73.7096 323.81 73.7784C323.979 74.3184 324.123 74.852 324.249 75.3848V75.4536C324.286 75.6296 324.324 75.7992 324.355 75.968L324.468 76.5456C324.538 76.9344 324.594 77.3176 324.644 77.7L324.701 78.2776C324.701 78.4344 324.732 78.5968 324.745 78.7544C324.757 78.9112 324.745 79.0488 324.745 79.1936C324.748 79.2416 324.748 79.2896 324.745 79.3376C324.745 79.4632 324.745 79.5888 324.745 79.708C324.745 79.8272 324.745 80.028 324.745 80.1848C324.75 81.0032 324.695 81.8208 324.582 82.6312C324.574 82.6968 324.564 82.7616 324.55 82.8256C324.55 82.9576 324.506 83.0896 324.474 83.2152L324.418 83.4784C324.418 83.5472 324.418 83.6104 324.368 83.6792C324.342 83.7856 324.311 83.8904 324.274 83.9928C324.274 84.0936 324.211 84.1936 324.18 84.288L324.092 84.5136C324.01 84.7048 323.918 84.8912 323.816 85.072C323.753 85.1848 323.684 85.2912 323.615 85.3984L323.553 85.4864C323.501 85.5648 323.445 85.6408 323.383 85.712L323.289 85.8376L323.05 86.1008C322.956 86.2016 322.856 86.3016 322.75 86.396L322.749 86.3952C322.574 86.5392 322.574 86.5392 322.398 86.684L322.147 86.86C321.946 86.988 321.736 87.1032 321.52 87.2048L321.256 87.3304L321.074 87.4056C319.64 87.9984 318.171 88.5032 316.676 88.9176Z" fill="#717FAA" stroke="black" stroke-width="0.2" stroke-linecap="round" stroke-linejoin="round"/>
<path d="M312.378 79.1368L293.726 84.4504L314.198 72.5991C315.422 75.4472 315.327 78.1328 312.378 79.1368Z" fill="#8E9BCF" stroke="black" stroke-width="0.2" stroke-linecap="round" stroke-linejoin="round"/>
<path d="M306.293 64.2987L302.372 66.5699C302.73 63.9663 304.336 63.5208 306.293 64.2987Z" fill="#717FAA" stroke="black" stroke-width="0.2" stroke-linecap="round" stroke-linejoin="round"/>
<path d="M349.226 87.2488L340.649 92.212L324.832 101.39L308.024 91.352L316.682 88.9744C318.201 88.576 319.695 88.088 321.156 87.5128C321.313 87.4496 321.457 87.3808 321.601 87.312C321.818 87.208 322.027 87.0904 322.229 86.96L327.066 84.1624L335.649 79.1992L349.226 87.2488Z" fill="#B1C0E9" stroke="black" stroke-width="0.2" stroke-linecap="round" stroke-linejoin="round"/>
<path d="M327.216 67.7494L321.958 69.2489L321.344 68.1196L321.594 77.6496L324.688 82.6688L327.085 84.0992" stroke="black" stroke-width="0.2" stroke-linecap="round" stroke-linejoin="round" stroke-dasharray="0.8 1.6"/>
<path d="M332.481 77.2296L332.412 77.192L332.45 77.1792" stroke="black" stroke-width="0.2" stroke-linecap="round" stroke-linejoin="round" stroke-dasharray="2.18 3.63"/>
<path d="M349.226 87.2488V97.344L332.073 107.276L327.512 109.917L324.851 111.454V101.359L328.195 99.4272L340.65 92.212H340.656L349.226 87.2488Z" fill="#8E9BCF" stroke="black" stroke-width="0.2" stroke-linecap="round" stroke-linejoin="round"/>
<path d="M324.286 75.404C324.161 74.8704 324.016 74.3312 323.847 73.7976C324.016 74.3368 324.161 74.8704 324.286 75.404Z" fill="#8E9BCF" stroke="black" stroke-width="0.2" stroke-linecap="round" stroke-linejoin="round"/>
<path d="M324.525 76.5648C324.594 76.9536 324.65 77.336 324.701 77.7192C324.65 77.336 324.594 76.9224 324.525 76.5648Z" fill="#8E9BCF" stroke="black" stroke-width="0.2" stroke-linecap="round" stroke-linejoin="round"/>
<path d="M324.701 77.7192L324.758 78.296C324.758 78.4528 324.789 78.616 324.801 78.7728C324.776 78.4216 324.745 78.0704 324.701 77.7192Z" fill="#8E9BCF" stroke="black" stroke-width="0.2" stroke-linecap="round" stroke-linejoin="round"/>
<path d="M322.586 70.5414C322.419 70.1566 322.237 69.7801 322.041 69.412C322.041 69.3556 321.984 69.3054 321.959 69.2552C321.915 69.1736 321.878 69.0921 321.827 69.0168L321.494 68.3894C321.463 68.3392 321.432 68.289 321.407 68.2388L321.37 68.1761C321.373 68.1616 321.373 68.1466 321.37 68.1322C320.261 66.187 318.96 64.3583 317.486 62.6738C317.009 62.1217 316.519 61.5946 316.005 61.0802L315.629 60.7038L314.794 59.9822L314.399 59.6246C314.029 59.2983 313.646 58.9972 313.263 58.671C312.498 58.0519 311.707 57.4706 310.892 56.9268C310.735 56.8264 310.584 56.7198 310.427 56.6256L309.65 56.1426C308.398 55.3843 307.094 54.7175 305.747 54.1474C304.334 53.5377 302.84 53.1402 301.311 52.9679C301.079 52.9679 300.847 52.9302 300.627 52.924C299.996 52.9058 299.365 52.9584 298.746 53.0808C298.254 53.1822 297.777 53.3466 297.327 53.5702L321.106 39.7799H321.137C321.986 39.2394 322.957 38.9182 323.961 38.8451C324.538 38.7887 325.12 38.7887 325.698 38.8451C328.082 39.0585 330.862 40.1166 334.037 42.0198C336.966 43.7746 339.596 45.9858 341.829 48.5698C344.067 51.1113 345.896 53.9858 347.25 57.0899C347.614 57.9369 347.927 58.7839 348.197 59.5995L323.785 73.584L323.69 73.3016L323.578 72.9568C323.37 72.3671 323.132 71.771 322.875 71.175C322.787 70.968 322.686 70.7484 322.586 70.5414Z" fill="#B1C0E9" stroke="black" stroke-width="0.2" stroke-linecap="round" stroke-linejoin="round"/>
<path d="M349.226 66.2562C349.23 67.1458 349.154 68.034 349 68.9102C348.884 69.639 348.646 70.343 348.298 70.9931C347.83 71.8134 347.152 72.4937 346.334 72.9631L344.025 74.2992L335.668 79.1304L327.085 84.0936L322.248 86.8912L322.498 86.716L322.674 86.5712C322.735 86.5272 322.794 86.4784 322.85 86.4272C322.957 86.3328 323.057 86.2328 323.151 86.132L323.39 85.8688L323.484 85.7432C323.545 85.672 323.602 85.596 323.653 85.5176L323.716 85.4296C323.785 85.3232 323.854 85.216 323.917 85.1032C324.018 84.9224 324.11 84.736 324.193 84.5448L324.281 84.3192C324.318 84.2232 324.35 84.1248 324.374 84.024C324.412 83.9176 324.443 83.8112 324.469 83.7104C324.494 83.6104 324.469 83.5784 324.519 83.5096L324.575 83.2464C324.606 83.1208 324.626 82.9888 324.65 82.8576C324.665 82.7928 324.675 82.728 324.682 82.6624C324.796 81.852 324.85 81.0344 324.845 80.216" fill="#8E9BCF"/>
<path d="M349.226 66.2562C349.23 67.1458 349.154 68.034 349 68.9102C348.884 69.639 348.646 70.343 348.298 70.9931C347.83 71.8134 347.152 72.4937 346.334 72.9631L344.025 74.2992L335.668 79.1304L327.085 84.0936L322.248 86.8912L322.498 86.716L322.674 86.5712C322.735 86.5272 322.794 86.4784 322.85 86.4272C322.957 86.3328 323.057 86.2328 323.151 86.132L323.39 85.8688L323.484 85.7432C323.545 85.672 323.602 85.596 323.653 85.5176L323.716 85.4296C323.785 85.3232 323.854 85.216 323.917 85.1032C324.018 84.9224 324.11 84.736 324.193 84.5448L324.281 84.3192C324.318 84.2232 324.35 84.1248 324.374 84.024C324.412 83.9176 324.443 83.8112 324.469 83.7104C324.494 83.6104 324.469 83.5784 324.519 83.5096L324.575 83.2464C324.606 83.1208 324.626 82.9888 324.65 82.8576C324.665 82.7928 324.675 82.728 324.682 82.6624C324.796 81.852 324.85 81.0344 324.845 80.216" stroke="black" stroke-width="0.2" stroke-linecap="round" stroke-linejoin="round"/>
<path d="M294.843 92.0864L320.598 77.5744" stroke="black" stroke-width="0.2" stroke-linecap="round" stroke-linejoin="round" stroke-dasharray="0.8 1.6"/>
<path d="M307.442 63.4706L314.136 59.6686" stroke="black" stroke-width="0.2" stroke-linecap="round" stroke-linejoin="round" stroke-dasharray="0.8 1.6"/>
<path d="M314.55 72.342L321.344 68.1196" stroke="black" stroke-width="0.2" stroke-linecap="round" stroke-linejoin="round" stroke-dasharray="0.8 1.6"/>
<path d="M349.2 65.1583C349.165 64.3678 349.083 63.5802 348.955 62.7994C348.836 62.0444 348.674 61.2966 348.473 60.5595C348.385 60.2458 348.297 59.9321 348.196 59.6058L323.784 73.5904C323.784 73.66 323.828 73.7288 323.847 73.7976C324.017 74.3376 324.161 74.8704 324.286 75.404V75.4728C324.324 75.6488 324.362 75.8176 324.393 75.9872C324.424 76.1568 324.474 76.3696 324.506 76.5648C324.574 76.9536 324.631 77.336 324.682 77.7192C324.732 78.1016 324.757 78.4216 324.782 78.7728C324.782 78.9176 324.782 79.0616 324.782 79.212C324.785 79.26 324.785 79.308 324.782 79.356C324.782 79.4816 324.782 79.6072 324.782 79.7264C324.782 79.8456 324.782 80.0464 324.782 80.2032C324.787 81.024 324.733 81.844 324.618 82.6568C324.612 82.7216 324.602 82.7864 324.587 82.8512C324.587 82.9824 324.543 83.1144 324.518 83.24C324.494 83.3656 324.474 83.416 324.455 83.5032C324.437 83.5912 324.455 83.6352 324.406 83.704C324.355 83.7736 324.349 83.9112 324.311 84.0176C324.286 84.1184 324.255 84.2168 324.217 84.3128C324.217 84.388 324.161 84.4632 324.13 84.5384C324.05 84.7312 323.958 84.9176 323.854 85.0968C323.79 85.2104 323.722 85.3168 323.653 85.4232L323.59 85.5112C323.538 85.5904 323.482 85.6656 323.42 85.7368L323.326 85.8624L323.088 86.1264C322.994 86.2264 322.894 86.3208 322.786 86.4208L326.934 84.0368L343.955 74.2936L346.264 72.9569C347.082 72.4874 347.761 71.8072 348.228 70.9869C348.577 70.3368 348.814 69.6327 348.93 68.9039C349.085 68.0278 349.16 67.1396 349.156 66.25V66.0806C349.226 65.7794 349.219 65.4658 349.2 65.1583Z" fill="#8E9BCF" stroke="black" stroke-width="0.2" stroke-linecap="round" stroke-linejoin="round"/>
<path d="M31.24 51V28.6H37.32L43.4 42.52H44.2L50.28 28.6H56.2V51H52.52V35.32L52.84 32.28H52.52L46.6 45.88H40.84L34.92 32.28H34.6L34.92 35.32V51H31.24ZM61.5735 48.984C60.1228 47.4053 59.3975 45.3573 59.3975 42.84C59.3975 40.3227 60.1228 38.2853 61.5735 36.728C63.0455 35.1493 64.8802 34.36 67.0775 34.36C68.4642 34.36 69.7335 34.7653 70.8855 35.576C71.3762 35.9173 71.8135 36.312 72.1975 36.76H72.3575V34.68H75.7175V51H72.3575V48.76H72.1975C71.8775 49.208 71.4402 49.6347 70.8855 50.04C69.7335 50.8933 68.4642 51.32 67.0775 51.32C64.8802 51.32 63.0455 50.5413 61.5735 48.984ZM64.1975 38.808C63.3442 39.7467 62.9175 41.0907 62.9175 42.84C62.9175 44.5893 63.3442 45.9333 64.1975 46.872C65.0508 47.8107 66.2242 48.28 67.7175 48.28C69.1255 48.28 70.2455 47.8107 71.0775 46.872C71.9308 45.912 72.3575 44.568 72.3575 42.84C72.3575 41.112 71.9308 39.7787 71.0775 38.84C70.2455 37.88 69.1255 37.4 67.7175 37.4C66.2242 37.4 65.0508 37.8693 64.1975 38.808ZM77.785 37.72V34.68H92.025V37.72H86.585V51H83.225V37.72H77.785ZM95.5475 48.888C93.9475 47.2453 93.1475 45.2293 93.1475 42.84C93.1475 40.4507 93.9475 38.4453 95.5475 36.824C97.1688 35.1813 99.1422 34.36 101.468 34.36C103.793 34.36 105.756 35.1813 107.356 36.824C108.977 38.4453 109.788 40.4507 109.788 42.84V43.96H96.5075C96.7635 45.304 97.3502 46.36 98.2675 47.128C99.1848 47.896 100.252 48.28 101.468 48.28C102.961 48.28 104.156 47.9067 105.052 47.16C105.457 46.8613 105.809 46.488 106.108 46.04H109.628C109.18 47.0853 108.614 47.9707 107.932 48.696C106.182 50.4453 104.028 51.32 101.468 51.32C99.1422 51.32 97.1688 50.5093 95.5475 48.888ZM96.6675 41.24H106.268C106.076 40.1733 105.564 39.2667 104.732 38.52C103.921 37.7733 102.833 37.4 101.468 37.4C100.316 37.4 99.2915 37.752 98.3955 38.456C97.4995 39.1387 96.9235 40.0667 96.6675 41.24ZM112.67 51V34.68H117.47L121.79 44.44H122.43L126.75 34.68H131.55V51H128.19V39.48L128.222 39.16H128.062L124.03 48.12H120.19L116.158 39.16H115.998L116.03 39.48V51H112.67ZM136.605 48.984C135.154 47.4053 134.429 45.3573 134.429 42.84C134.429 40.3227 135.154 38.2853 136.605 36.728C138.077 35.1493 139.911 34.36 142.109 34.36C143.495 34.36 144.765 34.7653 145.917 35.576C146.407 35.9173 146.845 36.312 147.229 36.76H147.389V34.68H150.749V51H147.389V48.76H147.229C146.909 49.208 146.471 49.6347 145.917 50.04C144.765 50.8933 143.495 51.32 142.109 51.32C139.911 51.32 138.077 50.5413 136.605 48.984ZM139.229 38.808C138.375 39.7467 137.949 41.0907 137.949 42.84C137.949 44.5893 138.375 45.9333 139.229 46.872C140.082 47.8107 141.255 48.28 142.749 48.28C144.157 48.28 145.277 47.8107 146.109 46.872C146.962 45.912 147.389 44.568 147.389 42.84C147.389 41.112 146.962 39.7787 146.109 38.84C145.277 37.88 144.157 37.4 142.749 37.4C141.255 37.4 140.082 37.8693 139.229 38.808ZM152.816 37.72V34.68H167.056V37.72H161.616V51H158.256V37.72H152.816ZM169.139 51V34.68H172.499V45.56L172.467 45.88H172.787L180.179 34.68H183.859V51H180.499V40.12L180.531 39.8H180.211L172.819 51H169.139ZM187.701 51V34.68H191.061V41.08H193.461L198.421 34.68H202.261L196.341 42.2L202.741 51H198.581L193.621 44.12H191.061V51H187.701ZM205.261 48.984C203.81 47.4053 203.085 45.3573 203.085 42.84C203.085 40.3227 203.81 38.2853 205.261 36.728C206.733 35.1493 208.568 34.36 210.765 34.36C212.152 34.36 213.421 34.7653 214.573 35.576C215.064 35.9173 215.501 36.312 215.885 36.76H216.045V34.68H219.405V51H216.045V48.76H215.885C215.565 49.208 215.128 49.6347 214.573 50.04C213.421 50.8933 212.152 51.32 210.765 51.32C208.568 51.32 206.733 50.5413 205.261 48.984ZM207.885 38.808C207.032 39.7467 206.605 41.0907 206.605 42.84C206.605 44.5893 207.032 45.9333 207.885 46.872C208.738 47.8107 209.912 48.28 211.405 48.28C212.813 48.28 213.933 47.8107 214.765 46.872C215.618 45.912 216.045 44.568 216.045 42.84C216.045 41.112 215.618 39.7787 214.765 38.84C213.933 37.88 212.813 37.4 211.405 37.4C209.912 37.4 208.738 37.8693 207.885 38.808Z" fill="black"/>
</g>
<defs>
<linearGradient id="paint0_linear_378_11" x1="-11" y1="121.321" x2="201.001" y2="119.837" gradientUnits="userSpaceOnUse">
<stop/>
<stop offset="0.915" stop-opacity="0"/>
</linearGradient>
</defs>
</svg>
