<svg width="335" height="162" viewBox="0 0 335 162" fill="none" xmlns="http://www.w3.org/2000/svg">
<mask id="mask0_274_529" style="mask-type:alpha" maskUnits="userSpaceOnUse" x="0" y="0" width="335" height="163">
<path d="M0 60.0004C0 31.7162 0 17.574 8.7868 8.78722C17.5736 0.000427246 31.7157 0.000427246 60 0.000427246H275C303.284 0.000427246 317.426 0.000427246 326.213 8.78722C335 17.574 335 31.7162 335 60.0004V102C335 130.285 335 144.427 326.213 153.214C317.426 162 303.284 162 275 162H60C31.7157 162 17.5736 162 8.7868 153.214C0 144.427 0 130.285 0 102V60.0004Z" fill="#F89745"/>
</mask>
<g mask="url(#mask0_274_529)">
<path d="M0 60.0004C0 31.7162 0 17.574 8.7868 8.78722C17.5736 0.000427246 31.7157 0.000427246 60 0.000427246H275C303.284 0.000427246 317.426 0.000427246 326.213 8.78722C335 17.574 335 31.7162 335 60.0004V102C335 130.285 335 144.427 326.213 153.214C317.426 162 303.284 162 275 162H60C31.7157 162 17.5736 162 8.7868 153.214C0 144.427 0 130.285 0 102V60.0004Z" fill="#BCF3FF"/>
<mask id="path-3-inside-1_274_529" fill="white">
<path d="M-2.6 163V65.0004H44.3L57.6 110.5H61.1L74.4 65.0004H120.6V163H85.6V118.34L87.7 105.6H86.3L75.1 140.6H42.9L31.7 105.6H30.3L32.4 118.34V163H-2.6ZM137.4 163V65.0004H217.9V93.0004H172.4V102.1H208.1V125.9H172.4V135H217.9V163H137.4Z"/>
</mask>
<path d="M-2.6 163H-2.85V163.25H-2.6V163ZM-2.6 65.0004V64.7504H-2.85V65.0004H-2.6ZM44.3 65.0004L44.54 64.9303L44.4874 64.7504H44.3V65.0004ZM57.6 110.5L57.36 110.571L57.4126 110.75H57.6V110.5ZM61.1 110.5V110.75H61.2874L61.34 110.571L61.1 110.5ZM74.4 65.0004V64.7504H74.2126L74.16 64.9303L74.4 65.0004ZM120.6 65.0004H120.85V64.7504H120.6V65.0004ZM120.6 163V163.25H120.85V163H120.6ZM85.6 163H85.35V163.25H85.6V163ZM85.6 118.34L85.3533 118.3L85.35 118.32V118.34H85.6ZM87.7 105.6L87.9467 105.641L87.9946 105.35H87.7V105.6ZM86.3 105.6V105.35H86.1175L86.0619 105.524L86.3 105.6ZM75.1 140.6V140.85H75.2825L75.3381 140.677L75.1 140.6ZM42.9 140.6L42.6619 140.677L42.7175 140.85H42.9V140.6ZM31.7 105.6L31.9381 105.524L31.8825 105.35H31.7V105.6ZM30.3 105.6V105.35H30.0054L30.0533 105.641L30.3 105.6ZM32.4 118.34H32.65V118.32L32.6467 118.3L32.4 118.34ZM32.4 163V163.25H32.65V163H32.4ZM-2.35 163V160.55H-2.85V163H-2.35ZM-2.35 155.65V150.75H-2.85V155.65H-2.35ZM-2.35 145.85V140.95H-2.85V145.85H-2.35ZM-2.35 136.05V131.15H-2.85V136.05H-2.35ZM-2.35 126.25V121.35H-2.85V126.25H-2.35ZM-2.35 116.45V111.55H-2.85V116.45H-2.35ZM-2.35 106.65V101.75H-2.85V106.65H-2.35ZM-2.35 96.8504V91.9504H-2.85V96.8504H-2.35ZM-2.35 87.0504V82.1504H-2.85V87.0504H-2.35ZM-2.35 77.2504V72.3504H-2.85V77.2504H-2.35ZM-2.35 67.4504V65.0004H-2.85V67.4504H-2.35ZM-2.6 65.2504H-0.254999V64.7504H-2.6V65.2504ZM4.435 65.2504H9.125V64.7504H4.435V65.2504ZM13.815 65.2504H18.505V64.7504H13.815V65.2504ZM23.195 65.2504H27.885V64.7504H23.195V65.2504ZM32.575 65.2504H37.265V64.7504H32.575V65.2504ZM41.955 65.2504H44.3V64.7504H41.955V65.2504ZM44.06 65.0706L44.725 67.3456L45.205 67.2053L44.54 64.9303L44.06 65.0706ZM46.055 71.8956L47.385 76.4456L47.865 76.3053L46.535 71.7553L46.055 71.8956ZM48.715 80.9956L50.045 85.5456L50.525 85.4053L49.195 80.8553L48.715 80.9956ZM51.375 90.0956L52.705 94.6456L53.185 94.5053L51.855 89.9553L51.375 90.0956ZM54.035 99.1956L55.365 103.746L55.845 103.605L54.515 99.0553L54.035 99.1956ZM56.695 108.296L57.36 110.571L57.84 110.43L57.175 108.155L56.695 108.296ZM57.6 110.75H58.475V110.25H57.6V110.75ZM60.225 110.75H61.1V110.25H60.225V110.75ZM61.34 110.571L62.005 108.296L61.525 108.155L60.86 110.43L61.34 110.571ZM63.335 103.746L64.665 99.1956L64.185 99.0553L62.855 103.605L63.335 103.746ZM65.995 94.6456L67.325 90.0956L66.845 89.9553L65.515 94.5053L65.995 94.6456ZM68.655 85.5456L69.985 80.9956L69.505 80.8553L68.175 85.4053L68.655 85.5456ZM71.315 76.4456L72.645 71.8956L72.165 71.7553L70.835 76.3053L71.315 76.4456ZM73.975 67.3456L74.64 65.0706L74.16 64.9303L73.495 67.2053L73.975 67.3456ZM74.4 65.2504H76.71V64.7504H74.4V65.2504ZM81.33 65.2504H85.95V64.7504H81.33V65.2504ZM90.57 65.2504H95.19V64.7504H90.57V65.2504ZM99.81 65.2504H104.43V64.7504H99.81V65.2504ZM109.05 65.2504H113.67V64.7504H109.05V65.2504ZM118.29 65.2504H120.6V64.7504H118.29V65.2504ZM120.35 65.0004V67.4504H120.85V65.0004H120.35ZM120.35 72.3504V77.2504H120.85V72.3504H120.35ZM120.35 82.1504V87.0504H120.85V82.1504H120.35ZM120.35 91.9504V96.8504H120.85V91.9504H120.35ZM120.35 101.75V106.65H120.85V101.75H120.35ZM120.35 111.55V116.45H120.85V111.55H120.35ZM120.35 121.35V126.25H120.85V121.35H120.35ZM120.35 131.15V136.05H120.85V131.15H120.35ZM120.35 140.95V145.85H120.85V140.95H120.35ZM120.35 150.75V155.65H120.85V150.75H120.35ZM120.35 160.55V163H120.85V160.55H120.35ZM120.6 162.75H118.413V163.25H120.6V162.75ZM114.038 162.75H109.663V163.25H114.038V162.75ZM105.288 162.75H100.913V163.25H105.288V162.75ZM96.5375 162.75H92.1625V163.25H96.5375V162.75ZM87.7875 162.75H85.6V163.25H87.7875V162.75ZM85.85 163V160.209H85.35V163H85.85ZM85.85 154.627V149.044H85.35V154.627H85.85ZM85.85 143.462V137.879H85.35V143.462H85.85ZM85.85 132.297V126.714H85.35V132.297H85.85ZM85.85 121.132V118.34H85.35V121.132H85.85ZM85.8467 118.381L86.3717 115.196L85.8783 115.115L85.3533 118.3L85.8467 118.381ZM87.4217 108.826L87.9467 105.641L87.4533 105.56L86.9283 108.745L87.4217 108.826ZM87.7 105.35H87.35V105.85H87.7V105.35ZM86.65 105.35H86.3V105.85H86.65V105.35ZM86.0619 105.524L85.3619 107.712L85.8381 107.864L86.5381 105.677L86.0619 105.524ZM83.9619 112.087L82.5619 116.462L83.0381 116.614L84.4381 112.239L83.9619 112.087ZM81.1619 120.837L79.7619 125.212L80.2381 125.364L81.6381 120.989L81.1619 120.837ZM78.3619 129.587L76.9619 133.962L77.4381 134.114L78.8381 129.739L78.3619 129.587ZM75.5619 138.337L74.8619 140.524L75.3381 140.677L76.0381 138.489L75.5619 138.337ZM75.1 140.35H72.4167V140.85H75.1V140.35ZM67.05 140.35H61.6833V140.85H67.05V140.35ZM56.3167 140.35H50.95V140.85H56.3167V140.35ZM45.5833 140.35H42.9V140.85H45.5833V140.35ZM43.1381 140.524L42.4381 138.337L41.9619 138.489L42.6619 140.677L43.1381 140.524ZM41.0381 133.962L39.6381 129.587L39.1619 129.739L40.5619 134.114L41.0381 133.962ZM38.2381 125.212L36.8381 120.837L36.3619 120.989L37.7619 125.364L38.2381 125.212ZM35.4381 116.462L34.0381 112.087L33.5619 112.239L34.9619 116.614L35.4381 116.462ZM32.6381 107.712L31.9381 105.524L31.4619 105.677L32.1619 107.864L32.6381 107.712ZM31.7 105.35H31.35V105.85H31.7V105.35ZM30.65 105.35H30.3V105.85H30.65V105.35ZM30.0533 105.641L30.5783 108.826L31.0717 108.745L30.5467 105.56L30.0533 105.641ZM31.6283 115.196L32.1533 118.381L32.6467 118.3L32.1217 115.115L31.6283 115.196ZM32.15 118.34V121.132H32.65V118.34H32.15ZM32.15 126.714V132.297H32.65V126.714H32.15ZM32.15 137.879V143.462H32.65V137.879H32.15ZM32.15 149.044V154.627H32.65V149.044H32.15ZM32.15 160.209V163H32.65V160.209H32.15ZM32.4 162.75H30.2125V163.25H32.4V162.75ZM25.8375 162.75H21.4625V163.25H25.8375V162.75ZM17.0875 162.75H12.7125V163.25H17.0875V162.75ZM8.3375 162.75H3.9625V163.25H8.3375V162.75ZM-0.412499 162.75H-2.6V163.25H-0.412499V162.75ZM-2.6 163H-3.1V163.5H-2.6V163ZM-2.6 65.0004V64.5004H-3.1V65.0004H-2.6ZM44.3 65.0004L44.7799 64.8601L44.6748 64.5004H44.3V65.0004ZM57.6 110.5L57.1201 110.641L57.2252 111H57.6V110.5ZM61.1 110.5V111H61.4748L61.5799 110.641L61.1 110.5ZM74.4 65.0004V64.5004H74.0252L73.9201 64.8601L74.4 65.0004ZM120.6 65.0004H121.1V64.5004H120.6V65.0004ZM120.6 163V163.5H121.1V163H120.6ZM85.6 163H85.1V163.5H85.6V163ZM85.6 118.34L85.1067 118.259L85.1 118.299V118.34H85.6ZM87.7 105.6L88.1934 105.682L88.2892 105.1H87.7V105.6ZM86.3 105.6V105.1H85.935L85.8238 105.448L86.3 105.6ZM75.1 140.6V141.1H75.465L75.5762 140.753L75.1 140.6ZM42.9 140.6L42.4238 140.753L42.535 141.1H42.9V140.6ZM31.7 105.6L32.1762 105.448L32.065 105.1H31.7V105.6ZM30.3 105.6V105.1H29.7108L29.8067 105.682L30.3 105.6ZM32.4 118.34H32.9V118.299L32.8933 118.259L32.4 118.34ZM32.4 163V163.5H32.9V163H32.4ZM-2.1 163V160.55H-3.1V163H-2.1ZM-2.1 155.65V150.75H-3.1V155.65H-2.1ZM-2.1 145.85V140.95H-3.1V145.85H-2.1ZM-2.1 136.05V131.15H-3.1V136.05H-2.1ZM-2.1 126.25V121.35H-3.1V126.25H-2.1ZM-2.1 116.45V111.55H-3.1V116.45H-2.1ZM-2.1 106.65V101.75H-3.1V106.65H-2.1ZM-2.1 96.8504V91.9504H-3.1V96.8504H-2.1ZM-2.1 87.0504V82.1504H-3.1V87.0504H-2.1ZM-2.1 77.2504V72.3504H-3.1V77.2504H-2.1ZM-2.1 67.4504V65.0004H-3.1V67.4504H-2.1ZM-2.6 65.5004H-0.254999V64.5004H-2.6V65.5004ZM4.435 65.5004H9.125V64.5004H4.435V65.5004ZM13.815 65.5004H18.505V64.5004H13.815V65.5004ZM23.195 65.5004H27.885V64.5004H23.195V65.5004ZM32.575 65.5004H37.265V64.5004H32.575V65.5004ZM41.955 65.5004H44.3V64.5004H41.955V65.5004ZM43.8201 65.1407L44.4851 67.4157L45.4449 67.1351L44.7799 64.8601L43.8201 65.1407ZM45.8151 71.9657L47.1451 76.5157L48.1049 76.2351L46.7749 71.6851L45.8151 71.9657ZM48.4751 81.0657L49.8051 85.6157L50.7649 85.3351L49.4349 80.7851L48.4751 81.0657ZM51.1351 90.1657L52.4651 94.7157L53.4249 94.4351L52.0949 89.8851L51.1351 90.1657ZM53.7951 99.2657L55.1251 103.816L56.0849 103.535L54.7549 98.9851L53.7951 99.2657ZM56.4551 108.366L57.1201 110.641L58.0799 110.36L57.4149 108.085L56.4551 108.366ZM57.6 111H58.475V110H57.6V111ZM60.225 111H61.1V110H60.225V111ZM61.5799 110.641L62.2449 108.366L61.2851 108.085L60.6201 110.36L61.5799 110.641ZM63.5749 103.816L64.9049 99.2657L63.9451 98.9851L62.6151 103.535L63.5749 103.816ZM66.2349 94.7157L67.5649 90.1657L66.6051 89.8851L65.2751 94.4351L66.2349 94.7157ZM68.8949 85.6157L70.2249 81.0657L69.2651 80.7851L67.9351 85.3351L68.8949 85.6157ZM71.5549 76.5157L72.8849 71.9657L71.9251 71.6851L70.5951 76.2351L71.5549 76.5157ZM74.2149 67.4157L74.8799 65.1407L73.9201 64.8601L73.2551 67.1351L74.2149 67.4157ZM74.4 65.5004H76.71V64.5004H74.4V65.5004ZM81.33 65.5004H85.95V64.5004H81.33V65.5004ZM90.57 65.5004H95.19V64.5004H90.57V65.5004ZM99.81 65.5004H104.43V64.5004H99.81V65.5004ZM109.05 65.5004H113.67V64.5004H109.05V65.5004ZM118.29 65.5004H120.6V64.5004H118.29V65.5004ZM120.1 65.0004V67.4504H121.1V65.0004H120.1ZM120.1 72.3504V77.2504H121.1V72.3504H120.1ZM120.1 82.1504V87.0504H121.1V82.1504H120.1ZM120.1 91.9504V96.8504H121.1V91.9504H120.1ZM120.1 101.75V106.65H121.1V101.75H120.1ZM120.1 111.55V116.45H121.1V111.55H120.1ZM120.1 121.35V126.25H121.1V121.35H120.1ZM120.1 131.15V136.05H121.1V131.15H120.1ZM120.1 140.95V145.85H121.1V140.95H120.1ZM120.1 150.75V155.65H121.1V150.75H120.1ZM120.1 160.55V163H121.1V160.55H120.1ZM120.6 162.5H118.413V163.5H120.6V162.5ZM114.038 162.5H109.663V163.5H114.038V162.5ZM105.288 162.5H100.913V163.5H105.288V162.5ZM96.5375 162.5H92.1625V163.5H96.5375V162.5ZM87.7875 162.5H85.6V163.5H87.7875V162.5ZM86.1 163V160.209H85.1V163H86.1ZM86.1 154.627V149.044H85.1V154.627H86.1ZM86.1 143.462V137.879H85.1V143.462H86.1ZM86.1 132.297V126.714H85.1V132.297H86.1ZM86.1 121.132V118.34H85.1V121.132H86.1ZM86.0934 118.422L86.6183 115.237L85.6317 115.074L85.1067 118.259L86.0934 118.422ZM87.6684 108.867L88.1934 105.682L87.2067 105.519L86.6817 108.704L87.6684 108.867ZM87.7 105.1H87.35V106.1H87.7V105.1ZM86.65 105.1H86.3V106.1H86.65V105.1ZM85.8238 105.448L85.1238 107.636L86.0762 107.94L86.7762 105.753L85.8238 105.448ZM83.7238 112.011L82.3238 116.386L83.2762 116.69L84.6762 112.315L83.7238 112.011ZM80.9238 120.761L79.5238 125.136L80.4762 125.44L81.8762 121.065L80.9238 120.761ZM78.1238 129.511L76.7238 133.886L77.6762 134.19L79.0762 129.815L78.1238 129.511ZM75.3238 138.261L74.6238 140.448L75.5762 140.753L76.2762 138.565L75.3238 138.261ZM75.1 140.1H72.4167V141.1H75.1V140.1ZM67.05 140.1H61.6833V141.1H67.05V140.1ZM56.3167 140.1H50.95V141.1H56.3167V140.1ZM45.5833 140.1H42.9V141.1H45.5833V140.1ZM43.3762 140.448L42.6762 138.261L41.7238 138.565L42.4238 140.753L43.3762 140.448ZM41.2762 133.886L39.8762 129.511L38.9238 129.815L40.3238 134.19L41.2762 133.886ZM38.4762 125.136L37.0762 120.761L36.1238 121.065L37.5238 125.44L38.4762 125.136ZM35.6762 116.386L34.2762 112.011L33.3238 112.315L34.7238 116.69L35.6762 116.386ZM32.8762 107.636L32.1762 105.448L31.2238 105.753L31.9238 107.94L32.8762 107.636ZM31.7 105.1H31.35V106.1H31.7V105.1ZM30.65 105.1H30.3V106.1H30.65V105.1ZM29.8067 105.682L30.3317 108.867L31.3183 108.704L30.7933 105.519L29.8067 105.682ZM31.3817 115.237L31.9067 118.422L32.8933 118.259L32.3683 115.074L31.3817 115.237ZM31.9 118.34V121.132H32.9V118.34H31.9ZM31.9 126.714V132.297H32.9V126.714H31.9ZM31.9 137.879V143.462H32.9V137.879H31.9ZM31.9 149.044V154.627H32.9V149.044H31.9ZM31.9 160.209V163H32.9V160.209H31.9ZM32.4 162.5H30.2125V163.5H32.4V162.5ZM25.8375 162.5H21.4625V163.5H25.8375V162.5ZM17.0875 162.5H12.7125V163.5H17.0875V162.5ZM8.3375 162.5H3.9625V163.5H8.3375V162.5ZM-0.412499 162.5H-2.6V163.5H-0.412499V162.5ZM137.4 163H137.15V163.25H137.4V163ZM137.4 65.0004V64.7504H137.15V65.0004H137.4ZM217.9 65.0004H218.15V64.7504H217.9V65.0004ZM217.9 93.0004V93.2504H218.15V93.0004H217.9ZM172.4 93.0004V92.7504H172.15V93.0004H172.4ZM172.4 102.1H172.15V102.35H172.4V102.1ZM208.1 102.1H208.35V101.85H208.1V102.1ZM208.1 125.9V126.15H208.35V125.9H208.1ZM172.4 125.9V125.65H172.15V125.9H172.4ZM172.4 135H172.15V135.25H172.4V135ZM217.9 135H218.15V134.75H217.9V135ZM217.9 163V163.25H218.15V163H217.9ZM137.65 163V160.55H137.15V163H137.65ZM137.65 155.65V150.75H137.15V155.65H137.65ZM137.65 145.85V140.95H137.15V145.85H137.65ZM137.65 136.05V131.15H137.15V136.05H137.65ZM137.65 126.25V121.35H137.15V126.25H137.65ZM137.65 116.45V111.55H137.15V116.45H137.65ZM137.65 106.65V101.75H137.15V106.65H137.65ZM137.65 96.8504V91.9504H137.15V96.8504H137.65ZM137.65 87.0504V82.1504H137.15V87.0504H137.65ZM137.65 77.2504V72.3504H137.15V77.2504H137.65ZM137.65 67.4504V65.0004H137.15V67.4504H137.65ZM137.4 65.2504H139.916V64.7504H137.4V65.2504ZM144.947 65.2504H149.978V64.7504H144.947V65.2504ZM155.009 65.2504H160.041V64.7504H155.009V65.2504ZM165.072 65.2504H170.103V64.7504H165.072V65.2504ZM175.134 65.2504H180.166V64.7504H175.134V65.2504ZM185.197 65.2504H190.228V64.7504H185.197V65.2504ZM195.259 65.2504H200.291V64.7504H195.259V65.2504ZM205.322 65.2504H210.353V64.7504H205.322V65.2504ZM215.384 65.2504H217.9V64.7504H215.384V65.2504ZM217.65 65.0004V67.3338H218.15V65.0004H217.65ZM217.65 72.0004V76.6671H218.15V72.0004H217.65ZM217.65 81.3338V86.0004H218.15V81.3338H217.65ZM217.65 90.6671V93.0004H218.15V90.6671H217.65ZM217.9 92.7504H215.625V93.2504H217.9V92.7504ZM211.075 92.7504H206.525V93.2504H211.075V92.7504ZM201.975 92.7504H197.425V93.2504H201.975V92.7504ZM192.875 92.7504H188.325V93.2504H192.875V92.7504ZM183.775 92.7504H179.225V93.2504H183.775V92.7504ZM174.675 92.7504H172.4V93.2504H174.675V92.7504ZM172.15 93.0004V95.2754H172.65V93.0004H172.15ZM172.15 99.8254V102.1H172.65V99.8254H172.15ZM172.4 102.35H174.631V101.85H172.4V102.35ZM179.094 102.35H183.556V101.85H179.094V102.35ZM188.019 102.35H192.481V101.85H188.019V102.35ZM196.944 102.35H201.406V101.85H196.944V102.35ZM205.869 102.35H208.1V101.85H205.869V102.35ZM207.85 102.1V105.075H208.35V102.1H207.85ZM207.85 111.025V116.975H208.35V111.025H207.85ZM207.85 122.925V125.9H208.35V122.925H207.85ZM208.1 125.65H205.869V126.15H208.1V125.65ZM201.406 125.65H196.944V126.15H201.406V125.65ZM192.481 125.65H188.019V126.15H192.481V125.65ZM183.556 125.65H179.094V126.15H183.556V125.65ZM174.631 125.65H172.4V126.15H174.631V125.65ZM172.15 125.9V128.175H172.65V125.9H172.15ZM172.15 132.725V135H172.65V132.725H172.15ZM172.4 135.25H174.675V134.75H172.4V135.25ZM179.225 135.25H183.775V134.75H179.225V135.25ZM188.325 135.25H192.875V134.75H188.325V135.25ZM197.425 135.25H201.975V134.75H197.425V135.25ZM206.525 135.25H211.075V134.75H206.525V135.25ZM215.625 135.25H217.9V134.75H215.625V135.25ZM217.65 135V137.334H218.15V135H217.65ZM217.65 142V146.667H218.15V142H217.65ZM217.65 151.334V156H218.15V151.334H217.65ZM217.65 160.667V163H218.15V160.667H217.65ZM217.9 162.75H215.384V163.25H217.9V162.75ZM210.353 162.75H205.322V163.25H210.353V162.75ZM200.291 162.75H195.259V163.25H200.291V162.75ZM190.228 162.75H185.197V163.25H190.228V162.75ZM180.166 162.75H175.134V163.25H180.166V162.75ZM170.103 162.75H165.072V163.25H170.103V162.75ZM160.041 162.75H155.009V163.25H160.041V162.75ZM149.978 162.75H144.947V163.25H149.978V162.75ZM139.916 162.75H137.4V163.25H139.916V162.75ZM137.4 163H136.9V163.5H137.4V163ZM137.4 65.0004V64.5004H136.9V65.0004H137.4ZM217.9 65.0004H218.4V64.5004H217.9V65.0004ZM217.9 93.0004V93.5004H218.4V93.0004H217.9ZM172.4 93.0004V92.5004H171.9V93.0004H172.4ZM172.4 102.1H171.9V102.6H172.4V102.1ZM208.1 102.1H208.6V101.6H208.1V102.1ZM208.1 125.9V126.4H208.6V125.9H208.1ZM172.4 125.9V125.4H171.9V125.9H172.4ZM172.4 135H171.9V135.5H172.4V135ZM217.9 135H218.4V134.5H217.9V135ZM217.9 163V163.5H218.4V163H217.9ZM137.9 163V160.55H136.9V163H137.9ZM137.9 155.65V150.75H136.9V155.65H137.9ZM137.9 145.85V140.95H136.9V145.85H137.9ZM137.9 136.05V131.15H136.9V136.05H137.9ZM137.9 126.25V121.35H136.9V126.25H137.9ZM137.9 116.45V111.55H136.9V116.45H137.9ZM137.9 106.65V101.75H136.9V106.65H137.9ZM137.9 96.8504V91.9504H136.9V96.8504H137.9ZM137.9 87.0504V82.1504H136.9V87.0504H137.9ZM137.9 77.2504V72.3504H136.9V77.2504H137.9ZM137.9 67.4504V65.0004H136.9V67.4504H137.9ZM137.4 65.5004H139.916V64.5004H137.4V65.5004ZM144.947 65.5004H149.978V64.5004H144.947V65.5004ZM155.009 65.5004H160.041V64.5004H155.009V65.5004ZM165.072 65.5004H170.103V64.5004H165.072V65.5004ZM175.134 65.5004H180.166V64.5004H175.134V65.5004ZM185.197 65.5004H190.228V64.5004H185.197V65.5004ZM195.259 65.5004H200.291V64.5004H195.259V65.5004ZM205.322 65.5004H210.353V64.5004H205.322V65.5004ZM215.384 65.5004H217.9V64.5004H215.384V65.5004ZM217.4 65.0004V67.3338H218.4V65.0004H217.4ZM217.4 72.0004V76.6671H218.4V72.0004H217.4ZM217.4 81.3338V86.0004H218.4V81.3338H217.4ZM217.4 90.6671V93.0004H218.4V90.6671H217.4ZM217.9 92.5004H215.625V93.5004H217.9V92.5004ZM211.075 92.5004H206.525V93.5004H211.075V92.5004ZM201.975 92.5004H197.425V93.5004H201.975V92.5004ZM192.875 92.5004H188.325V93.5004H192.875V92.5004ZM183.775 92.5004H179.225V93.5004H183.775V92.5004ZM174.675 92.5004H172.4V93.5004H174.675V92.5004ZM171.9 93.0004V95.2754H172.9V93.0004H171.9ZM171.9 99.8254V102.1H172.9V99.8254H171.9ZM172.4 102.6H174.631V101.6H172.4V102.6ZM179.094 102.6H183.556V101.6H179.094V102.6ZM188.019 102.6H192.481V101.6H188.019V102.6ZM196.944 102.6H201.406V101.6H196.944V102.6ZM205.869 102.6H208.1V101.6H205.869V102.6ZM207.6 102.1V105.075H208.6V102.1H207.6ZM207.6 111.025V116.975H208.6V111.025H207.6ZM207.6 122.925V125.9H208.6V122.925H207.6ZM208.1 125.4H205.869V126.4H208.1V125.4ZM201.406 125.4H196.944V126.4H201.406V125.4ZM192.481 125.4H188.019V126.4H192.481V125.4ZM183.556 125.4H179.094V126.4H183.556V125.4ZM174.631 125.4H172.4V126.4H174.631V125.4ZM171.9 125.9V128.175H172.9V125.9H171.9ZM171.9 132.725V135H172.9V132.725H171.9ZM172.4 135.5H174.675V134.5H172.4V135.5ZM179.225 135.5H183.775V134.5H179.225V135.5ZM188.325 135.5H192.875V134.5H188.325V135.5ZM197.425 135.5H201.975V134.5H197.425V135.5ZM206.525 135.5H211.075V134.5H206.525V135.5ZM215.625 135.5H217.9V134.5H215.625V135.5ZM217.4 135V137.334H218.4V135H217.4ZM217.4 142V146.667H218.4V142H217.4ZM217.4 151.334V156H218.4V151.334H217.4ZM217.4 160.667V163H218.4V160.667H217.4ZM217.9 162.5H215.384V163.5H217.9V162.5ZM210.353 162.5H205.322V163.5H210.353V162.5ZM200.291 162.5H195.259V163.5H200.291V162.5ZM190.228 162.5H185.197V163.5H190.228V162.5ZM180.166 162.5H175.134V163.5H180.166V162.5ZM170.103 162.5H165.072V163.5H170.103V162.5ZM160.041 162.5H155.009V163.5H160.041V162.5ZM149.978 162.5H144.947V163.5H149.978V162.5ZM139.916 162.5H137.4V163.5H139.916V162.5Z" fill="url(#paint0_linear_274_529)" fill-opacity="0.6" mask="url(#path-3-inside-1_274_529)"/>
<path d="M247.083 52.7321C239.883 58.9145 233.809 65.8969 229.54 73.2892C215.038 48.1689 226.852 27.7721 255.928 27.5993C251.761 34.9401 248.811 43.5545 247.083 52.7321Z" fill="#9FEDFE"/>
<path d="M309.458 118.991C313.63 111.663 316.574 103.036 318.302 93.8517C325.502 87.6693 331.576 80.6869 335.845 73.2885C350.354 98.4213 338.533 118.812 309.458 118.991Z" fill="#9FEDFE"/>
<path d="M309.073 27.5993C300.586 27.5993 291.569 29.3081 282.692 32.3545C273.815 29.3081 264.804 27.5993 256.311 27.5993H255.927L256.119 27.2601C270.686 2.02489 294.404 2.17209 309.073 27.5993Z" fill="#9FEDFE"/>
<path d="M309.285 119.324C294.712 144.559 271 144.412 256.325 118.991C264.811 118.991 273.829 117.276 282.706 114.229C291.582 117.276 300.626 118.991 309.093 118.991H309.47L309.285 119.324Z" fill="#9FEDFE"/>
<path d="M309.458 118.992H309.08C300.587 118.992 291.57 117.276 282.693 114.23C273.816 117.276 264.773 118.992 256.312 118.992C252.107 111.708 249.099 103.145 247.288 94.0316C244.635 80.3988 244.566 66.3899 247.083 52.7321C248.811 43.5545 251.762 34.9209 255.928 27.5993H256.312C264.805 27.5993 273.816 29.3081 282.693 32.3545C291.57 29.3081 300.613 27.5993 309.074 27.5993C313.278 34.8761 316.286 43.4457 318.098 52.5593C320.748 66.1918 320.818 80.2004 318.302 93.8588C316.574 103.036 313.63 111.664 309.458 118.992Z" fill="#51C4EA"/>
<path d="M256.312 118.991C226.961 118.991 214.974 98.5109 229.541 73.2885C233.854 80.7573 240.004 87.8037 247.288 94.0309C249.124 103.144 252.107 111.74 256.312 118.991Z" fill="#9FEDFE"/>
<path d="M335.845 73.2892C331.538 65.8265 325.381 58.78 318.098 52.5528C316.286 43.4456 313.278 34.876 309.074 27.5928C338.43 27.5928 350.418 48.0536 335.845 73.2892Z" fill="#9FEDFE"/>
<path d="M335.845 73.2892C331.576 80.6876 325.502 87.67 318.302 93.8524C307.806 102.805 295.729 109.717 282.693 114.23C273.816 117.276 264.773 118.992 256.312 118.992C252.107 111.708 249.099 103.145 247.288 94.0316C240.005 87.8044 233.848 80.758 229.541 73.2892C233.809 65.8969 239.883 58.9145 247.083 52.7321C257.585 43.7936 269.661 36.8917 282.693 32.3801C291.57 29.3337 300.613 27.6249 309.074 27.6249C313.278 34.9017 316.286 43.4713 318.098 52.5849C325.381 58.7801 331.538 65.8265 335.845 73.2892Z" fill="#51C4EA"/>
<path d="M335.844 73.2956C350.417 98.5308 338.404 118.992 309.079 118.992C279.755 118.992 244.113 98.5116 229.547 73.2956C214.98 48.0792 226.987 27.5993 256.311 27.5993C285.636 27.5993 321.271 48.0537 335.844 73.2956Z" stroke="black" stroke-width="0.2" stroke-linecap="round" stroke-linejoin="round"/>
<path d="M283.102 138.161C303.782 138.031 320.366 108.886 320.14 73.0628C319.915 37.2404 302.968 8.30576 282.287 8.43568C261.606 8.5656 245.024 37.711 245.249 73.534C245.474 109.356 262.421 138.291 283.102 138.161Z" stroke="black" stroke-width="0.2" stroke-linecap="round" stroke-linejoin="round"/>
<path d="M235.391 114.249C231.677 112.184 228.583 109.164 226.431 105.5C221.355 96.7132 222.527 85.1228 229.72 72.8601C236.76 60.8409 248.843 49.5193 263.704 40.9817C278.565 32.4441 294.475 27.6953 308.504 27.5929C315.736 27.5417 322.059 28.7193 327.294 31.0937C332.53 33.4681 336.357 36.8537 338.872 41.1993C343.947 49.9865 342.782 61.5769 335.582 73.8396C328.542 85.8588 316.459 97.1804 301.598 105.718C286.738 114.256 270.885 119.011 256.805 119.107C249.573 119.164 243.256 117.98 238.021 115.606C237.121 115.199 236.243 114.746 235.391 114.249ZM328.248 35.3497C323.205 32.4313 316.51 30.9209 308.562 30.9785C280.709 31.1769 246.655 50.7353 232.658 74.5756C226.085 85.7372 224.946 96.1244 229.381 103.811C233.816 111.497 243.608 115.824 256.805 115.734C284.664 115.529 318.712 95.9708 332.709 72.1305C339.262 60.9689 340.427 50.5881 335.986 42.8953C334.123 39.7367 331.453 37.132 328.248 35.3497Z" fill="black"/>
<path d="M282.501 8.43134V8.75134" stroke="black" stroke-width="0.2" stroke-linecap="round" stroke-linejoin="round"/>
<path d="M282.501 10.0249V137.2" stroke="black" stroke-width="0.2" stroke-linecap="round" stroke-linejoin="round" stroke-dasharray="0.79 1.59"/>
<path d="M282.501 137.833V138.153" stroke="black" stroke-width="0.2" stroke-linecap="round" stroke-linejoin="round"/>
<path d="M335.538 42.1657L229.541 104.457" stroke="black" stroke-width="0.2" stroke-linecap="round" stroke-linejoin="round" stroke-dasharray="0.8 1.6"/>
<path d="M226.258 41.3336L339 105.488" stroke="black" stroke-width="0.2" stroke-linecap="round" stroke-linejoin="round" stroke-dasharray="0.8 1.6"/>
<path d="M293.566 80.0028C297.25 80.0028 300.235 77.0164 300.235 73.334C300.235 69.6506 297.25 66.6649 293.566 66.6649C289.883 66.6649 286.898 69.6506 286.898 73.334C286.898 77.0164 289.883 80.0028 293.566 80.0028Z" fill="#CBFDFD" stroke="black" stroke-width="0.2" stroke-linecap="round" stroke-linejoin="round"/>
<path d="M271.659 80.0028C275.342 80.0028 278.327 77.0164 278.327 73.334C278.327 69.6506 275.342 66.6649 271.659 66.6649C267.976 66.6649 264.99 69.6506 264.99 73.334C264.99 77.0164 267.976 80.0028 271.659 80.0028Z" fill="#CBFDFD" stroke="black" stroke-width="0.2" stroke-linecap="round" stroke-linejoin="round"/>
<path d="M282.686 90.9524C286.369 90.9524 289.354 87.9668 289.354 84.2836C289.354 80.6012 286.369 77.6148 282.686 77.6148C279.003 77.6148 276.017 80.6012 276.017 84.2836C276.017 87.9668 279.003 90.9524 282.686 90.9524Z" fill="#CBFDFD" stroke="black" stroke-width="0.2" stroke-linecap="round" stroke-linejoin="round"/>
<path d="M282.545 69.0456C286.229 69.0456 289.214 66.0598 289.214 62.3768C289.214 58.6937 286.229 55.708 282.545 55.708C278.862 55.708 275.877 58.6937 275.877 62.3768C275.877 66.0598 278.862 69.0456 282.545 69.0456Z" fill="#CBFDFD" stroke="black" stroke-width="0.2" stroke-linecap="round" stroke-linejoin="round"/>
<path d="M290.36 87.746C294.043 87.746 297.029 84.7604 297.029 81.0772C297.029 77.3948 294.043 74.4084 290.36 74.4084C286.677 74.4084 283.691 77.3948 283.691 81.0772C283.691 84.7604 286.677 87.746 290.36 87.746Z" fill="#CBFDFD" stroke="black" stroke-width="0.2" stroke-linecap="round" stroke-linejoin="round"/>
<path d="M274.872 72.2584C278.555 72.2584 281.541 69.2727 281.541 65.5896C281.541 61.9066 278.555 58.9208 274.872 58.9208C271.189 58.9208 268.203 61.9066 268.203 65.5896C268.203 69.2727 271.189 72.2584 274.872 72.2584Z" fill="#CBFDFD" stroke="black" stroke-width="0.2" stroke-linecap="round" stroke-linejoin="round"/>
<path d="M274.916 87.7981C278.6 87.7981 281.585 84.8117 281.585 81.1293C281.585 77.4461 278.6 74.4604 274.916 74.4604C271.233 74.4604 268.248 77.4461 268.248 81.1293C268.248 84.8117 271.233 87.7981 274.916 87.7981Z" fill="#CBFDFD" stroke="black" stroke-width="0.2" stroke-linecap="round" stroke-linejoin="round"/>
<path d="M290.309 72.2072C293.992 72.2072 296.978 69.2215 296.978 65.5384C296.978 61.8553 293.992 58.8696 290.309 58.8696C286.626 58.8696 283.64 61.8553 283.64 65.5384C283.64 69.2215 286.626 72.2072 290.309 72.2072Z" fill="#CBFDFD" stroke="black" stroke-width="0.2" stroke-linecap="round" stroke-linejoin="round"/>
<path d="M282.603 80.0028C286.286 80.0028 289.272 77.0164 289.272 73.334C289.272 69.6506 286.286 66.6649 282.603 66.6649C278.92 66.6649 275.934 69.6506 275.934 73.334C275.934 77.0164 278.92 80.0028 282.603 80.0028Z" fill="#CBFDFD" stroke="black" stroke-width="0.2" stroke-linecap="round" stroke-linejoin="round"/>
<path d="M337.061 48.3225C340.921 48.3225 344.05 45.1935 344.05 41.3337C344.05 37.4739 340.921 34.3449 337.061 34.3449C333.201 34.3449 330.072 37.4739 330.072 41.3337C330.072 45.1935 333.201 48.3225 337.061 48.3225Z" fill="#CBFDFD" stroke="black" stroke-width="0.2" stroke-linecap="round" stroke-linejoin="round"/>
<path d="M228.389 112.085C232.249 112.085 235.378 108.956 235.378 105.096C235.378 101.237 232.249 98.1076 228.389 98.1076C224.529 98.1076 221.4 101.237 221.4 105.096C221.4 108.956 224.529 112.085 228.389 112.085Z" fill="#CBFDFD" stroke="black" stroke-width="0.2" stroke-linecap="round" stroke-linejoin="round"/>
<path d="M33.32 46.7124C31.1867 44.7711 30.12 42.4138 30.12 39.6404C30.12 36.8671 31.1867 34.5204 33.32 32.6004C35.4533 30.6591 38.1733 29.6458 41.48 29.5604V27.1604H45.16V29.5604C48.4667 29.6458 51.1867 30.6591 53.32 32.6004C55.4533 34.5204 56.52 36.8671 56.52 39.6404C56.52 42.4138 55.4533 44.7711 53.32 46.7124C51.1867 48.6324 48.4667 49.6351 45.16 49.7204V52.1204H41.48V49.7204C38.1733 49.6351 35.4533 48.6324 33.32 46.7124ZM45.16 32.9204V46.3604C47.4427 46.2751 49.2667 45.6244 50.632 44.4084C51.9973 43.1711 52.68 41.5818 52.68 39.6404C52.68 37.6991 51.9973 36.1204 50.632 34.9044C49.2667 33.6671 47.4427 33.0058 45.16 32.9204ZM36.008 34.9044C34.6427 36.1204 33.96 37.6991 33.96 39.6404C33.96 41.5818 34.6427 43.1711 36.008 44.4084C37.3733 45.6244 39.1973 46.2751 41.48 46.3604V32.9204C39.1973 33.0058 37.3733 33.6671 36.008 34.9044ZM59.545 51.0004V34.6804H62.905V45.5604L62.873 45.8804H63.193L70.585 34.6804H74.265V51.0004H70.905V40.1204L70.937 39.8004H70.617L63.225 51.0004H59.545ZM76.8275 45.7204H80.1875C80.2728 46.1471 80.4755 46.5738 80.7955 47.0004C81.4782 47.8538 82.5555 48.2804 84.0275 48.2804C85.1795 48.2804 86.0222 48.0884 86.5555 47.7044C87.1102 47.3204 87.3875 46.8191 87.3875 46.2004C87.3875 45.5818 87.1102 45.0804 86.5555 44.6964C86.0222 44.3124 85.1795 44.1204 84.0275 44.1204H82.2675V41.2404H84.0275C86.0542 41.2404 87.0675 40.6004 87.0675 39.3204C87.0675 38.7871 86.8008 38.3391 86.2675 37.9764C85.7342 37.5924 84.9342 37.4004 83.8675 37.4004C82.7368 37.4004 81.8408 37.7524 81.1795 38.4564C80.9448 38.7338 80.7742 39.0751 80.6675 39.4804H77.3075C77.5422 38.4991 77.9262 37.6458 78.4595 36.9204C79.6968 35.2138 81.5528 34.3604 84.0275 34.3604C86.0755 34.3604 87.6542 34.7871 88.7635 35.6404C89.8728 36.4938 90.4275 37.5604 90.4275 38.8404C90.4275 40.0564 89.9475 40.9951 88.9875 41.6564C88.6035 41.9551 88.1235 42.1898 87.5475 42.3604V42.4884C88.1235 42.6164 88.6568 42.8404 89.1475 43.1604C90.2142 43.8858 90.7475 44.9524 90.7475 46.3604C90.7475 47.7898 90.1608 48.9738 88.9875 49.9124C87.8355 50.8511 86.1822 51.3204 84.0275 51.3204C81.1688 51.3204 79.1315 50.3924 77.9155 48.5364C77.3395 47.6618 76.9768 46.7231 76.8275 45.7204ZM93.795 51.0004V34.6804H97.155V45.5604L97.123 45.8804H97.443L104.835 34.6804H108.515V51.0004H105.155V40.1204L105.187 39.8004H104.867L97.475 51.0004H93.795ZM112.358 51.0004V34.6804H115.718V41.0804H118.118L123.078 34.6804H126.918L120.998 42.2004L127.398 51.0004H123.238L118.278 44.1204H115.718V51.0004H112.358ZM129.917 48.9844C128.467 47.4058 127.741 45.3578 127.741 42.8404C127.741 40.3231 128.467 38.2858 129.917 36.7284C131.389 35.1498 133.224 34.3604 135.421 34.3604C136.808 34.3604 138.077 34.7658 139.229 35.5764C139.72 35.9178 140.157 36.3124 140.541 36.7604H140.701V34.6804H144.061V51.0004H140.701V48.7604H140.541C140.221 49.2084 139.784 49.6351 139.229 50.0404C138.077 50.8938 136.808 51.3204 135.421 51.3204C133.224 51.3204 131.389 50.5418 129.917 48.9844ZM132.541 38.8084C131.688 39.7471 131.261 41.0911 131.261 42.8404C131.261 44.5898 131.688 45.9338 132.541 46.8724C133.395 47.8111 134.568 48.2804 136.061 48.2804C137.469 48.2804 138.589 47.8111 139.421 46.8724C140.275 45.9124 140.701 44.5684 140.701 42.8404C140.701 41.1124 140.275 39.7791 139.421 38.8404C138.589 37.8804 137.469 37.4004 136.061 37.4004C134.568 37.4004 133.395 37.8698 132.541 38.8084Z" fill="black"/>
</g>
<defs>
<linearGradient id="paint0_linear_274_529" x1="-11" y1="121.321" x2="224.998" y2="119.482" gradientUnits="userSpaceOnUse">
<stop/>
<stop offset="0.915" stop-opacity="0"/>
</linearGradient>
</defs>
</svg>
