<svg width="179" height="61" viewBox="0 0 179 61" fill="none" xmlns="http://www.w3.org/2000/svg">
<g clip-path="url(#clip0_401_132)">
<path d="M30.5552 15.722H36.9079L45.8918 36.4063L54.8328 15.722H61.1855V44.0013H54.9617V28.8487L48.6564 44.0013H43.0762L36.7706 28.8487V44.0013H30.5552V15.722Z" fill="#FFAA44"/>
<path d="M7.69165 43.2088C-2.5362 38.0071 -2.59153 21.7024 7.69165 16.6398C14.3436 13.2149 24.6227 15.0353 27.3216 24.4424L21.0221 25.7936C19.8479 21.8394 14.7063 19.963 10.616 22.3293C9.32127 23.1209 8.24784 24.2346 7.49754 25.5646C6.74723 26.8946 6.34493 28.3967 6.32892 29.9284C6.32892 33.3554 7.9683 36.4752 11.0094 37.8473C14.4542 39.3978 19.5549 38.2354 21.0221 34.0612L27.2785 35.4124C24.6965 44.6991 14.4399 46.4365 7.69165 43.2088Z" fill="#FFAA44"/>
<path d="M66.7763 15.722H73.354V34.6461L85.2174 15.722H92.3101V44.0013H85.7338V25.0792L73.8686 44.0055H66.7763V15.722Z" fill="#FFAA44"/>
<path d="M104.087 20.9735H96.5231V15.722H118.231V20.9735H110.665V44.0013H104.087V20.9735Z" fill="#FFAA44"/>
<path d="M154.37 15.722H179V44.0013H172.424V20.9735H160.948V44.0013H154.372L154.37 15.722Z" fill="#FFAA44"/>
<path d="M147.845 49.4296L138.418 32.2966H133.117L123.28 49.4296L129.603 49.4148C129.603 49.4148 131.205 46.3264 132.59 43.9974V60.9703H138.533V43.9974C139.916 46.3201 141.521 49.4148 141.521 49.4148L147.845 49.4296Z" fill="#FFAA44"/>
<path d="M127.313 29.8537L129.887 23.5332H141.41L143.828 29.8537H150.685L138.617 0.0279388H132.674L120.434 29.8537H127.313ZM135.654 7.56894L139.437 18.2464H131.871L135.654 7.56894Z" fill="#FFAA44"/>
</g>
<defs>
<clipPath id="clip0_401_132">
<rect width="179" height="61" fill="white"/>
</clipPath>
</defs>
</svg>
