<svg width="179" height="69" viewBox="0 0 179 69" fill="none" xmlns="http://www.w3.org/2000/svg">
<path d="M178.606 31.4451C178.606 31.0528 178.663 30.7165 178.606 30.3241C178.55 29.9878 178.55 29.6515 178.606 29.3712C178.606 29.2591 178.606 29.147 178.606 29.0349C178.606 28.5865 178.494 28.1941 178.55 27.7457C178.606 27.3533 178.606 26.961 178.606 26.5126C178.606 26.4005 178.606 26.2323 178.606 26.1202C178.55 25.6157 178.438 25.1113 178.494 24.5507C178.55 24.1584 178.55 23.71 178.438 23.3176C178.438 23.2055 178.438 23.0934 178.438 23.0373C178.438 22.9252 178.438 22.8131 178.438 22.645C178.438 22.1405 178.438 21.636 178.438 21.1316C178.438 20.9634 178.438 20.7392 178.382 20.5711C178.382 20.4589 178.325 20.3468 178.325 20.1787C178.325 19.8984 178.325 19.6182 178.325 19.394C178.325 18.9455 178.269 18.5532 178.269 18.1048C178.269 17.8245 178.269 17.5442 178.213 17.264C178.213 16.8716 178.213 16.4793 178.213 16.1429C178.213 15.9187 178.213 15.6945 178.157 15.4143C178.101 15.3022 178.101 15.1901 178.101 15.0219C178.101 14.4614 178.101 13.9569 178.101 13.3964C178.101 13.2843 178.101 13.1722 178.101 13.0601C178.157 12.5556 178.157 12.0511 178.044 11.5467C178.044 11.4346 178.044 11.3785 178.044 11.2664C178.044 11.0422 178.044 10.818 178.044 10.5938C178.044 10.4256 177.988 10.2575 178.044 10.0893C178.157 9.64091 177.819 9.24855 177.37 9.1925C176.92 9.13645 176.47 9.08039 176.02 9.02434C175.514 8.96829 175.008 8.91224 174.446 8.85619C174.165 8.85619 173.94 8.85619 173.659 8.91224C173.434 8.91224 173.209 9.02434 173.041 9.1925C172.704 9.58486 172.366 9.97723 172.085 10.3696C171.635 11.0422 171.354 11.7709 171.073 12.5556C170.736 13.4524 170.399 14.2932 169.949 15.134C169.612 15.7506 169.33 16.4793 169.049 17.0958C169.049 17.0958 169.049 17.0958 169.049 17.1519C168.824 17.7685 168.6 18.385 168.318 19.0016C168.15 19.394 167.981 19.7303 167.813 20.1226C167.756 20.2908 167.7 20.4589 167.644 20.6832H167.588C167.588 20.2347 167.531 19.8424 167.531 19.394C167.531 19.1137 167.588 18.8334 167.588 18.6092C167.531 18.2169 167.531 17.8806 167.588 17.4882C167.588 17.32 167.588 17.1519 167.588 16.9837C167.588 16.5914 167.588 16.255 167.588 15.8627C167.588 15.6945 167.588 15.4703 167.588 15.3022C167.588 14.8537 167.588 14.3493 167.588 13.9009C167.588 13.7327 167.588 13.5085 167.588 13.3403C167.588 13.004 167.531 12.7238 167.531 12.3875C167.531 11.3225 167.588 10.2575 167.531 9.24855C167.531 8.80013 167.025 8.46382 166.576 8.57593C166.576 8.68803 166.632 8.74408 166.632 8.85619C166.238 8.91224 165.901 8.96829 165.508 8.96829C165.114 8.96829 164.777 8.91224 164.383 8.91224C163.99 8.91224 163.596 8.91224 163.259 8.91224C163.146 8.91224 163.034 8.96829 162.978 9.02434C162.809 9.1925 162.697 9.36065 162.528 9.47276C162.416 9.64091 162.247 9.75302 162.134 9.92117C161.91 10.2014 161.685 10.4817 161.628 10.8741C161.572 11.2104 161.572 11.5467 161.572 11.883C161.572 12.4996 161.572 13.1722 161.572 13.7888C161.572 14.1251 161.572 14.4614 161.572 14.7977C161.572 14.9659 161.572 15.134 161.572 15.3022C161.572 15.6385 161.516 15.9748 161.516 16.3111C161.516 16.7035 161.572 17.0398 161.572 17.4321C161.572 17.5442 161.572 17.6563 161.572 17.8245C161.572 18.1048 161.572 18.385 161.572 18.6092C161.572 18.9455 161.572 19.2258 161.572 19.5621C161.572 19.7863 161.572 20.0666 161.572 20.2908C161.516 20.7953 161.516 21.2997 161.572 21.8602C161.572 22.0284 161.572 22.2526 161.572 22.4208C161.572 22.8131 161.516 23.2055 161.516 23.5979C161.516 23.9902 161.572 24.3826 161.572 24.775C161.572 24.831 161.572 24.9431 161.572 24.9992C161.572 25.4476 161.46 25.8399 161.572 26.2884C161.628 26.4565 161.572 26.6247 161.572 26.7928C161.516 27.2973 161.46 27.7457 161.516 28.2502C161.516 28.5865 161.572 28.9228 161.572 29.2591C161.572 29.4273 161.628 29.5954 161.628 29.7636C161.628 30.212 161.572 30.7165 161.572 31.1649C161.572 31.5012 161.628 31.8375 161.628 32.1738C161.628 32.7904 161.572 33.3509 161.572 33.9675C161.572 34.528 161.797 34.8643 162.303 35.0885C162.64 35.2567 163.034 35.3127 163.427 35.3688C164.046 35.4809 164.608 35.5369 165.226 35.5369C165.62 35.4809 165.901 35.3688 166.126 35.0885C166.295 34.9204 166.407 34.7522 166.576 34.6401C167.082 34.2477 167.475 33.7433 167.925 33.2388C167.981 33.1827 168.037 33.1267 168.037 33.0146C168.318 32.342 168.6 31.6693 168.881 31.0528C169.106 30.5483 169.274 30.0999 169.499 29.5954C169.836 28.8667 170.174 28.1381 170.511 27.4094C170.736 26.961 170.848 26.4565 171.073 25.952C171.41 25.0552 171.804 24.1584 172.198 23.2615C172.254 23.1494 172.31 23.0934 172.366 22.9813H172.422C172.422 23.0934 172.479 23.1494 172.479 23.2615C172.479 23.6539 172.422 24.0463 172.479 24.4947C172.479 25.2794 172.535 26.0081 172.591 26.7928C172.591 27.017 172.591 27.1852 172.591 27.4094C172.591 27.9139 172.591 28.4183 172.647 28.9228C172.647 29.2031 172.647 29.4833 172.704 29.7075C172.76 30.0438 172.76 30.3241 172.704 30.6604C172.647 31.1088 172.591 31.5572 172.816 31.9496C172.872 32.0617 172.872 32.1738 172.872 32.2859C172.816 32.8464 172.816 33.463 172.872 34.0235C172.928 34.528 173.378 34.8643 173.884 34.8643C173.997 34.8643 174.165 34.8643 174.278 34.9204C174.671 35.0885 175.065 34.9764 175.458 35.0325C175.852 35.0885 176.245 34.9764 176.639 34.8083C176.864 34.6962 177.089 34.584 177.257 34.4159C177.426 34.3038 177.595 34.1356 177.707 34.0235C178.438 33.463 178.719 32.6783 178.606 31.7814C178.606 31.7814 178.606 31.6133 178.606 31.4451Z" fill="black"/>
<path d="M45.9306 44.6734C45.9306 44.1129 45.8744 43.4963 45.9306 42.8798C45.9306 42.5995 45.8744 42.4313 45.6495 42.3753C45.4809 42.3192 45.3684 42.2071 45.256 42.039C45.1435 41.8148 44.9749 41.7027 44.75 41.7027C44.6376 41.7027 44.5251 41.6466 44.4689 41.6466C43.7943 41.4785 43.1197 41.4224 42.4451 41.3664C42.1077 41.3664 41.7704 41.3664 41.4331 41.3664C40.5336 41.4785 39.5779 41.4785 38.6784 41.4785C37.3292 41.4785 35.9237 41.4785 34.5744 41.5906C34.3496 41.5906 34.0685 41.7027 33.8436 41.8148C33.5625 41.9829 33.2814 42.095 32.9441 42.095C32.663 42.095 32.3819 42.2632 32.157 42.4874C31.9884 42.6556 31.8197 42.8237 31.6511 43.0479C31.5949 43.16 31.4824 43.3282 31.4824 43.4963C31.4824 43.8326 31.4262 44.225 31.4262 44.5613C31.4262 44.7295 31.4262 44.8976 31.4262 45.0658C31.4262 45.29 31.4824 45.5142 31.4824 45.7384C31.4824 45.9626 31.4824 46.1868 31.4824 46.411C31.4824 46.5792 31.4824 46.6913 31.4824 46.8595C31.4824 47.5321 31.4824 48.2047 31.4824 48.8213C31.4824 48.8213 31.4824 48.8213 31.4824 48.8773C31.4824 49.1576 31.4824 49.4378 31.4824 49.6621C31.4824 49.8302 31.4262 49.9984 31.4824 50.1105C31.5386 50.5028 31.5386 50.8391 31.5386 51.2315C31.5386 51.9602 31.5386 52.7449 31.5949 53.4736C31.5949 54.3704 31.6511 55.3233 31.6511 56.2201C31.6511 56.7246 31.6511 57.173 31.7073 57.6775C31.7073 58.182 31.7635 58.6864 31.7635 59.1909C31.7635 59.4712 31.7635 59.7514 31.7635 60.0317C31.7635 60.368 31.7635 60.7043 31.7635 61.0406C31.7635 61.7132 31.8197 62.3859 31.8197 63.0585C31.8197 63.2827 31.7635 63.5069 31.8197 63.7311C31.8197 64.2916 31.876 64.9082 31.876 65.4687C31.876 65.9732 31.9322 66.4777 31.876 66.9821C31.876 67.4866 32.2133 67.935 32.7755 68.0471C33.0565 68.1032 33.3376 68.1032 33.6187 68.1592C34.0685 68.2153 34.5182 68.1592 34.9118 67.9911C35.5864 67.7668 36.2048 67.4866 36.767 67.0382C37.2729 66.6458 37.554 66.0853 37.6103 65.4127C37.6103 64.9082 37.6665 64.3477 37.6665 63.8432C37.6665 63.6751 37.6665 63.4508 37.6665 63.2827C37.6665 62.9464 37.6665 62.6661 37.6665 62.3298C37.6665 61.8814 37.7227 61.433 37.7227 60.9846C37.7227 60.6482 37.7227 60.368 37.7227 60.0317C37.7789 59.6954 37.7789 59.359 37.7227 58.9667C37.7227 58.7425 37.7227 58.5183 37.7227 58.2941C37.7227 58.182 37.7227 58.0699 37.7227 57.9578C37.7227 57.2291 37.7789 56.5564 37.7789 55.8278C37.7789 55.6036 37.7789 55.3794 37.7789 55.1552C37.7789 54.8749 37.7227 54.5946 37.8351 54.3144C37.8913 54.2023 37.8351 54.0341 37.8351 53.922C37.7789 53.4175 37.8351 52.9691 37.8351 52.4647C37.8913 51.736 37.8913 50.9513 37.8351 50.2226C37.8351 49.9423 37.8351 49.7181 37.8913 49.4378C37.8913 49.3257 37.9476 49.1576 37.8913 49.0455C37.8351 48.7092 37.8913 48.3168 37.8913 47.9805C37.8913 47.7563 37.8913 47.476 37.8913 47.2518C37.8913 47.0837 37.8913 46.8595 37.8913 46.6913C37.9476 46.411 37.9476 46.355 38.2287 46.355C38.3973 46.355 38.5098 46.355 38.6784 46.355C38.7908 46.6913 38.8471 46.9716 38.8471 47.3639C38.8471 47.5881 38.8471 47.7563 38.8471 47.9805C38.8471 48.7652 38.8471 49.55 38.9033 50.3347C38.9033 50.7831 38.9595 51.1755 38.9595 51.6239C38.9595 51.9041 38.9595 52.1844 38.9595 52.4647C38.9595 52.6889 38.9595 52.9131 38.9595 53.1933C38.9595 53.8099 39.0157 54.3704 39.0719 54.987C39.0719 55.4354 39.0719 55.8278 39.1282 56.2762C39.1282 56.4443 39.1282 56.6686 39.1282 56.8367C39.1282 57.0049 39.1282 57.173 39.1282 57.3412C39.1282 57.6775 39.1844 58.0699 39.1844 58.4062C39.1844 58.9106 39.1844 59.3591 39.1844 59.8635C39.1844 59.9196 39.1844 59.9196 39.1844 59.9756C39.1844 60.2559 39.2406 60.5361 39.2406 60.8164C39.2406 61.2648 39.2406 61.7693 39.2406 62.2177C39.2406 62.8343 39.2968 63.5069 39.353 64.1235C39.353 64.2916 39.353 64.5158 39.353 64.684C39.353 65.3006 39.353 65.9171 39.4092 66.5337C39.4092 66.7019 39.4092 66.814 39.4092 66.9821C39.4092 67.3745 39.8028 67.7668 40.1963 67.8229C40.5898 67.879 40.8709 67.9911 41.2082 68.2153C41.2645 68.2713 41.3769 68.3274 41.4331 68.3274C42.0515 68.4395 42.7261 68.5516 43.4008 68.5516C43.6256 68.5516 43.8505 68.4955 44.0754 68.3274C44.1878 68.2153 44.3565 68.1032 44.5251 68.0471C45.256 67.5987 45.5371 66.9821 45.4809 66.1413C45.4809 66.0853 45.4809 65.9732 45.4809 65.9171C45.4809 65.4687 45.5371 65.0203 45.4809 64.6279C45.3684 63.8432 45.5933 63.1145 45.4809 62.3298C45.4809 62.2738 45.4809 62.2738 45.4809 62.2177C45.5371 61.8253 45.6495 61.3769 45.4809 60.9846C45.4809 60.9285 45.4809 60.9285 45.4809 60.8725C45.4809 59.5833 45.4809 58.3501 45.5371 57.0609C45.5371 56.8367 45.5371 56.6125 45.5933 56.3883C45.6495 56.052 45.6495 55.6596 45.5933 55.3233C45.5371 55.1551 45.5933 54.987 45.5933 54.8188C45.5933 54.3704 45.5933 53.922 45.6495 53.4736C45.6495 52.9131 45.7057 52.2965 45.7057 51.736C45.7057 51.1755 45.8182 50.5589 45.762 49.9984C45.7057 49.4939 45.762 49.0455 45.762 48.5971C45.762 48.2047 45.7619 47.8123 45.8182 47.42C45.8744 47.1397 45.8744 46.8595 45.762 46.5792C45.7057 46.4671 45.762 46.2989 45.762 46.1868C45.9306 45.6263 45.9306 45.1218 45.9306 44.6734Z" fill="black"/>
<path d="M136.218 48.8213C136.218 48.7652 136.218 48.6531 136.161 48.5971C136.161 48.485 136.105 48.4289 136.105 48.3168C135.993 47.8684 135.824 47.3639 135.712 46.9155C135.655 46.6353 135.543 46.355 135.374 46.0748C135.206 45.7945 134.981 45.4582 134.868 45.1219C134.7 44.6174 134.419 44.225 134.081 43.8327C133.856 43.5524 133.575 43.3282 133.35 43.0479C132.732 42.3753 131.945 41.983 131.102 41.7027C130.54 41.5345 129.921 41.4785 129.303 41.3664C128.516 41.2543 127.672 41.1422 126.885 41.0861C126.492 41.0301 126.042 40.918 125.649 40.918C124.805 40.918 124.018 40.918 123.175 40.974C122.275 41.0301 121.376 41.2543 120.42 41.1982C120.308 41.1982 120.195 41.1982 120.139 41.2543C119.802 41.4785 119.521 41.7587 119.464 42.1511C119.352 42.6556 119.352 43.2161 119.352 43.7766C119.352 44.6174 119.408 45.4582 119.408 46.299C119.408 47.3079 119.408 48.3168 119.408 49.3258C119.408 49.7742 119.464 50.2787 119.464 50.7271C119.464 51.1194 119.464 51.5678 119.464 51.9602C119.464 53.4176 119.464 54.8749 119.521 56.3323C119.521 56.7246 119.521 57.117 119.521 57.5094C119.521 57.9017 119.521 58.238 119.521 58.6304C119.521 59.6393 119.577 60.7043 119.577 61.7133C119.577 62.9464 119.577 64.2356 119.577 65.4687C119.577 65.749 119.577 66.0293 119.577 66.3656C119.577 66.7019 119.802 66.9261 120.139 66.9821C120.308 66.9821 120.533 67.0382 120.701 67.0382C121.376 67.0942 121.826 66.814 122.219 66.3095C122.388 66.0853 122.444 65.8051 122.444 65.5248C122.388 65.2445 122.388 64.9082 122.388 64.628C122.388 64.2917 122.388 63.8993 122.388 63.563C122.388 63.1706 122.388 62.7782 122.388 62.3859C122.444 62.3859 122.5 62.3298 122.5 62.3298C123.681 62.2738 124.805 62.1056 125.93 61.8814C127.054 61.7133 128.178 61.6012 129.303 61.3209C130.09 61.0967 130.933 60.9285 131.664 60.4801C132.451 60.0317 133.182 59.5272 133.856 58.8546C134.25 58.4622 134.644 58.0699 134.925 57.5654C135.206 57.0049 135.487 56.3883 135.768 55.8278C135.88 55.5475 135.993 55.2673 136.049 54.987C136.161 54.5947 136.161 54.1462 136.274 53.7539C136.386 53.2494 136.443 52.7449 136.386 52.2405C136.386 51.7921 136.33 51.2876 136.33 50.8392C136.443 50.1105 136.443 49.4379 136.218 48.8213ZM126.098 54.7068C125.986 54.8189 125.93 54.8749 125.817 54.931C125.424 55.1552 124.974 55.3794 124.524 55.3794C123.85 55.4354 123.175 55.4354 122.444 55.4354C122.444 53.3615 122.444 51.3436 122.444 49.3818C122.5 49.3258 122.5 49.3258 122.5 49.3258C123.006 49.3258 123.512 49.3258 124.018 49.3258C124.074 49.3258 124.187 49.3258 124.243 49.3818C124.693 49.6621 125.199 49.7742 125.592 50.1105C125.649 50.1665 125.761 50.2226 125.873 50.2786C126.436 50.5029 126.604 51.0073 126.717 51.5678C126.773 51.736 126.773 51.9602 126.829 52.1284C126.942 53.0252 126.885 53.922 126.098 54.7068Z" fill="black"/>
<path d="M92.3109 63.8993C92.3109 63.7872 92.3109 63.6751 92.3109 63.563C92.2547 62.8343 92.1985 62.1617 92.2547 61.433C92.2547 61.3769 92.2547 61.3209 92.2547 61.2648C92.086 60.4241 91.9174 59.5833 91.8612 58.7425C91.8049 58.0699 91.7487 57.3412 91.7487 56.6686C91.7487 56.2202 91.805 55.7717 91.805 55.3233C91.805 55.0991 91.8612 54.8189 91.805 54.5946C91.7487 54.4825 91.805 54.3704 91.805 54.2023C91.805 53.6418 91.7487 53.0812 91.7487 52.5207C91.7487 52.4647 91.7487 52.3526 91.6925 52.2965C91.4676 51.736 91.6363 51.1194 91.5801 50.5028C91.5801 49.8863 91.6363 49.2137 91.6363 48.5971C91.6363 48.541 91.6363 48.541 91.6363 48.485C91.5801 48.1487 91.5801 47.8124 91.5801 47.476C91.6363 46.8595 91.6363 46.1868 91.6363 45.5703C91.6363 45.1779 91.6925 44.7855 91.7487 44.4492C91.7487 44.225 91.6925 43.9448 91.7487 43.7206C91.8049 43.2721 91.8049 42.8798 91.7487 42.4314C91.6925 41.8708 91.3552 41.5345 90.793 41.3664C90.5119 41.2543 90.1746 41.1982 89.8373 41.1422C89.6124 41.0861 89.3313 41.0861 89.1065 41.1422C88.6005 41.1982 88.1507 41.3664 87.7572 41.7027C87.5886 41.8708 87.3637 41.9829 87.2512 42.1511C86.8577 42.5995 86.6891 43.104 86.6891 43.7206C86.6891 44.1129 86.7453 44.5613 86.6328 44.9537C86.5766 45.0658 86.6328 45.1779 86.6328 45.3461C86.6328 45.7384 86.6328 46.1308 86.6328 46.5792C86.6328 47.1397 86.5204 47.6442 86.5766 48.2047C86.6891 49.2697 86.408 50.3347 86.1269 51.3436C85.9582 52.0163 85.6771 52.7449 85.396 53.4176C85.1149 54.0902 84.8901 54.8189 84.609 55.4915C84.4403 55.8278 84.2717 56.2202 84.103 56.5565C83.8781 56.9488 83.6532 57.3412 83.4284 57.7336C83.0911 58.4622 82.6413 59.1349 82.1354 59.8075C81.8543 60.1438 81.6294 60.4801 81.4045 60.8164C81.2921 60.9846 81.1796 61.1527 81.011 61.3209C80.9548 61.3769 80.8423 61.433 80.7861 61.433C80.7299 61.433 80.6737 61.3209 80.6737 61.2648C80.6174 60.7043 80.6174 60.1998 80.5612 59.6393C80.5612 59.4712 80.5612 59.303 80.5612 59.1349C80.4488 58.3501 80.6737 57.6215 80.6174 56.8367C80.6174 56.5004 80.6737 56.1641 80.6737 55.8278C80.6737 55.6036 80.6737 55.3794 80.6737 55.0991C80.6737 54.7628 80.7861 54.4825 80.7861 54.1462C80.7861 53.3615 80.7861 52.5207 80.7861 51.736C80.7861 51.2315 80.7861 50.7271 80.7861 50.1665C80.7861 49.9984 80.7861 49.8302 80.7861 49.7181C80.6174 49.1015 80.6737 48.485 80.7299 47.9245C80.7299 47.3639 80.7861 46.8595 80.7861 46.2989C80.7861 45.9066 80.8423 45.5142 80.7861 45.1219C80.7861 44.7295 80.7861 44.3371 80.7299 43.9448C80.6737 43.5524 80.5612 43.16 80.505 42.7677C80.4488 42.4874 80.1677 42.1511 79.8866 42.1511C79.5493 42.095 79.1558 41.9829 78.8185 41.9829C78.3687 41.9269 77.9752 41.9269 77.6379 42.2632C77.5816 42.3193 77.5254 42.3753 77.413 42.3753C77.1881 42.4874 77.0757 42.6556 76.9632 42.8798C76.5697 43.4403 76.5697 44.1129 76.5135 44.7295C76.5135 44.9537 76.5135 45.234 76.5135 45.5142C76.5135 45.8505 76.5697 46.1868 76.5135 46.5232C76.4011 47.1397 76.3448 47.7002 76.3448 48.3168C76.3448 48.5971 76.3448 48.8773 76.3448 49.1576C76.3448 49.2137 76.3448 49.2697 76.3448 49.3258C76.3448 49.4939 76.2886 49.6621 76.2886 49.8302C76.2886 50.1105 76.3448 50.3907 76.3448 50.671C76.3448 50.7831 76.4011 50.9513 76.3448 51.0634C76.2324 51.3997 76.2886 51.736 76.2886 52.0723C76.2886 52.6328 76.3448 53.1373 76.3448 53.6978C76.3448 53.922 76.2886 54.2023 76.2886 54.4265C76.3448 54.7067 76.4011 54.987 76.2886 55.2673C76.2886 55.2673 76.2886 55.3233 76.2886 55.3794C76.2886 55.9959 76.2886 56.5565 76.2324 57.173C76.1762 57.7336 76.0637 58.2941 76.1762 58.8546C76.1762 58.9106 76.12 59.0228 76.12 59.1349C76.12 59.3591 76.0637 59.6393 76.12 59.8635C76.12 60.1998 76.1762 60.5362 76.1762 60.8725C76.1762 61.5451 76.12 62.1617 76.2324 62.8343C76.2324 62.8903 76.2324 63.0024 76.2324 63.0585C76.2324 63.2267 76.2324 63.3388 76.2324 63.5069C76.2324 63.8993 76.2324 64.2356 76.2324 64.628C76.2324 64.8522 76.2886 65.0764 76.2324 65.2445C76.1762 65.6369 76.2324 65.9732 76.3448 66.3095C76.4011 66.5337 76.4573 66.7019 76.5135 66.9261C76.5697 67.2063 76.7384 67.3745 77.0195 67.4306C77.3006 67.4866 77.5816 67.4866 77.8627 67.5427C78.3125 67.5987 78.8185 67.5427 79.2682 67.5987C79.8866 67.7108 80.4488 67.4866 80.8985 67.0942C81.3483 66.7019 81.798 66.3095 82.2478 65.9171C83.0911 65.1885 83.8219 64.4037 84.4403 63.5069C84.7776 63.0024 85.1712 62.498 85.5085 61.9935C85.8458 61.5451 86.1831 61.0406 86.5204 60.5922C86.5766 60.4801 86.6891 60.368 86.7453 60.2559C86.9702 60.368 86.9139 60.5362 86.9139 60.6483C86.9139 60.8725 86.9139 61.0967 87.0264 61.2648C87.1388 61.6011 87.3075 61.9375 87.2512 62.3298C87.2512 62.4419 87.2512 62.6101 87.3075 62.7782C87.3637 63.0024 87.3637 63.2267 87.3637 63.4509C87.3637 63.9553 87.3075 64.5158 87.4199 65.0203C87.4761 65.1885 87.4199 65.3006 87.4199 65.4687C87.4199 65.6929 87.4199 65.9171 87.4761 66.1414C87.5323 66.3656 87.5323 66.5898 87.5323 66.814C87.5323 66.87 87.4761 66.9821 87.4761 67.0382C87.4199 67.4306 87.5886 67.7108 88.0383 67.8229C88.3194 67.879 88.5443 67.879 88.8254 67.935C88.994 67.935 89.2189 67.9911 89.3875 67.9911C89.8373 68.0471 90.3433 68.1032 90.793 68.1032C91.0741 68.1032 91.2428 67.9911 91.4114 67.8229C91.6363 67.5987 91.8612 67.3184 92.086 67.0942C92.2547 66.87 92.3671 66.5898 92.3671 66.3095C92.3671 66.1414 92.3671 66.0293 92.3671 65.8611C92.4234 65.5248 92.3671 65.2445 92.3109 64.9082C92.3109 64.2356 92.3109 64.0674 92.3109 63.8993Z" fill="black"/>
<path d="M85.8458 33.8554C86.4642 34.9204 87.0826 35.9854 87.7572 37.0503C87.8697 37.2746 88.0945 37.3867 88.3756 37.4427C88.7691 37.4988 89.1065 37.4988 89.3876 37.1625C89.4438 37.1064 89.4438 37.1064 89.5 37.0503C90.7368 35.9854 92.0298 34.8643 93.2666 33.7993C93.6039 33.5191 93.7726 33.1267 93.8288 32.6783C93.885 31.1649 93.885 29.5954 93.9413 28.082C93.9413 26.7928 93.9975 25.4476 93.9975 24.1584C93.9975 23.0373 94.0537 21.9163 94.1099 20.8513C94.1661 19.5061 94.1661 18.2169 94.1661 16.8716C94.1661 16.5914 94.1661 16.3111 94.2224 16.0308C95.0094 16.0308 95.7965 16.0308 96.6397 16.0308C96.6397 16.3111 96.6397 16.5353 96.6397 16.8156C96.5273 17.8806 96.4711 19.0016 96.3587 20.0666C96.3024 20.515 96.3024 20.9074 96.2462 21.3558C96.19 22.0284 96.1338 22.645 96.0776 23.3176C96.0213 24.1584 95.9651 24.9431 95.9089 25.7839C95.8527 26.4005 95.7965 27.017 95.7403 27.6336C95.6278 28.8107 95.5716 29.9878 95.4592 31.1088C95.4029 31.9496 95.2905 32.8464 95.2343 33.6872C95.1781 34.3598 95.1219 35.0885 95.0656 35.7611C95.0656 36.0414 95.1218 36.2096 95.4029 36.3217C95.5716 36.3777 95.7965 36.4338 95.9651 36.4338C96.6397 36.4338 97.3144 36.3777 98.0452 36.3217C99.1696 36.2656 100.238 36.2096 101.362 36.1535C101.475 36.1535 101.587 36.1535 101.643 36.0975C101.868 35.9854 102.149 35.649 102.093 35.4809C101.981 35.2006 102.037 34.8643 101.981 34.5841C101.981 33.3509 101.981 32.1178 101.981 30.9407C101.981 30.0438 101.981 29.091 101.981 28.1941C101.981 27.2412 101.981 26.2884 101.981 25.2794C101.981 24.775 101.981 24.2705 101.981 23.71C101.981 22.7571 101.981 21.8042 101.981 20.8513C101.981 19.8984 101.981 18.8895 101.981 17.9366C101.981 17.4321 101.981 16.9837 101.981 16.4793C101.981 15.8066 101.981 15.134 101.981 14.4614C101.981 13.8448 101.981 13.1722 101.981 12.5556C101.981 11.7148 101.981 10.8741 101.981 10.0333C101.981 9.64092 101.981 9.30461 101.981 8.91224C101.981 8.74409 101.868 8.63198 101.699 8.51988C101.475 8.40778 101.25 8.40778 101.025 8.40778C98.3263 8.40778 95.684 8.46383 92.9855 8.46383C92.0298 8.46383 91.1303 8.46383 90.1746 8.51988C89.6686 8.51988 89.3313 8.91224 89.2751 9.41671C89.2751 10.6499 89.2189 11.883 89.2189 13.1722C89.2189 13.9569 89.2189 14.7977 89.2189 15.5824C89.2189 16.7595 89.1627 17.9927 89.1627 19.1698C89.1627 19.7303 89.1627 20.2347 89.1627 20.7953C89.1627 21.4118 89.1065 21.9724 89.1065 22.5889C89.1065 23.8781 89.1065 25.1113 89.0502 26.4005C89.0502 27.2973 89.0502 28.1381 88.994 29.0349C88.994 29.5394 88.994 30.0438 88.994 30.5483C88.994 30.7725 88.8816 30.8846 88.7691 31.0528C88.0945 31.7254 87.3637 32.4541 86.6891 33.1267C86.5766 33.2388 86.4642 33.2949 86.3517 33.3509C85.8458 33.2949 85.6771 33.5751 85.8458 33.8554ZM92.2547 33.2949C91.6363 33.8554 91.0179 34.3598 90.3995 34.9204C90.3433 34.9764 90.287 34.9764 90.2308 35.0325C89.6686 35.2567 89.1627 35.4809 88.6005 35.7051C88.5443 35.593 88.4881 35.4809 88.3756 35.3688C88.6567 35.2006 88.8816 35.0325 89.1065 34.9204C89.1627 34.8643 89.2751 34.8083 89.3313 34.8083C90.3995 34.4159 91.299 33.7993 92.2547 33.1828C92.3109 33.1828 92.3109 33.1267 92.4234 33.1828C92.3671 33.1828 92.3109 33.2388 92.2547 33.2949ZM92.3671 32.6222C92.3671 32.6783 92.2547 32.7343 92.1985 32.7343C91.6363 33.0146 91.1303 33.2949 90.5681 33.5751C90.1746 33.7433 89.8373 33.9675 89.4438 34.1356C88.994 34.3598 88.5443 34.5841 88.0383 34.8083C87.9821 34.6962 87.9259 34.5841 87.8696 34.4159C88.7129 34.0796 89.3876 33.5191 90.1184 33.0707C90.793 32.6222 91.5239 32.2299 92.2547 31.8375C92.2547 31.8375 92.3109 31.8375 92.3671 31.8375C92.4234 32.1178 92.4234 32.342 92.3671 32.6222ZM97.8766 35.0885C97.6517 35.3127 97.4268 35.4809 97.0895 35.4248C96.9771 35.4248 96.8646 35.4248 96.8084 35.4248C96.8084 35.4248 96.8084 35.3688 96.7522 35.3688C96.9208 35.2006 97.0333 35.0325 97.2019 34.8643C97.8203 34.1917 98.495 33.5751 99.1134 32.9025C99.5069 32.4541 99.8442 31.9496 100.238 31.4451C100.294 31.3891 100.294 31.333 100.406 31.277C100.406 31.6133 100.519 31.9496 100.182 32.2299C99.788 32.6222 99.5069 33.0707 99.1696 33.5191C98.7761 34.0796 98.3263 34.5841 97.8766 35.0885ZM100.463 35.2006C100.35 35.2006 100.238 35.2006 100.069 35.2567C100.182 35.0885 100.294 34.9764 100.35 34.8643H100.406C100.463 34.9764 100.463 35.0885 100.463 35.2006ZM100.35 33.9114C100.069 34.3038 99.788 34.6962 99.5069 35.0885C99.3382 35.3127 99.1134 35.3688 98.8885 35.3688C98.7761 35.3688 98.6636 35.3688 98.495 35.3688C99.282 34.6401 99.8442 33.7993 100.519 32.9585C100.463 33.2949 100.519 33.6312 100.35 33.9114ZM100.463 30.212C100.463 30.2681 100.406 30.3241 100.406 30.3241C100.125 30.7165 99.788 31.1088 99.5631 31.5012C99.1134 32.1738 98.6074 32.6783 98.0452 33.2388C97.5955 33.6872 97.2019 34.1917 96.7522 34.6401C96.696 34.6962 96.6398 34.8083 96.5835 34.8643C96.5273 34.8643 96.5273 34.8083 96.4711 34.8083C96.4711 34.7522 96.4711 34.6401 96.4711 34.5841C96.5273 34.1917 96.5273 33.7993 96.5835 33.407C96.5835 33.2949 96.696 33.1828 96.7522 33.0707C97.3144 32.5662 97.8766 32.0617 98.3825 31.5572C99.0571 30.8846 99.6756 30.212 100.35 29.5394C100.35 29.5394 100.406 29.4833 100.463 29.4273C100.463 29.8196 100.463 30.0438 100.463 30.212ZM100.294 28.7546C99.3945 29.8757 98.4387 30.8286 97.3706 31.7815C97.1457 32.0057 96.9208 32.2299 96.696 32.398C96.696 32.398 96.6397 32.398 96.6397 32.342C96.6397 32.1738 96.6397 32.0057 96.696 31.8375C96.7522 31.7254 96.8084 31.6133 96.8646 31.5572C97.5392 30.8846 98.2139 30.2681 98.8885 29.5954C99.3382 29.147 99.788 28.6986 100.182 28.2502C100.238 28.1941 100.294 28.1381 100.35 28.082C100.519 28.4183 100.406 28.5865 100.294 28.7546ZM97.4268 29.0349C97.9328 28.5304 98.4387 28.026 99.0009 27.5215C99.3945 27.1291 99.8442 26.7368 100.182 26.2884C100.238 26.2323 100.294 26.1763 100.35 26.0642H100.406C100.406 26.4005 100.406 26.6807 100.406 27.017C100.406 27.0731 100.35 27.1852 100.294 27.2412C99.5069 28.2502 98.6074 29.147 97.6517 30.0438C97.3706 30.3241 97.0895 30.5483 96.8084 30.8846C96.8084 30.7165 96.8646 30.5483 96.8084 30.3802C96.7522 29.8757 97.0333 29.4273 97.4268 29.0349ZM96.9771 28.8107C96.9771 28.3623 96.9771 27.9699 97.3144 27.6336C98.0452 26.8489 98.8323 26.1202 99.6756 25.3915C99.9004 25.1673 100.125 24.9431 100.463 24.6629C100.519 25.0552 100.575 25.3915 100.182 25.6718C100.013 25.7839 99.8442 26.0081 99.7318 26.1763C99.3945 26.5126 99.0571 26.8489 98.7761 27.1852C98.2701 27.6897 97.7079 28.2502 97.2019 28.7546C97.0895 28.7546 97.0333 28.7547 96.9771 28.8107ZM99.9566 24.3826C99.2258 24.9992 98.495 25.7278 97.7641 26.4005C97.5392 26.6247 97.3706 26.7928 97.1457 27.017H97.0895C97.0895 26.7928 97.1457 26.5686 97.1457 26.4005C97.1457 26.3444 97.2019 26.2884 97.2582 26.2323C98.2139 25.0552 99.1696 23.9342 100.294 22.9252C100.294 22.9252 100.35 22.9252 100.406 22.8692C100.406 23.0373 100.406 23.1494 100.463 23.3176C100.519 23.71 100.35 24.0463 99.9566 24.3826ZM100.294 22.0284C99.9004 22.4208 99.4507 22.8131 99.0571 23.2055C98.495 23.766 97.989 24.3265 97.483 24.8871C97.4268 24.9431 97.3706 24.9992 97.3144 25.1113C97.2019 24.7189 97.3144 24.3826 97.5955 24.1023C98.4387 23.2055 99.2258 22.2526 100.013 21.3558C100.125 21.2437 100.238 21.1316 100.406 20.9634C100.406 21.2997 100.406 21.5239 100.406 21.7481C100.406 21.8603 100.35 21.9724 100.294 22.0284ZM97.4268 23.3176C97.4268 22.9813 97.483 22.701 97.483 22.3647C97.483 22.1405 97.5955 22.0284 97.7641 21.9163C98.4387 21.4118 99.0571 20.8513 99.6193 20.2347C99.8442 19.9545 100.069 19.6742 100.294 19.45C100.35 19.394 100.35 19.3379 100.406 19.2819C100.463 19.2819 100.463 19.3379 100.519 19.3379C100.519 19.6182 100.519 19.9545 100.519 20.2347C100.519 20.2908 100.463 20.3469 100.406 20.3469C99.6193 20.9074 99.0571 21.636 98.3825 22.3647C97.989 22.7571 97.7641 23.0373 97.4268 23.3176ZM100.294 18.4971C99.788 19.0577 99.282 19.6742 98.7761 20.2347C98.4387 20.6271 98.0452 21.0195 97.6517 21.3558C97.6517 21.3558 97.5955 21.3558 97.5955 21.2997C97.6517 20.9074 97.6517 20.515 97.7079 20.1226C98.6636 19.8424 99.2258 19.1137 99.8442 18.4411C100.013 18.2169 100.182 17.9927 100.406 17.8245C100.463 18.1048 100.463 18.329 100.294 18.4971ZM97.7079 19.7303C97.7079 19.45 97.7641 19.2258 97.7641 18.9456C97.7641 18.8895 97.8766 18.7774 97.9328 18.7213C98.6074 18.2169 99.1134 17.6003 99.6193 16.9837C99.788 16.7595 100.013 16.5353 100.182 16.3111C100.238 16.2551 100.294 16.199 100.406 16.0869C100.406 16.3672 100.406 16.6474 100.406 16.8716C100.406 16.9277 100.35 17.0398 100.294 17.0958C99.8442 17.6003 99.4507 18.1048 99.0009 18.6092C98.6074 19.0016 98.2139 19.394 97.8203 19.7863C97.7641 19.7303 97.7079 19.7303 97.7079 19.7303ZM100.406 15.3022C100.35 15.3582 100.294 15.4143 100.238 15.4703C99.7318 15.9748 99.282 16.5353 98.7761 17.0398C98.495 17.32 98.2139 17.6564 97.989 17.9366C97.989 17.9366 97.9328 17.9927 97.8766 18.0487C97.8766 17.6003 97.9328 17.1519 97.989 16.7595C97.989 16.7035 98.0452 16.6474 98.1014 16.5914C98.495 16.143 98.8885 15.6945 99.3382 15.2461C99.6756 14.9098 100.013 14.6295 100.35 14.3493C100.406 14.5735 100.463 15.2461 100.406 15.3022ZM97.989 15.3582C97.989 15.3022 98.0452 15.1901 98.1014 15.134C98.2701 14.9659 98.4387 14.7417 98.6636 14.6295C99.2258 14.2372 99.6193 13.7327 100.069 13.2282C100.182 13.1161 100.294 13.004 100.35 12.8919H100.406C100.406 13.1722 100.406 13.3964 100.406 13.6767C100.406 13.7888 100.294 13.8448 100.238 13.9009C99.8442 14.2372 99.4507 14.5735 99.0571 14.9098C98.7761 15.134 98.5512 15.4143 98.2701 15.6945C98.2139 15.7506 98.1576 15.8066 98.0452 15.9187C98.0452 15.6945 97.989 15.5264 97.989 15.3582ZM100.182 12.1072C99.788 12.5556 99.3382 13.0601 98.9447 13.5085C98.7198 13.7888 98.4387 14.013 98.1577 14.2372C97.989 14.4053 97.7641 14.5174 97.5955 14.7417C97.3706 15.0219 97.1457 15.0219 96.8084 14.9659C97.0333 14.6856 97.2019 14.4053 97.4268 14.1811C97.5955 13.9569 97.8203 13.7888 98.0452 13.5646C98.6074 13.0601 99.0572 12.4996 99.5631 11.9391C99.788 11.6588 100.069 11.3785 100.294 11.0983C100.463 11.5467 100.406 11.883 100.182 12.1072ZM100.294 9.30461H100.35C100.35 9.58487 100.35 9.92118 100.35 10.2014C100.35 10.3135 100.238 10.4256 100.125 10.5378C99.9004 10.762 99.7318 10.9862 99.5069 11.2104C99.2258 11.5467 98.9447 11.883 98.6074 12.2193C98.2139 12.6677 97.8203 13.1161 97.3706 13.5085C96.9208 13.9009 96.5273 14.3493 96.19 14.8538C96.0776 15.0219 95.9651 15.078 95.7965 15.078C95.5154 15.078 95.2905 15.078 94.9532 15.0219C95.1218 14.7977 95.2905 14.6295 95.4029 14.5174C96.0213 14.013 96.5835 13.5085 97.0333 12.8919C97.483 12.2754 98.1014 11.7148 98.6074 11.1543C99.1134 10.5938 99.6193 9.97723 100.125 9.41671C100.238 9.36066 100.294 9.36066 100.294 9.30461ZM99.2258 9.1925C99.3945 9.1925 99.5631 9.1925 99.788 9.24856C99.6756 9.36066 99.5069 9.52882 99.3945 9.64092C99.1696 9.86513 98.9447 10.1454 98.6636 10.3696C98.3263 10.7059 97.989 11.0983 97.6517 11.4346C97.3706 11.7148 97.0895 11.9951 96.8646 12.3314C96.3587 12.948 95.7965 13.5085 95.2343 14.069C94.9532 14.2932 94.7283 14.5735 94.4472 14.8538C94.391 14.9098 94.3348 15.0219 94.1099 15.0219C94.2223 14.9098 94.2786 14.8538 94.3348 14.7977C94.7283 14.3493 95.0656 13.8448 95.4029 13.3404C95.7965 12.7238 96.3024 12.2193 96.8084 11.6588C97.0895 11.3225 97.3706 10.9862 97.6517 10.7059C97.8203 10.4817 98.0452 10.3135 98.2139 10.0893C98.4387 9.86513 98.6636 9.64092 98.8323 9.41671C99.0009 9.24856 99.1134 9.1925 99.2258 9.1925ZM90.5119 9.24856C90.6806 9.24856 90.793 9.24856 90.9617 9.24856C90.793 9.41671 90.6806 9.58487 90.5681 9.69697H90.5119C90.5119 9.52882 90.5119 9.41671 90.5119 9.24856ZM90.6806 10.4256C90.9617 10.1454 91.1865 9.80908 91.4676 9.47276C91.6925 9.1925 91.6925 9.1925 92.1423 9.24856C91.6363 9.92118 91.1303 10.5378 90.6244 11.1543C90.6244 11.1543 90.5681 11.1543 90.5681 11.0983C90.4557 10.8741 90.5119 10.6499 90.6806 10.4256ZM90.5119 11.9951C90.5119 11.9391 90.6244 11.883 90.6806 11.8269C91.1865 11.4906 91.5239 11.0422 91.9174 10.5938C92.1985 10.2014 92.5358 9.86513 92.7607 9.47276C92.8731 9.30461 93.0418 9.24856 93.2666 9.24856C93.3228 9.24856 93.4353 9.24856 93.5477 9.24856C92.5358 10.4817 91.5239 11.7148 90.5119 13.004C90.3995 12.6117 90.4557 12.2754 90.5119 11.9951ZM90.7368 13.6206C90.8492 13.5085 90.9617 13.3404 91.0741 13.2282C91.8612 12.2193 92.6482 11.2664 93.4353 10.2575C93.6602 9.97723 93.9413 9.69697 94.1661 9.41671C94.2786 9.24856 94.391 9.24856 94.5597 9.24856C94.6721 9.24856 94.7845 9.24856 94.897 9.24856C94.897 9.24856 94.897 9.30461 94.9532 9.30461C94.7845 9.52882 94.5597 9.75302 94.391 9.97723C94.3348 10.0333 94.2786 10.0893 94.2224 10.1454C93.4915 11.1543 92.592 12.0512 91.805 13.004C91.3552 13.5085 90.9617 14.069 90.5681 14.6295C90.5119 14.6856 90.5119 14.7417 90.3995 14.7977C90.4557 14.2932 90.3433 13.9009 90.7368 13.6206ZM90.4557 15.6385C90.4557 15.5824 90.5681 15.4703 90.6244 15.4143C90.9055 15.2461 91.0741 15.0219 91.299 14.7417C92.1423 13.6206 92.9855 12.4996 93.9413 11.4346C94.5034 10.818 94.9532 10.2014 95.4592 9.52882C95.5154 9.41671 95.5716 9.36066 95.684 9.24856C95.7402 9.1925 95.7965 9.13645 95.8527 9.13645C96.1338 9.13645 96.4711 9.13645 96.8084 9.13645C96.5273 9.41671 96.3024 9.69697 96.0776 9.92118C95.0656 10.9301 94.1661 12.0512 93.2666 13.1722C92.9855 13.5646 92.592 13.9009 92.2547 14.2932C91.8612 14.6856 91.4676 15.078 91.0741 15.5264C90.9055 15.6945 90.793 15.8627 90.6244 16.0308C90.5681 16.143 90.5119 16.199 90.3995 16.3111C90.3995 16.3111 90.3433 16.3111 90.3433 16.2551C90.4557 16.0869 90.3995 15.8627 90.4557 15.6385ZM90.3995 17.2079C90.3995 17.0958 90.5119 17.0398 90.5681 16.9837C90.9055 16.7595 91.1303 16.4232 91.4114 16.0869C91.5801 15.8627 91.8612 15.6385 92.086 15.4143C92.3109 15.1901 92.592 14.9098 92.8169 14.6295C93.1542 14.2372 93.5477 13.8448 93.885 13.3964C94.3348 12.8359 94.7845 12.2193 95.2343 11.6588C95.6278 11.1543 96.0776 10.7059 96.4711 10.2575C96.7522 9.92118 97.0333 9.58487 97.3144 9.24856C97.3706 9.1925 97.4268 9.13645 97.483 9.13645C97.7641 9.13645 98.0452 9.13645 98.3825 9.13645C98.3263 9.24856 98.2701 9.30461 98.2139 9.36066C98.0452 9.52882 97.8203 9.69697 97.6517 9.92118C97.2019 10.3696 96.8084 10.8741 96.3587 11.3785C95.9089 11.883 95.5154 12.3875 95.0656 12.8919C94.9532 13.004 94.8408 13.1722 94.7283 13.3404C94.3348 13.8448 93.9413 14.4053 93.5477 14.9098C93.4915 15.0219 93.3791 15.078 93.2666 15.134C93.0418 15.2461 92.8731 15.4703 92.7607 15.6945C92.7044 15.8066 92.6482 15.8627 92.592 15.9187C92.1423 16.3111 91.7487 16.7595 91.4114 17.264C91.1303 17.6564 90.793 17.9927 90.3995 18.385C90.3995 17.9366 90.3995 17.6003 90.3995 17.2079ZM90.3995 19.0016C90.3995 18.9456 90.4557 18.8895 90.5119 18.8334C91.2428 18.385 91.7487 17.7685 92.1985 17.0958C92.3109 16.9277 92.4796 16.7035 92.6482 16.5353H92.7044C92.7044 16.8156 92.7044 17.1519 92.7044 17.4321C92.7044 17.4882 92.6482 17.6003 92.592 17.6564C92.3109 17.9927 92.0298 18.385 91.7487 18.7213C91.3552 19.1698 90.9055 19.5061 90.3433 19.8424C90.3433 19.6742 90.3433 19.5061 90.3433 19.3379C90.3995 19.3379 90.3433 19.1698 90.3995 19.0016ZM90.3433 20.6271C90.3433 20.5711 90.4557 20.459 90.5119 20.4029C90.7368 20.2347 90.9617 20.0666 91.1865 19.8984C91.6363 19.5621 92.086 19.1698 92.4234 18.7213C92.4796 18.6653 92.5358 18.5532 92.6482 18.4411C92.6482 18.8334 92.6482 19.1698 92.6482 19.5061C92.6482 19.5621 92.592 19.6182 92.5358 19.6742C91.8612 20.3468 91.1303 20.9634 90.4557 21.636C90.4557 21.636 90.3995 21.636 90.3433 21.6921C90.3433 21.2997 90.3433 20.9634 90.3433 20.6271ZM90.3433 22.4768C90.3433 22.4208 90.3995 22.3087 90.4557 22.2526C91.1303 21.636 91.805 21.0195 92.5358 20.459C92.5358 20.459 92.592 20.459 92.592 20.4029C92.592 20.459 92.6482 20.459 92.6482 20.515C92.6482 20.7953 92.6482 21.0755 92.6482 21.3558C92.6482 21.4118 92.592 21.5239 92.5358 21.58C91.805 22.0845 91.2428 22.7571 90.5681 23.3176C90.5119 23.3737 90.4557 23.4297 90.3433 23.5418C90.3433 23.2055 90.3433 22.8131 90.3433 22.4768ZM90.5681 24.0463C91.1303 23.4858 91.6925 22.9813 92.3109 22.4208C92.3671 22.3647 92.4796 22.3087 92.592 22.1966C92.592 22.5329 92.592 22.8131 92.592 23.0373C92.592 23.0934 92.5358 23.1495 92.5358 23.2055C92.086 23.6539 91.5801 24.1023 91.0741 24.5507C90.8492 24.7189 90.6244 24.8871 90.3433 25.0552C90.2308 24.6068 90.2871 24.3265 90.5681 24.0463ZM90.2871 25.896C90.2871 25.6157 90.3995 25.5036 90.6244 25.3355C91.299 24.9431 91.9174 24.4947 92.4234 23.9342C92.4796 23.8781 92.5358 23.8781 92.592 23.766C92.592 23.9902 92.592 24.2144 92.592 24.3826C92.592 24.4386 92.5358 24.5508 92.4796 24.6068C91.8612 25.2234 91.1865 25.8399 90.5681 26.4565C90.5119 26.5126 90.4557 26.5686 90.3433 26.6807C90.2308 26.4565 90.2871 26.1763 90.2871 25.896ZM90.2871 27.5215C90.2871 27.4655 90.3433 27.4094 90.3995 27.3533C90.9617 27.017 91.3552 26.5126 91.805 26.0642C91.9736 25.8399 92.1985 25.6718 92.3671 25.4476C92.4234 25.3915 92.4796 25.3915 92.5358 25.3355C92.5358 25.6718 92.5358 25.952 92.5358 26.2323C92.5358 26.2884 92.4796 26.3444 92.4234 26.4005C91.7487 27.017 91.0741 27.6336 90.3995 28.2502C90.3995 28.2502 90.3433 28.2502 90.2871 28.3062C90.2871 28.026 90.2871 27.7457 90.2871 27.5215ZM90.5119 28.8668C91.1303 28.3062 91.7487 27.7457 92.3109 27.1852C92.3671 27.1291 92.3671 27.1291 92.4796 27.0731C92.4796 27.3533 92.4796 27.5776 92.4796 27.8018C92.4796 27.8578 92.4234 27.9139 92.4234 27.9139C91.8049 28.4183 91.1865 28.9789 90.6244 29.4833C90.5119 29.5954 90.3995 29.6515 90.2871 29.7075C90.2308 29.3152 90.2308 29.091 90.5119 28.8668ZM89.6124 31.333C89.8373 31.1088 90.0622 30.8286 90.1746 30.5483C90.2308 30.4362 90.287 30.3241 90.3995 30.2681C91.1303 29.8196 91.7487 29.2591 92.3671 28.6425C92.3671 28.6425 92.4234 28.5865 92.4796 28.5865C92.4796 28.9789 92.4796 29.3152 92.4796 29.6515C92.4796 29.7075 92.4234 29.8196 92.3109 29.8757C91.3552 30.3241 90.5681 30.9967 89.6686 31.5572C89.4438 31.6694 89.2751 31.8375 88.994 31.8936C89.2189 31.7254 89.3875 31.5012 89.6124 31.333ZM92.3671 30.3241C92.4796 30.7165 92.4234 30.9967 92.3671 31.277C92.3671 31.333 92.2547 31.3891 92.1985 31.4451C91.7487 31.6694 91.299 31.8936 90.8492 32.1178C90.1184 32.5101 89.4438 32.9585 88.7691 33.463C88.6005 33.5751 88.4318 33.6872 88.207 33.7993C88.0383 33.9114 87.8696 33.9675 87.701 34.0235C87.6448 33.9114 87.5886 33.8554 87.4761 33.6872C89.1065 32.5662 90.7368 31.4451 92.3671 30.3241Z" fill="black"/>
<path d="M58.1862 35.2567C58.1862 35.3128 58.1862 35.3688 58.1862 35.3688C58.0738 35.593 58.1862 35.8733 58.1862 36.0975C58.1862 36.2657 58.2987 36.3778 58.4673 36.4338C58.6922 36.4899 58.8609 36.5459 59.0857 36.602C59.423 36.658 59.7604 36.7141 60.1539 36.7141C60.435 36.7701 60.7723 36.7701 61.1096 36.7141C61.3907 36.658 61.5594 36.602 61.728 36.3778C61.8967 36.0975 62.1215 35.8172 62.2902 35.593C62.4026 35.4249 62.4589 35.2567 62.4589 35.0325C62.4589 34.5841 62.4589 34.0796 62.4589 33.6312C62.4589 33.2388 62.5151 32.8465 62.5151 32.3981C62.5151 32.0618 62.5713 31.7254 62.5713 31.3891C62.6275 30.9407 62.7962 30.4923 62.7399 30.0439C62.7399 29.8757 62.7962 29.8197 63.021 29.8197C63.2459 29.7636 63.4708 29.7636 63.6957 29.7076C63.8643 29.6515 64.033 29.5955 64.1454 29.5394C64.7638 29.3713 65.3822 29.2031 66.0006 29.0349C66.1131 28.9789 66.2255 29.0349 66.3379 28.9789C66.3379 29.5394 66.619 30.0999 66.5628 30.6605C66.5628 30.7165 66.5628 30.7726 66.5628 30.7726C66.7315 30.9968 66.7315 31.277 66.7315 31.5573C66.7877 31.9497 66.9001 32.286 66.8439 32.6783C66.8439 32.7344 66.8439 32.8465 66.9001 32.9586C67.0688 33.351 67.125 33.7433 67.125 34.1357C67.1812 34.6401 67.2937 35.1446 67.5747 35.537C67.631 35.593 67.631 35.6491 67.6872 35.7051C67.7434 35.8733 67.8558 35.9293 68.0245 35.9854C68.3056 36.0975 68.6429 36.0975 68.924 36.2096C69.0364 36.2657 69.2051 36.2657 69.3175 36.3217C69.5986 36.3217 69.8235 36.3217 70.1046 36.3778C70.2732 36.3778 70.4419 36.3217 70.5543 36.2096C70.6668 36.0975 70.7792 35.9293 70.9479 35.8172C71.1727 35.593 71.2852 35.3128 71.2852 34.9765C71.3414 34.5841 71.3414 34.1357 71.3414 33.7433C71.2852 33.2949 71.3414 32.8465 71.2852 32.3981C71.229 31.6694 71.1165 30.9407 71.0603 30.156C71.0603 30.0999 71.0603 30.0439 71.0041 29.9878C70.9479 29.5394 70.8916 29.091 70.7792 28.5865C70.723 28.2502 70.723 27.9139 70.6105 27.5776C70.4981 27.2973 70.4419 26.961 70.4419 26.6808C70.4419 26.5126 70.4419 26.2884 70.3857 26.1202C70.2732 25.5597 70.1608 24.9992 69.9921 24.4387C69.9921 24.3826 69.9921 24.3266 69.9921 24.2705C69.8797 23.654 69.7111 23.0374 69.5986 22.4208C69.5986 22.4208 69.5986 22.4208 69.5986 22.3648C69.5424 22.1966 69.4862 22.0284 69.4862 21.9163C69.43 21.524 69.3737 21.0756 69.2613 20.6832C69.1489 20.3469 69.1489 19.9545 69.0926 19.6182C69.0364 19.0016 68.924 18.4411 68.8116 17.8245C68.7553 17.5443 68.6429 17.264 68.5867 17.0398C68.418 16.4232 68.3056 15.8067 68.1932 15.2462C68.1369 14.9659 68.0245 14.7417 67.9683 14.4614C67.8558 14.0691 67.7434 13.6206 67.631 13.2283C67.4061 12.6678 67.2374 12.0512 66.9001 11.5467C66.9001 11.4907 66.8439 11.4346 66.8439 11.3786C66.7877 11.2104 66.7315 11.0423 66.6752 10.9302C66.4504 10.3136 66.0006 9.92122 65.3822 9.69701C64.9325 9.52885 64.4827 9.4728 64.033 9.41675C63.3584 9.30465 62.7399 9.52885 62.1778 9.80911C61.728 10.0333 61.3907 10.4257 61.1096 10.762C60.6036 11.3225 60.3788 12.0512 60.1539 12.7799C59.9852 13.3964 59.8728 14.0691 59.7604 14.7417C59.5917 15.6946 59.423 16.6475 59.3106 17.5443C59.1982 18.3851 59.142 19.2819 59.0295 20.1227C58.9733 20.459 59.0295 20.7393 58.9171 21.0756V21.1316C58.9733 21.524 58.8609 21.9163 58.8609 22.3087C58.8046 22.8132 58.6922 23.3176 58.636 23.8221C58.5798 24.4947 58.6922 25.1674 58.5798 25.84C58.5798 25.896 58.5798 25.9521 58.5798 26.0081C58.5798 26.4005 58.636 26.7929 58.5798 27.1852C58.5798 27.8579 58.5236 28.5305 58.4673 29.1471C58.4673 29.4273 58.4111 29.7636 58.4111 30.0439C58.4111 30.2681 58.3549 30.4362 58.3549 30.6605C58.3549 31.0528 58.2425 31.3891 58.2987 31.7815V31.8375C58.2425 32.286 58.1862 32.6783 58.13 33.1267V33.1828C58.1862 33.4631 58.1862 33.7433 58.13 34.0236C58.13 34.1357 58.13 34.2478 58.13 34.3599C58.13 34.5841 58.0738 34.9204 58.1862 35.2567ZM63.2459 22.9813C63.2459 22.589 63.3021 22.1966 63.3583 21.8603C63.4146 20.7393 63.6957 19.6182 63.8081 18.4972C63.8081 18.4411 63.8081 18.3851 63.8081 18.3851C63.8643 18.329 63.9205 18.273 63.9768 18.2169C64.033 18.273 64.0892 18.329 64.1454 18.3851C64.3141 18.7214 64.4265 19.0577 64.3703 19.4501C64.3703 19.5622 64.4265 19.6743 64.4827 19.7864C64.7076 20.1227 64.6514 20.515 64.7076 20.8514C64.7076 21.0195 64.7076 21.2437 64.7638 21.4119C64.82 21.8042 64.8763 22.1966 64.9887 22.589C64.9887 22.7011 65.0449 22.8132 65.0449 22.8692C65.1011 23.0374 65.1011 23.2055 65.1573 23.3737C65.1573 23.4858 65.2136 23.5419 65.2136 23.654C65.2698 23.7661 65.3822 23.8782 65.3822 24.0463C65.3822 24.4947 65.5509 24.8871 65.6071 25.3355C65.6071 25.5037 65.5509 25.5597 65.4384 25.6158C64.7638 25.896 64.0892 26.1202 63.4146 26.3445C63.3584 26.3445 63.3021 26.3445 63.1897 26.3445C63.1897 25.9521 63.1897 25.6158 63.1897 25.2795C63.1897 24.775 63.2459 24.2705 63.3021 23.7661C63.2459 23.4858 63.1897 23.2055 63.2459 22.9813Z" fill="black"/>
<path d="M118.902 24.9431C118.677 24.3266 118.396 23.71 118.115 23.1495C117.89 22.7571 117.553 22.3647 117.16 22.0845C116.429 21.6361 115.642 21.2998 114.798 21.0756C113.562 20.7392 112.325 20.6832 111.032 20.8513C110.076 20.9634 109.177 21.2437 108.389 21.6921C108.165 21.8042 107.996 21.9163 107.771 22.0845C107.771 21.9163 107.715 21.8042 107.715 21.6921C107.715 21.4679 107.659 21.2437 107.659 20.9635C107.659 20.5711 107.602 20.1787 107.602 19.8424C107.546 19.2819 107.602 18.6653 107.546 18.0487C107.546 16.9277 107.49 15.7506 107.49 14.6296C107.49 14.1251 107.49 13.6767 107.434 13.2283C107.434 12.7238 107.434 12.2754 107.378 11.7709C107.321 11.2104 107.265 10.5938 106.872 10.1454C106.703 9.97726 106.534 9.8091 106.309 9.8091C106.084 9.8091 105.86 9.75305 105.635 9.75305C105.41 9.75305 105.185 9.75305 104.96 9.86516C104.567 10.0894 104.229 10.3696 104.004 10.818C103.836 11.2104 103.667 11.6028 103.723 12.0512C103.78 12.3875 103.836 12.7238 103.723 13.1162C103.723 13.1722 103.723 13.2843 103.723 13.3404C103.723 13.9009 103.892 14.4614 103.78 15.0219C103.78 15.078 103.78 15.1901 103.78 15.2461C103.836 16.4232 103.892 17.6564 103.892 18.8335C103.892 19.5061 103.892 20.1787 103.892 20.7953C103.892 21.2437 103.948 21.6921 103.948 22.1405C103.948 22.8692 103.948 23.5418 103.948 24.2705C103.948 24.775 104.004 25.2795 104.004 25.7839C103.948 26.4565 104.061 27.1292 104.117 27.8018C104.173 28.4184 104.285 29.091 104.285 29.7076C104.285 30.4923 104.51 31.277 104.567 32.0617C104.567 32.1178 104.623 32.1178 104.623 32.1738C104.623 32.3981 104.679 32.6223 104.679 32.8465C104.679 32.9025 104.679 33.0146 104.679 33.0707C104.679 33.7433 104.735 34.4159 104.735 35.0885C104.735 35.3128 104.791 35.4249 104.96 35.537C105.073 35.593 105.241 35.6491 105.354 35.6491C105.86 35.7051 106.366 35.7051 106.872 35.7051C107.209 35.7051 107.546 35.593 107.771 35.3128C107.94 35.0885 107.94 35.0886 108.165 35.2007C108.558 35.3688 108.952 35.537 109.401 35.6491C110.47 35.9293 111.481 35.8733 112.55 35.8172C113.224 35.7612 113.899 35.7051 114.517 35.4809C114.742 35.4249 114.967 35.3128 115.192 35.1446C115.473 34.9764 115.698 34.8083 115.979 34.5841C116.204 34.4159 116.372 34.2478 116.541 34.0796C116.991 33.5191 117.384 32.9586 117.778 32.3981C118.115 31.8936 118.34 31.3891 118.453 30.8286C118.453 30.7165 118.509 30.5483 118.565 30.4362C118.846 29.5955 119.071 28.6986 119.183 27.8018C119.183 27.6336 119.183 27.4094 119.183 27.1852C119.24 26.4005 119.183 25.6718 118.902 24.9431ZM113.899 29.2591C113.899 29.4273 113.786 29.6515 113.786 29.8197C113.674 30.2681 113.337 30.5483 112.943 30.7165C112.55 30.9407 112.1 30.9407 111.65 30.9407C111.032 31.0528 110.526 30.7165 110.132 30.2681C110.02 30.0999 109.907 29.8757 109.851 29.6515C109.682 28.6986 109.795 27.7457 110.076 26.8489C110.188 26.5126 110.413 26.3444 110.751 26.2323C111.481 25.9521 112.044 26.1202 112.662 26.5126C112.999 26.7368 113.28 26.961 113.449 27.2973C113.505 27.4655 113.618 27.5776 113.73 27.6897C114.011 28.1942 113.899 28.7547 113.899 29.2591Z" fill="black"/>
<path d="M151.453 24.719C151.34 24.2705 151.116 23.8782 150.835 23.4858C150.61 23.2055 150.272 22.9813 149.991 22.7571C149.541 22.4208 149.036 22.1966 148.473 22.0285C147.18 21.7482 145.831 21.6361 144.482 21.8042C144.313 21.8042 144.088 21.8603 143.863 21.8603C143.863 21.8042 143.807 21.7482 143.807 21.6921C143.751 20.5151 143.582 19.394 143.639 18.2169C143.639 18.1048 143.639 17.9927 143.639 17.8246C143.639 17.3761 143.582 16.9277 143.582 16.4793C143.582 15.8067 143.582 15.078 143.582 14.4054C143.582 13.6767 143.639 12.948 143.695 12.2194C143.695 11.6588 143.751 11.0423 143.751 10.4817C143.751 10.2575 143.695 10.2015 143.47 10.2015C143.357 10.2015 143.245 10.1454 143.133 10.1454C143.076 9.64097 143.076 9.64097 142.739 9.41676C142.683 9.08045 142.683 9.02439 142.346 9.02439C142.064 9.02439 141.896 9.19255 141.783 9.36071C141.727 9.47281 141.671 9.58491 141.615 9.75307H141.558C141.558 9.52886 141.558 9.30465 141.558 9.02439C141.558 8.80019 141.502 8.74413 141.277 8.74413C141.052 8.68808 140.884 8.80019 140.715 8.96834C140.659 9.02439 140.603 9.08045 140.547 9.1365C140.49 9.1365 140.434 9.1365 140.378 9.1365C139.984 9.08045 139.703 9.19255 139.591 9.52886C139.591 9.58491 139.535 9.64097 139.478 9.64097C139.253 9.64097 139.029 9.80912 138.748 9.75307C138.298 9.64097 137.96 9.86517 137.904 10.3696C137.848 10.762 137.848 11.1544 137.848 11.4907C137.848 11.9391 137.904 12.4436 137.904 12.892C137.904 13.6767 137.904 14.4614 137.904 15.2462C137.904 16.6475 137.96 18.0488 137.96 19.4501C137.96 20.5711 138.073 21.6921 138.185 22.8132C138.242 23.3737 138.298 23.9903 138.298 24.5508C138.354 25.1113 138.354 25.6718 138.354 26.1763C138.41 27.1852 138.466 28.2502 138.41 29.2592C138.41 29.5955 138.41 29.9318 138.41 30.2681C138.41 30.8286 138.523 31.3331 138.523 31.8936C138.523 32.8465 138.523 33.7433 138.523 34.6962C138.523 34.8083 138.523 34.9204 138.523 35.0325C138.748 35.0886 138.972 35.0886 139.197 35.1446C139.31 35.1446 139.422 35.2007 139.422 35.3128C139.422 35.537 139.591 35.593 139.816 35.593C140.153 35.593 140.434 35.6491 140.659 35.2567C140.715 35.0886 140.884 35.1446 140.94 35.2567C140.996 35.3128 140.996 35.4249 141.052 35.4249C141.165 35.4809 141.334 35.537 141.446 35.593C141.558 35.6491 141.671 35.537 141.727 35.4249C141.783 35.3688 141.896 35.3688 141.952 35.3688C142.177 35.3688 142.289 35.3128 142.402 35.1446C142.458 35.0886 142.458 35.0325 142.514 35.0325C142.627 35.0886 142.739 35.2007 142.795 35.2007C142.964 35.2007 143.133 35.2567 143.301 35.2007C143.414 35.2007 143.526 35.1446 143.582 35.0886C143.695 34.9204 143.863 34.8644 144.088 34.9204C144.144 34.9204 144.257 34.9204 144.313 34.9204C144.538 34.9204 144.707 34.8644 144.763 34.6962C144.875 34.472 145.044 34.4159 145.269 34.3599C146.112 34.2478 146.899 33.9115 147.574 33.407C148.192 32.9025 148.867 32.4541 149.429 31.8936C149.935 31.4452 150.385 30.9407 150.61 30.3242C150.835 29.8197 151.003 29.3152 151.172 28.8668C151.453 28.2502 151.397 27.6337 151.565 26.961C151.565 26.905 151.565 26.7929 151.565 26.7368C151.678 26.1203 151.622 25.3916 151.453 24.719ZM146.449 29.2031C146.112 29.7636 145.719 30.3242 145.213 30.7165C145.156 30.7726 145.1 30.8286 145.044 30.8286C145.044 30.8286 144.988 30.8286 144.875 30.8847C144.819 30.5484 144.763 30.2681 144.763 29.9878C144.707 29.4273 144.65 28.8107 144.594 28.2502C144.538 27.3534 144.369 26.4566 144.201 25.5597C144.201 25.5037 144.145 25.3916 144.201 25.3355C144.201 25.2795 144.257 25.1674 144.313 25.1113C144.594 24.9432 144.875 24.775 145.213 24.719C145.662 24.6068 146.056 24.775 146.393 25.0553C146.787 25.3916 146.955 25.84 147.012 26.3445C147.18 27.4655 146.955 28.3623 146.449 29.2031Z" fill="black"/>
<path d="M15.8536 46.6913C15.8536 46.2989 15.7412 45.9066 15.5163 45.5703C15.179 44.8976 14.673 44.3932 14.1671 43.8887C13.6049 43.3282 12.874 43.104 12.087 42.8798C11.3561 42.7116 10.5691 42.5995 9.78202 42.4874C9.16362 42.3753 8.54521 42.3192 7.75815 42.3753C6.29647 42.3192 4.77856 42.7116 3.31688 43.4963C2.81091 43.7766 2.41738 44.1129 1.96764 44.4492C1.40545 44.8416 0.9557 45.346 0.56217 45.8505C0.337296 46.1308 0.16864 46.4671 0.16864 46.8594C0.16864 47.0837 0.224859 47.2518 0.449733 47.3639C0.843263 47.476 1.23679 47.7002 1.68654 47.6442C1.74276 47.6442 1.79898 47.6442 1.8552 47.6442C2.08007 47.6442 2.13629 47.7002 2.13629 47.8684C2.19251 48.2608 2.19251 48.5971 2.24873 48.9894C2.30495 49.2136 2.30495 49.4378 2.36117 49.662C2.41738 49.8302 2.41738 49.9984 2.4736 50.1665C2.4736 50.2786 2.4736 50.4468 2.52982 50.5589C2.52982 50.671 2.58604 50.7831 2.58604 50.8952C2.64226 51.3436 2.52982 51.8481 2.69848 52.2965C2.69848 52.3525 2.69848 52.4646 2.69848 52.5207C2.7547 53.0252 2.7547 53.5296 2.86713 54.0902C2.86713 54.3144 2.86713 54.4265 2.69848 54.5946C2.4736 54.9309 2.36117 55.2112 2.24873 55.6036C2.19251 55.7717 2.24873 55.9399 2.41738 56.108C2.52982 56.1641 2.58604 56.3322 2.58604 56.4443C2.58604 56.6125 2.69848 56.7807 2.86713 56.8928C3.09201 57.0609 3.14823 57.2851 3.14823 57.5654C3.14823 57.8456 3.14823 58.1259 3.14823 58.3501C3.14823 58.5183 3.20444 58.6304 3.20444 58.7985C3.26066 59.7514 3.31688 60.7603 3.3731 61.7132C3.3731 62.1616 3.42932 62.6101 3.42932 63.0585C3.48554 63.4508 3.54176 63.8993 3.48554 64.2916C3.48554 64.4037 3.48554 64.4598 3.48554 64.5719C3.54176 65.1324 3.59797 65.6369 3.65419 66.1974C3.65419 66.2534 3.65419 66.3655 3.65419 66.4216C3.65419 66.9821 3.65419 67.5987 3.65419 68.1592C3.65419 68.4955 3.82285 68.7197 4.21638 68.7758C4.83478 68.8318 5.45319 68.8879 6.12781 68.9439C6.46512 68.9439 6.69 68.8318 6.91487 68.6076C7.08353 68.4395 7.19596 68.2153 7.36462 68.0471C7.58949 67.7668 7.64571 67.4866 7.58949 67.1503C7.53328 66.5898 7.47706 65.9732 7.47706 65.4127C7.47706 65.0203 7.47706 64.684 7.47706 64.2916C7.47706 63.675 7.42084 63.1145 7.36462 62.498C7.3084 61.7132 7.3084 60.9846 7.25218 60.1998C7.25218 60.0877 7.25218 59.9756 7.19596 59.8635C7.19596 59.6954 7.13975 59.5272 7.13975 59.359C7.13975 58.9106 7.13975 58.4622 7.08353 58.0138C7.08353 57.7335 7.02731 57.4533 7.02731 57.173C7.02731 57.0049 7.08353 56.9488 7.25218 56.8928C7.81437 56.6685 8.32034 56.3883 8.88252 56.2201C9.66958 55.9399 10.3442 55.4915 11.0188 54.987C11.2999 54.7628 11.581 54.5946 11.8621 54.4265C12.3119 54.1462 12.8178 53.8099 13.1551 53.4175C13.6611 52.9131 14.1109 52.3525 14.4482 51.736C14.673 51.3436 14.9541 51.0073 15.1228 50.6149C15.2914 50.3347 15.4039 49.9984 15.5163 49.662C15.685 49.1015 15.7412 48.541 15.7974 47.9805C15.8536 47.6442 15.8536 47.3079 15.7974 46.9716C15.8536 46.8595 15.8536 46.8034 15.8536 46.6913ZM9.66958 48.9334C9.61336 49.2136 9.61336 49.4378 9.55715 49.7181C9.50093 50.1665 9.27605 50.5028 9.05118 50.8952C8.65765 51.5118 8.26412 52.0723 7.75815 52.6328C7.53328 52.9131 7.19596 53.0252 6.85865 53.1933C6.85865 53.0812 6.80243 53.0252 6.80243 52.9131C6.74622 51.736 6.69 50.6149 6.63378 49.4378C6.57756 48.5971 6.52134 47.7563 6.46512 46.9155C6.46512 46.5792 6.46512 46.2989 6.46512 45.9066C6.85865 45.9066 7.19596 45.9626 7.53328 46.1308C7.70193 46.1868 7.92681 46.2989 8.09546 46.355C8.60143 46.4671 8.99496 46.7473 9.1074 47.2518C9.27605 47.7563 9.38849 48.2608 9.55715 48.7652C9.66958 48.7652 9.66958 48.8773 9.66958 48.9334Z" fill="black"/>
<path d="M76.7946 30.6044C76.8508 30.6604 76.8508 30.6604 76.8508 30.6604C76.7946 31.277 76.6822 31.9496 76.6259 32.5662C76.5697 32.8465 76.5697 33.1267 76.6259 33.407C76.6259 33.6312 76.6822 33.8554 76.7384 34.0796C76.7946 34.1917 76.8508 34.3038 77.0195 34.3038C77.0757 34.3038 77.1881 34.1917 77.2443 34.1357C77.3006 34.0796 77.3006 34.0235 77.3006 34.0235C77.413 33.7433 77.4692 33.463 77.5254 33.1828C77.8065 31.8375 78.0876 30.4362 78.3125 29.091C78.5374 27.8018 78.706 26.5126 78.8747 25.1673C78.9871 24.1584 79.0996 23.1495 79.2682 22.1405C79.3244 21.8042 79.3807 21.4679 79.4369 21.0755C79.4931 21.1876 79.5493 21.1876 79.5493 21.2437C79.718 21.7482 79.8304 22.3087 79.9991 22.8132C80.1677 23.3737 80.2802 23.9342 80.4488 24.4387C80.5612 24.8871 80.7861 25.3355 80.8423 25.84C80.8423 25.896 80.8423 25.896 80.8423 25.9521C81.011 26.4565 81.1796 27.017 81.3483 27.5215C81.517 28.1941 81.6856 28.8107 81.8543 29.4833C82.0791 30.2681 82.2478 31.0528 82.4165 31.7815C82.6976 32.8465 82.9786 33.9114 83.3159 34.9764C83.3722 35.2567 83.5408 35.537 83.6533 35.8172C83.7657 36.0414 83.8781 36.1535 84.1592 36.1535C84.3279 36.1535 84.4965 36.1535 84.609 36.2096C85.0025 36.2096 85.2836 35.9293 85.2836 35.593C85.2836 34.5841 85.1712 33.5751 85.0025 32.5662C84.8901 31.9496 84.7776 31.3891 84.6652 30.7725C84.6652 30.7165 84.6652 30.6044 84.6652 30.4923C84.8339 30.4923 84.9463 30.5483 85.0025 30.5483C85.2274 30.5483 85.4523 30.5483 85.6771 30.4923C85.9582 30.4362 86.1269 30.0999 86.1269 29.8757C86.0144 29.3712 85.902 28.8668 85.7896 28.3062C85.5647 27.4094 85.2836 26.5126 85.0587 25.5597C84.7776 24.4947 84.4965 23.3737 84.1592 22.3087C84.0468 21.9724 83.9344 21.6921 83.8781 21.3558C83.7657 21.0195 83.6533 20.6832 83.5408 20.4029C83.316 19.7303 83.0911 19.0577 82.8662 18.385C82.6413 17.8245 82.4165 17.264 82.2478 16.7035C81.7981 15.2461 81.517 13.7888 81.1796 12.3314C81.011 11.4906 80.7861 10.7059 80.6175 9.86514C80.6175 9.75304 80.5612 9.64093 80.505 9.58488C80.1677 9.36067 79.6055 9.58488 79.4931 9.92119C79.4369 10.1454 79.3806 10.2575 79.212 10.3696C79.1558 10.4257 79.0433 10.5378 79.0433 10.6499C78.9871 10.8741 78.8185 10.9301 78.5936 10.9301C78.2001 10.9301 78.0314 11.0983 77.919 11.4346C77.919 11.4906 77.8627 11.5467 77.8627 11.6028C77.8065 11.883 77.6941 12.1072 77.4692 12.2754C77.3568 12.3875 77.2443 12.4996 77.2443 12.6677C77.0757 13.4525 76.8508 14.1811 76.6822 14.9659C76.4573 16.199 76.2324 17.4322 76.0075 18.6653C75.6702 20.5711 75.2767 22.5329 74.8832 24.4387C74.5458 26.1202 74.1523 27.8578 73.815 29.5394C73.6464 30.2681 73.5901 30.9407 73.4777 31.6694C73.4777 31.8375 73.4215 32.0057 73.5901 32.1178C73.7588 32.2859 73.815 32.4541 73.7588 32.6783C73.6464 33.2388 73.5901 33.7993 73.4777 34.3599C73.3653 35.3127 73.1966 36.2096 73.0842 37.1625C73.0842 37.2746 73.0842 37.3867 73.0842 37.4988C73.2528 37.4988 73.3653 37.5548 73.4777 37.5548C73.7588 37.6109 73.815 37.6669 73.7588 37.9472C73.7588 38.1153 73.7026 38.2274 73.7026 38.4517C73.9837 38.5077 74.2085 38.5077 74.4334 38.5638C74.7145 38.6198 74.9394 38.5077 75.0518 38.2274C75.108 38.1153 75.1643 38.0032 75.1643 37.8911C75.3891 36.9943 75.614 36.1535 75.7827 35.2567C76.0638 33.9675 76.2886 32.6222 76.5135 31.3331C76.6259 31.1649 76.7384 30.9407 76.7946 30.6044Z" fill="black"/>
<path d="M158.48 32.342C158.48 31.6133 158.48 30.9407 158.48 30.212C158.48 29.5954 158.48 28.9789 158.48 28.3623C158.48 27.4094 158.424 26.4565 158.368 25.4476C158.368 24.4387 158.368 23.4297 158.368 22.4208C158.368 22.0284 158.312 21.6361 158.312 21.2437C158.312 20.1226 158.368 19.0016 158.424 17.8806C158.424 17.2079 158.424 16.5914 158.424 15.9187C158.368 15.134 158.368 14.2932 158.312 13.5085C158.312 13.0601 158.255 12.5556 158.255 12.1072C158.199 11.5467 158.143 11.0422 158.143 10.4817C158.143 10.2575 158.143 10.0333 158.143 9.80908C158.143 9.69698 158.143 9.58487 157.974 9.52882C157.637 9.41672 157.187 9.58487 157.019 9.92119C157.019 9.97724 156.962 9.97724 156.906 10.0333C156.906 9.97724 156.85 9.92119 156.85 9.92119C156.794 9.58487 156.737 9.52882 156.4 9.58487C156.231 9.58487 156.063 9.69698 155.894 9.75303C155.894 9.64092 155.894 9.58487 155.894 9.47277C155.894 9.19251 155.838 9.13646 155.557 9.19251C155.388 9.19251 155.276 9.30461 155.107 9.36067C154.882 9.41672 154.826 9.58487 154.77 9.80908C154.77 9.92118 154.77 10.0333 154.601 10.1454C154.601 10.0333 154.545 9.92118 154.545 9.80908C154.545 9.64092 154.545 9.47277 154.601 9.30461C154.601 9.13646 154.545 9.08041 154.432 9.02435C154.264 9.02435 154.095 9.02435 153.983 9.13646C153.814 9.24856 153.702 9.30461 153.477 9.30461C153.421 9.30461 153.308 9.30461 153.252 9.36067C153.139 9.41672 152.971 9.41672 152.858 9.36067C152.521 9.30461 152.296 9.41672 152.24 9.75303C152.184 9.97724 152.184 10.2575 152.128 10.4817C152.071 11.0983 152.071 11.7709 152.071 12.3875C152.071 12.8359 152.015 13.2843 152.015 13.6767C152.015 14.7417 152.071 15.8627 152.071 16.9277C152.071 17.8806 152.128 18.8335 152.184 19.7303C152.24 20.515 152.296 21.2997 152.296 22.0284C152.352 22.645 152.296 23.3176 152.352 23.9342C152.352 24.3826 152.409 24.831 152.409 25.2794C152.465 26.5686 152.465 27.8578 152.465 29.147C152.465 29.7636 152.521 30.3802 152.577 30.9967C152.577 31.333 152.69 31.6694 152.69 32.0617C152.69 33.0707 152.802 34.0796 152.69 35.0885C152.69 35.2567 152.69 35.3688 152.69 35.5369C152.69 35.9854 152.69 35.9854 153.139 36.0414C153.139 36.0414 153.139 36.0414 153.196 36.0414C153.533 36.0414 153.702 35.9293 153.702 35.593C153.702 35.5369 153.702 35.4809 153.702 35.3688C153.927 35.4248 154.095 35.4248 154.32 35.4809C154.545 35.4809 154.601 35.4248 154.657 35.2567C154.714 35.1446 154.714 35.0885 154.714 34.9764C154.714 34.8643 154.77 34.6962 154.77 34.5841C154.77 34.5841 154.77 34.5841 154.826 34.5841C154.882 34.8083 154.938 35.0885 154.995 35.3127C155.051 35.5369 155.163 35.593 155.388 35.593C155.557 35.593 155.613 35.4809 155.669 35.3127C155.726 35.2006 155.669 35.0885 155.838 34.9764C155.894 35.0885 155.95 35.2006 155.95 35.3127C156.007 35.593 156.231 35.7051 156.513 35.7051C156.85 35.7051 157.019 35.4809 156.906 35.2006C156.85 35.0885 156.85 35.0325 156.962 34.9204C156.962 35.0885 157.019 35.2006 157.019 35.3127C157.019 35.5369 157.075 35.7051 157.075 35.9293C157.075 36.0975 157.187 36.2096 157.356 36.2096C157.637 36.2096 157.918 36.2096 158.143 36.2096C158.48 36.1535 158.593 36.0414 158.593 35.7051C158.593 35.593 158.593 35.5369 158.593 35.4248C158.593 34.4159 158.536 33.3509 158.48 32.342Z" fill="black"/>
<path d="M73.9837 41.3103C73.309 41.3103 72.6344 41.2543 71.9036 41.2543C70.8916 41.2543 69.8797 41.2543 68.8678 41.3103C67.7996 41.3103 66.7877 41.3103 65.7195 41.3103C65.1011 41.3103 64.4265 41.3664 63.8081 41.3664C63.2459 41.4224 62.7962 41.5906 62.4588 42.0951C62.2902 42.3753 62.0653 42.6556 61.8967 42.9358C61.7842 43.16 61.7842 43.4403 61.9529 43.6645C62.1215 43.8887 62.2902 44.0008 62.5151 44.1129C62.9648 44.2811 63.4708 44.3371 63.9768 44.3371C64.4827 44.3371 65.0449 44.3371 65.5509 44.3371C65.6633 44.3371 65.7195 44.3371 65.832 44.3371C65.8882 44.8416 66.0006 45.3461 65.8882 45.8505C65.832 46.0187 65.832 46.1308 65.832 46.299C65.832 46.8595 65.832 47.476 65.832 48.0366C65.832 48.2047 65.8882 48.3729 65.8882 48.541C65.8882 48.8213 65.9444 49.1576 65.8882 49.4379C65.8882 49.8302 65.832 50.1665 65.832 50.5589C65.832 51.0073 65.9444 51.3997 65.832 51.8481C65.7757 52.0163 65.832 52.2405 65.832 52.4086C65.832 52.7449 65.8882 53.1373 65.8882 53.4736C65.8882 54.2023 65.832 54.987 65.8882 55.7157C65.9444 56.5565 65.832 57.3972 65.8882 58.238C65.8882 58.2941 65.8882 58.3501 65.8882 58.4062C65.8882 58.9106 65.8882 59.4151 65.8882 59.9196C65.8882 60.5922 65.8882 61.2088 65.8882 61.8814C65.8882 62.2738 65.8882 62.6661 65.8882 63.0024C65.8882 63.2827 65.9444 63.5069 65.9444 63.7872C65.9444 64.5158 65.8882 65.1885 65.9444 65.9171C66.0006 66.3095 65.9444 66.7019 65.8882 67.0942C65.7757 67.7669 66.1131 68.2153 66.7877 68.3834C67.125 68.4395 67.5185 68.5516 67.8558 68.5516C68.0245 68.5516 68.1931 68.5516 68.3618 68.5516C69.1489 68.5516 69.6548 68.0471 70.217 67.5427C70.4981 67.2624 70.6105 66.87 70.7792 66.5337C70.8354 66.3656 70.8916 66.1414 70.8354 65.9732C70.7792 65.749 70.7792 65.5248 70.7792 65.3006C70.7792 65.0203 70.7792 64.7961 70.7792 64.5158C70.7792 64.4037 70.7792 64.2916 70.7792 64.1795C70.7792 63.8432 70.7792 63.4509 70.7792 63.1145C70.7792 62.6661 70.7792 62.2177 70.7792 61.7693C70.7792 61.3209 70.7792 60.8164 70.7792 60.368C70.7792 59.8635 70.8354 59.3591 70.8354 58.9106C70.8354 58.7425 70.7792 58.5743 70.7792 58.4062C70.7792 58.2941 70.723 58.182 70.723 58.0138C70.723 57.3412 70.723 56.6686 70.723 55.9399C70.723 55.6036 70.723 55.3233 70.723 54.987C70.7792 54.5386 70.7792 54.0902 70.6668 53.6418C70.6668 53.5297 70.6668 53.3615 70.6668 53.2494C70.723 52.6889 70.723 52.0723 70.7792 51.5118C70.7792 51.3997 70.7792 51.3436 70.7792 51.2315C70.6668 50.8392 70.723 50.3907 70.723 49.9423C70.723 49.7181 70.723 49.4939 70.723 49.2697C70.6668 48.8773 70.6105 48.541 70.723 48.1487C70.7792 47.8684 70.7792 47.5881 70.7792 47.3079C70.723 46.9716 70.7792 46.6353 70.7792 46.299C70.7792 45.9626 70.8354 45.6263 70.7792 45.29C70.723 45.0658 70.723 44.8416 70.7792 44.6174C70.8354 44.2811 70.8354 44.2811 71.1727 44.2811C71.5663 44.2811 71.9036 44.2811 72.2971 44.225C73.1966 44.225 73.8712 43.8887 74.3772 43.16C74.6583 42.7677 74.8269 42.3193 74.8832 41.8148C74.8832 41.7587 74.8269 41.6466 74.7707 41.5906C74.6583 41.4785 74.3772 41.3103 73.9837 41.3103Z" fill="black"/>
<path d="M18.777 37.4988C18.9457 37.4427 19.1706 37.3867 19.3954 37.3867C19.8452 37.3306 20.2387 37.1625 20.576 36.9383C21.3631 36.3777 21.869 35.537 22.5437 34.8643C22.7685 34.6401 22.9372 34.3038 23.1059 33.9675C23.8367 32.5662 24.2302 30.9967 24.5675 29.4273C24.7362 28.7547 24.7924 28.082 24.9611 27.3534C25.0173 27.017 25.0735 26.6807 25.1297 26.2884C25.1859 25.84 25.2422 25.3915 25.2422 24.9431C25.2984 24.1023 25.3546 23.2616 25.4108 22.4208C25.467 21.7482 25.467 21.0195 25.4108 20.3469C25.4108 19.6742 25.3546 19.0577 25.2984 18.385C25.2422 17.8806 25.1859 17.3761 25.0735 16.9277C24.9611 16.3672 24.8486 15.8066 24.7362 15.2461C24.6238 14.6856 24.4551 14.1811 24.3427 13.6767C24.2302 13.1722 23.9491 12.7798 23.7805 12.2754C23.7805 12.2193 23.7243 12.2193 23.7243 12.1633C23.4432 11.883 23.2745 11.4906 22.9372 11.2104C22.5437 10.8741 22.0939 10.6499 21.588 10.5938C20.9133 10.5378 20.2949 10.7059 19.7327 11.0422C18.7208 11.6588 17.7651 12.4435 16.8656 13.2283C16.4158 13.5646 16.0785 14.013 15.7412 14.4614C15.2352 15.134 14.8417 15.9188 14.5606 16.7035C14.2795 17.4322 13.9984 18.2169 13.8298 19.0016C13.4925 20.3469 13.2114 21.6921 13.1552 23.0374C13.1552 23.766 13.0989 24.4947 13.0427 25.2234C13.0427 25.2794 13.0427 25.2794 13.0427 25.3355C13.0427 25.7279 13.0989 26.1202 13.0989 26.5126C13.0989 26.7928 13.0427 27.0731 13.0989 27.3534C13.2114 27.9699 13.1552 28.5865 13.38 29.147C13.38 29.2031 13.38 29.2591 13.38 29.3152C13.38 29.5954 13.38 29.8757 13.4925 30.0999C13.5487 30.2681 13.5487 30.4362 13.5487 30.6604C13.6049 31.1088 13.7173 31.5573 13.8298 32.0057C13.9422 32.5662 14.0547 33.1828 14.2795 33.7433C14.5606 34.3599 14.6731 34.9764 15.0104 35.593C15.1228 35.7612 15.1228 35.9854 15.2352 36.1535C15.4601 36.5459 15.7412 36.8822 16.0223 37.2185C16.1347 37.3306 16.3034 37.4427 16.4158 37.5548C16.7532 37.723 17.1467 37.779 17.5402 37.779C17.99 37.723 18.3835 37.6669 18.777 37.4988ZM20.5198 11.827C20.9695 11.4906 21.5317 11.7149 21.7566 12.0512C22.1501 12.6117 22.4312 13.1722 22.5437 13.8448C22.4312 13.9569 22.2626 13.9569 22.1501 13.8448C21.7566 13.5085 21.3069 13.1722 20.9695 12.7238C20.8009 12.4996 20.6322 12.3875 20.4636 12.2193C20.3511 12.0512 20.3511 11.9391 20.5198 11.827ZM19.6203 13.0601C19.4516 13.2843 19.2268 13.3964 18.9457 13.4525C19.0019 13.0601 19.283 12.8919 19.6203 13.0601ZM16.4721 33.463C16.191 32.9025 16.0223 32.2299 15.9661 31.6133C15.9099 31.0528 15.8537 30.4362 15.8537 29.8196C15.8537 29.147 15.9099 28.4183 15.9099 27.7457C15.9099 26.9049 15.9661 26.0642 16.0223 25.2234C16.0785 24.4947 16.1347 23.71 16.191 22.9813C16.2472 22.2526 16.3034 21.58 16.3596 20.8513C16.4721 19.8984 16.6407 18.9456 16.8656 17.9927C17.1467 17.0398 17.6526 16.2551 18.2711 15.5264C18.6646 15.078 19.0581 14.6856 19.5641 14.4053C19.6203 14.3493 19.6765 14.3493 19.7327 14.2932C20.07 14.1251 20.3511 14.1811 20.5198 14.5175C20.6885 14.9098 20.8571 15.3022 21.0258 15.6385C21.3069 16.199 21.4755 16.7595 21.6442 17.3201C21.7566 17.7124 21.8128 18.1048 21.9253 18.4411C21.9253 18.4971 21.9815 18.6092 21.9815 18.6653C22.1501 19.0577 22.2626 19.5061 22.3188 19.9545C22.375 20.2908 22.4312 20.6832 22.4874 21.0195C22.4874 21.0755 22.4874 21.1876 22.4874 21.2437C22.4874 21.6361 22.4874 22.0284 22.5437 22.4208C22.5999 23.5418 22.5437 24.6629 22.4312 25.7839C22.3188 26.6247 22.2064 27.4655 22.0377 28.3062C21.8128 29.5954 21.4755 30.9407 20.9695 32.1738C20.5198 33.2949 19.9576 34.4159 19.1706 35.3127C19.0581 35.4248 18.9457 35.593 18.777 35.7051C18.6084 35.8172 18.5521 35.8733 18.3835 35.7051C18.1024 35.4809 17.8775 35.2006 17.5964 34.9764C17.484 34.8643 17.3716 34.6962 17.2591 34.5841C16.978 34.3599 16.6969 33.9114 16.4721 33.463Z" fill="black"/>
<path d="M34.1247 37.2185C35.0242 36.6019 35.755 35.8172 36.3172 34.8643C37.0481 33.6872 37.554 32.342 37.8914 31.0528C38.2287 29.8757 38.5098 28.6986 38.7346 27.4655C38.8471 26.905 38.9033 26.3444 38.9595 25.7839C39.0157 25.0552 39.0719 24.3826 39.0719 23.6539C39.0719 23.3176 39.0719 22.9253 39.0719 22.5889C39.0719 22.0845 39.0719 21.58 39.0719 21.0755H39.1282C39.0719 20.2908 39.0157 19.5061 38.9033 18.7214C38.7908 17.8245 38.6784 16.9277 38.3973 16.0869C38.2287 15.5264 38.06 14.9659 37.8914 14.4054C37.8351 14.1812 37.7227 13.9009 37.6103 13.6767C37.4978 13.4525 37.4416 13.2283 37.3292 13.0041C37.0481 12.4996 36.6545 11.9951 36.261 11.5467C35.9237 11.2104 35.5864 10.8741 35.1366 10.762C34.2934 10.4817 33.5063 10.4257 32.7192 10.8741C32.2695 11.0983 31.876 11.3786 31.4262 11.6588C31.0889 11.883 30.7516 12.1072 30.4705 12.3875C30.077 12.892 29.571 13.2283 29.1213 13.6767C28.4466 14.3493 27.8844 15.078 27.6033 15.9748C27.3785 16.5914 27.266 17.1519 27.0974 17.7685C26.8725 18.4972 26.8725 19.2819 26.7601 20.0666C26.7601 20.2348 26.7039 20.4029 26.7601 20.5711C26.8163 20.7953 26.8163 21.0755 26.7601 21.2998C26.7601 21.3558 26.7039 21.4679 26.7039 21.524C26.6476 21.8603 26.7601 22.1405 26.7039 22.4768C26.6476 23.0374 26.7601 23.6539 26.7039 24.2145C26.6476 24.7189 26.7601 25.2234 26.7039 25.6718C26.7039 25.84 26.7039 25.9521 26.7039 26.1202C26.7039 26.4565 26.7039 26.7928 26.7601 27.0731C26.8163 27.5215 26.7601 28.026 26.9287 28.4744C26.9287 28.5305 26.9287 28.5305 26.9287 28.5865C26.9849 29.091 26.9287 29.5954 27.1536 30.0439C27.266 30.2681 27.2098 30.5483 27.266 30.7725C27.3223 31.1089 27.3785 31.3891 27.4909 31.7254C27.4909 31.8375 27.6033 31.9496 27.6033 32.0617C27.6596 32.342 27.6033 32.6223 27.8282 32.8465C27.8282 33.1267 27.9969 33.2949 28.1093 33.5191C28.3904 34.0796 28.7839 34.6962 29.1775 35.2006C29.2899 35.3128 29.3461 35.4249 29.4586 35.537C29.7397 35.8733 30.0207 36.2096 30.3018 36.5459C30.3581 36.6019 30.3581 36.6019 30.4143 36.658C30.6392 36.8262 30.8078 36.9943 31.0327 37.1625C31.1451 37.2746 31.2576 37.3306 31.4262 37.3867C31.8197 37.5548 32.2133 37.6109 32.663 37.6109C33.169 37.723 33.675 37.5548 34.1247 37.2185ZM33.2814 12.1633C33.7312 11.883 33.8436 11.883 34.1809 12.2754C34.4058 12.5556 34.6869 12.7799 34.9118 13.0601C35.0242 13.2283 35.0804 13.3964 35.0804 13.7327C34.462 13.1162 33.7874 12.6677 32.9441 12.4435C33.0566 12.2754 33.169 12.2193 33.2814 12.1633ZM32.3257 35.7051C31.8197 35.0325 31.37 34.3599 30.9202 33.6872C30.6392 33.2388 30.4143 32.7344 30.1332 32.2859C29.9645 32.0057 29.8521 31.6133 29.7397 31.277C29.5148 30.6044 29.3461 29.8757 29.2337 29.147C29.2337 28.9789 29.1775 28.8668 29.1775 28.6986C29.065 28.2502 29.065 27.8578 29.065 27.4094C29.065 26.7928 29.065 26.1202 29.065 25.5037C29.065 24.9992 29.1213 24.4947 29.1775 24.0463C29.2337 23.3176 29.3461 22.5329 29.4586 21.8042C29.5148 21.3558 29.6272 20.9074 29.6834 20.515C29.9083 19.45 30.1332 18.329 30.3581 17.264C30.6392 16.199 30.9765 15.134 31.4262 14.1812C31.4824 14.013 31.5386 13.8448 31.6511 13.6767C31.7073 13.5085 31.876 13.4525 32.0446 13.4525C32.3819 13.5085 32.663 13.6206 32.9441 13.7888C33.169 13.9569 33.3939 14.1251 33.6187 14.2933C33.7312 14.4054 33.7874 14.5175 33.8998 14.6296C34.0685 14.9098 34.2934 15.134 34.462 15.4143C34.7431 15.8067 35.0242 16.2551 35.2491 16.7035C35.6426 17.4882 35.8113 18.329 36.0361 19.2258C36.2048 19.7863 36.261 20.4029 36.3734 20.9634C36.4297 21.3558 36.4297 21.8042 36.4297 22.1966C36.4297 22.2526 36.4297 22.3647 36.4297 22.4208C36.4297 22.9253 36.4859 23.4858 36.4297 23.9902C36.3735 24.6068 36.4297 25.2234 36.3172 25.84C36.261 26.0081 36.261 26.2323 36.261 26.4005C36.2048 26.6807 36.1486 26.961 36.0361 27.1852C35.9237 27.5215 35.8675 27.9139 35.8113 28.3063C35.6988 28.6426 35.755 29.0349 35.5864 29.3152C35.5864 29.3712 35.5302 29.3712 35.5302 29.4273C35.5302 29.7076 35.4177 29.9878 35.3615 30.2681C35.3053 30.4923 35.2491 30.7165 35.1929 30.8846C35.1366 31.1089 35.0242 31.3331 34.968 31.5012C34.8555 32.1178 34.5745 32.6783 34.4058 33.2388C34.1809 33.9675 33.8998 34.6962 33.4501 35.3128C33.3376 35.4809 33.169 35.7051 33.0566 35.8733C32.8879 36.0414 32.8317 36.0975 32.6068 35.9293C32.5506 35.9854 32.4381 35.8733 32.3257 35.7051Z" fill="black"/>
<path d="M116.654 50.7831C116.541 50.3347 116.429 49.9423 116.373 49.4939C116.316 48.9894 116.26 48.4289 116.204 47.8684C116.091 47.0837 115.979 46.355 115.867 45.5703C115.754 44.7855 115.473 44.0008 115.248 43.2161C115.192 43.0479 115.136 42.9358 115.023 42.8237C114.967 42.7116 114.855 42.5435 114.798 42.4314C114.405 41.5906 113.674 41.0861 112.775 40.8059C112.1 40.6377 111.481 40.6377 110.807 40.6377C110.076 40.6377 109.458 40.918 108.952 41.3664C108.052 42.1511 107.434 43.16 107.04 44.2811C106.815 44.9537 106.59 45.6263 106.478 46.355C106.309 47.42 106.085 48.4289 105.972 49.4939C105.803 50.8392 105.747 52.2405 105.747 53.6418C105.747 54.987 105.747 56.3323 105.803 57.6775C105.803 58.2941 105.86 58.8546 105.86 59.4712C105.86 59.4712 105.86 59.4712 105.803 59.4712C105.803 59.8075 105.86 60.0877 105.86 60.4241C105.916 60.8725 105.972 61.3769 106.028 61.8254C106.085 62.2177 106.141 62.6661 106.197 63.0585C106.253 63.3388 106.253 63.6751 106.366 63.9553C106.478 64.4037 106.647 64.8522 106.815 65.3566C106.872 65.5808 106.984 65.8611 107.096 66.0853C107.209 66.3095 107.321 66.4777 107.434 66.6458C107.546 66.7579 107.659 66.9261 107.771 67.0382C108.108 67.3184 108.502 67.4866 108.952 67.5427C110.076 67.8229 111.088 67.6548 112.1 67.0942C113.562 66.2535 114.517 64.9643 115.248 63.4509C115.642 62.6101 115.923 61.7693 116.148 60.8725C116.26 60.5362 116.316 60.2559 116.373 59.9196C116.541 59.1349 116.71 58.3501 116.822 57.6215C116.935 56.9488 116.935 56.3323 116.991 55.6596C117.103 54.2583 116.991 52.801 116.766 51.3997C116.766 51.2315 116.71 51.0073 116.654 50.7831ZM107.996 47.476C108.165 46.6913 108.333 45.8505 108.614 45.1219C108.895 44.3371 109.233 43.6084 109.907 42.9919C110.47 42.4874 111.144 42.2071 111.875 42.1511C112.044 42.1511 112.212 42.1511 112.381 42.2072C112.55 42.2072 112.662 42.3193 112.718 42.4874C112.887 42.8237 113.056 43.16 113.224 43.4963C113.393 43.8327 113.505 44.169 113.618 44.4492C113.674 44.5613 113.73 44.6734 113.562 44.7855C113.337 44.7295 113.168 44.5613 112.999 44.4492C112.381 44.0569 111.706 43.7766 110.919 43.9448C110.357 44.0569 109.964 44.3932 109.626 44.7855C109.177 45.3461 108.839 46.0187 108.614 46.7474C108.389 47.6442 108.165 48.541 107.94 49.4379C107.827 49.9984 107.771 50.5589 107.715 51.1194C107.715 51.1194 107.715 51.1194 107.659 51.1194C107.659 50.9513 107.602 50.7831 107.659 50.615C107.715 49.4939 107.715 48.485 107.996 47.476ZM107.602 53.3615H107.659C107.659 53.4175 107.659 53.5297 107.659 53.5857H107.602C107.602 53.4736 107.602 53.4175 107.602 53.3615ZM107.602 54.0902C107.659 54.0902 107.659 54.0902 107.602 54.0902C107.659 54.2583 107.659 54.3704 107.659 54.5386H107.602C107.602 54.3704 107.602 54.2023 107.602 54.0902ZM112.1 65.749C111.763 65.9732 111.481 66.2535 111.144 66.4216C110.526 66.7579 109.907 66.7579 109.289 66.3656C108.952 66.1414 108.727 65.805 108.558 65.4127C108.558 65.3566 108.558 65.3006 108.558 65.1324C109.739 65.8611 110.919 65.749 112.156 65.5808C112.156 65.6929 112.156 65.749 112.1 65.749ZM114.461 55.0431C114.349 56.2762 114.292 57.5093 114.011 58.6864C113.786 59.6393 113.562 60.6483 113.28 61.6011C113.112 62.2738 112.831 62.9464 112.662 63.563C112.437 64.2916 112.1 64.4598 111.313 64.628C111.257 64.628 111.144 64.628 111.088 64.628C110.47 64.628 109.964 64.4037 109.57 63.8993C109.233 63.4509 109.008 63.0024 108.839 62.4419C108.614 61.8253 108.502 61.1527 108.333 60.5362C108.221 59.9756 108.052 59.4151 107.996 58.8546C107.827 57.9578 107.715 57.0609 107.715 56.1641C107.715 55.7157 107.715 55.2673 107.715 54.7628H107.771C107.771 54.8188 107.827 54.931 107.827 54.987C107.827 55.5475 107.996 56.1641 108.108 56.7246C108.165 56.9488 108.277 57.117 108.333 57.3412C108.502 57.2291 108.614 57.0609 108.614 56.8928C108.671 56.2201 108.727 55.6036 108.783 54.931C108.895 53.7539 109.008 52.5768 109.12 51.3997C109.177 50.9513 109.177 50.4468 109.289 49.9984C109.401 49.2136 109.57 48.485 109.739 47.7002C109.907 46.9716 110.132 46.2989 110.47 45.6263C110.582 45.4021 110.694 45.234 110.863 45.0098C111.144 44.6734 111.369 44.6174 111.706 44.8416C112.044 45.0658 112.381 45.29 112.606 45.5703C112.999 46.0747 113.337 46.5792 113.674 47.0837C113.955 47.476 114.18 47.8684 114.292 48.3729C114.517 49.1015 114.63 49.8302 114.63 50.5589C114.63 51.3997 114.686 52.2965 114.686 53.1373C114.517 53.8099 114.517 54.4265 114.461 55.0431Z" fill="black"/>
<path d="M28.8964 61.8814C28.3342 61.6572 27.8282 61.6011 27.266 61.9374C26.9287 62.1616 26.7038 62.498 26.479 62.8343C26.1979 63.2827 25.9168 63.7311 25.5795 64.1235C24.9611 64.9642 24.174 65.5808 23.3307 66.1974C23.0496 66.3655 22.7685 66.5337 22.4874 66.6458C21.5879 66.9821 20.8571 66.5337 20.4636 65.6929C20.1825 65.1324 20.0138 64.5719 19.8452 63.9553C19.7327 63.5069 19.5641 63.0585 19.5641 62.554C19.5641 61.9935 19.5641 61.433 19.5641 60.8725C19.5641 60.5922 19.5641 60.5361 19.8452 60.4801C20.1825 60.368 20.5198 60.1998 20.8009 59.9756C21.4755 59.4151 22.1501 58.7985 22.7123 58.1259C23.0496 57.6775 23.3869 57.2291 23.7242 56.7807C24.6237 55.6036 25.5232 54.4825 26.1416 53.1373C26.3665 52.6889 26.5914 52.2404 26.7601 51.792C26.9849 51.2315 27.2098 50.6149 27.3785 50.0544C27.4909 49.6621 27.6596 49.2697 27.7158 48.8773C27.772 48.2047 27.772 47.476 27.772 46.8034C27.772 46.1308 27.6596 45.4582 27.6033 44.8416C27.5471 44.3371 27.3785 43.8887 27.0974 43.4963C26.9849 43.3842 26.8725 43.2161 26.8163 43.104C26.5914 42.7116 26.1979 42.4874 25.8043 42.2632C24.9611 41.8708 24.0616 41.9269 23.2183 41.9829C23.1621 41.9829 23.0496 42.039 22.9934 42.039C22.5999 42.1511 22.2063 42.3753 21.869 42.5995C21.1944 43.0479 20.6884 43.6084 20.1825 44.225C19.3392 45.2339 18.777 46.355 18.3273 47.5321C18.1586 47.9244 17.99 48.3168 17.8775 48.7652C17.7089 49.2697 17.484 49.8302 17.3715 50.3907C17.2591 50.8952 17.2591 51.3997 17.2029 51.8481C17.1467 52.1844 17.0905 52.5207 17.0905 52.857C17.0342 53.8099 17.0342 54.7628 17.1467 55.7157C17.2029 55.9959 17.2029 56.3322 17.2029 56.6125C17.2029 57.4533 17.2029 58.3501 17.2029 59.1909C17.2029 60.1998 17.2029 61.1527 17.2029 62.1616C17.2029 62.6101 17.2029 63.1145 17.2029 63.5629C17.2029 63.619 17.2029 63.675 17.2591 63.7311C17.4278 64.1795 17.5964 64.6279 17.6526 65.1324C17.7089 65.4687 17.8775 65.805 17.99 66.0853C18.1024 66.4216 18.2148 66.7579 18.4397 67.0382C19.0019 67.7108 19.6765 68.1592 20.576 68.2713C20.8571 68.3274 21.1944 68.2713 21.5317 68.2713C21.7004 68.2713 21.869 68.2713 22.0377 68.2713C22.9372 68.2713 23.7242 68.0471 24.5113 67.5426C25.6357 66.87 26.5914 66.0292 27.4347 65.0203C28.0531 64.2916 28.559 63.5069 29.065 62.7222C29.1212 62.6101 29.1775 62.498 29.2337 62.4419C29.2337 62.2177 29.1775 61.9935 28.8964 61.8814ZM19.6203 55.4354C19.6203 55.3233 19.6203 55.2112 19.6203 55.0991C19.5641 54.6507 19.5079 54.2583 19.5079 53.8099C19.5079 53.4736 19.5079 53.1933 19.5079 52.857C19.5641 51.8481 19.6765 50.8952 19.8452 49.8863C19.8452 49.7742 19.9014 49.7181 19.9014 49.606C20.2387 48.6531 20.6322 47.6442 21.0258 46.6913C21.3631 45.9066 21.869 45.1779 22.4312 44.5053C22.7123 44.169 23.0496 43.8326 23.4432 43.6084C23.7242 43.4403 23.9491 43.4403 24.174 43.6084C24.6237 44.0008 25.0173 44.3932 25.1859 44.9537C25.2422 45.2339 25.2984 45.5142 25.2984 45.7945C25.3546 46.355 25.4108 46.8595 25.4108 47.42C25.4108 48.0926 25.467 48.7652 25.2984 49.4378C25.2422 49.7742 25.1297 50.0544 25.0173 50.3347C24.9048 50.6149 24.7924 50.8952 24.7362 51.1755C24.3989 52.1283 24.0053 53.0812 23.4432 53.9781C22.9934 54.7628 22.4874 55.4915 21.9253 56.1641C21.3068 56.8928 20.7447 57.6775 20.1263 58.4062C20.0138 58.5183 19.9014 58.6304 19.7889 58.7425C19.7889 58.7425 19.7327 58.7425 19.7327 58.6864C19.7327 58.6304 19.6765 58.5743 19.6765 58.4622C19.6765 58.182 19.6765 57.9017 19.6765 57.6214C19.6203 56.8928 19.6203 56.1641 19.6203 55.4354Z" fill="black"/>
<path d="M62.1778 63.2827C62.0653 63.2267 61.9529 63.2267 61.8967 63.2267C61.5032 63.1706 61.1658 63.2267 60.7723 63.2827C59.9853 63.4509 59.1982 63.563 58.4674 63.6751C58.4674 63.619 58.4674 63.619 58.4674 63.563C58.8609 63.4509 59.3106 63.2827 59.7042 63.1706C60.2663 63.0024 60.8848 62.8343 61.4469 62.6661C61.6156 62.6101 61.7843 62.498 61.8405 62.3298C61.9529 62.1617 61.9529 61.9935 61.728 61.9375C61.5594 61.8814 61.3907 61.8814 61.2221 61.8814C60.3226 61.8814 59.4793 61.9935 58.636 62.2177C57.1181 62.6101 55.6564 63.0585 54.1947 63.619C54.0823 63.6751 53.9699 63.6751 53.8012 63.7311C53.8012 63.6751 53.745 63.619 53.745 63.563C53.6888 62.9464 53.6326 62.3298 53.5763 61.6572C53.5201 60.9285 53.4077 60.1998 53.3515 59.4151C53.2952 58.5743 53.239 57.7896 53.1828 56.9488C53.1828 56.7807 53.239 56.7246 53.3515 56.6686C53.5201 56.6125 53.6888 56.5565 53.8574 56.5004C55.1505 56.1081 56.4435 55.7157 57.6803 55.3233C58.0176 55.2112 58.4111 55.0991 58.7484 54.987C58.9171 54.931 59.0858 54.8189 59.142 54.5947C59.1982 54.4265 59.1982 54.3144 59.0295 54.2583C58.9171 54.2023 58.8047 54.2023 58.6922 54.1462C58.8609 53.9781 58.9733 53.866 59.0858 53.6978C59.1982 53.5297 59.142 53.4176 58.9733 53.3055C58.8609 53.2494 58.7484 53.1934 58.6922 53.1934C58.8047 53.0812 58.8609 53.0252 58.9733 52.9691C59.1982 52.6889 59.1982 52.5207 58.8047 52.4647C58.6922 52.4086 58.5798 52.4086 58.4674 52.4086C58.13 52.4086 57.7365 52.4086 57.3992 52.4647C56.2186 52.5768 54.9818 52.7449 53.8574 53.0252C53.6326 53.0812 53.3515 53.1373 53.1266 53.1934C53.1266 53.1373 53.0704 53.1373 53.0704 53.0812C53.0142 52.1284 52.9017 51.2315 52.9017 50.2786C52.8455 49.2697 52.8455 48.2608 52.8455 47.2518C52.8455 46.6913 52.7893 46.1308 52.7893 45.5703C52.7893 45.4021 52.8455 45.29 53.0142 45.29C53.2952 45.234 53.5201 45.1779 53.8012 45.1219C54.1385 45.0658 54.4196 45.0098 54.7569 44.8977C55.6564 44.5613 56.5559 44.169 57.4554 43.8327C58.0176 43.6085 58.5798 43.4964 59.142 43.3282C59.3669 43.2722 59.4793 43.16 59.5355 42.9919C59.5917 42.8237 59.5917 42.5995 59.5355 42.4314C59.5355 42.3753 59.4793 42.3753 59.4231 42.3193C59.3669 42.2632 59.3106 42.2632 59.2544 42.2072C59.3106 42.1511 59.3106 42.0951 59.3106 42.039C59.3669 41.8708 59.3669 41.7587 59.142 41.7027C58.9733 41.6466 58.8047 41.6466 58.6922 41.6466C58.3549 41.7027 58.0176 41.7587 57.6803 41.8148C57.2868 41.9269 56.9495 42.039 56.6121 42.1511C55.6564 42.4314 54.7569 42.7116 53.8012 42.9919C53.4077 43.104 53.0704 43.2161 52.6768 43.3843C52.6768 43.2721 52.6206 43.16 52.6206 43.0479C52.5644 42.7677 52.5644 42.5435 52.5082 42.2632C52.452 41.9269 52.1709 41.8148 51.8898 41.983C51.8336 42.039 51.7773 42.0951 51.6649 42.0951C51.6087 42.039 51.6087 42.039 51.5525 41.983C51.4962 41.8708 51.4962 41.7587 51.44 41.7027C51.3838 41.5345 51.2714 41.4785 51.1589 41.4785C51.1027 41.4785 50.9903 41.5906 50.9341 41.6466C50.8778 41.8148 50.8216 41.983 50.7654 42.0951C50.5968 42.0951 50.4843 42.039 50.3157 42.039C50.0908 42.039 49.9221 42.2072 49.9221 42.3753C49.8659 42.7116 49.8659 43.0479 49.8659 43.3843C49.8659 43.6085 49.8097 43.7766 49.8097 44.0008C49.8097 44.4492 49.5848 44.7295 49.1351 44.8416C48.9664 44.8977 48.854 45.0098 48.7415 45.1219C48.5729 45.3461 48.6291 45.4582 48.9102 45.5142C49.0788 45.5142 49.3037 45.5142 49.4724 45.5703C49.4724 45.6824 49.4724 45.7945 49.5286 45.8505C49.6973 46.0187 49.6973 46.2429 49.6973 46.4671C49.8097 47.6442 49.8659 48.8213 49.9221 49.9423C50.0346 51.2876 50.0908 52.6328 50.2032 53.9781C50.2032 54.0341 50.147 54.1462 50.0908 54.2023C49.8659 54.4825 49.8097 54.8749 49.4724 55.1552C49.4724 55.1552 49.4724 55.1552 49.4724 55.2112C49.4162 55.3794 49.4724 55.4915 49.641 55.5475C49.7535 55.6036 49.9221 55.6036 50.0908 55.6036C50.147 55.6036 50.2594 55.6036 50.3157 55.6596C50.3157 55.8838 50.3719 56.1081 50.2594 56.3323C50.2032 56.4444 50.2032 56.5565 50.3157 56.6686C50.4281 56.7807 50.4281 56.9488 50.4843 57.0609C50.5405 58.0138 50.5968 58.9667 50.653 59.8635C50.7654 61.1527 50.8216 62.4419 50.9341 63.7872C50.9903 64.3477 51.0465 64.8522 51.0465 65.4127C50.8216 65.5808 50.5405 65.749 50.5968 66.0853C50.7654 66.1414 50.9341 66.1414 51.1027 66.1974C51.0465 66.3095 50.9903 66.4216 50.9341 66.5337C50.8778 66.6458 50.8778 66.7579 50.9903 66.814C51.1589 66.87 51.2152 66.9821 51.2152 67.1503C51.2152 67.2624 51.2714 67.3745 51.2714 67.4866C51.2714 67.6548 51.3838 67.8229 51.5525 67.879C51.7773 67.9911 51.8898 68.1032 51.946 68.3834C51.946 68.4955 52.0584 68.6076 52.1709 68.6076C52.3957 68.6637 52.6768 68.6637 52.9017 68.7198C53.1266 68.7198 53.239 68.6637 53.2952 68.4955C53.3515 68.3274 53.3515 68.1032 53.3515 67.935C53.3515 67.5427 53.3515 67.0942 53.4077 66.7019C53.6326 66.6458 53.8012 66.5337 54.0261 66.4777C55.3753 66.0293 56.7246 65.5248 58.0176 65.1324C59.2544 64.7401 60.5474 64.4037 61.8405 64.1235C62.0653 64.0674 62.234 63.9553 62.3464 63.7872C62.4027 63.4509 62.3464 63.3388 62.1778 63.2827Z" fill="black"/>
<path d="M0.562214 37.2185C0.955744 37.2745 1.34927 37.2185 1.7428 37.2185C1.85524 37.2185 2.0239 37.2185 2.13633 37.2185C2.36121 37.2745 2.41743 37.3866 2.30499 37.6109C2.24877 37.6669 2.19255 37.723 2.19255 37.779C1.91146 38.3395 2.0239 38.4516 2.52986 38.5077C2.86718 38.5637 3.20449 38.5637 3.5418 38.5077C4.27264 38.4516 4.94726 38.3395 5.67811 38.1714C7.13979 37.8911 8.54526 37.5548 9.95072 37.2185C10.794 37.0503 11.5811 36.7701 12.4806 36.714C12.9303 36.714 13.2114 36.4898 13.4363 36.1535C13.6611 35.8732 13.5487 35.593 13.2114 35.4809C12.9303 35.4248 12.6492 35.3688 12.3681 35.3688C12.1432 35.3688 11.9746 35.3688 11.7497 35.3688C11.3 35.3688 10.9064 35.3127 10.4567 35.2567C10.4005 35.2567 10.3442 35.2567 10.288 35.2006C10.4005 35.0885 10.5129 35.0325 10.6253 35.0325C11.0189 34.9764 11.2437 34.6962 11.4124 34.4159C11.5811 34.1356 11.5248 33.9114 11.1875 33.7993C10.8502 33.6872 10.4567 33.6312 10.1194 33.6872C9.83828 33.7433 9.55719 33.7993 9.2761 33.8554C8.995 33.9114 8.93878 33.9114 8.88257 33.6312C8.82635 33.2388 8.77013 32.8464 8.71391 32.4541C8.71391 31.8375 8.71391 31.277 8.71391 30.6604C8.71391 29.4833 8.77013 28.3062 8.77013 27.1291C8.77013 26.7928 8.77013 26.4005 8.82635 26.0641C8.82635 25.3355 8.82635 24.6628 8.82635 23.9342C8.82635 22.8692 8.88257 21.8602 8.93878 20.7953C8.93878 20.0105 8.995 19.2258 9.05122 18.4411C9.10744 17.6003 9.16366 16.8156 9.21988 15.9748C9.21988 15.5824 9.2761 15.134 9.33232 14.7416C9.33232 14.3493 9.38853 13.9569 9.38853 13.6206C9.38853 12.8359 9.44475 12.1072 9.44475 11.3225C9.44475 11.0422 9.38853 10.762 9.38853 10.5377C9.38853 10.3696 9.2761 10.3135 9.10744 10.3135C8.88257 10.3135 8.71391 10.3135 8.54525 10.4817C8.32038 10.4256 8.15172 10.4256 7.92685 10.3696C7.4771 10.3135 7.13979 10.4817 6.97113 10.9301C6.69004 11.5467 6.63382 12.2193 6.52138 12.8919C6.46517 13.3403 6.46517 13.7327 6.35273 14.1811C6.29651 14.4053 6.24029 14.6295 6.12785 14.8537C5.56567 15.9187 5.00348 17.0398 4.27264 18.0487C3.82289 18.6092 3.37314 19.1698 2.92339 19.7303C2.52986 20.1787 2.08012 20.5711 1.68659 21.0195C1.51793 21.1876 1.34927 21.2997 1.23684 21.5239C1.01196 21.8042 1.1244 21.9724 1.46171 22.0845C1.85524 22.1966 2.24877 22.1405 2.52986 21.8602C2.6423 21.7481 2.75474 21.6921 2.92339 21.58C2.97961 21.5239 3.03583 21.5239 3.09205 21.4679L3.14827 21.5239C2.92339 21.7481 2.81096 21.8602 2.69852 22.0284C2.52986 22.2526 2.41743 22.4768 2.24877 22.701C2.13633 22.8692 2.19255 22.9813 2.41743 23.0373C2.58608 23.0934 2.75474 23.0373 2.92339 22.9252C3.65424 22.3647 4.32886 21.7481 4.83483 21.0195C5.17214 20.4589 5.50945 19.8984 5.84676 19.394C5.90298 19.3379 5.90298 19.1698 6.01542 19.1698C6.01542 19.7303 6.01542 20.2347 6.01542 20.7392C5.9592 21.8042 5.9592 22.8131 5.90298 23.8781C5.84676 24.775 5.84676 25.6718 5.79054 26.5686C5.73432 27.5776 5.67811 28.5304 5.62189 29.5394C5.56567 30.4923 5.50945 31.4451 5.50945 32.398C5.45323 33.1267 5.45323 33.8554 5.50945 34.5841C5.50945 34.8083 5.45323 34.9764 5.22836 35.0325C5.00348 35.1446 4.77861 35.2567 4.49752 35.3127C3.31693 35.593 2.19255 35.8172 1.01196 36.0975C0.674651 36.1535 0.393558 36.3777 0.224902 36.658C0.0562465 37.0503 0.112465 37.1624 0.562214 37.2185ZM7.13979 34.1917C7.25223 34.2477 7.36466 34.3038 7.42088 34.3598C7.30844 34.4719 7.25223 34.528 7.13979 34.4719C7.08357 34.4159 7.13979 34.3038 7.13979 34.1917Z" fill="black"/>
<path d="M120.252 12.2194C120.252 12.2754 120.252 12.3315 120.252 12.3875C120.252 12.6117 120.308 12.8359 120.308 13.0601C120.364 13.6767 120.42 14.2372 120.476 14.8538C120.533 15.4143 120.589 15.9188 120.589 16.4793C120.645 17.4322 120.758 18.3851 120.814 19.338C120.87 20.0106 120.87 20.6832 120.926 21.3558C120.926 21.9164 120.982 22.4769 121.039 23.0374C121.095 23.7661 121.095 24.5508 121.151 25.2795C121.207 25.896 121.263 26.5687 121.263 27.1852C121.32 28.2502 121.263 29.3152 121.376 30.3241C121.432 31.1089 121.432 31.8376 121.376 32.6223C121.376 33.2949 121.376 33.9675 121.32 34.6402C121.32 34.8644 121.32 35.1446 121.376 35.3688C121.376 35.6491 121.432 35.7051 121.713 35.7612C121.882 35.8172 122.051 35.8172 122.219 35.8172C122.5 35.8733 122.725 35.7612 122.838 35.537C122.894 35.4249 122.95 35.3128 122.95 35.2007C122.95 35.0325 122.894 34.9204 122.894 34.7523C122.894 33.8554 122.838 32.9586 122.838 32.0618C122.838 31.3331 122.838 30.6044 122.894 29.9318C122.894 29.5394 122.95 29.1471 122.894 28.6986C122.894 27.3534 122.838 25.9521 122.781 24.6068C122.781 24.5508 122.781 24.4387 122.838 24.3826C124.58 24.2705 126.323 24.2145 128.066 24.1024C129.809 23.9903 131.495 23.8221 133.238 23.71C133.238 23.7661 133.238 23.8221 133.294 23.8782C133.294 24.6068 133.294 25.3916 133.294 26.1203C133.294 26.6808 133.294 27.2413 133.35 27.7458C133.35 28.3623 133.407 28.9229 133.407 29.5394C133.407 30.0439 133.407 30.5484 133.407 31.0528C133.407 31.3891 133.463 31.7815 133.463 32.1178C133.463 32.6223 133.463 33.0707 133.463 33.5752C133.463 33.7433 133.519 33.8554 133.463 34.0236C133.407 34.6402 133.519 35.2567 133.632 35.8733C133.632 36.0415 133.744 36.2096 133.8 36.3217C133.856 36.3778 133.913 36.4899 133.969 36.4899C134.25 36.5459 134.531 36.602 134.868 36.658C135.037 36.658 135.149 36.602 135.262 36.4338C135.487 36.1536 135.487 35.8733 135.431 35.593C135.318 35.0886 135.206 34.6402 135.262 34.1357C135.262 33.8554 135.262 33.5752 135.262 33.2949C135.262 32.7344 135.262 32.1739 135.262 31.6133C135.262 31.5573 135.262 31.5012 135.262 31.4452C135.262 31.221 135.206 31.0528 135.206 30.8286C135.206 29.6515 135.206 28.5305 135.206 27.3534C135.206 26.2884 135.149 25.2234 135.149 24.1584C135.149 23.8221 135.093 23.4298 135.431 23.2055C135.543 22.9813 135.543 22.9253 135.318 22.8132C135.149 22.7571 135.149 22.645 135.149 22.4769C135.149 22.4208 135.149 22.3087 135.149 22.2527C135.149 21.2998 135.149 20.3469 135.149 19.394C135.149 18.329 135.093 17.3201 135.093 16.2551C135.093 15.4704 135.037 14.7417 135.037 13.957C135.037 13.4525 135.037 12.948 135.037 12.3875C135.037 11.883 135.093 11.3786 135.093 10.8741C135.093 10.3136 135.093 9.69702 135.037 9.1365C135.037 8.85624 134.981 8.57598 134.925 8.29572C134.925 8.18361 134.868 8.01546 134.7 8.01546C134.025 7.8473 133.519 8.07151 133.407 8.80019C133.35 9.19255 133.35 9.58491 133.294 9.97728C133.238 10.6499 133.238 11.2665 133.182 11.9391C133.069 12.948 133.069 14.013 133.126 15.022C133.182 15.9188 133.182 16.7596 133.238 17.6003C133.238 17.9927 133.238 18.4411 133.238 18.8335C133.238 19.5061 133.238 20.2348 133.238 20.9074C133.238 21.3558 133.238 21.8603 133.238 22.3087C133.238 22.4208 133.238 22.5329 133.238 22.589C129.753 22.8132 126.267 23.0374 122.725 23.2055C122.725 23.0374 122.725 22.8132 122.725 22.645C122.669 21.8042 122.613 20.9074 122.557 20.0666C122.5 18.8895 122.5 17.7125 122.444 16.5354C122.388 15.8627 122.332 15.1901 122.332 14.5175C122.275 13.8449 122.219 13.1162 122.163 12.4436C122.107 12.0512 122.051 11.7149 122.051 11.3225C121.994 10.6499 121.882 10.0333 121.769 9.36071C121.769 9.2486 121.713 9.1365 121.601 9.1365C121.32 9.02439 120.982 8.96834 120.645 9.1365C120.308 9.30465 120.083 9.58491 120.083 9.97728C120.083 10.1454 120.027 10.3136 120.083 10.4817C120.139 11.0983 120.139 11.6588 120.252 12.2194Z" fill="black"/>
<path d="M42.8386 21.7482C42.8948 22.4769 43.0072 23.2055 43.1197 23.8782C43.1759 24.2705 43.2321 24.6068 43.2883 24.9992C43.2883 25.2234 43.3446 25.4476 43.3446 25.6718C43.4008 26.1202 43.4008 26.5687 43.457 27.0171C43.5132 27.5776 43.5132 28.1381 43.6819 28.6986C43.7381 28.9789 43.7943 29.2592 43.7943 29.5394C43.7381 30.156 43.8505 30.7726 43.9067 31.4452C43.963 31.8375 44.0754 32.1739 44.1316 32.5662C44.2441 33.2949 44.3003 33.9675 44.4127 34.6962C44.4689 34.9765 44.4127 34.9765 44.1878 35.1446C43.9067 35.3128 43.6257 35.4249 43.3446 35.6491C43.2321 35.7612 43.1197 35.8733 43.0073 36.0415C42.8948 36.2096 42.951 36.3778 43.1759 36.4338C43.2321 36.4338 43.2883 36.4338 43.3446 36.4899C43.9067 36.602 44.4689 36.4338 44.9749 36.1536C46.3241 35.537 47.6734 34.8083 48.9664 33.9675C49.7535 33.4631 50.5405 32.9025 51.2714 32.286C51.8336 31.8375 52.3958 31.3331 52.9017 30.7726C53.5201 30.0999 54.0823 29.3713 54.7007 28.6986C55.3753 27.8579 55.8251 26.905 56.1624 25.896C56.3311 25.4476 56.4435 24.9992 56.6121 24.5508C56.837 24.0463 56.9495 23.4858 56.9495 22.9253C56.9495 21.9163 56.6121 21.0756 55.9937 20.2908C55.8251 20.1227 55.6564 19.9545 55.4316 19.8424C54.7007 19.2819 53.8574 19.0016 52.9579 19.0577C52.1709 19.1137 51.44 19.2819 50.7092 19.5622C50.3157 19.7303 49.9784 19.8985 49.641 20.0666C48.4042 20.6272 47.2799 21.4119 46.3241 22.4208C45.9306 22.8132 45.6495 23.3176 45.4247 23.8221C45.3122 24.1024 45.3684 24.2145 45.6495 24.2705C45.8182 24.2705 46.0431 24.3266 46.2679 24.3266C46.3804 24.3266 46.549 24.2705 46.6052 24.2145C46.8863 23.9903 47.2236 23.71 47.4485 23.4298C48.1231 22.7011 48.854 22.0845 49.6973 21.58C50.0908 21.3558 50.5405 21.1316 50.9341 20.9074C51.44 20.6272 52.0022 20.459 52.5644 20.3469C52.7331 20.3469 52.9017 20.2908 53.0704 20.3469C53.4639 20.459 53.8012 20.7393 54.0823 21.0756C54.3634 21.4119 54.4758 21.7482 54.6445 22.1406C54.7569 22.3087 54.8132 22.5329 54.8694 22.7011C54.9256 23.1495 54.9256 23.654 54.8132 24.1024C54.5883 24.8871 54.3072 25.6158 54.0823 26.4005C53.9137 26.961 53.6888 27.5215 53.2953 27.97C52.7331 28.6986 52.1709 29.3713 51.5525 30.0999C51.0465 30.7165 50.4281 31.277 49.8097 31.7254C49.0226 32.286 48.2356 32.8465 47.3923 33.407C47.1112 33.5752 46.8301 33.7433 46.4928 33.9675C46.4366 33.8554 46.4366 33.7994 46.3804 33.7433C46.3241 33.2949 46.2679 32.8465 46.2117 32.3981C46.2117 32.1178 46.1555 31.8375 46.0431 31.5573C45.9868 31.3331 45.9306 31.0528 45.9306 30.7726C45.8744 30.212 45.9306 29.7076 45.8744 29.1471C45.8182 28.5305 45.7057 27.9139 45.6495 27.3534C45.5933 26.905 45.5371 26.5126 45.4809 26.0642C45.4247 25.1113 45.3684 24.1584 45.1998 23.2055C45.0873 22.589 45.0311 21.9163 44.9749 21.2998C44.9187 20.459 44.8625 19.6182 44.8625 18.7774C44.8625 18.329 44.75 17.8246 44.75 17.3761C44.75 16.5354 44.75 15.7506 44.6938 14.9098C44.6938 14.8538 44.6938 14.7977 44.6938 14.7417C44.75 14.7417 44.75 14.6856 44.8062 14.6856C45.5371 14.4054 46.2679 14.1251 46.9988 13.9009C47.9545 13.5646 48.9102 13.2283 49.8659 12.948C50.8216 12.6678 51.8336 12.4436 52.7893 12.2194C54.3072 11.883 55.7127 11.2665 57.0619 10.5938C57.1743 10.5378 57.2868 10.4257 57.343 10.3136C57.5679 10.0333 57.5116 9.80912 57.1181 9.75307C56.837 9.69701 56.5559 9.69701 56.3311 9.80912C55.7689 9.97727 55.2067 10.2015 54.6445 10.3696C53.8574 10.5938 53.0704 10.8741 52.2833 11.0423C51.3276 11.3225 50.3157 11.4907 49.36 11.7709C47.6734 12.2194 46.0431 12.8359 44.4127 13.4525C43.963 13.6207 43.5694 13.8449 43.2883 14.2372C43.1759 14.3493 43.0635 14.5175 43.0073 14.6856C42.951 15.022 42.8948 15.3022 42.8948 15.6385C42.8386 16.3672 42.7824 17.0959 42.8386 17.8246C42.8386 18.8335 42.951 19.8985 42.951 20.9074C42.8386 21.0756 42.7824 21.4119 42.8386 21.7482Z" fill="black"/>
<path d="M105.972 41.0861C105.972 41.0301 105.972 40.918 105.916 40.8619C105.747 40.7498 105.635 40.5816 105.466 40.5256C104.791 40.3014 104.173 40.2453 103.498 40.4695C102.768 40.6938 102.037 40.918 101.306 41.0301C100.35 41.1982 99.4507 41.4785 98.4388 41.5906C97.0895 41.7587 95.7965 42.039 94.5035 42.3753C93.9413 42.5435 93.4915 42.9358 93.2667 43.4964C93.0418 44.0569 93.1542 44.225 93.7726 44.3932C93.7726 44.3932 93.7726 44.3932 93.8288 44.3932C94.391 44.5053 95.0094 44.5053 95.5716 44.3932C96.3587 44.2811 97.1457 44.0569 97.9328 43.8887C98.0452 43.8887 98.1015 43.8327 98.2701 43.8327C98.2701 44.0008 98.2701 44.169 98.2701 44.2811C98.2701 44.3932 98.2701 44.5053 98.2701 44.6174C98.2701 46.2429 98.2701 47.8684 98.2701 49.55C98.2701 50.7271 98.2701 51.8481 98.2701 53.0252C98.2701 53.1933 98.2701 53.3615 98.2701 53.5297C98.2701 54.0902 98.2701 54.5946 98.2701 55.1552C98.2701 55.5475 98.2701 55.9399 98.2701 56.3323C98.2701 56.3883 98.2701 56.4444 98.2701 56.5004C98.2701 56.7246 98.2701 56.8928 98.2701 57.117C98.2701 57.3412 98.2139 57.5093 98.2701 57.7336C98.2701 58.238 98.3263 58.7985 98.3263 59.303C98.3263 59.7514 98.3263 60.1998 98.3263 60.6483C98.3263 60.7043 98.3263 60.8164 98.3263 60.8725C98.3263 61.5451 98.2701 62.2177 98.2701 62.8343C98.2701 63.9553 98.2701 65.0203 98.3263 66.1414C98.3263 66.4777 98.3263 66.814 98.3263 67.1503C98.3263 67.4306 98.4388 67.5987 98.7199 67.6548C99.4507 67.8229 100.182 67.879 100.8 67.2624C101.081 66.9821 101.25 66.7019 101.25 66.3095C101.25 65.9172 101.25 65.5248 101.25 65.1324C101.25 64.684 101.193 64.1795 101.25 63.7311C101.25 63.7311 101.25 63.7311 101.25 63.6751C101.25 63.2267 101.193 62.8343 101.193 62.3859C101.193 62.0496 101.193 61.7133 101.193 61.3769C101.193 61.1527 101.193 60.8725 101.137 60.6483C101.137 60.0877 101.137 59.5272 101.137 59.0228C101.137 58.5183 101.137 58.0138 101.137 57.5093C101.137 56.9488 101.137 56.3883 101.137 55.8838C101.137 55.6036 101.193 55.3233 101.137 55.0991C101.137 54.6507 101.081 54.1462 101.081 53.6978C101.081 52.9691 101.081 52.2965 101.137 51.5678C101.137 51.5118 101.137 51.3997 101.137 51.3436C101.137 50.9513 101.137 50.5589 101.137 50.2226C101.137 49.7181 101.137 49.1576 101.137 48.6531C101.137 48.1487 101.137 47.5881 101.137 47.0837C101.137 46.0187 101.137 44.9537 101.137 43.9448C101.137 43.4403 101.137 43.3842 101.643 43.2721C102.711 43.104 103.723 42.8237 104.791 42.5435C105.466 42.3753 105.747 41.8708 106.028 41.3103C105.972 41.1982 105.972 41.1422 105.972 41.0861Z" fill="black"/>
<path d="M164.439 4.98864C164.889 5.381 165.395 5.49311 165.957 5.49311C166.52 5.49311 167.025 5.49311 167.588 5.49311C168.487 5.49311 169.33 5.43706 170.23 5.43706V5.49311C171.186 5.49311 172.141 5.43706 173.153 5.43706C173.772 5.43706 174.39 5.381 175.009 5.32495C175.571 5.2689 175.964 4.98864 176.302 4.54022C176.414 4.42812 176.47 4.25996 176.583 4.20391C176.751 4.09181 176.808 3.92365 176.92 3.81155C177.032 3.58734 177.089 3.36313 177.257 3.19498C177.482 2.91472 177.482 2.63446 177.201 2.4663C176.976 2.29815 176.695 2.12999 176.47 2.07394C175.402 1.73763 174.278 1.68157 173.153 1.73763C172.76 1.73763 172.366 1.79368 171.973 1.79368C170.399 1.79368 168.824 1.79368 167.25 1.90578C166.801 1.90578 166.351 1.96183 165.901 2.01789C165.62 2.07394 165.339 2.18604 165.114 2.41025C164.777 2.80261 164.439 3.19498 164.215 3.64339C163.821 4.14786 163.933 4.54022 164.439 4.98864Z" fill="black"/>
</svg>
