<svg width="178" height="106" viewBox="0 0 178 106" fill="none" xmlns="http://www.w3.org/2000/svg">
<g clip-path="url(#clip0_401_194)">
<path d="M12.8636 34.8978H77.359L74.2539 51.7179H33.1791L31.4936 61.1259H71.3263L68.1329 78.4212H28.2999L26.5256 88.5891H68.2217L65.1161 105.6H0L12.8636 34.8978Z" fill="#1E1E1E"/>
<path fill-rule="evenodd" clip-rule="evenodd" d="M154.692 48.9473C167.395 48.9473 177.693 37.9901 177.693 24.4737C177.693 10.9573 167.395 6.10352e-05 154.692 6.10352e-05C141.989 6.10352e-05 131.692 10.9573 131.692 24.4737C131.692 37.9901 141.989 48.9473 154.692 48.9473ZM160.443 22.2382C163.618 22.2382 166.193 19.4989 166.193 16.1198C166.193 12.7407 163.618 10.0014 160.443 10.0014C157.267 10.0014 154.692 12.7407 154.692 16.1198C154.692 19.4989 157.267 22.2382 160.443 22.2382Z" fill="#1E1E1E"/>
<path d="M114.327 34.8978H90.925L78.0228 105.6H140.22L143.868 85.7383H105.161L114.327 34.8978Z" fill="#1E1E1E"/>
</g>
<defs>
<clipPath id="clip0_401_194">
<rect width="178" height="106" fill="white"/>
</clipPath>
</defs>
</svg>
