<svg width="179" height="48" viewBox="0 0 179 48" fill="none" xmlns="http://www.w3.org/2000/svg">
<path d="M41.4715 14.6327L46.5436 32.9233L23.2938 46.793L0 32.8973L5.40952 14.6327C3.82539 13.8954 2.54027 12.6396 1.76657 11.073C0.992881 9.5063 0.776951 7.72252 1.15447 6.01649C1.532 4.31045 2.48037 2.78432 3.84283 1.69035C5.2053 0.596379 6.90026 7.22706e-05 8.64757 0H9.34168C11.158 0.0190226 12.9091 0.67987 14.2851 1.86562C15.3292 2.73851 16.1005 3.89299 16.5074 5.1917H30.1638C30.9618 2.78207 33.1219 0.761825 35.676 0.207668C36.177 0.0904238 36.6879 0.020891 37.202 0H37.8961C39.9315 0 41.8836 0.808582 43.3229 2.24786C44.7621 3.68714 45.5707 5.63923 45.5707 7.67469C45.5696 10.757 44.0923 13.4149 41.4715 14.6327Z" fill="#DF985C"/>
<path d="M15.1294 12.0524L19.4916 12.0208L13.1532 21.3241C12.4592 21.1082 11.7854 20.8317 11.1397 20.498L15.1294 12.0524Z" fill="white"/>
<path d="M31.0258 12.0208L35.5404 12.0524L29.1726 21.3681C28.4171 21.1826 27.6812 20.9249 26.9752 20.5984L31.0258 12.0208Z" fill="white"/>
<path d="M72.041 12.1043L64.0932 31.7572C61.2851 38.6588 57.5382 39.9589 54.7392 39.9589C53.3848 39.9589 52.5372 39.8088 51.5372 39.5075L51.491 33.8644C52.4104 34.2429 53.3928 34.4451 54.387 34.4603C55.8384 34.4603 57.2369 33.9637 58.1385 32.5123L48.9379 12.1043H56.1397L60.74 26.456H61.0922L65.0424 12.1043H72.041Z" fill="black"/>
<path d="M155.149 18.0072L151.948 32.9559H151.599L147.648 18.0048H141.198L148.948 38.6589C147.948 40.3089 146.648 40.8089 145.348 40.8089C144.599 40.8089 143.698 40.6091 142.898 40.3089L142.947 45.3595C143.9 45.5658 144.872 45.6665 145.847 45.6597C148.199 45.6597 152.349 44.2591 154.698 37.5595L161.499 18.0072H155.149Z" fill="black"/>
<path d="M140.496 18.0087H134.695L127.895 28.6596V18.0087H122.495V39.3601H127.895V34.8095L131.446 30.1595L136.347 39.3601H142.646L134.695 25.759L140.496 18.0087Z" fill="black"/>
<path d="M120.295 26.508C120.044 21.5081 116.645 17.357 110.794 17.357C105.193 17.357 100.143 21.5081 100.143 28.658C100.143 35.8079 105.193 39.959 110.794 39.959C116.645 39.959 120.048 35.3587 120.295 30.8588H114.2C114.4 33.8091 113.057 36.0585 110.207 36.0585C107.256 36.0585 106.199 32.9581 106.199 28.658C106.199 24.3579 107.256 21.2091 110.207 21.2091C113.057 21.2091 114.4 23.5091 114.2 26.5136L120.295 26.508Z" fill="black"/>
<path d="M163.398 18.0071L162.999 31.7583C162.949 34.2086 161.848 35.1588 160.699 35.1588C160.207 35.1733 159.717 35.1058 159.248 34.9592V39.6147C159.998 39.8653 160.798 39.9646 161.799 39.9646C164.799 39.9646 168.049 38.0651 168.299 32.2142L168.699 22.1627H173.849V39.3597H179V18.0071H163.398Z" fill="black"/>
<path d="M84.8923 31.6098H84.5425L80.6419 18.0087H71.342V39.3601H76.5924L76.5416 22.0085H76.8915L82.4929 39.3601H86.8427L92.3932 22.0085H92.8435L92.6935 39.3601H97.9935V18.0087H88.6428L84.8923 31.6098Z" fill="black"/>
<path d="M20.7411 30.7414V36.3202C23.7782 36.4985 26.8775 35.6814 29.3017 34.0088C32.1234 32.0901 33.8219 29.3351 34.2463 26.0327H30.6426C29.4755 30.6714 25.0401 32.2074 20.7411 30.7414Z" fill="black"/>
<path d="M22.9984 28.9029C23.092 28.9029 23.1835 28.9097 23.2714 28.9097C23.3595 28.9097 23.4521 28.9097 23.5503 28.9029C26.0107 28.7799 28.6596 26.9019 28.6596 23.0702V22.8083H17.8834V23.0702C17.8834 26.8984 20.5277 28.7765 22.987 28.9029H22.9984Z" fill="black"/>
<path d="M13.1527 21.3241C13.7491 21.4796 14.3599 21.5735 14.9754 21.604H14.9935C15.1447 21.6119 15.2937 21.6153 15.437 21.6153C15.5803 21.6153 15.7293 21.6153 15.8772 21.604H15.8896C18.9944 21.4516 21.6456 19.7711 23.0654 17.1324H23.5169C24.2444 18.5015 25.3386 19.6411 26.6771 20.4234L26.9751 20.5973L31.0246 12.0197H19.4911L13.1527 21.3241Z" fill="black"/>
<path d="M41.4715 14.6327C44.0923 13.4149 45.5696 10.757 45.5696 7.6747C45.5696 5.63923 44.761 3.68716 43.3218 2.24787C41.8824 0.808585 39.9303 3.17148e-06 37.8949 3.17148e-06H37.2008C36.6857 0.0206808 36.1736 0.090215 35.6715 0.207671C33.1174 0.761828 30.9572 2.78208 30.1593 5.1917H16.5028C16.096 3.89301 15.3247 2.73851 14.2805 1.86562C12.9058 0.680868 11.1565 0.0200876 9.34168 3.17148e-06H8.64757C6.89895 -0.00158587 5.20222 0.594003 3.83824 1.68818C2.47426 2.78236 1.52482 4.30952 1.1471 6.01685C0.769378 7.72418 0.986011 9.50932 1.76115 11.0768C2.53627 12.6442 3.82343 13.9 5.40952 14.6361L0 32.8973L23.2905 46.793L46.5402 32.9233L41.4715 14.6327ZM23.2949 40.7255L5.44113 31.5554L8.35751 18.4632H8.72545C9.32666 19.2048 10.0523 19.8361 10.8698 20.329L11.1385 20.4948L15.1282 12.0493H9.19721C8.28754 12.0493 7.41514 11.6879 6.7719 11.0447C6.12867 10.4014 5.7673 9.52903 5.7673 8.61936C5.7673 7.70969 6.12867 6.83728 6.7719 6.19404C7.41514 5.55081 8.28754 5.18944 9.19721 5.18944C9.26493 5.18944 9.33151 5.19509 9.3936 5.19961C10.0035 5.22511 10.5947 5.41751 11.1027 5.75582C11.6108 6.09414 12.0162 6.56541 12.275 7.11827C12.499 7.58012 12.6147 8.08691 12.6136 8.60017C12.6139 8.75118 12.6037 8.90203 12.5831 9.05162V9.23784H33.9943C33.9525 9.02788 33.9317 8.81426 33.9323 8.60017C33.9341 7.83172 34.1952 7.08636 34.6735 6.48492C35.1519 5.88348 35.8193 5.4612 36.5676 5.28651C37.068 5.16551 37.5894 5.1602 38.0922 5.271C38.595 5.38182 39.0658 5.6058 39.4689 5.92594C39.8722 6.24609 40.1971 6.65396 40.4189 7.11853C40.6407 7.5831 40.7536 8.09214 40.7492 8.60694C40.7516 9.51529 40.3943 10.3877 39.7555 11.0333C39.1165 11.679 38.248 12.0455 37.3396 12.0527H35.5338L29.1661 21.3684C29.6651 21.4813 30.1731 21.5508 30.684 21.5761H30.6998C30.85 21.5862 31.0001 21.5862 31.1401 21.5862C31.28 21.5862 31.4301 21.5862 31.5915 21.5761C34.2031 21.4462 36.5395 20.2127 38.0473 18.2139H38.4107L41.1352 31.5497L23.2949 40.7255Z" fill="black"/>
</svg>
