<svg width="178" height="56" viewBox="0 0 178 56" fill="none" xmlns="http://www.w3.org/2000/svg">
<g clip-path="url(#clip0_401_148)">
<path d="M0 16.3552H13.0707C19.2524 16.3552 22.8869 19.1094 22.8869 24.1175C22.8869 27.1467 21.0961 29.3474 18.8197 30.4511C21.6415 31.3871 23.865 33.6446 23.865 37.3884C23.865 42.6752 19.8507 45.8115 13.4507 45.8115H0V16.3552ZM5.1509 20.5955V28.5792H12.5254C15.8327 28.5792 17.5144 27.1467 17.5144 24.5605C17.5144 22.0278 15.8327 20.5955 12.5254 20.5955H5.1509ZM5.1509 32.8195V41.575H13.018C16.7052 41.575 18.496 39.8139 18.496 37.1704C18.496 34.5841 16.7052 32.8195 13.018 32.8195H5.1509Z" fill="black"/>
<path d="M31.9447 32.6469C32.3248 38.1517 35.8501 41.5666 41.3283 41.5666C45.9372 41.5666 48.5408 39.1983 50.3844 35.7868L54.3426 37.8801C52.4426 42.3954 48.1609 46.3034 41.3283 46.3034C32.5956 46.3034 26.6319 40.3557 26.6319 31.1608C26.6319 22.241 32.4901 15.8539 40.7864 15.8539C49.248 15.8539 54.888 21.4159 54.997 30.282C54.997 30.8321 54.997 31.7681 54.888 32.6504H31.9447V32.6469ZM32.1066 28.4066H49.6245C49.2974 23.7806 45.9372 20.5871 40.7829 20.5871C35.9591 20.5871 32.7575 23.6699 32.1066 28.4066Z" fill="black"/>
<path d="M73.1061 15.857C81.8387 15.857 88.0733 22.1906 88.0733 31.0531C88.0733 39.973 81.8352 46.3064 73.0498 46.3064C64.3734 46.3064 58.1354 39.973 58.1354 31.1102C58.139 22.1906 64.3771 15.857 73.1061 15.857ZM58.5189 16.7929V14.8675C58.5189 8.04102 62.3153 4.12946 68.4443 4.12946C73.2714 4.12946 75.766 6.11205 79.7242 6.11205C82.2186 6.11205 83.5206 4.79033 83.5206 1.59677V0H88.6714V1.65036C88.6714 7.98388 85.9059 10.8452 80.8607 10.8452C75.8715 10.8452 73.2679 8.86264 69.4189 8.86264C65.6752 8.86264 63.6699 10.8988 63.6699 14.9747V16.7929H58.5189ZM73.1061 41.5733C78.7461 41.5733 82.8695 37.3867 82.8695 31.0567C82.8695 24.7804 78.7461 20.5938 73.1061 20.5938C67.4662 20.5938 63.3427 24.7804 63.3427 31.1102C63.3462 37.3867 67.4662 41.5733 73.1061 41.5733Z" fill="black"/>
<path d="M97.1409 37.7205L110.155 16.3552H115.633V45.8151H110.483V24.4498L97.4682 45.8151H91.9901V16.3552H97.1409V37.7205Z" fill="black"/>
<path d="M125.558 55.4529L129.137 45.8151L118.29 16.3552H123.768L131.793 38.6564L139.928 16.3552H145.187L130.653 55.4493H125.558V55.4529Z" fill="black"/>
<path d="M152.456 22.9066V45.8115H147.576V16.3552H155.44L162.87 39.6459L170.354 16.3552H177.999V45.8151H172.901V22.9066L165.256 45.8115H160.105L152.456 22.9066Z" fill="black"/>
</g>
<defs>
<clipPath id="clip0_401_148">
<rect width="178" height="56" fill="white"/>
</clipPath>
</defs>
</svg>
