<svg width="335" height="162" viewBox="0 0 335 162" fill="none" xmlns="http://www.w3.org/2000/svg">
<mask id="mask0_274_280" style="mask-type:alpha" maskUnits="userSpaceOnUse" x="0" y="0" width="335" height="163">
<path d="M0 60.0004C0 31.7162 0 17.574 8.7868 8.78722C17.5736 0.000427246 31.7157 0.000427246 60 0.000427246H275C303.284 0.000427246 317.426 0.000427246 326.213 8.78722C335 17.574 335 31.7162 335 60.0004V102C335 130.285 335 144.427 326.213 153.214C317.426 162 303.284 162 275 162H60C31.7157 162 17.5736 162 8.7868 153.214C0 144.427 0 130.285 0 102V60.0004Z" fill="#F89745"/>
</mask>
<g mask="url(#mask0_274_280)">
<path d="M0 60.0004C0 31.7162 0 17.574 8.7868 8.78722C17.5736 0.000427246 31.7157 0.000427246 60 0.000427246H275C303.284 0.000427246 317.426 0.000427246 326.213 8.78722C335 17.574 335 31.7162 335 60.0004V102C335 130.285 335 144.427 326.213 153.214C317.426 162 303.284 162 275 162H60C31.7157 162 17.5736 162 8.7868 153.214C0 144.427 0 130.285 0 102V60.0004Z" fill="#8ED976"/>
<path d="M333.254 50.8065C331.268 45.4031 327.54 40.2117 322.097 35.6163C321.21 26.8755 316.607 18.9095 309.721 13.2877C298.866 5.04339 285.607 0.586508 271.977 0.600428C255.445 0.616188 239.594 7.18763 227.901 18.8735C216.208 30.5595 209.626 46.4059 209.6 62.9375V63.03C209.596 76.7268 214.095 90.0444 222.403 100.933C230.712 111.821 242.37 119.676 255.581 123.288L255.753 123.335L256.051 123.42L256.429 123.513L257.177 123.705L257.329 123.745L257.839 123.857L257.978 123.891L258.641 124.036H258.693L259.415 124.188H259.455L259.945 124.288L260.607 124.414C261.408 124.566 262.223 124.699 263.031 124.811C263.627 124.904 264.229 124.976 264.825 125.043L265.997 125.168L266.984 125.255H267.083H267.262H267.341H267.474L268.07 125.295L268.864 125.341C269.388 125.341 269.917 125.387 270.447 125.4H271.003H271.473H272.798C289.284 125.206 305.035 118.548 316.662 106.857C328.288 95.166 334.86 79.3788 334.962 62.8911C334.962 62.8911 335.208 55.9781 333.254 50.8065Z" fill="#5DC83A" stroke="black" stroke-width="0.2" stroke-miterlimit="10"/>
<path d="M334.387 66.0236C332.553 74.5788 326.554 82.8428 316.402 89.4308C291.902 105.363 252.338 105.542 227.831 89.9012C231.347 87.9148 320.534 37.0002 322.098 35.6031C327.547 40.2383 331.262 45.3899 333.255 50.7933C335.082 55.6571 335.475 60.9429 334.387 66.0236Z" fill="#C3F97F" stroke="black" stroke-width="0.2" stroke-miterlimit="10"/>
<path d="M322.117 35.5898C320.567 36.9738 231.399 87.8684 227.85 89.8884C227.76 89.3908 227.696 88.8892 227.658 88.3852C222.658 12.8971 281.843 -0.478855 304.35 9.58619C306.297 10.5761 308.103 11.8209 309.721 13.2878C316.607 18.9096 321.21 26.8756 322.117 35.5898Z" fill="#C3F97F" stroke="black" stroke-width="0.2" stroke-miterlimit="10"/>
<path d="M241.642 82.0284C239.916 76.1548 239.325 70.006 239.901 63.9108C242.093 49.6611 252.482 48.8399 250.708 59.8188C249.891 65.3356 250.156 70.958 251.489 76.3732C262.488 84.2332 274.387 86.1604 287.034 84.1604C296.894 82.518 296.622 89.9148 284.842 92.106C267.441 94.5892 252.774 91.1988 241.642 82.0284Z" fill="#FBFA8E" stroke="black" stroke-width="0.2" stroke-miterlimit="10"/>
<path d="M301.529 80.902C294.967 84.0212 297.556 89.2588 305.8 85.9676C325.09 76.982 329.414 60.1763 318.527 49.1311C309.919 40.7547 302.787 49.2503 308.422 52.9651C309.248 53.5705 310.029 54.2344 310.76 54.9517C318.792 62.8249 314.302 73.2012 301.529 80.902Z" fill="#FBFA8E" stroke="black" stroke-width="0.2" stroke-miterlimit="10"/>
<path d="M244.907 39.384C240.934 50.8198 250.502 52.0779 255.011 42.3836C260.355 31.1267 267.388 23.6839 277.857 21.0285C289.637 18.2872 284.478 12.056 272.374 14.4068C262.335 16.5853 251.012 24.6705 244.907 39.384Z" fill="#FBFA8E" stroke="black" stroke-width="0.2" stroke-miterlimit="10"/>
<path d="M297.662 43.7875C294.882 43.79 292.162 42.9678 289.849 41.4247C287.535 39.8816 285.731 37.6869 284.666 35.1184C283.599 32.5499 283.319 29.7229 283.86 26.9951C284.401 24.2672 285.738 21.7611 287.704 19.7937C289.67 17.8264 292.174 16.4861 294.902 15.9426C297.63 15.3992 300.457 15.6768 303.026 16.7404C305.595 17.804 307.792 19.6058 309.337 21.918C310.882 24.23 311.707 26.9485 311.707 29.7295C311.702 33.454 310.221 37.0246 307.589 39.6595C304.956 42.2944 301.387 43.7787 297.662 43.7875ZM297.662 19.5982C291.802 19.5982 287.538 23.8626 287.538 29.7295C287.538 35.5964 291.802 39.8541 297.662 39.8541C303.523 39.8541 307.794 35.5897 307.794 29.7295C307.794 23.8692 303.53 19.5982 297.662 19.5982Z" fill="black"/>
<path d="M229.512 33.4841C228.793 33.4854 228.09 33.2733 227.491 32.8747C226.892 32.476 226.425 31.9087 226.149 31.2446C225.873 30.5804 225.8 29.8492 225.939 29.1436C226.079 28.438 226.425 27.7896 226.933 27.2806C227.441 26.7715 228.089 26.4246 228.794 26.2838C229.499 26.143 230.231 26.2146 230.895 26.4896C231.56 26.7645 232.128 27.2304 232.528 27.8284C232.928 28.4264 233.141 29.1295 233.141 29.8487C233.139 30.8112 232.757 31.7339 232.077 32.4151C231.397 33.0963 230.475 33.4806 229.512 33.4841Z" fill="black"/>
<path d="M240.14 101.271C240.14 97.7484 241.987 94.8412 244.775 94.1124C246.808 93.57 249.609 94.2452 251.397 97.7676V97.8076C253.383 102.092 255.668 104.793 258.522 106.296C258.754 106.416 258.992 106.535 259.237 106.641H259.277C260.389 107.125 261.344 107.911 262.035 108.908C262.725 109.907 263.123 111.077 263.183 112.289C263.233 113.502 262.959 114.705 262.389 115.776C261.818 116.847 260.973 117.746 259.939 118.381C258.575 119.189 255.694 120.202 251.721 117.812L251.423 117.627C244.497 113.176 240.597 107.694 240.166 101.8C240.146 101.615 240.14 101.443 240.14 101.271ZM248.861 100.158C248.119 98.682 247.033 97.9796 245.96 98.2644C244.888 98.5492 243.696 99.9932 243.808 102.41C244.033 105.403 245.689 109.86 252.304 114.15L252.509 114.283C254.224 115.316 255.82 115.488 257.045 114.752C257.561 114.432 257.982 113.98 258.265 113.441C258.548 112.904 258.682 112.3 258.654 111.693C258.622 111.088 258.418 110.503 258.066 110.008C257.714 109.513 257.229 109.129 256.668 108.899C256.409 108.78 256.158 108.66 255.919 108.528C253.046 107.012 250.788 104.35 248.861 100.158Z" fill="black"/>
<path d="M245.49 52.9652C240.086 54.1903 235.113 57.4614 231.286 61.9708C230.412 62.9983 229.607 64.082 228.876 65.2156" stroke="black" stroke-width="0.2" stroke-linecap="round" stroke-linejoin="round" stroke-dasharray="0.8 1.6"/>
<path d="M283.983 100.715C287.74 97.0244 290.911 92.782 293.386 88.1332C293.591 87.7556 293.796 87.3716 293.995 86.9876" stroke="black" stroke-width="0.2" stroke-linecap="round" stroke-linejoin="round" stroke-dasharray="0.8 1.6"/>
<path d="M324.381 61.0304C324.706 71.0092 323.871 78.9092 322.328 85.0012" stroke="black" stroke-width="0.2" stroke-linecap="round" stroke-linejoin="round" stroke-dasharray="0.8 1.6"/>
<path d="M298.074 85.7428C298.027 90.338 299.093 94.1324 300.814 96.8676" stroke="black" stroke-width="0.2" stroke-linecap="round" stroke-linejoin="round" stroke-dasharray="0.8 1.6"/>
<path d="M306.41 50.5946V77.5116" stroke="black" stroke-width="0.2" stroke-linecap="round" stroke-linejoin="round" stroke-dasharray="0.8 1.6"/>
<path d="M254.926 74.4196C249.695 26.4055 290.107 2.15667 310.072 53.5016C319.104 82.9748 273.467 87.2524 254.926 74.4196Z" fill="#FBFA8E" stroke="black" stroke-width="0.2" stroke-miterlimit="10"/>
<path d="M245.636 48.3101C243.444 47.4152 241.329 46.3434 239.312 45.1051C237.97 44.2857 236.695 43.3624 235.498 42.3439" stroke="black" stroke-width="0.2" stroke-linecap="round" stroke-linejoin="round" stroke-dasharray="0.8 1.6"/>
<path d="M278.202 13.8903C273.546 13.0539 268.833 12.5736 264.104 12.4535" stroke="black" stroke-width="0.2" stroke-linecap="round" stroke-linejoin="round" stroke-dasharray="0.8 1.6"/>
<mask id="path-20-inside-1_274_280" fill="white">
<path d="M-2.6 163V65.0004H77.2V93.0004H32.4V107.7H66V131.5H32.4V163H-2.6ZM98.2875 150.96C88.0208 141.067 82.8875 128.747 82.8875 114C82.8875 99.2538 88.0208 86.9338 98.2875 77.0404C108.554 67.1471 122.088 62.2004 138.888 62.2004C155.688 62.2004 169.221 67.1471 179.488 77.0404C189.754 86.9338 194.888 99.2538 194.888 114C194.888 128.747 189.754 141.067 179.488 150.96C169.221 160.854 155.688 165.8 138.888 165.8C122.088 165.8 108.554 160.854 98.2875 150.96ZM124.748 97.6204C121.108 101.634 119.288 107.094 119.288 114C119.288 120.907 121.108 126.367 124.748 130.38C128.481 134.394 133.194 136.4 138.888 136.4C144.581 136.4 149.248 134.394 152.888 130.38C156.621 126.367 158.488 120.907 158.488 114C158.488 107.094 156.621 101.634 152.888 97.6204C149.248 93.6071 144.581 91.6004 138.888 91.6004C133.194 91.6004 128.481 93.6071 124.748 97.6204Z"/>
</mask>
<path d="M-2.6 163H-2.85V163.25H-2.6V163ZM-2.6 65.0004V64.7504H-2.85V65.0004H-2.6ZM77.2 65.0004H77.45V64.7504H77.2V65.0004ZM77.2 93.0004V93.2504H77.45V93.0004H77.2ZM32.4 93.0004V92.7504H32.15V93.0004H32.4ZM32.4 107.7H32.15V107.95H32.4V107.7ZM66 107.7H66.25V107.45H66V107.7ZM66 131.5V131.75H66.25V131.5H66ZM32.4 131.5V131.25H32.15V131.5H32.4ZM32.4 163V163.25H32.65V163H32.4ZM-2.35 163V160.55H-2.85V163H-2.35ZM-2.35 155.65V150.75H-2.85V155.65H-2.35ZM-2.35 145.85V140.95H-2.85V145.85H-2.35ZM-2.35 136.05V131.15H-2.85V136.05H-2.35ZM-2.35 126.25V121.35H-2.85V126.25H-2.35ZM-2.35 116.45V111.55H-2.85V116.45H-2.35ZM-2.35 106.65V101.75H-2.85V106.65H-2.35ZM-2.35 96.8504V91.9504H-2.85V96.8504H-2.35ZM-2.35 87.0504V82.1504H-2.85V87.0504H-2.35ZM-2.35 77.2504V72.3504H-2.85V77.2504H-2.35ZM-2.35 67.4504V65.0004H-2.85V67.4504H-2.35ZM-2.6 65.2504H-0.10625V64.7504H-2.6V65.2504ZM4.88125 65.2504H9.86875V64.7504H4.88125V65.2504ZM14.8563 65.2504H19.8438V64.7504H14.8563V65.2504ZM24.8313 65.2504H29.8188V64.7504H24.8313V65.2504ZM34.8063 65.2504H39.7938V64.7504H34.8063V65.2504ZM44.7812 65.2504H49.7687V64.7504H44.7812V65.2504ZM54.7562 65.2504H59.7437V64.7504H54.7562V65.2504ZM64.7313 65.2504H69.7188V64.7504H64.7313V65.2504ZM74.7063 65.2504H77.2V64.7504H74.7063V65.2504ZM76.95 65.0004V67.3338H77.45V65.0004H76.95ZM76.95 72.0004V76.6671H77.45V72.0004H76.95ZM76.95 81.3338V86.0004H77.45V81.3338H76.95ZM76.95 90.6671V93.0004H77.45V90.6671H76.95ZM77.2 92.7504H74.4V93.2504H77.2V92.7504ZM68.8 92.7504H63.2V93.2504H68.8V92.7504ZM57.6 92.7504H52V93.2504H57.6V92.7504ZM46.4 92.7504H40.8V93.2504H46.4V92.7504ZM35.2 92.7504H32.4V93.2504H35.2V92.7504ZM32.15 93.0004V96.6754H32.65V93.0004H32.15ZM32.15 104.025V107.7H32.65V104.025H32.15ZM32.4 107.95H35.2V107.45H32.4V107.95ZM40.8 107.95H46.4V107.45H40.8V107.95ZM52 107.95H57.6V107.45H52V107.95ZM63.2 107.95H66V107.45H63.2V107.95ZM65.75 107.7V110.675H66.25V107.7H65.75ZM65.75 116.625V122.575H66.25V116.625H65.75ZM65.75 128.525V131.5H66.25V128.525H65.75ZM66 131.25H63.2V131.75H66V131.25ZM57.6 131.25H52V131.75H57.6V131.25ZM46.4 131.25H40.8V131.75H46.4V131.25ZM35.2 131.25H32.4V131.75H35.2V131.25ZM32.15 131.5V134.125H32.65V131.5H32.15ZM32.15 139.375V144.625H32.65V139.375H32.15ZM32.15 149.875V155.125H32.65V149.875H32.15ZM32.15 160.375V163H32.65V160.375H32.15ZM32.4 162.75H30.2125V163.25H32.4V162.75ZM25.8375 162.75H21.4625V163.25H25.8375V162.75ZM17.0875 162.75H12.7125V163.25H17.0875V162.75ZM8.3375 162.75H3.9625V163.25H8.3375V162.75ZM-0.412499 162.75H-2.6V163.25H-0.412499V162.75ZM-2.6 163H-3.1V163.5H-2.6V163ZM-2.6 65.0004V64.5004H-3.1V65.0004H-2.6ZM77.2 65.0004H77.7V64.5004H77.2V65.0004ZM77.2 93.0004V93.5004H77.7V93.0004H77.2ZM32.4 93.0004V92.5004H31.9V93.0004H32.4ZM32.4 107.7H31.9V108.2H32.4V107.7ZM66 107.7H66.5V107.2H66V107.7ZM66 131.5V132H66.5V131.5H66ZM32.4 131.5V131H31.9V131.5H32.4ZM32.4 163V163.5H32.9V163H32.4ZM-2.1 163V160.55H-3.1V163H-2.1ZM-2.1 155.65V150.75H-3.1V155.65H-2.1ZM-2.1 145.85V140.95H-3.1V145.85H-2.1ZM-2.1 136.05V131.15H-3.1V136.05H-2.1ZM-2.1 126.25V121.35H-3.1V126.25H-2.1ZM-2.1 116.45V111.55H-3.1V116.45H-2.1ZM-2.1 106.65V101.75H-3.1V106.65H-2.1ZM-2.1 96.8504V91.9504H-3.1V96.8504H-2.1ZM-2.1 87.0504V82.1504H-3.1V87.0504H-2.1ZM-2.1 77.2504V72.3504H-3.1V77.2504H-2.1ZM-2.1 67.4504V65.0004H-3.1V67.4504H-2.1ZM-2.6 65.5004H-0.10625V64.5004H-2.6V65.5004ZM4.88125 65.5004H9.86875V64.5004H4.88125V65.5004ZM14.8563 65.5004H19.8438V64.5004H14.8563V65.5004ZM24.8313 65.5004H29.8188V64.5004H24.8313V65.5004ZM34.8063 65.5004H39.7938V64.5004H34.8063V65.5004ZM44.7812 65.5004H49.7687V64.5004H44.7812V65.5004ZM54.7562 65.5004H59.7437V64.5004H54.7562V65.5004ZM64.7313 65.5004H69.7188V64.5004H64.7313V65.5004ZM74.7063 65.5004H77.2V64.5004H74.7063V65.5004ZM76.7 65.0004V67.3338H77.7V65.0004H76.7ZM76.7 72.0004V76.6671H77.7V72.0004H76.7ZM76.7 81.3338V86.0004H77.7V81.3338H76.7ZM76.7 90.6671V93.0004H77.7V90.6671H76.7ZM77.2 92.5004H74.4V93.5004H77.2V92.5004ZM68.8 92.5004H63.2V93.5004H68.8V92.5004ZM57.6 92.5004H52V93.5004H57.6V92.5004ZM46.4 92.5004H40.8V93.5004H46.4V92.5004ZM35.2 92.5004H32.4V93.5004H35.2V92.5004ZM31.9 93.0004V96.6754H32.9V93.0004H31.9ZM31.9 104.025V107.7H32.9V104.025H31.9ZM32.4 108.2H35.2V107.2H32.4V108.2ZM40.8 108.2H46.4V107.2H40.8V108.2ZM52 108.2H57.6V107.2H52V108.2ZM63.2 108.2H66V107.2H63.2V108.2ZM65.5 107.7V110.675H66.5V107.7H65.5ZM65.5 116.625V122.575H66.5V116.625H65.5ZM65.5 128.525V131.5H66.5V128.525H65.5ZM66 131H63.2V132H66V131ZM57.6 131H52V132H57.6V131ZM46.4 131H40.8V132H46.4V131ZM35.2 131H32.4V132H35.2V131ZM31.9 131.5V134.125H32.9V131.5H31.9ZM31.9 139.375V144.625H32.9V139.375H31.9ZM31.9 149.875V155.125H32.9V149.875H31.9ZM31.9 160.375V163H32.9V160.375H31.9ZM32.4 162.5H30.2125V163.5H32.4V162.5ZM25.8375 162.5H21.4625V163.5H25.8375V162.5ZM17.0875 162.5H12.7125V163.5H17.0875V162.5ZM8.3375 162.5H3.9625V163.5H8.3375V162.5ZM-0.412499 162.5H-2.6V163.5H-0.412499V162.5ZM98.2875 150.96L98.461 150.78L98.2875 150.96ZM98.2875 77.0404L98.461 77.2204L98.2875 77.0404ZM179.488 77.0404L179.314 77.2204L179.488 77.0404ZM179.488 150.96L179.314 150.78L179.488 150.96ZM124.747 97.6204L124.564 97.4501L124.562 97.4525L124.747 97.6204ZM124.747 130.38L124.562 130.548L124.564 130.551L124.747 130.38ZM152.887 130.38L152.704 130.21L152.702 130.212L152.887 130.38ZM152.887 97.6204L152.702 97.7884L152.704 97.7907L152.887 97.6204ZM98.461 150.78C97.8402 150.182 97.2384 149.575 96.6554 148.959L96.2923 149.303C96.8806 149.925 97.4878 150.537 98.114 151.14L98.461 150.78ZM93.3168 145.071C92.2595 143.707 91.2847 142.305 90.3923 140.864L89.9673 141.128C90.869 142.584 91.8538 144 92.9217 145.377L93.3168 145.071ZM87.9358 136.37C87.2011 134.831 86.5507 133.253 85.9847 131.634L85.5127 131.799C86.0847 133.435 86.742 135.03 87.4846 136.585L87.9358 136.37ZM84.5532 126.716C84.167 125.073 83.8598 123.393 83.6316 121.675L83.1359 121.74C83.3663 123.474 83.6764 125.171 84.0665 126.83L84.5532 126.716ZM83.1905 116.566C83.1552 115.719 83.1375 114.864 83.1375 114H82.6375C82.6375 114.871 82.6553 115.733 82.6909 116.587L83.1905 116.566ZM83.1375 114C83.1375 113.137 83.1552 112.282 83.1905 111.435L82.6909 111.414C82.6553 112.268 82.6375 113.13 82.6375 114H83.1375ZM83.6316 106.326C83.8598 104.608 84.167 102.928 84.5532 101.285L84.0665 101.171C83.6764 102.83 83.3663 104.526 83.1359 106.26L83.6316 106.326ZM85.9847 96.3664C86.5507 94.7479 87.2011 93.1694 87.9358 91.6309L87.4846 91.4154C86.742 92.9705 86.0847 94.5658 85.5127 96.2014L85.9847 96.3664ZM90.3923 87.1364C91.2847 85.6956 92.2595 84.2935 93.3168 82.9302L92.9217 82.6237C91.8538 84.0007 90.869 85.4171 89.9673 86.8731L90.3923 87.1364ZM96.6554 79.0416C97.2384 78.4257 97.8402 77.8186 98.461 77.2204L98.114 76.8604C97.4878 77.4638 96.8806 78.0763 96.2923 78.6978L96.6554 79.0416ZM98.461 77.2204C99.1263 76.5793 99.8053 75.9591 100.498 75.3598L100.171 74.9817C99.4714 75.5869 98.7857 76.2131 98.114 76.8604L98.461 77.2204ZM104.861 71.9867C106.374 70.9452 107.944 69.9891 109.57 69.1182L109.334 68.6774C107.691 69.557 106.106 70.5228 104.577 71.5748L104.861 71.9867ZM114.566 66.7825C116.251 66.1019 117.989 65.5015 119.781 64.9812L119.641 64.5011C117.834 65.0259 116.08 65.6318 114.379 66.3189L114.566 66.7825ZM125.148 63.693C126.922 63.3517 128.742 63.0807 130.61 62.88L130.556 62.3828C128.676 62.585 126.841 62.858 125.054 63.202L125.148 63.693ZM136.122 62.4962C137.034 62.4657 137.956 62.4504 138.887 62.4504V61.9504C137.95 61.9504 137.023 61.9658 136.106 61.9965L136.122 62.4962ZM138.887 62.4504C139.819 62.4504 140.741 62.4657 141.653 62.4962L141.669 61.9965C140.752 61.9658 139.825 61.9504 138.887 61.9504V62.4504ZM147.165 62.88C149.033 63.0807 150.853 63.3517 152.627 63.693L152.721 63.202C150.934 62.858 149.099 62.585 147.219 62.3828L147.165 62.88ZM157.994 64.9812C159.786 65.5015 161.524 66.1019 163.209 66.7825L163.396 66.3189C161.695 65.6318 159.941 65.0259 158.134 64.5011L157.994 64.9812ZM168.205 69.1182C169.831 69.9891 171.401 70.9452 172.914 71.9867L173.198 71.5748C171.669 70.5228 170.084 69.557 168.441 68.6774L168.205 69.1182ZM177.277 75.3598C177.97 75.9591 178.649 76.5793 179.314 77.2204L179.661 76.8604C178.989 76.2131 178.304 75.5869 177.604 74.9817L177.277 75.3598ZM179.314 77.2204C179.935 77.8186 180.537 78.4257 181.12 79.0416L181.483 78.6978C180.894 78.0763 180.287 77.4638 179.661 76.8604L179.314 77.2204ZM184.458 82.9302C185.516 84.2935 186.49 85.6956 187.383 87.1364L187.808 86.8731C186.906 85.4171 185.921 84.0007 184.853 82.6237L184.458 82.9302ZM189.839 91.6309C190.574 93.1694 191.224 94.7479 191.79 96.3664L192.262 96.2014C191.69 94.5658 191.033 92.9705 190.29 91.4154L189.839 91.6309ZM193.222 101.285C193.608 102.928 193.915 104.608 194.143 106.326L194.639 106.26C194.409 104.526 194.099 102.83 193.708 101.171L193.222 101.285ZM194.584 111.435C194.62 112.282 194.638 113.137 194.638 114H195.138C195.138 113.13 195.12 112.268 195.084 111.414L194.584 111.435ZM194.638 114C194.638 114.864 194.62 115.719 194.584 116.566L195.084 116.587C195.12 115.733 195.138 114.871 195.138 114H194.638ZM194.143 121.675C193.915 123.393 193.608 125.073 193.222 126.716L193.708 126.83C194.099 125.171 194.409 123.474 194.639 121.74L194.143 121.675ZM191.79 131.634C191.224 133.253 190.574 134.831 189.839 136.37L190.29 136.585C191.033 135.03 191.69 133.435 192.262 131.799L191.79 131.634ZM187.383 140.864C186.49 142.305 185.516 143.707 184.458 145.071L184.853 145.377C185.921 144 186.906 142.584 187.808 141.128L187.383 140.864ZM181.12 148.959C180.537 149.575 179.935 150.182 179.314 150.78L179.661 151.14C180.287 150.537 180.894 149.925 181.483 149.303L181.12 148.959ZM179.314 150.78C178.649 151.422 177.97 152.042 177.277 152.641L177.604 153.019C178.304 152.414 178.989 151.788 179.661 151.14L179.314 150.78ZM172.914 156.014C171.401 157.056 169.831 158.012 168.205 158.883L168.441 159.323C170.084 158.444 171.669 157.478 173.198 156.426L172.914 156.014ZM163.209 161.218C161.524 161.899 159.786 162.499 157.994 163.02L158.134 163.5C159.941 162.975 161.695 162.369 163.396 161.682L163.209 161.218ZM152.627 164.308C150.853 164.649 149.033 164.92 147.165 165.121L147.219 165.618C149.099 165.416 150.934 165.143 152.721 164.799L152.627 164.308ZM141.653 165.505C140.741 165.535 139.819 165.55 138.887 165.55V166.05C139.825 166.05 140.752 166.035 141.669 166.004L141.653 165.505ZM138.887 165.55C137.956 165.55 137.034 165.535 136.122 165.505L136.106 166.004C137.023 166.035 137.95 166.05 138.887 166.05V165.55ZM130.61 165.121C128.742 164.92 126.922 164.649 125.148 164.308L125.054 164.799C126.841 165.143 128.676 165.416 130.556 165.618L130.61 165.121ZM119.781 163.02C117.989 162.499 116.251 161.899 114.566 161.218L114.379 161.682C116.08 162.369 117.834 162.975 119.641 163.5L119.781 163.02ZM109.57 158.883C107.944 158.012 106.374 157.056 104.861 156.014L104.577 156.426C106.106 157.478 107.691 158.444 109.334 159.323L109.57 158.883ZM100.498 152.641C99.8053 152.042 99.1263 151.422 98.461 150.78L98.114 151.14C98.7857 151.788 99.4714 152.414 100.171 153.019L100.498 152.641ZM124.562 97.4525C124.06 98.006 123.592 98.5868 123.159 99.1947L123.566 99.4851C123.988 98.8931 124.444 98.3275 124.933 97.7884L124.562 97.4525ZM120.995 103.101C120.439 104.429 120.002 105.85 119.683 107.363L120.172 107.466C120.485 105.982 120.913 104.591 121.456 103.294L120.995 103.101ZM119.103 111.776C119.059 112.501 119.038 113.242 119.038 114H119.538C119.538 113.252 119.559 112.52 119.602 111.806L119.103 111.776ZM119.038 114C119.038 114.759 119.059 115.5 119.103 116.225L119.602 116.195C119.559 115.481 119.538 114.749 119.538 114H119.038ZM119.683 120.638C120.002 122.151 120.439 123.571 120.995 124.9L121.456 124.707C120.913 123.41 120.485 122.019 120.172 120.535L119.683 120.638ZM123.159 128.806C123.592 129.414 124.06 129.995 124.562 130.548L124.933 130.212C124.444 129.673 123.988 129.108 123.566 128.516L123.159 128.806ZM124.564 130.551C125.027 131.048 125.504 131.515 125.997 131.951L126.329 131.577C125.848 131.151 125.382 130.696 124.931 130.21L124.564 130.551ZM129.258 134.278C130.424 134.93 131.656 135.448 132.952 135.832L133.094 135.352C131.833 134.979 130.635 134.476 129.502 133.842L129.258 134.278ZM136.888 136.565C137.541 136.622 138.208 136.65 138.887 136.65V136.15C138.221 136.15 137.569 136.123 136.931 136.067L136.888 136.565ZM138.887 136.65C139.563 136.65 140.225 136.622 140.873 136.566L140.83 136.068C140.197 136.123 139.549 136.15 138.887 136.15V136.65ZM144.78 135.839C146.07 135.457 147.291 134.94 148.444 134.288L148.198 133.853C147.079 134.486 145.892 134.988 144.638 135.359L144.78 135.839ZM151.666 131.955C152.151 131.517 152.62 131.048 153.073 130.548L152.702 130.212C152.26 130.7 151.803 131.157 151.331 131.584L151.666 131.955ZM153.071 130.551C153.582 130.001 154.059 129.424 154.501 128.821L154.098 128.525C153.667 129.113 153.203 129.674 152.704 130.21L153.071 130.551ZM156.719 124.927C157.292 123.597 157.742 122.174 158.071 120.66L157.582 120.554C157.26 122.039 156.819 123.431 156.26 124.729L156.719 124.927ZM158.67 116.233C158.715 115.506 158.738 114.762 158.738 114H158.238C158.238 114.752 158.215 115.486 158.171 116.202L158.67 116.233ZM158.738 114C158.738 113.239 158.715 112.495 158.67 111.768L158.171 111.799C158.215 112.515 158.238 113.249 158.238 114H158.738ZM158.071 107.341C157.742 105.826 157.292 104.404 156.719 103.074L156.26 103.272C156.819 104.57 157.26 105.962 157.582 107.447L158.071 107.341ZM154.501 99.1803C154.059 98.5767 153.582 98 153.071 97.4501L152.704 97.7907C153.203 98.3264 153.667 98.8881 154.098 99.4759L154.501 99.1803ZM153.073 97.4525C152.62 96.9531 152.151 96.4841 151.666 96.0456L151.331 96.4165C151.803 96.8436 152.26 97.3008 152.702 97.7884L153.073 97.4525ZM148.444 93.7126C147.291 93.0608 146.07 92.544 144.78 92.162L144.638 92.6414C145.892 93.0128 147.079 93.515 148.198 94.1478L148.444 93.7126ZM140.873 91.4344C140.225 91.3784 139.563 91.3504 138.887 91.3504V91.8504C139.549 91.8504 140.197 91.8778 140.83 91.9325L140.873 91.4344ZM138.887 91.3504C138.208 91.3504 137.541 91.3788 136.888 91.4355L136.931 91.9336C137.569 91.8782 138.221 91.8504 138.887 91.8504V91.3504ZM132.952 92.1692C131.656 92.5525 130.424 93.0704 129.258 93.7229L129.502 94.1592C130.635 93.5251 131.833 93.0216 133.094 92.6487L132.952 92.1692ZM125.997 96.0495C125.504 96.4862 125.027 96.9531 124.564 97.4501L124.931 97.7907C125.382 97.305 125.848 96.8494 126.329 96.4236L125.997 96.0495ZM98.2875 150.96L98.6344 150.6L98.2875 150.96ZM98.2875 77.0404L98.6344 77.4005L98.2875 77.0404ZM179.488 77.0404L179.141 77.4005L179.488 77.0404ZM179.488 150.96L179.141 150.6L179.488 150.96ZM124.747 97.6204L124.381 97.2798L124.377 97.2845L124.747 97.6204ZM124.747 130.38L124.377 130.716L124.381 130.721L124.747 130.38ZM152.887 130.38L152.521 130.04L152.517 130.045L152.887 130.38ZM152.887 97.6204L152.517 97.9564L152.521 97.961L152.887 97.6204ZM98.6344 150.6C98.0164 150.005 97.4172 149.4 96.837 148.787L96.1107 149.475C96.7017 150.099 97.3116 150.714 97.9406 151.32L98.6344 150.6ZM93.5143 144.917C92.4623 143.561 91.4925 142.166 90.6049 140.733L89.7547 141.259C90.6612 142.723 91.651 144.147 92.7241 145.53L93.5143 144.917ZM88.1614 136.262C87.4306 134.732 86.7837 133.162 86.2207 131.552L85.2767 131.882C85.8517 133.526 86.5124 135.13 87.259 136.693L88.1614 136.262ZM84.7966 126.659C84.4123 125.024 84.1066 123.352 83.8794 121.642L82.8881 121.773C83.1195 123.515 83.4311 125.22 83.8231 126.887L84.7966 126.659ZM83.4403 116.555C83.4051 115.712 83.3875 114.861 83.3875 114H82.3875C82.3875 114.874 82.4054 115.74 82.4412 116.597L83.4403 116.555ZM83.3875 114C83.3875 113.14 83.4051 112.289 83.4403 111.445L82.4412 111.404C82.4054 112.261 82.3875 113.127 82.3875 114H83.3875ZM83.8794 106.359C84.1066 104.649 84.4123 102.977 84.7966 101.342L83.8231 101.113C83.4311 102.781 83.1195 104.486 82.8881 106.227L83.8794 106.359ZM86.2207 96.4489C86.7837 94.839 87.4306 93.2689 88.1614 91.7386L87.259 91.3077C86.5124 92.871 85.8517 94.4747 85.2767 96.1188L86.2207 96.4489ZM90.6049 87.268C91.4925 85.8348 92.4623 84.4399 93.5143 83.0834L92.7241 82.4705C91.651 83.8543 90.6612 85.2779 89.7547 86.7415L90.6049 87.268ZM96.837 79.2134C97.4172 78.6004 98.0164 77.996 98.6344 77.4005L97.9406 76.6804C97.3116 77.2864 96.7017 77.9016 96.1107 78.526L96.837 79.2134ZM98.6344 77.4005C99.2966 76.7624 99.9723 76.1453 100.662 75.5489L100.007 74.7926C99.3044 75.4008 98.6154 76.03 97.9406 76.6804L98.6344 77.4005ZM105.002 72.1926C106.508 71.1564 108.07 70.2051 109.688 69.3386L109.216 68.4571C107.565 69.341 105.972 70.3115 104.436 71.3688L105.002 72.1926ZM114.66 67.0143C116.337 66.337 118.067 65.7393 119.851 65.2213L119.572 64.261C117.756 64.7881 115.994 65.3968 114.285 66.0871L114.66 67.0143ZM125.195 63.9385C126.962 63.5986 128.776 63.3285 130.637 63.1285L130.53 62.1343C128.642 62.3371 126.801 62.6111 125.006 62.9565L125.195 63.9385ZM136.131 62.7461C137.039 62.7156 137.958 62.7004 138.887 62.7004V61.7004C137.947 61.7004 137.017 61.7158 136.097 61.7466L136.131 62.7461ZM138.887 62.7004C139.817 62.7004 140.736 62.7156 141.644 62.7461L141.678 61.7466C140.758 61.7158 139.828 61.7004 138.887 61.7004V62.7004ZM147.138 63.1285C148.999 63.3285 150.813 63.5986 152.58 63.9385L152.769 62.9565C150.974 62.6111 149.133 62.3371 147.245 62.1343L147.138 63.1285ZM157.924 65.2213C159.708 65.7393 161.438 66.337 163.115 67.0143L163.49 66.0871C161.781 65.3968 160.019 64.7881 158.203 64.261L157.924 65.2213ZM168.087 69.3386C169.705 70.2051 171.267 71.1564 172.773 72.1926L173.339 71.3688C171.803 70.3115 170.21 69.341 168.559 68.4571L168.087 69.3386ZM177.113 75.5489C177.803 76.1453 178.478 76.7624 179.141 77.4005L179.834 76.6804C179.16 76.03 178.471 75.4008 177.768 74.7926L177.113 75.5489ZM179.141 77.4005C179.759 77.996 180.358 78.6004 180.938 79.2134L181.664 78.526C181.073 77.9016 180.463 77.2864 179.834 76.6804L179.141 77.4005ZM184.261 83.0834C185.313 84.4399 186.282 85.8348 187.17 87.268L188.02 86.7415C187.114 85.2779 186.124 83.8543 185.051 82.4705L184.261 83.0834ZM189.614 91.7386C190.344 93.2689 190.991 94.839 191.554 96.4489L192.498 96.1188C191.923 94.4747 191.263 92.871 190.516 91.3077L189.614 91.7386ZM192.978 101.342C193.363 102.977 193.668 104.649 193.896 106.359L194.887 106.227C194.656 104.486 194.344 102.781 193.952 101.113L192.978 101.342ZM194.335 111.445C194.37 112.289 194.388 113.14 194.388 114H195.388C195.388 113.127 195.37 112.261 195.334 111.404L194.335 111.445ZM194.388 114C194.388 114.861 194.37 115.712 194.335 116.555L195.334 116.597C195.37 115.74 195.388 114.874 195.388 114H194.388ZM193.896 121.642C193.668 123.352 193.363 125.024 192.978 126.659L193.952 126.887C194.344 125.22 194.656 123.515 194.887 121.773L193.896 121.642ZM191.554 131.552C190.991 133.162 190.344 134.732 189.614 136.262L190.516 136.693C191.263 135.13 191.923 133.526 192.498 131.882L191.554 131.552ZM187.17 140.733C186.282 142.166 185.313 143.561 184.261 144.917L185.051 145.53C186.124 144.147 187.114 142.723 188.02 141.259L187.17 140.733ZM180.938 148.787C180.358 149.4 179.759 150.005 179.141 150.6L179.834 151.32C180.463 150.714 181.073 150.099 181.664 149.475L180.938 148.787ZM179.141 150.6C178.478 151.238 177.803 151.856 177.113 152.452L177.768 153.208C178.471 152.6 179.16 151.971 179.834 151.32L179.141 150.6ZM172.773 155.808C171.267 156.844 169.705 157.796 168.087 158.662L168.559 159.544C170.21 158.66 171.803 157.689 173.339 156.632L172.773 155.808ZM163.115 160.987C161.438 161.664 159.708 162.262 157.924 162.78L158.203 163.74C160.019 163.213 161.781 162.604 163.49 161.914L163.115 160.987ZM152.58 164.062C150.813 164.402 148.999 164.672 147.138 164.872L147.245 165.867C149.133 165.664 150.974 165.39 152.769 165.044L152.58 164.062ZM141.644 165.255C140.736 165.285 139.817 165.3 138.887 165.3V166.3C139.828 166.3 140.758 166.285 141.678 166.254L141.644 165.255ZM138.887 165.3C137.958 165.3 137.039 165.285 136.131 165.255L136.097 166.254C137.017 166.285 137.947 166.3 138.887 166.3V165.3ZM130.637 164.872C128.776 164.672 126.962 164.402 125.195 164.062L125.006 165.044C126.801 165.39 128.642 165.664 130.53 165.867L130.637 164.872ZM119.851 162.78C118.067 162.262 116.337 161.664 114.66 160.987L114.285 161.914C115.994 162.604 117.756 163.213 119.572 163.74L119.851 162.78ZM109.688 158.662C108.07 157.796 106.508 156.844 105.002 155.808L104.436 156.632C105.972 157.689 107.565 158.66 109.216 159.544L109.688 158.662ZM100.662 152.452C99.9723 151.856 99.2966 151.238 98.6344 150.6L97.9406 151.32C98.6154 151.971 99.3044 152.6 100.007 153.208L100.662 152.452ZM124.377 97.2845C123.869 97.8453 123.394 98.4337 122.955 99.0495L123.769 99.6303C124.186 99.0462 124.635 98.4883 125.118 97.9563L124.377 97.2845ZM120.764 103.004C120.202 104.348 119.76 105.785 119.438 107.312L120.417 107.518C120.727 106.048 121.15 104.672 121.686 103.39L120.764 103.004ZM118.853 111.761C118.809 112.491 118.788 113.237 118.788 114H119.788C119.788 113.256 119.809 112.53 119.852 111.821L118.853 111.761ZM118.788 114C118.788 114.764 118.809 115.51 118.853 116.24L119.852 116.18C119.809 115.471 119.788 114.744 119.788 114H118.788ZM119.438 120.689C119.76 122.216 120.202 123.652 120.764 124.996L121.686 124.611C121.15 123.329 120.727 121.953 120.417 120.483L119.438 120.689ZM122.955 128.951C123.394 129.567 123.869 130.156 124.377 130.716L125.118 130.045C124.635 129.513 124.186 128.955 123.769 128.371L122.955 128.951ZM124.381 130.721C124.849 131.224 125.332 131.696 125.831 132.138L126.495 131.39C126.02 130.97 125.56 130.52 125.114 130.04L124.381 130.721ZM129.136 134.496C130.318 135.158 131.567 135.683 132.881 136.071L133.165 135.112C131.921 134.745 130.741 134.248 129.625 133.623L129.136 134.496ZM136.866 136.814C137.527 136.872 138.201 136.9 138.887 136.9V135.9C138.228 135.9 137.583 135.873 136.953 135.818L136.866 136.814ZM138.887 136.9C139.57 136.9 140.239 136.872 140.894 136.816L140.808 135.819C140.183 135.873 139.542 135.9 138.887 135.9V136.9ZM144.851 136.079C146.158 135.691 147.398 135.167 148.567 134.506L148.075 133.635C146.972 134.259 145.803 134.754 144.567 135.12L144.851 136.079ZM151.834 132.141C152.325 131.696 152.8 131.222 153.258 130.716L152.517 130.045C152.08 130.526 151.629 130.978 151.163 131.399L151.834 132.141ZM153.254 130.721C153.772 130.164 154.255 129.58 154.703 128.968L153.896 128.377C153.471 128.957 153.013 129.511 152.521 130.04L153.254 130.721ZM156.949 125.025C157.528 123.68 157.983 122.242 158.315 120.713L157.338 120.501C157.019 121.972 156.583 123.348 156.031 124.63L156.949 125.025ZM158.919 116.248C158.965 115.516 158.988 114.767 158.988 114H157.988C157.988 114.747 157.965 115.475 157.921 116.186L158.919 116.248ZM158.988 114C158.988 113.234 158.965 112.485 158.919 111.753L157.921 111.815C157.965 112.525 157.988 113.254 157.988 114H158.988ZM158.315 107.288C157.983 105.759 157.528 104.321 156.949 102.975L156.031 103.371C156.583 104.653 157.019 106.029 157.338 107.5L158.315 107.288ZM154.703 99.0325C154.255 98.4211 153.772 97.8368 153.254 97.2799L152.521 97.961C153.013 98.4895 153.471 99.0437 153.896 99.6237L154.703 99.0325ZM153.258 97.2845C152.8 96.7792 152.325 96.3044 151.834 95.8602L151.163 96.6019C151.629 97.0233 152.08 97.4747 152.517 97.9563L153.258 97.2845ZM148.567 93.495C147.398 92.8337 146.158 92.3095 144.851 91.9223L144.567 92.8811C145.803 93.2472 146.972 93.7421 148.075 94.3655L148.567 93.495ZM140.894 91.1853C140.239 91.1287 139.57 91.1004 138.887 91.1004V92.1004C139.542 92.1004 140.183 92.1275 140.808 92.1816L140.894 91.1853ZM138.887 91.1004C138.201 91.1004 137.527 91.129 136.866 91.1864L136.953 92.1827C137.583 92.1279 138.228 92.1004 138.887 92.1004V91.1004ZM132.881 91.9294C131.567 92.3179 130.318 92.8431 129.136 93.5048L129.625 94.3774C130.741 93.7524 131.921 93.2561 133.165 92.8884L132.881 91.9294ZM125.831 95.8624C125.332 96.3046 124.849 96.7771 124.381 97.2799L125.114 97.961C125.56 97.481 126.02 97.031 126.495 96.6107L125.831 95.8624Z" fill="url(#paint0_linear_274_280)" fill-opacity="0.6" mask="url(#path-20-inside-1_274_280)"/>
<path d="M31.56 53.0004V30.6004H47.4V33.3204H34.44V39.2404H41C43.496 39.2404 45.448 39.8804 46.856 41.1604C48.2853 42.4191 49 44.0724 49 46.1204C49 48.1684 48.2853 49.8324 46.856 51.1124C45.448 52.3711 43.496 53.0004 41 53.0004H31.56ZM34.44 50.2804H41C42.6427 50.2804 43.9013 49.9071 44.776 49.1604C45.672 48.3924 46.12 47.3791 46.12 46.1204C46.12 44.8618 45.672 43.8591 44.776 43.1124C43.9013 42.3444 42.6427 41.9604 41 41.9604H34.44V50.2804ZM52.8338 53.0004V37.0004H55.3938V49.0004L55.3618 49.3204H55.4258L64.0338 37.0004H66.9138V53.0004H64.3538V41.0004L64.3858 40.6804H64.3218L55.7138 53.0004H52.8338ZM72.8043 50.9524C71.2256 49.3738 70.4363 47.3898 70.4363 45.0004C70.4363 42.6111 71.2256 40.6271 72.8043 39.0484C74.3829 37.4698 76.3669 36.6804 78.7563 36.6804C81.1456 36.6804 83.1296 37.4698 84.7083 39.0484C86.2869 40.6271 87.0763 42.6111 87.0763 45.0004C87.0763 47.3898 86.2869 49.3738 84.7083 50.9524C83.1296 52.5311 81.1456 53.3204 78.7563 53.3204C76.3669 53.3204 74.3829 52.5311 72.8043 50.9524ZM74.6283 40.7444C73.5403 41.8538 72.9963 43.2724 72.9963 45.0004C72.9963 46.7284 73.5403 48.1471 74.6283 49.2564C75.7163 50.3658 77.0923 50.9204 78.7563 50.9204C80.4203 50.9204 81.7963 50.3658 82.8843 49.2564C83.9723 48.1471 84.5163 46.7284 84.5163 45.0004C84.5163 43.2724 83.9723 41.8538 82.8843 40.7444C81.7963 39.6351 80.4203 39.0804 78.7563 39.0804C77.0923 39.0804 75.7163 39.6351 74.6283 40.7444ZM88.6638 53.0004L93.1438 37.0004H99.8638L104.344 53.0004H101.624L97.9438 39.4004H95.0638L91.3838 53.0004H88.6638ZM108.304 50.9524C106.726 49.3738 105.936 47.3898 105.936 45.0004C105.936 42.6111 106.726 40.6271 108.304 39.0484C109.883 37.4698 111.867 36.6804 114.256 36.6804C116.646 36.6804 118.63 37.4698 120.208 39.0484C121.787 40.6271 122.576 42.6111 122.576 45.0004C122.576 47.3898 121.787 49.3738 120.208 50.9524C118.63 52.5311 116.646 53.3204 114.256 53.3204C111.867 53.3204 109.883 52.5311 108.304 50.9524ZM110.128 40.7444C109.04 41.8538 108.496 43.2724 108.496 45.0004C108.496 46.7284 109.04 48.1471 110.128 49.2564C111.216 50.3658 112.592 50.9204 114.256 50.9204C115.92 50.9204 117.296 50.3658 118.384 49.2564C119.472 48.1471 120.016 46.7284 120.016 45.0004C120.016 43.2724 119.472 41.8538 118.384 40.7444C117.296 39.6351 115.92 39.0804 114.256 39.0804C112.592 39.0804 111.216 39.6351 110.128 40.7444ZM126.084 53.0004V37.0004H137.124V39.4004H128.644V53.0004H126.084ZM139.678 53.0004V37.0004H142.238V49.0004L142.206 49.3204H142.27L150.878 37.0004H153.758V53.0004H151.198V41.0004L151.23 40.6804H151.166L142.558 53.0004H139.678ZM157.6 53.0004L160.8 47.2404C160.267 47.0058 159.733 46.6644 159.2 46.2164C158.133 45.2351 157.6 43.9764 157.6 42.4404C157.6 40.8831 158.165 39.5924 159.296 38.5684C160.427 37.5231 161.931 37.0004 163.808 37.0004H171.04V53.0004H168.48V47.8804H163.36L160.544 53.0004H157.6ZM161.088 40.2324C160.469 40.7871 160.16 41.5231 160.16 42.4404C160.16 43.3578 160.469 44.0938 161.088 44.6484C161.728 45.2031 162.645 45.4804 163.84 45.4804H168.48V39.4004H163.84C162.645 39.4004 161.728 39.6778 161.088 40.2324Z" fill="black"/>
</g>
<defs>
<linearGradient id="paint0_linear_274_280" x1="-11" y1="121.321" x2="200.001" y2="119.851" gradientUnits="userSpaceOnUse">
<stop/>
<stop offset="0.915" stop-opacity="0"/>
</linearGradient>
</defs>
</svg>
