<svg width="335" height="162" viewBox="0 0 335 162" fill="none" xmlns="http://www.w3.org/2000/svg">
<mask id="mask0_274_239" style="mask-type:alpha" maskUnits="userSpaceOnUse" x="0" y="0" width="335" height="163">
<path d="M0 60.0004C0 31.7162 0 17.574 8.7868 8.78722C17.5736 0.000427246 31.7157 0.000427246 60 0.000427246H275C303.284 0.000427246 317.426 0.000427246 326.213 8.78722C335 17.574 335 31.7162 335 60.0004V102C335 130.285 335 144.427 326.213 153.214C317.426 162 303.284 162 275 162H60C31.7157 162 17.5736 162 8.7868 153.214C0 144.427 0 130.285 0 102V60.0004Z" fill="#F89745"/>
</mask>
<g mask="url(#mask0_274_239)">
<path d="M0 60.0004C0 31.7162 0 17.574 8.7868 8.78722C17.5736 0.000427246 31.7157 0.000427246 60 0.000427246H275C303.284 0.000427246 317.426 0.000427246 326.213 8.78722C335 17.574 335 31.7162 335 60.0004V102C335 130.285 335 144.427 326.213 153.214C317.426 162 303.284 162 275 162H60C31.7157 162 17.5736 162 8.7868 153.214C0 144.427 0 130.285 0 102V60.0004Z" fill="#F5B9F6"/>
<path d="M334.829 120.745L336.742 120.556" stroke="black" stroke-width="0.2" stroke-linecap="round" stroke-linejoin="round" stroke-dasharray="2.3 3.84"/>
<path d="M359.051 84.314L354.678 86.7476L338.676 95.6444L335.77 92.0476L315.184 66.5415L335.566 55.2113L356.09 80.6436L359.038 84.3004L359.051 84.314Z" fill="#ED6DDA" stroke="black" stroke-width="0.2" stroke-linecap="round" stroke-linejoin="round"/>
<path d="M335.566 55.2113L315.185 66.5415L312.082 66.8051L312.027 66.8119H312.021L291.706 68.529L302.124 62.6746L306.16 60.4099L312.021 57.1177H312.027L335.566 55.2113Z" fill="#D951D1" stroke="black" stroke-width="0.2" stroke-linecap="round" stroke-linejoin="round"/>
<path d="M312.02 57.1177L306.159 60.41L302.123 62.6747L291.699 68.529L283.972 72.8624L277.489 76.4996L267.308 82.2116L267.281 82.2252L254.849 66.8119L243.796 53.1292H243.803L265.05 41.1974L266.355 40.4672L288.535 28.0216L309.059 53.4536L312.006 57.1042L312.02 57.1177Z" fill="#ED6DDA" stroke="black" stroke-width="0.2" stroke-linecap="round" stroke-linejoin="round"/>
<path d="M291.699 68.5291V103.486L267.281 117.183V82.2252L267.308 82.2116L267.315 82.2188L277.489 76.4996L283.972 72.8624L291.699 68.5291Z" fill="#ED6DDA" stroke="black" stroke-width="0.2" stroke-linecap="round" stroke-linejoin="round"/>
<path d="M338.675 95.7188V130.608H338.669L315.183 132.589L291.732 103.52L291.698 103.486V68.529H291.705L312.02 66.812H312.026L312.081 66.8052L315.183 66.5415L335.768 92.0476L335.734 92.0612L338.621 95.746L338.675 95.7188Z" fill="#F09AF1" stroke="black" stroke-width="0.2" stroke-linecap="round" stroke-linejoin="round"/>
<path d="M267.281 82.2252V117.183L243.796 119.17L220.311 90.0676V64.2634L207 47.7616L213.848 38.108L217.08 42.1033L217.215 42.2792L227.112 54.5355L239.517 53.4876L243.796 53.1225V53.1293L254.849 66.812L267.281 82.2252Z" fill="#F09AF1" stroke="black" stroke-width="0.2" stroke-linecap="round" stroke-linejoin="round"/>
<path d="M257.066 69.5633L220.75 89.9452" stroke="black" stroke-width="0.2" stroke-linecap="round" stroke-linejoin="round" stroke-dasharray="0.8 1.6"/>
<path d="M265.05 39.1558L239.516 53.4875" stroke="black" stroke-width="0.2" stroke-linecap="round" stroke-linejoin="round" stroke-dasharray="2.3 3.84"/>
<path d="M239.517 53.4875L220.311 64.2634" stroke="black" stroke-width="0.2" stroke-linecap="round" stroke-linejoin="round" stroke-dasharray="0.8 1.6"/>
<path d="M245.466 118.237L267.282 105.988" stroke="black" stroke-width="0.2" stroke-linecap="round" stroke-linejoin="round" stroke-dasharray="0.8 1.6"/>
<path d="M316.691 131.832C316.806 131.866 332.544 123.044 336.141 121.016" stroke="black" stroke-width="0.2" stroke-linecap="round" stroke-linejoin="round" stroke-dasharray="0.8 1.6"/>
<path d="M288.535 28.0216L266.355 40.4672L265.05 41.1974L243.803 53.1292H243.796V53.1224L239.517 53.4875L227.112 54.5353L261.771 35.0861L261.92 35.005L271.851 29.4278L288.535 28.0216Z" fill="#D951D1" stroke="black" stroke-width="0.2" stroke-linecap="round" stroke-linejoin="round"/>
<path d="M271.85 29.4278L261.92 35.005L261.771 35.0861L227.111 54.5353L217.221 42.279L217.079 42.1032L213.848 38.1079L258.594 13.0004L271.85 29.4278Z" fill="#ED6DDA" stroke="black" stroke-width="0.2" stroke-linecap="round" stroke-linejoin="round"/>
<path d="M312.926 93.2036L335.566 121.259" stroke="black" stroke-width="0.2" stroke-linecap="round" stroke-linejoin="round" stroke-dasharray="0.8 1.6"/>
<path d="M312.081 66.8052V92.4468" stroke="black" stroke-width="0.2" stroke-linecap="round" stroke-linejoin="round" stroke-dasharray="0.8 1.6"/>
<path d="M291.698 93.8396L312.081 92.4468" stroke="black" stroke-width="0.2" stroke-linecap="round" stroke-linejoin="round" stroke-dasharray="0.8 1.6"/>
<path d="M292.294 103.148L311.608 92.7716" stroke="black" stroke-width="0.2" stroke-linecap="round" stroke-linejoin="round" stroke-dasharray="0.8 1.6"/>
<path d="M312.006 57.1043L283.971 72.8624L277.489 76.4996L267.314 82.2188L267.308 82.2116L264.36 78.5748L274.541 72.8489L309.058 53.4538L312.006 57.1043Z" fill="black"/>
<path d="M291.733 103.52H291.726L267.281 117.189" stroke="black" stroke-width="0.2" stroke-linecap="round" stroke-linejoin="round"/>
<path d="M291.726 103.533V103.5M335.769 92.0412H335.735L338.622 95.7252H338.675V95.6508L335.769 92.0412Z" stroke="black" stroke-width="0.2" stroke-linecap="round" stroke-linejoin="round"/>
<path d="M243.802 53.1292L254.849 66.812" stroke="black" stroke-width="0.2" stroke-linecap="round" stroke-linejoin="round"/>
<mask id="path-25-inside-1_274_239" fill="white">
<path d="M-2.6 163V65.0004H52C64.4133 65.0004 74.26 68.4071 81.54 75.2204C88.9133 81.9404 92.6 90.6671 92.6 101.4C92.6 110.36 89.8 117.64 84.2 123.24C81.7733 125.854 78.9733 127.907 75.8 129.4L94 163H59L45 136.4H32.4V163H-2.6ZM32.4 109.8H47.8C50.6 109.8 52.7933 109.054 54.38 107.56C56.06 105.974 56.9 103.92 56.9 101.4C56.9 98.8804 56.06 96.8738 54.38 95.3804C52.7933 93.7938 50.6 93.0004 47.8 93.0004H32.4V109.8Z"/>
</mask>
<path d="M-2.6 163H-2.85V163.25H-2.6V163ZM-2.6 65.0004V64.7504H-2.85V65.0004H-2.6ZM81.54 75.2204L81.3692 75.403L81.3716 75.4052L81.54 75.2204ZM84.2 123.24L84.0231 123.064L84.0168 123.07L84.2 123.24ZM75.8 129.4L75.6936 129.174L75.4542 129.287L75.5802 129.519L75.8 129.4ZM94 163V163.25H94.4197L94.2198 162.881L94 163ZM59 163L58.7788 163.117L58.8491 163.25H59V163ZM45 136.4L45.2212 136.284L45.1509 136.15H45V136.4ZM32.4 136.4V136.15H32.15V136.4H32.4ZM32.4 163V163.25H32.65V163H32.4ZM32.4 109.8H32.15V110.05H32.4V109.8ZM54.38 107.56L54.5513 107.742L54.5517 107.742L54.38 107.56ZM54.38 95.3804L54.2032 95.5572L54.2084 95.5624L54.2139 95.5673L54.38 95.3804ZM32.4 93.0004V92.7504H32.15V93.0004H32.4ZM-2.35 163V160.55H-2.85V163H-2.35ZM-2.35 155.65V150.75H-2.85V155.65H-2.35ZM-2.35 145.85V140.95H-2.85V145.85H-2.35ZM-2.35 136.05V131.15H-2.85V136.05H-2.35ZM-2.35 126.25V121.35H-2.85V126.25H-2.35ZM-2.35 116.45V111.55H-2.85V116.45H-2.35ZM-2.35 106.65V101.75H-2.85V106.65H-2.35ZM-2.35 96.8504V91.9504H-2.85V96.8504H-2.35ZM-2.35 87.0504V82.1504H-2.85V87.0504H-2.35ZM-2.35 77.2504V72.3504H-2.85V77.2504H-2.35ZM-2.35 67.4504V65.0004H-2.85V67.4504H-2.35ZM-2.6 65.2504H0.13V64.7504H-2.6V65.2504ZM5.59 65.2504H11.05V64.7504H5.59V65.2504ZM16.51 65.2504H21.97V64.7504H16.51V65.2504ZM27.43 65.2504H32.89V64.7504H27.43V65.2504ZM38.35 65.2504H43.81V64.7504H38.35V65.2504ZM49.27 65.2504H52V64.7504H49.27V65.2504ZM52 65.2504C52.9005 65.2504 53.7873 65.2684 54.6603 65.3044L54.6809 64.8048C53.8008 64.7685 52.9071 64.7504 52 64.7504V65.2504ZM59.9538 65.7653C61.7588 66.011 63.4968 66.3446 65.1677 66.7659L65.29 66.2811C63.6 65.855 61.8437 65.518 60.0213 65.2699L59.9538 65.7653ZM70.2172 68.3859C71.888 69.0472 73.4795 69.813 74.9917 70.6832L75.2411 70.2498C73.7073 69.3672 72.0939 68.591 70.4012 67.921L70.2172 68.3859ZM79.3665 73.6674C80.0545 74.2187 80.722 74.7973 81.3692 75.403L81.7108 75.0379C81.0544 74.4235 80.3772 73.8366 79.6792 73.2772L79.3665 73.6674ZM81.3716 75.4052C81.9761 75.9561 82.5555 76.5205 83.1099 77.0984L83.4707 76.7522C82.9084 76.1661 82.321 75.594 81.7084 75.0356L81.3716 75.4052ZM86.2061 80.825C87.1498 82.1476 87.9847 83.5292 88.7108 84.97L89.1573 84.745C88.4196 83.2813 87.5715 81.8778 86.6131 80.5346L86.2061 80.825ZM90.5561 89.4486C91.0503 90.9596 91.4425 92.5267 91.7325 94.1502L92.2247 94.0623C91.9307 92.4168 91.533 90.827 91.0314 89.2931L90.5561 89.4486ZM92.2848 98.9708C92.3283 99.7687 92.35 100.579 92.35 101.4H92.85C92.85 100.57 92.828 99.7508 92.7841 98.9436L92.2848 98.9708ZM92.35 101.4C92.35 102.418 92.3137 103.413 92.2411 104.386L92.7397 104.423C92.8133 103.437 92.85 102.43 92.85 101.4H92.35ZM91.2929 110.27C90.787 112.24 90.0996 114.1 89.2311 115.85L89.6789 116.072C90.5636 114.29 91.263 112.397 91.7772 110.394L91.2929 110.27ZM86.0176 120.851C85.3984 121.616 84.7336 122.353 84.0232 123.064L84.3768 123.417C85.0993 122.695 85.7758 121.944 86.4062 121.166L86.0176 120.851ZM84.0168 123.07C83.422 123.711 82.8046 124.317 82.1648 124.89L82.4982 125.263C83.1497 124.68 83.778 124.062 84.3832 123.411L84.0168 123.07ZM77.9863 127.958C77.2454 128.398 76.4811 128.804 75.6936 129.174L75.9064 129.627C76.7084 129.249 77.4868 128.836 78.2416 128.388L77.9863 127.958ZM75.5802 129.519L76.7177 131.619L77.1573 131.381L76.0198 129.281L75.5802 129.519ZM78.9927 135.819L81.2677 140.02L81.7073 139.781L79.4323 135.581L78.9927 135.819ZM83.5427 144.219L85.8177 148.42L86.2573 148.181L83.9823 143.981L83.5427 144.219ZM88.0927 152.619L90.3677 156.819L90.8073 156.581L88.5323 152.381L88.0927 152.619ZM92.6427 161.02L93.7802 163.119L94.2198 162.881L93.0823 160.781L92.6427 161.02ZM94 162.75H91.8125V163.25H94V162.75ZM87.4375 162.75H83.0625V163.25H87.4375V162.75ZM78.6875 162.75H74.3125V163.25H78.6875V162.75ZM69.9375 162.75H65.5625V163.25H69.9375V162.75ZM61.1875 162.75H59V163.25H61.1875V162.75ZM59.2212 162.884L58.0546 160.667L57.6121 160.9L58.7788 163.117L59.2212 162.884ZM55.7212 156.234L53.3879 151.801L52.9454 152.034L55.2788 156.467L55.7212 156.234ZM51.0546 147.367L48.7212 142.934L48.2788 143.167L50.6121 147.6L51.0546 147.367ZM46.3879 138.501L45.2212 136.284L44.7788 136.517L45.9454 138.734L46.3879 138.501ZM45 136.15H41.85V136.65H45V136.15ZM35.55 136.15H32.4V136.65H35.55V136.15ZM32.15 136.4V138.617H32.65V136.4H32.15ZM32.15 143.05V147.484H32.65V143.05H32.15ZM32.15 151.917V156.35H32.65V151.917H32.15ZM32.15 160.784V163H32.65V160.784H32.15ZM32.4 162.75H30.2125V163.25H32.4V162.75ZM25.8375 162.75H21.4625V163.25H25.8375V162.75ZM17.0875 162.75H12.7125V163.25H17.0875V162.75ZM8.3375 162.75H3.9625V163.25H8.3375V162.75ZM-0.412499 162.75H-2.6V163.25H-0.412499V162.75ZM32.65 109.8V107.7H32.15V109.8H32.65ZM32.65 103.5V99.3004H32.15V103.5H32.65ZM32.65 95.1004V93.0004H32.15V95.1004H32.65ZM32.4 93.2504H34.325V92.7504H32.4V93.2504ZM38.175 93.2504H42.025V92.7504H38.175V93.2504ZM45.875 93.2504H47.8V92.7504H45.875V93.2504ZM47.8 93.2504C48.4173 93.2504 49.0029 93.2896 49.5571 93.3676L49.6268 92.8725C49.0474 92.791 48.4384 92.7504 47.8 92.7504V93.2504ZM52.8402 94.4871C53.3368 94.7885 53.7911 95.1451 54.2032 95.5572L54.5568 95.2037C54.1164 94.7633 53.6305 94.3818 53.0995 94.0597L52.8402 94.4871ZM54.2139 95.5673C54.6307 95.9378 54.9932 96.34 55.3019 96.7739L55.7093 96.484C55.3778 96.0182 54.9899 95.588 54.5461 95.1936L54.2139 95.5673ZM56.5169 99.7655C56.6054 100.282 56.65 100.826 56.65 101.4H57.15C57.15 100.801 57.1034 100.227 57.0097 99.6809L56.5169 99.7655ZM56.65 101.4C56.65 101.982 56.6042 102.537 56.5133 103.064L57.006 103.149C57.1022 102.591 57.15 102.008 57.15 101.4H56.65ZM55.2898 106.122C54.9823 106.569 54.622 106.988 54.2083 107.379L54.5517 107.742C54.9898 107.328 55.3734 106.883 55.7018 106.405L55.2898 106.122ZM54.2087 107.378C53.7914 107.771 53.3307 108.11 52.826 108.397L53.0726 108.832C53.6116 108.526 54.1047 108.163 54.5513 107.742L54.2087 107.378ZM49.5441 109.442C48.9936 109.514 48.4123 109.55 47.8 109.55V110.05C48.432 110.05 49.0351 110.013 49.6091 109.938L49.5441 109.442ZM47.8 109.55H45.875V110.05H47.8V109.55ZM42.025 109.55H38.175V110.05H42.025V109.55ZM34.325 109.55H32.4V110.05H34.325V109.55ZM-2.6 163H-3.1V163.5H-2.6V163ZM-2.6 65.0004V64.5004H-3.1V65.0004H-2.6ZM81.54 75.2204L81.1983 75.5855L81.2032 75.59L81.54 75.2204ZM84.2 123.24L83.8465 122.887L83.8399 122.893L83.8336 122.9L84.2 123.24ZM75.8 129.4L75.5871 128.948L75.1083 129.173L75.3604 129.639L75.8 129.4ZM94 163V163.5H94.8395L94.4397 162.762L94 163ZM59 163L58.5575 163.233L58.6981 163.5H59V163ZM45 136.4L45.4425 136.168L45.3019 135.9H45V136.4ZM32.4 136.4V135.9H31.9V136.4H32.4ZM32.4 163V163.5H32.9V163H32.4ZM32.4 109.8H31.9V110.3H32.4V109.8ZM54.38 107.56L54.7227 107.925L54.7233 107.924L54.38 107.56ZM54.38 95.3804L54.0265 95.734L54.0368 95.7444L54.0478 95.7541L54.38 95.3804ZM32.4 93.0004V92.5004H31.9V93.0004H32.4ZM-2.1 163V160.55H-3.1V163H-2.1ZM-2.1 155.65V150.75H-3.1V155.65H-2.1ZM-2.1 145.85V140.95H-3.1V145.85H-2.1ZM-2.1 136.05V131.15H-3.1V136.05H-2.1ZM-2.1 126.25V121.35H-3.1V126.25H-2.1ZM-2.1 116.45V111.55H-3.1V116.45H-2.1ZM-2.1 106.65V101.75H-3.1V106.65H-2.1ZM-2.1 96.8504V91.9504H-3.1V96.8504H-2.1ZM-2.1 87.0504V82.1504H-3.1V87.0504H-2.1ZM-2.1 77.2504V72.3504H-3.1V77.2504H-2.1ZM-2.1 67.4504V65.0004H-3.1V67.4504H-2.1ZM-2.6 65.5004H0.13V64.5004H-2.6V65.5004ZM5.59 65.5004H11.05V64.5004H5.59V65.5004ZM16.51 65.5004H21.97V64.5004H16.51V65.5004ZM27.43 65.5004H32.89V64.5004H27.43V65.5004ZM38.35 65.5004H43.81V64.5004H38.35V65.5004ZM49.27 65.5004H52V64.5004H49.27V65.5004ZM52 65.5004C52.8972 65.5004 53.7805 65.5183 54.65 65.5542L54.6912 64.555C53.8075 64.5186 52.9105 64.5004 52 64.5004V65.5004ZM59.9201 66.013C61.7164 66.2575 63.4452 66.5894 65.1066 67.0084L65.3511 66.0387C63.6516 65.6102 61.8861 65.2714 60.055 65.0222L59.9201 66.013ZM70.1252 68.6184C71.7851 69.2754 73.3656 70.0359 74.867 70.8999L75.3658 70.0331C73.8212 69.1443 72.1969 68.3629 70.4932 67.6886L70.1252 68.6184ZM79.2102 73.8624C79.8931 74.4098 80.5558 74.9841 81.1983 75.5855L81.8817 74.8554C81.2206 74.2367 80.5385 73.6456 79.8356 73.0821L79.2102 73.8624ZM81.2032 75.59C81.8036 76.1372 82.3791 76.6977 82.9295 77.2714L83.6511 76.5791C83.0849 75.9889 82.4934 75.4129 81.8768 74.8509L81.2032 75.59ZM86.0026 80.9702C86.9389 82.2825 87.7672 83.6532 88.4876 85.0825L89.3806 84.6325C88.6371 83.1573 87.7824 81.7429 86.8166 80.3894L86.0026 80.9702ZM90.3185 89.5263C90.8089 91.0259 91.1983 92.5817 91.4864 94.1942L92.4708 94.0183C92.1749 92.3618 91.7743 90.7607 91.269 89.2154L90.3185 89.5263ZM92.0352 98.9844C92.0784 99.7776 92.1 100.583 92.1 101.4H93.1C93.1 100.565 93.0779 99.7419 93.0337 98.9301L92.0352 98.9844ZM92.1 101.4C92.1 102.412 92.0639 103.401 91.9918 104.368L92.989 104.442C93.063 103.45 93.1 102.436 93.1 101.4H92.1ZM91.0508 110.208C90.549 112.162 89.8676 114.005 89.0071 115.739L89.9029 116.183C90.7956 114.384 91.5009 112.475 92.0194 110.457L91.0508 110.208ZM85.8233 120.694C85.2097 121.451 84.5508 122.182 83.8465 122.887L84.5536 123.594C85.2821 122.865 85.9644 122.109 86.6004 121.323L85.8233 120.694ZM83.8336 122.9C83.2439 123.535 82.6321 124.136 81.9981 124.704L82.6649 125.449C83.3223 124.861 83.9561 124.238 84.5664 123.581L83.8336 122.9ZM77.8586 127.743C77.1246 128.179 76.3675 128.581 75.5871 128.948L76.0129 129.853C76.822 129.472 77.6075 129.055 78.3693 128.603L77.8586 127.743ZM75.3604 129.639L76.4979 131.739L77.3771 131.262L76.2396 129.162L75.3604 129.639ZM78.7729 135.939L81.0479 140.139L81.9271 139.662L79.6521 135.462L78.7729 135.939ZM83.3229 144.339L85.5979 148.539L86.4771 148.062L84.2021 143.862L83.3229 144.339ZM87.8729 152.739L90.1479 156.939L91.0272 156.462L88.7522 152.262L87.8729 152.739ZM92.4229 161.139L93.5604 163.239L94.4397 162.762L93.3022 160.662L92.4229 161.139ZM94 162.5H91.8125V163.5H94V162.5ZM87.4375 162.5H83.0625V163.5H87.4375V162.5ZM78.6875 162.5H74.3125V163.5H78.6875V162.5ZM69.9375 162.5H65.5625V163.5H69.9375V162.5ZM61.1875 162.5H59V163.5H61.1875V162.5ZM59.4425 162.768L58.2758 160.551L57.3909 161.017L58.5575 163.233L59.4425 162.768ZM55.9425 156.118L53.6091 151.684L52.7242 152.15L55.0575 156.583L55.9425 156.118ZM51.2758 147.251L48.9425 142.818L48.0575 143.283L50.3909 147.717L51.2758 147.251ZM46.6091 138.384L45.4425 136.168L44.5575 136.633L45.7242 138.85L46.6091 138.384ZM45 135.9H41.85V136.9H45V135.9ZM35.55 135.9H32.4V136.9H35.55V135.9ZM31.9 136.4V138.617H32.9V136.4H31.9ZM31.9 143.05V147.484H32.9V143.05H31.9ZM31.9 151.917V156.35H32.9V151.917H31.9ZM31.9 160.784V163H32.9V160.784H31.9ZM32.4 162.5H30.2125V163.5H32.4V162.5ZM25.8375 162.5H21.4625V163.5H25.8375V162.5ZM17.0875 162.5H12.7125V163.5H17.0875V162.5ZM8.3375 162.5H3.9625V163.5H8.3375V162.5ZM-0.412499 162.5H-2.6V163.5H-0.412499V162.5ZM32.9 109.8V107.7H31.9V109.8H32.9ZM32.9 103.5V99.3004H31.9V103.5H32.9ZM32.9 95.1004V93.0004H31.9V95.1004H32.9ZM32.4 93.5004H34.325V92.5004H32.4V93.5004ZM38.175 93.5004H42.025V92.5004H38.175V93.5004ZM45.875 93.5004H47.8V92.5004H45.875V93.5004ZM47.8 93.5004C48.4067 93.5004 48.9806 93.539 49.5222 93.6152L49.6616 92.625C49.0696 92.5416 48.4489 92.5004 47.8 92.5004V93.5004ZM52.7105 94.7009C53.19 94.9918 53.6284 95.336 54.0265 95.734L54.7336 95.0269C54.279 94.5724 53.7774 94.1785 53.2292 93.8459L52.7105 94.7009ZM54.0478 95.7541C54.4512 96.1127 54.8009 96.5009 55.0982 96.9188L55.913 96.3391C55.5701 95.8572 55.1694 95.4132 54.7122 95.0067L54.0478 95.7541ZM56.2705 99.8077C56.3564 100.309 56.4 100.839 56.4 101.4H57.4C57.4 100.788 57.3524 100.2 57.2561 99.6387L56.2705 99.8077ZM56.4 101.4C56.4 101.969 56.3553 102.509 56.2669 103.022L57.2524 103.192C57.3511 102.619 57.4 102.021 57.4 101.4H56.4ZM55.0838 105.98C54.7868 106.412 54.4381 106.818 54.0367 107.197L54.7233 107.924C55.1738 107.499 55.569 107.04 55.9078 106.547L55.0838 105.98ZM54.0373 107.196C53.6348 107.575 53.1902 107.903 52.7027 108.179L53.1959 109.049C53.7521 108.734 54.2613 108.359 54.7227 107.925L54.0373 107.196ZM49.5116 109.194C48.9729 109.265 48.4025 109.3 47.8 109.3V110.3C48.4418 110.3 49.0558 110.262 49.6416 110.186L49.5116 109.194ZM47.8 109.3H45.875V110.3H47.8V109.3ZM42.025 109.3H38.175V110.3H42.025V109.3ZM34.325 109.3H32.4V110.3H34.325V109.3Z" fill="url(#paint0_linear_274_239)" fill-opacity="0.6" mask="url(#path-25-inside-1_274_239)"/>
<path d="M29.64 53.0004L35.56 41.9604L29.96 30.6004H33L37.96 40.5204H40.2L45.16 30.6004H48.2L42.6 41.9604L48.52 53.0004H45.48L40.2 43.2404H37.96L32.68 53.0004H29.64ZM51.3963 53.0004V37.0004H53.9563V49.0004L53.9243 49.3204H53.9883L62.5963 37.0004H65.4763V53.0004H62.9163V41.0004L62.9483 40.6804H62.8843L54.2763 53.0004H51.3963ZM69.9588 53.0004V37.0004H73.7988L78.5988 46.9204H79.3988L84.1988 37.0004H88.0388V53.0004H85.4788V40.2004L85.5108 39.8804H85.4468L80.6788 49.8004H77.3188L72.5508 39.8804H72.4868L72.5188 40.2004V53.0004H69.9588ZM92.5213 53.0004V37.0004H95.0813V49.0004L95.0493 49.3204H95.1133L103.721 37.0004H106.601V53.0004H104.041V41.0004L104.073 40.6804H104.009L95.4013 53.0004H92.5213ZM110.444 53.0004L113.644 47.2404C113.11 47.0058 112.577 46.6644 112.044 46.2164C110.977 45.2351 110.444 43.9764 110.444 42.4404C110.444 40.8831 111.009 39.5924 112.14 38.5684C113.27 37.5231 114.774 37.0004 116.652 37.0004H123.884V53.0004H121.324V47.8804H116.204L113.388 53.0004H110.444ZM113.932 40.2324C113.313 40.7871 113.004 41.5231 113.004 42.4404C113.004 43.3578 113.313 44.0938 113.932 44.6484C114.572 45.2031 115.489 45.4804 116.684 45.4804H121.324V39.4004H116.684C115.489 39.4004 114.572 39.6778 113.932 40.2324Z" fill="black"/>
</g>
<defs>
<linearGradient id="paint0_linear_274_239" x1="-11" y1="121.321" x2="99.0045" y2="120.922" gradientUnits="userSpaceOnUse">
<stop/>
<stop offset="0.915" stop-opacity="0"/>
</linearGradient>
</defs>
</svg>
