<svg width="335" height="162" viewBox="0 0 335 162" fill="none" xmlns="http://www.w3.org/2000/svg">
<mask id="mask0_274_184" style="mask-type:alpha" maskUnits="userSpaceOnUse" x="0" y="0" width="335" height="163">
<path d="M0 60.0004C0 31.7162 0 17.574 8.7868 8.78722C17.5736 0.000427246 31.7157 0.000427246 60 0.000427246H275C303.284 0.000427246 317.426 0.000427246 326.213 8.78722C335 17.574 335 31.7162 335 60.0004V102C335 130.285 335 144.427 326.213 153.214C317.426 162 303.284 162 275 162H60C31.7157 162 17.5736 162 8.7868 153.214C0 144.427 0 130.285 0 102V60.0004Z" fill="#F89745"/>
</mask>
<g mask="url(#mask0_274_184)">
<path d="M0 60.0004C0 31.7162 0 17.574 8.7868 8.78722C17.5736 0.000427246 31.7157 0.000427246 60 0.000427246H275C303.284 0.000427246 317.426 0.000427246 326.213 8.78722C335 17.574 335 31.7162 335 60.0004V102C335 130.285 335 144.427 326.213 153.214C317.426 162 303.284 162 275 162H60C31.7157 162 17.5736 162 8.7868 153.214C0 144.427 0 130.285 0 102V60.0004Z" fill="#A576EB"/>
<path d="M224.144 80.4948L224.131 80.5012" stroke="black" stroke-width="0.2" stroke-linecap="round" stroke-linejoin="round"/>
<path d="M224.144 80.4948L224.131 80.5012" stroke="black" stroke-width="0.2" stroke-linecap="round" stroke-linejoin="round"/>
<path d="M344.221 45.8263V109.186C344.254 109.54 344.19 109.895 344.034 110.213C343.878 110.532 343.638 110.801 343.338 110.991L286.64 143.631C286.926 143.437 287.154 143.169 287.301 142.856C287.447 142.543 287.506 142.196 287.472 141.852V78.4916C287.472 76.5716 285.91 74.1012 283.984 72.9815L265.328 62.1463L259.734 58.8951L257.475 57.6151C256.438 57.0135 255.51 56.9239 254.87 57.2695L259.606 54.5431L281.853 41.7431L284.253 40.3607L306.506 27.5607L311.459 24.7127C312.099 24.2711 313.085 24.3287 314.192 24.9687L340.701 40.3671C342.659 41.4295 344.221 43.8999 344.221 45.8263Z" fill="#B78CF8" stroke="black" stroke-width="0.2" stroke-linecap="round" stroke-linejoin="round"/>
<path d="M298.026 104.68L297.968 104.719" stroke="black" stroke-width="0.2" stroke-linecap="round" stroke-linejoin="round"/>
<path d="M262.941 97.7364V124.885L254.173 130.108C254.425 129.904 254.623 129.643 254.751 129.344C254.878 129.047 254.93 128.722 254.902 128.399V101.884C254.902 99.9636 253.341 97.4868 251.414 96.3732L224.905 80.9748C224.552 80.7252 224.147 80.558 223.721 80.486C223.294 80.414 222.857 80.4388 222.441 80.5588L253.981 62.2103V85.5636C253.981 87.4836 255.549 89.9604 257.475 91.0804L259.446 92.226C261.373 93.346 262.941 95.81 262.941 97.7364Z" fill="#B78CF8" stroke="black" stroke-width="0.2" stroke-linecap="round" stroke-linejoin="round"/>
<path d="M306.506 23.2535V27.5159L284.254 40.3159L281.853 41.6983V37.4231C281.853 35.5031 280.292 33.0263 278.365 31.9063L273.015 28.8023L251.856 16.5271C250.82 15.8871 249.885 15.8359 249.245 16.1815L273.86 2.01827C274.5 1.65347 275.441 1.73667 276.497 2.34467L303.006 17.7431C304.945 18.8631 306.506 21.3207 306.506 23.2535Z" fill="#B78CF8" stroke="black" stroke-width="0.2" stroke-linecap="round" stroke-linejoin="round"/>
<path d="M226.755 87.3364L226.78 87.3236" stroke="black" stroke-width="0.2" stroke-linecap="round" stroke-linejoin="round"/>
<path d="M254.903 101.884V128.399C254.931 128.722 254.878 129.047 254.751 129.344C254.624 129.642 254.426 129.904 254.173 130.108H254.135L253.981 130.197C253.341 130.504 252.445 130.402 251.421 129.82L224.906 114.46C222.986 113.34 221.412 110.876 221.412 108.949V82.434C221.369 82.0556 221.444 81.674 221.626 81.3396C221.808 81.0052 222.088 80.7348 222.429 80.5652C222.845 80.4452 223.282 80.4204 223.709 80.4924C224.135 80.5644 224.54 80.7316 224.893 80.9812L251.402 96.3796C253.341 97.4868 254.903 99.9572 254.903 101.884Z" fill="#7D3AE2" stroke="black" stroke-width="0.2" stroke-linecap="round" stroke-linejoin="round"/>
<path d="M231.12 101.922H229.309L224.823 88.4052L224.848 88.3988H226.627L230.839 101.071L231.12 101.922Z" stroke="black" stroke-width="0.2" stroke-linecap="round" stroke-linejoin="round"/>
<path d="M233.053 100.847L231.12 101.922L230.839 101.071L226.627 88.3988L227.037 88.1748L228.56 87.3236L233.053 100.847Z" fill="#9458F6" stroke="black" stroke-width="0.2" stroke-linecap="round" stroke-linejoin="round"/>
<path d="M228.56 87.3236L227.037 88.1748L226.627 88.3988H224.848L224.823 88.4052L226.755 87.3364L226.781 87.3236H228.56Z" fill="#B78CF8" stroke="black" stroke-width="0.2" stroke-linecap="round" stroke-linejoin="round"/>
<path d="M275.293 2.01826C275.002 1.9721 274.703 1.98514 274.417 2.05666C274.295 2.08738 274.179 2.13474 274.071 2.19746H274.033C273.749 2.39194 273.522 2.65906 273.377 2.9709C273.232 3.28274 273.173 3.62794 273.207 3.97026V30.5111C273.207 32.4311 274.769 34.9079 276.695 36.0279L284.113 40.3351" stroke="black" stroke-width="0.2" stroke-linecap="round" stroke-linejoin="round" stroke-dasharray="0.8 1.6"/>
<path d="M281.853 37.423V41.711L259.607 54.511L251.856 50.031C249.936 48.9174 248.368 46.447 248.368 44.5206V17.9862C248.334 17.6444 248.392 17.2997 248.536 16.9879C248.68 16.676 248.905 16.4086 249.188 16.2134H249.232C249.872 15.8678 250.807 15.951 251.844 16.559L273.002 28.847L278.352 31.951C280.292 33.039 281.853 35.503 281.853 37.423Z" fill="#7D3AE2" stroke="black" stroke-width="0.2" stroke-linecap="round" stroke-linejoin="round"/>
<path d="M251.6 34.7799L255.28 36.8407V38.5559L249.885 35.5351V21.7623L251.818 22.8439L253.533 23.8103L255.28 24.7831V26.5047L253.533 25.5255L251.818 24.5655L251.6 24.4439V34.7799Z" stroke="black" stroke-width="0.2" stroke-linecap="round" stroke-linejoin="round"/>
<path d="M267.299 31.5159V45.2823L261.904 42.2615V40.5463L263.44 41.4103L265.578 42.6071V32.2711L261.904 30.2103V28.4951L263.44 29.3591L267.12 31.4135L267.299 31.5159Z" stroke="black" stroke-width="0.2" stroke-linecap="round" stroke-linejoin="round"/>
<path d="M257.206 35.7654L255.67 36.6166L255.28 36.8406L251.6 34.7798L251.997 34.5622L253.533 33.7046L257.206 35.7654Z" fill="#B78CF8" stroke="black" stroke-width="0.2" stroke-linecap="round" stroke-linejoin="round"/>
<path d="M253.533 25.5255V33.7047L251.997 34.5623L251.6 34.7799V24.4439L251.818 24.5655L253.533 25.5255Z" fill="#9458F6" stroke="black" stroke-width="0.2" stroke-linecap="round" stroke-linejoin="round"/>
<path d="M257.206 35.7655V37.4807L255.28 38.5559V36.8407L255.67 36.6167L257.206 35.7655Z" fill="#9458F6" stroke="black" stroke-width="0.2" stroke-linecap="round" stroke-linejoin="round"/>
<path d="M257.206 23.7143V25.4295L255.28 26.5047V24.7831L255.67 24.5655L257.206 23.7143Z" fill="#9458F6" stroke="black" stroke-width="0.2" stroke-linecap="round" stroke-linejoin="round"/>
<path d="M269.231 30.4407V44.2135L267.298 45.2823V31.5159L267.51 31.3943L269.231 30.4407Z" fill="#9458F6" stroke="black" stroke-width="0.2" stroke-linecap="round" stroke-linejoin="round"/>
<path d="M257.207 23.7143L255.671 24.5655L255.28 24.7831L253.533 23.8103L251.818 22.8439L249.885 21.7623L251.818 20.6935L257.207 23.7143Z" fill="#B78CF8" stroke="black" stroke-width="0.2" stroke-linecap="round" stroke-linejoin="round"/>
<path d="M265.578 40.4503V42.6071L263.44 41.4103L261.904 40.5463L263.837 39.4711L265.578 40.4503Z" fill="#B78CF8" stroke="black" stroke-width="0.2" stroke-linecap="round" stroke-linejoin="round"/>
<path d="M269.232 30.4407L267.51 31.3943L267.299 31.5159L267.12 31.4135L263.44 29.3591L261.904 28.4951L263.837 27.4199L269.232 30.4407Z" fill="#B78CF8" stroke="black" stroke-width="0.2" stroke-linecap="round" stroke-linejoin="round"/>
<path d="M267.241 129.052L320.285 98.6004" stroke="black" stroke-width="0.2" stroke-linecap="round" stroke-linejoin="round" stroke-dasharray="2.3 3.84"/>
<path d="M318.595 62.2103L261.533 94.1332" stroke="black" stroke-width="0.2" stroke-linecap="round" stroke-linejoin="round" stroke-dasharray="2.3 3.84"/>
<path d="M311.793 56.3031L254.781 88.2452" stroke="black" stroke-width="0.2" stroke-linecap="round" stroke-linejoin="round" stroke-dasharray="0.8 1.6"/>
<path d="M287.472 78.498V141.858C287.507 142.202 287.449 142.548 287.304 142.861C287.158 143.174 286.931 143.443 286.646 143.637C286.006 144.015 285.046 143.938 283.984 143.324L266.422 133.122C264.502 132.008 262.941 129.538 262.941 127.612V97.7236C262.941 95.8036 261.373 93.3332 259.446 92.2132L257.475 91.0676C255.555 89.9476 253.981 87.4772 253.981 85.5508V59.0488C253.949 58.7007 254.012 58.3504 254.164 58.0357C254.317 57.721 254.552 57.4539 254.845 57.2632C255.485 56.9176 256.413 57.0072 257.45 57.6088L259.709 58.8888L265.302 62.14L283.958 72.9752C285.91 74.1012 287.472 76.5716 287.472 78.498Z" fill="#7D3AE2" stroke="black" stroke-width="0.2" stroke-linecap="round" stroke-linejoin="round"/>
<path d="M311.619 24.6807L311.517 24.7255C311.224 24.9176 310.99 25.1861 310.838 25.5019C310.687 25.8178 310.625 26.169 310.659 26.5175V53.0327C310.659 54.9527 312.221 57.4231 314.147 58.5431L316.125 59.6887C318.045 60.8087 319.613 63.2791 319.613 65.2055V95.0868C319.613 97.0068 321.174 99.4836 323.101 100.604L340.662 110.799C341.256 111.196 341.966 111.383 342.678 111.33C342.835 111.314 342.989 111.273 343.133 111.208" stroke="black" stroke-width="0.2" stroke-linecap="round" stroke-linejoin="round" stroke-dasharray="0.8 1.6"/>
<path d="M344.221 45.8263V109.186C344.249 109.519 344.193 109.854 344.058 110.16C343.922 110.464 343.712 110.731 343.446 110.933L341.821 111.868L286.646 143.663C286.93 143.468 287.156 143.201 287.302 142.89C287.446 142.578 287.506 142.232 287.472 141.89V78.53C287.431 77.5844 287.159 76.6636 286.678 75.8484L343.382 43.1063C343.886 43.9279 344.174 44.8635 344.221 45.8263Z" fill="#9458F6" stroke="black" stroke-width="0.2" stroke-linecap="round" stroke-linejoin="round"/>
<path d="M262.94 97.7364V124.885L259.433 126.978L254.172 130.108C254.282 130.03 254.382 129.937 254.467 129.832C254.777 129.419 254.931 128.909 254.902 128.392V101.884C254.853 100.833 254.524 99.814 253.948 98.9332L261.75 94.4532C262.455 95.41 262.868 96.5508 262.94 97.7364Z" fill="#9458F6" stroke="black" stroke-width="0.2" stroke-linecap="round" stroke-linejoin="round"/>
<path d="M306.506 23.2535V27.5159L284.253 40.3159L281.853 41.6983V37.4231C281.804 36.3643 281.47 35.3384 280.887 34.4535L305.514 20.2327C306.114 21.1303 306.457 22.1749 306.506 23.2535Z" fill="#9458F6" stroke="black" stroke-width="0.2" stroke-linecap="round" stroke-linejoin="round"/>
<path d="M271.671 75.3876V79.9316L268.88 81.4804V76.9364L271.671 75.3876Z" fill="#9458F6" stroke="black" stroke-width="0.2" stroke-linecap="round" stroke-linejoin="round"/>
<path d="M281.853 85.6276L279.684 86.8372L279.069 87.1828L278.845 87.0548L271.671 83.042L268.88 81.4804L271.671 79.9316L281.853 85.6276Z" fill="#B78CF8" stroke="black" stroke-width="0.2" stroke-linecap="round" stroke-linejoin="round"/>
<path d="M271.671 75.3876L268.881 76.9364L262.078 76.5716L257.604 76.322L260.394 74.7732L271.671 75.3876Z" fill="#B78CF8" stroke="black" stroke-width="0.2" stroke-linecap="round" stroke-linejoin="round"/>
<path d="M281.853 85.6276V132.213L279.069 133.762V87.1828L279.683 86.8372L281.853 85.6276Z" fill="#9458F6" stroke="black" stroke-width="0.2" stroke-linecap="round" stroke-linejoin="round"/>
<path d="M268.88 88.3284L271.671 86.7796V85.218L268.88 83.6564V88.3284Z" fill="#9458F6" stroke="black" stroke-width="0.2" stroke-linecap="round" stroke-linejoin="round"/>
<path d="M279.07 87.1828V133.762L276.894 132.552V88.1364L271.671 85.218L268.881 83.6564V88.3284L257.604 76.322L262.078 76.5716L268.881 76.9364V81.4804L271.671 83.042L278.846 87.0548L279.07 87.1828Z" stroke="black" stroke-width="0.2" stroke-linecap="round" stroke-linejoin="round"/>
<path d="M344.221 106.453V109.192C344.249 109.525 344.193 109.86 344.058 110.166C343.922 110.471 343.712 110.737 343.446 110.94L341.821 111.874L286.646 143.663C286.93 143.468 287.156 143.201 287.302 142.89C287.446 142.578 287.506 142.232 287.472 141.89V139.183L344.221 106.453Z" fill="black"/>
<path d="M262.941 120.962V124.885L259.434 126.978L254.467 129.832C254.777 129.419 254.931 128.909 254.902 128.392V125.596L262.941 120.962Z" fill="black"/>
<mask id="path-42-inside-1_274_184" fill="white">
<path d="M-13.1 65.0004H21.9L38.7 98.6004H40.1L56.9 65.0004H91.9L56.9 128V163H21.9V128L-13.1 65.0004ZM106.627 150.96C96.3607 141.067 91.2273 128.747 91.2273 114C91.2273 99.2538 96.3607 86.9338 106.627 77.0404C116.894 67.1471 130.427 62.2004 147.227 62.2004C164.027 62.2004 177.561 67.1471 187.827 77.0404C198.094 86.9338 203.227 99.2538 203.227 114C203.227 128.747 198.094 141.067 187.827 150.96C177.561 160.854 164.027 165.8 147.227 165.8C130.427 165.8 116.894 160.854 106.627 150.96ZM133.087 97.6204C129.447 101.634 127.627 107.094 127.627 114C127.627 120.907 129.447 126.367 133.087 130.38C136.821 134.394 141.534 136.4 147.227 136.4C152.921 136.4 157.587 134.394 161.227 130.38C164.961 126.367 166.827 120.907 166.827 114C166.827 107.094 164.961 101.634 161.227 97.6204C157.587 93.6071 152.921 91.6004 147.227 91.6004C141.534 91.6004 136.821 93.6071 133.087 97.6204Z"/>
</mask>
<path d="M-13.1 65.0004V64.7504H-13.5249L-13.3185 65.1218L-13.1 65.0004ZM21.9 65.0004L22.1236 64.8886L22.0545 64.7504H21.9V65.0004ZM38.7 98.6004L38.4764 98.7122L38.5455 98.8504H38.7V98.6004ZM40.1 98.6004V98.8504H40.2545L40.3236 98.7122L40.1 98.6004ZM56.9 65.0004V64.7504H56.7455L56.6764 64.8886L56.9 65.0004ZM91.9 65.0004L92.1185 65.1218L92.3249 64.7504H91.9V65.0004ZM56.9 128L56.6815 127.879L56.65 127.936V128H56.9ZM56.9 163V163.25H57.15V163H56.9ZM21.9 163H21.65V163.25H21.9V163ZM21.9 128H22.15V127.936L22.1185 127.879L21.9 128ZM-13.1 65.2504H-10.9125V64.7504H-13.1V65.2504ZM-6.5375 65.2504H-2.1625V64.7504H-6.5375V65.2504ZM2.2125 65.2504H6.5875V64.7504H2.2125V65.2504ZM10.9625 65.2504H15.3375V64.7504H10.9625V65.2504ZM19.7125 65.2504H21.9V64.7504H19.7125V65.2504ZM21.6764 65.1122L22.7264 67.2122L23.1736 66.9886L22.1236 64.8886L21.6764 65.1122ZM24.8264 71.4122L26.9264 75.6122L27.3736 75.3886L25.2736 71.1886L24.8264 71.4122ZM29.0264 79.8122L31.1264 84.0122L31.5736 83.7886L29.4736 79.5886L29.0264 79.8122ZM33.2264 88.2122L35.3264 92.4122L35.7736 92.1886L33.6736 87.9886L33.2264 88.2122ZM37.4264 96.6122L38.4764 98.7122L38.9236 98.4886L37.8736 96.3886L37.4264 96.6122ZM38.7 98.8504H39.05V98.3504H38.7V98.8504ZM39.75 98.8504H40.1V98.3504H39.75V98.8504ZM40.3236 98.7122L41.3736 96.6122L40.9264 96.3886L39.8764 98.4886L40.3236 98.7122ZM43.4736 92.4122L45.5736 88.2122L45.1264 87.9886L43.0264 92.1886L43.4736 92.4122ZM47.6736 84.0122L49.7736 79.8122L49.3264 79.5886L47.2264 83.7886L47.6736 84.0122ZM51.8736 75.6122L53.9736 71.4122L53.5264 71.1886L51.4264 75.3886L51.8736 75.6122ZM56.0736 67.2122L57.1236 65.1122L56.6764 64.8886L55.6264 66.9886L56.0736 67.2122ZM56.9 65.2504H59.0875V64.7504H56.9V65.2504ZM63.4625 65.2504H67.8375V64.7504H63.4625V65.2504ZM72.2125 65.2504H76.5875V64.7504H72.2125V65.2504ZM80.9625 65.2504H85.3375V64.7504H80.9625V65.2504ZM89.7125 65.2504H91.9V64.7504H89.7125V65.2504ZM91.6815 64.879L90.4315 67.129L90.8685 67.3718L92.1185 65.1218L91.6815 64.879ZM87.9315 71.629L85.4315 76.129L85.8685 76.3718L88.3685 71.8718L87.9315 71.629ZM82.9315 80.629L80.4315 85.129L80.8685 85.3718L83.3685 80.8718L82.9315 80.629ZM77.9315 89.629L75.4315 94.129L75.8685 94.3718L78.3685 89.8718L77.9315 89.629ZM72.9315 98.629L70.4315 103.129L70.8685 103.372L73.3685 98.8718L72.9315 98.629ZM67.9315 107.629L65.4315 112.129L65.8685 112.372L68.3685 107.872L67.9315 107.629ZM62.9315 116.629L60.4315 121.129L60.8685 121.372L63.3685 116.872L62.9315 116.629ZM57.9315 125.629L56.6815 127.879L57.1185 128.122L58.3685 125.872L57.9315 125.629ZM56.65 128V130.188H57.15V128H56.65ZM56.65 134.563V138.938H57.15V134.563H56.65ZM56.65 143.313V147.688H57.15V143.313H56.65ZM56.65 152.063V156.438H57.15V152.063H56.65ZM56.65 160.813V163H57.15V160.813H56.65ZM56.9 162.75H54.7125V163.25H56.9V162.75ZM50.3375 162.75H45.9625V163.25H50.3375V162.75ZM41.5875 162.75H37.2125V163.25H41.5875V162.75ZM32.8375 162.75H28.4625V163.25H32.8375V162.75ZM24.0875 162.75H21.9V163.25H24.0875V162.75ZM22.15 163V160.813H21.65V163H22.15ZM22.15 156.438V152.063H21.65V156.438H22.15ZM22.15 147.688V143.313H21.65V147.688H22.15ZM22.15 138.938V134.563H21.65V138.938H22.15ZM22.15 130.188V128H21.65V130.188H22.15ZM22.1185 127.879L20.8685 125.629L20.4315 125.872L21.6815 128.122L22.1185 127.879ZM18.3685 121.129L15.8685 116.629L15.4315 116.872L17.9315 121.372L18.3685 121.129ZM13.3685 112.129L10.8685 107.629L10.4315 107.872L12.9315 112.372L13.3685 112.129ZM8.36854 103.129L5.86854 98.629L5.43146 98.8718L7.93146 103.372L8.36854 103.129ZM3.36854 94.129L0.868542 89.629L0.431463 89.8718L2.93146 94.3718L3.36854 94.129ZM-1.63146 85.129L-4.13146 80.629L-4.56854 80.8718L-2.06854 85.3718L-1.63146 85.129ZM-6.63146 76.129L-9.13146 71.629L-9.56854 71.8718L-7.06854 76.3718L-6.63146 76.129ZM-11.6315 67.129L-12.8815 64.879L-13.3185 65.1218L-12.0685 67.3718L-11.6315 67.129ZM-13.1 65.0004V64.5004H-13.9498L-13.5371 65.2432L-13.1 65.0004ZM21.9 65.0004L22.3472 64.7768L22.209 64.5004H21.9V65.0004ZM38.7 98.6004L38.2528 98.824L38.391 99.1004H38.7V98.6004ZM40.1 98.6004V99.1004H40.409L40.5472 98.824L40.1 98.6004ZM56.9 65.0004V64.5004H56.591L56.4528 64.7768L56.9 65.0004ZM91.9 65.0004L92.3371 65.2432L92.7498 64.5004H91.9V65.0004ZM56.9 128L56.4629 127.758L56.4 127.871V128H56.9ZM56.9 163V163.5H57.4V163H56.9ZM21.9 163H21.4V163.5H21.9V163ZM21.9 128H22.4V127.871L22.3371 127.758L21.9 128ZM-13.1 65.5004H-10.9125V64.5004H-13.1V65.5004ZM-6.5375 65.5004H-2.1625V64.5004H-6.5375V65.5004ZM2.2125 65.5004H6.5875V64.5004H2.2125V65.5004ZM10.9625 65.5004H15.3375V64.5004H10.9625V65.5004ZM19.7125 65.5004H21.9V64.5004H19.7125V65.5004ZM21.4528 65.224L22.5028 67.324L23.3972 66.8768L22.3472 64.7768L21.4528 65.224ZM24.6028 71.524L26.7028 75.724L27.5972 75.2768L25.4972 71.0768L24.6028 71.524ZM28.8028 79.924L30.9028 84.124L31.7972 83.6768L29.6972 79.4768L28.8028 79.924ZM33.0028 88.324L35.1028 92.524L35.9972 92.0768L33.8972 87.8768L33.0028 88.324ZM37.2028 96.724L38.2528 98.824L39.1472 98.3768L38.0972 96.2768L37.2028 96.724ZM38.7 99.1004H39.05V98.1004H38.7V99.1004ZM39.75 99.1004H40.1V98.1004H39.75V99.1004ZM40.5472 98.824L41.5972 96.724L40.7028 96.2768L39.6528 98.3768L40.5472 98.824ZM43.6972 92.524L45.7972 88.324L44.9028 87.8768L42.8028 92.0768L43.6972 92.524ZM47.8972 84.124L49.9972 79.924L49.1028 79.4768L47.0028 83.6768L47.8972 84.124ZM52.0972 75.724L54.1972 71.524L53.3028 71.0768L51.2028 75.2768L52.0972 75.724ZM56.2972 67.324L57.3472 65.224L56.4528 64.7768L55.4028 66.8768L56.2972 67.324ZM56.9 65.5004H59.0875V64.5004H56.9V65.5004ZM63.4625 65.5004H67.8375V64.5004H63.4625V65.5004ZM72.2125 65.5004H76.5875V64.5004H72.2125V65.5004ZM80.9625 65.5004H85.3375V64.5004H80.9625V65.5004ZM89.7125 65.5004H91.9V64.5004H89.7125V65.5004ZM91.4629 64.7576L90.2129 67.0076L91.0871 67.4932L92.3371 65.2432L91.4629 64.7576ZM87.7129 71.5076L85.2129 76.0076L86.0871 76.4932L88.5871 71.9932L87.7129 71.5076ZM82.7129 80.5076L80.2129 85.0076L81.0871 85.4932L83.5871 80.9932L82.7129 80.5076ZM77.7129 89.5076L75.2129 94.0076L76.0871 94.4932L78.5871 89.9932L77.7129 89.5076ZM72.7129 98.5076L70.2129 103.008L71.0871 103.493L73.5871 98.9932L72.7129 98.5076ZM67.7129 107.508L65.2129 112.008L66.0871 112.493L68.5871 107.993L67.7129 107.508ZM62.7129 116.508L60.2129 121.008L61.0871 121.493L63.5871 116.993L62.7129 116.508ZM57.7129 125.508L56.4629 127.758L57.3371 128.243L58.5871 125.993L57.7129 125.508ZM56.4 128V130.188H57.4V128H56.4ZM56.4 134.563V138.938H57.4V134.563H56.4ZM56.4 143.313V147.688H57.4V143.313H56.4ZM56.4 152.063V156.438H57.4V152.063H56.4ZM56.4 160.813V163H57.4V160.813H56.4ZM56.9 162.5H54.7125V163.5H56.9V162.5ZM50.3375 162.5H45.9625V163.5H50.3375V162.5ZM41.5875 162.5H37.2125V163.5H41.5875V162.5ZM32.8375 162.5H28.4625V163.5H32.8375V162.5ZM24.0875 162.5H21.9V163.5H24.0875V162.5ZM22.4 163V160.813H21.4V163H22.4ZM22.4 156.438V152.063H21.4V156.438H22.4ZM22.4 147.688V143.313H21.4V147.688H22.4ZM22.4 138.938V134.563H21.4V138.938H22.4ZM22.4 130.188V128H21.4V130.188H22.4ZM22.3371 127.758L21.0871 125.508L20.2129 125.993L21.4629 128.243L22.3371 127.758ZM18.5871 121.008L16.0871 116.508L15.2129 116.993L17.7129 121.493L18.5871 121.008ZM13.5871 112.008L11.0871 107.508L10.2129 107.993L12.7129 112.493L13.5871 112.008ZM8.58708 103.008L6.08708 98.5076L5.21292 98.9932L7.71292 103.493L8.58708 103.008ZM3.58708 94.0076L1.08708 89.5076L0.212924 89.9932L2.71292 94.4932L3.58708 94.0076ZM-1.41292 85.0076L-3.91292 80.5076L-4.78708 80.9932L-2.28708 85.4932L-1.41292 85.0076ZM-6.41292 76.0076L-8.91292 71.5076L-9.78708 71.9932L-7.28708 76.4932L-6.41292 76.0076ZM-11.4129 67.0076L-12.6629 64.7576L-13.5371 65.2432L-12.2871 67.4932L-11.4129 67.0076ZM106.627 150.96L106.801 150.78L106.627 150.96ZM106.627 77.0404L106.801 77.2204L106.627 77.0404ZM187.827 77.0404L187.654 77.2204L187.827 77.0404ZM187.827 150.96L187.654 150.78L187.827 150.96ZM133.087 97.6204L132.904 97.4501L132.902 97.4525L133.087 97.6204ZM133.087 130.38L132.902 130.548L132.904 130.551L133.087 130.38ZM161.227 130.38L161.044 130.21L161.042 130.212L161.227 130.38ZM161.227 97.6204L161.042 97.7884L161.044 97.7907L161.227 97.6204ZM106.801 150.78C106.18 150.182 105.578 149.575 104.995 148.959L104.632 149.303C105.22 149.925 105.828 150.537 106.454 151.14L106.801 150.78ZM101.657 145.071C100.599 143.707 99.6245 142.305 98.7322 140.864L98.3071 141.128C99.2088 142.584 100.194 144 101.262 145.377L101.657 145.071ZM96.2756 136.37C95.5409 134.831 94.8905 133.253 94.3246 131.634L93.8526 131.799C94.4245 133.435 95.0818 135.03 95.8244 136.585L96.2756 136.37ZM92.8931 126.716C92.5069 125.073 92.1996 123.393 91.9714 121.675L91.4758 121.74C91.7061 123.474 92.0163 125.171 92.4063 126.83L92.8931 126.716ZM91.5304 116.566C91.495 115.719 91.4773 114.864 91.4773 114H90.9773C90.9773 114.871 90.9952 115.733 91.0308 116.587L91.5304 116.566ZM91.4773 114C91.4773 113.137 91.495 112.282 91.5304 111.435L91.0308 111.414C90.9952 112.268 90.9773 113.13 90.9773 114H91.4773ZM91.9714 106.326C92.1996 104.608 92.5069 102.928 92.8931 101.285L92.4063 101.171C92.0163 102.83 91.7061 104.526 91.4758 106.26L91.9714 106.326ZM94.3246 96.3664C94.8905 94.7479 95.5409 93.1694 96.2756 91.6309L95.8244 91.4154C95.0818 92.9705 94.4245 94.5658 93.8526 96.2014L94.3246 96.3664ZM98.7322 87.1364C99.6245 85.6956 100.599 84.2935 101.657 82.9302L101.262 82.6237C100.194 84.0007 99.2088 85.4171 98.3071 86.8731L98.7322 87.1364ZM104.995 79.0416C105.578 78.4257 106.18 77.8186 106.801 77.2204L106.454 76.8604C105.828 77.4638 105.22 78.0763 104.632 78.6978L104.995 79.0416ZM106.801 77.2204C107.466 76.5793 108.145 75.9591 108.838 75.3598L108.511 74.9817C107.811 75.5869 107.126 76.2131 106.454 76.8604L106.801 77.2204ZM113.201 71.9867C114.714 70.9452 116.284 69.9891 117.91 69.1182L117.674 68.6774C116.031 69.557 114.446 70.5228 112.917 71.5748L113.201 71.9867ZM122.906 66.7825C124.591 66.1019 126.329 65.5015 128.121 64.9812L127.981 64.5011C126.174 65.0259 124.42 65.6318 122.719 66.3189L122.906 66.7825ZM133.488 63.693C135.262 63.3517 137.082 63.0807 138.95 62.88L138.896 62.3828C137.016 62.585 135.181 62.858 133.393 63.202L133.488 63.693ZM144.462 62.4962C145.374 62.4657 146.295 62.4504 147.227 62.4504V61.9504C146.29 61.9504 145.363 61.9658 144.445 61.9965L144.462 62.4962ZM147.227 62.4504C148.159 62.4504 149.081 62.4657 149.993 62.4962L150.009 61.9965C149.092 61.9658 148.165 61.9504 147.227 61.9504V62.4504ZM155.505 62.88C157.372 63.0807 159.193 63.3517 160.967 63.693L161.061 63.202C159.273 62.858 157.439 62.585 155.558 62.3828L155.505 62.88ZM166.334 64.9812C168.126 65.5015 169.864 66.1019 171.549 66.7825L171.736 66.3189C170.035 65.6318 168.281 65.0259 166.473 64.5011L166.334 64.9812ZM176.545 69.1182C178.171 69.9891 179.741 70.9452 181.254 71.9867L181.538 71.5748C180.009 70.5228 178.423 69.557 176.781 68.6774L176.545 69.1182ZM185.617 75.3598C186.31 75.9591 186.989 76.5793 187.654 77.2204L188.001 76.8604C187.329 76.2131 186.643 75.5869 185.944 74.9817L185.617 75.3598ZM187.654 77.2204C188.275 77.8186 188.876 78.4257 189.459 79.0416L189.823 78.6978C189.234 78.0763 188.627 77.4638 188.001 76.8604L187.654 77.2204ZM192.798 82.9302C193.855 84.2935 194.83 85.6956 195.723 87.1364L196.148 86.8731C195.246 85.4171 194.261 84.0007 193.193 82.6237L192.798 82.9302ZM198.179 91.6309C198.914 93.1694 199.564 94.7479 200.13 96.3664L200.602 96.2014C200.03 94.5658 199.373 92.9705 198.63 91.4154L198.179 91.6309ZM201.562 101.285C201.948 102.928 202.255 104.608 202.483 106.326L202.979 106.26C202.749 104.526 202.438 102.83 202.048 101.171L201.562 101.285ZM202.924 111.435C202.96 112.282 202.977 113.137 202.977 114H203.477C203.477 113.13 203.46 112.268 203.424 111.414L202.924 111.435ZM202.977 114C202.977 114.864 202.96 115.719 202.924 116.566L203.424 116.587C203.46 115.733 203.477 114.871 203.477 114H202.977ZM202.483 121.675C202.255 123.393 201.948 125.073 201.562 126.716L202.048 126.83C202.438 125.171 202.749 123.474 202.979 121.74L202.483 121.675ZM200.13 131.634C199.564 133.253 198.914 134.831 198.179 136.37L198.63 136.585C199.373 135.03 200.03 133.435 200.602 131.799L200.13 131.634ZM195.723 140.864C194.83 142.305 193.855 143.707 192.798 145.071L193.193 145.377C194.261 144 195.246 142.584 196.148 141.128L195.723 140.864ZM189.459 148.959C188.876 149.575 188.275 150.182 187.654 150.78L188.001 151.14C188.627 150.537 189.234 149.925 189.823 149.303L189.459 148.959ZM187.654 150.78C186.989 151.422 186.31 152.042 185.617 152.641L185.944 153.019C186.643 152.414 187.329 151.788 188.001 151.14L187.654 150.78ZM181.254 156.014C179.741 157.056 178.171 158.012 176.545 158.883L176.781 159.323C178.423 158.444 180.009 157.478 181.538 156.426L181.254 156.014ZM171.549 161.218C169.864 161.899 168.126 162.499 166.334 163.02L166.473 163.5C168.281 162.975 170.035 162.369 171.736 161.682L171.549 161.218ZM160.967 164.308C159.193 164.649 157.372 164.92 155.505 165.121L155.558 165.618C157.439 165.416 159.273 165.143 161.061 164.799L160.967 164.308ZM149.993 165.505C149.081 165.535 148.159 165.55 147.227 165.55V166.05C148.165 166.05 149.092 166.035 150.009 166.004L149.993 165.505ZM147.227 165.55C146.295 165.55 145.374 165.535 144.462 165.505L144.445 166.004C145.363 166.035 146.29 166.05 147.227 166.05V165.55ZM138.95 165.121C137.082 164.92 135.262 164.649 133.488 164.308L133.393 164.799C135.181 165.143 137.016 165.416 138.896 165.618L138.95 165.121ZM128.121 163.02C126.329 162.499 124.591 161.899 122.906 161.218L122.719 161.682C124.42 162.369 126.174 162.975 127.981 163.5L128.121 163.02ZM117.91 158.883C116.284 158.012 114.714 157.056 113.201 156.014L112.917 156.426C114.446 157.478 116.031 158.444 117.674 159.323L117.91 158.883ZM108.838 152.641C108.145 152.042 107.466 151.422 106.801 150.78L106.454 151.14C107.126 151.788 107.811 152.414 108.511 153.019L108.838 152.641ZM132.902 97.4525C132.4 98.006 131.932 98.5868 131.498 99.1947L131.905 99.4851C132.328 98.8931 132.784 98.3275 133.273 97.7884L132.902 97.4525ZM129.334 103.101C128.779 104.429 128.342 105.85 128.023 107.363L128.512 107.466C128.825 105.982 129.253 104.591 129.796 103.294L129.334 103.101ZM127.443 111.776C127.399 112.501 127.377 113.242 127.377 114H127.877C127.877 113.252 127.899 112.52 127.942 111.806L127.443 111.776ZM127.377 114C127.377 114.759 127.399 115.5 127.443 116.225L127.942 116.195C127.899 115.481 127.877 114.749 127.877 114H127.377ZM128.023 120.638C128.342 122.151 128.779 123.571 129.334 124.9L129.796 124.707C129.253 123.41 128.825 122.019 128.512 120.535L128.023 120.638ZM131.498 128.806C131.932 129.414 132.4 129.995 132.902 130.548L133.273 130.212C132.784 129.673 132.328 129.108 131.905 128.516L131.498 128.806ZM132.904 130.551C133.367 131.048 133.844 131.515 134.337 131.951L134.669 131.577C134.188 131.151 133.722 130.696 133.27 130.21L132.904 130.551ZM137.598 134.278C138.764 134.93 139.995 135.448 141.292 135.832L141.434 135.352C140.172 134.979 138.975 134.476 137.842 133.842L137.598 134.278ZM145.228 136.565C145.881 136.622 146.547 136.65 147.227 136.65V136.15C146.561 136.15 145.909 136.123 145.271 136.067L145.228 136.565ZM147.227 136.65C147.903 136.65 148.565 136.622 149.212 136.566L149.169 136.068C148.536 136.123 147.889 136.15 147.227 136.15V136.65ZM153.12 135.839C154.41 135.457 155.631 134.94 156.784 134.288L156.538 133.853C155.418 134.486 154.232 134.988 152.978 135.359L153.12 135.839ZM160.006 131.955C160.491 131.517 160.96 131.048 161.413 130.548L161.042 130.212C160.6 130.7 160.143 131.157 159.67 131.584L160.006 131.955ZM161.41 130.551C161.922 130.001 162.399 129.424 162.841 128.821L162.438 128.525C162.007 129.113 161.543 129.674 161.044 130.21L161.41 130.551ZM165.059 124.927C165.632 123.597 166.082 122.174 166.411 120.66L165.922 120.554C165.6 122.039 165.159 123.431 164.6 124.729L165.059 124.927ZM167.01 116.233C167.055 115.506 167.077 114.762 167.077 114H166.577C166.577 114.752 166.555 115.486 166.511 116.202L167.01 116.233ZM167.077 114C167.077 113.239 167.055 112.495 167.01 111.768L166.511 111.799C166.555 112.515 166.577 113.249 166.577 114H167.077ZM166.411 107.341C166.082 105.826 165.632 104.404 165.059 103.074L164.6 103.272C165.159 104.57 165.6 105.962 165.922 107.447L166.411 107.341ZM162.841 99.1803C162.399 98.5767 161.922 98 161.41 97.4501L161.044 97.7907C161.543 98.3264 162.007 98.8881 162.438 99.4759L162.841 99.1803ZM161.413 97.4525C160.96 96.9531 160.491 96.4841 160.006 96.0456L159.67 96.4165C160.143 96.8436 160.6 97.3008 161.042 97.7884L161.413 97.4525ZM156.784 93.7126C155.631 93.0608 154.41 92.544 153.12 92.162L152.978 92.6414C154.232 93.0128 155.418 93.515 156.538 94.1478L156.784 93.7126ZM149.212 91.4344C148.565 91.3784 147.903 91.3504 147.227 91.3504V91.8504C147.889 91.8504 148.536 91.8778 149.169 91.9325L149.212 91.4344ZM147.227 91.3504C146.547 91.3504 145.881 91.3788 145.228 91.4355L145.271 91.9336C145.909 91.8782 146.561 91.8504 147.227 91.8504V91.3504ZM141.292 92.1692C139.995 92.5525 138.764 93.0704 137.598 93.7229L137.842 94.1592C138.975 93.5251 140.172 93.0216 141.434 92.6487L141.292 92.1692ZM134.337 96.0495C133.844 96.4862 133.367 96.9531 132.904 97.4501L133.27 97.7907C133.722 97.305 134.188 96.8494 134.669 96.4236L134.337 96.0495ZM106.627 150.96L106.974 150.6L106.627 150.96ZM106.627 77.0404L106.974 77.4005L106.627 77.0404ZM187.827 77.0404L187.48 77.4005L187.827 77.0404ZM187.827 150.96L187.48 150.6L187.827 150.96ZM133.087 97.6204L132.721 97.2798L132.717 97.2845L133.087 97.6204ZM133.087 130.38L132.717 130.716L132.721 130.721L133.087 130.38ZM161.227 130.38L160.861 130.04L160.857 130.045L161.227 130.38ZM161.227 97.6204L160.857 97.9564L160.861 97.961L161.227 97.6204ZM106.974 150.6C106.356 150.005 105.757 149.4 105.177 148.787L104.451 149.475C105.042 150.099 105.651 150.714 106.28 151.32L106.974 150.6ZM101.854 144.917C100.802 143.561 99.8324 142.166 98.9447 140.733L98.0946 141.259C99.001 142.723 99.9908 144.147 101.064 145.53L101.854 144.917ZM96.5012 136.262C95.7704 134.732 95.1235 133.162 94.5605 131.552L93.6166 131.882C94.1915 133.526 94.8523 135.13 95.5989 136.693L96.5012 136.262ZM93.1364 126.659C92.7522 125.024 92.4464 123.352 92.2193 121.642L91.228 121.773C91.4593 123.515 91.771 125.22 92.163 126.887L93.1364 126.659ZM91.7801 116.555C91.7449 115.712 91.7273 114.861 91.7273 114H90.7273C90.7273 114.874 90.7452 115.74 90.781 116.597L91.7801 116.555ZM91.7273 114C91.7273 113.14 91.7449 112.289 91.7801 111.445L90.781 111.404C90.7452 112.261 90.7273 113.127 90.7273 114H91.7273ZM92.2193 106.359C92.4464 104.649 92.7522 102.977 93.1364 101.342L92.163 101.113C91.771 102.781 91.4593 104.486 91.228 106.227L92.2193 106.359ZM94.5605 96.4489C95.1235 94.839 95.7704 93.2689 96.5012 91.7386L95.5989 91.3077C94.8523 92.871 94.1915 94.4747 93.6166 96.1188L94.5605 96.4489ZM98.9447 87.268C99.8324 85.8348 100.802 84.4399 101.854 83.0834L101.064 82.4705C99.9908 83.8543 99.001 85.2779 98.0946 86.7415L98.9447 87.268ZM105.177 79.2134C105.757 78.6004 106.356 77.996 106.974 77.4005L106.28 76.6804C105.651 77.2864 105.042 77.9016 104.451 78.526L105.177 79.2134ZM106.974 77.4005C107.636 76.7624 108.312 76.1453 109.002 75.5489L108.347 74.7926C107.644 75.4008 106.955 76.03 106.28 76.6804L106.974 77.4005ZM113.342 72.1926C114.848 71.1564 116.41 70.2051 118.028 69.3386L117.556 68.4571C115.905 69.341 114.312 70.3115 112.775 71.3688L113.342 72.1926ZM122.999 67.0143C124.676 66.337 126.407 65.7393 128.19 65.2213L127.912 64.261C126.096 64.7881 124.334 65.3968 122.625 66.0871L122.999 67.0143ZM133.535 63.9385C135.302 63.5986 137.116 63.3285 138.976 63.1285L138.87 62.1343C136.982 62.3371 135.141 62.6111 133.346 62.9565L133.535 63.9385ZM144.471 62.7461C145.379 62.7156 146.298 62.7004 147.227 62.7004V61.7004C146.287 61.7004 145.357 61.7158 144.437 61.7466L144.471 62.7461ZM147.227 62.7004C148.157 62.7004 149.075 62.7156 149.984 62.7461L150.018 61.7466C149.098 61.7158 148.167 61.7004 147.227 61.7004V62.7004ZM155.478 63.1285C157.339 63.3285 159.153 63.5986 160.92 63.9385L161.109 62.9565C159.314 62.6111 157.472 62.3371 155.585 62.1343L155.478 63.1285ZM166.264 65.2213C168.048 65.7393 169.778 66.337 171.455 67.0143L171.83 66.0871C170.121 65.3968 168.358 64.7881 166.543 64.261L166.264 65.2213ZM176.427 69.3386C178.045 70.2051 179.607 71.1564 181.112 72.1926L181.679 71.3688C180.143 70.3115 178.55 69.341 176.899 68.4571L176.427 69.3386ZM185.453 75.5489C186.143 76.1453 186.818 76.7624 187.48 77.4005L188.174 76.6804C187.499 76.03 186.81 75.4008 186.107 74.7926L185.453 75.5489ZM187.48 77.4005C188.098 77.996 188.698 78.6004 189.278 79.2134L190.004 78.526C189.413 77.9016 188.803 77.2864 188.174 76.6804L187.48 77.4005ZM192.601 83.0834C193.653 84.4399 194.622 85.8348 195.51 87.268L196.36 86.7415C195.454 85.2779 194.464 83.8543 193.391 82.4705L192.601 83.0834ZM197.953 91.7386C198.684 93.2689 199.331 94.839 199.894 96.4489L200.838 96.1188C200.263 94.4747 199.602 92.871 198.856 91.3077L197.953 91.7386ZM201.318 101.342C201.703 102.977 202.008 104.649 202.235 106.359L203.227 106.227C202.995 104.486 202.684 102.781 202.292 101.113L201.318 101.342ZM202.675 111.445C202.71 112.289 202.727 113.14 202.727 114H203.727C203.727 113.127 203.709 112.261 203.674 111.404L202.675 111.445ZM202.727 114C202.727 114.861 202.71 115.712 202.675 116.555L203.674 116.597C203.709 115.74 203.727 114.874 203.727 114H202.727ZM202.235 121.642C202.008 123.352 201.703 125.024 201.318 126.659L202.292 126.887C202.684 125.22 202.995 123.515 203.227 121.773L202.235 121.642ZM199.894 131.552C199.331 133.162 198.684 134.732 197.953 136.262L198.856 136.693C199.602 135.13 200.263 133.526 200.838 131.882L199.894 131.552ZM195.51 140.733C194.622 142.166 193.653 143.561 192.601 144.917L193.391 145.53C194.464 144.147 195.454 142.723 196.36 141.259L195.51 140.733ZM189.278 148.787C188.698 149.4 188.098 150.005 187.48 150.6L188.174 151.32C188.803 150.714 189.413 150.099 190.004 149.475L189.278 148.787ZM187.48 150.6C186.818 151.238 186.143 151.856 185.453 152.452L186.107 153.208C186.81 152.6 187.499 151.971 188.174 151.32L187.48 150.6ZM181.112 155.808C179.607 156.844 178.045 157.796 176.427 158.662L176.899 159.544C178.55 158.66 180.143 157.689 181.679 156.632L181.112 155.808ZM171.455 160.987C169.778 161.664 168.048 162.262 166.264 162.78L166.543 163.74C168.358 163.213 170.121 162.604 171.83 161.914L171.455 160.987ZM160.92 164.062C159.153 164.402 157.339 164.672 155.478 164.872L155.585 165.867C157.472 165.664 159.314 165.39 161.109 165.044L160.92 164.062ZM149.984 165.255C149.075 165.285 148.157 165.3 147.227 165.3V166.3C148.167 166.3 149.098 166.285 150.018 166.254L149.984 165.255ZM147.227 165.3C146.298 165.3 145.379 165.285 144.471 165.255L144.437 166.254C145.357 166.285 146.287 166.3 147.227 166.3V165.3ZM138.976 164.872C137.116 164.672 135.302 164.402 133.535 164.062L133.346 165.044C135.141 165.39 136.982 165.664 138.87 165.867L138.976 164.872ZM128.19 162.78C126.407 162.262 124.676 161.664 122.999 160.987L122.625 161.914C124.334 162.604 126.096 163.213 127.912 163.74L128.19 162.78ZM118.028 158.662C116.41 157.796 114.848 156.844 113.342 155.808L112.775 156.632C114.312 157.689 115.905 158.66 117.556 159.544L118.028 158.662ZM109.002 152.452C108.312 151.856 107.636 151.238 106.974 150.6L106.28 151.32C106.955 151.971 107.644 152.6 108.347 153.208L109.002 152.452ZM132.717 97.2845C132.208 97.8453 131.734 98.4337 131.295 99.0495L132.109 99.6303C132.526 99.0462 132.975 98.4883 133.458 97.9563L132.717 97.2845ZM129.104 103.004C128.541 104.348 128.1 105.785 127.778 107.312L128.757 107.518C129.066 106.048 129.49 104.672 130.026 103.39L129.104 103.004ZM127.193 111.761C127.149 112.491 127.127 113.237 127.127 114H128.127C128.127 113.256 128.149 112.53 128.191 111.821L127.193 111.761ZM127.127 114C127.127 114.764 127.149 115.51 127.193 116.24L128.191 116.18C128.149 115.471 128.127 114.744 128.127 114H127.127ZM127.778 120.689C128.1 122.216 128.541 123.652 129.104 124.996L130.026 124.611C129.49 123.329 129.066 121.953 128.757 120.483L127.778 120.689ZM131.295 128.951C131.734 129.567 132.208 130.156 132.717 130.716L133.458 130.045C132.975 129.513 132.526 128.955 132.109 128.371L131.295 128.951ZM132.721 130.721C133.189 131.224 133.672 131.696 134.171 132.138L134.834 131.39C134.36 130.97 133.9 130.52 133.453 130.04L132.721 130.721ZM137.476 134.496C138.658 135.158 139.907 135.683 141.221 136.071L141.505 135.112C140.261 134.745 139.081 134.248 137.964 133.623L137.476 134.496ZM145.206 136.814C145.867 136.872 146.54 136.9 147.227 136.9V135.9C146.568 135.9 145.923 135.873 145.293 135.818L145.206 136.814ZM147.227 136.9C147.91 136.9 148.579 136.872 149.234 136.816L149.148 135.819C148.522 135.873 147.882 135.9 147.227 135.9V136.9ZM153.191 136.079C154.498 135.691 155.737 135.167 156.907 134.506L156.415 133.635C155.312 134.259 154.143 134.754 152.907 135.12L153.191 136.079ZM160.173 132.141C160.665 131.696 161.139 131.222 161.598 130.716L160.857 130.045C160.42 130.526 159.969 130.978 159.503 131.399L160.173 132.141ZM161.593 130.721C162.112 130.164 162.595 129.58 163.043 128.968L162.236 128.377C161.811 128.957 161.353 129.511 160.861 130.04L161.593 130.721ZM165.289 125.025C165.868 123.68 166.323 122.242 166.655 120.713L165.678 120.501C165.359 121.972 164.923 123.348 164.37 124.63L165.289 125.025ZM167.259 116.248C167.305 115.516 167.327 114.767 167.327 114H166.327C166.327 114.747 166.305 115.475 166.261 116.186L167.259 116.248ZM167.327 114C167.327 113.234 167.305 112.485 167.259 111.753L166.261 111.815C166.305 112.525 166.327 113.254 166.327 114H167.327ZM166.655 107.288C166.323 105.759 165.868 104.321 165.289 102.975L164.37 103.371C164.923 104.653 165.359 106.029 165.678 107.5L166.655 107.288ZM163.043 99.0325C162.595 98.4211 162.112 97.8368 161.593 97.2799L160.861 97.961C161.353 98.4895 161.811 99.0437 162.236 99.6237L163.043 99.0325ZM161.598 97.2845C161.139 96.7792 160.665 96.3044 160.173 95.8602L159.503 96.6019C159.969 97.0233 160.42 97.4747 160.857 97.9563L161.598 97.2845ZM156.907 93.495C155.737 92.8337 154.498 92.3095 153.191 91.9223L152.907 92.8811C154.143 93.2472 155.312 93.7421 156.415 94.3655L156.907 93.495ZM149.234 91.1853C148.579 91.1287 147.91 91.1004 147.227 91.1004V92.1004C147.882 92.1004 148.522 92.1275 149.148 92.1816L149.234 91.1853ZM147.227 91.1004C146.54 91.1004 145.867 91.129 145.206 91.1864L145.293 92.1827C145.923 92.1279 146.568 92.1004 147.227 92.1004V91.1004ZM141.221 91.9294C139.907 92.3179 138.658 92.8431 137.476 93.5048L137.964 94.3774C139.081 93.7524 140.261 93.2561 141.505 92.8884L141.221 91.9294ZM134.171 95.8624C133.672 96.3046 133.189 96.7771 132.721 97.2799L133.453 97.961C133.9 97.481 134.36 97.031 134.834 96.6107L134.171 95.8624Z" fill="url(#paint0_linear_274_184)" fill-opacity="0.6" mask="url(#path-42-inside-1_274_184)"/>
<path d="M31.56 53.0004V30.6004H34.44V49.0004L34.408 49.3204H34.472L45.8 30.6004H49.64V53.0004H46.76V34.6004L46.792 34.2804H46.728L35.4 53.0004H31.56ZM54.4275 53.0004V37.0004H56.9875V43.5604H65.9475V37.0004H68.5075V53.0004H65.9475V45.9604H56.9875V53.0004H54.4275ZM74.238 50.6004C72.6593 49.0431 71.87 47.1764 71.87 45.0004C71.87 42.8244 72.6593 40.9684 74.238 39.4324C75.8167 37.8751 77.8007 37.0111 80.19 36.8404V30.6004H82.75V36.8404C85.1393 37.0111 87.1233 37.8751 88.702 39.4324C90.2807 40.9684 91.07 42.8244 91.07 45.0004C91.07 47.1764 90.2807 49.0431 88.702 50.6004C87.1233 52.1364 85.1393 52.9898 82.75 53.1604V59.0804H80.19V53.1604C77.8007 52.9898 75.8167 52.1364 74.238 50.6004ZM82.75 39.2404V50.7604C84.414 50.6751 85.79 50.0991 86.878 49.0324C87.966 47.9444 88.51 46.6004 88.51 45.0004C88.51 43.4004 87.966 42.0671 86.878 41.0004C85.79 39.9124 84.414 39.3258 82.75 39.2404ZM76.062 41.0004C74.974 42.0671 74.43 43.4004 74.43 45.0004C74.43 46.6004 74.974 47.9444 76.062 49.0324C77.15 50.0991 78.526 50.6751 80.19 50.7604V39.2404C78.526 39.3258 77.15 39.9124 76.062 41.0004ZM95.8355 50.9524C94.2568 49.3738 93.4675 47.3898 93.4675 45.0004C93.4675 42.6111 94.2568 40.6271 95.8355 39.0484C97.4142 37.4698 99.3982 36.6804 101.788 36.6804C104.177 36.6804 106.161 37.4698 107.74 39.0484C109.318 40.6271 110.108 42.6111 110.108 45.0004C110.108 47.3898 109.318 49.3738 107.74 50.9524C106.161 52.5311 104.177 53.3204 101.788 53.3204C99.3982 53.3204 97.4142 52.5311 95.8355 50.9524ZM97.6595 40.7444C96.5715 41.8538 96.0275 43.2724 96.0275 45.0004C96.0275 46.7284 96.5715 48.1471 97.6595 49.2564C98.7475 50.3658 100.124 50.9204 101.788 50.9204C103.452 50.9204 104.828 50.3658 105.916 49.2564C107.004 48.1471 107.548 46.7284 107.548 45.0004C107.548 43.2724 107.004 41.8538 105.916 40.7444C104.828 39.6351 103.452 39.0804 101.788 39.0804C100.124 39.0804 98.7475 39.6351 97.6595 40.7444ZM113.615 59.0804V37.0004H116.175V39.5604H116.207L116.527 39.0804C116.89 38.5258 117.54 37.9924 118.479 37.4804C119.418 36.9471 120.57 36.6804 121.935 36.6804C124.068 36.6804 125.882 37.4804 127.375 39.0804C128.868 40.6591 129.615 42.6324 129.615 45.0004C129.615 47.3684 128.868 49.3524 127.375 50.9524C125.882 52.5311 124.068 53.3204 121.935 53.3204C120.57 53.3204 119.407 53.0644 118.447 52.5524C117.508 52.0191 116.868 51.4644 116.527 50.8884L116.207 50.4404H116.175V59.0804H113.615ZM117.711 40.7444C116.687 41.8538 116.175 43.2724 116.175 45.0004C116.175 46.7284 116.687 48.1471 117.711 49.2564C118.756 50.3658 120.058 50.9204 121.615 50.9204C123.172 50.9204 124.463 50.3658 125.487 49.2564C126.532 48.1471 127.055 46.7284 127.055 45.0004C127.055 43.2724 126.532 41.8538 125.487 40.7444C124.463 39.6351 123.172 39.0804 121.615 39.0804C120.058 39.0804 118.756 39.6351 117.711 40.7444ZM133.146 53.0004V37.0004H136.986L141.786 46.9204H142.586L147.386 37.0004H151.226V53.0004H148.666V40.2004L148.698 39.8804H148.634L143.866 49.8004H140.506L135.738 39.8804H135.674L135.706 40.2004V53.0004H133.146ZM156.989 50.9524C155.495 49.3524 154.749 47.3684 154.749 45.0004C154.749 42.6324 155.495 40.6591 156.989 39.0804C158.482 37.4804 160.295 36.6804 162.429 36.6804C163.773 36.6804 164.903 36.9364 165.821 37.4484C166.759 37.9604 167.442 38.5151 167.869 39.1124L168.157 39.5924H168.189V37.0004H170.749V53.0004H168.189V50.4404H168.157L167.869 50.8884C167.485 51.4644 166.823 52.0191 165.885 52.5524C164.946 53.0644 163.794 53.3204 162.429 53.3204C160.295 53.3204 158.482 52.5311 156.989 50.9524ZM158.845 40.7444C157.821 41.8538 157.309 43.2724 157.309 45.0004C157.309 46.7284 157.821 48.1471 158.845 49.2564C159.89 50.3658 161.191 50.9204 162.749 50.9204C164.306 50.9204 165.597 50.3658 166.621 49.2564C167.666 48.1471 168.189 46.7284 168.189 45.0004C168.189 43.2724 167.666 41.8538 166.621 40.7444C165.597 39.6351 164.306 39.0804 162.749 39.0804C161.191 39.0804 159.89 39.6351 158.845 40.7444ZM173.16 39.4004V37.0004H186.92V39.4004H181.32V53.0004H178.76V39.4004H173.16ZM189.334 53.0004V37.0004H191.894V49.0004L191.862 49.3204H191.926L200.534 37.0004H203.414V53.0004H200.854V41.0004L200.886 40.6804H200.822L192.214 53.0004H189.334ZM207.896 53.0004V37.0004H210.456V43.4004H213.656L218.776 37.0004H221.816L215.896 44.5204L222.296 53.0004H219.096L213.656 45.8004H210.456V53.0004H207.896ZM225.364 50.9524C223.87 49.3524 223.124 47.3684 223.124 45.0004C223.124 42.6324 223.87 40.6591 225.364 39.0804C226.857 37.4804 228.67 36.6804 230.804 36.6804C232.148 36.6804 233.278 36.9364 234.196 37.4484C235.134 37.9604 235.817 38.5151 236.244 39.1124L236.532 39.5924H236.564V37.0004H239.124V53.0004H236.564V50.4404H236.532L236.244 50.8884C235.86 51.4644 235.198 52.0191 234.26 52.5524C233.321 53.0644 232.169 53.3204 230.804 53.3204C228.67 53.3204 226.857 52.5311 225.364 50.9524ZM227.22 40.7444C226.196 41.8538 225.684 43.2724 225.684 45.0004C225.684 46.7284 226.196 48.1471 227.22 49.2564C228.265 50.3658 229.566 50.9204 231.124 50.9204C232.681 50.9204 233.972 50.3658 234.996 49.2564C236.041 48.1471 236.564 46.7284 236.564 45.0004C236.564 43.2724 236.041 41.8538 234.996 40.7444C233.972 39.6351 232.681 39.0804 231.124 39.0804C229.566 39.0804 228.265 39.6351 227.22 40.7444Z" fill="black"/>
</g>
<defs>
<linearGradient id="paint0_linear_274_184" x1="-11" y1="121.321" x2="208" y2="119.738" gradientUnits="userSpaceOnUse">
<stop/>
<stop offset="0.915" stop-opacity="0"/>
</linearGradient>
</defs>
</svg>
