<svg width="335" height="162" viewBox="0 0 335 162" fill="none" xmlns="http://www.w3.org/2000/svg">
<mask id="mask0_274_627" style="mask-type:alpha" maskUnits="userSpaceOnUse" x="0" y="0" width="335" height="163">
<path d="M0 60.0004C0 31.7162 0 17.574 8.7868 8.78722C17.5736 0.000427246 31.7157 0.000427246 60 0.000427246H275C303.284 0.000427246 317.426 0.000427246 326.213 8.78722C335 17.574 335 31.7162 335 60.0004V102C335 130.285 335 144.427 326.213 153.214C317.426 162 303.284 162 275 162H60C31.7157 162 17.5736 162 8.7868 153.214C0 144.427 0 130.285 0 102V60.0004Z" fill="#F89745"/>
</mask>
<g mask="url(#mask0_274_627)">
<path d="M0 60.0004C0 31.7162 0 17.574 8.7868 8.78722C17.5736 0.000427246 31.7157 0.000427246 60 0.000427246H275C303.284 0.000427246 317.426 0.000427246 326.213 8.78722C335 17.574 335 31.7162 335 60.0004V102C335 130.285 335 144.427 326.213 153.214C317.426 162 303.284 162 275 162H60C31.7157 162 17.5736 162 8.7868 153.214C0 144.427 0 130.285 0 102V60.0004Z" fill="#B0BADE"/>
<mask id="path-3-inside-1_274_627" fill="white">
<path d="M-2.6 163V65.0004H52C64.4133 65.0004 74.26 68.4071 81.54 75.2204C88.9133 81.9404 92.6 90.6671 92.6 101.4C92.6 110.36 89.8 117.64 84.2 123.24C81.7733 125.854 78.9733 127.907 75.8 129.4L94 163H59L45 136.4H32.4V163H-2.6ZM32.4 109.8H47.8C50.6 109.8 52.7933 109.054 54.38 107.56C56.06 105.974 56.9 103.92 56.9 101.4C56.9 98.8804 56.06 96.8738 54.38 95.3804C52.7933 93.7938 50.6 93.0004 47.8 93.0004H32.4V109.8ZM101.038 130.1H136.038C136.598 132.247 137.485 134.02 138.698 135.42C141.405 138.874 145.418 140.6 150.738 140.6C157.738 140.6 161.238 138.734 161.238 135C161.238 133.88 160.818 132.9 159.978 132.06C159.138 131.127 157.738 130.287 155.778 129.54C153.818 128.794 151.998 128.187 150.318 127.72C148.638 127.16 146.212 126.507 143.038 125.76C139.492 124.92 136.552 124.174 134.218 123.52C131.885 122.774 128.992 121.794 125.538 120.58C122.085 119.274 119.238 117.874 116.998 116.38C114.758 114.794 112.518 112.927 110.278 110.78C108.132 108.54 106.498 105.927 105.378 102.94C104.352 99.9538 103.838 96.6404 103.838 93.0004C103.838 84.7871 107.805 77.6004 115.738 71.4404C123.765 65.2804 134.732 62.2004 148.638 62.2004C165.625 62.2004 178.412 67.7071 186.998 78.7204C190.638 83.4804 193.252 88.9404 194.838 95.1004H159.838C159.558 93.6071 158.952 92.3471 158.018 91.3204C156.058 88.7071 153.165 87.4004 149.338 87.4004C143.272 87.4004 140.238 89.0338 140.238 92.3004C140.238 93.7938 141.405 95.0071 143.738 95.9404C146.072 96.7804 149.898 97.7604 155.218 98.8804C158.392 99.6271 160.632 100.187 161.938 100.56C163.245 100.84 165.532 101.4 168.798 102.24C172.065 103.08 174.492 103.92 176.078 104.76C177.758 105.507 179.905 106.534 182.518 107.84C185.225 109.147 187.278 110.547 188.678 112.04C190.172 113.534 191.665 115.26 193.158 117.22C194.745 119.18 195.865 121.42 196.518 123.94C197.265 126.46 197.638 129.214 197.638 132.2C197.638 141.534 193.485 149.467 185.178 156C176.872 162.534 165.392 165.8 150.738 165.8C131.978 165.8 118.165 159.874 109.298 148.02C105.378 143.074 102.625 137.1 101.038 130.1Z"/>
</mask>
<path d="M-2.6 163H-2.85V163.25H-2.6V163ZM-2.6 65.0004V64.7504H-2.85V65.0004H-2.6ZM81.54 75.2204L81.3692 75.403L81.3716 75.4052L81.54 75.2204ZM84.2 123.24L84.0231 123.064L84.0168 123.07L84.2 123.24ZM75.8 129.4L75.6936 129.174L75.4542 129.287L75.5802 129.519L75.8 129.4ZM94 163V163.25H94.4197L94.2198 162.881L94 163ZM59 163L58.7788 163.117L58.8491 163.25H59V163ZM45 136.4L45.2212 136.284L45.1509 136.15H45V136.4ZM32.4 136.4V136.15H32.15V136.4H32.4ZM32.4 163V163.25H32.65V163H32.4ZM32.4 109.8H32.15V110.05H32.4V109.8ZM54.38 107.56L54.5513 107.742L54.5517 107.742L54.38 107.56ZM54.38 95.3804L54.2032 95.5572L54.2084 95.5624L54.2139 95.5673L54.38 95.3804ZM32.4 93.0004V92.7504H32.15V93.0004H32.4ZM-2.35 163V160.55H-2.85V163H-2.35ZM-2.35 155.65V150.75H-2.85V155.65H-2.35ZM-2.35 145.85V140.95H-2.85V145.85H-2.35ZM-2.35 136.05V131.15H-2.85V136.05H-2.35ZM-2.35 126.25V121.35H-2.85V126.25H-2.35ZM-2.35 116.45V111.55H-2.85V116.45H-2.35ZM-2.35 106.65V101.75H-2.85V106.65H-2.35ZM-2.35 96.8504V91.9504H-2.85V96.8504H-2.35ZM-2.35 87.0504V82.1504H-2.85V87.0504H-2.35ZM-2.35 77.2504V72.3504H-2.85V77.2504H-2.35ZM-2.35 67.4504V65.0004H-2.85V67.4504H-2.35ZM-2.6 65.2504H0.13V64.7504H-2.6V65.2504ZM5.59 65.2504H11.05V64.7504H5.59V65.2504ZM16.51 65.2504H21.97V64.7504H16.51V65.2504ZM27.43 65.2504H32.89V64.7504H27.43V65.2504ZM38.35 65.2504H43.81V64.7504H38.35V65.2504ZM49.27 65.2504H52V64.7504H49.27V65.2504ZM52 65.2504C52.9005 65.2504 53.7873 65.2684 54.6603 65.3044L54.6809 64.8048C53.8008 64.7685 52.9071 64.7504 52 64.7504V65.2504ZM59.9538 65.7653C61.7588 66.011 63.4968 66.3446 65.1677 66.7659L65.29 66.2811C63.6 65.855 61.8437 65.518 60.0213 65.2699L59.9538 65.7653ZM70.2172 68.3859C71.888 69.0472 73.4795 69.813 74.9917 70.6832L75.2411 70.2498C73.7073 69.3672 72.0939 68.591 70.4012 67.921L70.2172 68.3859ZM79.3665 73.6674C80.0545 74.2187 80.722 74.7973 81.3692 75.403L81.7108 75.0379C81.0544 74.4235 80.3772 73.8366 79.6792 73.2772L79.3665 73.6674ZM81.3716 75.4052C81.9761 75.9561 82.5555 76.5205 83.1099 77.0984L83.4707 76.7522C82.9084 76.1661 82.321 75.594 81.7084 75.0356L81.3716 75.4052ZM86.2061 80.825C87.1498 82.1476 87.9847 83.5292 88.7108 84.97L89.1573 84.745C88.4196 83.2813 87.5715 81.8778 86.6131 80.5346L86.2061 80.825ZM90.5561 89.4486C91.0503 90.9596 91.4425 92.5267 91.7325 94.1502L92.2247 94.0623C91.9307 92.4168 91.533 90.827 91.0314 89.2931L90.5561 89.4486ZM92.2848 98.9708C92.3283 99.7687 92.35 100.579 92.35 101.4H92.85C92.85 100.57 92.828 99.7508 92.7841 98.9436L92.2848 98.9708ZM92.35 101.4C92.35 102.418 92.3137 103.413 92.2411 104.386L92.7397 104.423C92.8133 103.437 92.85 102.43 92.85 101.4H92.35ZM91.2929 110.27C90.787 112.24 90.0996 114.1 89.2311 115.85L89.6789 116.072C90.5636 114.29 91.263 112.397 91.7772 110.394L91.2929 110.27ZM86.0176 120.851C85.3984 121.616 84.7336 122.353 84.0232 123.064L84.3768 123.417C85.0993 122.695 85.7758 121.944 86.4062 121.166L86.0176 120.851ZM84.0168 123.07C83.422 123.711 82.8046 124.317 82.1648 124.89L82.4982 125.263C83.1497 124.68 83.778 124.062 84.3832 123.411L84.0168 123.07ZM77.9863 127.958C77.2454 128.398 76.4811 128.804 75.6936 129.174L75.9064 129.627C76.7084 129.249 77.4868 128.836 78.2416 128.388L77.9863 127.958ZM75.5802 129.519L76.7177 131.619L77.1573 131.381L76.0198 129.281L75.5802 129.519ZM78.9927 135.819L81.2677 140.02L81.7073 139.781L79.4323 135.581L78.9927 135.819ZM83.5427 144.219L85.8177 148.42L86.2573 148.181L83.9823 143.981L83.5427 144.219ZM88.0927 152.619L90.3677 156.819L90.8073 156.581L88.5323 152.381L88.0927 152.619ZM92.6427 161.02L93.7802 163.119L94.2198 162.881L93.0823 160.781L92.6427 161.02ZM94 162.75H91.8125V163.25H94V162.75ZM87.4375 162.75H83.0625V163.25H87.4375V162.75ZM78.6875 162.75H74.3125V163.25H78.6875V162.75ZM69.9375 162.75H65.5625V163.25H69.9375V162.75ZM61.1875 162.75H59V163.25H61.1875V162.75ZM59.2212 162.884L58.0546 160.667L57.6121 160.9L58.7788 163.117L59.2212 162.884ZM55.7212 156.234L53.3879 151.801L52.9454 152.034L55.2788 156.467L55.7212 156.234ZM51.0546 147.367L48.7212 142.934L48.2788 143.167L50.6121 147.6L51.0546 147.367ZM46.3879 138.501L45.2212 136.284L44.7788 136.517L45.9454 138.734L46.3879 138.501ZM45 136.15H41.85V136.65H45V136.15ZM35.55 136.15H32.4V136.65H35.55V136.15ZM32.15 136.4V138.617H32.65V136.4H32.15ZM32.15 143.05V147.484H32.65V143.05H32.15ZM32.15 151.917V156.35H32.65V151.917H32.15ZM32.15 160.784V163H32.65V160.784H32.15ZM32.4 162.75H30.2125V163.25H32.4V162.75ZM25.8375 162.75H21.4625V163.25H25.8375V162.75ZM17.0875 162.75H12.7125V163.25H17.0875V162.75ZM8.3375 162.75H3.9625V163.25H8.3375V162.75ZM-0.412499 162.75H-2.6V163.25H-0.412499V162.75ZM32.65 109.8V107.7H32.15V109.8H32.65ZM32.65 103.5V99.3004H32.15V103.5H32.65ZM32.65 95.1004V93.0004H32.15V95.1004H32.65ZM32.4 93.2504H34.325V92.7504H32.4V93.2504ZM38.175 93.2504H42.025V92.7504H38.175V93.2504ZM45.875 93.2504H47.8V92.7504H45.875V93.2504ZM47.8 93.2504C48.4173 93.2504 49.0029 93.2896 49.5571 93.3676L49.6268 92.8725C49.0474 92.791 48.4384 92.7504 47.8 92.7504V93.2504ZM52.8402 94.4871C53.3368 94.7885 53.7911 95.1451 54.2032 95.5572L54.5568 95.2037C54.1164 94.7633 53.6305 94.3818 53.0995 94.0597L52.8402 94.4871ZM54.2139 95.5673C54.6307 95.9378 54.9932 96.34 55.3019 96.7739L55.7093 96.484C55.3778 96.0182 54.9899 95.588 54.5461 95.1936L54.2139 95.5673ZM56.5169 99.7655C56.6054 100.282 56.65 100.826 56.65 101.4H57.15C57.15 100.801 57.1034 100.227 57.0097 99.6809L56.5169 99.7655ZM56.65 101.4C56.65 101.982 56.6042 102.537 56.5133 103.064L57.006 103.149C57.1022 102.591 57.15 102.008 57.15 101.4H56.65ZM55.2898 106.122C54.9823 106.569 54.622 106.988 54.2083 107.379L54.5517 107.742C54.9898 107.328 55.3734 106.883 55.7018 106.405L55.2898 106.122ZM54.2087 107.378C53.7914 107.771 53.3307 108.11 52.826 108.397L53.0726 108.832C53.6116 108.526 54.1047 108.163 54.5513 107.742L54.2087 107.378ZM49.5441 109.442C48.9936 109.514 48.4123 109.55 47.8 109.55V110.05C48.432 110.05 49.0351 110.013 49.6091 109.938L49.5441 109.442ZM47.8 109.55H45.875V110.05H47.8V109.55ZM42.025 109.55H38.175V110.05H42.025V109.55ZM34.325 109.55H32.4V110.05H34.325V109.55ZM-2.6 163H-3.1V163.5H-2.6V163ZM-2.6 65.0004V64.5004H-3.1V65.0004H-2.6ZM81.54 75.2204L81.1983 75.5855L81.2032 75.59L81.54 75.2204ZM84.2 123.24L83.8465 122.887L83.8399 122.893L83.8336 122.9L84.2 123.24ZM75.8 129.4L75.5871 128.948L75.1083 129.173L75.3604 129.639L75.8 129.4ZM94 163V163.5H94.8395L94.4397 162.762L94 163ZM59 163L58.5575 163.233L58.6981 163.5H59V163ZM45 136.4L45.4425 136.168L45.3019 135.9H45V136.4ZM32.4 136.4V135.9H31.9V136.4H32.4ZM32.4 163V163.5H32.9V163H32.4ZM32.4 109.8H31.9V110.3H32.4V109.8ZM54.38 107.56L54.7227 107.925L54.7233 107.924L54.38 107.56ZM54.38 95.3804L54.0265 95.734L54.0368 95.7444L54.0478 95.7541L54.38 95.3804ZM32.4 93.0004V92.5004H31.9V93.0004H32.4ZM-2.1 163V160.55H-3.1V163H-2.1ZM-2.1 155.65V150.75H-3.1V155.65H-2.1ZM-2.1 145.85V140.95H-3.1V145.85H-2.1ZM-2.1 136.05V131.15H-3.1V136.05H-2.1ZM-2.1 126.25V121.35H-3.1V126.25H-2.1ZM-2.1 116.45V111.55H-3.1V116.45H-2.1ZM-2.1 106.65V101.75H-3.1V106.65H-2.1ZM-2.1 96.8504V91.9504H-3.1V96.8504H-2.1ZM-2.1 87.0504V82.1504H-3.1V87.0504H-2.1ZM-2.1 77.2504V72.3504H-3.1V77.2504H-2.1ZM-2.1 67.4504V65.0004H-3.1V67.4504H-2.1ZM-2.6 65.5004H0.13V64.5004H-2.6V65.5004ZM5.59 65.5004H11.05V64.5004H5.59V65.5004ZM16.51 65.5004H21.97V64.5004H16.51V65.5004ZM27.43 65.5004H32.89V64.5004H27.43V65.5004ZM38.35 65.5004H43.81V64.5004H38.35V65.5004ZM49.27 65.5004H52V64.5004H49.27V65.5004ZM52 65.5004C52.8972 65.5004 53.7805 65.5183 54.65 65.5542L54.6912 64.555C53.8075 64.5186 52.9105 64.5004 52 64.5004V65.5004ZM59.9201 66.013C61.7164 66.2575 63.4452 66.5894 65.1066 67.0084L65.3511 66.0387C63.6516 65.6102 61.8861 65.2714 60.055 65.0222L59.9201 66.013ZM70.1252 68.6184C71.7851 69.2754 73.3656 70.0359 74.867 70.8999L75.3658 70.0331C73.8212 69.1443 72.1969 68.3629 70.4932 67.6886L70.1252 68.6184ZM79.2102 73.8624C79.8931 74.4098 80.5558 74.9841 81.1983 75.5855L81.8817 74.8554C81.2206 74.2367 80.5385 73.6456 79.8356 73.0821L79.2102 73.8624ZM81.2032 75.59C81.8036 76.1372 82.3791 76.6977 82.9295 77.2714L83.6511 76.5791C83.0849 75.9889 82.4934 75.4129 81.8768 74.8509L81.2032 75.59ZM86.0026 80.9702C86.9389 82.2825 87.7672 83.6532 88.4876 85.0825L89.3806 84.6325C88.6371 83.1573 87.7824 81.7429 86.8166 80.3894L86.0026 80.9702ZM90.3185 89.5263C90.8089 91.0259 91.1983 92.5817 91.4864 94.1942L92.4708 94.0183C92.1749 92.3618 91.7743 90.7607 91.269 89.2154L90.3185 89.5263ZM92.0352 98.9844C92.0784 99.7776 92.1 100.583 92.1 101.4H93.1C93.1 100.565 93.0779 99.7419 93.0337 98.9301L92.0352 98.9844ZM92.1 101.4C92.1 102.412 92.0639 103.401 91.9918 104.368L92.989 104.442C93.063 103.45 93.1 102.436 93.1 101.4H92.1ZM91.0508 110.208C90.549 112.162 89.8676 114.005 89.0071 115.739L89.9029 116.183C90.7956 114.384 91.5009 112.475 92.0194 110.457L91.0508 110.208ZM85.8233 120.694C85.2097 121.451 84.5508 122.182 83.8465 122.887L84.5536 123.594C85.2821 122.865 85.9644 122.109 86.6004 121.323L85.8233 120.694ZM83.8336 122.9C83.2439 123.535 82.6321 124.136 81.9981 124.704L82.6649 125.449C83.3223 124.861 83.9561 124.238 84.5664 123.581L83.8336 122.9ZM77.8586 127.743C77.1246 128.179 76.3675 128.581 75.5871 128.948L76.0129 129.853C76.822 129.472 77.6075 129.055 78.3693 128.603L77.8586 127.743ZM75.3604 129.639L76.4979 131.739L77.3771 131.262L76.2396 129.162L75.3604 129.639ZM78.7729 135.939L81.0479 140.139L81.9271 139.662L79.6521 135.462L78.7729 135.939ZM83.3229 144.339L85.5979 148.539L86.4771 148.062L84.2021 143.862L83.3229 144.339ZM87.8729 152.739L90.1479 156.939L91.0272 156.462L88.7522 152.262L87.8729 152.739ZM92.4229 161.139L93.5604 163.239L94.4397 162.762L93.3022 160.662L92.4229 161.139ZM94 162.5H91.8125V163.5H94V162.5ZM87.4375 162.5H83.0625V163.5H87.4375V162.5ZM78.6875 162.5H74.3125V163.5H78.6875V162.5ZM69.9375 162.5H65.5625V163.5H69.9375V162.5ZM61.1875 162.5H59V163.5H61.1875V162.5ZM59.4425 162.768L58.2758 160.551L57.3909 161.017L58.5575 163.233L59.4425 162.768ZM55.9425 156.118L53.6091 151.684L52.7242 152.15L55.0575 156.583L55.9425 156.118ZM51.2758 147.251L48.9425 142.818L48.0575 143.283L50.3909 147.717L51.2758 147.251ZM46.6091 138.384L45.4425 136.168L44.5575 136.633L45.7242 138.85L46.6091 138.384ZM45 135.9H41.85V136.9H45V135.9ZM35.55 135.9H32.4V136.9H35.55V135.9ZM31.9 136.4V138.617H32.9V136.4H31.9ZM31.9 143.05V147.484H32.9V143.05H31.9ZM31.9 151.917V156.35H32.9V151.917H31.9ZM31.9 160.784V163H32.9V160.784H31.9ZM32.4 162.5H30.2125V163.5H32.4V162.5ZM25.8375 162.5H21.4625V163.5H25.8375V162.5ZM17.0875 162.5H12.7125V163.5H17.0875V162.5ZM8.3375 162.5H3.9625V163.5H8.3375V162.5ZM-0.412499 162.5H-2.6V163.5H-0.412499V162.5ZM32.9 109.8V107.7H31.9V109.8H32.9ZM32.9 103.5V99.3004H31.9V103.5H32.9ZM32.9 95.1004V93.0004H31.9V95.1004H32.9ZM32.4 93.5004H34.325V92.5004H32.4V93.5004ZM38.175 93.5004H42.025V92.5004H38.175V93.5004ZM45.875 93.5004H47.8V92.5004H45.875V93.5004ZM47.8 93.5004C48.4067 93.5004 48.9806 93.539 49.5222 93.6152L49.6616 92.625C49.0696 92.5416 48.4489 92.5004 47.8 92.5004V93.5004ZM52.7105 94.7009C53.19 94.9918 53.6284 95.336 54.0265 95.734L54.7336 95.0269C54.279 94.5724 53.7774 94.1785 53.2292 93.8459L52.7105 94.7009ZM54.0478 95.7541C54.4512 96.1127 54.8009 96.5009 55.0982 96.9188L55.913 96.3391C55.5701 95.8572 55.1694 95.4132 54.7122 95.0067L54.0478 95.7541ZM56.2705 99.8077C56.3564 100.309 56.4 100.839 56.4 101.4H57.4C57.4 100.788 57.3524 100.2 57.2561 99.6387L56.2705 99.8077ZM56.4 101.4C56.4 101.969 56.3553 102.509 56.2669 103.022L57.2524 103.192C57.3511 102.619 57.4 102.021 57.4 101.4H56.4ZM55.0838 105.98C54.7868 106.412 54.4381 106.818 54.0367 107.197L54.7233 107.924C55.1738 107.499 55.569 107.04 55.9078 106.547L55.0838 105.98ZM54.0373 107.196C53.6348 107.575 53.1902 107.903 52.7027 108.179L53.1959 109.049C53.7521 108.734 54.2613 108.359 54.7227 107.925L54.0373 107.196ZM49.5116 109.194C48.9729 109.265 48.4025 109.3 47.8 109.3V110.3C48.4418 110.3 49.0558 110.262 49.6416 110.186L49.5116 109.194ZM47.8 109.3H45.875V110.3H47.8V109.3ZM42.025 109.3H38.175V110.3H42.025V109.3ZM34.325 109.3H32.4V110.3H34.325V109.3ZM101.038 130.1V129.85H100.725L100.794 130.156L101.038 130.1ZM136.038 130.1L136.28 130.037L136.231 129.85H136.038V130.1ZM138.698 135.42L138.895 135.266L138.887 135.257L138.698 135.42ZM159.978 132.06L159.792 132.228L159.802 132.237L159.978 132.06ZM155.778 129.54L155.867 129.307L155.778 129.54ZM150.318 127.72L150.239 127.958L150.251 127.961L150.318 127.72ZM143.038 125.76L142.981 126.004L142.981 126.004L143.038 125.76ZM134.218 123.52L134.142 123.759L134.151 123.761L134.218 123.52ZM125.538 120.58L125.45 120.814L125.455 120.816L125.538 120.58ZM116.998 116.38L116.854 116.585L116.86 116.588L116.998 116.38ZM110.278 110.78L110.098 110.954L110.105 110.961L110.278 110.78ZM105.378 102.94L105.142 103.022L105.144 103.028L105.378 102.94ZM115.738 71.4404L115.586 71.2421L115.585 71.243L115.738 71.4404ZM186.998 78.7204L187.197 78.5686L187.195 78.5667L186.998 78.7204ZM194.838 95.1004V95.3504H195.161L195.08 95.0381L194.838 95.1004ZM159.838 95.1004L159.593 95.1465L159.631 95.3504H159.838V95.1004ZM158.018 91.3204L157.818 91.4704L157.825 91.4799L157.833 91.4886L158.018 91.3204ZM143.738 95.9404L143.645 96.1727L143.654 96.1756L143.738 95.9404ZM155.218 98.8804L155.276 98.637L155.27 98.6358L155.218 98.8804ZM161.938 100.56L161.87 100.801L161.878 100.803L161.886 100.805L161.938 100.56ZM168.798 102.24L168.736 102.483L168.798 102.24ZM176.078 104.76L175.961 104.981L175.969 104.985L175.977 104.989L176.078 104.76ZM182.518 107.84L182.406 108.064L182.41 108.066L182.518 107.84ZM188.678 112.04L188.496 112.211L188.502 112.217L188.678 112.04ZM193.158 117.22L192.959 117.372L192.964 117.378L193.158 117.22ZM196.518 123.94L196.276 124.003L196.279 124.011L196.518 123.94ZM185.178 156L185.333 156.197L185.178 156ZM109.298 148.02L109.499 147.871L109.494 147.865L109.298 148.02ZM100.794 130.156C100.981 130.978 101.183 131.786 101.402 132.58L101.884 132.447C101.667 131.661 101.467 130.86 101.282 130.045L100.794 130.156ZM102.963 137.328C103.576 138.911 104.263 140.43 105.024 141.884L105.467 141.652C104.715 140.215 104.036 138.714 103.429 137.147L102.963 137.328ZM107.612 146.165C108.088 146.853 108.585 147.523 109.102 148.176L109.494 147.865C108.984 147.221 108.493 146.559 108.023 145.88L107.612 146.165ZM109.098 148.17C109.572 148.803 110.059 149.42 110.561 150.019L110.945 149.698C110.449 149.106 109.967 148.497 109.498 147.871L109.098 148.17ZM113.784 153.457C114.925 154.542 116.124 155.557 117.381 156.502L117.682 156.103C116.439 155.169 115.255 154.167 114.129 153.095L113.784 153.457ZM121.305 159.113C122.646 159.899 124.042 160.618 125.493 161.27L125.698 160.814C124.263 160.169 122.883 159.458 121.558 158.682L121.305 159.113ZM129.88 162.983C131.341 163.472 132.85 163.903 134.408 164.275L134.524 163.789C132.98 163.42 131.485 162.993 130.039 162.509L129.88 162.983ZM139.025 165.185C140.54 165.424 142.096 165.613 143.693 165.753L143.737 165.255C142.151 165.116 140.606 164.928 139.103 164.691L139.025 165.185ZM148.385 166.019C149.161 166.04 149.945 166.05 150.738 166.05V165.55C149.95 165.55 149.17 165.54 148.399 165.519L148.385 166.019ZM150.738 166.05C151.51 166.05 152.272 166.041 153.026 166.023L153.014 165.523C152.264 165.541 151.506 165.55 150.738 165.55V166.05ZM157.593 165.795C159.15 165.675 160.666 165.512 162.141 165.307L162.072 164.812C160.608 165.016 159.102 165.177 157.554 165.297L157.593 165.795ZM166.651 164.52C168.179 164.196 169.659 163.82 171.089 163.392L170.945 162.913C169.529 163.336 168.063 163.709 166.547 164.031L166.651 164.52ZM175.413 161.88C176.857 161.296 178.243 160.651 179.569 159.944L179.334 159.503C178.024 160.201 176.654 160.839 175.226 161.416L175.413 161.88ZM183.487 157.56C184.118 157.122 184.734 156.668 185.333 156.197L185.024 155.804C184.433 156.269 183.826 156.717 183.202 157.149L183.487 157.56ZM185.333 156.197C185.956 155.707 186.555 155.209 187.132 154.704L186.802 154.328C186.232 154.827 185.64 155.319 185.024 155.804L185.333 156.197ZM190.455 151.417C191.52 150.22 192.471 148.984 193.308 147.708L192.889 147.434C192.067 148.688 191.131 149.905 190.081 151.084L190.455 151.417ZM195.549 143.598C196.181 142.163 196.685 140.686 197.061 139.165L196.576 139.045C196.207 140.538 195.712 141.988 195.091 143.396L195.549 143.598ZM197.8 134.541C197.859 133.771 197.888 132.99 197.888 132.2H197.388C197.388 132.978 197.359 133.746 197.301 134.503L197.8 134.541ZM197.888 132.2C197.888 131.486 197.867 130.784 197.825 130.095L197.326 130.126C197.367 130.804 197.388 131.496 197.388 132.2H197.888ZM197.273 125.917C197.127 125.218 196.955 124.536 196.758 123.869L196.279 124.011C196.472 124.664 196.64 125.334 196.783 126.019L197.273 125.917ZM196.76 123.878C196.598 123.251 196.407 122.641 196.187 122.048L195.718 122.222C195.932 122.799 196.118 123.392 196.276 124.003L196.76 123.878ZM194.478 118.618C194.133 118.082 193.758 117.563 193.353 117.063L192.964 117.378C193.358 117.864 193.722 118.368 194.057 118.888L194.478 118.618ZM193.357 117.069C193.003 116.605 192.65 116.153 192.296 115.715L191.907 116.029C192.257 116.464 192.608 116.911 192.959 117.372L193.357 117.069ZM190.049 113.107C189.651 112.676 189.253 112.262 188.855 111.864L188.502 112.217C188.895 112.61 189.288 113.02 189.681 113.446L190.049 113.107ZM188.861 111.869C188.448 111.429 187.981 110.998 187.46 110.576L187.145 110.965C187.65 111.374 188.1 111.79 188.496 112.211L188.861 111.869ZM184.304 108.483C183.775 108.189 183.216 107.9 182.627 107.615L182.41 108.066C182.991 108.346 183.542 108.631 184.061 108.92L184.304 108.483ZM182.63 107.617C182.076 107.34 181.542 107.075 181.029 106.823L180.809 107.271C181.32 107.523 181.853 107.787 182.406 108.064L182.63 107.617ZM177.807 105.275C177.224 105.002 176.681 104.755 176.18 104.532L175.977 104.989C176.475 105.21 177.015 105.457 177.596 105.728L177.807 105.275ZM176.195 104.539C175.684 104.269 175.09 103.999 174.414 103.731L174.23 104.196C174.893 104.459 175.47 104.721 175.961 104.981L176.195 104.539ZM170.73 102.505C170.141 102.336 169.517 102.167 168.861 101.998L168.736 102.483C169.389 102.65 170.008 102.818 170.592 102.986L170.73 102.505ZM168.861 101.998C168.256 101.843 167.686 101.697 167.149 101.561L167.026 102.046C167.562 102.182 168.132 102.327 168.736 102.483L168.861 101.998ZM163.717 100.711C163.024 100.546 162.448 100.414 161.991 100.316L161.886 100.805C162.338 100.902 162.91 101.033 163.601 101.198L163.717 100.711ZM162.007 100.32C161.556 100.191 160.997 100.041 160.328 99.8687L160.204 100.353C160.869 100.524 161.425 100.674 161.87 100.801L162.007 100.32ZM156.962 99.0373C156.432 98.9104 155.87 98.777 155.276 98.6371L155.161 99.1238C155.755 99.2636 156.316 99.3968 156.845 99.5235L156.962 99.0373ZM155.27 98.6358C154.25 98.4211 153.285 98.2116 152.376 98.0072L152.266 98.4951C153.178 98.7 154.145 98.91 155.167 99.1251L155.27 98.6358ZM146.633 96.5854C145.529 96.2757 144.593 95.9822 143.823 95.7052L143.654 96.1756C144.438 96.458 145.386 96.755 146.498 97.0668L146.633 96.5854ZM143.831 95.7083C143.391 95.5322 142.995 95.3469 142.644 95.1527L142.402 95.5904C142.774 95.7961 143.189 95.99 143.645 96.1725L143.831 95.7083ZM140.784 93.4701C140.586 93.1029 140.488 92.7142 140.488 92.3004H139.988C139.988 92.7974 140.107 93.2674 140.344 93.707L140.784 93.4701ZM140.488 92.3004C140.488 91.2973 140.788 90.4721 141.379 89.8076L141.005 89.4754C140.324 90.2413 139.988 91.1887 139.988 92.3004H140.488ZM146.479 87.7968C147.339 87.6994 148.292 87.6504 149.338 87.6504V87.1504C148.276 87.1504 147.304 87.2001 146.422 87.3L146.479 87.7968ZM149.338 87.6504C150.195 87.6504 151.002 87.7169 151.76 87.8492L151.846 87.3567C151.057 87.2189 150.221 87.1504 149.338 87.1504V87.6504ZM156.145 89.7432C156.763 90.232 157.321 90.8074 157.818 91.4704L158.218 91.1704C157.696 90.4746 157.109 89.8678 156.455 89.351L156.145 89.7432ZM157.833 91.4886C158.064 91.7429 158.275 92.0119 158.464 92.2957L158.88 92.018C158.677 91.7134 158.451 91.4248 158.203 91.1523L157.833 91.4886ZM159.343 94.1451C159.444 94.4652 159.527 94.799 159.593 95.1465L160.084 95.0544C160.015 94.6881 159.927 94.3348 159.82 93.9946L159.343 94.1451ZM159.838 95.3504H162.026V94.8504H159.838V95.3504ZM166.401 95.3504H170.776V94.8504H166.401V95.3504ZM175.151 95.3504H179.526V94.8504H175.151V95.3504ZM183.901 95.3504H188.276V94.8504H183.901V95.3504ZM192.651 95.3504H194.838V94.8504H192.651V95.3504ZM195.08 95.0381C194.888 94.291 194.68 93.5541 194.458 92.8274L193.98 92.9738C194.2 93.6932 194.406 94.4229 194.596 95.1628L195.08 95.0381ZM192.907 88.5041C192.315 87.0765 191.658 85.6932 190.936 84.3543L190.496 84.5917C191.21 85.9155 191.86 87.2834 192.445 88.6956L192.907 88.5041ZM188.544 80.4305C188.112 79.7984 187.663 79.1778 187.197 78.5686L186.8 78.8723C187.26 79.4745 187.704 80.088 188.132 80.7128L188.544 80.4305ZM187.195 78.5667C186.633 77.8449 186.052 77.1466 185.453 76.4716L185.079 76.8035C185.671 77.4704 186.245 78.1606 186.801 78.8741L187.195 78.5667ZM181.576 72.6447C180.199 71.4568 178.745 70.3677 177.217 69.3776L176.945 69.7973C178.454 70.775 179.889 71.8503 181.25 73.0233L181.576 72.6447ZM172.457 66.7287C170.841 65.9636 169.155 65.2905 167.4 64.7093L167.242 65.1839C168.979 65.7589 170.646 66.4245 172.243 67.1806L172.457 66.7287ZM162.146 63.2882C160.415 62.9175 158.626 62.6239 156.78 62.4073L156.721 62.9039C158.553 63.1188 160.327 63.4098 162.041 63.7771L162.146 63.2882ZM151.358 61.9986C150.464 61.9665 149.557 61.9504 148.638 61.9504V62.4504C149.551 62.4504 150.452 62.4664 151.34 62.4983L151.358 61.9986ZM148.638 61.9504C147.654 61.9504 146.685 61.9658 145.73 61.9966L145.746 62.4963C146.695 62.4657 147.659 62.4504 148.638 62.4504V61.9504ZM139.928 62.3918C137.938 62.6037 136.02 62.892 134.174 63.2568L134.271 63.7473C136.101 63.3856 138.005 63.0994 139.981 62.889L139.928 62.3918ZM128.526 64.6812C126.62 65.2756 124.805 65.9673 123.083 66.7564L123.291 67.211C124.993 66.4312 126.788 65.747 128.675 65.1585L128.526 64.6812ZM117.97 69.5583C117.149 70.0915 116.354 70.6528 115.586 71.2421L115.89 71.6387C116.648 71.0575 117.432 70.5038 118.242 69.9776L117.97 69.5583ZM115.585 71.243C115.011 71.6889 114.457 72.1403 113.924 72.5972L114.249 72.9769C114.776 72.5254 115.323 72.0791 115.892 71.6379L115.585 71.243ZM110.826 75.5588C109.819 76.6409 108.917 77.7511 108.12 78.8894L108.529 79.1763C109.313 78.058 110.2 76.9657 111.192 75.8994L110.826 75.5588ZM105.943 82.5926C105.314 83.9014 104.811 85.2433 104.434 86.6182L104.916 86.7505C105.285 85.4051 105.777 84.0914 106.393 82.8092L105.943 82.5926ZM103.68 90.8511C103.619 91.5598 103.588 92.2763 103.588 93.0004H104.088C104.088 92.2903 104.118 91.5882 104.178 90.894L103.68 90.8511ZM103.588 93.0004C103.588 93.8657 103.617 94.713 103.675 95.5422L104.174 95.5075C104.117 94.6903 104.088 93.8546 104.088 93.0004H103.588ZM104.431 100.574C104.632 101.412 104.869 102.228 105.142 103.022L105.615 102.859C105.347 102.081 105.115 101.281 104.918 100.457L104.431 100.574ZM105.144 103.028C105.423 103.771 105.732 104.49 106.074 105.187L106.523 104.967C106.189 104.285 105.885 103.58 105.612 102.853L105.144 103.028ZM108.559 109.174C109.04 109.791 109.552 110.384 110.098 110.953L110.459 110.607C109.925 110.051 109.424 109.47 108.954 108.867L108.559 109.174ZM110.105 110.961C110.642 111.475 111.179 111.973 111.715 112.456L112.049 112.084C111.517 111.605 110.984 111.111 110.451 110.6L110.105 110.961ZM115.087 115.275C115.676 115.731 116.265 116.167 116.854 116.584L117.143 116.176C116.56 115.763 115.976 115.331 115.393 114.88L115.087 115.275ZM116.86 116.588C117.496 117.013 118.181 117.429 118.913 117.838L119.156 117.401C118.435 116.998 117.762 116.589 117.137 116.172L116.86 116.588ZM123.227 119.925C123.938 120.226 124.679 120.523 125.45 120.814L125.627 120.347C124.862 120.057 124.127 119.763 123.422 119.465L123.227 119.925ZM125.455 120.816C126.203 121.079 126.925 121.331 127.62 121.572L127.783 121.099C127.089 120.859 126.368 120.607 125.621 120.345L125.455 120.816ZM131.962 123.047C132.736 123.304 133.463 123.541 134.142 123.759L134.294 123.282C133.617 123.065 132.892 122.829 132.119 122.573L131.962 123.047ZM134.151 123.761C134.833 123.952 135.566 124.151 136.35 124.357L136.477 123.874C135.695 123.668 134.965 123.47 134.286 123.28L134.151 123.761ZM140.767 125.472C141.476 125.645 142.214 125.822 142.981 126.004L143.096 125.517C142.331 125.336 141.594 125.159 140.885 124.986L140.767 125.472ZM142.981 126.004C143.622 126.155 144.232 126.302 144.812 126.445L144.932 125.959C144.35 125.816 143.738 125.668 143.096 125.517L142.981 126.004ZM148.447 127.406C149.119 127.599 149.716 127.783 150.239 127.958L150.397 127.483C149.866 127.306 149.262 127.12 148.586 126.926L148.447 127.406ZM150.251 127.961C150.699 128.086 151.157 128.22 151.625 128.365L151.773 127.887C151.3 127.741 150.838 127.605 150.385 127.48L150.251 127.961ZM154.344 129.276C154.785 129.434 155.233 129.6 155.689 129.774L155.867 129.307C155.408 129.132 154.957 128.965 154.513 128.805L154.344 129.276ZM155.689 129.774C156.089 129.926 156.465 130.082 156.816 130.242L157.023 129.787C156.661 129.622 156.276 129.462 155.867 129.307L155.689 129.774ZM158.911 131.438C159.257 131.696 159.551 131.959 159.792 132.228L160.164 131.893C159.897 131.596 159.578 131.311 159.209 131.037L158.911 131.438ZM159.802 132.237C159.993 132.429 160.16 132.627 160.304 132.831L160.713 132.543C160.552 132.314 160.365 132.094 160.155 131.884L159.802 132.237ZM160.914 134.233C160.963 134.479 160.988 134.735 160.988 135H161.488C161.488 134.704 161.46 134.415 161.404 134.134L160.914 134.233ZM160.988 135C160.988 136.16 160.636 137.116 159.941 137.885L160.312 138.22C161.099 137.35 161.488 136.271 161.488 135H160.988ZM154.033 140.184C153.042 140.295 151.943 140.35 150.738 140.35V140.85C151.958 140.85 153.076 140.794 154.089 140.681L154.033 140.184ZM150.738 140.35C149.556 140.35 148.44 140.264 147.392 140.092L147.311 140.586C148.389 140.762 149.531 140.85 150.738 140.85V140.35ZM141.267 137.596C140.388 136.938 139.597 136.162 138.895 135.266L138.502 135.575C139.23 136.504 140.052 137.311 140.967 137.996L141.267 137.596ZM138.887 135.257C138.572 134.893 138.278 134.502 138.008 134.086L137.588 134.358C137.871 134.794 138.178 135.202 138.509 135.584L138.887 135.257ZM136.716 131.449C136.553 130.999 136.408 130.528 136.28 130.037L135.796 130.164C135.928 130.668 136.078 131.153 136.245 131.618L136.716 131.449ZM136.038 129.85H133.851V130.35H136.038V129.85ZM129.476 129.85H125.101V130.35H129.476V129.85ZM120.726 129.85H116.351V130.35H120.726V129.85ZM111.976 129.85H107.601V130.35H111.976V129.85ZM103.226 129.85H101.038V130.35H103.226V129.85ZM101.038 130.1V129.6H100.412L100.551 130.211L101.038 130.1ZM136.038 130.1L136.522 129.974L136.425 129.6H136.038V130.1ZM138.698 135.42L139.092 135.112L139.084 135.102L139.076 135.093L138.698 135.42ZM159.978 132.06L159.607 132.395L159.615 132.405L159.625 132.414L159.978 132.06ZM155.778 129.54L155.956 129.073L155.778 129.54ZM150.318 127.72L150.16 128.195L150.172 128.199L150.184 128.202L150.318 127.72ZM143.038 125.76L142.923 126.247L142.924 126.247L143.038 125.76ZM134.218 123.52L134.066 123.997L134.075 123.999L134.083 124.002L134.218 123.52ZM125.538 120.58L125.361 121.048L125.373 121.052L125.538 120.58ZM116.998 116.38L116.709 116.788L116.715 116.793L116.721 116.796L116.998 116.38ZM110.278 110.78L109.917 111.126L109.925 111.134L109.932 111.141L110.278 110.78ZM105.378 102.94L104.905 103.103L104.91 103.116L105.378 102.94ZM115.738 71.4404L115.434 71.0438L115.432 71.0455L115.738 71.4404ZM186.998 78.7204L187.395 78.4167L187.393 78.413L186.998 78.7204ZM194.838 95.1004V95.6004H195.483L195.322 94.9757L194.838 95.1004ZM159.838 95.1004L159.347 95.1926L159.423 95.6004H159.838V95.1004ZM158.018 91.3204L157.618 91.6204L157.632 91.6393L157.648 91.6568L158.018 91.3204ZM143.738 95.9404L143.553 96.4047L143.561 96.4079L143.569 96.4109L143.738 95.9404ZM155.218 98.8804L155.333 98.3936L155.321 98.3911L155.218 98.8804ZM161.938 100.56L161.801 101.041L161.817 101.046L161.834 101.049L161.938 100.56ZM168.798 102.24L168.674 102.725L168.798 102.24ZM176.078 104.76L175.844 105.202L175.86 105.21L175.875 105.217L176.078 104.76ZM182.518 107.84L182.295 108.288L182.301 108.291L182.518 107.84ZM188.678 112.04L188.314 112.382L188.319 112.388L188.325 112.394L188.678 112.04ZM193.158 117.22L192.761 117.523L192.765 117.529L192.77 117.535L193.158 117.22ZM196.518 123.94L196.034 124.066L196.036 124.074L196.039 124.082L196.518 123.94ZM185.178 156L185.487 156.393L185.178 156ZM109.298 148.02L109.699 147.721L109.69 147.71L109.298 148.02ZM100.551 130.211C100.738 131.037 100.941 131.848 101.161 132.646L102.125 132.381C101.909 131.598 101.71 130.801 101.526 129.99L100.551 130.211ZM102.73 137.418C103.346 139.01 104.037 140.537 104.803 142L105.689 141.536C104.941 140.108 104.265 138.615 103.663 137.057L102.73 137.418ZM107.406 146.307C107.886 147 108.386 147.674 108.906 148.331L109.69 147.71C109.183 147.07 108.696 146.413 108.228 145.738L107.406 146.307ZM108.898 148.32C109.374 148.957 109.865 149.577 110.369 150.18L111.136 149.538C110.643 148.949 110.164 148.343 109.699 147.721L108.898 148.32ZM113.612 153.638C114.759 154.73 115.966 155.751 117.231 156.702L117.832 155.903C116.597 154.975 115.42 153.979 114.301 152.914L113.612 153.638ZM121.179 159.329C122.527 160.119 123.931 160.842 125.39 161.498L125.8 160.586C124.373 159.945 123.001 159.238 121.685 158.466L121.179 159.329ZM129.801 163.22C131.269 163.712 132.785 164.145 134.35 164.519L134.582 163.546C133.045 163.179 131.558 162.754 130.119 162.272L129.801 163.22ZM138.986 165.432C140.507 165.672 142.069 165.861 143.671 166.002L143.758 165.006C142.178 164.867 140.639 164.68 139.142 164.444L138.986 165.432ZM148.378 166.269C149.156 166.29 149.943 166.3 150.738 166.3V165.3C149.952 165.3 149.174 165.29 148.405 165.269L148.378 166.269ZM150.738 166.3C151.512 166.3 152.276 166.291 153.032 166.273L153.008 165.274C152.26 165.291 151.504 165.3 150.738 165.3V166.3ZM157.612 166.045C159.174 165.924 160.695 165.761 162.176 165.555L162.038 164.564C160.579 164.767 159.077 164.928 157.535 165.048L157.612 166.045ZM166.702 164.764C168.238 164.439 169.724 164.061 171.16 163.631L170.874 162.673C169.464 163.095 168.005 163.466 166.495 163.786L166.702 164.764ZM175.507 162.112C176.959 161.525 178.352 160.876 179.686 160.165L179.216 159.282C177.914 159.976 176.553 160.61 175.132 161.185L175.507 162.112ZM183.629 157.765C184.265 157.325 184.884 156.868 185.487 156.393L184.869 155.607C184.282 156.069 183.679 156.514 183.06 156.943L183.629 157.765ZM185.487 156.393C186.113 155.901 186.717 155.4 187.297 154.892L186.637 154.14C186.071 154.636 185.482 155.126 184.869 155.607L185.487 156.393ZM190.642 151.583C191.714 150.378 192.673 149.132 193.517 147.846L192.68 147.297C191.865 148.54 190.936 149.747 189.895 150.918L190.642 151.583ZM195.777 143.698C196.416 142.251 196.925 140.76 197.304 139.225L196.333 138.985C195.968 140.464 195.477 141.9 194.862 143.295L195.777 143.698ZM198.049 134.56C198.109 133.783 198.138 132.997 198.138 132.2H197.138C197.138 132.972 197.109 133.733 197.052 134.484L198.049 134.56ZM198.138 132.2C198.138 131.481 198.117 130.774 198.074 130.08L197.076 130.141C197.117 130.814 197.138 131.5 197.138 132.2H198.138ZM197.517 125.866C197.37 125.161 197.197 124.472 196.998 123.798L196.039 124.082C196.23 124.729 196.397 125.391 196.539 126.07L197.517 125.866ZM197.002 123.815C196.838 123.18 196.644 122.562 196.422 121.961L195.484 122.309C195.694 122.877 195.878 123.463 196.034 124.066L197.002 123.815ZM194.688 118.483C194.338 117.939 193.957 117.413 193.547 116.906L192.77 117.535C193.158 118.014 193.517 118.51 193.847 119.024L194.688 118.483ZM193.556 116.917C193.201 116.451 192.846 115.998 192.49 115.558L191.712 116.186C192.061 116.619 192.411 117.065 192.761 117.523L193.556 116.917ZM190.232 112.937C189.832 112.504 189.432 112.087 189.032 111.687L188.325 112.394C188.715 112.785 189.106 113.192 189.498 113.615L190.232 112.937ZM189.043 111.698C188.622 111.249 188.146 110.81 187.617 110.382L186.988 111.159C187.485 111.562 187.927 111.97 188.314 112.382L189.043 111.698ZM184.426 108.264C183.892 107.968 183.329 107.677 182.736 107.39L182.301 108.291C182.878 108.569 183.425 108.852 183.94 109.138L184.426 108.264ZM182.742 107.393C182.187 107.116 181.653 106.851 181.14 106.598L180.699 107.496C181.21 107.747 181.742 108.011 182.295 108.288L182.742 107.393ZM177.913 105.048C177.328 104.775 176.784 104.527 176.281 104.304L175.875 105.217C176.372 105.438 176.91 105.684 177.49 105.954L177.913 105.048ZM176.312 104.319C175.791 104.043 175.188 103.77 174.506 103.499L174.137 104.429C174.794 104.689 175.362 104.947 175.844 105.202L176.312 104.319ZM170.799 102.265C170.207 102.095 169.582 101.926 168.923 101.756L168.674 102.725C169.325 102.892 169.941 103.059 170.524 103.226L170.799 102.265ZM168.923 101.756C168.318 101.601 167.748 101.455 167.21 101.319L166.964 102.288C167.501 102.424 168.07 102.57 168.674 102.725L168.923 101.756ZM163.775 100.468C163.081 100.302 162.503 100.17 162.043 100.072L161.834 101.049C162.283 101.146 162.853 101.276 163.543 101.441L163.775 100.468ZM162.076 100.08C161.622 99.9501 161.06 99.799 160.391 99.6266L160.141 100.595C160.806 100.766 161.359 100.915 161.801 101.041L162.076 100.08ZM157.02 98.7941C156.49 98.6672 155.928 98.5337 155.333 98.3937L155.104 99.3671C155.698 99.5069 156.259 99.64 156.787 99.7666L157.02 98.7941ZM155.321 98.3911C154.302 98.1767 153.339 97.9674 152.43 97.7633L152.211 98.739C153.124 98.9442 154.093 99.1544 155.115 99.3697L155.321 98.3911ZM146.701 96.3446C145.6 96.036 144.67 95.7444 143.908 95.47L143.569 96.4109C144.361 96.6959 145.315 96.9947 146.431 97.3075L146.701 96.3446ZM143.924 95.4762C143.492 95.3033 143.106 95.1223 142.764 94.9339L142.281 95.8093C142.664 96.0207 143.088 96.2189 143.553 96.4047L143.924 95.4762ZM141.004 93.3516C140.826 93.0207 140.738 92.6726 140.738 92.3004H139.738C139.738 92.839 139.868 93.3497 140.123 93.8254L141.004 93.3516ZM140.738 92.3004C140.738 91.3516 141.02 90.5875 141.566 89.9737L140.818 89.3093C140.092 90.1259 139.738 91.1344 139.738 92.3004H140.738ZM146.507 88.0452C147.356 87.9491 148.299 87.9004 149.338 87.9004V86.9004C148.269 86.9004 147.287 86.9504 146.394 87.0516L146.507 88.0452ZM149.338 87.9004C150.182 87.9004 150.975 87.9659 151.717 88.0955L151.889 87.1104C151.084 86.9699 150.234 86.9004 149.338 86.9004V87.9004ZM155.99 89.9393C156.591 90.4141 157.133 90.9738 157.618 91.6204L158.418 91.0204C157.884 90.3082 157.282 89.6857 156.611 89.155L155.99 89.9393ZM157.648 91.6568C157.871 91.9019 158.074 92.1611 158.256 92.4345L159.088 91.8791C158.878 91.5642 158.644 91.2658 158.388 90.9841L157.648 91.6568ZM159.105 94.2203C159.203 94.5305 159.283 94.8545 159.347 95.1926L160.33 95.0083C160.259 94.6326 160.169 94.2696 160.058 93.9193L159.105 94.2203ZM159.838 95.6004H162.026V94.6004H159.838V95.6004ZM166.401 95.6004H170.776V94.6004H166.401V95.6004ZM175.151 95.6004H179.526V94.6004H175.151V95.6004ZM183.901 95.6004H188.276V94.6004H183.901V95.6004ZM192.651 95.6004H194.838V94.6004H192.651V95.6004ZM195.322 94.9757C195.129 94.2251 194.921 93.4846 194.697 92.7542L193.741 93.047C193.96 93.7628 194.164 94.4888 194.354 95.2251L195.322 94.9757ZM193.138 88.4084C192.543 86.9731 191.882 85.5821 191.156 84.2356L190.275 84.7105C190.986 86.0266 191.632 87.3869 192.214 88.7913L193.138 88.4084ZM188.751 80.2893C188.316 79.6536 187.864 79.0294 187.395 78.4167L186.601 79.0241C187.059 79.6229 187.5 80.2329 187.925 80.854L188.751 80.2893ZM187.393 78.413C186.827 77.6871 186.243 76.9847 185.64 76.3057L184.892 76.9694C185.48 77.6323 186.051 78.3184 186.604 79.0279L187.393 78.413ZM181.739 72.4553C180.353 71.26 178.891 70.1641 177.353 69.1678L176.809 70.0071C178.309 70.9786 179.735 72.0471 181.086 73.2127L181.739 72.4553ZM172.564 66.5028C170.938 65.7331 169.243 65.0562 167.478 64.4719L167.164 65.4212C168.891 65.9931 170.548 66.655 172.136 67.4066L172.564 66.5028ZM162.198 63.0437C160.46 62.6713 158.663 62.3765 156.809 62.159L156.692 63.1522C158.517 63.3662 160.282 63.656 161.989 64.0216L162.198 63.0437ZM151.367 61.7488C150.47 61.7165 149.56 61.7004 148.638 61.7004V62.7004C149.548 62.7004 150.446 62.7163 151.331 62.7481L151.367 61.7488ZM148.638 61.7004C147.652 61.7004 146.679 61.7158 145.722 61.7467L145.754 62.7462C146.7 62.7157 147.662 62.7004 148.638 62.7004V61.7004ZM139.902 62.1432C137.905 62.3558 135.979 62.6452 134.125 63.0115L134.319 63.9926C136.142 63.6323 138.038 63.3473 140.008 63.1375L139.902 62.1432ZM128.452 64.4425C126.536 65.04 124.712 65.7354 122.979 66.5291L123.395 67.4383C125.087 66.6631 126.872 65.9827 128.75 65.3972L128.452 64.4425ZM117.834 69.3486C117.007 69.8854 116.207 70.4504 115.434 71.0438L116.043 71.8371C116.795 71.2599 117.573 70.7099 118.378 70.1873L117.834 69.3486ZM115.432 71.0455C114.854 71.4938 114.297 71.9477 113.761 72.4074L114.412 73.1667C114.935 72.718 115.48 72.2741 116.045 71.8353L115.432 71.0455ZM110.643 75.3885C109.629 76.4785 108.719 77.5976 107.915 78.7459L108.734 79.3197C109.51 78.2115 110.391 77.1281 111.375 76.0697L110.643 75.3885ZM105.717 82.4843C105.082 83.8064 104.574 85.1625 104.193 86.5521L105.157 86.8166C105.522 85.486 106.009 84.1864 106.619 82.9174L105.717 82.4843ZM103.431 90.8296C103.369 91.5456 103.338 92.2692 103.338 93.0004H104.338C104.338 92.2974 104.368 91.6024 104.427 90.9155L103.431 90.8296ZM103.338 93.0004C103.338 93.8712 103.367 94.7243 103.425 95.5596L104.423 95.4902C104.367 94.6789 104.338 93.849 104.338 93.0004H103.338ZM104.188 100.632C104.391 101.478 104.63 102.302 104.905 103.103L105.851 102.778C105.586 102.008 105.356 101.215 105.161 100.399L104.188 100.632ZM104.91 103.116C105.191 103.866 105.504 104.593 105.849 105.297L106.747 104.857C106.417 104.183 106.117 103.485 105.846 102.765L104.91 103.116ZM108.362 109.327C108.847 109.951 109.366 110.551 109.917 111.126L110.639 110.434C110.111 109.884 109.616 109.31 109.151 108.713L108.362 109.327ZM109.932 111.141C110.471 111.657 111.009 112.158 111.548 112.642L112.217 111.898C111.686 111.421 111.155 110.928 110.624 110.419L109.932 111.141ZM114.934 115.473C115.525 115.931 116.117 116.369 116.709 116.788L117.287 115.972C116.707 115.561 116.127 115.131 115.546 114.682L114.934 115.473ZM116.721 116.796C117.364 117.225 118.054 117.645 118.791 118.056L119.278 117.183C118.562 116.783 117.894 116.377 117.276 115.964L116.721 116.796ZM123.13 120.155C123.844 120.458 124.588 120.755 125.361 121.048L125.715 120.113C124.953 119.824 124.221 119.532 123.52 119.235L123.13 120.155ZM125.373 121.052C126.121 121.315 126.842 121.567 127.538 121.808L127.865 120.863C127.171 120.622 126.451 120.371 125.704 120.109L125.373 121.052ZM131.883 123.284C132.658 123.541 133.385 123.779 134.066 123.997L134.371 123.044C133.694 122.828 132.97 122.591 132.198 122.335L131.883 123.284ZM134.083 124.002C134.767 124.193 135.501 124.392 136.286 124.599L136.541 123.632C135.76 123.426 135.031 123.229 134.353 123.039L134.083 124.002ZM140.708 125.715C141.418 125.888 142.156 126.065 142.923 126.247L143.154 125.274C142.389 125.093 141.652 124.916 140.944 124.744L140.708 125.715ZM142.924 126.247C143.564 126.398 144.173 126.544 144.752 126.687L144.992 125.717C144.409 125.573 143.796 125.425 143.153 125.274L142.924 126.247ZM148.378 127.646C149.047 127.839 149.641 128.022 150.16 128.195L150.476 127.246C149.941 127.068 149.334 126.881 148.655 126.685L148.378 127.646ZM150.184 128.202C150.63 128.326 151.086 128.46 151.552 128.604L151.847 127.648C151.372 127.502 150.907 127.365 150.452 127.239L150.184 128.202ZM154.259 129.511C154.699 129.669 155.146 129.834 155.6 130.008L155.956 129.073C155.496 128.898 155.043 128.73 154.598 128.57L154.259 129.511ZM155.6 130.008C155.996 130.158 156.366 130.312 156.712 130.469L157.126 129.559C156.759 129.392 156.369 129.23 155.956 129.073L155.6 130.008ZM158.762 131.639C159.097 131.888 159.378 132.14 159.607 132.395L160.35 131.726C160.07 131.415 159.738 131.118 159.358 130.836L158.762 131.639ZM159.625 132.414C159.807 132.596 159.965 132.783 160.1 132.975L160.918 132.399C160.747 132.157 160.551 131.927 160.332 131.707L159.625 132.414ZM160.669 134.282C160.715 134.512 160.738 134.751 160.738 135H161.738C161.738 134.688 161.709 134.383 161.649 134.085L160.669 134.282ZM160.738 135C160.738 136.105 160.405 136.999 159.755 137.717L160.497 138.388C161.33 137.467 161.738 136.326 161.738 135H160.738ZM154.006 139.935C153.025 140.045 151.936 140.1 150.738 140.1V141.1C151.966 141.1 153.092 141.044 154.117 140.929L154.006 139.935ZM150.738 140.1C149.568 140.1 148.466 140.015 147.433 139.846L147.271 140.833C148.363 141.012 149.519 141.1 150.738 141.1V140.1ZM141.417 137.395C140.556 136.751 139.781 135.991 139.092 135.112L138.305 135.729C139.046 136.675 139.884 137.498 140.818 138.196L141.417 137.395ZM139.076 135.093C138.768 134.738 138.482 134.357 138.217 133.949L137.379 134.494C137.668 134.939 137.982 135.357 138.32 135.748L139.076 135.093ZM136.951 131.364C136.791 130.921 136.648 130.458 136.522 129.974L135.554 130.227C135.688 130.738 135.84 131.231 136.01 131.703L136.951 131.364ZM136.038 129.6H133.851V130.6H136.038V129.6ZM129.476 129.6H125.101V130.6H129.476V129.6ZM120.726 129.6H116.351V130.6H120.726V129.6ZM111.976 129.6H107.601V130.6H111.976V129.6ZM103.226 129.6H101.038V130.6H103.226V129.6Z" fill="url(#paint0_linear_274_627)" fill-opacity="0.6" mask="url(#path-3-inside-1_274_627)"/>
<path d="M285.269 139.568L263.385 127.146L250.486 100.004L248.898 96.6604L233.502 109.943L216.6 100.28L240.447 79.4508L218.407 33.8702L240.146 46.1798L251.013 70.0962L263.084 59.5309L272.771 65.0646L279.992 69.1928L271.861 76.3644L259.464 87.2996L262.319 93.0844L285.269 139.568Z" fill="#717FAA" stroke="black" stroke-width="0.2" stroke-linecap="round" stroke-linejoin="round"/>
<path d="M327.982 41.1168L307.459 59.2298L275.048 78.1836L259.463 87.2996L271.861 76.3644L279.992 69.1928L327.982 41.1168Z" fill="#8E9BCF" stroke="black" stroke-width="0.2" stroke-linecap="round" stroke-linejoin="round"/>
<path d="M327.982 41.1168L279.992 69.1929L272.771 65.0646L263.084 59.531L285.921 46.1736L297.747 39.2534L311.079 31.4548L327.982 41.1168Z" fill="#B1C0E9" stroke="black" stroke-width="0.2" stroke-linecap="round" stroke-linejoin="round"/>
<path d="M288.136 18.1037L275.833 25.3L240.146 46.1799L218.407 33.8703L266.403 5.80042L288.136 18.1037Z" fill="#B1C0E9" stroke="black" stroke-width="0.2" stroke-linecap="round" stroke-linejoin="round"/>
<path d="M250.486 100.004L233.502 109.943L248.899 96.6604L250.486 100.004Z" fill="#8E9BCF" stroke="black" stroke-width="0.2" stroke-linecap="round" stroke-linejoin="round"/>
<path d="M285.922 46.1735L277.64 29.0331L276.736 27.1634L275.839 25.3L275.827 25.2875L266.409 5.80042L266.529 5.86945L267.614 6.47802" stroke="black" stroke-width="0.2" stroke-linecap="round" stroke-linejoin="round" stroke-dasharray="0.8 1.6"/>
<path d="M271.861 76.358L264.596 72.2107L272.771 65.0646" stroke="black" stroke-width="0.2" stroke-linecap="round" stroke-linejoin="round" stroke-dasharray="0.8 1.6"/>
<path d="M325.29 39.5797L327.97 41.1168L327.919 41.1669L319.845 48.288L318.715 49.2918L309.857 57.1029L307.447 59.2298L308.922 62.21L313.539 71.5896L320.441 85.5301L326.219 97.2381L328.102 101.002L329.902 104.648L329.939 104.723L333.283 111.504L325.686 107.188L325.598 107.138L323.088 105.714L321.507 104.816L311.394 99.0821L304.611 84.7965L302.616 80.6052L301.618 78.5541L298.482 71.9346L296.888 68.5906L281.492 81.8724L275.048 78.1773" stroke="black" stroke-width="0.2" stroke-linecap="round" stroke-linejoin="round" stroke-dasharray="2.06 3.42"/>
<path d="M298.049 39.9185L299.002 42.0203L311.004 31.5239" stroke="black" stroke-width="0.2" stroke-linecap="round" stroke-linejoin="round" stroke-dasharray="0.8 1.6"/>
<path d="M297.747 39.2534L285.921 46.1736L263.084 59.5309L251.013 70.0964L241.828 49.8752L240.962 47.9805L240.146 46.1799L275.839 25.3L282.815 21.2219L288.136 18.11L288.142 18.1163L289.008 20.011V20.0173L289.867 21.912L297.747 39.2534Z" fill="#8E9BCF" stroke="black" stroke-width="0.2" stroke-linecap="round" stroke-linejoin="round"/>
<path d="M333.264 111.498L285.268 139.568L262.318 93.0845L259.463 87.2997L275.048 78.1837L298.682 64.3556L307.459 59.2297L308.927 62.2099L313.558 71.5895L320.446 85.5301V85.5365L326.225 97.2437L328.082 100.996L329.882 104.641L329.92 104.716L333.264 111.498Z" fill="#8E9BCF" stroke="black" stroke-width="0.2" stroke-linecap="round" stroke-linejoin="round"/>
<path d="M320.598 85.442L320.033 85.7684" stroke="black" stroke-width="0.2" stroke-linecap="round" stroke-linejoin="round"/>
<path d="M320.026 85.7748L319.926 85.8316" stroke="black" stroke-width="0.2" stroke-linecap="round" stroke-linejoin="round"/>
<path d="M218.702 99.1764L219.241 98.8628" stroke="black" stroke-width="0.2" stroke-linecap="round" stroke-linejoin="round"/>
<path d="M221.374 97.6076L261.929 73.7476" stroke="black" stroke-width="0.2" stroke-linecap="round" stroke-linejoin="round" stroke-dasharray="1.58 3.16"/>
<path d="M262.996 73.1204L263.542 72.8068" stroke="black" stroke-width="0.2" stroke-linecap="round" stroke-linejoin="round"/>
<path d="M263.987 126.844L264.533 126.531" stroke="black" stroke-width="0.2" stroke-linecap="round" stroke-linejoin="round"/>
<path d="M266.98 125.1L273.091 121.536" stroke="black" stroke-width="0.2" stroke-linecap="round" stroke-linejoin="round" stroke-dasharray="1.81 3.61"/>
<path d="M274.314 120.821L274.86 120.508" stroke="black" stroke-width="0.2" stroke-linecap="round" stroke-linejoin="round"/>
<path d="M333.196 111.586L320.968 118.701L285.156 139.549L284.302 137.648L283.443 135.754L331.382 107.677L332.336 109.685V109.692L333.196 111.586Z" fill="black"/>
<path d="M290.03 22.05L277.802 29.1711L241.99 50.0132L241.131 48.1185L240.271 46.2175L288.21 18.1413L289.17 20.1553L290.03 22.05Z" fill="black"/>
<path d="M316.676 88.918L308.012 91.3028L324.832 101.391V111.429L293.701 92.8084V84.4516L303.143 81.7596L312.36 79.1308C314.919 78.2524 315.34 76.1132 314.593 73.71C314.475 73.3324 314.337 72.9621 314.179 72.5997C313.826 71.8087 313.406 71.0489 312.924 70.3285C311.142 67.6369 308.489 65.1838 306.28 64.2991C304.322 63.5212 302.717 63.9667 302.359 66.5703L298.676 64.3744L293.72 61.4131C293.72 61.3315 293.72 61.25 293.72 61.1684C293.753 58.2615 294.422 56.1199 295.727 54.7439C296.014 54.4369 296.334 54.1633 296.681 53.9283C296.89 53.7847 297.11 53.6588 297.34 53.5518C297.79 53.3283 298.266 53.1638 298.758 53.0624C299.377 52.94 300.009 52.8874 300.64 52.9056C300.859 52.9056 301.091 52.9056 301.324 52.9495C302.852 53.1218 304.347 53.5192 305.759 54.1291C307.106 54.6991 308.41 55.3659 309.662 56.1242L310.44 56.6072L310.91 56.9084C311.747 57.4479 312.538 58.0294 313.282 58.6526C313.665 58.96 314.047 59.2799 314.418 59.6125L314.813 59.9639L315.59 60.6979L315.967 61.0743C316.482 61.5888 316.971 62.1158 317.448 62.6679C318.922 64.3525 320.223 66.1811 321.331 68.1263C321.334 68.1407 321.334 68.1558 321.331 68.1703L321.457 68.3835L321.79 69.0109C321.839 69.0863 321.878 69.1678 321.921 69.2494C321.921 69.2995 321.978 69.3497 322.002 69.4062C322.191 69.7763 322.379 70.1528 322.549 70.5355C322.649 70.7426 322.75 70.9622 322.837 71.1629C323.094 71.7903 323.333 72.355 323.54 72.9447L323.653 73.29L323.747 73.5724C323.747 73.6412 323.791 73.71 323.81 73.7788C323.979 74.3188 324.123 74.8524 324.249 75.3852V75.454C324.286 75.63 324.324 75.7996 324.355 75.9684L324.468 76.546C324.538 76.9348 324.594 77.318 324.644 77.7004L324.701 78.278C324.701 78.4348 324.732 78.5972 324.745 78.7548C324.757 78.9116 324.745 79.0492 324.745 79.194C324.748 79.242 324.748 79.29 324.745 79.338C324.745 79.4636 324.745 79.5892 324.745 79.7084C324.745 79.8276 324.745 80.0284 324.745 80.1852C324.75 81.0036 324.695 81.8212 324.582 82.6316C324.574 82.6972 324.564 82.762 324.55 82.826C324.55 82.958 324.506 83.09 324.474 83.2156L324.418 83.4788C324.418 83.5476 324.418 83.6108 324.368 83.6796C324.342 83.786 324.311 83.8908 324.274 83.9932C324.274 84.094 324.211 84.194 324.18 84.2884L324.092 84.514C324.01 84.7052 323.918 84.8916 323.816 85.0724C323.753 85.1852 323.684 85.2916 323.615 85.3988L323.553 85.4868C323.501 85.5652 323.445 85.6412 323.383 85.7124L323.289 85.838L323.05 86.1012C322.956 86.202 322.856 86.302 322.75 86.3964L322.749 86.3956C322.574 86.5396 322.574 86.5396 322.398 86.6844L322.147 86.8604C321.946 86.9884 321.736 87.1036 321.52 87.2052L321.256 87.3308L321.074 87.406C319.64 87.9988 318.171 88.5036 316.676 88.918Z" fill="#717FAA" stroke="black" stroke-width="0.2" stroke-linecap="round" stroke-linejoin="round"/>
<path d="M312.378 79.1372L293.726 84.4508L314.198 72.5995C315.422 75.4476 315.327 78.1332 312.378 79.1372Z" fill="#8E9BCF" stroke="black" stroke-width="0.2" stroke-linecap="round" stroke-linejoin="round"/>
<path d="M306.293 64.2991L302.372 66.5703C302.73 63.9666 304.336 63.5212 306.293 64.2991Z" fill="#717FAA" stroke="black" stroke-width="0.2" stroke-linecap="round" stroke-linejoin="round"/>
<path d="M349.226 87.2492L340.649 92.2124L324.832 101.391L308.024 91.3524L316.682 88.9748C318.201 88.5764 319.695 88.0884 321.156 87.5132C321.313 87.45 321.457 87.3812 321.601 87.3124C321.818 87.2084 322.027 87.0908 322.229 86.9604L327.066 84.1628L335.649 79.1996L349.226 87.2492Z" fill="#B1C0E9" stroke="black" stroke-width="0.2" stroke-linecap="round" stroke-linejoin="round"/>
<path d="M327.216 67.7499L321.958 69.2493L321.344 68.12L321.594 77.65L324.688 82.6692L327.085 84.0996" stroke="black" stroke-width="0.2" stroke-linecap="round" stroke-linejoin="round" stroke-dasharray="0.8 1.6"/>
<path d="M332.481 77.23L332.412 77.1924L332.45 77.1796" stroke="black" stroke-width="0.2" stroke-linecap="round" stroke-linejoin="round" stroke-dasharray="2.18 3.63"/>
<path d="M349.226 87.2492V97.3444L332.073 107.276L327.512 109.917L324.851 111.455V101.36L328.195 99.4276L340.65 92.2124H340.656L349.226 87.2492Z" fill="#8E9BCF" stroke="black" stroke-width="0.2" stroke-linecap="round" stroke-linejoin="round"/>
<path d="M324.286 75.4044C324.161 74.8708 324.016 74.3316 323.847 73.798C324.016 74.3372 324.161 74.8708 324.286 75.4044Z" fill="#8E9BCF" stroke="black" stroke-width="0.2" stroke-linecap="round" stroke-linejoin="round"/>
<path d="M324.525 76.5652C324.594 76.954 324.65 77.3364 324.701 77.7196C324.65 77.3364 324.594 76.9228 324.525 76.5652Z" fill="#8E9BCF" stroke="black" stroke-width="0.2" stroke-linecap="round" stroke-linejoin="round"/>
<path d="M324.701 77.7196L324.758 78.2964C324.758 78.4532 324.789 78.6164 324.801 78.7732C324.776 78.422 324.745 78.0708 324.701 77.7196Z" fill="#8E9BCF" stroke="black" stroke-width="0.2" stroke-linecap="round" stroke-linejoin="round"/>
<path d="M322.586 70.5418C322.419 70.157 322.237 69.7805 322.041 69.4124C322.041 69.356 321.984 69.3058 321.959 69.2556C321.915 69.174 321.878 69.0925 321.827 69.0172L321.494 68.3898C321.463 68.3396 321.432 68.2894 321.407 68.2392L321.37 68.1765C321.373 68.162 321.373 68.147 321.37 68.1326C320.261 66.1874 318.96 64.3587 317.486 62.6742C317.009 62.1221 316.519 61.595 316.005 61.0806L315.629 60.7042L314.794 59.9826L314.399 59.625C314.029 59.2987 313.646 58.9976 313.263 58.6714C312.498 58.0523 311.707 57.471 310.892 56.9272C310.735 56.8268 310.584 56.7202 310.427 56.626L309.65 56.143C308.398 55.3847 307.094 54.7179 305.747 54.1478C304.334 53.5381 302.84 53.1406 301.311 52.9683C301.079 52.9683 300.847 52.9306 300.627 52.9244C299.996 52.9062 299.365 52.9588 298.746 53.0812C298.254 53.1826 297.777 53.347 297.327 53.5706L321.106 39.7803H321.137C321.986 39.2398 322.957 38.9186 323.961 38.8455C324.538 38.7891 325.12 38.7891 325.698 38.8455C328.082 39.0589 330.862 40.117 334.037 42.0202C336.966 43.775 339.596 45.9862 341.829 48.5702C344.067 51.1117 345.896 53.9862 347.25 57.0903C347.614 57.9373 347.927 58.7843 348.197 59.5999L323.785 73.5844L323.69 73.302L323.578 72.9572C323.37 72.3675 323.132 71.7714 322.875 71.1754C322.787 70.9684 322.686 70.7488 322.586 70.5418Z" fill="#B1C0E9" stroke="black" stroke-width="0.2" stroke-linecap="round" stroke-linejoin="round"/>
<path d="M349.226 66.2567C349.23 67.1463 349.154 68.0344 349 68.9106C348.884 69.6394 348.646 70.3435 348.298 70.9935C347.83 71.8139 347.152 72.4941 346.334 72.9635L344.025 74.2996L335.668 79.1308L327.085 84.094L322.248 86.8916L322.498 86.7164L322.674 86.5716C322.735 86.5276 322.794 86.4788 322.85 86.4276C322.957 86.3332 323.057 86.2332 323.151 86.1324L323.39 85.8692L323.484 85.7436C323.545 85.6724 323.602 85.5964 323.653 85.518L323.716 85.43C323.785 85.3236 323.854 85.2164 323.917 85.1036C324.018 84.9228 324.11 84.7364 324.193 84.5452L324.281 84.3196C324.318 84.2236 324.35 84.1252 324.374 84.0244C324.412 83.918 324.443 83.8116 324.469 83.7108C324.494 83.6108 324.469 83.5788 324.519 83.51L324.575 83.2468C324.606 83.1212 324.626 82.9892 324.65 82.858C324.665 82.7932 324.675 82.7284 324.682 82.6628C324.796 81.8524 324.85 81.0348 324.845 80.2164" fill="#8E9BCF"/>
<path d="M349.226 66.2567C349.23 67.1463 349.154 68.0344 349 68.9106C348.884 69.6394 348.646 70.3435 348.298 70.9935C347.83 71.8139 347.152 72.4941 346.334 72.9635L344.025 74.2996L335.668 79.1308L327.085 84.094L322.248 86.8916L322.498 86.7164L322.674 86.5716C322.735 86.5276 322.794 86.4788 322.85 86.4276C322.957 86.3332 323.057 86.2332 323.151 86.1324L323.39 85.8692L323.484 85.7436C323.545 85.6724 323.602 85.5964 323.653 85.518L323.716 85.43C323.785 85.3236 323.854 85.2164 323.917 85.1036C324.018 84.9228 324.11 84.7364 324.193 84.5452L324.281 84.3196C324.318 84.2236 324.35 84.1252 324.374 84.0244C324.412 83.918 324.443 83.8116 324.469 83.7108C324.494 83.6108 324.469 83.5788 324.519 83.51L324.575 83.2468C324.606 83.1212 324.626 82.9892 324.65 82.858C324.665 82.7932 324.675 82.7284 324.682 82.6628C324.796 81.8524 324.85 81.0348 324.845 80.2164" stroke="black" stroke-width="0.2" stroke-linecap="round" stroke-linejoin="round"/>
<path d="M294.843 92.0868L320.598 77.5748" stroke="black" stroke-width="0.2" stroke-linecap="round" stroke-linejoin="round" stroke-dasharray="0.8 1.6"/>
<path d="M307.442 63.471L314.136 59.669" stroke="black" stroke-width="0.2" stroke-linecap="round" stroke-linejoin="round" stroke-dasharray="0.8 1.6"/>
<path d="M314.55 72.3424L321.344 68.12" stroke="black" stroke-width="0.2" stroke-linecap="round" stroke-linejoin="round" stroke-dasharray="0.8 1.6"/>
<path d="M349.2 65.1587C349.165 64.3683 349.083 63.5806 348.955 62.7998C348.836 62.0448 348.674 61.2971 348.473 60.5599C348.385 60.2463 348.297 59.9325 348.196 59.6063L323.784 73.5908C323.784 73.6604 323.828 73.7292 323.847 73.798C324.017 74.338 324.161 74.8708 324.286 75.4044V75.4732C324.324 75.6492 324.362 75.818 324.393 75.9876C324.424 76.1572 324.474 76.37 324.506 76.5652C324.574 76.954 324.631 77.3364 324.682 77.7196C324.732 78.102 324.757 78.422 324.782 78.7732C324.782 78.918 324.782 79.062 324.782 79.2124C324.785 79.2604 324.785 79.3084 324.782 79.3564C324.782 79.482 324.782 79.6076 324.782 79.7268C324.782 79.846 324.782 80.0468 324.782 80.2036C324.787 81.0244 324.733 81.8444 324.618 82.6572C324.612 82.722 324.602 82.7868 324.587 82.8516C324.587 82.9828 324.543 83.1148 324.518 83.2404C324.494 83.366 324.474 83.4164 324.455 83.5036C324.437 83.5916 324.455 83.6356 324.406 83.7044C324.355 83.774 324.349 83.9116 324.311 84.018C324.286 84.1188 324.255 84.2172 324.217 84.3132C324.217 84.3884 324.161 84.4636 324.13 84.5388C324.05 84.7316 323.958 84.918 323.854 85.0972C323.79 85.2108 323.722 85.3172 323.653 85.4236L323.59 85.5116C323.538 85.5908 323.482 85.666 323.42 85.7372L323.326 85.8628L323.088 86.1268C322.994 86.2268 322.894 86.3212 322.786 86.4212L326.934 84.0372L343.955 74.294L346.264 72.9573C347.082 72.4879 347.761 71.8076 348.228 70.9873C348.577 70.3372 348.814 69.6331 348.93 68.9043C349.085 68.0282 349.16 67.14 349.156 66.2504V66.0811C349.226 65.7799 349.219 65.4662 349.2 65.1587Z" fill="#8E9BCF" stroke="black" stroke-width="0.2" stroke-linecap="round" stroke-linejoin="round"/>
<path d="M31.24 51.0004V28.6004H37.32L43.4 42.5204H44.2L50.28 28.6004H56.2V51.0004H52.52V35.3204L52.84 32.2804H52.52L46.6 45.8804H40.84L34.92 32.2804H34.6L34.92 35.3204V51.0004H31.24ZM61.5735 48.9844C60.1228 47.4058 59.3975 45.3578 59.3975 42.8404C59.3975 40.3231 60.1228 38.2858 61.5735 36.7284C63.0455 35.1498 64.8802 34.3604 67.0775 34.3604C68.4642 34.3604 69.7335 34.7658 70.8855 35.5764C71.3762 35.9178 71.8135 36.3124 72.1975 36.7604H72.3575V34.6804H75.7175V51.0004H72.3575V48.7604H72.1975C71.8775 49.2084 71.4402 49.6351 70.8855 50.0404C69.7335 50.8938 68.4642 51.3204 67.0775 51.3204C64.8802 51.3204 63.0455 50.5418 61.5735 48.9844ZM64.1975 38.8084C63.3442 39.7471 62.9175 41.0911 62.9175 42.8404C62.9175 44.5898 63.3442 45.9338 64.1975 46.8724C65.0508 47.8111 66.2242 48.2804 67.7175 48.2804C69.1255 48.2804 70.2455 47.8111 71.0775 46.8724C71.9308 45.9124 72.3575 44.5684 72.3575 42.8404C72.3575 41.1124 71.9308 39.7791 71.0775 38.8404C70.2455 37.8804 69.1255 37.4004 67.7175 37.4004C66.2242 37.4004 65.0508 37.8698 64.1975 38.8084ZM77.785 37.7204V34.6804H92.025V37.7204H86.585V51.0004H83.225V37.7204H77.785ZM95.5475 48.8884C93.9475 47.2458 93.1475 45.2298 93.1475 42.8404C93.1475 40.4511 93.9475 38.4458 95.5475 36.8244C97.1688 35.1818 99.1422 34.3604 101.468 34.3604C103.793 34.3604 105.756 35.1818 107.356 36.8244C108.977 38.4458 109.788 40.4511 109.788 42.8404V43.9604H96.5075C96.7635 45.3044 97.3502 46.3604 98.2675 47.1284C99.1848 47.8964 100.252 48.2804 101.468 48.2804C102.961 48.2804 104.156 47.9071 105.052 47.1604C105.457 46.8618 105.809 46.4884 106.108 46.0404H109.628C109.18 47.0858 108.614 47.9711 107.932 48.6964C106.182 50.4458 104.028 51.3204 101.468 51.3204C99.1422 51.3204 97.1688 50.5098 95.5475 48.8884ZM96.6675 41.2404H106.268C106.076 40.1738 105.564 39.2671 104.732 38.5204C103.921 37.7738 102.833 37.4004 101.468 37.4004C100.316 37.4004 99.2915 37.7524 98.3955 38.4564C97.4995 39.1391 96.9235 40.0671 96.6675 41.2404ZM112.67 51.0004V34.6804H117.47L121.79 44.4404H122.43L126.75 34.6804H131.55V51.0004H128.19V39.4804L128.222 39.1604H128.062L124.03 48.1204H120.19L116.158 39.1604H115.998L116.03 39.4804V51.0004H112.67ZM136.605 48.9844C135.154 47.4058 134.429 45.3578 134.429 42.8404C134.429 40.3231 135.154 38.2858 136.605 36.7284C138.077 35.1498 139.911 34.3604 142.109 34.3604C143.495 34.3604 144.765 34.7658 145.917 35.5764C146.407 35.9178 146.845 36.3124 147.229 36.7604H147.389V34.6804H150.749V51.0004H147.389V48.7604H147.229C146.909 49.2084 146.471 49.6351 145.917 50.0404C144.765 50.8938 143.495 51.3204 142.109 51.3204C139.911 51.3204 138.077 50.5418 136.605 48.9844ZM139.229 38.8084C138.375 39.7471 137.949 41.0911 137.949 42.8404C137.949 44.5898 138.375 45.9338 139.229 46.8724C140.082 47.8111 141.255 48.2804 142.749 48.2804C144.157 48.2804 145.277 47.8111 146.109 46.8724C146.962 45.9124 147.389 44.5684 147.389 42.8404C147.389 41.1124 146.962 39.7791 146.109 38.8404C145.277 37.8804 144.157 37.4004 142.749 37.4004C141.255 37.4004 140.082 37.8698 139.229 38.8084ZM152.816 37.7204V34.6804H167.056V37.7204H161.616V51.0004H158.256V37.7204H152.816ZM169.139 51.0004V34.6804H172.499V45.5604L172.467 45.8804H172.787L180.179 34.6804H183.859V51.0004H180.499V40.1204L180.531 39.8004H180.211L172.819 51.0004H169.139ZM187.701 51.0004V34.6804H191.061V41.0804H193.461L198.421 34.6804H202.261L196.341 42.2004L202.741 51.0004H198.581L193.621 44.1204H191.061V51.0004H187.701ZM205.261 48.9844C203.81 47.4058 203.085 45.3578 203.085 42.8404C203.085 40.3231 203.81 38.2858 205.261 36.7284C206.733 35.1498 208.568 34.3604 210.765 34.3604C212.152 34.3604 213.421 34.7658 214.573 35.5764C215.064 35.9178 215.501 36.3124 215.885 36.7604H216.045V34.6804H219.405V51.0004H216.045V48.7604H215.885C215.565 49.2084 215.128 49.6351 214.573 50.0404C213.421 50.8938 212.152 51.3204 210.765 51.3204C208.568 51.3204 206.733 50.5418 205.261 48.9844ZM207.885 38.8084C207.032 39.7471 206.605 41.0911 206.605 42.8404C206.605 44.5898 207.032 45.9338 207.885 46.8724C208.738 47.8111 209.912 48.2804 211.405 48.2804C212.813 48.2804 213.933 47.8111 214.765 46.8724C215.618 45.9124 216.045 44.5684 216.045 42.8404C216.045 41.1124 215.618 39.7791 214.765 38.8404C213.933 37.8804 212.813 37.4004 211.405 37.4004C209.912 37.4004 208.738 37.8698 207.885 38.8084ZM31.04 82.0004V70.2404H40.76V82.0004H39.56V71.3204H32.24V82.0004H31.04ZM44.8447 86.5604V70.2404H46.0447V72.6404H46.0687C46.4047 71.9204 46.9567 71.3044 47.7247 70.7924C48.5087 70.2644 49.4687 70.0004 50.6047 70.0004C52.1887 70.0004 53.5407 70.5924 54.6607 71.7764C55.7967 72.9444 56.3647 74.3924 56.3647 76.1204C56.3647 77.8484 55.7967 79.3044 54.6607 80.4884C53.5407 81.6564 52.1887 82.2404 50.6047 82.2404C49.4687 82.2404 48.5087 81.9844 47.7247 81.4724C46.9567 80.9444 46.4047 80.3204 46.0687 79.6004H46.0447V86.5604H44.8447ZM47.3647 72.4964C46.4847 73.4404 46.0447 74.6484 46.0447 76.1204C46.0447 77.5924 46.4847 78.8004 47.3647 79.7444C48.2447 80.6884 49.3247 81.1604 50.6047 81.1604C51.8847 81.1604 52.9647 80.6884 53.8447 79.7444C54.7247 78.8004 55.1647 77.5924 55.1647 76.1204C55.1647 74.6484 54.7247 73.4404 53.8447 72.4964C52.9647 71.5524 51.8847 71.0804 50.6047 71.0804C49.3247 71.0804 48.2447 71.5524 47.3647 72.4964ZM60.4983 80.4884C59.3463 79.3044 58.7703 77.8484 58.7703 76.1204C58.7703 74.3924 59.3463 72.9444 60.4983 71.7764C61.6663 70.5924 63.0903 70.0004 64.7703 70.0004C66.4503 70.0004 67.8663 70.5924 69.0183 71.7764C70.1863 72.9444 70.7703 74.3924 70.7703 76.1204C70.7703 77.8484 70.1863 79.3044 69.0183 80.4884C67.8663 81.6564 66.4503 82.2404 64.7703 82.2404C63.0903 82.2404 61.6663 81.6564 60.4983 80.4884ZM61.3143 72.4964C60.4183 73.4244 59.9703 74.6324 59.9703 76.1204C59.9703 77.6084 60.4183 78.8244 61.3143 79.7684C62.2263 80.6964 63.3783 81.1604 64.7703 81.1604C66.1623 81.1604 67.3063 80.6964 68.2023 79.7684C69.1143 78.8244 69.5703 77.6084 69.5703 76.1204C69.5703 74.6324 69.1143 73.4244 68.2023 72.4964C67.3063 71.5524 66.1623 71.0804 64.7703 71.0804C63.3783 71.0804 62.2263 71.5524 61.3143 72.4964ZM74.8409 80.3684C73.6409 79.1684 73.0409 77.7524 73.0409 76.1204C73.0409 74.4884 73.6409 73.0804 74.8409 71.8964C76.0569 70.6964 77.5369 70.0644 79.2809 70.0004V65.2004H80.4809V70.0004C82.2249 70.0644 83.6969 70.6964 84.8969 71.8964C86.1129 73.0804 86.7209 74.4884 86.7209 76.1204C86.7209 77.7524 86.1129 79.1684 84.8969 80.3684C83.6969 81.5524 82.2249 82.1764 80.4809 82.2404V86.5604H79.2809V82.2404C77.5369 82.1764 76.0569 81.5524 74.8409 80.3684ZM80.4809 71.0804V81.1604C81.8729 81.1604 83.0569 80.6724 84.0329 79.6964C85.0249 78.7044 85.5209 77.5124 85.5209 76.1204C85.5209 74.7284 85.0249 73.5444 84.0329 72.5684C83.0569 71.5764 81.8729 71.0804 80.4809 71.0804ZM75.7049 72.5684C74.7289 73.5444 74.2409 74.7284 74.2409 76.1204C74.2409 77.5124 74.7289 78.7044 75.7049 79.6964C76.6969 80.6724 77.8889 81.1604 79.2809 81.1604V71.0804C77.8889 71.0804 76.6969 71.5764 75.7049 72.5684ZM89.8447 82.0004V70.2404H91.0447V80.2004L91.0207 80.4404H91.0447L98.2447 70.2404H99.6847V82.0004H98.4847V72.0404L98.5087 71.8004H98.4847L91.2847 82.0004H89.8447ZM102.327 82.0004L105.687 70.2404H110.127L113.487 82.0004H112.287L109.287 71.3204H106.527L103.527 82.0004H102.327ZM116.118 82.0004V70.2404H117.318V74.5604H121.158C122.39 74.5604 123.398 74.9204 124.182 75.6404C124.966 76.3604 125.358 77.2404 125.358 78.2804C125.358 79.3204 124.966 80.2004 124.182 80.9204C123.398 81.6404 122.39 82.0004 121.158 82.0004H116.118ZM117.318 80.9204H121.158C122.102 80.9204 122.838 80.6804 123.366 80.2004C123.894 79.7204 124.158 79.0804 124.158 78.2804C124.158 77.4804 123.894 76.8404 123.366 76.3604C122.838 75.8804 122.102 75.6404 121.158 75.6404H117.318V80.9204Z" fill="black"/>
</g>
<defs>
<linearGradient id="paint0_linear_274_627" x1="-11" y1="121.321" x2="201.001" y2="119.837" gradientUnits="userSpaceOnUse">
<stop/>
<stop offset="0.915" stop-opacity="0"/>
</linearGradient>
</defs>
</svg>
