<svg width="335" height="162" viewBox="0 0 335 162" fill="none" xmlns="http://www.w3.org/2000/svg">
<mask id="mask0_274_682" style="mask-type:alpha" maskUnits="userSpaceOnUse" x="0" y="0" width="335" height="163">
<path d="M0 60.0004C0 31.7162 0 17.574 8.7868 8.78722C17.5736 0.000427246 31.7157 0.000427246 60 0.000427246H275C303.284 0.000427246 317.426 0.000427246 326.213 8.78722C335 17.574 335 31.7162 335 60.0004V102C335 130.285 335 144.427 326.213 153.214C317.426 162 303.284 162 275 162H60C31.7157 162 17.5736 162 8.7868 153.214C0 144.427 0 130.285 0 102V60.0004Z" fill="#F89745"/>
</mask>
<g mask="url(#mask0_274_682)">
<path d="M0 60.0004C0 31.7162 0 17.574 8.7868 8.78722C17.5736 0.000427246 31.7157 0.000427246 60 0.000427246H275C303.284 0.000427246 317.426 0.000427246 326.213 8.78722C335 17.574 335 31.7162 335 60.0004V102C335 130.285 335 144.427 326.213 153.214C317.426 162 303.284 162 275 162H60C31.7157 162 17.5736 162 8.7868 153.214C0 144.427 0 130.285 0 102V60.0004Z" fill="#F6BF92"/>
<mask id="path-3-inside-1_274_682" fill="white">
<path d="M-2.6 163V65.0004H32.4V97.2004H39.4L57.6 65.0004H96.8L68.8 110.5L99.6 163H60.4L40.8 128.7H32.4V163H-2.6ZM107.305 122.4V65.0004H142.305V121C142.305 125.48 143.472 128.934 145.805 131.36C148.139 133.787 151.405 135 155.605 135C159.805 135 163.072 133.787 165.405 131.36C167.739 128.934 168.905 125.48 168.905 121V65.0004H203.905V122.4C203.905 135.56 199.612 146.107 191.025 154.04C182.532 161.88 170.725 165.8 155.605 165.8C140.485 165.8 128.632 161.88 120.045 154.04C111.552 146.107 107.305 135.56 107.305 122.4Z"/>
</mask>
<path d="M-2.6 163H-2.85V163.25H-2.6V163ZM-2.6 65.0004V64.7504H-2.85V65.0004H-2.6ZM32.4 65.0004H32.65V64.7504H32.4V65.0004ZM32.4 97.2004H32.15V97.4504H32.4V97.2004ZM39.4 97.2004V97.4504H39.5459L39.6176 97.3234L39.4 97.2004ZM57.6 65.0004V64.7504H57.4541L57.3824 64.8774L57.6 65.0004ZM96.8 65.0004L97.0129 65.1314L97.2474 64.7504H96.8V65.0004ZM68.8 110.5L68.5871 110.369L68.5084 110.497L68.5844 110.627L68.8 110.5ZM99.6 163V163.25H100.037L99.8156 162.874L99.6 163ZM60.4 163L60.1829 163.124L60.2549 163.25H60.4V163ZM40.8 128.7L41.0171 128.576L40.9451 128.45H40.8V128.7ZM32.4 128.7V128.45H32.15V128.7H32.4ZM32.4 163V163.25H32.65V163H32.4ZM-2.35 163V160.55H-2.85V163H-2.35ZM-2.35 155.65V150.75H-2.85V155.65H-2.35ZM-2.35 145.85V140.95H-2.85V145.85H-2.35ZM-2.35 136.05V131.15H-2.85V136.05H-2.35ZM-2.35 126.25V121.35H-2.85V126.25H-2.35ZM-2.35 116.45V111.55H-2.85V116.45H-2.35ZM-2.35 106.65V101.75H-2.85V106.65H-2.35ZM-2.35 96.8504V91.9504H-2.85V96.8504H-2.35ZM-2.35 87.0504V82.1504H-2.85V87.0504H-2.35ZM-2.35 77.2504V72.3504H-2.85V77.2504H-2.35ZM-2.35 67.4504V65.0004H-2.85V67.4504H-2.35ZM-2.6 65.2504H-0.412499V64.7504H-2.6V65.2504ZM3.9625 65.2504H8.3375V64.7504H3.9625V65.2504ZM12.7125 65.2504H17.0875V64.7504H12.7125V65.2504ZM21.4625 65.2504H25.8375V64.7504H21.4625V65.2504ZM30.2125 65.2504H32.4V64.7504H30.2125V65.2504ZM32.15 65.0004V67.6838H32.65V65.0004H32.15ZM32.15 73.0504V78.4171H32.65V73.0504H32.15ZM32.15 83.7838V89.1504H32.65V83.7838H32.15ZM32.15 94.5171V97.2004H32.65V94.5171H32.15ZM32.4 97.4504H34.15V96.9504H32.4V97.4504ZM37.65 97.4504H39.4V96.9504H37.65V97.4504ZM39.6176 97.3234L40.7551 95.3109L40.3199 95.0649L39.1824 97.0774L39.6176 97.3234ZM43.0301 91.2859L45.3051 87.2609L44.8699 87.0149L42.5949 91.0399L43.0301 91.2859ZM47.5801 83.2359L49.8551 79.2109L49.4199 78.9649L47.1449 82.9899L47.5801 83.2359ZM52.1301 75.1859L54.4051 71.1609L53.9699 70.9149L51.6949 74.9399L52.1301 75.1859ZM56.6801 67.1359L57.8176 65.1234L57.3824 64.8774L56.2449 66.8899L56.6801 67.1359ZM57.6 65.2504H60.05V64.7504H57.6V65.2504ZM64.95 65.2504H69.85V64.7504H64.95V65.2504ZM74.75 65.2504H79.65V64.7504H74.75V65.2504ZM84.55 65.2504H89.45V64.7504H84.55V65.2504ZM94.35 65.2504H96.8V64.7504H94.35V65.2504ZM96.5871 64.8694L95.1871 67.1444L95.6129 67.4064L97.0129 65.1314L96.5871 64.8694ZM92.3871 71.6944L89.5871 76.2444L90.0129 76.5064L92.8129 71.9564L92.3871 71.6944ZM86.7871 80.7944L83.9871 85.3444L84.4129 85.6064L87.2129 81.0564L86.7871 80.7944ZM81.1871 89.8944L78.3871 94.4444L78.8129 94.7064L81.6129 90.1564L81.1871 89.8944ZM75.5871 98.9944L72.7871 103.544L73.2129 103.806L76.0129 99.2564L75.5871 98.9944ZM69.9871 108.094L68.5871 110.369L69.0129 110.631L70.4129 108.356L69.9871 108.094ZM68.5844 110.627L69.8677 112.814L70.299 112.561L69.0156 110.374L68.5844 110.627ZM72.4344 117.189L75.001 121.564L75.4323 121.311L72.8656 116.936L72.4344 117.189ZM77.5677 125.939L80.1344 130.314L80.5656 130.061L77.999 125.686L77.5677 125.939ZM82.701 134.689L85.2677 139.064L85.699 138.811L83.1323 134.436L82.701 134.689ZM87.8344 143.439L90.401 147.814L90.8323 147.561L88.2656 143.186L87.8344 143.439ZM92.9677 152.189L95.5344 156.564L95.9656 156.311L93.399 151.936L92.9677 152.189ZM98.101 160.939L99.3844 163.127L99.8156 162.874L98.5323 160.686L98.101 160.939ZM99.6 162.75H97.15V163.25H99.6V162.75ZM92.25 162.75H87.35V163.25H92.25V162.75ZM82.45 162.75H77.55V163.25H82.45V162.75ZM72.65 162.75H67.75V163.25H72.65V162.75ZM62.85 162.75H60.4V163.25H62.85V162.75ZM60.6171 162.876L59.3921 160.733L58.9579 160.981L60.1829 163.124L60.6171 162.876ZM56.9421 156.445L54.4921 152.158L54.0579 152.406L56.5079 156.693L56.9421 156.445ZM52.0421 147.87L49.5921 143.583L49.1579 143.831L51.6079 148.118L52.0421 147.87ZM47.1421 139.295L44.6921 135.008L44.2579 135.256L46.7079 139.543L47.1421 139.295ZM42.2421 130.72L41.0171 128.576L40.5829 128.824L41.8079 130.968L42.2421 130.72ZM40.8 128.45H38.7V128.95H40.8V128.45ZM34.5 128.45H32.4V128.95H34.5V128.45ZM32.15 128.7V131.559H32.65V128.7H32.15ZM32.15 137.275V142.992H32.65V137.275H32.15ZM32.15 148.709V154.425H32.65V148.709H32.15ZM32.15 160.142V163H32.65V160.142H32.15ZM32.4 162.75H30.2125V163.25H32.4V162.75ZM25.8375 162.75H21.4625V163.25H25.8375V162.75ZM17.0875 162.75H12.7125V163.25H17.0875V162.75ZM8.3375 162.75H3.9625V163.25H8.3375V162.75ZM-0.412499 162.75H-2.6V163.25H-0.412499V162.75ZM-2.6 163H-3.1V163.5H-2.6V163ZM-2.6 65.0004V64.5004H-3.1V65.0004H-2.6ZM32.4 65.0004H32.9V64.5004H32.4V65.0004ZM32.4 97.2004H31.9V97.7004H32.4V97.2004ZM39.4 97.2004V97.7004H39.6917L39.8353 97.4464L39.4 97.2004ZM57.6 65.0004V64.5004H57.3083L57.1647 64.7544L57.6 65.0004ZM96.8 65.0004L97.2258 65.2625L97.6948 64.5004H96.8V65.0004ZM68.8 110.5L68.3742 110.238L68.2167 110.494L68.3687 110.753L68.8 110.5ZM99.6 163V163.5H100.473L100.031 162.747L99.6 163ZM60.4 163L59.9659 163.248L60.1098 163.5H60.4V163ZM40.8 128.7L41.2341 128.452L41.0902 128.2H40.8V128.7ZM32.4 128.7V128.2H31.9V128.7H32.4ZM32.4 163V163.5H32.9V163H32.4ZM-2.1 163V160.55H-3.1V163H-2.1ZM-2.1 155.65V150.75H-3.1V155.65H-2.1ZM-2.1 145.85V140.95H-3.1V145.85H-2.1ZM-2.1 136.05V131.15H-3.1V136.05H-2.1ZM-2.1 126.25V121.35H-3.1V126.25H-2.1ZM-2.1 116.45V111.55H-3.1V116.45H-2.1ZM-2.1 106.65V101.75H-3.1V106.65H-2.1ZM-2.1 96.8504V91.9504H-3.1V96.8504H-2.1ZM-2.1 87.0504V82.1504H-3.1V87.0504H-2.1ZM-2.1 77.2504V72.3504H-3.1V77.2504H-2.1ZM-2.1 67.4504V65.0004H-3.1V67.4504H-2.1ZM-2.6 65.5004H-0.412499V64.5004H-2.6V65.5004ZM3.9625 65.5004H8.3375V64.5004H3.9625V65.5004ZM12.7125 65.5004H17.0875V64.5004H12.7125V65.5004ZM21.4625 65.5004H25.8375V64.5004H21.4625V65.5004ZM30.2125 65.5004H32.4V64.5004H30.2125V65.5004ZM31.9 65.0004V67.6838H32.9V65.0004H31.9ZM31.9 73.0504V78.4171H32.9V73.0504H31.9ZM31.9 83.7838V89.1504H32.9V83.7838H31.9ZM31.9 94.5171V97.2004H32.9V94.5171H31.9ZM32.4 97.7004H34.15V96.7004H32.4V97.7004ZM37.65 97.7004H39.4V96.7004H37.65V97.7004ZM39.8353 97.4464L40.9728 95.434L40.1022 94.9419L38.9647 96.9544L39.8353 97.4464ZM43.2478 91.409L45.5228 87.3839L44.6522 86.8919L42.3772 90.9169L43.2478 91.409ZM47.7978 83.359L50.0728 79.334L49.2022 78.8419L46.9272 82.8669L47.7978 83.359ZM52.3478 75.309L54.6228 71.284L53.7522 70.7919L51.4772 74.8169L52.3478 75.309ZM56.8978 67.259L58.0353 65.2464L57.1647 64.7544L56.0272 66.7669L56.8978 67.259ZM57.6 65.5004H60.05V64.5004H57.6V65.5004ZM64.95 65.5004H69.85V64.5004H64.95V65.5004ZM74.75 65.5004H79.65V64.5004H74.75V65.5004ZM84.55 65.5004H89.45V64.5004H84.55V65.5004ZM94.35 65.5004H96.8V64.5004H94.35V65.5004ZM96.3742 64.7384L94.9742 67.0134L95.8258 67.5375L97.2258 65.2625L96.3742 64.7384ZM92.1742 71.5634L89.3742 76.1134L90.2258 76.6375L93.0258 72.0875L92.1742 71.5634ZM86.5742 80.6634L83.7742 85.2134L84.6258 85.7375L87.4258 81.1875L86.5742 80.6634ZM80.9742 89.7634L78.1742 94.3134L79.0258 94.8375L81.8258 90.2875L80.9742 89.7634ZM75.3742 98.8634L72.5742 103.413L73.4258 103.937L76.2258 99.3875L75.3742 98.8634ZM69.7742 107.963L68.3742 110.238L69.2258 110.762L70.6258 108.487L69.7742 107.963ZM68.3687 110.753L69.6521 112.941L70.5146 112.435L69.2313 110.247L68.3687 110.753ZM72.2187 117.316L74.7854 121.691L75.6479 121.185L73.0813 116.81L72.2187 117.316ZM77.3521 126.066L79.9187 130.441L80.7813 129.935L78.2146 125.56L77.3521 126.066ZM82.4854 134.816L85.0521 139.191L85.9146 138.685L83.3479 134.31L82.4854 134.816ZM87.6187 143.566L90.1854 147.941L91.0479 147.435L88.4813 143.06L87.6187 143.566ZM92.7521 152.316L95.3187 156.691L96.1813 156.185L93.6146 151.81L92.7521 152.316ZM97.8854 161.066L99.1687 163.253L100.031 162.747L98.7479 160.56L97.8854 161.066ZM99.6 162.5H97.15V163.5H99.6V162.5ZM92.25 162.5H87.35V163.5H92.25V162.5ZM82.45 162.5H77.55V163.5H82.45V162.5ZM72.65 162.5H67.75V163.5H72.65V162.5ZM62.85 162.5H60.4V163.5H62.85V162.5ZM60.8341 162.752L59.6091 160.609L58.7409 161.105L59.9659 163.248L60.8341 162.752ZM57.1591 156.321L54.7091 152.034L53.8409 152.53L56.2909 156.817L57.1591 156.321ZM52.2591 147.746L49.8091 143.459L48.9409 143.955L51.3909 148.242L52.2591 147.746ZM47.3591 139.171L44.9091 134.884L44.0409 135.38L46.4909 139.667L47.3591 139.171ZM42.4591 130.596L41.2341 128.452L40.3659 128.948L41.5909 131.092L42.4591 130.596ZM40.8 128.2H38.7V129.2H40.8V128.2ZM34.5 128.2H32.4V129.2H34.5V128.2ZM31.9 128.7V131.559H32.9V128.7H31.9ZM31.9 137.275V142.992H32.9V137.275H31.9ZM31.9 148.709V154.425H32.9V148.709H31.9ZM31.9 160.142V163H32.9V160.142H31.9ZM32.4 162.5H30.2125V163.5H32.4V162.5ZM25.8375 162.5H21.4625V163.5H25.8375V162.5ZM17.0875 162.5H12.7125V163.5H17.0875V162.5ZM8.3375 162.5H3.9625V163.5H8.3375V162.5ZM-0.412499 162.5H-2.6V163.5H-0.412499V162.5ZM107.305 65.0004V64.7504H107.055V65.0004H107.305ZM142.305 65.0004H142.555V64.7504H142.305V65.0004ZM145.805 131.36L145.986 131.187L145.805 131.36ZM165.405 131.36L165.225 131.187L165.405 131.36ZM168.905 65.0004V64.7504H168.655V65.0004H168.905ZM203.905 65.0004H204.155V64.7504H203.905V65.0004ZM191.025 154.04L191.195 154.224L191.195 154.224L191.025 154.04ZM120.045 154.04L119.875 154.223L119.877 154.225L120.045 154.04ZM107.555 122.4V120.009H107.055V122.4H107.555ZM107.555 115.225V110.442H107.055V115.225H107.555ZM107.555 105.659V100.875H107.055V105.659H107.555ZM107.555 96.0921V91.3088H107.055V96.0921H107.555ZM107.555 86.5254V81.7421H107.055V86.5254H107.555ZM107.555 76.9588V72.1754H107.055V76.9588H107.555ZM107.555 67.3921V65.0004H107.055V67.3921H107.555ZM107.305 65.2504H109.493V64.7504H107.305V65.2504ZM113.868 65.2504H118.243V64.7504H113.868V65.2504ZM122.618 65.2504H126.993V64.7504H122.618V65.2504ZM131.368 65.2504H135.743V64.7504H131.368V65.2504ZM140.118 65.2504H142.305V64.7504H140.118V65.2504ZM142.055 65.0004V67.3338H142.555V65.0004H142.055ZM142.055 72.0004V76.6671H142.555V72.0004H142.055ZM142.055 81.3338V86.0004H142.555V81.3338H142.055ZM142.055 90.6671V95.3338H142.555V90.6671H142.055ZM142.055 100V104.667H142.555V100H142.055ZM142.055 109.334V114H142.555V109.334H142.055ZM142.055 118.667V121H142.555V118.667H142.055ZM142.055 121C142.055 121.991 142.112 122.934 142.225 123.829L142.721 123.766C142.611 122.894 142.555 121.973 142.555 121H142.055ZM143.921 129.238C144.398 130.083 144.966 130.848 145.625 131.534L145.986 131.187C145.356 130.532 144.813 129.801 144.357 128.992L143.921 129.238ZM145.625 131.534C146.266 132.2 146.975 132.777 147.754 133.264L148.019 132.841C147.276 132.375 146.598 131.824 145.986 131.187L145.625 131.534ZM152.889 135.065C153.749 135.189 154.654 135.25 155.605 135.25V134.75C154.676 134.75 153.794 134.69 152.96 134.57L152.889 135.065ZM155.605 135.25C156.557 135.25 157.462 135.189 158.322 135.065L158.251 134.57C157.417 134.69 156.535 134.75 155.605 134.75V135.25ZM163.457 133.264C164.236 132.777 164.945 132.2 165.586 131.534L165.225 131.187C164.613 131.824 163.935 132.375 163.192 132.841L163.457 133.264ZM165.586 131.534C166.245 130.848 166.813 130.083 167.289 129.238L166.854 128.992C166.398 129.801 165.855 130.532 165.225 131.187L165.586 131.534ZM168.985 123.829C169.099 122.934 169.155 121.991 169.155 121H168.655C168.655 121.973 168.6 122.894 168.489 123.766L168.985 123.829ZM169.155 121V118.667H168.655V121H169.155ZM169.155 114V109.334H168.655V114H169.155ZM169.155 104.667V100H168.655V104.667H169.155ZM169.155 95.3338V90.6671H168.655V95.3338H169.155ZM169.155 86.0004V81.3338H168.655V86.0004H169.155ZM169.155 76.6671V72.0004H168.655V76.6671H169.155ZM169.155 67.3337V65.0004H168.655V67.3337H169.155ZM168.905 65.2504H171.093V64.7504H168.905V65.2504ZM175.468 65.2504H179.843V64.7504H175.468V65.2504ZM184.218 65.2504H188.593V64.7504H184.218V65.2504ZM192.968 65.2504H197.343V64.7504H192.968V65.2504ZM201.718 65.2504H203.905V64.7504H201.718V65.2504ZM203.655 65.0004V67.3921H204.155V65.0004H203.655ZM203.655 72.1754V76.9588H204.155V72.1754H203.655ZM203.655 81.7421V86.5254H204.155V81.7421H203.655ZM203.655 91.3088V96.0921H204.155V91.3088H203.655ZM203.655 100.875V105.659H204.155V100.875H203.655ZM203.655 110.442V115.225H204.155V110.442H203.655ZM203.655 120.009V122.4H204.155V120.009H203.655ZM203.655 122.4C203.655 123.14 203.642 123.87 203.615 124.593L204.114 124.611C204.142 123.883 204.155 123.146 204.155 122.4H203.655ZM203.273 128.96C203.094 130.437 202.852 131.876 202.548 133.276L203.037 133.382C203.344 131.966 203.588 130.512 203.769 129.02L203.273 128.96ZM201.404 137.497C200.944 138.898 200.414 140.255 199.814 141.57L200.268 141.777C200.877 140.446 201.413 139.071 201.879 137.653L201.404 137.497ZM197.772 145.433C197.018 146.678 196.193 147.878 195.295 149.034L195.69 149.341C196.599 148.169 197.436 146.953 198.199 145.692L197.772 145.433ZM192.423 152.331C191.918 152.85 191.395 153.358 190.856 153.857L191.195 154.224C191.741 153.72 192.27 153.205 192.781 152.679L192.423 152.331ZM190.856 153.857C190.274 154.394 189.677 154.912 189.063 155.412L189.379 155.8C190.001 155.293 190.606 154.768 191.195 154.224L190.856 153.857ZM185.211 158.182C183.886 159.018 182.501 159.782 181.055 160.476L181.272 160.927C182.734 160.225 184.136 159.451 185.478 158.605L185.211 158.182ZM176.669 162.298C175.206 162.818 173.689 163.275 172.12 163.671L172.242 164.156C173.826 163.757 175.358 163.294 176.837 162.769L176.669 162.298ZM167.462 164.636C165.933 164.888 164.36 165.088 162.742 165.236L162.788 165.734C164.417 165.585 166.002 165.384 167.543 165.129L167.462 164.636ZM157.989 165.517C157.204 165.539 156.41 165.55 155.605 165.55V166.05C156.414 166.05 157.213 166.039 158.003 166.017L157.989 165.517ZM155.605 165.55C154.799 165.55 154.002 165.539 153.214 165.517L153.2 166.017C153.993 166.039 154.794 166.05 155.605 166.05V165.55ZM148.446 165.235C146.823 165.086 145.245 164.885 143.711 164.631L143.63 165.125C145.176 165.38 146.766 165.583 148.4 165.732L148.446 165.235ZM139.038 163.663C137.464 163.267 135.942 162.808 134.473 162.287L134.306 162.758C135.791 163.285 137.327 163.748 138.916 164.148L139.038 163.663ZM130.07 160.465C128.62 159.771 127.228 159.007 125.896 158.172L125.63 158.595C126.979 159.441 128.387 160.214 129.855 160.916L130.07 160.465ZM122.02 155.408C121.403 154.909 120.801 154.392 120.214 153.856L119.877 154.225C120.471 154.768 121.081 155.291 121.706 155.797L122.02 155.408ZM120.216 153.858C119.681 153.357 119.162 152.847 118.661 152.326L118.3 152.673C118.808 153.2 119.333 153.717 119.875 154.223L120.216 153.858ZM115.814 149.02C114.925 147.861 114.108 146.659 113.362 145.412L112.933 145.668C113.688 146.932 114.516 148.15 115.417 149.324L115.814 149.02ZM111.344 141.545C110.752 140.231 110.229 138.874 109.775 137.474L109.299 137.628C109.759 139.045 110.288 140.42 110.888 141.751L111.344 141.545ZM108.647 133.257C108.347 131.859 108.109 130.422 107.933 128.947L107.436 129.007C107.614 130.496 107.855 131.948 108.158 133.362L108.647 133.257ZM107.596 124.588C107.569 123.867 107.555 123.138 107.555 122.4H107.055C107.055 123.144 107.069 123.88 107.096 124.607L107.596 124.588ZM107.305 65.0004V64.5004H106.805V65.0004H107.305ZM142.305 65.0004H142.805V64.5004H142.305V65.0004ZM145.805 131.36L146.166 131.014L145.805 131.36ZM165.405 131.36L165.045 131.014L165.405 131.36ZM168.905 65.0004V64.5004H168.405V65.0004H168.905ZM203.905 65.0004H204.405V64.5004H203.905V65.0004ZM191.025 154.04L191.365 154.408L191.365 154.408L191.025 154.04ZM120.045 154.04L119.704 154.406L119.708 154.41L120.045 154.04ZM107.805 122.4V120.009H106.805V122.4H107.805ZM107.805 115.225V110.442H106.805V115.225H107.805ZM107.805 105.659V100.875H106.805V105.659H107.805ZM107.805 96.0921V91.3088H106.805V96.0921H107.805ZM107.805 86.5254V81.7421H106.805V86.5254H107.805ZM107.805 76.9588V72.1754H106.805V76.9588H107.805ZM107.805 67.3921V65.0004H106.805V67.3921H107.805ZM107.305 65.5004H109.493V64.5004H107.305V65.5004ZM113.868 65.5004H118.243V64.5004H113.868V65.5004ZM122.618 65.5004H126.993V64.5004H122.618V65.5004ZM131.368 65.5004H135.743V64.5004H131.368V65.5004ZM140.118 65.5004H142.305V64.5004H140.118V65.5004ZM141.805 65.0004V67.3338H142.805V65.0004H141.805ZM141.805 72.0004V76.6671H142.805V72.0004H141.805ZM141.805 81.3338V86.0004H142.805V81.3338H141.805ZM141.805 90.6671V95.3338H142.805V90.6671H141.805ZM141.805 100V104.667H142.805V100H141.805ZM141.805 109.334V114H142.805V109.334H141.805ZM141.805 118.667V121H142.805V118.667H141.805ZM141.805 121C141.805 122.001 141.863 122.954 141.977 123.86L142.97 123.734C142.86 122.874 142.805 121.963 142.805 121H141.805ZM143.704 129.361C144.19 130.223 144.771 131.006 145.445 131.707L146.166 131.014C145.551 130.375 145.021 129.66 144.575 128.869L143.704 129.361ZM145.445 131.707C146.1 132.388 146.825 132.978 147.621 133.476L148.152 132.629C147.426 132.174 146.764 131.636 146.166 131.014L145.445 131.707ZM152.854 135.313C153.726 135.438 154.644 135.5 155.605 135.5V134.5C154.687 134.5 153.817 134.441 152.996 134.323L152.854 135.313ZM155.605 135.5C156.567 135.5 157.485 135.438 158.357 135.313L158.215 134.323C157.394 134.441 156.524 134.5 155.605 134.5V135.5ZM163.59 133.476C164.386 132.978 165.111 132.388 165.766 131.707L165.045 131.014C164.447 131.636 163.785 132.174 163.059 132.629L163.59 133.476ZM165.766 131.707C166.44 131.006 167.021 130.223 167.507 129.361L166.636 128.869C166.19 129.66 165.66 130.375 165.045 131.014L165.766 131.707ZM169.233 123.86C169.348 122.954 169.405 122.001 169.405 121H168.405C168.405 121.963 168.351 122.874 168.241 123.734L169.233 123.86ZM169.405 121V118.667H168.405V121H169.405ZM169.405 114V109.334H168.405V114H169.405ZM169.405 104.667V100H168.405V104.667H169.405ZM169.405 95.3338V90.6671H168.405V95.3338H169.405ZM169.405 86.0004V81.3338H168.405V86.0004H169.405ZM169.405 76.6671V72.0004H168.405V76.6671H169.405ZM169.405 67.3337V65.0004H168.405V67.3337H169.405ZM168.905 65.5004H171.093V64.5004H168.905V65.5004ZM175.468 65.5004H179.843V64.5004H175.468V65.5004ZM184.218 65.5004H188.593V64.5004H184.218V65.5004ZM192.968 65.5004H197.343V64.5004H192.968V65.5004ZM201.718 65.5004H203.905V64.5004H201.718V65.5004ZM203.405 65.0004V67.3921H204.405V65.0004H203.405ZM203.405 72.1754V76.9588H204.405V72.1754H203.405ZM203.405 81.7421V86.5254H204.405V81.7421H203.405ZM203.405 91.3088V96.0921H204.405V91.3088H203.405ZM203.405 100.875V105.659H204.405V100.875H203.405ZM203.405 110.442V115.225H204.405V110.442H203.405ZM203.405 120.009V122.4H204.405V120.009H203.405ZM203.405 122.4C203.405 123.136 203.392 123.864 203.365 124.583L204.364 124.621C204.392 123.889 204.405 123.149 204.405 122.4H203.405ZM203.024 128.93C202.846 130.399 202.606 131.831 202.304 133.223L203.281 133.435C203.59 132.011 203.836 130.549 204.017 129.05L203.024 128.93ZM201.166 137.419C200.709 138.811 200.183 140.16 199.586 141.466L200.496 141.881C201.108 140.541 201.648 139.158 202.116 137.731L201.166 137.419ZM197.558 145.304C196.81 146.54 195.989 147.732 195.097 148.881L195.887 149.494C196.803 148.315 197.645 147.091 198.413 145.822L197.558 145.304ZM192.244 152.156C191.742 152.672 191.222 153.178 190.686 153.673L191.365 154.408C191.914 153.9 192.446 153.382 192.96 152.854L192.244 152.156ZM190.686 153.673C190.108 154.207 189.515 154.722 188.905 155.219L189.537 155.994C190.162 155.484 190.772 154.955 191.365 154.408L190.686 153.673ZM185.077 157.97C183.761 158.801 182.384 159.561 180.947 160.251L181.38 161.152C182.851 160.446 184.261 159.668 185.611 158.816L185.077 157.97ZM176.586 162.062C175.13 162.579 173.621 163.035 172.059 163.429L172.303 164.398C173.895 163.997 175.434 163.533 176.92 163.004L176.586 162.062ZM167.421 164.389C165.899 164.64 164.331 164.84 162.719 164.987L162.81 165.983C164.445 165.834 166.037 165.631 167.584 165.376L167.421 164.389ZM157.982 165.267C157.199 165.289 156.407 165.3 155.605 165.3V166.3C156.416 166.3 157.218 166.289 158.01 166.267L157.982 165.267ZM155.605 165.3C154.801 165.3 154.007 165.289 153.221 165.267L153.193 166.267C153.988 166.289 154.792 166.3 155.605 166.3V165.3ZM148.469 164.986C146.852 164.837 145.28 164.637 143.752 164.385L143.589 165.371C145.142 165.628 146.738 165.831 148.377 165.981L148.469 164.986ZM139.099 163.421C137.532 163.026 136.018 162.57 134.557 162.051L134.222 162.994C135.715 163.523 137.259 163.989 138.855 164.391L139.099 163.421ZM130.178 160.239C128.736 159.55 127.353 158.79 126.029 157.96L125.498 158.807C126.854 159.658 128.271 160.436 129.747 161.141L130.178 160.239ZM122.177 155.213C121.564 154.718 120.966 154.203 120.383 153.671L119.708 154.41C120.306 154.956 120.92 155.483 121.549 155.991L122.177 155.213ZM120.387 153.675C119.854 153.178 119.339 152.67 118.841 152.152L118.12 152.846C118.631 153.377 119.159 153.897 119.704 154.406L120.387 153.675ZM116.012 148.867C115.129 147.717 114.317 146.522 113.577 145.284L112.718 145.797C113.479 147.068 114.312 148.295 115.219 149.476L116.012 148.867ZM111.572 141.442C110.984 140.137 110.464 138.789 110.013 137.397L109.062 137.705C109.523 139.131 110.056 140.514 110.661 141.853L111.572 141.442ZM108.891 133.204C108.593 131.814 108.356 130.385 108.181 128.918L107.188 129.036C107.367 130.533 107.609 131.993 107.913 133.414L108.891 133.204ZM107.845 124.579C107.819 123.861 107.805 123.135 107.805 122.4H106.805C106.805 123.147 106.819 123.886 106.846 124.616L107.845 124.579Z" fill="url(#paint0_linear_274_682)" fill-opacity="0.6" mask="url(#path-3-inside-1_274_682)"/>
<path d="M243.071 131.124C243.849 132.535 245.021 133.69 246.443 134.448C247.866 135.207 249.478 135.535 251.084 135.394L244.246 139.745C244.152 139.808 244.043 139.845 243.931 139.852C243.818 139.857 243.706 139.832 243.606 139.78C243.506 139.726 243.423 139.647 243.365 139.55C243.307 139.453 243.276 139.343 243.276 139.229L243.071 131.124Z" fill="black" stroke="black" stroke-width="0.2" stroke-linecap="round" stroke-linejoin="round"/>
<path d="M271.846 124.409L251.606 135.692C249.815 135.712 248.048 135.285 246.465 134.449C245.979 134.188 245.513 133.891 245.072 133.56L248.56 119.262L245.489 116.658L243.81 132.454C243.325 131.954 242.891 131.407 242.517 130.819L240.652 107.719L271.846 124.409Z" fill="#D6844C" stroke="black" stroke-width="0.2" stroke-linecap="round" stroke-linejoin="round"/>
<path d="M248.56 119.275L245.072 133.572C244.631 133.242 244.215 132.878 243.829 132.484L245.489 116.658L248.56 119.275Z" fill="#D6844C" stroke="black" stroke-width="0.2" stroke-linecap="round" stroke-linejoin="round"/>
<path d="M248.56 119.275L245.073 133.572L245.054 133.56L243.823 132.472L243.811 132.453L245.514 116.658L248.56 119.275Z" fill="#F1A362" stroke="black" stroke-width="0.2" stroke-linecap="round" stroke-linejoin="round"/>
<path d="M301.244 74.9516L293.057 90.2564L291.192 93.7748L284.652 105.996H284.721C285.737 106.106 286.758 106.156 287.779 106.146C286.604 107.688 285.461 109.254 284.36 110.796C280.898 115.725 277.578 120.071 274.457 123.9C274.439 123.932 274.418 123.964 274.395 123.993L274.302 124.148C273.825 124.848 273.168 125.404 272.4 125.759C270.98 126.376 269.44 126.669 267.893 126.616C263.821 126.616 258.481 125.118 253.228 122.315C251.597 121.426 250.042 120.405 248.578 119.262C247.521 118.448 246.508 117.576 245.545 116.652C243.764 115.008 242.22 113.124 240.957 111.056C240.446 110.195 240.065 109.263 239.826 108.29C239.613 107.468 239.661 106.599 239.962 105.804L240.037 105.636C240.038 105.617 240.038 105.599 240.037 105.58C240.035 105.564 240.035 105.547 240.037 105.53C241.442 100.905 243.145 95.8636 245.203 90.4116C245.825 88.7956 246.446 87.1916 247.068 85.582C247.155 85.358 247.248 85.1276 247.348 84.9044C249.221 80.2332 251.218 75.6044 253.34 71.0167C256.007 65.2105 258.836 59.4851 261.776 53.8717L262.478 54.2509C263.722 54.9285 265.046 55.6185 266.357 56.3272L268.434 57.4399L299.249 73.9196C299.945 74.2492 300.591 74.61 301.244 74.9516Z" fill="#F1A362" stroke="black" stroke-width="0.2" stroke-linecap="round" stroke-linejoin="round"/>
<path d="M324.904 49.8995C323.226 53.0076 318.65 54.2509 312.664 53.6293L302.929 71.8061L301.245 74.9516L293.058 90.2564L291.193 93.7748L284.653 105.996C278.996 105.418 272.071 103.218 265.139 99.5068C263.38 98.5676 261.708 97.5732 260.123 96.5412C255.925 93.8916 252.144 90.634 248.902 86.8748C248.666 86.5884 248.436 86.3028 248.218 86.0172C247.926 85.638 247.646 85.2644 247.392 84.8852C244.719 81.0252 243.78 77.426 245.147 74.7404C245.161 74.7036 245.178 74.6684 245.197 74.6348C245.234 74.5596 245.284 74.4852 245.328 74.4108C245.335 74.3852 245.346 74.3596 245.359 74.3364L245.396 74.262C247.261 67.9147 254.472 51.8825 258.83 43.6084C262.837 35.9839 267.665 28.8195 273.227 22.2425L275.577 23.4858L277.541 24.5363L283.888 27.9243H283.932C285.59 28.8236 287.27 29.723 288.974 30.6223C289.93 31.132 290.882 31.6479 291.839 32.1515L306.137 39.8163L322.573 48.6375L324.904 49.8995Z" fill="#F1A362" stroke="black" stroke-width="0.2" stroke-linecap="round" stroke-linejoin="round"/>
<path d="M253.925 120.953L265.121 99.5068" stroke="black" stroke-width="0.2" stroke-linecap="round" stroke-linejoin="round"/>
<path d="M248.884 86.8748L241.281 109.981" stroke="black" stroke-width="0.2" stroke-linecap="round" stroke-linejoin="round"/>
<path d="M275.248 122.818C277.436 118.721 271.443 111.243 261.857 106.115C252.272 100.986 242.729 100.153 240.535 104.25" stroke="black" stroke-width="0.2" stroke-linecap="round" stroke-linejoin="round" stroke-dasharray="0.8 1.6"/>
<path d="M296.819 102.391L296.762 102.505" stroke="black" stroke-width="0.2" stroke-miterlimit="10" stroke-dasharray="2.4 4"/>
<path d="M293.058 90.2564C290.546 87.31 287.679 84.6852 284.523 82.442C282.069 80.6636 279.496 79.0556 276.821 77.6308C271.82 74.8948 266.452 72.8915 260.882 71.6818C260.335 71.5761 259.806 71.4767 259.278 71.3896H259.241C257.9 71.1669 256.546 71.0319 255.188 70.9855C254.566 70.9855 253.944 70.9855 253.366 70.9855C249.4 71.1658 246.447 72.3904 245.129 74.7156C245.105 74.7484 245.084 74.7836 245.067 74.8212" stroke="black" stroke-width="0.2" stroke-linecap="round" stroke-linejoin="round" stroke-dasharray="0.8 1.6"/>
<path d="M275.247 122.818C273.053 126.915 263.511 126.076 253.925 120.953C244.339 115.831 238.34 108.346 240.516 104.25" stroke="black" stroke-width="0.2" stroke-linecap="round" stroke-linejoin="round"/>
<path d="M327.372 45.2931L324.886 49.8994C323.207 53.0076 318.632 54.2509 312.646 53.6293C306.988 53.0512 300.07 50.8444 293.132 47.1331C288.055 44.4772 283.388 41.1021 279.276 37.1122C278.4 36.2379 277.57 35.3187 276.789 34.3584C275.459 32.7856 274.352 31.0368 273.5 29.1614C272.363 26.5505 272.201 24.1883 273.214 22.2798L275.701 17.6734L278.057 18.9168C281.066 18.121 285.1 18.2453 289.657 19.2276C291.261 19.5819 292.926 20.0357 294.63 20.5889C301.75 22.9702 308.42 26.5299 314.361 31.1196C315.76 32.2136 317.04 33.3326 318.209 34.4516C321.628 37.7401 324.015 41.0783 325.047 44.0498L327.372 45.2931Z" fill="#F1A362" stroke="black" stroke-width="0.2" stroke-linecap="round" stroke-linejoin="round"/>
<path d="M327.373 45.3015C330.634 39.2049 321.706 28.0702 307.43 20.4315C293.154 12.7928 278.937 11.5427 275.675 17.6394C272.412 23.7361 281.341 34.8708 295.617 42.5095C309.893 50.1482 324.11 51.3983 327.373 45.3015Z" fill="#F6CFA6" stroke="black" stroke-width="0.2" stroke-linecap="round" stroke-linejoin="round"/>
<path d="M292.199 14.4036L287.138 23.8215C285.839 26.2459 290.614 32.6799 298.496 36.876C306.378 41.0721 314.373 41.4886 315.672 39.0704L320.707 29.6711L292.199 14.4036Z" fill="#F1A362" stroke="black" stroke-width="0.2" stroke-linecap="round" stroke-linejoin="round"/>
<path d="M320.745 29.68C322.293 26.7861 317.161 21.0222 309.281 16.806C301.402 12.5898 293.758 11.518 292.21 14.4119C290.662 17.3059 295.794 23.0697 303.674 27.286C311.554 31.5021 319.196 32.574 320.745 29.68Z" fill="#F6CFA6" stroke="black" stroke-width="0.2" stroke-linecap="round" stroke-linejoin="round"/>
<path d="M316.052 16.8964L314.386 20.0046L312.522 23.4423L311.757 24.8659L311.57 25.2202C311.178 25.9413 308.356 25.587 305.459 24.0391C302.562 22.4912 300.698 20.3092 301.108 19.613L301.301 19.2587L302.059 17.8475L303.924 14.385L305.578 11.2767C305.105 12.1657 307.07 14.1363 309.929 15.6842C312.789 17.2321 315.58 17.7791 316.052 16.8964Z" fill="#F1A362" stroke="black" stroke-width="0.2" stroke-linecap="round" stroke-linejoin="round"/>
<path d="M316.108 16.7969L316.052 16.8964C315.58 17.7791 312.85 17.2445 309.954 15.6966C307.057 14.1487 305.099 12.1781 305.602 11.2892L305.658 11.1897C306.012 10.4776 306.505 9.84364 307.108 9.32556C307.711 8.8074 308.412 8.41548 309.17 8.17316C309.926 7.93076 310.725 7.84284 311.517 7.91452C312.309 7.9862 313.078 8.21612 313.779 8.59052C314.481 8.965 315.1 9.47636 315.6 10.0944C316.101 10.7124 316.472 11.4245 316.692 12.1886C316.912 12.9527 316.976 13.7532 316.882 14.5425C316.786 15.332 316.534 16.0944 316.139 16.7845L316.108 16.7969Z" fill="#F6CFA6" stroke="black" stroke-width="0.2" stroke-linecap="round" stroke-linejoin="round"/>
<path d="M288.476 21.5463L282.819 22.429C280.78 22.7472 278.848 23.5562 277.19 24.7863C275.532 26.0164 274.198 27.6309 273.302 29.4909L252.452 77.2516C252.401 77.3516 252.382 77.4644 252.396 77.5748C252.41 77.686 252.458 77.79 252.533 77.8732L254.547 79.6012C254.604 79.6684 254.676 79.7204 254.757 79.754C254.838 79.7876 254.926 79.8012 255.014 79.794C255.101 79.786 255.186 79.758 255.26 79.7116C255.335 79.6652 255.397 79.602 255.442 79.5268L277.162 33.5253C278.12 31.9073 279.423 30.5214 280.979 29.467C282.536 28.4126 284.306 27.7159 286.164 27.427L292.498 26.4386L288.476 21.5463Z" fill="#F1A362" stroke="black" stroke-width="0.2" stroke-linecap="round" stroke-linejoin="round"/>
<path d="M277.287 33.2953L255.299 79.6948L256.772 79.4028L280.557 34.7127C281.204 33.6272 282.1 32.7115 283.171 32.0412C284.242 31.371 285.458 30.9655 286.717 30.8584L290.286 30.5539L292.498 26.4137L285.927 27.4394C284.145 27.7182 282.446 28.3877 280.952 29.4001C279.458 30.4124 278.206 31.7426 277.287 33.2953Z" fill="black" stroke="black" stroke-width="0.2" stroke-linecap="round" stroke-linejoin="round"/>
<path d="M324.905 49.8994C323.456 53.7349 321.796 57.7943 319.838 62.0401C317.837 66.3917 315.549 70.9483 312.944 75.6164C312.634 76.17 312.322 76.7796 311.918 77.4261C309.618 81.5037 306.28 87.2413 303.215 92.3453C300.834 96.2805 298.603 99.8053 297.092 101.924L297.011 102.068L296.894 102.298L296.838 102.397C295.438 104.884 292.162 106.127 287.78 106.164C286.742 106.172 285.704 106.118 284.672 106.003L291.218 93.7812L293.082 90.2629L301.27 74.9581L302.954 71.8124L312.69 53.6106C318.651 54.2261 323.226 53.0325 324.905 49.8994Z" fill="#D6844C" stroke="black" stroke-width="0.2" stroke-linecap="round" stroke-linejoin="round"/>
<path d="M339.538 37.479C339.812 41.9919 339.617 46.5212 338.953 50.9936C337.299 62.6867 331.99 79.0548 315.772 87.7764C311.814 89.878 307.581 91.414 303.196 92.3388C299.254 93.2484 295.225 93.73 291.18 93.7748C283.542 93.934 275.91 93.2508 268.421 91.7364C267.307 91.5244 266.175 91.2948 265.027 91.046C259.285 89.8508 253.656 88.1684 248.199 86.0172L247.093 85.5628C205.039 67.8898 225.447 32.1018 261.329 39.0518" stroke="black" stroke-width="0.2" stroke-linecap="round" stroke-linejoin="round"/>
<path d="M311.862 77.3204C311.862 77.3572 311.899 77.3948 311.918 77.426C313.687 80.6756 314.985 84.1604 315.772 87.7764C322.573 120.251 275.459 140.485 243.904 139.832H243.624" stroke="black" stroke-width="0.2" stroke-linecap="round" stroke-linejoin="round"/>
<path d="M284.634 105.996V106.003L274.942 117.932L270.336 123.601L268.856 125.416" stroke="black" stroke-width="0.2" stroke-linecap="round" stroke-linejoin="round"/>
<path d="M31.24 51.0004V28.6004H41C43.5813 28.6004 45.6613 29.3258 47.24 30.7764C48.84 32.2058 49.64 33.9871 49.64 36.1204C49.64 38.2538 48.84 40.0458 47.24 41.4964C45.6613 42.9258 43.5813 43.6404 41 43.6404H34.92V51.0004H31.24ZM34.92 40.1204H41C42.5573 40.1204 43.7413 39.7684 44.552 39.0644C45.384 38.3391 45.8 37.3578 45.8 36.1204C45.8 34.8831 45.384 33.9124 44.552 33.2084C43.7413 32.4831 42.5573 32.1204 41 32.1204H34.92V40.1204ZM50.9138 34.6804H54.4338L57.9538 47.8004H59.7138L63.5538 34.6804H67.0738L60.3538 57.0804H56.8338L58.7538 51.0004H55.3938L50.9138 34.6804ZM70.2023 48.9204C68.6449 47.3204 67.8663 45.2938 67.8663 42.8404C67.8663 40.3871 68.6449 38.3604 70.2023 36.7604C71.7596 35.1604 73.7009 34.3604 76.0263 34.3604C78.6289 34.3604 80.7516 35.3524 82.3943 37.3364C83.0983 38.2538 83.5889 39.2351 83.8663 40.2804H80.3463C80.1969 39.7471 79.9196 39.2671 79.5143 38.8404C78.6823 37.8804 77.5196 37.4004 76.0263 37.4004C74.7036 37.4004 73.5943 37.9018 72.6983 38.9044C71.8236 39.9071 71.3863 41.2191 71.3863 42.8404C71.3863 44.4618 71.8236 45.7738 72.6983 46.7764C73.5943 47.7791 74.7036 48.2804 76.0263 48.2804C77.5623 48.2804 78.7676 47.8004 79.6423 46.8404C80.0263 46.4138 80.3143 45.9338 80.5063 45.4004H83.8663C83.5889 46.4884 83.0983 47.4804 82.3943 48.3764C80.7729 50.3391 78.6503 51.3204 76.0263 51.3204C73.7009 51.3204 71.7596 50.5204 70.2023 48.9204ZM87.9523 48.9204C86.3949 47.3204 85.6163 45.2938 85.6163 42.8404C85.6163 40.3871 86.3949 38.3604 87.9523 36.7604C89.5096 35.1604 91.4509 34.3604 93.7763 34.3604C96.3789 34.3604 98.5016 35.3524 100.144 37.3364C100.848 38.2538 101.339 39.2351 101.616 40.2804H98.0963C97.9469 39.7471 97.6696 39.2671 97.2643 38.8404C96.4323 37.8804 95.2696 37.4004 93.7763 37.4004C92.4536 37.4004 91.3443 37.9018 90.4483 38.9044C89.5736 39.9071 89.1363 41.2191 89.1363 42.8404C89.1363 44.4618 89.5736 45.7738 90.4483 46.7764C91.3443 47.7791 92.4536 48.2804 93.7763 48.2804C95.3123 48.2804 96.5176 47.8004 97.3923 46.8404C97.7763 46.4138 98.0643 45.9338 98.2563 45.4004H101.616C101.339 46.4884 100.848 47.4804 100.144 48.3764C98.5229 50.3391 96.4003 51.3204 93.7763 51.3204C91.4509 51.3204 89.5096 50.5204 87.9523 48.9204ZM104.326 51.0004V34.6804H107.686V41.0804H110.086L115.046 34.6804H118.886L112.966 42.2004L119.366 51.0004H115.206L110.246 44.1204H107.686V51.0004H104.326ZM121.295 51.0004V34.6804H124.655V45.5604L124.623 45.8804H124.943L132.335 34.6804H136.015V51.0004H132.655V40.1204L132.687 39.8004H132.367L124.975 51.0004H121.295ZM139.858 51.0004V34.6804H143.218V45.5604L143.186 45.8804H143.506L150.898 34.6804H154.578V51.0004H151.218V40.1204L151.25 39.8004H150.93L143.538 51.0004H139.858ZM142.258 28.2804H144.978C144.978 29.4538 145.724 30.0404 147.218 30.0404C148.711 30.0404 149.458 29.4538 149.458 28.2804H152.178C152.178 29.5391 151.751 30.5524 150.898 31.3204C150.066 32.0671 148.839 32.4404 147.218 32.4404C145.596 32.4404 144.359 32.0671 143.506 31.3204C142.674 30.5524 142.258 29.5391 142.258 28.2804ZM166.749 51.0004L169.949 45.0804C169.394 44.8244 168.882 44.4831 168.413 44.0564C167.41 43.0964 166.909 41.8378 166.909 40.2804C166.909 38.6378 167.485 37.2938 168.637 36.2484C169.789 35.2031 171.346 34.6804 173.309 34.6804H180.669V51.0004H177.309V46.0404H173.149L170.589 51.0004H166.749ZM170.429 40.2804C170.429 41.1338 170.685 41.8058 171.197 42.2964C171.709 42.7658 172.466 43.0004 173.469 43.0004H177.309V37.7204H173.469C172.53 37.7204 171.783 37.9658 171.229 38.4564C170.695 38.9258 170.429 39.5338 170.429 40.2804ZM183.234 45.7204H186.594C186.679 46.1471 186.882 46.5738 187.202 47.0004C187.884 47.8538 188.962 48.2804 190.434 48.2804C191.586 48.2804 192.428 48.0884 192.962 47.7044C193.516 47.3204 193.794 46.8191 193.794 46.2004C193.794 45.5818 193.516 45.0804 192.962 44.6964C192.428 44.3124 191.586 44.1204 190.434 44.1204H188.674V41.2404H190.434C192.46 41.2404 193.474 40.6004 193.474 39.3204C193.474 38.7871 193.207 38.3391 192.674 37.9764C192.14 37.5924 191.34 37.4004 190.274 37.4004C189.143 37.4004 188.247 37.7524 187.586 38.4564C187.351 38.7338 187.18 39.0751 187.074 39.4804H183.714C183.948 38.4991 184.332 37.6458 184.866 36.9204C186.103 35.2138 187.959 34.3604 190.434 34.3604C192.482 34.3604 194.06 34.7871 195.17 35.6404C196.279 36.4938 196.834 37.5604 196.834 38.8404C196.834 40.0564 196.354 40.9951 195.394 41.6564C195.01 41.9551 194.53 42.1898 193.954 42.3604V42.4884C194.53 42.6164 195.063 42.8404 195.554 43.1604C196.62 43.8858 197.154 44.9524 197.154 46.3604C197.154 47.7898 196.567 48.9738 195.394 49.9124C194.242 50.8511 192.588 51.3204 190.434 51.3204C187.575 51.3204 185.538 50.3924 184.322 48.5364C183.746 47.6618 183.383 46.7231 183.234 45.7204ZM214.921 51.0004V34.6804H218.281V51.0004H214.921ZM200.201 51.0004V34.6804H203.561V40.1204H206.921C208.799 40.1204 210.303 40.6324 211.433 41.6564C212.585 42.6804 213.161 43.9818 213.161 45.5604C213.161 47.1391 212.585 48.4404 211.433 49.4644C210.303 50.4884 208.799 51.0004 206.921 51.0004H200.201ZM203.561 47.9604H206.921C207.796 47.9604 208.468 47.7471 208.937 47.3204C209.407 46.8938 209.641 46.3071 209.641 45.5604C209.641 44.8138 209.407 44.2271 208.937 43.8004C208.468 43.3738 207.796 43.1604 206.921 43.1604H203.561V47.9604ZM222.108 51.0004V34.6804H225.468V41.0804H227.868L232.828 34.6804H236.668L230.748 42.2004L237.148 51.0004H232.988L228.028 44.1204H225.468V51.0004H222.108Z" fill="black"/>
</g>
<defs>
<linearGradient id="paint0_linear_274_682" x1="-11" y1="121.321" x2="212" y2="119.679" gradientUnits="userSpaceOnUse">
<stop/>
<stop offset="0.915" stop-opacity="0"/>
</linearGradient>
</defs>
</svg>
