<svg width="335" height="162" viewBox="0 0 335 162" fill="none" xmlns="http://www.w3.org/2000/svg">
<mask id="mask0_274_474" style="mask-type:alpha" maskUnits="userSpaceOnUse" x="0" y="0" width="335" height="163">
<path d="M0 60.0004C0 31.7162 0 17.574 8.7868 8.78722C17.5736 0.000427246 31.7157 0.000427246 60 0.000427246H275C303.284 0.000427246 317.426 0.000427246 326.213 8.78722C335 17.574 335 31.7162 335 60.0004V102C335 130.285 335 144.427 326.213 153.214C317.426 162 303.284 162 275 162H60C31.7157 162 17.5736 162 8.7868 153.214C0 144.427 0 130.285 0 102V60.0004Z" fill="#F89745"/>
</mask>
<g mask="url(#mask0_274_474)">
<path d="M0 60.0004C0 31.7162 0 17.574 8.7868 8.78722C17.5736 0.000427246 31.7157 0.000427246 60 0.000427246H275C303.284 0.000427246 317.426 0.000427246 326.213 8.78722C335 17.574 335 31.7162 335 60.0004V102C335 130.285 335 144.427 326.213 153.214C317.426 162 303.284 162 275 162H60C31.7157 162 17.5736 162 8.7868 153.214C0 144.427 0 130.285 0 102V60.0004Z" fill="#FDEF82"/>
<mask id="path-3-inside-1_274_474" fill="white">
<path d="M-2.6 163V65.0004H50.6C63.2933 65.0004 73.4667 68.5471 81.12 75.6404C88.7733 82.7338 92.6 91.7871 92.6 102.8C92.6 113.814 88.7733 122.867 81.12 129.96C73.4667 137.054 63.2933 140.6 50.6 140.6H32.4V163H-2.6ZM32.4 112.6H46.4C49.48 112.6 52 111.667 53.96 109.8C55.92 107.934 56.9 105.6 56.9 102.8C56.9 100 55.92 97.6671 53.96 95.8004C52 93.9338 49.48 93.0004 46.4 93.0004H32.4V112.6ZM104.451 163V65.0004H159.051C171.464 65.0004 181.311 68.4071 188.591 75.2204C195.964 81.9404 199.651 90.6671 199.651 101.4C199.651 110.36 196.851 117.64 191.251 123.24C188.824 125.854 186.024 127.907 182.851 129.4L201.051 163H166.051L152.051 136.4H139.451V163H104.451ZM139.451 109.8H154.851C157.651 109.8 159.844 109.054 161.431 107.56C163.111 105.974 163.951 103.92 163.951 101.4C163.951 98.8804 163.111 96.8738 161.431 95.3804C159.844 93.7938 157.651 93.0004 154.851 93.0004H139.451V109.8Z"/>
</mask>
<path d="M-2.6 163H-2.85V163.25H-2.6V163ZM-2.6 65.0004V64.7504H-2.85V65.0004H-2.6ZM81.12 75.6404L80.9501 75.8238L81.12 75.6404ZM81.12 129.96L81.2899 130.144L81.12 129.96ZM32.4 140.6V140.35H32.15V140.6H32.4ZM32.4 163V163.25H32.65V163H32.4ZM32.4 112.6H32.15V112.85H32.4V112.6ZM53.96 109.8L53.7876 109.619L53.96 109.8ZM53.96 95.8004L54.1324 95.6194L53.96 95.8004ZM32.4 93.0004V92.7504H32.15V93.0004H32.4ZM-2.35 163V160.55H-2.85V163H-2.35ZM-2.35 155.65V150.75H-2.85V155.65H-2.35ZM-2.35 145.85V140.95H-2.85V145.85H-2.35ZM-2.35 136.05V131.15H-2.85V136.05H-2.35ZM-2.35 126.25V121.35H-2.85V126.25H-2.35ZM-2.35 116.45V111.55H-2.85V116.45H-2.35ZM-2.35 106.65V101.75H-2.85V106.65H-2.35ZM-2.35 96.8504V91.9504H-2.85V96.8504H-2.35ZM-2.35 87.0504V82.1504H-2.85V87.0504H-2.35ZM-2.35 77.2504V72.3504H-2.85V77.2504H-2.35ZM-2.35 67.4504V65.0004H-2.85V67.4504H-2.35ZM-2.6 65.2504H0.0600004V64.7504H-2.6V65.2504ZM5.38 65.2504H10.7V64.7504H5.38V65.2504ZM16.02 65.2504H21.34V64.7504H16.02V65.2504ZM26.66 65.2504H31.98V64.7504H26.66V65.2504ZM37.3 65.2504H42.62V64.7504H37.3V65.2504ZM47.94 65.2504H50.6V64.7504H47.94V65.2504ZM50.6 65.2504C51.5305 65.2504 52.4472 65.2695 53.3502 65.3078L53.3713 64.8082C52.4611 64.7697 51.5373 64.7504 50.6 64.7504V65.2504ZM58.8217 65.7965C60.6836 66.0562 62.4789 66.4083 64.2078 66.8528L64.3323 66.3686C62.5842 65.9191 60.7703 65.5634 58.8907 65.3013L58.8217 65.7965ZM69.4204 68.5529C71.1406 69.243 72.7835 70.0411 74.3491 70.9472L74.5996 70.5145C73.0128 69.5961 71.3484 68.7876 69.6066 68.0888L69.4204 68.5529ZM78.8726 74.0356C79.5846 74.6041 80.2771 75.2001 80.9501 75.8238L81.2899 75.4571C80.6081 74.8251 79.9063 74.221 79.1845 73.6449L78.8726 74.0356ZM80.9501 75.8238C81.5725 76.4007 82.1693 76.9905 82.7406 77.5932L83.1035 77.2493C82.5247 76.6385 81.9201 76.0411 81.2899 75.4571L80.9501 75.8238ZM85.9377 81.4714C86.9162 82.8474 87.7825 84.2806 88.5368 85.771L88.9829 85.5452C88.2172 84.0323 87.338 82.5778 86.3452 81.1816L85.9377 81.4714ZM90.4629 90.4113C90.9814 91.9801 91.3932 93.6041 91.6981 95.2836L92.1901 95.1943C91.8812 93.4927 91.4637 91.846 90.9376 90.2544L90.4629 90.4113ZM92.281 100.281C92.327 101.109 92.35 101.949 92.35 102.8H92.85C92.85 101.94 92.8268 101.091 92.7802 100.253L92.281 100.281ZM92.35 102.8C92.35 103.652 92.327 104.492 92.281 105.32L92.7802 105.347C92.8268 104.51 92.85 103.661 92.85 102.8H92.35ZM91.6981 110.317C91.3932 111.997 90.9814 113.621 90.4629 115.19L90.9376 115.346C91.4637 113.755 91.8812 112.108 92.1901 110.407L91.6981 110.317ZM88.5368 119.83C87.7825 121.32 86.9162 122.753 85.9377 124.129L86.3452 124.419C87.338 123.023 88.2172 121.569 88.9829 120.056L88.5368 119.83ZM82.7406 128.008C82.1693 128.61 81.5725 129.2 80.9501 129.777L81.2899 130.144C81.9201 129.56 82.5247 128.962 83.1035 128.352L82.7406 128.008ZM80.9501 129.777C80.2771 130.401 79.5846 130.997 78.8726 131.565L79.1845 131.956C79.9063 131.38 80.6081 130.776 81.2899 130.144L80.9501 129.777ZM74.3491 134.654C72.7835 135.56 71.1406 136.358 69.4204 137.048L69.6066 137.512C71.3484 136.813 73.0128 136.005 74.5996 135.086L74.3491 134.654ZM64.2078 138.748C62.4789 139.193 60.6836 139.545 58.8217 139.804L58.8907 140.3C60.7703 140.037 62.5842 139.682 64.3323 139.232L64.2078 138.748ZM53.3502 140.293C52.4472 140.331 51.5305 140.35 50.6 140.35V140.85C51.5373 140.85 52.4611 140.831 53.3713 140.793L53.3502 140.293ZM50.6 140.35H48.325V140.85H50.6V140.35ZM43.775 140.35H39.225V140.85H43.775V140.35ZM34.675 140.35H32.4V140.85H34.675V140.35ZM32.15 140.6V143.4H32.65V140.6H32.15ZM32.15 149V154.6H32.65V149H32.15ZM32.15 160.2V163H32.65V160.2H32.15ZM32.4 162.75H30.2125V163.25H32.4V162.75ZM25.8375 162.75H21.4625V163.25H25.8375V162.75ZM17.0875 162.75H12.7125V163.25H17.0875V162.75ZM8.3375 162.75H3.9625V163.25H8.3375V162.75ZM-0.412499 162.75H-2.6V163.25H-0.412499V162.75ZM32.65 112.6V110.15H32.15V112.6H32.65ZM32.65 105.25V100.35H32.15V105.25H32.65ZM32.65 95.4504V93.0004H32.15V95.4504H32.65ZM32.4 93.2504H35.9V92.7504H32.4V93.2504ZM42.9 93.2504H46.4V92.7504H42.9V93.2504ZM46.4 93.2504C47.1054 93.2504 47.7794 93.3002 48.4222 93.3993L48.4984 92.9051C47.8285 92.8019 47.1289 92.7504 46.4 92.7504V93.2504ZM52.1954 94.752C52.7622 95.1006 53.2929 95.5103 53.7876 95.9815L54.1324 95.6194C53.613 95.1247 53.0547 94.6935 52.4574 94.3262L52.1954 94.752ZM53.7876 95.9815C54.2625 96.4337 54.6774 96.9131 55.033 97.4193L55.4422 97.1319C55.0666 96.5973 54.6298 96.0931 54.1324 95.6194L53.7876 95.9815ZM56.4831 100.901C56.5942 101.506 56.65 102.139 56.65 102.8H57.15C57.15 102.111 57.0918 101.448 56.9749 100.811L56.4831 100.901ZM56.65 102.8C56.65 103.462 56.5942 104.095 56.4831 104.7L56.9749 104.79C57.0918 104.153 57.15 103.49 57.15 102.8H56.65ZM55.033 108.182C54.6774 108.688 54.2625 109.167 53.7876 109.619L54.1324 109.981C54.6298 109.508 55.0666 109.004 55.4422 108.469L55.033 108.182ZM53.7876 109.619C53.2929 110.091 52.7622 110.5 52.1954 110.849L52.4574 111.275C53.0547 110.907 53.613 110.476 54.1324 109.981L53.7876 109.619ZM48.4222 112.202C47.7794 112.301 47.1054 112.35 46.4 112.35V112.85C47.1289 112.85 47.8285 112.799 48.4984 112.696L48.4222 112.202ZM46.4 112.35H42.9V112.85H46.4V112.35ZM35.9 112.35H32.4V112.85H35.9V112.35ZM-2.6 163H-3.1V163.5H-2.6V163ZM-2.6 65.0004V64.5004H-3.1V65.0004H-2.6ZM81.12 75.6404L80.7801 76.0071L81.12 75.6404ZM81.12 129.96L81.4599 130.327L81.12 129.96ZM32.4 140.6V140.1H31.9V140.6H32.4ZM32.4 163V163.5H32.9V163H32.4ZM32.4 112.6H31.9V113.1H32.4V112.6ZM53.96 109.8L53.6152 109.438L53.96 109.8ZM53.96 95.8004L54.3048 95.4384L53.96 95.8004ZM32.4 93.0004V92.5004H31.9V93.0004H32.4ZM-2.1 163V160.55H-3.1V163H-2.1ZM-2.1 155.65V150.75H-3.1V155.65H-2.1ZM-2.1 145.85V140.95H-3.1V145.85H-2.1ZM-2.1 136.05V131.15H-3.1V136.05H-2.1ZM-2.1 126.25V121.35H-3.1V126.25H-2.1ZM-2.1 116.45V111.55H-3.1V116.45H-2.1ZM-2.1 106.65V101.75H-3.1V106.65H-2.1ZM-2.1 96.8504V91.9504H-3.1V96.8504H-2.1ZM-2.1 87.0504V82.1504H-3.1V87.0504H-2.1ZM-2.1 77.2504V72.3504H-3.1V77.2504H-2.1ZM-2.1 67.4504V65.0004H-3.1V67.4504H-2.1ZM-2.6 65.5004H0.0600004V64.5004H-2.6V65.5004ZM5.38 65.5004H10.7V64.5004H5.38V65.5004ZM16.02 65.5004H21.34V64.5004H16.02V65.5004ZM26.66 65.5004H31.98V64.5004H26.66V65.5004ZM37.3 65.5004H42.62V64.5004H37.3V65.5004ZM47.94 65.5004H50.6V64.5004H47.94V65.5004ZM50.6 65.5004C51.527 65.5004 52.4402 65.5195 53.3396 65.5576L53.3819 64.5585C52.468 64.5198 51.5407 64.5004 50.6 64.5004V65.5004ZM58.7871 66.0441C60.6402 66.3025 62.4262 66.6529 64.1456 67.095L64.3946 66.1265C62.6369 65.6745 60.8137 65.3171 58.9253 65.0537L58.7871 66.0441ZM69.3274 68.7849C71.0367 69.4706 72.6688 70.2636 74.2239 71.1636L74.7248 70.2981C73.1274 69.3736 71.4523 68.5599 69.6997 67.8568L69.3274 68.7849ZM78.7166 74.231C79.4238 74.7956 80.1117 75.3876 80.7801 76.0071L81.4599 75.2737C80.7735 74.6376 80.0671 74.0295 79.3405 73.4495L78.7166 74.231ZM80.7801 76.0071C81.3987 76.5804 81.9917 77.1665 82.5591 77.7652L83.2849 77.0773C82.7023 76.4626 82.0939 75.8614 81.4599 75.2737L80.7801 76.0071ZM85.734 81.6162C86.7053 82.9822 87.5651 84.4047 88.3137 85.8839L89.206 85.4323C88.4346 83.9082 87.5489 82.4429 86.549 81.0367L85.734 81.6162ZM90.2255 90.4898C90.7403 92.0472 91.1493 93.6599 91.4521 95.3282L92.4361 95.1496C92.1251 93.4369 91.7048 91.7789 91.175 90.1759L90.2255 90.4898ZM92.0314 100.295C92.0771 101.118 92.1 101.953 92.1 102.8H93.1C93.1 101.935 93.0766 101.082 93.0298 100.24L92.0314 100.295ZM92.1 102.8C92.1 103.648 92.0771 104.483 92.0314 105.306L93.0298 105.361C93.0766 104.519 93.1 103.666 93.1 102.8H92.1ZM91.4521 110.273C91.1493 111.941 90.7403 113.554 90.2255 115.111L91.175 115.425C91.7048 113.822 92.1251 112.164 92.4361 110.451L91.4521 110.273ZM88.3137 119.717C87.5651 121.196 86.7053 122.619 85.734 123.985L86.549 124.564C87.5489 123.158 88.4346 121.693 89.206 120.169L88.3137 119.717ZM82.5591 127.836C81.9917 128.434 81.3987 129.02 80.7801 129.594L81.4599 130.327C82.0939 129.739 82.7023 129.138 83.2849 128.524L82.5591 127.836ZM80.7801 129.594C80.1117 130.213 79.4238 130.805 78.7166 131.37L79.3405 132.151C80.0671 131.571 80.7735 130.963 81.4599 130.327L80.7801 129.594ZM74.2239 134.437C72.6688 135.337 71.0367 136.13 69.3274 136.816L69.6997 137.744C71.4523 137.041 73.1274 136.227 74.7248 135.303L74.2239 134.437ZM64.1456 138.506C62.4262 138.948 60.6402 139.298 58.7871 139.557L58.9253 140.547C60.8137 140.284 62.6369 139.926 64.3946 139.474L64.1456 138.506ZM53.3396 140.043C52.4402 140.081 51.527 140.1 50.6 140.1V141.1C51.5407 141.1 52.468 141.081 53.3819 141.042L53.3396 140.043ZM50.6 140.1H48.325V141.1H50.6V140.1ZM43.775 140.1H39.225V141.1H43.775V140.1ZM34.675 140.1H32.4V141.1H34.675V140.1ZM31.9 140.6V143.4H32.9V140.6H31.9ZM31.9 149V154.6H32.9V149H31.9ZM31.9 160.2V163H32.9V160.2H31.9ZM32.4 162.5H30.2125V163.5H32.4V162.5ZM25.8375 162.5H21.4625V163.5H25.8375V162.5ZM17.0875 162.5H12.7125V163.5H17.0875V162.5ZM8.3375 162.5H3.9625V163.5H8.3375V162.5ZM-0.412499 162.5H-2.6V163.5H-0.412499V162.5ZM32.9 112.6V110.15H31.9V112.6H32.9ZM32.9 105.25V100.35H31.9V105.25H32.9ZM32.9 95.4504V93.0004H31.9V95.4504H32.9ZM32.4 93.5004H35.9V92.5004H32.4V93.5004ZM42.9 93.5004H46.4V92.5004H42.9V93.5004ZM46.4 93.5004C47.0936 93.5004 47.7548 93.5494 48.3842 93.6464L48.5365 92.6581C47.853 92.5527 47.1406 92.5004 46.4 92.5004V93.5004ZM52.0645 94.965C52.616 95.3042 53.1328 95.7031 53.6152 96.1625L54.3048 95.4384C53.7731 94.9319 53.2009 94.49 52.5884 94.1132L52.0645 94.965ZM53.6152 96.1625C54.0788 96.604 54.4828 97.071 54.8285 97.563L55.6468 96.9882C55.2612 96.4394 54.8135 95.9228 54.3048 95.4384L53.6152 96.1625ZM56.2372 100.946C56.3454 101.535 56.4 102.153 56.4 102.8H57.4C57.4 102.097 57.3406 101.418 57.2207 100.766L56.2372 100.946ZM56.4 102.8C56.4 103.448 56.3454 104.065 56.2372 104.655L57.2207 104.835C57.3406 104.183 57.4 103.504 57.4 102.8H56.4ZM54.8285 108.038C54.4828 108.53 54.0788 108.997 53.6152 109.438L54.3048 110.162C54.8135 109.678 55.2612 109.161 55.6468 108.613L54.8285 108.038ZM53.6152 109.438C53.1328 109.898 52.616 110.297 52.0645 110.636L52.5884 111.488C53.2009 111.111 53.7731 110.669 54.3048 110.162L53.6152 109.438ZM48.3842 111.954C47.7548 112.051 47.0936 112.1 46.4 112.1V113.1C47.1406 113.1 47.853 113.048 48.5365 112.943L48.3842 111.954ZM46.4 112.1H42.9V113.1H46.4V112.1ZM35.9 112.1H32.4V113.1H35.9V112.1ZM104.451 163H104.201V163.25H104.451V163ZM104.451 65.0004V64.7504H104.201V65.0004H104.451ZM188.591 75.2204L188.42 75.403L188.422 75.4052L188.591 75.2204ZM191.251 123.24L191.074 123.064L191.068 123.07L191.251 123.24ZM182.851 129.4L182.744 129.174L182.505 129.287L182.631 129.519L182.851 129.4ZM201.051 163V163.25H201.471L201.271 162.881L201.051 163ZM166.051 163L165.83 163.117L165.9 163.25H166.051V163ZM152.051 136.4L152.272 136.284L152.202 136.15H152.051V136.4ZM139.451 136.4V136.15H139.201V136.4H139.451ZM139.451 163V163.25H139.701V163H139.451ZM139.451 109.8H139.201V110.05H139.451V109.8ZM161.431 107.56L161.602 107.742L161.602 107.742L161.431 107.56ZM161.431 95.3804L161.254 95.5572L161.259 95.5624L161.265 95.5673L161.431 95.3804ZM139.451 93.0004V92.7504H139.201V93.0004H139.451ZM104.701 163V160.55H104.201V163H104.701ZM104.701 155.65V150.75H104.201V155.65H104.701ZM104.701 145.85V140.95H104.201V145.85H104.701ZM104.701 136.05V131.15H104.201V136.05H104.701ZM104.701 126.25V121.35H104.201V126.25H104.701ZM104.701 116.45V111.55H104.201V116.45H104.701ZM104.701 106.65V101.75H104.201V106.65H104.701ZM104.701 96.8504V91.9504H104.201V96.8504H104.701ZM104.701 87.0504V82.1504H104.201V87.0504H104.701ZM104.701 77.2504V72.3504H104.201V77.2504H104.701ZM104.701 67.4504V65.0004H104.201V67.4504H104.701ZM104.451 65.2504H107.181V64.7504H104.451V65.2504ZM112.641 65.2504H118.101V64.7504H112.641V65.2504ZM123.561 65.2504H129.021V64.7504H123.561V65.2504ZM134.481 65.2504H139.941V64.7504H134.481V65.2504ZM145.401 65.2504H150.861V64.7504H145.401V65.2504ZM156.321 65.2504H159.051V64.7504H156.321V65.2504ZM159.051 65.2504C159.951 65.2504 160.838 65.2684 161.711 65.3044L161.732 64.8048C160.852 64.7685 159.958 64.7504 159.051 64.7504V65.2504ZM167.005 65.7653C168.81 66.011 170.548 66.3446 172.219 66.7659L172.341 66.2811C170.651 65.855 168.894 65.518 167.072 65.2699L167.005 65.7653ZM177.268 68.3859C178.939 69.0472 180.53 69.813 182.042 70.6832L182.292 70.2498C180.758 69.3672 179.145 68.591 177.452 67.921L177.268 68.3859ZM186.417 73.6674C187.105 74.2187 187.773 74.7973 188.42 75.403L188.762 75.0379C188.105 74.4235 187.428 73.8366 186.73 73.2772L186.417 73.6674ZM188.422 75.4052C189.027 75.9561 189.606 76.5205 190.161 77.0984L190.521 76.7522C189.959 76.1661 189.372 75.594 188.759 75.0356L188.422 75.4052ZM193.257 80.825C194.201 82.1476 195.035 83.5292 195.762 84.97L196.208 84.745C195.47 83.2813 194.622 81.8778 193.664 80.5346L193.257 80.825ZM197.607 89.4486C198.101 90.9596 198.493 92.5267 198.783 94.1502L199.275 94.0623C198.982 92.4168 198.584 90.827 198.082 89.2931L197.607 89.4486ZM199.336 98.9708C199.379 99.7687 199.401 100.579 199.401 101.4H199.901C199.901 100.57 199.879 99.7508 199.835 98.9436L199.336 98.9708ZM199.401 101.4C199.401 102.418 199.364 103.413 199.292 104.386L199.791 104.423C199.864 103.437 199.901 102.43 199.901 101.4H199.401ZM198.344 110.27C197.838 112.24 197.15 114.1 196.282 115.85L196.73 116.072C197.614 114.29 198.314 112.397 198.828 110.394L198.344 110.27ZM193.068 120.851C192.449 121.616 191.784 122.353 191.074 123.064L191.428 123.417C192.15 122.695 192.827 121.944 193.457 121.166L193.068 120.851ZM191.068 123.07C190.473 123.711 189.855 124.317 189.216 124.89L189.549 125.263C190.2 124.68 190.829 124.062 191.434 123.411L191.068 123.07ZM185.037 127.958C184.296 128.398 183.532 128.804 182.744 129.174L182.957 129.627C183.759 129.249 184.538 128.836 185.292 128.388L185.037 127.958ZM182.631 129.519L183.768 131.619L184.208 131.381L183.071 129.281L182.631 129.519ZM186.043 135.819L188.318 140.02L188.758 139.781L186.483 135.581L186.043 135.819ZM190.593 144.219L192.868 148.42L193.308 148.181L191.033 143.981L190.593 144.219ZM195.143 152.619L197.418 156.819L197.858 156.581L195.583 152.381L195.143 152.619ZM199.693 161.02L200.831 163.119L201.271 162.881L200.133 160.781L199.693 161.02ZM201.051 162.75H198.863V163.25H201.051V162.75ZM194.488 162.75H190.113V163.25H194.488V162.75ZM185.738 162.75H181.363V163.25H185.738V162.75ZM176.988 162.75H172.613V163.25H176.988V162.75ZM168.238 162.75H166.051V163.25H168.238V162.75ZM166.272 162.884L165.105 160.667L164.663 160.9L165.83 163.117L166.272 162.884ZM162.772 156.234L160.439 151.801L159.996 152.034L162.33 156.467L162.772 156.234ZM158.105 147.367L155.772 142.934L155.33 143.167L157.663 147.6L158.105 147.367ZM153.439 138.501L152.272 136.284L151.83 136.517L152.996 138.734L153.439 138.501ZM152.051 136.15H148.901V136.65H152.051V136.15ZM142.601 136.15H139.451V136.65H142.601V136.15ZM139.201 136.4V138.617H139.701V136.4H139.201ZM139.201 143.05V147.484H139.701V143.05H139.201ZM139.201 151.917V156.35H139.701V151.917H139.201ZM139.201 160.784V163H139.701V160.784H139.201ZM139.451 162.75H137.263V163.25H139.451V162.75ZM132.888 162.75H128.513V163.25H132.888V162.75ZM124.138 162.75H119.763V163.25H124.138V162.75ZM115.388 162.75H111.013V163.25H115.388V162.75ZM106.638 162.75H104.451V163.25H106.638V162.75ZM139.701 109.8V107.7H139.201V109.8H139.701ZM139.701 103.5V99.3004H139.201V103.5H139.701ZM139.701 95.1004V93.0004H139.201V95.1004H139.701ZM139.451 93.2504H141.376V92.7504H139.451V93.2504ZM145.226 93.2504H149.076V92.7504H145.226V93.2504ZM152.926 93.2504H154.851V92.7504H152.926V93.2504ZM154.851 93.2504C155.468 93.2504 156.054 93.2896 156.608 93.3676L156.678 92.8725C156.098 92.791 155.489 92.7504 154.851 92.7504V93.2504ZM159.891 94.4871C160.388 94.7885 160.842 95.1451 161.254 95.5572L161.608 95.2037C161.167 94.7633 160.681 94.3818 160.15 94.0597L159.891 94.4871ZM161.265 95.5673C161.682 95.9378 162.044 96.34 162.353 96.7739L162.76 96.484C162.429 96.0182 162.041 95.588 161.597 95.1936L161.265 95.5673ZM163.568 99.7655C163.656 100.282 163.701 100.826 163.701 101.4H164.201C164.201 100.801 164.154 100.227 164.06 99.6809L163.568 99.7655ZM163.701 101.4C163.701 101.982 163.655 102.537 163.564 103.064L164.057 103.149C164.153 102.591 164.201 102.008 164.201 101.4H163.701ZM162.341 106.122C162.033 106.569 161.673 106.988 161.259 107.379L161.602 107.742C162.041 107.328 162.424 106.883 162.753 106.405L162.341 106.122ZM161.259 107.378C160.842 107.771 160.381 108.11 159.877 108.397L160.123 108.832C160.662 108.526 161.155 108.163 161.602 107.742L161.259 107.378ZM156.595 109.442C156.044 109.514 155.463 109.55 154.851 109.55V110.05C155.483 110.05 156.086 110.013 156.66 109.938L156.595 109.442ZM154.851 109.55H152.926V110.05H154.851V109.55ZM149.076 109.55H145.226V110.05H149.076V109.55ZM141.376 109.55H139.451V110.05H141.376V109.55ZM104.451 163H103.951V163.5H104.451V163ZM104.451 65.0004V64.5004H103.951V65.0004H104.451ZM188.591 75.2204L188.249 75.5855L188.254 75.59L188.591 75.2204ZM191.251 123.24L190.897 122.887L190.891 122.893L190.884 122.9L191.251 123.24ZM182.851 129.4L182.638 128.948L182.159 129.173L182.411 129.639L182.851 129.4ZM201.051 163V163.5H201.89L201.49 162.762L201.051 163ZM166.051 163L165.608 163.233L165.749 163.5H166.051V163ZM152.051 136.4L152.493 136.168L152.353 135.9H152.051V136.4ZM139.451 136.4V135.9H138.951V136.4H139.451ZM139.451 163V163.5H139.951V163H139.451ZM139.451 109.8H138.951V110.3H139.451V109.8ZM161.431 107.56L161.773 107.925L161.774 107.924L161.431 107.56ZM161.431 95.3804L161.077 95.734L161.088 95.7444L161.099 95.7541L161.431 95.3804ZM139.451 93.0004V92.5004H138.951V93.0004H139.451ZM104.951 163V160.55H103.951V163H104.951ZM104.951 155.65V150.75H103.951V155.65H104.951ZM104.951 145.85V140.95H103.951V145.85H104.951ZM104.951 136.05V131.15H103.951V136.05H104.951ZM104.951 126.25V121.35H103.951V126.25H104.951ZM104.951 116.45V111.55H103.951V116.45H104.951ZM104.951 106.65V101.75H103.951V106.65H104.951ZM104.951 96.8504V91.9504H103.951V96.8504H104.951ZM104.951 87.0504V82.1504H103.951V87.0504H104.951ZM104.951 77.2504V72.3504H103.951V77.2504H104.951ZM104.951 67.4504V65.0004H103.951V67.4504H104.951ZM104.451 65.5004H107.181V64.5004H104.451V65.5004ZM112.641 65.5004H118.101V64.5004H112.641V65.5004ZM123.561 65.5004H129.021V64.5004H123.561V65.5004ZM134.481 65.5004H139.941V64.5004H134.481V65.5004ZM145.401 65.5004H150.861V64.5004H145.401V65.5004ZM156.321 65.5004H159.051V64.5004H156.321V65.5004ZM159.051 65.5004C159.948 65.5004 160.831 65.5183 161.701 65.5542L161.742 64.555C160.858 64.5186 159.961 64.5004 159.051 64.5004V65.5004ZM166.971 66.013C168.767 66.2575 170.496 66.5894 172.157 67.0084L172.402 66.0387C170.702 65.6102 168.937 65.2714 167.106 65.0222L166.971 66.013ZM177.176 68.6184C178.836 69.2754 180.416 70.0359 181.918 70.8999L182.417 70.0331C180.872 69.1443 179.248 68.3629 177.544 67.6886L177.176 68.6184ZM186.261 73.8624C186.944 74.4098 187.607 74.9841 188.249 75.5855L188.932 74.8554C188.271 74.2367 187.589 73.6456 186.886 73.0821L186.261 73.8624ZM188.254 75.59C188.854 76.1372 189.43 76.6977 189.98 77.2714L190.702 76.5791C190.136 75.9889 189.544 75.4129 188.928 74.8509L188.254 75.59ZM193.053 80.9702C193.99 82.2825 194.818 83.6532 195.538 85.0825L196.431 84.6325C195.688 83.1573 194.833 81.7429 193.867 80.3894L193.053 80.9702ZM197.369 89.5263C197.86 91.0259 198.249 92.5817 198.537 94.1942L199.522 94.0183C199.226 92.3618 198.825 90.7607 198.32 89.2154L197.369 89.5263ZM199.086 98.9844C199.129 99.7776 199.151 100.583 199.151 101.4H200.151C200.151 100.565 200.129 99.7419 200.085 98.9301L199.086 98.9844ZM199.151 101.4C199.151 102.412 199.115 103.401 199.043 104.368L200.04 104.442C200.114 103.45 200.151 102.436 200.151 101.4H199.151ZM198.102 110.208C197.6 112.162 196.918 114.005 196.058 115.739L196.954 116.183C197.846 114.384 198.552 112.475 199.07 110.457L198.102 110.208ZM192.874 120.694C192.261 121.451 191.602 122.182 190.897 122.887L191.604 123.594C192.333 122.865 193.015 122.109 193.651 121.323L192.874 120.694ZM190.884 122.9C190.295 123.535 189.683 124.136 189.049 124.704L189.716 125.449C190.373 124.861 191.007 124.238 191.617 123.581L190.884 122.9ZM184.909 127.743C184.175 128.179 183.418 128.581 182.638 128.948L183.064 129.853C183.873 129.472 184.658 129.055 185.42 128.603L184.909 127.743ZM182.411 129.639L183.549 131.739L184.428 131.262L183.29 129.162L182.411 129.639ZM185.824 135.939L188.099 140.139L188.978 139.662L186.703 135.462L185.824 135.939ZM190.374 144.339L192.649 148.539L193.528 148.062L191.253 143.862L190.374 144.339ZM194.924 152.739L197.199 156.939L198.078 156.462L195.803 152.262L194.924 152.739ZM199.474 161.139L200.611 163.239L201.49 162.762L200.353 160.662L199.474 161.139ZM201.051 162.5H198.863V163.5H201.051V162.5ZM194.488 162.5H190.113V163.5H194.488V162.5ZM185.738 162.5H181.363V163.5H185.738V162.5ZM176.988 162.5H172.613V163.5H176.988V162.5ZM168.238 162.5H166.051V163.5H168.238V162.5ZM166.493 162.768L165.327 160.551L164.442 161.017L165.608 163.233L166.493 162.768ZM162.993 156.118L160.66 151.684L159.775 152.15L162.108 156.583L162.993 156.118ZM158.327 147.251L155.993 142.818L155.108 143.283L157.442 147.717L158.327 147.251ZM153.66 138.384L152.493 136.168L151.608 136.633L152.775 138.85L153.66 138.384ZM152.051 135.9H148.901V136.9H152.051V135.9ZM142.601 135.9H139.451V136.9H142.601V135.9ZM138.951 136.4V138.617H139.951V136.4H138.951ZM138.951 143.05V147.484H139.951V143.05H138.951ZM138.951 151.917V156.35H139.951V151.917H138.951ZM138.951 160.784V163H139.951V160.784H138.951ZM139.451 162.5H137.263V163.5H139.451V162.5ZM132.888 162.5H128.513V163.5H132.888V162.5ZM124.138 162.5H119.763V163.5H124.138V162.5ZM115.388 162.5H111.013V163.5H115.388V162.5ZM106.638 162.5H104.451V163.5H106.638V162.5ZM139.951 109.8V107.7H138.951V109.8H139.951ZM139.951 103.5V99.3004H138.951V103.5H139.951ZM139.951 95.1004V93.0004H138.951V95.1004H139.951ZM139.451 93.5004H141.376V92.5004H139.451V93.5004ZM145.226 93.5004H149.076V92.5004H145.226V93.5004ZM152.926 93.5004H154.851V92.5004H152.926V93.5004ZM154.851 93.5004C155.457 93.5004 156.031 93.539 156.573 93.6152L156.712 92.625C156.12 92.5416 155.5 92.5004 154.851 92.5004V93.5004ZM159.761 94.7009C160.241 94.9918 160.679 95.336 161.077 95.734L161.784 95.0269C161.33 94.5724 160.828 94.1785 160.28 93.8459L159.761 94.7009ZM161.099 95.7541C161.502 96.1127 161.852 96.5009 162.149 96.9188L162.964 96.3391C162.621 95.8572 162.22 95.4132 161.763 95.0067L161.099 95.7541ZM163.321 99.8077C163.407 100.309 163.451 100.839 163.451 101.4H164.451C164.451 100.788 164.403 100.2 164.307 99.6387L163.321 99.8077ZM163.451 101.4C163.451 101.969 163.406 102.509 163.318 103.022L164.303 103.192C164.402 102.619 164.451 102.021 164.451 101.4H163.451ZM162.135 105.98C161.838 106.412 161.489 106.818 161.087 107.197L161.774 107.924C162.225 107.499 162.62 107.04 162.959 106.547L162.135 105.98ZM161.088 107.196C160.686 107.575 160.241 107.903 159.753 108.179L160.247 109.049C160.803 108.734 161.312 108.359 161.773 107.925L161.088 107.196ZM156.562 109.194C156.024 109.265 155.453 109.3 154.851 109.3V110.3C155.493 110.3 156.107 110.262 156.692 110.186L156.562 109.194ZM154.851 109.3H152.926V110.3H154.851V109.3ZM149.076 109.3H145.226V110.3H149.076V109.3ZM141.376 109.3H139.451V110.3H141.376V109.3Z" fill="url(#paint0_linear_274_474)" fill-opacity="0.6" mask="url(#path-3-inside-1_274_474)"/>
<path d="M330.753 37.2623V88.2764V91.3484C330.753 91.5596 330.714 91.7644 330.689 91.9884C330.663 92.2124 330.644 92.3788 330.618 92.5708V92.7116C330.586 92.8908 330.561 93.07 330.529 93.2428C330.497 93.4156 330.458 93.6652 330.407 93.8828C330.356 94.1004 330.324 94.2988 330.266 94.5228C330.209 94.7468 330.17 94.9324 330.106 95.1628C330.042 95.3932 330.017 95.502 329.959 95.6748L329.914 95.8348L329.838 96.0716C329.833 96.1012 329.822 96.13 329.806 96.1548C329.767 96.2892 329.722 96.4172 329.678 96.5452C329.633 96.6732 329.569 96.8524 329.511 97.006C329.454 97.1596 329.358 97.4156 329.274 97.646C329.121 98.0364 328.948 98.4204 328.762 98.798C328.679 98.99 328.583 99.182 328.487 99.374L328.327 99.6876L328.129 100.059C328.026 100.251 327.918 100.449 327.802 100.635C327.687 100.82 327.591 101 327.482 101.185L327.386 101.339C327.201 101.633 327.015 101.928 326.817 102.216L326.618 102.504L326.151 103.144L325.722 103.726C325.671 103.784 325.626 103.848 325.582 103.905C325.537 103.963 325.377 104.161 325.274 104.283C325.172 104.404 325.121 104.481 325.038 104.577C324.833 104.827 324.622 105.07 324.398 105.32C324.174 105.569 324.11 105.64 323.956 105.8C323.802 105.96 323.662 106.126 323.502 106.286C323.342 106.446 323.124 106.683 322.926 106.881L322.727 107.073L322.593 107.208C322.407 107.393 322.215 107.579 322.023 107.752L321.921 107.854L321.626 108.123C321.53 108.212 321.434 108.302 321.332 108.385C321.23 108.468 321.14 108.564 321.031 108.648C320.833 108.827 320.634 109 320.43 109.166C320.225 109.332 320.142 109.409 319.994 109.531C318.894 110.433 317.722 111.297 316.468 112.136L315.943 112.488C315.764 112.608 315.585 112.723 315.406 112.833L314.977 113.096C314.599 113.339 314.202 113.576 313.806 113.812L313.23 114.145C313.025 114.26 312.82 114.382 312.59 114.491C312.167 114.728 311.732 114.958 311.31 115.188C310.746 115.483 310.17 115.771 309.582 116.052C309.038 116.315 308.481 116.571 307.918 116.827L307.034 117.217L306.394 117.486C305.94 117.672 305.486 117.864 305.018 118.036L304.026 118.427V64.302C304.449 64.142 304.865 63.982 305.306 63.8156L306.439 63.3484L306.535 63.31L307.444 62.9199C309.514 62.0188 311.534 61.0039 313.492 59.8799C316.321 58.2647 318.974 56.36 321.409 54.1967C323.678 52.1977 325.656 49.8904 327.284 47.3423C328.024 46.1751 328.666 44.9484 329.204 43.6751C329.834 42.164 330.29 40.5858 330.561 38.9711C330.638 38.3951 330.708 37.8319 330.753 37.2623Z" fill="#FBE84C" stroke="black" stroke-width="0.2" stroke-linecap="round" stroke-linejoin="round"/>
<path d="M234.182 70.4908V115.982L233.824 115.809L233.222 115.508C233.062 115.432 232.908 115.348 232.748 115.259C232.588 115.169 232.371 115.067 232.192 114.964L231.353 114.51L230.566 114.062L229.804 113.614L228.934 113.076C228.691 112.929 228.454 112.776 228.224 112.622C227.993 112.468 227.782 112.334 227.584 112.187C227.385 112.04 227.142 111.892 226.944 111.739L226.604 111.502L225.964 111.009C225.785 110.881 225.606 110.74 225.427 110.6C225.248 110.459 225.139 110.382 224.998 110.273L224.505 109.876L224.096 109.544C223.648 109.172 223.221 108.795 222.816 108.411C222.643 108.257 222.476 108.091 222.304 107.931C222.131 107.771 221.977 107.624 221.817 107.464L221.523 107.176C221.427 107.08 221.324 106.984 221.235 106.881C221.174 106.825 221.116 106.765 221.062 106.702C220.96 106.6 220.864 106.491 220.768 106.388C220.672 106.286 220.563 106.177 220.473 106.075C220.384 105.972 220.326 105.921 220.262 105.844L219.904 105.441L219.449 104.904C218.787 104.105 218.167 103.272 217.593 102.408C217.363 102.062 217.15 101.716 216.953 101.371C216.857 101.224 216.768 101.07 216.684 100.916C216.601 100.763 216.588 100.75 216.544 100.667C216.499 100.584 216.358 100.334 216.268 100.168C216.179 100.001 216.006 99.6748 215.891 99.4124C215.814 99.2588 215.737 99.0988 215.667 98.9452C215.596 98.7916 215.52 98.6316 215.449 98.4716C215.452 98.4524 215.452 98.4332 215.449 98.414L215.244 97.9148C215.116 97.5908 214.995 97.2644 214.88 96.9356L214.822 96.7628C214.822 96.686 214.764 96.6028 214.745 96.526C214.726 96.4492 214.688 96.366 214.668 96.2892C214.496 95.7452 214.355 95.2012 214.233 94.6572C214.195 94.4844 214.15 94.3116 214.118 94.1324C214.067 93.8508 214.016 93.5628 213.971 93.2748C213.971 93.1084 213.926 92.9484 213.9 92.782C213.875 92.6156 213.862 92.4236 213.849 92.2444C213.83 92.1196 213.817 91.9932 213.811 91.8668C213.766 91.2716 213.74 90.6828 213.753 90.094V45.2368C213.753 45.3584 213.753 45.48 213.753 45.6016C213.753 45.7232 213.753 45.7296 213.753 45.7872V45.8768C213.757 45.8936 213.757 45.9111 213.753 45.928C213.753 46.0816 213.753 46.2288 213.753 46.3824V46.632C213.753 46.7408 213.753 46.856 213.753 46.9648C213.753 47.0736 213.792 47.3232 213.817 47.5024L213.875 47.88C213.875 47.9312 213.875 47.976 213.875 48.0272L213.971 48.5648C213.968 48.6052 213.968 48.6459 213.971 48.6864C213.971 48.7632 214.003 48.8336 214.016 48.9104L214.054 49.0768C214.057 49.098 214.057 49.1195 214.054 49.1408C214.054 49.1408 214.054 49.1856 214.054 49.2112C214.055 49.2261 214.055 49.2411 214.054 49.256C214.099 49.4608 214.15 49.6784 214.201 49.896C214.259 50.1264 214.323 50.3504 214.393 50.5808C214.464 50.8112 214.528 51.0096 214.598 51.2208C214.668 51.432 214.739 51.6432 214.816 51.8608L215.065 52.5008C215.068 52.5199 215.068 52.5392 215.065 52.5584L215.27 53.0384C215.34 53.192 215.411 53.3456 215.488 53.4992C215.564 53.6528 215.564 53.6656 215.603 53.7488L215.641 53.8256L215.731 53.9984L215.808 54.1584L215.897 54.3248L215.961 54.4592L216.038 54.6L216.262 54.8368C216.364 55.0288 216.473 55.2144 216.582 55.4064L216.729 55.656C216.812 55.7968 216.896 55.944 216.985 56.0848L217.228 56.4688C217.312 56.6096 217.408 56.7504 217.504 56.8976C220.185 60.9424 224.076 64.5068 228.851 67.5148L228.934 67.566L229.484 67.9052L230.124 68.2956C231.417 69.0828 232.774 69.806 234.182 70.4908Z" fill="#E1C95A" stroke="black" stroke-width="0.2" stroke-miterlimit="10"/>
<path d="M304.026 79.214V118.369C303.565 118.542 303.098 118.715 302.624 118.881L302.016 119.086C301.818 119.163 301.619 119.233 301.376 119.297C300.838 119.476 300.294 119.656 299.744 119.822C298.33 120.27 296.864 120.68 295.366 121.057L294.419 121.288L293.779 121.441C293.562 121.499 293.344 121.544 293.139 121.595C292.762 121.678 292.371 121.768 291.987 121.844C291.808 121.889 291.629 121.921 291.443 121.953C290.944 122.062 290.445 122.164 289.946 122.254L289.146 122.401L288.314 122.548L288.032 122.593L287.718 122.644C287.138 122.743 286.556 122.832 285.971 122.913V83.7644C288.378 83.4188 290.767 82.9796 293.139 82.446C296.838 81.622 300.476 80.542 304.026 79.214Z" fill="#FBE84C" stroke="black" stroke-width="0.2" stroke-linecap="round" stroke-linejoin="round"/>
<path d="M330.751 37.2624C330.706 37.832 330.636 38.3952 330.546 38.9584C330.275 40.573 329.82 42.1512 329.19 43.6624C328.652 44.9356 328.01 46.1623 327.27 47.3296C325.646 49.8813 323.673 52.1929 321.407 54.1968C318.97 56.3626 316.315 58.2694 313.484 59.8863C311.526 61.0103 309.506 62.0252 307.436 62.9264L306.527 63.3164L306.431 63.3548L305.298 63.822C304.889 63.9884 304.473 64.1484 304.018 64.3084L299.858 60.5968L299.122 59.9567L292.908 54.44L285.97 48.2768L279.026 42.1072L274.086 37.7168L272.044 35.9568L271.903 35.8864L263.263 30.8944L254.444 25.7744L245.625 20.6544L236.742 15.5792L230.898 12.2064C234.041 10.4052 237.329 8.87219 240.729 7.62395C244.165 6.35779 247.682 5.32299 251.257 4.52635C251.711 4.43035 252.159 4.32795 252.62 4.23835C254.421 3.86291 256.234 3.53859 258.06 3.26555C261.068 2.81755 264.095 2.51675 267.116 2.35035C270.527 2.16419 273.944 2.15139 277.356 2.31195C280.373 2.45275 283.338 2.72795 286.252 3.13755C288.168 3.40211 290.051 3.72211 291.903 4.09755C295.944 4.90499 299.919 6.01315 303.794 7.41275C307.194 8.64571 310.483 10.1659 313.625 11.9568C316.449 13.5458 319.096 15.4294 321.522 17.576C323.578 19.3988 325.395 21.4739 326.93 23.752C327.071 23.9632 327.212 24.1808 327.346 24.392C328.058 25.5241 328.677 26.712 329.196 27.944C329.836 29.4742 330.294 31.0746 330.559 32.712C330.649 33.2368 330.713 33.768 330.751 34.2928C330.827 35.2812 330.827 36.274 330.751 37.2624Z" fill="#FDF684" stroke="black" stroke-width="0.2" stroke-linecap="round" stroke-linejoin="round"/>
<path d="M240.717 73.2492L240.73 73.2556" stroke="black" stroke-width="0.2" stroke-linecap="round" stroke-linejoin="round"/>
<path d="M285.972 96.0716V122.913C284.91 123.067 283.841 123.208 282.772 123.323L281.882 123.412C281.537 123.451 281.191 123.489 280.852 123.515C280.513 123.54 280.161 123.579 279.815 123.604C279.374 123.643 278.919 123.668 278.471 123.7L277.14 123.784L276.097 123.828H275.335L274.369 123.86H273.415H270.708H269.965H269.21L267.93 123.816H267.738H267.226H266.637L265.261 123.739C264.621 123.694 263.981 123.649 263.341 123.592L262.932 123.553L261.607 123.432L260.186 123.272L259.405 123.176C258.426 123.054 257.485 122.92 256.493 122.766C255.968 122.683 255.444 122.6 254.919 122.504L254.496 122.427C254.215 122.384 253.94 122.333 253.671 122.273L252.788 122.107L251.636 121.87L250.541 121.627L249.357 121.352L248.186 121.064L247.444 120.872C246.919 120.731 246.4 120.59 245.888 120.436L244.749 120.116L243.629 119.764C242.887 119.528 242.144 119.284 241.428 119.028L240.468 118.683C240.071 118.542 239.674 118.388 239.284 118.235C238.573 117.96 237.882 117.684 237.191 117.39L236.18 116.942C235.501 116.641 234.836 116.302 234.183 116.014V89.1404C242.279 93.0828 252.103 95.6876 262.586 96.654C266.753 97.0388 270.941 97.1628 275.124 97.0252C276.647 96.9676 278.183 96.8908 279.719 96.7628C281.788 96.6052 283.873 96.3748 285.972 96.0716Z" fill="#E1C95A" stroke="black" stroke-width="0.2" stroke-miterlimit="10"/>
<path d="M272.217 44.5199L272.095 44.6031L251.673 58.5103L238.124 67.7964L238.169 67.7068C225.657 61.4799 218.54 53.6655 218.118 45.6975C217.766 38.7663 222.258 30.7919 231.839 24.4303C232.236 24.1679 232.646 23.9055 233.062 23.6431C233.426 23.4127 233.804 23.1823 234.182 22.9583L272.082 44.4495L272.217 44.5199Z" fill="#FDF684" stroke="black" stroke-width="0.2" stroke-linecap="round" stroke-linejoin="round"/>
<path d="M305.018 117.979C304.692 118.12 304.378 118.241 304.026 118.369" stroke="black" stroke-width="0.2" stroke-linecap="round" stroke-linejoin="round"/>
<path d="M236.18 116.916C235.501 116.622 234.836 116.276 234.183 115.988" stroke="black" stroke-width="0.2" stroke-linecap="round" stroke-linejoin="round"/>
<path d="M250.534 121.601L249.35 121.326" stroke="black" stroke-width="0.2" stroke-linecap="round" stroke-linejoin="round"/>
<path d="M262.925 123.528C262.483 123.496 262.042 123.451 261.6 123.406" stroke="black" stroke-width="0.2" stroke-linecap="round" stroke-linejoin="round"/>
<path d="M300.327 75.9564C295.08 77.5724 289.736 78.8548 284.327 79.7964L274.484 56.3087L272.25 50.9711L278.42 56.4623L300.327 75.9564Z" fill="#FDF684" stroke="black" stroke-width="0.2" stroke-linecap="round" stroke-linejoin="round"/>
<path d="M285.972 96.0716C283.894 96.3708 281.81 96.6012 279.719 96.7628C278.183 96.8908 276.647 96.9676 275.124 97.0252C270.941 97.1628 266.753 97.0388 262.586 96.654C252.103 95.6876 242.279 93.0828 234.183 89.1404L250.132 78.2604L272.218 63.2268L285.972 96.0716Z" fill="#FDF684" stroke="black" stroke-width="0.2" stroke-linecap="round" stroke-linejoin="round"/>
<path d="M230.932 18.9455L230.912 12.2063" stroke="black" stroke-width="0.2" stroke-linecap="round" stroke-linejoin="round"/>
<path d="M238.17 67.7068L238.125 67.7964L234.823 70.0812L234.183 70.4908C232.775 69.806 231.418 69.0828 230.125 68.3148L229.485 67.9244L228.935 67.5852L228.851 67.534C223.687 64.142 219.783 60.4304 217.229 56.488L216.986 56.104C216.896 55.9632 216.813 55.816 216.73 55.6752L216.583 55.4256C216.474 55.2336 216.365 55.048 216.263 54.856L216.013 54.376C215.789 53.9408 215.578 53.4992 215.373 53.0576C215.168 52.616 215.008 52.1808 214.848 51.7392C214.784 51.56 214.72 51.3872 214.663 51.208C214.541 50.856 214.439 50.504 214.336 50.152C214.291 49.9728 214.247 49.8 214.195 49.6144L214.099 49.1856C214.102 49.1644 214.102 49.1428 214.099 49.1216C214.099 48.9872 214.042 48.8592 214.016 48.7312C214.014 48.6907 214.014 48.6501 214.016 48.6096L213.92 48.072C213.92 47.8928 213.863 47.72 213.837 47.5472C213.811 47.3744 213.792 47.1888 213.773 47.0096C213.754 46.8304 213.773 46.7856 213.773 46.6768V46.4272C213.773 46.2736 213.773 46.1264 213.773 45.9728C213.777 45.9559 213.777 45.9384 213.773 45.9216V45.8704C213.773 45.7424 213.773 45.6144 213.773 45.48C213.773 45.3456 213.773 45.288 213.773 45.192V45.2368C213.594 41.9082 214.312 38.5927 215.853 35.6368C215.891 35.5472 215.943 35.4576 215.987 35.3616C217.248 32.9283 218.849 30.6871 220.743 28.7056L221.184 28.2384L221.363 28.0656C223.213 26.1942 225.238 24.5053 227.411 23.0224C227.426 23.0061 227.443 22.9931 227.463 22.984C228.141 22.4784 228.743 22.0304 229.299 21.6656H229.338C230.24 21.0256 230.867 20.6992 230.957 20.7952L234.183 22.9584C233.805 23.1824 233.427 23.4128 233.063 23.6432C232.647 23.9056 232.237 24.168 231.84 24.4304C222.24 30.792 217.76 38.7664 218.119 45.6976C218.541 53.6656 225.658 61.48 238.17 67.7068Z" fill="black"/>
<path d="M304.026 79.214C300.478 80.5316 296.843 81.6004 293.146 82.414C290.778 82.9476 288.389 83.3868 285.978 83.7324L285.185 81.8508L285.14 81.7292L284.295 79.7964C289.704 78.8548 295.048 77.5724 300.295 75.9564L301.991 77.4668L302.228 77.678L304.026 79.214Z" fill="black"/>
<path d="M272.218 44.5199L234.195 22.9583L230.938 20.7695L230.931 18.9455L230.925 12.2063L236.768 15.5791L245.581 20.6671L254.4 25.7615L263.219 30.8495L271.885 35.8543L271.898 35.8607L272.032 35.9375L272.218 44.5199Z" fill="#FBE84C" stroke="black" stroke-width="0.2" stroke-linecap="round" stroke-linejoin="round"/>
<path d="M313.486 59.8736L272.039 35.9312" stroke="black" stroke-width="0.2" stroke-linecap="round" stroke-linejoin="round"/>
<path d="M321.407 54.1903L316.178 51.1696L307.359 46.0815L298.546 40.9871L289.727 35.8991L280.914 30.8111L272.095 25.7231L263.276 20.6287L254.463 15.5407L245.651 10.4527L240.755 7.62395" stroke="black" stroke-width="0.2" stroke-linecap="round" stroke-linejoin="round"/>
<path d="M252.646 4.23834L254.534 5.31994L263.347 10.4079L272.166 15.5023L280.979 20.5967H280.986L289.798 25.6847L298.611 30.7727L307.43 35.8607L316.243 40.9551L325.062 46.0431L327.283 47.3295" stroke="black" stroke-width="0.2" stroke-linecap="round" stroke-linejoin="round"/>
<path d="M267.142 2.35034L272.224 5.28154L281.043 10.3759L289.862 15.4639L298.675 20.5583L307.494 25.6463L316.307 30.7343L325.126 35.8223L330.547 38.9583" stroke="black" stroke-width="0.2" stroke-linecap="round" stroke-linejoin="round"/>
<path d="M286.266 3.13754L289.927 5.24954L298.74 10.3375L307.559 15.4319L316.372 20.5199L325.191 25.6079L329.198 27.9183" stroke="black" stroke-width="0.2" stroke-linecap="round" stroke-linejoin="round"/>
<path d="M258.092 3.26555L254.527 5.31995L245.65 10.4527L236.767 15.5791" stroke="black" stroke-width="0.2" stroke-linecap="round" stroke-linejoin="round"/>
<path d="M245.581 20.6672L254.464 15.5408L263.348 10.4079L272.225 5.28155L277.37 2.31195" stroke="black" stroke-width="0.2" stroke-linecap="round" stroke-linejoin="round"/>
<path d="M254.4 25.7615L263.277 20.6351L272.16 15.4959L281.043 10.3695L289.926 5.24315L291.917 4.09755" stroke="black" stroke-width="0.2" stroke-linecap="round" stroke-linejoin="round"/>
<path d="M263.219 30.8496L272.095 25.7168L280.978 20.5904L289.862 15.4639L298.738 10.3375L303.807 7.41275" stroke="black" stroke-width="0.2" stroke-linecap="round" stroke-linejoin="round"/>
<path d="M272.039 35.9375L280.916 30.8111L289.799 25.6847L298.676 20.5583L307.559 15.4319L313.626 11.9247" stroke="black" stroke-width="0.2" stroke-linecap="round" stroke-linejoin="round"/>
<path d="M279.027 42.0815L280.845 41.0319L289.728 35.8991L298.611 30.7727L307.494 25.6463L316.371 20.5199L321.523 17.5439" stroke="black" stroke-width="0.2" stroke-linecap="round" stroke-linejoin="round"/>
<path d="M327.347 24.3663L325.19 25.6079L316.307 30.7343L307.43 35.8607L298.547 40.9871L289.664 46.1199L285.965 48.2511" stroke="black" stroke-width="0.2" stroke-linecap="round" stroke-linejoin="round"/>
<path d="M292.909 54.4207L298.483 51.2079L307.36 46.0815L316.243 40.9551L325.126 35.8223L330.56 32.6863" stroke="black" stroke-width="0.2" stroke-linecap="round" stroke-linejoin="round"/>
<path d="M299.858 60.5968L307.295 56.296L316.178 51.1696L325.062 46.0432L329.19 43.656" stroke="black" stroke-width="0.2" stroke-linecap="round" stroke-linejoin="round"/>
<path d="M304.026 64.302V79.214L302.26 77.646L302.023 77.4348L300.327 75.9244L278.388 56.4368L272.218 50.9455V44.52L272.033 35.9376L272.039 35.9312L274.081 37.6912L279.022 42.0816L285.966 48.2512L285.972 48.2576L292.91 54.4208L299.124 59.9376L299.86 60.5968L304.026 64.302Z" fill="#E1C95A" stroke="black" stroke-width="0.2" stroke-miterlimit="10"/>
<path d="M285.971 83.7644V96.0716L272.217 63.246V50.9455L274.45 56.2831L284.294 79.7708L285.12 81.7292L285.165 81.8508L285.177 81.8828L285.971 83.7644Z" fill="#E1C95A" stroke="black" stroke-width="0.2" stroke-miterlimit="10"/>
<path d="M272.218 44.5199V63.246L250.132 78.2796L234.183 89.134V70.4908L234.791 70.0812L238.125 67.7964L251.674 58.5103L272.218 44.5199Z" fill="#FBE84C" stroke="black" stroke-width="0.2" stroke-linecap="round" stroke-linejoin="round"/>
<path d="M228.787 67.534C219.526 73.4668 214.099 81.1404 213.6 89.134M234.72 70.0812L234.118 70.4972M274.387 56.2831C273.645 56.2831 272.896 56.2831 272.147 56.2831C265.241 56.2991 258.356 57.0521 251.61 58.5295M303.942 79.214C300.396 80.5364 296.76 81.606 293.062 82.414C290.686 82.9476 288.294 83.3868 285.888 83.7324M330.72 89.102C330.51 85.0332 329.17 81.1036 326.848 77.7548C322.758 71.598 315.878 66.542 307.354 62.8879C306.253 63.37 305.116 63.8308 303.942 64.27L299.059 59.9567C292.31 57.9974 285.36 56.8163 278.342 56.4367" stroke="black" stroke-width="0.2" stroke-linecap="round" stroke-linejoin="round" stroke-dasharray="0.8 1.6"/>
<path d="M262.522 96.654L234.125 115.982" stroke="black" stroke-width="0.2" stroke-linecap="round" stroke-linejoin="round" stroke-dasharray="0.8 1.6"/>
<path d="M285.906 122.913L275.058 97.0252C276.588 96.974 278.118 96.8908 279.654 96.7628C281.74 96.6052 283.825 96.3748 285.906 96.0716" stroke="black" stroke-width="0.2" stroke-linecap="round" stroke-linejoin="round" stroke-dasharray="0.8 1.6"/>
<path d="M303.962 118.369L285.907 102.324L279.654 96.7628" stroke="black" stroke-width="0.2" stroke-linecap="round" stroke-linejoin="round" stroke-dasharray="0.8 1.6"/>
<path d="M250.067 78.286L240.666 73.2556L240.653 73.2492L234.727 70.0812" stroke="black" stroke-width="0.2" stroke-linecap="round" stroke-linejoin="round" stroke-dasharray="0.8 1.6"/>
<path d="M33.736 50.3124C31.5387 48.0724 30.44 45.2351 30.44 41.8004C30.44 38.3658 31.5387 35.5391 33.736 33.3204C35.9547 31.0804 38.7493 29.9604 42.12 29.9604C45.4907 29.9604 48.2747 31.0804 50.472 33.3204C52.6907 35.5391 53.8 38.3658 53.8 41.8004C53.8 45.2351 52.6907 48.0724 50.472 50.3124C48.2747 52.5311 45.4907 53.6404 42.12 53.6404C38.7493 53.6404 35.9547 52.5311 33.736 50.3124ZM35.784 35.2084C34.1413 36.8938 33.32 39.0911 33.32 41.8004C33.32 44.5098 34.1413 46.7071 35.784 48.3924C37.4267 50.0778 39.5387 50.9204 42.12 50.9204C44.7013 50.9204 46.8133 50.0778 48.456 48.3924C50.0987 46.7071 50.92 44.5098 50.92 41.8004C50.92 39.0911 50.0987 36.8938 48.456 35.2084C46.8133 33.5231 44.7013 32.6804 42.12 32.6804C39.5387 32.6804 37.4267 33.5231 35.784 35.2084ZM56.53 44.3604C56.53 39.5391 57.4153 36.0404 59.186 33.8644C60.9567 31.6884 63.5913 30.6004 67.09 30.6004H70.93V33.3204H67.09C64.5513 33.3204 62.6527 33.9178 61.394 35.1124C60.1567 36.2858 59.3887 38.1951 59.09 40.8404H59.122C59.442 40.3711 59.8687 39.9444 60.402 39.5604C61.5967 38.7071 63.026 38.2804 64.69 38.2804C66.866 38.2804 68.658 38.9951 70.066 40.4244C71.4953 41.8324 72.21 43.6244 72.21 45.8004C72.21 47.9978 71.474 49.8004 70.002 51.2084C68.5513 52.6164 66.674 53.3204 64.37 53.3204C62.002 53.3204 60.1033 52.5311 58.674 50.9524C57.2447 49.3738 56.53 47.1764 56.53 44.3604ZM60.594 42.1524C59.5913 43.1338 59.09 44.3498 59.09 45.8004C59.09 47.2511 59.5913 48.4671 60.594 49.4484C61.5967 50.4298 62.8553 50.9204 64.37 50.9204C65.8847 50.9204 67.1433 50.4298 68.146 49.4484C69.1487 48.4671 69.65 47.2511 69.65 45.8004C69.65 44.3498 69.1487 43.1338 68.146 42.1524C67.1433 41.1711 65.8847 40.6804 64.37 40.6804C62.8553 40.6804 61.5967 41.1711 60.594 42.1524ZM75.3963 53.0004V37.0004H77.9563V50.6004H84.3563V37.0004H86.9163V50.6004H93.3163V37.0004H95.8763V50.6004H98.1163V56.6804H95.5563V53.0004H75.3963ZM102.21 50.9524C100.652 49.3738 99.8738 47.3898 99.8738 45.0004C99.8738 42.6111 100.652 40.6271 102.21 39.0484C103.767 37.4698 105.708 36.6804 108.034 36.6804C110.359 36.6804 112.3 37.4591 113.858 39.0164C115.415 40.5738 116.194 42.5151 116.194 44.8404V45.8004H102.434C102.604 47.2938 103.212 48.5204 104.258 49.4804C105.303 50.4404 106.562 50.9204 108.034 50.9204C109.612 50.9204 110.967 50.4404 112.098 49.4804C112.61 49.0538 113.015 48.5738 113.314 48.0404H115.874C115.49 49.0431 114.946 49.9284 114.242 50.6964C112.578 52.4458 110.508 53.3204 108.034 53.3204C105.708 53.3204 103.767 52.5311 102.21 50.9524ZM102.498 43.5604H113.474C113.282 42.3018 112.695 41.2458 111.714 40.3924C110.732 39.5178 109.506 39.0804 108.034 39.0804C106.562 39.0804 105.324 39.5178 104.322 40.3924C103.319 41.2458 102.711 42.3018 102.498 43.5604ZM121.053 50.9524C119.517 49.3738 118.749 47.3898 118.749 45.0004C118.749 42.6111 119.517 40.6271 121.053 39.0484C122.589 37.4698 124.487 36.6804 126.749 36.6804C129.373 36.6804 131.453 37.6191 132.989 39.4964C133.65 40.3284 134.13 41.2564 134.429 42.2804H131.869C131.634 41.7044 131.282 41.1711 130.813 40.6804C129.789 39.6138 128.434 39.0804 126.749 39.0804C125.191 39.0804 123.89 39.6351 122.845 40.7444C121.821 41.8538 121.309 43.2724 121.309 45.0004C121.309 46.7284 121.842 48.1471 122.909 49.2564C123.975 50.3658 125.255 50.9204 126.749 50.9204C128.498 50.9204 129.895 50.3338 130.941 49.1604C131.41 48.6698 131.773 48.0831 132.029 47.4004H134.589C134.311 48.4884 133.821 49.4804 133.117 50.3764C131.495 52.3391 129.373 53.3204 126.749 53.3204C124.487 53.3204 122.589 52.5311 121.053 50.9524ZM135.723 39.4004V37.0004H149.483V39.4004H143.883V53.0004H141.323V39.4004H135.723ZM151.896 53.0004V37.0004H159.736C161.23 37.0004 162.403 37.3738 163.256 38.1204C164.11 38.8671 164.536 39.8271 164.536 41.0004C164.536 41.5338 164.462 42.0244 164.312 42.4724C164.163 42.8991 163.982 43.2404 163.768 43.4964C163.555 43.7311 163.32 43.9338 163.064 44.1044C162.83 44.2538 162.627 44.3604 162.456 44.4244C162.307 44.4671 162.2 44.4884 162.136 44.4884V44.5204C162.2 44.5204 162.328 44.5524 162.52 44.6164C162.712 44.6591 162.958 44.7764 163.256 44.9684C163.576 45.1391 163.875 45.3524 164.152 45.6084C164.43 45.8644 164.664 46.2378 164.856 46.7284C165.07 47.2191 165.176 47.7631 165.176 48.3604C165.176 49.7471 164.696 50.8671 163.736 51.7204C162.798 52.5738 161.475 53.0004 159.768 53.0004H151.896ZM154.456 43.5604H159.576C161.176 43.5604 161.976 42.8671 161.976 41.4804C161.976 40.0938 161.176 39.4004 159.576 39.4004H154.456V43.5604ZM154.456 50.6004H159.736C160.675 50.6004 161.39 50.3871 161.88 49.9604C162.371 49.5338 162.616 48.9471 162.616 48.2004C162.616 47.4538 162.371 46.8671 161.88 46.4404C161.39 46.0138 160.675 45.8004 159.736 45.8004H154.456V50.6004ZM170.117 50.9524C168.538 49.3738 167.749 47.3898 167.749 45.0004C167.749 42.6111 168.538 40.6271 170.117 39.0484C171.695 37.4698 173.679 36.6804 176.069 36.6804C178.458 36.6804 180.442 37.4698 182.021 39.0484C183.599 40.6271 184.389 42.6111 184.389 45.0004C184.389 47.3898 183.599 49.3738 182.021 50.9524C180.442 52.5311 178.458 53.3204 176.069 53.3204C173.679 53.3204 171.695 52.5311 170.117 50.9524ZM171.941 40.7444C170.853 41.8538 170.309 43.2724 170.309 45.0004C170.309 46.7284 170.853 48.1471 171.941 49.2564C173.029 50.3658 174.405 50.9204 176.069 50.9204C177.733 50.9204 179.109 50.3658 180.197 49.2564C181.285 48.1471 181.829 46.7284 181.829 45.0004C181.829 43.2724 181.285 41.8538 180.197 40.7444C179.109 39.6351 177.733 39.0804 176.069 39.0804C174.405 39.0804 173.029 39.6351 171.941 40.7444ZM186.296 48.0404H188.856C188.984 48.5738 189.23 49.0538 189.592 49.4804C190.382 50.4404 191.63 50.9204 193.336 50.9204C194.616 50.9204 195.598 50.6751 196.28 50.1844C196.984 49.6724 197.336 49.0644 197.336 48.3604C197.336 47.6564 197.016 47.0804 196.376 46.6324C195.736 46.1844 194.776 45.9604 193.496 45.9604H191.576V43.5604H193.496C195.843 43.5604 197.016 42.8138 197.016 41.3204C197.016 40.7018 196.696 40.1791 196.056 39.7524C195.438 39.3044 194.531 39.0804 193.336 39.0804C191.971 39.0804 190.883 39.4858 190.072 40.2964C189.774 40.5951 189.528 40.9898 189.336 41.4804H186.776C186.968 40.6058 187.342 39.8058 187.896 39.0804C189.155 37.4804 190.968 36.6804 193.336 36.6804C195.342 36.6804 196.878 37.1071 197.944 37.9604C199.032 38.8138 199.576 39.8804 199.576 41.1604C199.576 42.8884 198.691 44.0511 196.92 44.6484L196.856 44.6804V44.7124C196.92 44.7124 197.048 44.7444 197.24 44.8084C197.432 44.8724 197.678 45.0004 197.976 45.1924C198.296 45.3631 198.595 45.5871 198.872 45.8644C199.15 46.1204 199.384 46.4831 199.576 46.9524C199.79 47.4218 199.896 47.9444 199.896 48.5204C199.896 49.8858 199.32 51.0271 198.168 51.9444C197.016 52.8618 195.406 53.3204 193.336 53.3204C190.67 53.3204 188.696 52.4458 187.416 50.6964C186.862 49.9071 186.488 49.0218 186.296 48.0404ZM203.428 53.0004V37.0004H205.988V43.5604H214.948V37.0004H217.508V53.0004H214.948V45.9604H205.988V53.0004H203.428ZM223.27 50.9524C221.777 49.3524 221.03 47.3684 221.03 45.0004C221.03 42.6324 221.777 40.6591 223.27 39.0804C224.763 37.4804 226.577 36.6804 228.71 36.6804C230.054 36.6804 231.185 36.9364 232.102 37.4484C233.041 37.9604 233.723 38.5151 234.15 39.1124L234.438 39.5924H234.47V37.0004H237.03V53.0004H234.47V50.4404H234.438L234.15 50.8884C233.766 51.4644 233.105 52.0191 232.166 52.5524C231.227 53.0644 230.075 53.3204 228.71 53.3204C226.577 53.3204 224.763 52.5311 223.27 50.9524ZM225.126 40.7444C224.102 41.8538 223.59 43.2724 223.59 45.0004C223.59 46.7284 224.102 48.1471 225.126 49.2564C226.171 50.3658 227.473 50.9204 229.03 50.9204C230.587 50.9204 231.878 50.3658 232.902 49.2564C233.947 48.1471 234.47 46.7284 234.47 45.0004C234.47 43.2724 233.947 41.8538 232.902 40.7444C231.878 39.6351 230.587 39.0804 229.03 39.0804C227.473 39.0804 226.171 39.6351 225.126 40.7444ZM241.521 53.0004V37.0004H244.081V43.5604H253.041V37.0004H255.601V53.0004H253.041V45.9604H244.081V53.0004H241.521ZM260.084 53.0004V37.0004H262.644V49.0004L262.612 49.3204H262.676L271.284 37.0004H274.164V53.0004H271.604V41.0004L271.636 40.6804H271.572L262.964 53.0004H260.084ZM280.022 50.9524C278.465 49.3738 277.686 47.3898 277.686 45.0004C277.686 42.6111 278.465 40.6271 280.022 39.0484C281.58 37.4698 283.521 36.6804 285.846 36.6804C288.172 36.6804 290.113 37.4591 291.67 39.0164C293.228 40.5738 294.006 42.5151 294.006 44.8404V45.8004H280.246C280.417 47.2938 281.025 48.5204 282.07 49.4804C283.116 50.4404 284.374 50.9204 285.846 50.9204C287.425 50.9204 288.78 50.4404 289.91 49.4804C290.422 49.0538 290.828 48.5738 291.126 48.0404H293.686C293.302 49.0431 292.758 49.9284 292.054 50.6964C290.39 52.4458 288.321 53.3204 285.846 53.3204C283.521 53.3204 281.58 52.5311 280.022 50.9524ZM280.31 43.5604H291.286C291.094 42.3018 290.508 41.2458 289.526 40.3924C288.545 39.5178 287.318 39.0804 285.846 39.0804C284.374 39.0804 283.137 39.5178 282.134 40.3924C281.132 41.2458 280.524 42.3018 280.31 43.5604Z" fill="black"/>
</g>
<defs>
<linearGradient id="paint0_linear_274_474" x1="-11" y1="121.321" x2="206.001" y2="119.767" gradientUnits="userSpaceOnUse">
<stop/>
<stop offset="0.915" stop-opacity="0"/>
</linearGradient>
</defs>
</svg>
