<svg id="Слой_2" data-name="Слой 2" xmlns="http://www.w3.org/2000/svg" viewBox="0 0 1425.87 250.94">
  <defs>
    <style>
      .cls-1 {
        fill: none;
        stroke: #000;
        stroke-linecap: square;
        stroke-linejoin: round;
        stroke-width: 15px;
      }
    </style>
  </defs>
  <path d="M532.61,189.51q2.7,4.8.94,8.13c-1.19,2.23-3.58,3.34-7.19,3.34H498.21q-8.74,0-12.71-1.88t-6.88-7.92l-16.88-35q-4.38-8.76-8.55-8.75h-1.88v44.4c0,3.47-.67,5.86-2,7.19s-3.73,2-7.19,2h-30q-5.21,0-7.19-2t-2-7.19V62.15q0-5.2,2-7.19t7.19-2h30q5.2,0,7.19,2t2,7.19V105.3l2.3.21h1.46l23.34-44.19q2.93-5.43,5.63-6.88T495,53h29.81q5,0,6.56,2.71T530.47,63l-32.93,62.54a61.72,61.72,0,0,1,6.88,10.63Z" transform="translate(0.05 0)"/>
  <path d="M588.06,147.41q0,15,16.88,15t16.89-15V62.15c0-3.47.65-5.87,2-7.19s3.71-2,7.19-2h30c3.48,0,5.87.66,7.2,2s2,3.72,2,7.19v82.34q0,27.72-16.89,43.67T605,204.1q-31.47,0-48.36-15.94t-16.88-43.67V62.15c0-3.47.65-5.87,2-7.19s3.71-2,7.19-2h30c3.47,0,5.86.66,7.19,2s2,3.72,2,7.19Z" transform="translate(0.05 0)"/>
  <path d="M755.86,53q25,0,39.71,13.65t14.74,38.69q0,29.6-20.84,43.15a61.51,61.51,0,0,1,6.84,10.63l16,30.43q2.7,4.8.93,8.13T806.05,201H778q-8.34,0-13.13-2.82a19.68,19.68,0,0,1-7.71-9.06l-11.47-25q-4.38-9-10.63-9h-1v36.69c0,3.47-.67,5.86-2,7.19s-3.73,2-7.19,2h-30q-5.21,0-7.19-2t-2-7.19V62.15q0-5.2,2-7.19t7.19-2Zm4.58,51.9a10.22,10.22,0,0,0-2.71-7.4Q755,94.66,750,94.65H734V116h16a9.74,9.74,0,0,0,7.61-3.13,11.41,11.41,0,0,0,2.81-8Z" transform="translate(0.05 0)"/>
  <path d="M820.31,96.54q0-21.26,17.1-34t47.11-12.72q23.76,0,38.46,6.57a44,44,0,0,1,22,21.36q2.28,4.8,1,7.4c-.83,1.74-2.92,3.31-6.25,4.69l-25.64,10.84c-3.06,1.25-5.35,1.57-6.88.94s-3.13-2.46-4.8-5.52q-4.17-7.92-17.92-7.92-15,0-15,7.29,0,4.59,5.52,6.57t18,3.65q6.68,1,10.74,1.77t10.84,2.5a52.73,52.73,0,0,1,10.94,4,65.17,65.17,0,0,1,9.28,6.15,32.56,32.56,0,0,1,8,8.75,50.27,50.27,0,0,1,5,12,57.68,57.68,0,0,1,2.08,16q0,15.63-9.59,26.57a54.37,54.37,0,0,1-24.39,15.85,105.9,105.9,0,0,1-33.35,4.89q-23.34,0-40.23-7.81t-22.51-23.25c-1.12-3.19-1.22-5.69-.32-7.5s3-3.26,6.15-4.38l24-8.54q4.79-1.87,7.71-1.15t5.63,5.32q4.37,7.5,20.22,7.5,8.74,0,13.13-1.56c2.92-1,4.38-3,4.38-5.74s-1.67-4.79-5-6a90.19,90.19,0,0,0-15.84-3.54q-24-4-33.77-8.55Q820.31,127.2,820.31,96.54Z" transform="translate(0.05 0)"/>
  <path d="M1060.81,53c3.48,0,5.87.66,7.2,2s2,3.72,2,7.19V85.5q0,5.2-2,7.19c-1.33,1.32-3.72,2-7.2,2h-51.69v10.84h40c3.47,0,5.86.67,7.19,2s2,3.73,2,7.19v23.35c0,3.47-.67,5.86-2,7.19s-3.73,2-7.19,2h-40v11.88h53.19c3.48,0,5.87.66,7.2,2s2,3.72,2,7.19v23.56q0,5.21-2,7.19c-1.33,1.32-3.72,2-7.2,2H970q-5.21,0-7.19-2t-2-7.19V62.15q0-5.2,2-7.19T970,53Z" transform="translate(0.05 0)"/>
  <path d="M1110.63,156q9.8,0,13.45,3.75t3.65,13.34v12.72q0,9.58-3.76,13.24t-13.34,3.65h-12.09q-9.58,0-13.34-3.65t-3.75-13.24V173.05q0-9.57,3.65-13.34t13.44-3.75Z" transform="translate(0.05 0)"/>
  <path d="M1289.31,52.77c3.47,0,5.87.62,7.19,1.88s2,3.54,2,6.87v130.7c0,3.33-.67,5.63-2,6.88s-3.73,1.87-7.19,1.86h-29.6c-3.47,0-5.86-.63-7.19-1.88s-2-3.55-2-6.88V179.28a157.44,157.44,0,0,1,2.08-25.74q2.09-12.61,9.18-36.59h-2.47q-9.18,24.6-11.68,30.44l-9,20.63q-2.72,6-10.22,6h-18.34q-4.38,0-6.57-1.36a11.21,11.21,0,0,1-3.85-4.69l-9.34-20.56L1179.63,117h-2.5q7.08,26.89,8.85,38.36a157.84,157.84,0,0,1,1.78,24.18v12.71c0,3.33-.67,5.63-2,6.88s-3.72,1.88-7.2,1.88h-27.72q-5.21,0-7.19-1.88c-1.32-1.25-2-3.55-2-6.88V61.52q0-5,2-6.87c1.32-1.26,3.72-1.88,7.19-1.88h25.47q5.63,0,8.13,1.25t4.8,5.21l30.43,64.83,30.64-64.62q2.3-4.17,4.59-5.42c1.52-.83,4-1.25,7.5-1.25Z" transform="translate(0.05 0)"/>
  <path d="M1415.17,53q5.2,0,7.19,2c1.32,1.32,2,3.72,2,7.19V85.5q0,5.2-2,7.19c-1.33,1.32-3.72,2-7.19,2h-51.69v10.84h40c3.47,0,5.86.67,7.19,2s2,3.73,2,7.19v23.35c0,3.47-.67,5.86-2,7.19s-3.73,2-7.19,2h-40v11.88h53.15q5.2,0,7.19,2t2,7.19v23.56c0,3.47-.67,5.86-2,7.19s-3.73,2-7.19,2h-92.32c-3.48,0-5.87-.66-7.19-2s-2-3.72-2-7.19V62.15c0-3.47.65-5.87,2-7.19s3.71-2,7.19-2Z" transform="translate(0.05 0)"/>
  <path class="cls-1" d="M191.65,243.44c13.41,0,45-.2,68.07-9.15,22-8.51,35.93-25.46,35.93-38.22V137.61" transform="translate(0.05 0)"/>
  <path class="cls-1" d="M87.06,137.77v58.3c0,12.76,13.93,29.71,35.93,38.22,23.11,9,54.66,9.15,68.07,9.15" transform="translate(0.05 0)"/>
  <path d="M197.89,238.33c15.83-5.19,31.9-10.81,46.79-18.31,9.36-4.77,18.32-11.89,22.15-22C268.74,192.9,269,187.44,269,182a185.43,185.43,0,0,0-4.51-39.42l13.42-.41-.84,5.73c-1.68,11.5-2.14,22.83-3.05,34.28-.41,12.52-3.18,23.47-11.66,33.12a54.37,54.37,0,0,1-14,11.25c-15,8.82-30.78,15.54-46.87,22l-5,2L192.76,240l5.16-1.66Z" transform="translate(0.05 0)"/>
  <path d="M106.41,47.21c-14.44,29.4-1,52,25.39,67.22,24.63,13.75,53,20.53,81.18,20.91a199.64,199.64,0,0,0,55.41-5.81l2.34,10.27a185.85,185.85,0,0,1-58.25,2.71c-9.64-1.15-19.12-3-28.55-4.95-14.16-2.88-28.21-6.65-41.57-12.26-17.92-7.65-36.05-18.76-44.8-37-6.83-14.17-5-30.48.72-44.67l8.13,3.53Z" transform="translate(0.05 0)"/>
  <path d="M191.46,20.24,354,90.76l-66.28,28.48-24.3,10.44-72,30.94L94.91,119.38l-67-28.62L191.48,20.24m0-20.24a17.08,17.08,0,0,0-6.83,1.4L9.31,77a14.87,14.87,0,0,0,0,27.62L87,137.75l97.63,41.7a17.36,17.36,0,0,0,13.6,0l73.09-31.39,24.3-10.45,76.85-33a14.88,14.88,0,0,0,.05-27.6L198.31,1.42A17.3,17.3,0,0,0,191.43,0Z" transform="translate(0.05 0)"/>
</svg>
