<?xml version="1.0" encoding="UTF-8"?>
<svg version="1.1" xmlns="http://www.w3.org/2000/svg" width="88" height="92">
<path d="M0 0 C1.45792969 0.00290039 1.45792969 0.00290039 2.9453125 0.00585938 C3.95078125 0.01810547 4.95625 0.03035156 5.9921875 0.04296875 C7.46558594 0.04393555 7.46558594 0.04393555 8.96875 0.04492188 C15.64682262 0.08446309 22.22785621 0.52219734 28.8671875 1.23046875 C28.12548828 6.03271484 28.12548828 6.03271484 25.80078125 7.8125 C24.97707031 8.21855469 24.15335937 8.62460938 23.3046875 9.04296875 C22.47839844 9.46191406 21.65210937 9.88085938 20.80078125 10.3125 C20.16269531 10.61542969 19.52460937 10.91835938 18.8671875 11.23046875 C18.66411827 14.38911659 18.66411827 14.38911659 20.3671875 17.60546875 C21.73695387 20.91573747 22.18465827 22.73829028 21.8671875 26.23046875 C22.5890625 26.47796875 23.3109375 26.72546875 24.0546875 26.98046875 C31.23670583 30.1724769 34.35271627 35.3685671 37.1171875 42.41796875 C37.8671875 46.23046875 37.8671875 46.23046875 37.8671875 58.23046875 C27.3071875 58.89046875 16.7471875 59.55046875 5.8671875 60.23046875 C12.79071063 63.69223032 23.48220426 60.7082378 30.875 59.5703125 C31.86242187 59.45816406 32.84984375 59.34601563 33.8671875 59.23046875 C34.8671875 60.23046875 34.8671875 60.23046875 34.96484375 63.390625 C34.95324219 64.67839844 34.94164063 65.96617188 34.9296875 67.29296875 C34.92066406 68.58332031 34.91164063 69.87367187 34.90234375 71.203125 C34.89074219 72.20214844 34.87914063 73.20117188 34.8671875 74.23046875 C28.18433663 76.49126298 21.9133702 77.87449518 14.8671875 78.23046875 C13.42666016 78.32714844 13.42666016 78.32714844 11.95703125 78.42578125 C3.05268181 78.77046574 -3.9639623 76.85530036 -11.5078125 72.10546875 C-18.28369663 64.68426232 -19.94630321 57.09850585 -20.1328125 47.23046875 C-20.7928125 47.23046875 -21.4528125 47.23046875 -22.1328125 47.23046875 C-22.53113281 46.19986328 -22.53113281 46.19986328 -22.9375 45.1484375 C-23.29070313 44.24738281 -23.64390625 43.34632812 -24.0078125 42.41796875 C-24.35585938 41.52464844 -24.70390625 40.63132813 -25.0625 39.7109375 C-26.12113405 37.05335284 -26.12113405 37.05335284 -28.1328125 34.23046875 C-28.17362033 32.23088511 -28.17535606 30.23001621 -28.1328125 28.23046875 C-28.4628125 27.57046875 -28.7928125 26.91046875 -29.1328125 26.23046875 C-32.1727773 25.53709083 -32.1727773 25.53709083 -35.6953125 25.10546875 C-36.89285156 24.93789063 -38.09039062 24.7703125 -39.32421875 24.59765625 C-40.25105469 24.47648437 -41.17789063 24.3553125 -42.1328125 24.23046875 C-42.4628125 22.91046875 -42.7928125 21.59046875 -43.1328125 20.23046875 C-30.67431448 12.23046875 -30.67431448 12.23046875 -26.1328125 12.23046875 C-26.1328125 11.57046875 -26.1328125 10.91046875 -26.1328125 10.23046875 C-23.57155186 8.93629475 -21.00887892 7.64506091 -18.4453125 6.35546875 C-17.72408203 5.99066406 -17.00285156 5.62585938 -16.25976562 5.25 C-15.55400391 4.89550781 -14.84824219 4.54101562 -14.12109375 4.17578125 C-13.47696533 3.85109863 -12.83283691 3.52641602 -12.16918945 3.19189453 C-7.96588145 1.20740503 -4.69344839 -0.0222335 0 0 Z M-25.1328125 26.23046875 C-24.8028125 27.22046875 -24.4728125 28.21046875 -24.1328125 29.23046875 C-23.8028125 28.24046875 -23.4728125 27.25046875 -23.1328125 26.23046875 C-23.7928125 26.23046875 -24.4528125 26.23046875 -25.1328125 26.23046875 Z M-22.1328125 33.23046875 C-21.1328125 35.23046875 -21.1328125 35.23046875 -21.1328125 35.23046875 Z M3.8671875 42.23046875 C3.5371875 43.55046875 3.2071875 44.87046875 2.8671875 46.23046875 C7.1571875 46.23046875 11.4471875 46.23046875 15.8671875 46.23046875 C15.2071875 44.58046875 14.5471875 42.93046875 13.8671875 41.23046875 C10.05289007 39.68413195 7.38696103 40.17726752 3.8671875 42.23046875 Z " fill="#FAC53A" transform="translate(43.1328125,6.76953125)"/>
<path d="M0 0 C1.45792969 0.00290039 1.45792969 0.00290039 2.9453125 0.00585938 C3.95078125 0.01810547 4.95625 0.03035156 5.9921875 0.04296875 C7.46558594 0.04393555 7.46558594 0.04393555 8.96875 0.04492188 C15.64682262 0.08446309 22.22785621 0.52219734 28.8671875 1.23046875 C28.12548828 6.03271484 28.12548828 6.03271484 25.80078125 7.8125 C24.97707031 8.21855469 24.15335937 8.62460938 23.3046875 9.04296875 C22.47839844 9.46191406 21.65210937 9.88085938 20.80078125 10.3125 C20.16269531 10.61542969 19.52460937 10.91835938 18.8671875 11.23046875 C18.66411827 14.38911659 18.66411827 14.38911659 20.3671875 17.60546875 C21.73695387 20.91573747 22.18465827 22.73829028 21.8671875 26.23046875 C21.2071875 26.23046875 20.5471875 26.23046875 19.8671875 26.23046875 C19.3721875 24.74546875 19.3721875 24.74546875 18.8671875 23.23046875 C18.1246875 23.89046875 17.3821875 24.55046875 16.6171875 25.23046875 C13.8671875 27.23046875 13.8671875 27.23046875 9.8671875 27.23046875 C9.8671875 27.89046875 9.8671875 28.55046875 9.8671875 29.23046875 C6.53906728 30.24839706 3.20400299 31.24145268 -0.1328125 32.23046875 C-1.06738281 32.51664063 -2.00195312 32.8028125 -2.96484375 33.09765625 C-8.56397714 34.74215697 -13.29840212 35.56071839 -19.1328125 35.23046875 C-18.8028125 36.88046875 -18.4728125 38.53046875 -18.1328125 40.23046875 C-19.1228125 40.72546875 -19.1228125 40.72546875 -20.1328125 41.23046875 C-20.5659375 40.27140625 -20.5659375 40.27140625 -21.0078125 39.29296875 C-21.96104701 37.07840796 -21.96104701 37.07840796 -24.1328125 36.23046875 C-23.8440625 36.85695312 -23.5553125 37.4834375 -23.2578125 38.12890625 C-22.8865625 38.94617187 -22.5153125 39.7634375 -22.1328125 40.60546875 C-21.7615625 41.41757812 -21.3903125 42.2296875 -21.0078125 43.06640625 C-20.1328125 45.23046875 -20.1328125 45.23046875 -20.1328125 47.23046875 C-20.7928125 47.23046875 -21.4528125 47.23046875 -22.1328125 47.23046875 C-22.53113281 46.19986328 -22.53113281 46.19986328 -22.9375 45.1484375 C-23.29070313 44.24738281 -23.64390625 43.34632812 -24.0078125 42.41796875 C-24.35585938 41.52464844 -24.70390625 40.63132813 -25.0625 39.7109375 C-26.12113405 37.05335284 -26.12113405 37.05335284 -28.1328125 34.23046875 C-28.17362033 32.23088511 -28.17535606 30.23001621 -28.1328125 28.23046875 C-28.4628125 27.57046875 -28.7928125 26.91046875 -29.1328125 26.23046875 C-32.1727773 25.53709083 -32.1727773 25.53709083 -35.6953125 25.10546875 C-36.89285156 24.93789063 -38.09039062 24.7703125 -39.32421875 24.59765625 C-40.25105469 24.47648437 -41.17789063 24.3553125 -42.1328125 24.23046875 C-42.4628125 22.91046875 -42.7928125 21.59046875 -43.1328125 20.23046875 C-30.67431448 12.23046875 -30.67431448 12.23046875 -26.1328125 12.23046875 C-26.1328125 11.57046875 -26.1328125 10.91046875 -26.1328125 10.23046875 C-23.57155186 8.93629475 -21.00887892 7.64506091 -18.4453125 6.35546875 C-17.72408203 5.99066406 -17.00285156 5.62585938 -16.25976562 5.25 C-15.55400391 4.89550781 -14.84824219 4.54101562 -14.12109375 4.17578125 C-13.47696533 3.85109863 -12.83283691 3.52641602 -12.16918945 3.19189453 C-7.96588145 1.20740503 -4.69344839 -0.0222335 0 0 Z M-25.1328125 26.23046875 C-24.8028125 27.22046875 -24.4728125 28.21046875 -24.1328125 29.23046875 C-23.8028125 28.24046875 -23.4728125 27.25046875 -23.1328125 26.23046875 C-23.7928125 26.23046875 -24.4528125 26.23046875 -25.1328125 26.23046875 Z M-22.1328125 33.23046875 C-21.1328125 35.23046875 -21.1328125 35.23046875 -21.1328125 35.23046875 Z " fill="#444043" transform="translate(43.1328125,6.76953125)"/>
<path d="M0 0 C22.80127986 -0.20638953 22.80127986 -0.20638953 32 1 C31.78515625 3.32421875 31.78515625 3.32421875 31 6 C28.93359375 7.58203125 28.93359375 7.58203125 26.4375 8.8125 C25.61121094 9.23144531 24.78492188 9.65039062 23.93359375 10.08203125 C23.29550781 10.38496094 22.65742187 10.68789063 22 11 C21.79693077 14.15864784 21.79693077 14.15864784 23.5 17.375 C24.86976637 20.68526872 25.31747077 22.50782153 25 26 C24.34 26 23.68 26 23 26 C22.505 24.515 22.505 24.515 22 23 C21.2575 23.66 20.515 24.32 19.75 25 C17 27 17 27 13 27 C13 27.66 13 28.32 13 29 C9.67187978 30.01792831 6.33681549 31.01098393 3 32 C2.06542969 32.28617188 1.13085938 32.57234375 0.16796875 32.8671875 C-5.43116464 34.51168822 -10.16558962 35.33024964 -16 35 C-15.67 36.65 -15.34 38.3 -15 40 C-15.99 40.495 -15.99 40.495 -17 41 C-17.433125 40.0409375 -17.433125 40.0409375 -17.875 39.0625 C-18.82823451 36.84793921 -18.82823451 36.84793921 -21 36 C-20.71125 36.62648437 -20.4225 37.25296875 -20.125 37.8984375 C-19.75375 38.71570312 -19.3825 39.53296875 -19 40.375 C-18.62875 41.18710937 -18.2575 41.99921875 -17.875 42.8359375 C-17 45 -17 45 -17 47 C-17.66 47 -18.32 47 -19 47 C-19.26554687 46.31292969 -19.53109375 45.62585937 -19.8046875 44.91796875 C-20.15789063 44.01691406 -20.51109375 43.11585937 -20.875 42.1875 C-21.22304688 41.29417969 -21.57109375 40.40085938 -21.9296875 39.48046875 C-22.98832155 36.82288409 -22.98832155 36.82288409 -25 34 C-24.625 30.8125 -24.625 30.8125 -24 28 C-23.34 28.66 -22.68 29.32 -22 30 C-22.375 32.125 -22.375 32.125 -23 34 C-22.01 34 -21.02 34 -20 34 C-20.309375 32.948125 -20.309375 32.948125 -20.625 31.875 C-21.07850357 28.39813928 -20.27540277 26.22601877 -19 23 C-18.175 23.165 -17.35 23.33 -16.5 23.5 C-12.58727683 24.05896045 -8.94816827 24.06807187 -5 24 C-4.67 23.01 -4.34 22.02 -4 21 C-2.29296875 19.8671875 -2.29296875 19.8671875 -0.1875 18.875 C0.49957031 18.54242187 1.18664062 18.20984375 1.89453125 17.8671875 C3.91699695 17.03418678 5.86693207 16.46975429 8 16 C8 15.34 8 14.68 8 14 C9.32 14 10.64 14 12 14 C12 13.34 12 12.68 12 12 C12.92683594 11.50628906 13.85367188 11.01257812 14.80859375 10.50390625 C16.01827955 9.85686501 17.22791222 9.20972446 18.4375 8.5625 C19.04916016 8.23701172 19.66082031 7.91152344 20.29101562 7.57617188 C23.33716206 6.06284858 23.33716206 6.06284858 26 4 C13.13 2.515 13.13 2.515 0 1 C0 0.67 0 0.34 0 0 Z M-19 33 C-18 35 -18 35 -18 35 Z " fill="#2D2A30" transform="translate(40,7)"/>
<path d="M0 0 C0.66 1.32 1.32 2.64 2 4 C-2.57535556 11.27897475 -11.29369456 14.2257585 -19.2734375 16.4296875 C-24.42580903 17.50740418 -29.73439637 18.33971636 -35 18 C-36.87890625 16.6328125 -36.87890625 16.6328125 -38 15 C-38 14.34 -38 13.68 -38 13 C-36.97261719 12.81824219 -35.94523437 12.63648438 -34.88671875 12.44921875 C-27.49974818 11.11742031 -20.24922622 9.67462102 -13.0390625 7.55078125 C-11 7 -11 7 -9 7 C-9 6.34 -9 5.68 -9 5 C-7.88625 4.54625 -6.7725 4.0925 -5.625 3.625 C-2.03800992 2.27534014 -2.03800992 2.27534014 0 0 Z " fill="#928995" transform="translate(62,29)"/>
<path d="M0 0 C-0.66 0 -1.32 0 -2 0 C-2 0.66 -2 1.32 -2 2 C-0.02463255 1.65213292 -0.02463255 1.65213292 2 1 C2.33 0.34 2.66 -0.32 3 -1 C4.65 -1 6.3 -1 8 -1 C8.33 -0.01 8.66 0.98 9 2 C7.68 1.67 6.36 1.34 5 1 C5 1.99 5 2.98 5 4 C4.01 4 3.02 4 2 4 C1.67 4.66 1.34 5.32 1 6 C-1.32156597 6.40729228 -3.6568787 6.74438677 -6 7 C-6 7.66 -6 8.32 -6 9 C-10.29 9 -14.58 9 -19 9 C-7.5 -2.5 -7.5 -2.5 0 0 Z " fill="#514C51" transform="translate(22,19)"/>
<path d="M0 0 C3.10632548 0.24898882 6.20924688 0.52794177 9.3125 0.8125 C10.63411133 0.91788086 10.63411133 0.91788086 11.98242188 1.02539062 C13.25375977 1.14624023 13.25375977 1.14624023 14.55078125 1.26953125 C15.33106689 1.33760986 16.11135254 1.40568848 16.9152832 1.47583008 C19.39678671 2.0997659 20.37554081 3.06655277 22 5 C15.19925959 6.90420731 9.08076251 8.40850553 2 8 C2.33 9.65 2.66 11.3 3 13 C2.01 13.495 2.01 13.495 1 14 C0.06380187 10.84493858 -0.1057123 8.03413498 -0.0625 4.75 C-0.05347656 3.85796875 -0.04445313 2.9659375 -0.03515625 2.046875 C-0.02355469 1.37140625 -0.01195313 0.6959375 0 0 Z " fill="#464248" transform="translate(22,34)"/>
<path d="M0 0 C22.80127986 -0.20638953 22.80127986 -0.20638953 32 1 C31.78515625 3.32421875 31.78515625 3.32421875 31 6 C28.93359375 7.58203125 28.93359375 7.58203125 26.4375 8.8125 C25.61121094 9.23144531 24.78492187 9.65039062 23.93359375 10.08203125 C23.29550781 10.38496094 22.65742187 10.68789063 22 11 C22 14.61029169 22.96092582 17.55806676 24 21 C23.34 21 22.68 21 22 21 C21.80664062 20.43410156 21.61328125 19.86820313 21.4140625 19.28515625 C21.15367188 18.55167969 20.89328125 17.81820313 20.625 17.0625 C20.36976562 16.33160156 20.11453125 15.60070312 19.8515625 14.84765625 C19.14728587 12.81317884 19.14728587 12.81317884 17 12 C17 11.01 17 10.02 17 9 C17.56589844 8.72285156 18.13179687 8.44570312 18.71484375 8.16015625 C19.44832031 7.79792969 20.18179688 7.43570312 20.9375 7.0625 C21.66839844 6.70285156 22.39929688 6.34320312 23.15234375 5.97265625 C24.96249027 5.13628173 24.96249027 5.13628173 26 4 C13.13 2.515 13.13 2.515 0 1 C0 0.67 0 0.34 0 0 Z " fill="#0F0D10" transform="translate(40,7)"/>
<path d="M0 0 C0.7425 0.20625 1.485 0.4125 2.25 0.625 C2.25 1.615 2.25 2.605 2.25 3.625 C-5.13170435 6.27441533 -12.8572577 8.13420918 -20.75 7.625 C-22.62890625 6.2578125 -22.62890625 6.2578125 -23.75 4.625 C-23.75 3.965 -23.75 3.305 -23.75 2.625 C-22.56921875 2.57601562 -21.3884375 2.52703125 -20.171875 2.4765625 C-18.61456063 2.40151121 -17.05727009 2.32596439 -15.5 2.25 C-14.72269531 2.2190625 -13.94539063 2.188125 -13.14453125 2.15625 C-8.60828465 1.92362197 -4.15299224 -0.56631712 0 0 Z " fill="#ADA3B2" transform="translate(47.75,39.375)"/>
<path d="M0 0 C-0.66 0.66 -1.32 1.32 -2 2 C-2 2.66 -2 3.32 -2 4 C-1.01 3.67 -0.02 3.34 1 3 C1 3.66 1 4.32 1 5 C0.01 5 -0.98 5 -2 5 C-2 5.66 -2 6.32 -2 7 C-6.29 7 -10.58 7 -15 7 C-14.01 6.01 -13.02 5.02 -12 4 C-11.566875 3.484375 -11.13375 2.96875 -10.6875 2.4375 C-7.34031881 -0.4138025 -4.14741349 -1.38247116 0 0 Z " fill="#66626A" transform="translate(18,21)"/>
<path d="M0 0 C0.66 0.33 1.32 0.66 2 1 C2.4140625 3.06640625 2.4140625 3.06640625 2.625 5.5625 C2.69976563 6.38878906 2.77453125 7.21507812 2.8515625 8.06640625 C2.90054687 8.70449219 2.94953125 9.34257813 3 10 C2.01 10.495 2.01 10.495 1 11 C0.34 10.67 -0.32 10.34 -1 10 C-0.71125 10.62648438 -0.4225 11.25296875 -0.125 11.8984375 C0.24625 12.71570312 0.6175 13.53296875 1 14.375 C1.556875 15.59316406 1.556875 15.59316406 2.125 16.8359375 C3 19 3 19 3 21 C2.34 21 1.68 21 1 21 C0.73445313 20.31292969 0.46890625 19.62585938 0.1953125 18.91796875 C-0.15789063 18.01691406 -0.51109375 17.11585937 -0.875 16.1875 C-1.22304688 15.29417969 -1.57109375 14.40085937 -1.9296875 13.48046875 C-2.98832155 10.82288409 -2.98832155 10.82288409 -5 8 C-4.625 4.8125 -4.625 4.8125 -4 2 C-3.34 2.66 -2.68 3.32 -2 4 C-2.375 6.125 -2.375 6.125 -3 8 C-2.01 8 -1.02 8 0 8 C-0.185625 7.236875 -0.37125 6.47375 -0.5625 5.6875 C-1 3 -1 3 0 0 Z M1 7 C2 9 2 9 2 9 Z " fill="#16150B" transform="translate(20,33)"/>
<path d="M0 0 C0 0.99 0 1.98 0 3 C-1.98 3.99 -1.98 3.99 -4 5 C-0.37 5.33 3.26 5.66 7 6 C5.68 6.33 4.36 6.66 3 7 C3 7.66 3 8.32 3 9 C3.99 9.33 4.98 9.66 6 10 C1.71 9.67 -2.58 9.34 -7 9 C-7.33 7.68 -7.66 6.36 -8 5 C-4.04 2.525 -4.04 2.525 0 0 Z " fill="#302D32" transform="translate(8,22)"/>
<path d="M0 0 C4.29 0 8.58 0 13 0 C13 0.99 13 1.98 13 3 C11.40119187 3.41694996 9.79558739 3.80790856 8.1875 4.1875 C7.29417969 4.40792969 6.40085937 4.62835938 5.48046875 4.85546875 C3 5 3 5 1.17578125 3.67578125 C0 2 0 2 0 0 Z " fill="#BAB0C6" transform="translate(24,42)"/>
<path d="M0 0 C0.66 1.32 1.32 2.64 2 4 C-1.44615385 8.8 -1.44615385 8.8 -4.25 9.8125 C-4.8275 9.874375 -5.405 9.93625 -6 10 C-6.12375 9.360625 -6.2475 8.72125 -6.375 8.0625 C-6.684375 7.0415625 -6.684375 7.0415625 -7 6 C-7.66 5.67 -8.32 5.34 -9 5 C-7.88625 4.54625 -6.7725 4.0925 -5.625 3.625 C-2.03800992 2.27534014 -2.03800992 2.27534014 0 0 Z " fill="#635A61" transform="translate(62,29)"/>
<path d="M0 0 C-3.33536869 3.89126347 -7.26210499 6.17099741 -12 8 C-12.99 8 -13.98 8 -15 8 C-15 7.34 -15 6.68 -15 6 C-14.01 6 -13.02 6 -12 6 C-11.67 5.01 -11.34 4.02 -11 3 C-9.2578125 1.796875 -9.2578125 1.796875 -7.125 0.75 C-6.42632812 0.39421875 -5.72765625 0.0384375 -5.0078125 -0.328125 C-3 -1 -3 -1 0 0 Z " fill="#1C191F" transform="translate(47,25)"/>
<path d="M0 0 C0.66 0.33 1.32 0.66 2 1 C0.47005208 2.20442708 -1.05989583 3.40885417 -2.58984375 4.61328125 C-4.27155077 6.05683091 -4.27155077 6.05683091 -5 9 C-7.0625 9.6875 -7.0625 9.6875 -9 10 C-9.33 9.34 -9.66 8.68 -10 8 C-10.66 8 -11.32 8 -12 8 C-12 7.34 -12 6.68 -12 6 C-10.04669132 4.96958487 -8.08718472 3.9509107 -6.125 2.9375 C-5.03445312 2.36902344 -3.94390625 1.80054688 -2.8203125 1.21484375 C-1.42425781 0.61349609 -1.42425781 0.61349609 0 0 Z " fill="#2E2C30" transform="translate(29,11)"/>
<path d="M0 0 C0.99 0.33 1.98 0.66 3 1 C3.33333333 2.33333333 3.66666667 3.66666667 4 5 C4.99 5.33 5.98 5.66 7 6 C6.67 7.65 6.34 9.3 6 11 C2.5126363 8.79133632 1.18575914 6.95253048 0 3 C0 2.01 0 1.02 0 0 Z " fill="#C5B54A" transform="translate(19,43)"/>
<path d="M0 0 C2.64 0.66 5.28 1.32 8 2 C8 2.66 8 3.32 8 4 C9.32 4.33 10.64 4.66 12 5 C8.7600034 6.07999887 7.61636465 5.92129428 4.375 5.1875 C3.18003906 4.93033203 3.18003906 4.93033203 1.9609375 4.66796875 C0 4 0 4 -1 2 C-0.67 1.34 -0.34 0.68 0 0 Z " fill="#353238" transform="translate(21,30)"/>
<path d="M0 0 C2.64 0 5.28 0 8 0 C7.01 0.33 6.02 0.66 5 1 C5.33 1.99 5.66 2.98 6 4 C5.01 4.33 4.02 4.66 3 5 C1.5 3.625 1.5 3.625 0 2 C0 1.34 0 0.68 0 0 Z " fill="#B5AAB9" transform="translate(24,42)"/>
<path d="M0 0 C0 0.99 0 1.98 0 3 C-0.61875 3.2475 -1.2375 3.495 -1.875 3.75 C-4.35068687 5.20628639 -4.95125002 6.37812506 -6 9 C-6.66 7.68 -7.32 6.36 -8 5 C-4.04 2.525 -4.04 2.525 0 0 Z " fill="#1C1B1E" transform="translate(8,22)"/>
<path d="M0 0 C3.04386724 -0.08226668 5.07175348 0.02391783 8 1 C7.67 1.99 7.34 2.98 7 4 C4.9375 4.6875 4.9375 4.6875 3 5 C2.87625 4.360625 2.7525 3.72125 2.625 3.0625 C2.315625 2.0415625 2.315625 2.0415625 2 1 C1.34 0.67 0.68 0.34 0 0 Z " fill="#6D6364" transform="translate(53,34)"/>
<path d="M0 0 C2.31 0.33 4.62 0.66 7 1 C6.34 2.65 5.68 4.3 5 6 C4.01 5.67 3.02 5.34 2 5 C0.8125 2.4375 0.8125 2.4375 0 0 Z " fill="#575157" transform="translate(16,26)"/>
<path d="M0 0 C0.33 0.99 0.66 1.98 1 3 C-5.0546875 3.9765625 -5.0546875 3.9765625 -7 4 C-7.66 3.34 -8.32 2.68 -9 2 C-2.25 0 -2.25 0 0 0 Z " fill="#827A89" transform="translate(55,35)"/>
<path d="M0 0 C1.98 0 3.96 0 6 0 C6.33 0.99 6.66 1.98 7 3 C5.68 2.67 4.36 2.34 3 2 C3 2.99 3 3.98 3 5 C2.34 5 1.68 5 1 5 C0.67 3.35 0.34 1.7 0 0 Z " fill="#5B4F46" transform="translate(24,18)"/>
</svg>
