<?xml version="1.0" encoding="UTF-8"?>
<svg version="1.1" xmlns="http://www.w3.org/2000/svg" width="666" height="113">
<path d="M0 0 C0.99265869 0.01095703 1.98531738 0.02191406 3.00805664 0.03320312 C12.76678343 0.17581338 22.50971057 0.65256713 32.25 1.25 C32.745 6.2 32.745 6.2 33.25 11.25 C34.054375 10.1775 34.85875 9.105 35.6875 8 C39.28680602 3.2009253 44.87108561 0.79778602 50.69262695 -0.14599609 C53.20546915 -0.3200868 55.66918526 -0.35677009 58.1875 -0.3125 C59.06486816 -0.30226807 59.94223633 -0.29203613 60.84619141 -0.28149414 C69.60992723 0.00606849 75.68667125 2.22186508 81.75 8.6875 C86.2137736 14.07257571 86.53063989 19.95176773 86.375 26.625 C86.33375 29.14125 86.2925 31.6575 86.25 34.25 C70.905 34.745 70.905 34.745 55.25 35.25 C58.00247812 36.16749271 59.65123255 36.37850041 62.48828125 36.3828125 C63.71901367 36.38474609 63.71901367 36.38474609 64.97460938 36.38671875 C66.25561523 36.38091797 66.25561523 36.38091797 67.5625 36.375 C68.82610352 36.38080078 68.82610352 36.38080078 70.11523438 36.38671875 C71.35176758 36.38478516 71.35176758 36.38478516 72.61328125 36.3828125 C73.35876221 36.38168457 74.10424316 36.38055664 74.87231445 36.37939453 C77.68597428 36.22627412 80.47051634 35.71324728 83.25 35.25 C83.25 39.87 83.25 44.49 83.25 49.25 C71.47844383 54.77542433 57.16511002 54.41157932 44.91015625 50.50390625 C38.75228477 47.84455676 34.17439028 42.89554463 31.06640625 37.0078125 C29.98287234 33.34764531 29.99752838 29.84111255 30.0625 26.0625 C30.06314453 25.33869141 30.06378906 24.61488281 30.06445312 23.86914062 C30.10913848 18.53172304 30.10913848 18.53172304 31.25 16.25 C29.93 16.58 28.61 16.91 27.25 17.25 C27.3325 18.24 27.415 19.23 27.5 20.25 C27.5 24.81012369 25.85694309 28.54878451 23.25 32.25 C20.3275203 34.9273685 17.94687303 35.75843285 14.0625 36.375 C13.1034375 36.5296875 12.144375 36.684375 11.15625 36.84375 C7.19253383 37.39781785 3.23313998 37.85821574 -0.75 38.25 C3.08627616 40.16813808 8.15240035 39.54015 12.421875 39.59179688 C18.81265684 39.81778669 22.55792138 41.46116591 27.09765625 46.1640625 C29.35447469 50.24928639 28.81974458 54.73788492 28.25 59.25 C26.03628678 64.32309279 23.08931328 66.2482085 18.25 68.48828125 C12.02424991 70.85941654 5.65618749 70.43605466 -0.91186523 70.43530273 C-3.04496428 70.43748208 -5.17753969 70.45563727 -7.31054688 70.47460938 C-8.68228992 70.47754527 -10.05403539 70.47952875 -11.42578125 70.48046875 C-13.2807019 70.48663208 -13.2807019 70.48663208 -15.1730957 70.49291992 C-19.03132873 70.23089399 -22.0868429 69.4367559 -25.75 68.25 C-25.75 63.63 -25.75 59.01 -25.75 54.25 C-24.51378906 54.41371094 -23.27757813 54.57742187 -22.00390625 54.74609375 C-16.22736922 55.3879312 -10.49297416 55.36011588 -4.6875 55.3125 C-3.63111328 55.30798828 -2.57472656 55.30347656 -1.48632812 55.29882812 C1.09250908 55.28715918 3.67122294 55.27078885 6.25 55.25 C5.52409668 55.20512451 4.79819336 55.16024902 4.05029297 55.11401367 C0.74085052 54.90185638 -2.56691791 54.66987081 -5.875 54.4375 C-7.58816406 54.33211914 -7.58816406 54.33211914 -9.3359375 54.22460938 C-20.16543952 53.43758161 -20.16543952 53.43758161 -24.75 50.25 C-27.20717992 46.56423012 -27.44957317 43.53072154 -26.75 39.25 C-24.875 36.25 -24.875 36.25 -22.75 34.25 C-22.09 34.25 -21.43 34.25 -20.75 34.25 C-21.9565625 32.8578125 -21.9565625 32.8578125 -23.1875 31.4375 C-27.24975705 26.75028033 -27.02981975 22.18423022 -26.96484375 16.19921875 C-26.60455473 11.25343306 -25.01243602 8.51243602 -21.5625 5.0625 C-14.43822889 0.47130306 -8.26803185 -0.18496402 0 0 Z M-5.75 15.25 C-6.08333333 18.25 -6.08333333 18.25 -5.75 21.25 C-3.96630633 23.45162356 -3.96630633 23.45162356 -1.62109375 23.48046875 C-0.41646484 23.45919922 -0.41646484 23.45919922 0.8125 23.4375 C1.61816406 23.43105469 2.42382812 23.42460938 3.25390625 23.41796875 C5.24879885 23.46630912 5.24879885 23.46630912 6.25 22.25 C6.50003964 18.79178598 6.50003964 18.79178598 6.25 15.25 C4.4935669 13.09294485 4.4935669 13.09294485 2.375 12.984375 C1.67375 12.98953125 0.9725 12.9946875 0.25 13 C-0.45125 12.99484375 -1.1525 12.9896875 -1.875 12.984375 C-3.9935669 13.09294485 -3.9935669 13.09294485 -5.75 15.25 Z M53.25 16.5625 C51.9950988 18.35322171 51.9950988 18.35322171 52.25 21.25 C56.54 21.25 60.83 21.25 65.25 21.25 C64.8047002 16.61980013 64.8047002 16.61980013 63.25 15.25 C57.96016229 14.7157577 57.96016229 14.7157577 53.25 16.5625 Z " fill="#FCC63A" transform="translate(118.75,31.75)"/>
<path d="M0 0 C5.84830148 0.55494832 11.69605564 0.97025497 17.55859375 1.34375 C20.33874289 1.59365105 22.96685186 2.01476116 25.6875 2.625 C25.6875 3.945 25.6875 5.265 25.6875 6.625 C22.0575 8.605 18.4275 10.585 14.6875 12.625 C15.3475 14.171875 16.0075 15.71875 16.6875 17.3125 C18.23800009 20.94648459 18.91572613 23.66670312 18.6875 27.625 C19.533125 27.79 20.37875 27.955 21.25 28.125 C26.7920023 30.54332828 30.47321086 34.83927786 32.8828125 40.3671875 C33.86354687 44.33773345 33.90731313 47.93478198 33.8125 52 C33.77125 54.51625 33.73 57.0325 33.6875 59.625 C18.3425 60.12 18.3425 60.12 2.6875 60.625 C5.43997812 61.54249271 7.08873255 61.75350041 9.92578125 61.7578125 C11.15651367 61.75974609 11.15651367 61.75974609 12.41210938 61.76171875 C13.69311523 61.75591797 13.69311523 61.75591797 15 61.75 C16.26360352 61.75580078 16.26360352 61.75580078 17.55273438 61.76171875 C18.78926758 61.75978516 18.78926758 61.75978516 20.05078125 61.7578125 C20.79626221 61.75668457 21.54174316 61.75555664 22.30981445 61.75439453 C25.12347428 61.60127412 27.90801634 61.08824728 30.6875 60.625 C30.6875 65.245 30.6875 69.865 30.6875 74.625 C18.91594383 80.15042433 4.60261002 79.78657932 -7.65234375 75.87890625 C-13.81901755 73.21575538 -18.46722219 68.2427157 -21.5 62.296875 C-22.49424379 59.02734253 -22.50641529 56.22380692 -22.4375 52.8125 C-22.41945313 51.65105469 -22.40140625 50.48960938 -22.3828125 49.29296875 C-22.35960938 48.41253906 -22.33640625 47.53210937 -22.3125 46.625 C-23.26769531 46.43744141 -23.26769531 46.43744141 -24.2421875 46.24609375 C-26.3125 45.625 -26.3125 45.625 -27.4375 43.6875 C-28.4460944 40.15741959 -29.12651696 36.61395746 -29.8046875 33.0078125 C-30.36077708 30.39846909 -31.18437725 28.04240588 -32.3125 25.625 C-32.91578125 25.57601563 -33.5190625 25.52703125 -34.140625 25.4765625 C-34.93984375 25.40179687 -35.7390625 25.32703125 -36.5625 25.25 C-37.35140625 25.18039063 -38.1403125 25.11078125 -38.953125 25.0390625 C-41.398377 24.60992887 -43.16086903 23.83899362 -45.3125 22.625 C-44.75250311 18.96829678 -44.75250311 18.96829678 -42.80957031 17.45239258 C-42.17631836 17.14454834 -41.54306641 16.8367041 -40.890625 16.51953125 C-40.19453125 16.17599609 -39.4984375 15.83246094 -38.78125 15.47851562 C-38.0490625 15.13498047 -37.316875 14.79144531 -36.5625 14.4375 C-35.84578125 14.08236328 -35.1290625 13.72722656 -34.390625 13.36132812 C-30.72693282 11.58672723 -27.39097433 10.16290902 -23.3125 9.625 C-23.3125 8.965 -23.3125 8.305 -23.3125 7.625 C-20.87593315 6.47714624 -18.43830719 5.33164598 -16 4.1875 C-15.30970703 3.86201172 -14.61941406 3.53652344 -13.90820312 3.20117188 C-8.85496157 0.83322777 -5.55650378 -0.55640227 0 0 Z M-28.3125 25.625 C-27.6525 26.945 -26.9925 28.265 -26.3125 29.625 C-26.3125 28.305 -26.3125 26.985 -26.3125 25.625 C-26.9725 25.625 -27.6325 25.625 -28.3125 25.625 Z M-25.3125 32.625 C-24.3125 34.625 -24.3125 34.625 -24.3125 34.625 Z M0.6875 41.9375 C-0.5674012 43.72822171 -0.5674012 43.72822171 -0.3125 46.625 C3.9775 46.625 8.2675 46.625 12.6875 46.625 C12.2422002 41.99480013 12.2422002 41.99480013 10.6875 40.625 C5.39766229 40.0907577 5.39766229 40.0907577 0.6875 41.9375 Z " fill="#FBC539" transform="translate(54.3125,6.375)"/>
<path d="M0 0 C1.81008122 -0.70392047 3.61672894 -1.4202474 5.390625 -2.2109375 C8.95415055 -3.28853055 12.43282926 -3.39507574 16.125 -3.4375 C16.8061084 -3.45917236 17.4872168 -3.48084473 18.18896484 -3.50317383 C23.25792325 -3.48528629 26.0847328 -2.13338075 30 1 C33.38705253 4.73743727 34.12919786 8.17347682 34.11352539 13.12597656 C34.11341209 14.32676849 34.11341209 14.32676849 34.11329651 15.55181885 C34.10813522 16.40612488 34.10297394 17.26043091 34.09765625 18.140625 C34.0962413 19.02280701 34.09482635 19.90498901 34.09336853 20.81390381 C34.08778001 23.62597065 34.07522961 26.4379573 34.0625 29.25 C34.05748352 31.15885302 34.05292087 33.06770728 34.04882812 34.9765625 C34.03866609 39.65109728 34.01908842 44.32545907 34 49 C26.41 49 18.82 49 11 49 C10.93941406 46.71320313 10.87882813 44.42640625 10.81640625 42.0703125 C10.75462647 39.85950378 10.69123481 37.64874676 10.62768555 35.43798828 C10.58433074 33.89962347 10.54265605 32.36121037 10.50268555 30.82275391 C10.44499602 28.6134586 10.38129821 26.40440652 10.31640625 24.1953125 C10.29969376 23.50567413 10.28298126 22.81603577 10.26576233 22.10549927 C10.19193005 18.42885736 10.19193005 18.42885736 9 15 C7.33388095 14.957279 5.66617115 14.95936168 4 15 C2.04901915 16.95098085 2.74584892 20.64674929 2.68359375 23.31640625 C2.66281265 24.04746078 2.64203156 24.77851532 2.62062073 25.53172302 C2.55504976 27.87521656 2.49620568 30.21882539 2.4375 32.5625 C2.39432192 34.14779855 2.35070787 35.73308529 2.30664062 37.31835938 C2.19853718 41.21212298 2.09952117 45.10596958 2 49 C-5.26 49 -12.52 49 -20 49 C-20.33 37.78 -20.66 26.56 -21 15 C-22.98 15.33 -24.96 15.66 -27 16 C-27.33 26.89 -27.66 37.78 -28 49 C-35.59 49 -43.18 49 -51 49 C-51 32.17 -51 15.34 -51 -2 C-43.74 -2 -36.48 -2 -29 -2 C-28.67 -1.34 -28.34 -0.68 -28 0 C-27.154375 -0.495 -26.30875 -0.99 -25.4375 -1.5 C-17.1539736 -5.06463226 -7.76217156 -3.94181401 0 0 Z " fill="#FCC63A" transform="translate(613,35)"/>
<path d="M0 0 C7.92 0 15.84 0 24 0 C24 6.93 24 13.86 24 21 C24.99 20.67 25.98 20.34 27 20 C45.74220477 18.7914646 45.74220477 18.7914646 53 24 C58.64713828 29.34992048 60.1211112 35.59202069 60.40698242 43.12670898 C60.52048654 51.48878468 60.15422829 59.30434385 54.3515625 65.86328125 C48.99840432 70.76060282 43.29636336 72.91401592 36 73 C30.67160067 72.40221559 25.72802017 71.61808594 21 69 C21 69.99 21 70.98 21 72 C14.07 72 7.14 72 0 72 C0 48.24 0 24.48 0 0 Z M24 38 C23.94616152 40.45862401 23.90640962 42.9160755 23.875 45.375 C23.85824219 46.07367188 23.84148437 46.77234375 23.82421875 47.4921875 C23.80655733 49.32897486 23.89696739 51.16601963 24 53 C25.87938172 55.29827312 25.87938172 55.29827312 28.9375 55.3125 C31.95548768 55.26305742 31.95548768 55.26305742 33.8125 53.6875 C36.42341557 49.97725156 36.23066948 46.38272015 36 42 C34.98263229 39.23857335 34.63829259 38.31914629 32 37 C27.85496339 36.75212983 27.85496339 36.75212983 24 38 Z " fill="#FCC63A" transform="translate(212,12)"/>
<path d="M0 0 C0.93328125 -0.01160156 1.8665625 -0.02320312 2.828125 -0.03515625 C11.32778247 0.00045684 19.15732317 1.50966902 25.4921875 7.53515625 C30.90424603 14.13898933 31.65870491 21.66504796 31.37890625 29.96875 C30.63574897 36.64950411 28.75046362 42.11569274 23.8125 46.8125 C14.51057113 53.78894665 1.82256373 54.18562713 -9.3359375 52.8671875 C-17.19937003 51.41441258 -22.45907416 48.70484944 -27.625 42.5703125 C-32.46852574 34.83718333 -31.94898079 24.56686477 -30.60546875 15.80078125 C-28.92034104 10.26703928 -24.81837964 6.32122284 -20 3.375 C-13.38095178 0.3983058 -7.1842515 -0.08930699 0 0 Z M-6 19.375 C-7.49304497 23.8541349 -7.72076325 28.36715951 -6.125 32.8125 C-5.06925899 34.53393274 -5.06925899 34.53393274 -3 35.375 C1.08755793 35.82936725 1.08755793 35.82936725 4.63671875 34.1328125 C7.08837862 30.97164648 7.13689146 27.27640649 7 23.375 C5.85848113 20.88441337 4.9103944 19.2853944 3 17.375 C-1.03160191 17.11206944 -2.55892734 17.08095156 -6 19.375 Z " fill="#FCC63A" transform="translate(523,31.625)"/>
<path d="M0 0 C0.96808594 -0.01998047 1.93617188 -0.03996094 2.93359375 -0.06054688 C10.36750371 -0.05555767 17.80336597 1.05455021 23.4765625 6.24633789 C28.28905964 11.56779216 28.64218192 16.00587181 28.59765625 23.04296875 C28.5962413 23.88217361 28.59482635 24.72137848 28.59336853 25.58601379 C28.58777215 28.26571216 28.57522035 30.9453269 28.5625 33.625 C28.55748453 35.44205608 28.55292171 37.25911348 28.54882812 39.07617188 C28.53865491 43.53000604 28.5190788 47.98365943 28.5 52.4375 C21.57 52.4375 14.64 52.4375 7.5 52.4375 C7.17 51.4475 6.84 50.4575 6.5 49.4375 C5.55125 49.911875 4.6025 50.38625 3.625 50.875 C-3.10958824 53.72633776 -10.31842818 54.13767227 -17.38671875 52.3046875 C-21.04309156 50.80429052 -23.9406105 48.43107165 -26.5 45.4375 C-28.57839264 39.20232209 -28.54448179 31.91814426 -26 25.875 C-19.68522238 19.71809182 -13.05688142 18.81732855 -4.5 18.6875 C-3.53449219 18.65785156 -2.56898438 18.62820312 -1.57421875 18.59765625 C0.78393466 18.52761209 3.14113746 18.47459708 5.5 18.4375 C5.5 17.7775 5.5 17.1175 5.5 16.4375 C2.4999376 16.41028169 -0.49987256 16.39055622 -3.5 16.375 C-4.33917969 16.36662109 -5.17835938 16.35824219 -6.04296875 16.34960938 C-11.29319339 16.32925967 -16.30455662 16.67381793 -21.5 17.4375 C-21.5 12.8175 -21.5 8.1975 -21.5 3.4375 C-14.12375092 0.90023184 -7.77898206 -0.05696991 0 0 Z M-4.5 32.4375 C-4.83 34.0875 -5.16 35.7375 -5.5 37.4375 C-3.62356239 39.31393761 -1.00194299 38.61734987 1.4921875 38.66796875 C3.81674328 38.55581337 3.81674328 38.55581337 6.5 36.4375 C6.5 35.1175 6.5 33.7975 6.5 32.4375 C2.87 32.4375 -0.76 32.4375 -4.5 32.4375 Z " fill="#FCC63A" transform="translate(303.5,31.5625)"/>
<path d="M0 0 C1.00289063 -0.01611328 2.00578125 -0.03222656 3.0390625 -0.04882812 C9.28524337 -0.05291594 13.92559356 0.73484482 19.625 3.3125 C19.625 8.9225 19.625 14.5325 19.625 20.3125 C18.3875 19.9825 17.15 19.6525 15.875 19.3125 C10.13855922 18.06899939 4.46322431 17.48937826 -1.375 18.3125 C-4.75800481 20.19166526 -4.75800481 20.19166526 -6.375 23.3125 C-6.94710224 26.81662619 -6.81540698 28.53654484 -5.0625 31.625 C-2.15019538 34.53730462 0.83397945 34.47210812 4.75 34.5 C9.98313502 34.46515889 14.57264051 33.63770905 19.625 32.3125 C19.625 37.9225 19.625 43.5325 19.625 49.3125 C8.57324283 54.29662578 -3.71707126 54.34053344 -15.375 51.3125 C-22.12153671 48.36144573 -27.63817247 44.66411184 -30.44140625 37.640625 C-32.63504573 29.8206215 -32.75006208 20.20358913 -29.4375 12.6875 C-25.97540767 6.84521919 -20.87644616 3.85866211 -14.80078125 1.17578125 C-9.85767814 -0.06985819 -5.07786003 -0.01619216 0 0 Z " fill="#FCC63A" transform="translate(470.375,31.6875)"/>
<path d="M0 0 C7.92 0 15.84 0 24 0 C24 18.15 24 36.3 24 55 C26.97 55 29.94 55 33 55 C33 59.95 33 64.9 33 70 C24.85179109 74.07410446 15.61602745 73.62288233 7 71 C2.87216521 68.55699574 1.45601028 66.49059641 0 62 C-0.24050903 59.04496765 -0.24050903 59.04496765 -0.22705078 55.7409668 C-0.22689972 54.50005783 -0.22674866 53.25914886 -0.22659302 51.9806366 C-0.21638143 50.63682899 -0.20594946 49.29302305 -0.1953125 47.94921875 C-0.19157931 46.5663117 -0.18873378 45.18340198 -0.18673706 43.80049133 C-0.17912462 40.1721966 -0.15949691 36.54406363 -0.1373291 32.91583252 C-0.11681899 29.20888456 -0.10772433 25.5019103 -0.09765625 21.79492188 C-0.07624852 14.52986586 -0.04108613 7.26497627 0 0 Z " fill="#FCC63A" transform="translate(378,12)"/>
<path d="M0 0 C7.92 0 15.84 0 24 0 C24 18.15 24 36.3 24 55 C26.97 55 29.94 55 33 55 C33 59.95 33 64.9 33 70 C24.85179109 74.07410446 15.61602745 73.62288233 7 71 C2.87216521 68.55699574 1.45601028 66.49059641 0 62 C-0.24050903 59.04496765 -0.24050903 59.04496765 -0.22705078 55.7409668 C-0.22689972 54.50005783 -0.22674866 53.25914886 -0.22659302 51.9806366 C-0.21638143 50.63682899 -0.20594946 49.29302305 -0.1953125 47.94921875 C-0.19157931 46.5663117 -0.18873378 45.18340198 -0.18673706 43.80049133 C-0.17912462 40.1721966 -0.15949691 36.54406363 -0.1373291 32.91583252 C-0.11681899 29.20888456 -0.10772433 25.5019103 -0.09765625 21.79492188 C-0.07624852 14.52986586 -0.04108613 7.26497627 0 0 Z " fill="#FCC63A" transform="translate(342,12)"/>
<path d="M0 0 C5.84830148 0.55494832 11.69605564 0.97025497 17.55859375 1.34375 C20.33874289 1.59365105 22.96685186 2.01476116 25.6875 2.625 C25.6875 3.945 25.6875 5.265 25.6875 6.625 C22.0575 8.605 18.4275 10.585 14.6875 12.625 C15.7084375 14.9453125 15.7084375 14.9453125 16.75 17.3125 C18.45791655 21.19412853 19.07690726 23.54531888 17.6875 27.625 C14.63686634 30.6078418 12.04579792 33.12211947 7.6875 33.625 C7.6875 34.285 7.6875 34.945 7.6875 35.625 C6.6975 35.625 5.7075 35.625 4.6875 35.625 C4.3575 34.965 4.0275 34.305 3.6875 33.625 C2.676875 33.769375 1.66625 33.91375 0.625 34.0625 C-3.61474735 34.5886557 -7.86485901 34.93923139 -12.125 35.25 C-13.41019531 35.34539063 -14.69539063 35.44078125 -16.01953125 35.5390625 C-19.3125 35.625 -19.3125 35.625 -22.3125 34.625 C-21.9825 36.935 -21.6525 39.245 -21.3125 41.625 C-23.3125 39.625 -25.3125 37.625 -27.3125 35.625 C-26.86373384 37.27346769 -26.40319512 38.91873455 -25.9375 40.5625 C-25.68226562 41.47902344 -25.42703125 42.39554688 -25.1640625 43.33984375 C-24.54589896 45.79245087 -24.54589896 45.79245087 -22.3125 46.625 C-24.1875 46.4375 -24.1875 46.4375 -26.3125 45.625 C-28.53577492 41.79602652 -28.99538491 37.31124691 -29.8046875 33.0078125 C-30.36077708 30.39846909 -31.18437725 28.04240588 -32.3125 25.625 C-32.91578125 25.57601563 -33.5190625 25.52703125 -34.140625 25.4765625 C-34.93984375 25.40179687 -35.7390625 25.32703125 -36.5625 25.25 C-37.35140625 25.18039063 -38.1403125 25.11078125 -38.953125 25.0390625 C-41.398377 24.60992887 -43.16086903 23.83899362 -45.3125 22.625 C-44.75250311 18.96829678 -44.75250311 18.96829678 -42.80957031 17.45239258 C-42.17631836 17.14454834 -41.54306641 16.8367041 -40.890625 16.51953125 C-40.19453125 16.17599609 -39.4984375 15.83246094 -38.78125 15.47851562 C-38.0490625 15.13498047 -37.316875 14.79144531 -36.5625 14.4375 C-35.84578125 14.08236328 -35.1290625 13.72722656 -34.390625 13.36132812 C-30.72693282 11.58672723 -27.39097433 10.16290902 -23.3125 9.625 C-23.3125 8.965 -23.3125 8.305 -23.3125 7.625 C-20.87593315 6.47714624 -18.43830719 5.33164598 -16 4.1875 C-15.30970703 3.86201172 -14.61941406 3.53652344 -13.90820312 3.20117188 C-8.85496157 0.83322777 -5.55650378 -0.55640227 0 0 Z M-28.3125 25.625 C-27.6525 26.945 -26.9925 28.265 -26.3125 29.625 C-26.3125 28.305 -26.3125 26.985 -26.3125 25.625 C-26.9725 25.625 -27.6325 25.625 -28.3125 25.625 Z M-25.3125 32.625 C-24.3125 34.625 -24.3125 34.625 -24.3125 34.625 Z " fill="#3D3A40" transform="translate(54.3125,6.375)"/>
<path d="M0 0 C5.94 0 11.88 0 18 0 C18 5.94 18 11.88 18 18 C12.06 18 6.12 18 0 18 C0 12.06 0 6.12 0 0 Z " fill="#FCC63A" transform="translate(414,66)"/>
<path d="M0 0 C2.97 0.33 5.94 0.66 9 1 C9 2.32 9 3.64 9 5 C5.37 6.98 1.74 8.96 -2 11 C-0.9790625 13.3203125 -0.9790625 13.3203125 0.0625 15.6875 C1.78960563 19.61274007 2.18956883 21.84773144 1 26 C0.67 24.68 0.34 23.36 0 22 C-0.9075 22.66 -1.815 23.32 -2.75 24 C-6 26 -6 26 -10 26 C-10.33 24.02 -10.66 22.04 -11 20 C-11.66 20 -12.32 20 -13 20 C-13 18.68 -13 17.36 -13 16 C-13.66 16 -14.32 16 -15 16 C-15 16.66 -15 17.32 -15 18 C-16.65 18 -18.3 18 -20 18 C-17.82082791 14.73124186 -16.03907543 13.89087617 -12.5703125 12.24609375 C-9.3545 10.68706003 -6.20822561 9.00691692 -3.0625 7.3125 C-1.93972656 6.71050781 -0.81695312 6.10851562 0.33984375 5.48828125 C2.84646631 4.24414954 2.84646631 4.24414954 4 3 C2.68 2.67 1.36 2.34 0 2 C0 1.34 0 0.68 0 0 Z " fill="#28252A" transform="translate(71,8)"/>
<path d="M0 0 C2.06618749 -0.09268505 2.06618749 -0.09268505 4.1875 -0.4375 C5.445625 -0.623125 6.70375 -0.80875 8 -1 C7.67 -0.01 7.34 0.98 7 2 C5.68 1.67 4.36 1.34 3 1 C3 2.32 3 3.64 3 5 C2.34 5 1.68 5 1 5 C0.32198966 7.90073181 0.32198966 7.90073181 0 11 C0.66 11.66 1.32 12.32 2 13 C0.741875 13.04125 -0.51625 13.0825 -1.8125 13.125 C-2.52019531 13.14820313 -3.22789063 13.17140625 -3.95703125 13.1953125 C-6 13 -6 13 -9 11 C-8.01 10.01 -7.02 9.02 -6 8 C-6.66 8 -7.32 8 -8 8 C-8.66 8.66 -9.32 9.32 -10 10 C-12.09375 10.6328125 -12.09375 10.6328125 -14.5 11.125 C-15.69109375 11.37636719 -15.69109375 11.37636719 -16.90625 11.6328125 C-19 12 -19 12 -21 12 C-21 11.34 -21 10.68 -21 10 C-22.32 9.67 -23.64 9.34 -25 9 C-21.51796351 6.05563091 -18.06874283 3.8051303 -14 1.75 C-12.989375 1.22921875 -11.97875 0.7084375 -10.9375 0.171875 C-6.77960866 -1.48685825 -4.20906445 -1.40302148 0 0 Z " fill="#5D575C" transform="translate(36,17)"/>
<path d="M0 0 C0.66 0 1.32 0 2 0 C2.3125 2.25 2.3125 2.25 2 5 C-0.75615725 7.75615725 -3.11497836 9.42444124 -7 10 C-7 10.66 -7 11.32 -7 12 C-7.99 12 -8.98 12 -10 12 C-10.33 11.34 -10.66 10.68 -11 10 C-12.670625 10.23009766 -12.670625 10.23009766 -14.375 10.46484375 C-19.24074836 11.07306229 -24.10392803 11.33311414 -29 11.5625 C-29.87011719 11.60568359 -30.74023438 11.64886719 -31.63671875 11.69335938 C-33.75768219 11.79824218 -35.87882433 11.89950075 -38 12 C-38.33 9.03 -38.66 6.06 -39 3 C-37.824375 3.309375 -36.64875 3.61875 -35.4375 3.9375 C-26.47904555 5.93930995 -17.14694023 6.07054196 -8 6 C-8 5.34 -8 4.68 -8 4 C-6.865625 3.525625 -5.73125 3.05125 -4.5625 2.5625 C-1.24259834 1.36377917 -1.24259834 1.36377917 0 0 Z " fill="#48444B" transform="translate(69,30)"/>
<path d="M0 0 C0.66 0 1.32 0 2 0 C2 1.32 2 2.64 2 4 C2.66 4 3.32 4 4 4 C4.33 6.64 4.66 9.28 5 12 C-0.8685408 13.14819277 -6.0885256 12.77313045 -12 12 C-12.33 11.01 -12.66 10.02 -13 9 C-14.98 9.33 -16.96 9.66 -19 10 C-19 9.34 -19 8.68 -19 8 C-16 6 -16 6 -12 6 C-12 5.34 -12 4.68 -12 4 C-8.09971775 1.39981184 -4.52565431 1.84914486 0 2 C0 1.34 0 0.68 0 0 Z " fill="#353238" transform="translate(56,24)"/>
<path d="M0 0 C2.475 0.99 2.475 0.99 5 2 C5 2.66 5 3.32 5 4 C6.45903258 3.69078116 7.91720722 3.37751201 9.375 3.0625 C10.18710937 2.88847656 10.99921875 2.71445312 11.8359375 2.53515625 C14.029463 2.07669307 14.029463 2.07669307 16 1 C16 2.65 16 4.3 16 6 C16.99 6.33 17.98 6.66 19 7 C20.203125 9.58203125 20.203125 9.58203125 21.25 12.8125 C21.60578125 13.87082031 21.9615625 14.92914063 22.328125 16.01953125 C22.9784667 18.90447728 23.02681757 20.28156631 22 23 C21.319375 21.7934375 21.319375 21.7934375 20.625 20.5625 C19.25274335 17.91143428 19.25274335 17.91143428 17 17 C17.44876616 18.64846769 17.90930488 20.29373455 18.375 21.9375 C18.63023438 22.85402344 18.88546875 23.77054688 19.1484375 24.71484375 C19.76660104 27.16745087 19.76660104 27.16745087 22 28 C20.125 27.8125 20.125 27.8125 18 27 C15.77672508 23.17102652 15.31711509 18.68624691 14.5078125 14.3828125 C13.95172292 11.77346909 13.12812275 9.41740588 12 7 C11.39671875 6.95101563 10.7934375 6.90203125 10.171875 6.8515625 C8.97304688 6.73941406 8.97304688 6.73941406 7.75 6.625 C6.96109375 6.55539063 6.1721875 6.48578125 5.359375 6.4140625 C2.914123 5.98492887 1.15163097 5.21399362 -1 4 C-0.67 2.68 -0.34 1.36 0 0 Z M16 7 C16.66 8.32 17.32 9.64 18 11 C18 9.68 18 8.36 18 7 C17.34 7 16.68 7 16 7 Z M19 14 C20 16 20 16 20 16 Z " fill="#2C281E" transform="translate(10,25)"/>
<path d="M0 0 C0 1.32 0 2.64 0 4 C-7.93840199 6.90830856 -15.58557044 7.64838839 -24 8 C-26 5 -26 5 -26 2 C-24.73542969 1.93941406 -23.47085938 1.87882812 -22.16796875 1.81640625 C-20.50780129 1.73199096 -18.84764563 1.64734345 -17.1875 1.5625 C-16.35412109 1.52318359 -15.52074219 1.48386719 -14.66210938 1.44335938 C-13.85966797 1.40146484 -13.05722656 1.35957031 -12.23046875 1.31640625 C-11.12288208 1.26141968 -11.12288208 1.26141968 -9.99291992 1.20532227 C-6.48320762 0.84373118 -3.61727927 -0.0977643 0 0 Z " fill="#ABA1AE" transform="translate(58,39)"/>
<path d="M0 0 C0.66 0 1.32 0 2 0 C2.3125 2.25 2.3125 2.25 2 5 C-0.75615725 7.75615725 -3.11497836 9.42444124 -7 10 C-7 10.66 -7 11.32 -7 12 C-7.99 12 -8.98 12 -10 12 C-10.33 11.34 -10.66 10.68 -11 10 C-17.435 10.495 -17.435 10.495 -24 11 C-21.02025837 9.01350558 -18.86336935 8.27822521 -15.4375 7.375 C-14.46683594 7.11460938 -13.49617188 6.85421875 -12.49609375 6.5859375 C-10 6 -10 6 -8 6 C-8 5.34 -8 4.68 -8 4 C-6.865625 3.525625 -5.73125 3.05125 -4.5625 2.5625 C-1.24259834 1.36377917 -1.24259834 1.36377917 0 0 Z " fill="#948A90" transform="translate(69,30)"/>
<path d="M0 0 C-0.33 0.99 -0.66 1.98 -1 3 C-2.32 2.67 -3.64 2.34 -5 2 C-5 3.32 -5 4.64 -5 6 C-5.66 6 -6.32 6 -7 6 C-7.67801034 8.90073181 -7.67801034 8.90073181 -8 12 C-7.34 12.66 -6.68 13.32 -6 14 C-7.258125 14.04125 -8.51625 14.0825 -9.8125 14.125 C-10.52019531 14.14820313 -11.22789063 14.17140625 -11.95703125 14.1953125 C-14 14 -14 14 -17 12 C-16.01 11.34 -15.02 10.68 -14 10 C-12.80767387 7.94996045 -12.80767387 7.94996045 -12 6 C-11.01 6 -10.02 6 -9 6 C-9.7425 5.319375 -9.7425 5.319375 -10.5 4.625 C-12 3 -12 3 -12 1 C-10.37512529 0.83211627 -8.75009558 0.66573213 -7.125 0.5 C-6.22007813 0.4071875 -5.31515625 0.314375 -4.3828125 0.21875 C-2 0 -2 0 0 0 Z " fill="#4F443D" transform="translate(44,16)"/>
<path d="M0 0 C0.33 0.99 0.66 1.98 1 3 C-1.28848039 5.28848039 -2.39407717 5.4896976 -5.5 6.125 C-6.2940625 6.29257812 -7.088125 6.46015625 -7.90625 6.6328125 C-10 7 -10 7 -12 7 C-12 6.34 -12 5.68 -12 5 C-13.32 4.67 -14.64 4.34 -16 4 C-11.34158975 -1.14031476 -6.42886252 -0.40532233 0 0 Z " fill="#68636A" transform="translate(27,22)"/>
<path d="M0 0 C2.28814723 2.28814723 2.75451161 3.80751622 3.6875 6.875 C3.95949219 7.73867188 4.23148438 8.60234375 4.51171875 9.4921875 C5.01692938 12.08694932 4.85561171 13.530785 4 16 C3.54625 15.195625 3.0925 14.39125 2.625 13.5625 C1.25274335 10.91143428 1.25274335 10.91143428 -1 10 C-0.55123384 11.64846769 -0.09069512 13.29373455 0.375 14.9375 C0.63023438 15.85402344 0.88546875 16.77054688 1.1484375 17.71484375 C1.76660104 20.16745087 1.76660104 20.16745087 4 21 C2.125 20.8125 2.125 20.8125 0 20 C-2.57994602 15.55675964 -3.08647333 10.00495994 -4 5 C-2.68 4.67 -1.36 4.34 0 4 C0 2.68 0 1.36 0 0 Z M1 7 C2 9 2 9 2 9 Z " fill="#3D391B" transform="translate(28,32)"/>
<path d="M0 0 C2.97 0.33 5.94 0.66 9 1 C9 2.32 9 3.64 9 5 C5.37 6.98 1.74 8.96 -2 11 C-1.34 12.32 -0.68 13.64 0 15 C-0.33 15.99 -0.66 16.98 -1 18 C-1.99 16.02 -2.98 14.04 -4 12 C-4.66 12 -5.32 12 -6 12 C-5.75 10.13671875 -5.75 10.13671875 -5 8 C-3.1875 6.76953125 -3.1875 6.76953125 -1 5.8125 C1.70697055 4.71045539 1.70697055 4.71045539 4 3 C2.68 2.67 1.36 2.34 0 2 C0 1.34 0 0.68 0 0 Z " fill="#0E0C0F" transform="translate(71,8)"/>
<path d="M0 0 C0.66 0 1.32 0 2 0 C2.3125 2.25 2.3125 2.25 2 5 C-0.5 7.3125 -0.5 7.3125 -3 9 C-3.99 8.01 -4.98 7.02 -6 6 C-4 4 -2 2 0 0 Z " fill="#625A61" transform="translate(69,30)"/>
<path d="M0 0 C2.140625 0.9453125 2.140625 0.9453125 4 2 C2.06629769 3.00732399 0.12789694 4.00563288 -1.8125 5 C-3.43091797 5.8353125 -3.43091797 5.8353125 -5.08203125 6.6875 C-8 8 -8 8 -11 8 C-11 7.34 -11 6.68 -11 6 C-8 4 -8 4 -4 4 C-4 3.34 -4 2.68 -4 2 C-2.25 0.875 -2.25 0.875 0 0 Z " fill="#1F1C22" transform="translate(48,26)"/>
<path d="M0 0 C0.99 0.33 1.98 0.66 3 1 C2.79375 1.61875 2.5875 2.2375 2.375 2.875 C2.25125 3.57625 2.1275 4.2775 2 5 C2.66 5.66 3.32 6.32 4 7 C2.741875 7.04125 1.48375 7.0825 0.1875 7.125 C-0.52019531 7.14820313 -1.22789063 7.17140625 -1.95703125 7.1953125 C-4 7 -4 7 -7 5 C-3.375 2 -3.375 2 0 2 C0 1.34 0 0.68 0 0 Z " fill="#5A565E" transform="translate(34,23)"/>
<path d="M0 0 C4.04131267 1.34710422 4.90288434 3.38428334 7 7 C7 7.99 7 8.98 7 10 C6.01 10.495 6.01 10.495 5 11 C2.27042661 8.64264116 1.11106604 6.41866474 0 3 C0 2.01 0 1.02 0 0 Z " fill="#C6B649" transform="translate(27,42)"/>
<path d="M0 0 C2.475 0.99 2.475 0.99 5 2 C5 2.66 5 3.32 5 4 C5.99 3.67 6.98 3.34 8 3 C10.6875 3.9375 10.6875 3.9375 13 5 C12.34 5.66 11.68 6.32 11 7 C6.54644135 6.71267364 2.84899168 6.4056198 -1 4 C-0.67 2.68 -0.34 1.36 0 0 Z " fill="#1A191C" transform="translate(10,25)"/>
<path d="M0 0 C0 0.99 0 1.98 0 3 C-2.64738916 4.4606285 -3.89448334 5 -7 5 C-7 5.66 -7 6.32 -7 7 C-8.65 7 -10.3 7 -12 7 C-9.96660352 3.94990528 -9.15653311 3.3269396 -6 1.8125 C-5.29875 1.46832031 -4.5975 1.12414062 -3.875 0.76953125 C-2 0 -2 0 0 0 Z " fill="#1A171D" transform="translate(63,19)"/>
<path d="M0 0 C0.66 0.33 1.32 0.66 2 1 C2.625 4.0625 2.625 4.0625 3 7 C1.68 7 0.36 7 -1 7 C-1 6.34 -1 5.68 -1 5 C-2.32 4.67 -3.64 4.34 -5 4 C-3.35 2.68 -1.7 1.36 0 0 Z " fill="#514E55" transform="translate(16,22)"/>
<path d="M0 0 C2.31 0.33 4.62 0.66 7 1 C6.67 1.99 6.34 2.98 6 4 C6 4.33 6 4.66 6 5 C4.68 5.33 3.36 5.66 2 6 C0 3 0 3 0 0 Z " fill="#B1A4A4" transform="translate(32,41)"/>
<path d="M0 0 C0.99 0.33 1.98 0.66 3 1 C3.6875 3.0625 3.6875 3.0625 4 5 C1.36749612 6.31625194 0.19820944 5.74813658 -2.625 5.0625 C-3.44226562 4.86785156 -4.25953125 4.67320313 -5.1015625 4.47265625 C-6.04128906 4.23869141 -6.04128906 4.23869141 -7 4 C-7 3.67 -7 3.34 -7 3 C-3.535 2.505 -3.535 2.505 0 2 C0 1.34 0 0.68 0 0 Z " fill="#837B88" transform="translate(61,34)"/>
<path d="M0 0 C-1.25839515 3.77518545 -2.55903808 4.19759138 -6 6 C-6.99 6.33 -7.98 6.66 -9 7 C-9.66 6.34 -10.32 5.68 -11 5 C-9.54462432 4.16151196 -8.08559627 3.32936066 -6.625 2.5 C-5.81289063 2.0359375 -5.00078125 1.571875 -4.1640625 1.09375 C-2 0 -2 0 0 0 Z " fill="#3E3B40" transform="translate(30,16)"/>
<path d="M0 0 C0.99 0.33 1.98 0.66 3 1 C2.67 1.66 2.34 2.32 2 3 C2.99 3.33 3.98 3.66 5 4 C5 4.66 5 5.32 5 6 C4.01 6 3.02 6 2 6 C2 5.34 2 4.68 2 4 C0.35 4 -1.3 4 -3 4 C-2.01 2.68 -1.02 1.36 0 0 Z " fill="#575154" transform="translate(30,16)"/>
<path d="M0 0 C3 1 3 1 6 3 C3.04335481 4.4783226 0.25770263 4.06032783 -3 4 C-2.67 3.01 -2.34 2.02 -2 1 C-1.67 1.33 -1.34 1.66 -1 2 C-0.67 1.34 -0.34 0.68 0 0 Z " fill="#B6ACBE" transform="translate(39,42)"/>
<path d="M0 0 C1.88391785 3.26545761 2.49287967 6.28111761 3 10 C0.51559898 7.83965128 -0.58789525 6.29683798 -1 3 C-0.67 2.01 -0.34 1.02 0 0 Z " fill="#0E0C0A" transform="translate(30,38)"/>
</svg>
