<svg id="Слой_2" data-name="Слой 2" xmlns="http://www.w3.org/2000/svg" viewBox="0 0 381.85 250.94">
  <defs>
    <style>
      .cls-1 {
        fill: #f0a549;
      }

      .cls-2 {
        fill: #eb9632;
      }

      .cls-3 {
        fill: #f3b05b;
      }

      .cls-4 {
        fill: none;
        stroke: #3e1c0a;
        stroke-linecap: square;
        stroke-linejoin: round;
        stroke-width: 15px;
      }

      .cls-5 {
        fill: #3e1c0a;
      }
    </style>
  </defs>
  <g id="Слой_4" data-name="Слой 4">
    <path class="cls-1" d="M230.83,139.36c-1.28.19-2.54.44-3.81.71-2.1.37-4.19.69-6.28.94a5,5,0,0,0-2.76-1c-4.82-.34-9.35-2-14.08-2.88a90.73,90.73,0,0,0-13.77-1.26l-4.75-.15-.94-.17-24.51-4.37a56.36,56.36,0,0,0-7.47-2.48,12.51,12.51,0,0,0-9.36-3.78h-.23a48.62,48.62,0,0,0-8.26-3.47c-3.6-1.36-6.06-3.81-8.89-6.29s-6-4.35-8.38-7.14a4.11,4.11,0,0,0-4.14-1.55c-.75-.89-1.51-1.72-2.3-2.52a9.75,9.75,0,0,0-.16-3.61c-.69-2.89-3-3.87-4.22-4.71-1.73-1.18-3.63-3.63-5.69-5.55a4.85,4.85,0,0,0-.61-3.12c-1-1.75-2.06-3.44-3.14-5.15a27.5,27.5,0,0,0-.34-3.26,58.9,58.9,0,0,1-1.21-10.92,5.43,5.43,0,0,0-.38-2.07c3.29-4.84-4-9.25-8-5.91-.77.65-1.56,1.28-2.36,1.9a5,5,0,0,0-1.71.33,73.57,73.57,0,0,0-11.77,5.65,16.56,16.56,0,0,1-2.06-.92c-3.66-2-7.08.92-7.47,4.08h-.13a7.21,7.21,0,0,0-3,1.47l-.6.17a4.6,4.6,0,0,0-3.56,4.54l-1.35,1L42.41,80.4c-.74.17-1.51.34-2.3.5-4.65-.4-9.16.18-11.85,4.27-3.73,5.67-.09,12.12,6.33,12.72.92.08,1.84.11,2.76.11a4.94,4.94,0,0,0,4.81,3.81,37.12,37.12,0,0,0,4.82-.38q.33.57.69,1.11A5.54,5.54,0,0,0,51,106.38a19.16,19.16,0,0,0,1.64,1.34,6.67,6.67,0,0,0,8.28,0,4.15,4.15,0,0,0,3,5,3.43,3.43,0,0,0,.44.09c9.76,1.78,18.1,6.76,26.67,11.4a13.22,13.22,0,0,0-.12,2.18,7.46,7.46,0,0,0,1.1,3.49c1.76,2.65,4.84,2.92,7.76,2.43a26,26,0,0,0,5.51-1.68,100.55,100.55,0,0,0,21.15,4.46c.52,6.64,12.17,7.94,20.58,8.86,2.39,4.62,9.7,6.23,14.75,7.25a5.24,5.24,0,0,0,1.34,1.14C169,156,175.4,157,182,157.59c1.21.43,2.43.79,3.67,1.1a4.28,4.28,0,0,0,3.48,3.8,31.93,31.93,0,0,0,4,.61,4.39,4.39,0,0,0,1.4.08,27.08,27.08,0,0,0,3.12-.06,5,5,0,0,0,3.72-2,60.94,60.94,0,0,0,12.14-6,95,95,0,0,1,15.58-5.21l4.3-.81C239.9,147.72,237.05,138.44,230.83,139.36Z" transform="translate(0.05 0)"/>
    <g id="Слой_5" data-name="Слой 5">
      <path class="cls-1" d="M150.57,198.86a5.79,5.79,0,0,0-2-3.1,15.53,15.53,0,0,0-3.84-9.46c-4.64-5.33-11.73-6.79-18.49-6.88-6.35-.1-6.43,9.62-.26,10a6.55,6.55,0,0,0-1.63,3.65c-2.33-2.63-4.88-6.16-4.22-7.44,3-5.7-5.66-10.76-8.63-5-3.41,6.54.93,13.2,4.94,18.44,5,6.46,11.41,8.92,19.4,9.06C141.12,208.16,152.83,207.33,150.57,198.86Zm-14.69-7.21a8.81,8.81,0,0,1,1,.83,5,5,0,0,0-1,.23c0-.21.06-.41.07-.62a3.11,3.11,0,0,0-.07-.44Z" transform="translate(0.05 0)"/>
      <path class="cls-2" d="M269.41,157.74a4.2,4.2,0,0,0-.79-2c.49-1.42.93-2.65,1.12-3.34,1.13-4.17-3.58-7.9-7.35-5.64-3.44,2.06-6.81,4.29-10.31,6.22h-2.72a40.44,40.44,0,0,0-10.46,1.84,40.6,40.6,0,0,0-9.7,1.09,4.53,4.53,0,0,0-3.56,4.39q-3.52.82-6.94,2a4.89,4.89,0,0,0-3.34,6c0,.14.08.27.13.4l-15.89,2.58a4,4,0,0,0-3,2.2l-5,1.21h-.11a5.26,5.26,0,0,0-2.36.82,12.86,12.86,0,0,0-1-1.13,4.23,4.23,0,0,0-5.22-1.16,5,5,0,0,0-6.09.5c-1.38-2.77-2.89-5.48-4.42-8.13-1.92-3.32-5.39-3-7.48-1a5.5,5.5,0,0,0-7.43.35c-.68-1-1.36-2-2.07-2.94a5.19,5.19,0,0,0-6.88-1.57h0a5.59,5.59,0,0,0-5.93-2l-1.93-3.34a5,5,0,0,0-6.87-1.67,4.53,4.53,0,0,0-.63.45l-1-1.9c-1.66-3.06-5.63-2.88-7.86-1a27.32,27.32,0,0,0-2.07-2.23,4.82,4.82,0,0,0-4.51-1.29,14.38,14.38,0,0,0-4.83-4.54,4.71,4.71,0,0,0-3.79-.43c-.06-.13-.1-.26-.15-.39-1-2.5-3.77-4.51-6.45-3.45a5.8,5.8,0,0,0-3.66-.58c-2.28-2.85-7.58-3-8.72,1.54-5.14,20.63-8.82,45.44,0,65.57a43.45,43.45,0,0,0,18.71,20.6,59.7,59.7,0,0,0,7.55,3.44,5.36,5.36,0,0,0,6.06,4.53l.13,0c1.67-.31,3.35-.56,5-.8a7.56,7.56,0,0,0,2.42.1,4.84,4.84,0,0,0,4.46,3.2q13.11.09,26.16-.82a4.48,4.48,0,0,0,3.81,1.64l14.44-.31a4.55,4.55,0,0,0,4.66,3.48,79.13,79.13,0,0,0,8-.65,5.83,5.83,0,0,0,4.14,2.23c3,.34,6.39.73,9.35-.09a8.45,8.45,0,0,0,3.7-2.07,5.33,5.33,0,0,0,1-1.56,5.6,5.6,0,0,0,5.05,2,15.26,15.26,0,0,0,8.14-4,4.85,4.85,0,0,0,.81-.94,4.77,4.77,0,0,0,1.14-2.73,30.24,30.24,0,0,0,8.4-1.31,4.79,4.79,0,0,0,3.45-4.07,99.88,99.88,0,0,0,8.29-5.71,15.19,15.19,0,0,0,2.33-2.13c1.62-.75,3.25-1.55,4.8-2.44l2.15-1a4.15,4.15,0,0,0,2.11-2l.07-.06a16.6,16.6,0,0,0,6.89-3.78c3.92-3.76,5.74-10.28,6.8-15.42C272.78,182.28,271.11,169.88,269.41,157.74Z" transform="translate(0.05 0)"/>
    </g>
    <g id="Слой_6" data-name="Слой 6">
      <path class="cls-2" d="M278.24,191.7c-2.52,7.16-5.71,16.57-11.17,22.1-2.83,2.87-6.9,4.85-10.25,7l-11,7.08c-5.39,3.48-.38,12.13,5.05,8.64l13.35-8.61c3.84-2.47,8.07-4.79,11.07-8.32,5.94-7,9.57-16.67,12.59-25.25C290,188.27,280.37,185.66,278.24,191.7Z" transform="translate(0.05 0)"/>
      <path class="cls-3" d="M290.52,137.61c-5.3-3.84-12.37-.75-15.07,4.62-1.76,3.49-1.74,7.5-1.86,11.32-.15,4.75-.28,9.5-.42,14.25-.27,9.27.28,19-2,28.07-1.61,6.26-4.7,13.69-9.39,18.69a6.13,6.13,0,0,0-3.8,2.51,4.65,4.65,0,0,0-.7,1.41c-4.79,5.71-12.55,8-19.44,10.16-6.13,1.9-3.51,11.56,2.66,9.64,6.62-2.06,13.09-4.39,18.56-8.25,1.28,2.85,5.46,4.44,8.25,1.77,6.11-5.85,14-11.59,18.35-19s5.11-16.88,5.23-25.32c0-2.29,0-4.59-.07-6.89a134.63,134.63,0,0,0,.08-16.07c.14-1.72.35-3.44.64-5.15C292.63,152.89,297.31,142.5,290.52,137.61Z" transform="translate(0.05 0)"/>
      <path class="cls-3" d="M354.08,83.79c-18.86-3.82-34.86-12.22-51.72-21.1s-34.69-14.44-52.24-21.3a248.37,248.37,0,0,1-26.12-12c-7.87-4.19-15.54-9-24.08-11.74-16.57-5.31-33.57,1.13-48.77,7.79a119.83,119.83,0,0,0-11.93,6l-2.68.91a4.88,4.88,0,0,0-3,2.59,76.18,76.18,0,0,0-20,18.93,4.86,4.86,0,0,0-5.63.77l-.29.28A4.91,4.91,0,0,0,101,57a5.3,5.3,0,0,0-.37.93c-4.63,16.86.61,35.91,14.13,47.28,7.43,6.24,16.47,10.93,25.23,15a71.83,71.83,0,0,0,8.25,3.21,5.09,5.09,0,0,0,2,1.06l8.5,2.45a5.15,5.15,0,0,0,1.78.82l7.47,1.85,2.22.64a6,6,0,0,0,1.25.22l18,4.46c8.81,2.18,17.21,4.36,26.33,4.44,9.48.09,19,1.38,28.44.25,9.11-1.08,17.89-3.7,26.63-6.4a4.8,4.8,0,0,0,2.91-2.31A193.79,193.79,0,0,0,300.07,118a4.56,4.56,0,0,0,5.38.36A146,146,0,0,1,333,106c4.2-1.37,8.89-2.14,12.75-4.37,3.69-2.13,5.67-6.14,9.28-8.26a4.58,4.58,0,0,0,2.34-3.27C358.31,87.53,357.45,84.47,354.08,83.79Z" transform="translate(0.05 0)"/>
    </g>
  </g>
  <path class="cls-4" d="M191.65,243.44c13.41,0,45-.2,68.07-9.15,22-8.51,35.93-25.46,35.93-38.22V137.61" transform="translate(0.05 0)"/>
  <path class="cls-4" d="M87.06,137.77v58.3c0,12.76,13.93,29.71,35.93,38.22,23.11,9,54.66,9.15,68.07,9.15" transform="translate(0.05 0)"/>
  <path class="cls-5" d="M197.89,238.33c15.83-5.19,31.9-10.81,46.79-18.31,9.36-4.77,18.32-11.89,22.15-22C268.74,192.9,269,187.44,269,182a185.43,185.43,0,0,0-4.51-39.42l13.42-.41-.84,5.73c-1.68,11.5-2.14,22.83-3.05,34.28-.41,12.52-3.18,23.47-11.66,33.12a54.37,54.37,0,0,1-14,11.25c-15,8.82-30.78,15.54-46.87,22l-5,2L192.76,240l5.16-1.66Z" transform="translate(0.05 0)"/>
  <path class="cls-5" d="M106.41,47.21c-14.44,29.4-1,52,25.39,67.22,24.63,13.75,53,20.53,81.18,20.91a199.64,199.64,0,0,0,55.41-5.81l2.34,10.27a185.85,185.85,0,0,1-58.25,2.71c-9.64-1.15-19.12-3-28.55-4.95-14.16-2.88-28.21-6.65-41.57-12.26-17.92-7.65-36.05-18.76-44.8-37-6.83-14.17-5-30.48.72-44.67l8.13,3.53Z" transform="translate(0.05 0)"/>
  <path class="cls-5" d="M191.46,20.24,354,90.76l-66.28,28.48-24.3,10.44-72,30.94L94.91,119.38l-67-28.62L191.48,20.24m0-20.24a17.08,17.08,0,0,0-6.83,1.4L9.31,77a14.87,14.87,0,0,0,0,27.62L87,137.75l97.63,41.7a17.36,17.36,0,0,0,13.6,0l73.09-31.39,24.3-10.45,76.85-33a14.88,14.88,0,0,0,.05-27.6L198.31,1.42A17.3,17.3,0,0,0,191.43,0Z" transform="translate(0.05 0)"/>
</svg>
